<svg xmlns="http://www.w3.org/2000/svg" xmlns:dc="http://purl.org/dc/elements/1.1/" xmlns:ns2="http://design.blush" xmlns:ns4="http://creativecommons.org/ns#" xmlns:rdf="http://www.w3.org/1999/02/22-rdf-syntax-ns#" xmlns:xlink="http://www.w3.org/1999/xlink" width="264px" height="280px" viewBox="0 0 264 280" version="1.1">
    <title id="transparent_Title">Avataaar/Default</title>
    <desc>Created with python_avatars</desc>
    <defs>
        <path d="M100,0 C130.927946,-5.68137151e-15 156,25.072054 156,56 L156.000809,62.1660527 C161.675838,63.1185422 166,68.05429 166,74 L166,88 C166,94.0524166 161.519235,99.0582945 155.693975,99.8813638 C153.627928,119.686472 141.237929,136.421678 124.001014,144.610469 L124,163 L128,163 C167.764502,163 200,195.235498 200,235 L200,244 L0,244 L0,235 C-4.86974701e-15,195.235498 32.235498,163 72,163 L76,163 L75.9999836,144.610943 C58.7625487,136.422324 46.3721119,119.686854 44.3051107,99.8809698 C38.480765,99.0582945 34,94.0524166 34,88 L34,74 C34,68.053942 38.3246685,63.1179645 44.0001873,62.1658855 L44,56 C44,25.072054 69.072054,5.68137151e-15 100,0 Z" id="transparent_path-1" />
        <path d="M83,36.3476251 C83,52.6289957 105.161905,65.8276544 132.5,65.8276544 C159.838095,65.8276544 182,52.6289957 182,36.3476251 C182,34.9853134 181.844841,33.6445843 181.544472,32.3313638 C210.784239,41.4879251 232,68.792221 232,101.051724 L232,110 L32,110 L32,101.051724 C32,68.3970853 53.7386736,40.8197864 83.5337207,32.0021267 C83.1821692,33.4207025 83,34.871494 83,36.3476251 Z" id="transparent_path-3" />
        <rect id="transparent_path-5" x="0" y="0" width="264" height="280" />
        <path d="M74,0 C114.869071,0 148,33.1309285 148,74 L148,84.1482318 L148,197.608051 C135.525121,187.236892 119.490913,181 102,181 L102,181 L98,181 L98,162.610951 C115.530782,154.282984 128.048193,137.114792 129.791419,116.867187 C135.569129,116.002364 140,111.018625 140,105 L140,105 L140,92 C140,87.3536213 137.359271,83.3240177 133.496777,81.3301515 C132.723933,81.0500337 131.951808,80.748163 131.180891,80.4262497 C130.794819,80.3202581 130.400778,80.2331546 130,80.1659169 L130,80.1659169 L130.000458,79.9172528 C117.224481,74.2339715 104.877985,63.0706967 96.1104311,47.8848473 C93.1752556,42.8009742 90.8310687,37.5951441 89.0661426,32.3970356 C80.4313947,42.9409152 67.7445474,53.6023901 52.3415164,62.4953343 C42.777598,68.0170651 33.1467898,72.2910056 24,75.2659587 L24.0003852,137.246608 C29.6019576,148.318362 38.7728825,157.277529 50,162.610951 L50,162.610951 L50,181 L46,181 C38.3273639,181 30.9350359,182.200142 24.0004995,184.422941 L24,230 C24,244.105888 13.5691766,255.775526 0,257.716445 L0,74 C0,33.1309285 33.1309285,0 74,0 Z" id="transparent_path-7" />
    </defs>
    <g id="transparent_Avataaar/Default" stroke="none" stroke-width="1" fill="none" fill-rule="evenodd">
        <g id="transparent_Body" transform="translate(32.000000, 36.000000)">
            <mask id="transparent_mask-2" fill="white">
                <use xlink:href="#transparent_path-1" />
            </mask>
            <use fill="#D0C6AC" xlink:href="#transparent_path-1" />
            <g id="transparent_Skin-Color" mask="url(#transparent_mask-2)" fill="#614335">
                <g transform="translate(-32.000000, 0.000000)" id="transparent_Color">
                    <rect x="0" y="0" width="264" height="244" />
                </g>
            </g>
            <path d="M44,94 C44,124.927946 69.072054,150 100,150 C130.927946,150 156,124.927946 156,94 L156,94 L156,102 C156,132.927946 130.927946,158 100,158 C69.072054,158 44,132.927946 44,102 Z" id="transparent_Neck-Shadow" fill-opacity="0.100000001" fill="#000000" mask="url(#transparent_mask-2)" />
        </g>
        <g id="transparent_Clothing" transform="translate(0.000000, 170.000000)">
            
        <g id="astronaut_suit_Clothing/Astronaut suit" stroke="none" stroke-width="1" fill="none" fill-rule="evenodd"><g id="astronaut_suit_Astronaut-suit" transform="translate(32.000000, 22.000000)"><path d="M127.9997,6.7405 L123.9997,6.7405 L124.0007,0.0005 L75.9997,0.0005 L75.9997,6.7405 L71.9997,6.7405 C32.6327,6.7405 0.6457,38.3345 0.0097,77.5495 L-0.0003,78.7405 L-0.0003,87.7405 L199.9997,87.7405 L199.9997,78.7405 C199.9997,38.9755 167.7647,6.7405 127.9997,6.7405" id="astronaut_suit_Fill-1" fill="#B0DBE2" /><path d="M180.2253,29.2054 C168.8273,38.7164 145.7303,58.8474 145.7303,58.8474 L145.7303,87.7404 L199.9993,87.7404 L199.9993,78.7404 C199.9993,59.5424 192.4713,42.1134 180.2253,29.2054" id="astronaut_suit_Fill-4" fill="#D4EEF4" /><path d="M0.0095,77.5491 L0.0005,78.7401 L0.0005,87.7401 L54.3105,87.7401 L54.3105,58.8471 C54.3105,58.8471 31.1785,38.6861 19.7905,29.1841 C7.7865,41.8261 0.3135,58.8131 0.0095,77.5491" id="astronaut_suit_Fill-6" fill="#D4EEF4" /><path d="M121.8503,50.7298 L78.1893,50.7298 C73.4013,50.7298 69.5203,54.6118 69.5203,59.3998 L69.5203,87.7738 L130.5203,87.7738 L130.5203,59.3998 C130.5203,54.6118 126.6383,50.7298 121.8503,50.7298" id="astronaut_suit_Fill-8" fill="#60ADE6" ns2:color="Top-500" /><path d="M83.6935,58.473 C80.9605,58.473 78.7445,60.689 78.7445,63.422 C78.7445,66.156 80.9605,68.371 83.6935,68.371 C86.4265,68.371 88.6425,66.156 88.6425,63.422 C88.6425,60.689 86.4265,58.473 83.6935,58.473" id="astronaut_suit_Fill-10" fill="#EBFCFF" /><path d="M100.0202,58.473 C97.2872,58.473 95.0712,60.689 95.0712,63.422 C95.0712,66.156 97.2872,68.371 100.0202,68.371 C102.7532,68.371 104.9692,66.156 104.9692,63.422 C104.9692,60.689 102.7532,58.473 100.0202,58.473" id="astronaut_suit_Fill-12" fill="#EBFCFF" /><path d="M116.3464,58.473 C113.6144,58.473 111.3974,60.689 111.3974,63.422 C111.3974,66.156 113.6144,68.371 116.3464,68.371 C119.0804,68.371 121.2964,66.156 121.2964,63.422 C121.2964,60.689 119.0804,58.473 116.3464,58.473" id="astronaut_suit_Fill-14" fill="#EBFCFF" /><path d="M117.8112,87.7737 L82.2292,87.7737 C80.3042,87.7737 78.7442,86.2137 78.7442,84.2897 L78.7442,78.4967 C78.7442,76.5717 80.3042,75.0107 82.2292,75.0107 L117.8112,75.0107 C119.7362,75.0107 121.2962,76.5717 121.2962,78.4967 L121.2962,84.2897 C121.2962,86.2137 119.7362,87.7737 117.8112,87.7737" id="astronaut_suit_Fill-16" fill="#B0DBE2" /><path d="M164.361,16.6038 C153.687,10.3438 141.267,6.7408 128,6.7408 L124,6.7408 L124.001,-0.0002 L76,-0.0002 L76,6.7408 L72,6.7408 C59.006,6.7408 46.827,10.1998 36.303,16.2208 C95.548,34.5108 143.322,23.6098 164.361,16.6038" id="astronaut_suit_Fill-18" fill="#60ADE6" ns2:color="Top-500" /></g></g></g>
        <g id="transparent_Face" transform="translate(76.000000, 82.000000)" fill="#000000">
            <g id="transparent_Mouth" transform="translate(2.000000, 52.000000)">    
                
            <g id="disbelief_Mouth/Disbelief" stroke="none" stroke-width="1" fill="none" fill-rule="evenodd" fill-opacity="0.699999988">
        <path d="M40,15 C40,22.7319865 46.2680135,29 54,29 L54,29 C61.7319865,29 68,22.7319865 68,15" id="disbelief_Mouth" fill="#000000" transform="translate(54.000000, 22.000000) scale(1, -1) translate(-54.000000, -22.000000) " />
    </g>
</g>
            <g id="transparent_Nose" transform="translate(28.000000, 40.000000)" fill-opacity="0.16">
                
            <g id="wide_Nose/Wide" stroke="none" stroke-width="1" fill="none" fill-rule="evenodd"><path d="M13,6 C13,12.627417 16.8281211,18 28,18 C39.1718789,18 43,12.627417 43,6 C39.0361818,6 32.8972468,9 27.83815,9 C23.0794079,9 17.1013384,6 13,6 Z" id="wide_Nose" fill-opacity=".16" fill="#000" /></g></g>
            <g id="transparent_Eyes" transform="translate(0.000000, 8.000000)">
                
            <defs>
        <path d="M14,14.0481187 C23.6099827,14.0481187 28,18.4994466 28,11.5617716 C28,4.62409673 21.7319865,0 14,0 C6.2680135,0 0,4.62409673 0,11.5617716 C0,18.4994466 4.39001726,14.0481187 14,14.0481187 Z" id="squint_path-1" />
        <path d="M14,14.0481187 C23.6099827,14.0481187 28,18.4994466 28,11.5617716 C28,4.62409673 21.7319865,0 14,0 C6.2680135,0 0,4.62409673 0,11.5617716 C0,18.4994466 4.39001726,14.0481187 14,14.0481187 Z" id="squint_path-3" />
    </defs>
    <g id="squint_Eyes/Squint-😊" stroke="none" stroke-width="1" fill="none" fill-rule="evenodd">
        <g id="squint_Eye" transform="translate(16.000000, 13.000000)">
            <mask id="squint_mask-2" fill="white">
                <use xlink:href="#squint_path-1" />
            </mask>
            <use id="squint_The-white-stuff" fill="#FFFFFF" xlink:href="#squint_path-1" />
            <circle fill-opacity="0.699999988" fill="#000000" mask="url(#squint_mask-2)" cx="14" cy="10" r="6" />
        </g>
        <g id="squint_Eye" transform="translate(68.000000, 13.000000)">
            <mask id="squint_mask-4" fill="white">
                <use xlink:href="#squint_path-3" />
            </mask>
            <use id="squint_Eyeball-Mask" fill="#FFFFFF" xlink:href="#squint_path-3" />
            <circle fill-opacity="0.699999988" fill="#000000" mask="url(#squint_mask-4)" cx="14" cy="10" r="6" />
        </g>
    </g>
</g>
            <g id="transparent_Eyebrow" fill-opacity="0.599999964">
                
            <g id="angry_natural_Eyebrow/Natural/Angry-Natural" stroke="none" stroke-width="1" fill="none" fill-rule="evenodd" fill-opacity="0.599999964">
        <path d="M44.8565785,12.2282877 C44.8578785,12.2192877 44.8578785,12.2192877 44.8565785,12.2282877 M17.5862288,7.89238094 C15.2441598,8.3302947 13.0866155,9.78806858 12.1523766,12.0987479 C11.8009169,12.967391 11.3917103,14.9243181 11.7083227,15.8073302 C11.8284629,16.14295 12.0332321,16.1008692 12.9555234,16.0430509 C14.643791,15.9369937 16.9330912,13.6622369 18.7484684,13.2557982 C21.2753939,12.6899315 23.9825295,13.1148447 26.4961798,13.6882381 C30.8109365,14.6725177 36.4854008,17.7875215 40.9461842,16.1699775 C41.2783949,16.0495512 45.6210294,12.9225732 44.3685187,12.2769925 C43.9238011,11.9068186 41.1370145,12.0854053 40.6216067,11.9988489 C38.2277647,11.5971998 35.7297127,10.9345131 33.373373,10.3265657 C28.2329017,9.00016592 22.9666484,6.88073171 17.5862288,7.89238094" id="angry_natural_Eyebrows-The-Web" fill="#000000" transform="translate(28.094701, 12.127505) rotate(17.000000) translate(-28.094701, -12.127505) " />
        <path d="M100.918293,12.2094196 C100.919593,12.2004196 100.919593,12.2004196 100.918293,12.2094196 M73.5862288,7.89238094 C71.2441598,8.3302947 69.0866155,9.78806858 68.1523766,12.0987479 C67.8009169,12.967391 67.3917103,14.9243181 67.7083227,15.8073302 C67.8284629,16.14295 68.0332321,16.1008692 68.9555234,16.0430509 C70.643791,15.9369937 72.9330912,13.6622369 74.7484684,13.2557982 C77.2753939,12.6899315 79.9825295,13.1148447 82.4961798,13.6882381 C86.8109365,14.6725177 92.4854008,17.7875215 96.9461842,16.1699775 C97.2783949,16.0495512 101.621029,12.9225732 100.368519,12.2769925 C99.9238011,11.9068186 97.1370145,12.0854053 96.6216067,11.9988489 C94.2277647,11.5971998 91.7297127,10.9345131 89.373373,10.3265657 C84.2329017,9.00016592 78.9666484,6.88073171 73.5862288,7.89238094" id="angry_natural_Eyebrows-The-Web" fill="#000000" transform="translate(84.094701, 12.127505) scale(-1, 1) rotate(17.000000) translate(-84.094701, -12.127505) " />
    </g>
</g>
        </g>
        <g id="transparent_Top">
            
        <metadata id="wick_metadata24">
      <rdf:RDF>
         <ns4:Work rdf:about="">
            <dc:format>image/svg+xml</dc:format>
            <dc:type rdf:resource="http://purl.org/dc/dcmitype/StillImage" />
            <dc:title />
         </ns4:Work>
      </rdf:RDF>
   </metadata>
   <defs id="wick_defs3">
      <path d="M264,0 L264,280 L232,280 L232,271 C232,231.235498 199.764502,199 160,199 L160,199 L156,199 L156.001014,180.610469 C173.531251,172.282329 186.048207,155.114429 187.791415,134.867236 C193.568906,134.002616 198,129.018777 198,123 L198,123 L198,110 C198,104.05429 193.675838,99.1185422 188.000809,98.1660527 L188,92 C188,61.072054 162.927946,36 132,36 C101.072054,36 76,61.072054 76,92 L76,92 L76.0001873,98.1658855 C70.3246685,99.1179645 66,104.053942 66,110 L66,110 L66,123 C66,129.018777 70.4310943,134.002616 76.2090181,134.867253 C77.9518263,155.114813 90.4692242,172.28298 107.999984,180.610943 L108,199 L104,199 C64.633143,199 32.6454629,230.594012 32.0096459,269.809348 L32,271 L32,280 L0,280 L0,0 L264,0 Z" id="wick_hairstylewick-path-1" />
   </defs>
   <g id="wick_Hairstyle/Wick" stroke="none" stroke-width="1" fill="none" fill-rule="evenodd" transform="translate(-1, 0)">
      <g id="wick_template-for-hairstyles" opacity=".184" transform="translate(1.000000, 0.000000)">
         <mask id="wick_hairstylewick-mask-2" fill="#fff">
            <use xlink:href="#wick_hairstylewick-path-1" id="wick_use5" />
         </mask>
         <g id="wick_Mask-Hair" />
      </g>
      <g id="wick_Wick" transform="translate(64.000000, 22.300000)">
         <path id="wick_Hair-Color" d="M 52.097656 1.3007812 C 41.890847 1.4600294 3.5351563 39.826172 3.5351562 39.826172 L 3.5351562 83.507812 C 6.8161563 77.241812 12.742187 77.080078 12.742188 77.080078 L 12.742188 84.916016 C 12.742188 88.412016 16.962891 84.916016 16.962891 84.916016 C 16.962891 66.799016 24.742187 62.710937 24.742188 62.710938 C 24.742188 62.710938 13.885234 57.399406 33.490234 38.191406 C 52.418234 19.647406 67.185594 34.875219 68.183594 35.949219 C 68.183594 35.949219 84.005594 19.647406 102.93359 38.191406 C 122.53859 57.399406 111.68359 62.710938 111.68359 62.710938 C 111.68359 62.710938 119.46094 66.799016 119.46094 84.916016 C 119.46094 84.916016 123.68359 88.412016 123.68359 84.916016 L 123.68359 77.080078 C 123.68359 77.080078 129.60962 77.241812 132.89062 83.507812 L 132.89062 39.826172 C 132.89062 39.826172 93.307281 0.23226562 83.863281 1.3222656 C 74.654281 2.3842656 68.514891 7.2326094 68.212891 7.4746094 C 67.910891 7.2326094 61.7705 2.3842656 52.5625 1.3222656 C 52.414938 1.3052344 52.259669 1.2982535 52.097656 1.3007812 z M 3.5351562 107.32617 L 3.5351562 148.6543 C 3.5351562 148.6543 3.3877812 161.75691 -0.69921875 165.62891 C -0.69921875 165.62891 8.2021875 167.31694 12.742188 161.46094 C 12.742188 161.46094 11.6965 168.20847 8.5625 171.98047 C 8.5625 171.98047 19.034078 172.88672 23.955078 168.01172 C 23.955078 168.01172 23.547906 172.87448 21.503906 176.64648 C 21.503906 176.64648 28.314 177.75933 35.125 172.73633 C 35.125 172.73633 35.178656 175.65238 35.222656 178.10938 C 36.882656 177.99437 38.553187 177.91406 40.242188 177.91406 L 44.242188 177.91406 L 44.242188 158.52539 C 27.005188 150.33739 14.613875 133.60388 12.546875 113.79688 C 8.596875 113.23888 5.2711563 110.75317 3.5351562 107.32617 z M 132.88281 107.44727 C 131.13081 110.81127 127.83855 113.24487 123.93555 113.79688 C 121.86855 133.60188 109.48019 150.33639 92.242188 158.52539 L 92.240234 177.91602 L 96.240234 177.91602 C 97.907234 177.91602 99.556312 177.99252 101.19531 178.10352 C 101.23731 175.65052 101.29102 172.73633 101.29102 172.73633 C 108.10202 177.75933 114.91211 176.64648 114.91211 176.64648 C 112.86911 172.87548 112.46094 168.00977 112.46094 168.00977 C 117.38094 172.88477 127.85547 171.98047 127.85547 171.98047 C 124.72247 168.20847 123.67578 161.46094 123.67578 161.46094 C 128.21578 167.31694 137.11719 165.62891 137.11719 165.62891 C 133.03019 161.75691 132.88281 148.65625 132.88281 148.65625 L 132.88281 107.44727 z " transform="translate(0.7,-1.3)" fill="#D6B370" />
         <path d="M92.9423,157.2264 L92.9413,170.5254 C118.7923,158.6644 123.6873,127.9354 124.5233,113.4234 C122.1713,132.8224 109.9093,149.1654 92.9423,157.2264" id="wick_Fill-8" fill-opacity=".6" fill="#000" />
         <path d="M13.4716,114.3524 C14.2416,129.2804 19.1006,159.2004 44.9416,170.6934 L44.9416,157.2264 C28.2446,149.2944 16.0966,133.3444 13.4716,114.3524" id="wick_Fill-10" fill-opacity=".6" fill="#000" />
      </g>
      <path d="M106,76 L119,63 C117.666667,66.3333333 116,69 114,71 C112,73 109.333333,74.6666667 106,76 Z" id="wick_Path-8" fill="#CE5959" />
      <path d="M129,123 L142,110 C140.666667,113.333333 139,116 137,118 C135,120 132.333333,121.666667 129,123 Z" id="wick_path17" fill="#CE5959" transform="translate(135.500000, 116.500000) rotate(75.000000) translate(-135.500000, -116.500000)" />
      <g id="wick_Facial-Hair" transform="translate(49.000000, 72.000000)"><g id="einstien_mustache_Facial Hair/Einstien Mustache" stroke="none" stroke-width="1" fill="none" fill-rule="evenodd">
        <g id="einstien_mustache_mustache" transform="translate(52.000000, 65.000000)">
            <path d="M0.1095,17.4004 C0.1095,17.4004 5.0135,0.0004 30.2595,0.0004 C55.5055,0.0004 62.9515,16.1414 63.3155,17.5484 C63.6785,18.9564 63.1335,21.7704 59.3185,20.2144 C55.5055,18.6594 54.7785,17.0494 52.9625,18.8544 C51.1465,20.6594 50.6925,23.4834 47.9675,22.6194 C45.2435,21.7564 44.9715,16.6794 41.7015,18.8544 C38.4325,21.0294 38.5235,23.5484 35.5265,22.0254 C33.2325,20.8584 31.5305,17.7164 29.9865,18.8544 C28.4425,19.9924 28.7155,22.8484 25.8095,22.6054 C22.9035,22.3624 21.6015,19.4394 20.1495,19.4094 C16.6075,19.3354 17.2735,21.9924 14.7305,22.2144 C12.1875,22.4374 10.7345,18.1764 8.5545,18.1294 C6.3755,18.0824 -0.9805,24.4374 0.1095,17.4004" id="einstien_mustache_Facial-Hair-Color" fill="#ECDCBF" ns2:color="Hair-500" />
            <path d="M21.2369,19.8873 C22.0519,14.8863 23.6129,9.9273 23.8379,4.8753 C23.9079,3.3003 20.9079,3.3033 20.8379,4.8753 C20.6149,9.8823 19.0779,14.7933 18.2569,19.7463 C18.7199,19.5293 19.3159,19.3913 20.1489,19.4093 C20.5119,19.4173 20.8649,19.6053 21.2369,19.8873" id="einstien_mustache_Fill-4" fill-opacity=".16" fill="#000" />
            <path d="M8.5548,18.1294 C8.7758,18.1344 8.9868,18.1914 9.1948,18.2734 C9.5518,16.4414 10.1578,14.6404 11.0478,12.9324 C11.6798,11.7214 12.4528,10.5554 13.3278,9.4514 C14.2368,8.3034 15.2668,7.1924 15.5198,5.8044 C15.6388,5.1514 15.3198,4.4894 14.4718,4.2994 C13.7648,4.1414 12.7468,4.4964 12.6268,5.1534 C12.3818,6.5004 11.2428,7.5354 10.3928,8.6614 C9.4768,9.8754 8.7128,11.1554 8.0568,12.4754 C7.0118,14.5794 6.3628,16.7924 6.0468,19.0424 C7.0728,18.5374 7.9888,18.1174 8.5548,18.1294" id="einstien_mustache_Fill-6" fill-opacity=".16" fill="#000" />
            <path d="M32.9596,20.0132 C33.0526,14.9272 32.7116,9.8432 31.9156,4.7922 C31.8126,4.1322 31.3006,3.5762 30.4156,3.56915338 C29.6846,3.5632 28.8126,4.1372 28.9156,4.7922 C29.6516,9.4612 30.0036,14.1592 29.9796,18.8612 C29.9816,18.8592 29.9846,18.8562 29.9866,18.8542 C30.8936,18.1862 31.8556,18.9962 32.9596,20.0132" id="einstien_mustache_Fill-8" fill-opacity=".16" fill="#000" />
            <path d="M43.4313,18.3545 C43.4523,16.9565 43.4323,15.5585 43.2663,14.1635 C42.8603,10.7705 41.6363,7.4605 40.6263,4.1635 C40.1593,2.6365 37.2643,3.2835 37.7343,4.8135 C38.7133,8.0145 39.9793,11.2575 40.3093,14.5575 C40.4863,16.3285 40.4483,18.1035 40.4013,19.8785 C40.7713,19.5395 41.1923,19.1935 41.7023,18.8545 C42.3993,18.3905 42.9543,18.2705 43.4313,18.3545" id="einstien_mustache_Fill-10" fill-opacity=".16" fill="#000" />
            <path d="M47.0817,7.9122 C49.9427,11.4532 51.3527,15.5112 52.2867,19.6402 C52.4927,19.3672 52.7147,19.1012 52.9627,18.8542 C53.7177,18.1042 54.2857,17.9492 54.9647,18.1302 C53.9717,14.0942 52.4777,10.1482 49.6727,6.6772 C48.6137,5.3682 46.0157,6.5922 47.0817,7.9122" id="einstien_mustache_Fill-12" fill-opacity=".16" fill="#000" />
        </g>
    </g>
</g>
      <g id="wick_Accessory" transform="translate(62.000000, 85.000000)" />
   </g>
</g>
    </g>
</svg>