<svg xmlns="http://www.w3.org/2000/svg" xmlns:ns2="http://design.blush" xmlns:xlink="http://www.w3.org/1999/xlink" width="264px" height="280px" viewBox="0 0 264 280" version="1.1">
    <title id="transparent_Title">Avataaar/Default</title>
    <desc>Created with python_avatars</desc>
    <defs>
        <path d="M100,0 C130.927946,-5.68137151e-15 156,25.072054 156,56 L156.000809,62.1660527 C161.675838,63.1185422 166,68.05429 166,74 L166,88 C166,94.0524166 161.519235,99.0582945 155.693975,99.8813638 C153.627928,119.686472 141.237929,136.421678 124.001014,144.610469 L124,163 L128,163 C167.764502,163 200,195.235498 200,235 L200,244 L0,244 L0,235 C-4.86974701e-15,195.235498 32.235498,163 72,163 L76,163 L75.9999836,144.610943 C58.7625487,136.422324 46.3721119,119.686854 44.3051107,99.8809698 C38.480765,99.0582945 34,94.0524166 34,88 L34,74 C34,68.053942 38.3246685,63.1179645 44.0001873,62.1658855 L44,56 C44,25.072054 69.072054,5.68137151e-15 100,0 Z" id="transparent_path-1" />
        <path d="M83,36.3476251 C83,52.6289957 105.161905,65.8276544 132.5,65.8276544 C159.838095,65.8276544 182,52.6289957 182,36.3476251 C182,34.9853134 181.844841,33.6445843 181.544472,32.3313638 C210.784239,41.4879251 232,68.792221 232,101.051724 L232,110 L32,110 L32,101.051724 C32,68.3970853 53.7386736,40.8197864 83.5337207,32.0021267 C83.1821692,33.4207025 83,34.871494 83,36.3476251 Z" id="transparent_path-3" />
        <rect id="transparent_path-5" x="0" y="0" width="264" height="280" />
        <path d="M74,0 C114.869071,0 148,33.1309285 148,74 L148,84.1482318 L148,197.608051 C135.525121,187.236892 119.490913,181 102,181 L102,181 L98,181 L98,162.610951 C115.530782,154.282984 128.048193,137.114792 129.791419,116.867187 C135.569129,116.002364 140,111.018625 140,105 L140,105 L140,92 C140,87.3536213 137.359271,83.3240177 133.496777,81.3301515 C132.723933,81.0500337 131.951808,80.748163 131.180891,80.4262497 C130.794819,80.3202581 130.400778,80.2331546 130,80.1659169 L130,80.1659169 L130.000458,79.9172528 C117.224481,74.2339715 104.877985,63.0706967 96.1104311,47.8848473 C93.1752556,42.8009742 90.8310687,37.5951441 89.0661426,32.3970356 C80.4313947,42.9409152 67.7445474,53.6023901 52.3415164,62.4953343 C42.777598,68.0170651 33.1467898,72.2910056 24,75.2659587 L24.0003852,137.246608 C29.6019576,148.318362 38.7728825,157.277529 50,162.610951 L50,162.610951 L50,181 L46,181 C38.3273639,181 30.9350359,182.200142 24.0004995,184.422941 L24,230 C24,244.105888 13.5691766,255.775526 0,257.716445 L0,74 C0,33.1309285 33.1309285,0 74,0 Z" id="transparent_path-7" />
    </defs>
    <g id="transparent_Avataaar/Default" stroke="none" stroke-width="1" fill="none" fill-rule="evenodd">
        <g id="transparent_Body" transform="translate(32.000000, 36.000000)">
            <mask id="transparent_mask-2" fill="white">
                <use xlink:href="#transparent_path-1" />
            </mask>
            <use fill="#D0C6AC" xlink:href="#transparent_path-1" />
            <g id="transparent_Skin-Color" mask="url(#transparent_mask-2)" fill="#AE5D29">
                <g transform="translate(-32.000000, 0.000000)" id="transparent_Color">
                    <rect x="0" y="0" width="264" height="244" />
                </g>
            </g>
            <path d="M44,94 C44,124.927946 69.072054,150 100,150 C130.927946,150 156,124.927946 156,94 L156,94 L156,102 C156,132.927946 130.927946,158 100,158 C69.072054,158 44,132.927946 44,102 Z" id="transparent_Neck-Shadow" fill-opacity="0.100000001" fill="#000000" mask="url(#transparent_mask-2)" />
        </g>
        <g id="transparent_Clothing" transform="translate(0.000000, 170.000000)">
            
        <g id="jedi_robe_Clothing/Jedi robe" stroke="none" stroke-width="1" fill="none" fill-rule="evenodd">
        <g id="jedi_robe_Robe" transform="translate(31.000000, 27.500000)">
            <path d="M77.0002,1.8388 C77.0002,1.8388 100.4152,19.9298 125.0262,1.8388 L144.7322,1.8388 L146.6392,82.8388 L53.7902,82.8388 L56.4622,1.8388 L77.0002,1.8388 Z" id="jedi_robe_Fabric-Color" fill="#FFFFB1" ns2:color="Top-500" />
            <path d="M144.732,1.8388 L145.05,15.3598 L82.694,82.8388 L59.513,82.8388 L134.365,1.8388 L144.732,1.8388 Z M145.3534,28.2147 L145.9284,52.6767 L118.0564,82.8387 L94.8764,82.8387 L145.3534,28.2147 Z M55.4976,31.0798 L83.4626,56.9218 L71.9076,69.4258 L54.7556,53.5748 L55.4976,31.0798 Z M68.9459,1.8391 L104.2319,34.4461 L92.6779,46.9491 L56.0899,13.1381 L56.4619,1.8391 L68.9459,1.8391 Z" id="jedi_robe_Combined-Shape" fill-opacity=".3" fill="#FFF" />
            <path d="M0.0095,72.6474 L0.0005,73.8384 L0.0005,82.8384 L68.7465,82.8384 L68.7465,0.0004 C17.4125,0.0004 0.4205,47.3044 0.0095,72.6474" id="jedi_robe_Fill-14" fill="#282828" />
            <path d="M61.0934,0.538 L61.0934,82.839 L68.7464,82.839 L68.7464,0 C66.0854,0 63.5354,0.185 61.0934,0.538" id="jedi_robe_Fill-17" fill="#070707" />
            <path d="M202.0104,72.6474 L202.0204,73.8384 L202.0204,82.8384 L133.2744,82.8374 L133.2744,0.0004 C184.6074,0.0004 201.5994,47.3044 202.0104,72.6474" id="jedi_robe_Fill-20" fill="#282828" />
            <path d="M140.8268,0.538 L140.8268,82.838 L133.2738,82.838 L133.2738,0 C135.8998,0 138.4168,0.185 140.8268,0.538" id="jedi_robe_Fill-23" fill="#070707" />
        </g>
    </g>
</g>
        <g id="transparent_Face" transform="translate(76.000000, 82.000000)" fill="#000000">
            <g id="transparent_Mouth" transform="translate(2.000000, 52.000000)">    
                
            <g id="serious_Mouth/Serious" stroke="none" stroke-width="1" fill="none" fill-rule="evenodd" fill-opacity="0.699999988">
        <rect id="serious_Why-so-serious?" fill="#000000" x="42" y="18" width="24" height="6" rx="3" />
    </g>
</g>
            <g id="transparent_Nose" transform="translate(28.000000, 40.000000)" fill-opacity="0.16">
                
            <g id="small_Nose/Small" stroke="none" stroke-width="1" fill="none" fill-rule="evenodd"><path d="M20,7 C20,12.5228475 24.0470996,15 28,15 C31.9529004,15 36,12.5228475 36,7 C33.8327451,7.7317728 31.1406373,8.0976592 27.9236765,8.0976592 C24.7406373,8.0976592 22.0994118,7.7317728 20,7 Z" id="small_Nose" fill-opacity=".16" fill="#000" /></g></g>
            <g id="transparent_Eyes" transform="translate(0.000000, 8.000000)">
                
            <defs>
        <path d="M14,14.0481187 C23.6099827,14.0481187 28,18.4994466 28,11.5617716 C28,4.62409673 21.7319865,0 14,0 C6.2680135,0 0,4.62409673 0,11.5617716 C0,18.4994466 4.39001726,14.0481187 14,14.0481187 Z" id="squint_path-1" />
        <path d="M14,14.0481187 C23.6099827,14.0481187 28,18.4994466 28,11.5617716 C28,4.62409673 21.7319865,0 14,0 C6.2680135,0 0,4.62409673 0,11.5617716 C0,18.4994466 4.39001726,14.0481187 14,14.0481187 Z" id="squint_path-3" />
    </defs>
    <g id="squint_Eyes/Squint-😊" stroke="none" stroke-width="1" fill="none" fill-rule="evenodd">
        <g id="squint_Eye" transform="translate(16.000000, 13.000000)">
            <mask id="squint_mask-2" fill="white">
                <use xlink:href="#squint_path-1" />
            </mask>
            <use id="squint_The-white-stuff" fill="#FFFFFF" xlink:href="#squint_path-1" />
            <circle fill-opacity="0.699999988" fill="#000000" mask="url(#squint_mask-2)" cx="14" cy="10" r="6" />
        </g>
        <g id="squint_Eye" transform="translate(68.000000, 13.000000)">
            <mask id="squint_mask-4" fill="white">
                <use xlink:href="#squint_path-3" />
            </mask>
            <use id="squint_Eyeball-Mask" fill="#FFFFFF" xlink:href="#squint_path-3" />
            <circle fill-opacity="0.699999988" fill="#000000" mask="url(#squint_mask-4)" cx="14" cy="10" r="6" />
        </g>
    </g>
</g>
            <g id="transparent_Eyebrow" fill-opacity="0.599999964">
                
            <g id="angry_Eyebrow/Outline/Angry" stroke="none" stroke-width="1" fill="none" fill-rule="evenodd" fill-opacity="0.599999964">
        <path d="M15.6114904,15.1845247 C19.8515017,9.41618792 22.4892046,9.70087612 28.9238518,14.5564693 C29.1057771,14.6937504 29.2212592,14.7812575 29.5936891,15.063789 C34.4216439,18.7263562 36.7081807,20 40,20 C41.1045695,20 42,19.1045695 42,18 C42,16.8954305 41.1045695,16 40,16 C37.9337712,16 36.0986396,14.9777974 32.011227,11.8770179 C31.6358269,11.5922331 31.5189458,11.5036659 31.3332441,11.3635351 C27.5737397,8.52660822 25.3739873,7.28738405 22.6379899,6.99208688 C18.9538127,6.59445233 15.5799484,8.47367246 12.3885096,12.8154753 C11.7343147,13.7054768 11.9254737,14.9572954 12.8154753,15.6114904 C13.7054768,16.2656853 14.9572954,16.0745263 15.6114904,15.1845247 Z" id="angry_Eyebrow" fill="#000000" fill-rule="nonzero" />
        <path d="M73.6114904,15.1845247 C77.8515017,9.41618792 80.4892046,9.70087612 86.9238518,14.5564693 C87.1057771,14.6937504 87.2212592,14.7812575 87.5936891,15.063789 C92.4216439,18.7263562 94.7081807,20 98,20 C99.1045695,20 100,19.1045695 100,18 C100,16.8954305 99.1045695,16 98,16 C95.9337712,16 94.0986396,14.9777974 90.011227,11.8770179 C89.6358269,11.5922331 89.5189458,11.5036659 89.3332441,11.3635351 C85.5737397,8.52660822 83.3739873,7.28738405 80.6379899,6.99208688 C76.9538127,6.59445233 73.5799484,8.47367246 70.3885096,12.8154753 C69.7343147,13.7054768 69.9254737,14.9572954 70.8154753,15.6114904 C71.7054768,16.2656853 72.9572954,16.0745263 73.6114904,15.1845247 Z" id="angry_Eyebrow" fill="#000000" fill-rule="nonzero" transform="translate(84.999934, 13.470064) scale(-1, 1) translate(-84.999934, -13.470064) " />
    </g>
</g>
        </g>
        <g id="transparent_Top">
            
        <defs>
        <path d="M93.0001685,1 C117.30504,1.44935656 137.861928,4.81215989 146.000169,15 C158.324059,30.4276364 186.085192,107.014914 186.000363,126 C185.884594,150.800081 172.952646,163.439362 163.000169,177 C152.721248,174.335052 135.145932,171.815843 117.000506,170.317477 L117.001014,161.610469 C135.730856,152.71243 148.737817,133.723415 148.996083,111.669239 L149,111 L149,73 C149,71.6549229 148.952578,70.3209219 148.859314,68.9995777 L72.058097,69 L69.2529753,47.5561285 L65.3735517,69 L37.140686,68.9995777 C37.0688668,70.0170994 37.0242316,71.0421267 37.0075024,72.0739376 L37,73 L37,111 C37,133.339161 50.0804138,152.623228 68.9999836,161.610943 L69.0005583,170.317398 C50.8548508,171.815755 33.2791001,174.335005 23,177 C13.047523,163.439362 0.115574613,150.800081 -0.000177961792,126 C-0.0850232975,107.014914 30.3189583,28.7950013 41,16 C48.9231015,6.50878211 68.6952966,0.550643437 93.0001685,1 Z" id="mia_wallace_path-1" />
    </defs>
    <g id="mia_wallace_Top/Long-Hair/Mia-Wallace" stroke="none" stroke-width="1" fill="none" fill-rule="evenodd">
        <path d="M69.0330562,76.212888 C81.9708809,43.1292208 95.6458945,26.5873873 110.058097,26.5873873 C110.596882,26.5873873 139.311316,26.3494141 158.112657,26.226792 C178.767149,35.5853581 193,55.3036503 193,78.114622 L193,93 L110.058097,93 L107.252975,69.820435 L103.373552,93 L69,93 L69,78.114622 C69,77.478246 69.0110772,76.844277 69.0330621,76.2128728 L69.0330562,76.212888 Z" id="mia_wallace_Shadow" fill-opacity="0.16" fill="#000000" />
        <g id="mia_wallace_Hair" transform="translate(39.000000, 19.000000)">
            <mask id="mia_wallace_mask-2" fill="white">
                <use xlink:href="#mia_wallace_path-1" />
            </mask>
            <use id="mia_wallace_Combined-Shape" fill="#E6E6E6" xlink:href="#mia_wallace_path-1" />
            <g id="mia_wallace_Hair-Color" mask="url(#mia_wallace_mask-2)" fill="#A55728">
                <g transform="translate(-39.000000, -19.000000)" id="mia_wallace_Color">
                    <rect x="0" y="0" width="266" height="280" />
                </g>
            </g>
        </g>
        <g id="mia_wallace_Facial-Hair" transform="translate(49.000000, 72.000000)"><defs>
        <path d="M64.7214121,63.4643353 C71.8381194,62.1698595 81.796173,63.6461901 84.1074639,67.092174 L83.998,66.939 L84.010445,66.9215199 C86.5309935,63.5977488 96.2765075,62.1914341 103.274279,63.4643353 C112.927938,65.2207224 117.019147,75.7669804 115.780485,77.6791014 C114.655476,79.4153191 111.53642,77.7739966 109.119711,77.6298353 C104.118941,77.3322546 94.948229,81.5102869 86.0463327,76.6891498 C85.2347477,76.2495714 84.5386341,75.6083797 83.9975585,74.8390687 C83.4573866,75.6083797 82.7612729,76.2495714 81.949688,76.6891498 C73.0477917,81.5102869 63.8767499,77.3322546 58.8763101,77.6298353 C56.459601,77.7739966 53.3405442,79.4153191 52.2155358,77.6791014 C50.9768736,75.7669804 55.0680827,65.2207224 64.7214121,63.4643353 Z" id="moustache_magnum_path-1" />
    </defs>
    <g id="moustache_magnum_Facial-Hair/Moustache-Magnum" stroke="none" stroke-width="1" fill="none" fill-rule="evenodd">
        <mask id="moustache_magnum_mask-2" fill="white">
            <use xlink:href="#moustache_magnum_path-1" />
        </mask>
        <use id="moustache_magnum_Hey..." fill="#28354B" xlink:href="#moustache_magnum_path-1" />
        <g id="moustache_magnum_Facial-Hair-Color" mask="url(#moustache_magnum_mask-2)" fill="#ECDCBF">
            <rect id="moustache_magnum_Color" x="0" y="0" width="168" height="152" />
        </g>
    </g>
</g>
        <g id="mia_wallace_Accessory" transform="translate(62.000000, 85.000000)" />
    </g>
</g>
    </g>
</svg>