<svg xmlns="http://www.w3.org/2000/svg" xmlns:ns2="http://design.blush" xmlns:xlink="http://www.w3.org/1999/xlink" width="264px" height="280px" viewBox="0 0 264 280" version="1.1">
    <title id="transparent_Title">Avataaar/Default</title>
    <desc>Created with python_avatars</desc>
    <defs>
        <path d="M100,0 C130.927946,-5.68137151e-15 156,25.072054 156,56 L156.000809,62.1660527 C161.675838,63.1185422 166,68.05429 166,74 L166,88 C166,94.0524166 161.519235,99.0582945 155.693975,99.8813638 C153.627928,119.686472 141.237929,136.421678 124.001014,144.610469 L124,163 L128,163 C167.764502,163 200,195.235498 200,235 L200,244 L0,244 L0,235 C-4.86974701e-15,195.235498 32.235498,163 72,163 L76,163 L75.9999836,144.610943 C58.7625487,136.422324 46.3721119,119.686854 44.3051107,99.8809698 C38.480765,99.0582945 34,94.0524166 34,88 L34,74 C34,68.053942 38.3246685,63.1179645 44.0001873,62.1658855 L44,56 C44,25.072054 69.072054,5.68137151e-15 100,0 Z" id="transparent_path-1" />
        <path d="M83,36.3476251 C83,52.6289957 105.161905,65.8276544 132.5,65.8276544 C159.838095,65.8276544 182,52.6289957 182,36.3476251 C182,34.9853134 181.844841,33.6445843 181.544472,32.3313638 C210.784239,41.4879251 232,68.792221 232,101.051724 L232,110 L32,110 L32,101.051724 C32,68.3970853 53.7386736,40.8197864 83.5337207,32.0021267 C83.1821692,33.4207025 83,34.871494 83,36.3476251 Z" id="transparent_path-3" />
        <rect id="transparent_path-5" x="0" y="0" width="264" height="280" />
        <path d="M74,0 C114.869071,0 148,33.1309285 148,74 L148,84.1482318 L148,197.608051 C135.525121,187.236892 119.490913,181 102,181 L102,181 L98,181 L98,162.610951 C115.530782,154.282984 128.048193,137.114792 129.791419,116.867187 C135.569129,116.002364 140,111.018625 140,105 L140,105 L140,92 C140,87.3536213 137.359271,83.3240177 133.496777,81.3301515 C132.723933,81.0500337 131.951808,80.748163 131.180891,80.4262497 C130.794819,80.3202581 130.400778,80.2331546 130,80.1659169 L130,80.1659169 L130.000458,79.9172528 C117.224481,74.2339715 104.877985,63.0706967 96.1104311,47.8848473 C93.1752556,42.8009742 90.8310687,37.5951441 89.0661426,32.3970356 C80.4313947,42.9409152 67.7445474,53.6023901 52.3415164,62.4953343 C42.777598,68.0170651 33.1467898,72.2910056 24,75.2659587 L24.0003852,137.246608 C29.6019576,148.318362 38.7728825,157.277529 50,162.610951 L50,162.610951 L50,181 L46,181 C38.3273639,181 30.9350359,182.200142 24.0004995,184.422941 L24,230 C24,244.105888 13.5691766,255.775526 0,257.716445 L0,74 C0,33.1309285 33.1309285,0 74,0 Z" id="transparent_path-7" />
    </defs>
    <g id="transparent_Avataaar/Default" stroke="none" stroke-width="1" fill="none" fill-rule="evenodd">
        <g id="transparent_Body" transform="translate(32.000000, 36.000000)">
            <mask id="transparent_mask-2" fill="white">
                <use xlink:href="#transparent_path-1" />
            </mask>
            <use fill="#D0C6AC" xlink:href="#transparent_path-1" />
            <g id="transparent_Skin-Color" mask="url(#transparent_mask-2)" fill="#FD9841">
                <g transform="translate(-32.000000, 0.000000)" id="transparent_Color">
                    <rect x="0" y="0" width="264" height="244" />
                </g>
            </g>
            <path d="M44,94 C44,124.927946 69.072054,150 100,150 C130.927946,150 156,124.927946 156,94 L156,94 L156,102 C156,132.927946 130.927946,158 100,158 C69.072054,158 44,132.927946 44,102 Z" id="transparent_Neck-Shadow" fill-opacity="0.100000001" fill="#000000" mask="url(#transparent_mask-2)" />
        </g>
        <g id="transparent_Clothing" transform="translate(0.000000, 170.000000)">
            
        <g id="jedi_robe_Clothing/Jedi robe" stroke="none" stroke-width="1" fill="none" fill-rule="evenodd">
        <g id="jedi_robe_Robe" transform="translate(31.000000, 27.500000)">
            <path d="M77.0002,1.8388 C77.0002,1.8388 100.4152,19.9298 125.0262,1.8388 L144.7322,1.8388 L146.6392,82.8388 L53.7902,82.8388 L56.4622,1.8388 L77.0002,1.8388 Z" id="jedi_robe_Fabric-Color" fill="#FFDEB5" ns2:color="Top-500" />
            <path d="M144.732,1.8388 L145.05,15.3598 L82.694,82.8388 L59.513,82.8388 L134.365,1.8388 L144.732,1.8388 Z M145.3534,28.2147 L145.9284,52.6767 L118.0564,82.8387 L94.8764,82.8387 L145.3534,28.2147 Z M55.4976,31.0798 L83.4626,56.9218 L71.9076,69.4258 L54.7556,53.5748 L55.4976,31.0798 Z M68.9459,1.8391 L104.2319,34.4461 L92.6779,46.9491 L56.0899,13.1381 L56.4619,1.8391 L68.9459,1.8391 Z" id="jedi_robe_Combined-Shape" fill-opacity=".3" fill="#FFF" />
            <path d="M0.0095,72.6474 L0.0005,73.8384 L0.0005,82.8384 L68.7465,82.8384 L68.7465,0.0004 C17.4125,0.0004 0.4205,47.3044 0.0095,72.6474" id="jedi_robe_Fill-14" fill="#282828" />
            <path d="M61.0934,0.538 L61.0934,82.839 L68.7464,82.839 L68.7464,0 C66.0854,0 63.5354,0.185 61.0934,0.538" id="jedi_robe_Fill-17" fill="#070707" />
            <path d="M202.0104,72.6474 L202.0204,73.8384 L202.0204,82.8384 L133.2744,82.8374 L133.2744,0.0004 C184.6074,0.0004 201.5994,47.3044 202.0104,72.6474" id="jedi_robe_Fill-20" fill="#282828" />
            <path d="M140.8268,0.538 L140.8268,82.838 L133.2738,82.838 L133.2738,0 C135.8998,0 138.4168,0.185 140.8268,0.538" id="jedi_robe_Fill-23" fill="#070707" />
        </g>
    </g>
</g>
        <g id="transparent_Face" transform="translate(76.000000, 82.000000)" fill="#000000">
            <g id="transparent_Mouth" transform="translate(2.000000, 52.000000)">    
                
            <defs>
        <path d="M35.117844,15.1280772 C36.1757121,24.6198025 44.2259873,32 54,32 C63.8042055,32 71.8740075,24.574136 72.8917593,15.0400546 C72.9736685,14.272746 72.1167429,13 71.042767,13 C56.1487536,13 44.7379213,13 37.0868244,13 C36.0066168,13 35.0120058,14.1784435 35.117844,15.1280772 Z" id="concerned_path-1" />
    </defs>
    <g id="concerned_Mouth/Concerned" stroke="none" stroke-width="1" fill="none" fill-rule="evenodd">
        <mask id="concerned_mask-2" fill="white">
            <use xlink:href="#concerned_path-1" transform="translate(54.003637, 22.500000) scale(1, -1) translate(-54.003637, -22.500000)" />
        </mask>
        <use id="concerned_Mouth" fill-opacity="0.699999988" fill="#000000" transform="translate(54.003637, 22.500000) scale(1, -1) translate(-54.003637, -22.500000)" xlink:href="#concerned_path-1" />
        <path d="M44,2 L65,2 C67.7614237,2 70,4.23857625 70,7 L70,13 C70,15.7614237 67.7614237,18 65,18 L44,18 C41.2385763,18 39,15.7614237 39,13 L39,7 C39,4.23857625 41.2385763,2 44,2 Z" id="concerned_Teeth" fill="#FFFFFF" mask="url(#concerned_mask-2)" />
        <g id="concerned_Tongue" mask="url(#concerned_mask-2)" fill="#FF4F6D">
            <g transform="translate(38.000000, 24.000000)">
                <circle id="concerned_friend?" cx="11" cy="11" r="11" />
                <circle id="concerned_How-you-doing" cx="21" cy="11" r="11" />
            </g>
        </g>
    </g>
</g>
            <g id="transparent_Nose" transform="translate(28.000000, 40.000000)" fill-opacity="0.16">
                
            <g id="wide_Nose/Wide" stroke="none" stroke-width="1" fill="none" fill-rule="evenodd"><path d="M13,6 C13,12.627417 16.8281211,18 28,18 C39.1718789,18 43,12.627417 43,6 C39.0361818,6 32.8972468,9 27.83815,9 C23.0794079,9 17.1013384,6 13,6 Z" id="wide_Nose" fill-opacity=".16" fill="#000" /></g></g>
            <g id="transparent_Eyes" transform="translate(0.000000, 8.000000)">
                
            <g id="eye_roll_Eyes/Eye-Roll-🙄" stroke="none" stroke-width="1" fill="none" fill-rule="evenodd">
        <circle id="eye_roll_Eyeball" fill="#FFFFFF" cx="30" cy="22" r="14" />
        <circle id="eye_roll_The-white-stuff" fill="#FFFFFF" cx="82" cy="22" r="14" />
        <circle id="eye_roll_Eye" fill-opacity="0.699999988" fill="#000000" cx="30" cy="14" r="6" />
        <circle id="eye_roll_Eye" fill-opacity="0.699999988" fill="#000000" cx="82" cy="14" r="6" />
    </g>
</g>
            <g id="transparent_Eyebrow" fill-opacity="0.599999964">
                
            <g id="up_down_natural_Eyebrow/Natural/Up-Down-Natural" stroke="none" stroke-width="1" fill="none" fill-rule="evenodd" fill-opacity="0.599999964">
        <path d="M22.7663531,1.57844898 L23.6772984,1.17582144 C28.9190996,-0.905265751 36.8645466,-0.0328729562 41.7227321,2.29911638 C42.2897848,2.57148957 41.9021563,3.4519421 41.3211012,3.40711006 C26.4021788,2.25602197 16.3582869,11.5525942 12.9460869,17.8470939 C12.8449215,18.0337142 12.5391523,18.05489 12.4635344,17.8808353 C10.156283,12.5620676 16.9134476,3.89614725 22.7663531,1.57844898 Z" id="up_down_natural_Eye-Browse-Reddit" fill="#000000" />
        <path d="M86.535177,12.0246305 C92.3421916,12.2928751 101.730304,16.5124899 101.488432,22.3684172 C101.480419,22.5600881 101.1989,22.6442368 101.06135,22.496811 C98.306449,19.5374968 78.7459953,16.5471364 71.8564209,18.1317995 C71.2258949,18.2770375 70.7468448,17.6550104 71.1462176,17.2056651 C74.5683263,13.3574126 81.3327077,11.7792465 86.535177,12.0246305 Z" id="up_down_natural_Eyebrow" fill="#000000" transform="translate(86.246508, 17.285912) rotate(5.000000) translate(-86.246508, -17.285912) " />
    </g>
</g>
        </g>
        <g id="transparent_Top">
            
        <g id="loose_hair_Hairstyle/Loose hair" stroke="none" stroke-width="1" fill="none" fill-rule="evenodd" transform="translate(-1, 0)">
        <g id="loose_hair_Accessory" transform="translate(62.000000, 85.000000)" />
        <path d="M248.9316,185.8679 C227.6806,173.0629 234.2196,160.8039 236.1266,151.8129 C238.0346,142.8219 233.1296,127.2929 226.5916,121.2999 C220.0526,115.3059 207.2476,96.7809 213.5146,80.1619 C216.2336,72.9509 212.2876,54.6889 202.8896,45.2899 C193.4906,35.8899 179.7326,37.9339 174.0106,30.5779 C169.5946,24.9009 157.9366,9.5999 140.2286,9.5999 C122.5196,9.5999 115.4366,19.9529 107.8086,25.1289 C100.1806,30.3059 89.0106,25.1289 80.5646,32.7579 C72.1196,40.3859 68.8496,49.3759 68.8496,69.5359 C68.8496,89.6969 32.9946,100.5949 31.2536,124.1599 C30.2396,137.8809 43.2406,143.3669 43.2406,155.3539 C43.2406,167.3419 12.9996,175.7879 12.9996,194.5859 C12.9996,210.1149 24.9876,217.7429 30.4356,220.4679 C34.3556,222.4279 33.9606,234.3959 39.6786,240.7579 C51.1186,216.1309 76.0526,199.0449 104.9946,199.0449 L108.9946,199.0449 L108.9946,180.6559 C101.7626,177.2209 95.3876,172.2769 90.2666,166.2379 C91.2026,159.9859 89.0526,151.6059 83.7936,137.8259 C81.0146,130.5459 82.6186,119.6039 86.5576,115.3059 C92.5516,108.7679 93.6416,97.5969 93.6416,97.5969 C93.0636,102.2189 93.9556,106.6439 95.1756,110.2089 C95.8526,112.1889 98.7426,112.1079 99.2696,110.0819 C101.6846,100.8209 110.6416,92.5819 113.8026,83.9759 C116.5326,76.5419 113.8026,61.6359 113.8026,61.6359 C116.8476,76.0759 127.0776,84.8769 134.9166,89.6549 C136.8016,90.8029 138.9366,88.7289 137.9026,86.7799 C132.6306,76.8509 134.7236,64.0879 134.7236,64.0879 C136.1526,76.3469 143.2256,85.0659 157.1196,91.6039 C171.0136,98.1419 174.5556,103.0469 174.5556,112.3089 C174.5556,115.8659 175.6396,118.6989 176.9756,120.8399 C178.1776,122.7669 181.1046,122.0129 181.3536,119.7559 C182.0326,113.6089 185.7256,108.2229 185.7256,108.2229 C185.1836,119.0599 186.6816,127.7849 188.7826,134.9479 C187.0276,155.1799 174.5156,172.3319 156.9946,180.6549 L156.9936,199.0449 L160.9936,199.0449 C166.3236,199.0449 171.5146,199.6259 176.5136,200.7229 C176.5076,200.7279 176.5006,200.7319 176.4946,200.7359 C176.4946,200.7359 165.9936,210.3229 161.4646,220.6539 C160.2256,223.4779 163.9666,225.8459 165.9916,223.5189 C166.9636,222.3999 168.0886,221.4269 169.3796,220.7399 C169.3796,220.7399 159.3776,236.3809 166.2696,250.7359 C167.3496,252.9869 170.6496,252.6919 171.3266,250.2889 C172.4966,246.1369 174.4366,240.7879 177.2806,237.4949 C177.2806,237.4949 169.4106,258.1669 188.2456,268.4279 C190.1316,269.4549 192.4046,267.9089 192.1956,265.7709 C191.8326,262.0789 192.0506,257.0079 194.9886,253.2959 C199.1386,248.0539 215.4406,243.1469 225.9256,239.9049 C225.9346,239.9249 225.9456,239.9429 225.9546,239.9629 C228.2436,239.2779 230.3736,238.5709 232.3096,237.8439 C232.3276,237.8379 232.3496,237.8299 232.3686,237.8229 C232.3776,237.8199 232.3876,237.8149 232.3976,237.8119 C234.4236,237.0469 236.2316,236.2599 237.7616,235.4509 C256.8316,225.3709 262.6356,194.1249 248.9316,185.8679" id="loose_hair_Hair-Color" fill="#ECDCBF" ns2:color="Hair-500" />
        <path d="M182.5146,156.2127 C176.8766,166.8587 167.9086,175.4707 156.9946,180.6547 L156.9936,199.0447 L160.9936,199.0447 C166.3186,199.0447 171.5006,199.6397 176.4946,200.7357 C184.6146,192.2167 191.9846,178.0807 182.5146,156.2127" id="loose_hair_Fill-4" fill-opacity=".24" fill="#000" />
        <path d="M108.9946,199.0447 L108.9946,180.6557 C101.8026,177.2387 95.4556,172.3317 90.3486,166.3367 C90.1316,171.2767 89.0936,177.5687 85.7416,182.5987 C82.4426,187.5457 79.4976,195.4047 81.3696,203.0277 C88.7716,200.4567 96.7166,199.0447 104.9946,199.0447 L108.9946,199.0447 Z" id="loose_hair_Fill-6" fill-opacity=".24" fill="#000" />
    </g>
</g>
    </g>
</svg>