<svg xmlns="http://www.w3.org/2000/svg" xmlns:ns2="http://design.blush" xmlns:xlink="http://www.w3.org/1999/xlink" width="264px" height="280px" viewBox="0 0 264 280" version="1.1">
    <title id="transparent_Title">Avataaar/Default</title>
    <desc>Created with python_avatars</desc>
    <defs>
        <path d="M100,0 C130.927946,-5.68137151e-15 156,25.072054 156,56 L156.000809,62.1660527 C161.675838,63.1185422 166,68.05429 166,74 L166,88 C166,94.0524166 161.519235,99.0582945 155.693975,99.8813638 C153.627928,119.686472 141.237929,136.421678 124.001014,144.610469 L124,163 L128,163 C167.764502,163 200,195.235498 200,235 L200,244 L0,244 L0,235 C-4.86974701e-15,195.235498 32.235498,163 72,163 L76,163 L75.9999836,144.610943 C58.7625487,136.422324 46.3721119,119.686854 44.3051107,99.8809698 C38.480765,99.0582945 34,94.0524166 34,88 L34,74 C34,68.053942 38.3246685,63.1179645 44.0001873,62.1658855 L44,56 C44,25.072054 69.072054,5.68137151e-15 100,0 Z" id="transparent_path-1" />
        <path d="M83,36.3476251 C83,52.6289957 105.161905,65.8276544 132.5,65.8276544 C159.838095,65.8276544 182,52.6289957 182,36.3476251 C182,34.9853134 181.844841,33.6445843 181.544472,32.3313638 C210.784239,41.4879251 232,68.792221 232,101.051724 L232,110 L32,110 L32,101.051724 C32,68.3970853 53.7386736,40.8197864 83.5337207,32.0021267 C83.1821692,33.4207025 83,34.871494 83,36.3476251 Z" id="transparent_path-3" />
        <rect id="transparent_path-5" x="0" y="0" width="264" height="280" />
        <path d="M74,0 C114.869071,0 148,33.1309285 148,74 L148,84.1482318 L148,197.608051 C135.525121,187.236892 119.490913,181 102,181 L102,181 L98,181 L98,162.610951 C115.530782,154.282984 128.048193,137.114792 129.791419,116.867187 C135.569129,116.002364 140,111.018625 140,105 L140,105 L140,92 C140,87.3536213 137.359271,83.3240177 133.496777,81.3301515 C132.723933,81.0500337 131.951808,80.748163 131.180891,80.4262497 C130.794819,80.3202581 130.400778,80.2331546 130,80.1659169 L130,80.1659169 L130.000458,79.9172528 C117.224481,74.2339715 104.877985,63.0706967 96.1104311,47.8848473 C93.1752556,42.8009742 90.8310687,37.5951441 89.0661426,32.3970356 C80.4313947,42.9409152 67.7445474,53.6023901 52.3415164,62.4953343 C42.777598,68.0170651 33.1467898,72.2910056 24,75.2659587 L24.0003852,137.246608 C29.6019576,148.318362 38.7728825,157.277529 50,162.610951 L50,162.610951 L50,181 L46,181 C38.3273639,181 30.9350359,182.200142 24.0004995,184.422941 L24,230 C24,244.105888 13.5691766,255.775526 0,257.716445 L0,74 C0,33.1309285 33.1309285,0 74,0 Z" id="transparent_path-7" />
    </defs>
    <g id="transparent_Avataaar/Default" stroke="none" stroke-width="1" fill="none" fill-rule="evenodd">
        <g id="transparent_Body" transform="translate(32.000000, 36.000000)">
            <mask id="transparent_mask-2" fill="white">
                <use xlink:href="#transparent_path-1" />
            </mask>
            <use fill="#D0C6AC" xlink:href="#transparent_path-1" />
            <g id="transparent_Skin-Color" mask="url(#transparent_mask-2)" fill="#614335">
                <g transform="translate(-32.000000, 0.000000)" id="transparent_Color">
                    <rect x="0" y="0" width="264" height="244" />
                </g>
            </g>
            <path d="M44,94 C44,124.927946 69.072054,150 100,150 C130.927946,150 156,124.927946 156,94 L156,94 L156,102 C156,132.927946 130.927946,158 100,158 C69.072054,158 44,132.927946 44,102 Z" id="transparent_Neck-Shadow" fill-opacity="0.100000001" fill="#000000" mask="url(#transparent_mask-2)" />
        </g>
        <g id="transparent_Clothing" transform="translate(0.000000, 170.000000)">
            
        <g id="chef_Clothing/Chef" stroke="none" stroke-width="1" fill="none" fill-rule="evenodd">
        <path d="M104,29.0517235 L160,29.0517235 C199.764502,29.0517235 232,61.2872215 232,101.051724 L232,110 L232,110 L32,110 L32,101.051724 C32,61.2872215 64.235498,29.0517235 104,29.0517235 Z" id="chef_Fabric-Color" fill="#262E33" />
        <polyline id="chef_Path-10" stroke-opacity=".206" stroke="#979797" stroke-width="4" points="136 29 97 70 97 110" />
        <path d="M107.127,19.0853917 C113.854,20.6843917 131.291,23.5633917 158.064,19.1733917 C159.566,18.9273917 160.991,19.7773917 160.991,20.9203917 L160.991,31.3083917 C160.991,32.0803917 160.333,32.7653917 159.346,33.0073917 C152.963,34.5713917 129.018,39.5293917 105.502,32.5903917 C104.591,32.3203917 104,31.6523917 104,30.9243917 L104,20.7953917 C104,19.5853917 105.577,18.7173917 107.127,19.0853917" id="chef_Fill-1" fill="#F7F9F9" />
        <circle id="chef_Oval" fill-opacity=".502" fill="#D8D8D8" cx="115" cy="79" r="4" />
        <polygon id="chef_Path-11" fill="#60ADE6" points="160.991 75 186.16092 62.6280915 186.16092 75" ns2:color="Top-500" />
    </g>
</g>
        <g id="transparent_Face" transform="translate(76.000000, 82.000000)" fill="#000000">
            <g id="transparent_Mouth" transform="translate(2.000000, 52.000000)">    
                
            <defs>
        <rect id="grimace_path-1" x="24" y="9" width="60" height="22" rx="11" />
    </defs>
    <g id="grimace_Mouth/Grimace" stroke="none" stroke-width="1" fill="none" fill-rule="evenodd">
        <rect id="grimace_Mouth" fill-opacity="0.599999964" fill="#000000" x="22" y="7" width="64" height="26" rx="13" />
        <mask id="grimace_mask-2" fill="white">
            <use xlink:href="#grimace_path-1" />
        </mask>
        <use id="grimace_Mouth" fill="#FFFFFF" xlink:href="#grimace_path-1" />
        <path d="M36,6 L35.9993333,17.999 L44.9993333,17.999 L45,6 L49,6 L48.9993333,17.999 L57.9993333,17.999 L58,6 L62,6 L61.9993333,17.999 L70.9993333,17.999 L71,6 L75,6 L74.9993333,17.999 L83.8666667,18 L83.8666667,22 L74.9993333,21.999 L75,34 L71,34 L70.9993333,21.999 L61.9993333,21.999 L62,34 L58,34 L57.9993333,21.999 L48.9993333,21.999 L49,34 L45,34 L44.9993333,21.999 L35.9993333,21.999 L36,34 L32,34 L31.9993333,21.999 L24,22 L24,18 L31.9993333,17.999 L32,6 L36,6 Z" id="grimace_Grimace-Teeth" fill="#E6E6E6" mask="url(#grimace_mask-2)" />
    </g>
</g>
            <g id="transparent_Nose" transform="translate(28.000000, 40.000000)" fill-opacity="0.16">
                
            <g id="default_Nose/Default" stroke="none" stroke-width="1" fill="none" fill-rule="evenodd" fill-opacity="0.16">
        <path d="M16,8 C16,12.418278 21.372583,16 28,16 L28,16 C34.627417,16 40,12.418278 40,8" id="default_Nose" fill="#000000" />
    </g>
</g>
            <g id="transparent_Eyes" transform="translate(0.000000, 8.000000)">
                
            <defs>
        <path d="M14,14.0481187 C23.6099827,14.0481187 28,18.4994466 28,11.5617716 C28,4.62409673 21.7319865,0 14,0 C6.2680135,0 0,4.62409673 0,11.5617716 C0,18.4994466 4.39001726,14.0481187 14,14.0481187 Z" id="squint_path-1" />
        <path d="M14,14.0481187 C23.6099827,14.0481187 28,18.4994466 28,11.5617716 C28,4.62409673 21.7319865,0 14,0 C6.2680135,0 0,4.62409673 0,11.5617716 C0,18.4994466 4.39001726,14.0481187 14,14.0481187 Z" id="squint_path-3" />
    </defs>
    <g id="squint_Eyes/Squint-😊" stroke="none" stroke-width="1" fill="none" fill-rule="evenodd">
        <g id="squint_Eye" transform="translate(16.000000, 13.000000)">
            <mask id="squint_mask-2" fill="white">
                <use xlink:href="#squint_path-1" />
            </mask>
            <use id="squint_The-white-stuff" fill="#FFFFFF" xlink:href="#squint_path-1" />
            <circle fill-opacity="0.699999988" fill="#000000" mask="url(#squint_mask-2)" cx="14" cy="10" r="6" />
        </g>
        <g id="squint_Eye" transform="translate(68.000000, 13.000000)">
            <mask id="squint_mask-4" fill="white">
                <use xlink:href="#squint_path-3" />
            </mask>
            <use id="squint_Eyeball-Mask" fill="#FFFFFF" xlink:href="#squint_path-3" />
            <circle fill-opacity="0.699999988" fill="#000000" mask="url(#squint_mask-4)" cx="14" cy="10" r="6" />
        </g>
    </g>
</g>
            <g id="transparent_Eyebrow" fill-opacity="0.599999964">
                
            <g id="angry_Eyebrow/Outline/Angry" stroke="none" stroke-width="1" fill="none" fill-rule="evenodd" fill-opacity="0.599999964">
        <path d="M15.6114904,15.1845247 C19.8515017,9.41618792 22.4892046,9.70087612 28.9238518,14.5564693 C29.1057771,14.6937504 29.2212592,14.7812575 29.5936891,15.063789 C34.4216439,18.7263562 36.7081807,20 40,20 C41.1045695,20 42,19.1045695 42,18 C42,16.8954305 41.1045695,16 40,16 C37.9337712,16 36.0986396,14.9777974 32.011227,11.8770179 C31.6358269,11.5922331 31.5189458,11.5036659 31.3332441,11.3635351 C27.5737397,8.52660822 25.3739873,7.28738405 22.6379899,6.99208688 C18.9538127,6.59445233 15.5799484,8.47367246 12.3885096,12.8154753 C11.7343147,13.7054768 11.9254737,14.9572954 12.8154753,15.6114904 C13.7054768,16.2656853 14.9572954,16.0745263 15.6114904,15.1845247 Z" id="angry_Eyebrow" fill="#000000" fill-rule="nonzero" />
        <path d="M73.6114904,15.1845247 C77.8515017,9.41618792 80.4892046,9.70087612 86.9238518,14.5564693 C87.1057771,14.6937504 87.2212592,14.7812575 87.5936891,15.063789 C92.4216439,18.7263562 94.7081807,20 98,20 C99.1045695,20 100,19.1045695 100,18 C100,16.8954305 99.1045695,16 98,16 C95.9337712,16 94.0986396,14.9777974 90.011227,11.8770179 C89.6358269,11.5922331 89.5189458,11.5036659 89.3332441,11.3635351 C85.5737397,8.52660822 83.3739873,7.28738405 80.6379899,6.99208688 C76.9538127,6.59445233 73.5799484,8.47367246 70.3885096,12.8154753 C69.7343147,13.7054768 69.9254737,14.9572954 70.8154753,15.6114904 C71.7054768,16.2656853 72.9572954,16.0745263 73.6114904,15.1845247 Z" id="angry_Eyebrow" fill="#000000" fill-rule="nonzero" transform="translate(84.999934, 13.470064) scale(-1, 1) translate(-84.999934, -13.470064) " />
    </g>
</g>
        </g>
        <g id="transparent_Top">
            
        <defs>
        <path d="M264,0 L264,280 L232,280 L232,271 C232,231.235498 199.764502,199 160,199 L160,199 L156,199 L156.001014,180.610469 C173.531251,172.282329 186.048207,155.114429 187.791415,134.867236 C193.568906,134.002616 198,129.018777 198,123 L198,123 L198,110 C198,104.05429 193.675838,99.1185422 188.000809,98.1660527 L188,92 C188,61.072054 162.927946,36 132,36 C101.072054,36 76,61.072054 76,92 L76,92 L76.0001873,98.1658855 C70.3246685,99.1179645 66,104.053942 66,110 L66,110 L66,123 C66,129.018777 70.4310943,134.002616 76.2090181,134.867253 C77.9518263,155.114813 90.4692242,172.28298 107.999984,180.610943 L108,199 L104,199 C64.633143,199 32.6454629,230.594012 32.0096459,269.809348 L32,271 L32,280 L0,280 L0,0 L264,0 Z" id="twist_long_hair_hairstyletwist-long-hair-path-1" />
    </defs>
    <g id="twist_long_hair_Hairstyle/Twist Long hair" stroke="none" stroke-width="1" fill="none" fill-rule="evenodd">
        <g id="twist_long_hair_template-for-hairstyles" opacity=".184" transform="translate(1.000000, 0.000000)">
            <mask id="twist_long_hair_hairstyletwist-long-hair-mask-2" fill="#fff">
                <use xlink:href="#twist_long_hair_hairstyletwist-long-hair-path-1" />
            </mask>
            <g id="twist_long_hair_Mask-Hair" />
        </g>
        <g id="twist_long_hair_Group-51" transform="translate(75.000000, 33.000000)">
            <g id="twist_long_hair_Hair-Color" fill="#D6B370">
                <path d="M113.9408,49.3483 C113.5818,48.9423 113.1338,48.6693 112.6548,48.5073 C112.1988,45.5163 111.5358,42.3423 110.5878,39.1103 L111.0748,38.2873 C111.9188,36.8613 111.4458,35.0223 110.0198,34.1783 C109.6238,33.9443 109.1958,33.8213 108.7648,33.7823 C107.7368,31.1693 106.4958,28.5683 105.0028,26.0413 L105.3908,25.1413 C106.0448,23.6193 105.3418,21.8543 103.8198,21.2003 C103.1148,20.8963 102.3598,20.8963 101.6838,21.1233 C100.3128,19.3433 98.7878,17.6313 97.0928,16.0133 L97.1038,15.9793 C97.6268,14.4073 96.7748,12.7093 95.2028,12.1863 C94.3788,11.9143 93.5258,12.0253 92.8198,12.4113 C90.9638,11.0413 88.9458,9.7743 86.7508,8.6333 C86.6608,7.3083 85.7048,6.1553 84.3388,5.8903 C83.4618,5.7223 82.6078,5.9623 81.9508,6.4653 C79.4918,5.5033 76.8458,4.6843 73.9968,4.0343 C73.7748,2.7613 72.7548,1.7253 71.4068,1.5653 C70.1858,1.4263 69.0518,2.0353 68.4678,3.0313 C65.7328,2.6483 62.8418,2.4003 59.7698,2.3153 C59.2298,1.5223 58.3208,1.0003 57.2888,1.0003 C56.2558,1.0003 55.3468,1.5223 54.8068,2.3153 C51.7748,2.3993 48.9198,2.6413 46.2148,3.0163 C45.6278,2.0303 44.5018,1.4273 43.2868,1.5653 C41.9488,1.7243 40.9348,2.7443 40.7028,4.0043 C37.8368,4.6523 35.1768,5.4713 32.7038,6.4333 C32.0518,5.9513 31.2138,5.7253 30.3548,5.8903 C29.0098,6.1513 28.0648,7.2733 27.9498,8.5723 C25.7288,9.7183 23.6848,10.9913 21.8098,12.3713 C21.1168,12.0153 20.2888,11.9233 19.4908,12.1863 C17.9378,12.7023 17.0928,14.3673 17.5768,15.9233 C15.8538,17.5593 14.3048,19.2923 12.9148,21.0963 C12.2628,20.9003 11.5458,20.9113 10.8738,21.2003 C9.3518,21.8543 8.6488,23.6193 9.3028,25.1413 L9.6408,25.9283 C8.1188,28.4913 6.8548,31.1333 5.8098,33.7863 C5.4198,33.8373 5.0338,33.9653 4.6738,34.1783 C3.2478,35.0223 2.7748,36.8613 3.6188,38.2873 L4.0268,38.9783 C3.0538,42.2723 2.3778,45.5083 1.9158,48.5523 C1.4838,48.7193 1.0808,48.9773 0.7528,49.3483 C-0.3452,50.5893 -0.2282,52.4853 1.0128,53.5833 L1.2918,53.8293 C0.8798,58.6893 0.9788,62.6943 1.1378,65.0943 C1.9268,76.9683 8.8848,76.8313 8.8848,64.6623 C8.8848,62.9153 9.0688,60.9203 9.4868,58.7923 C9.8848,58.6233 10.2538,58.3693 10.5598,58.0233 C11.5178,56.9403 11.5498,55.3583 10.7168,54.2433 C11.3508,52.4123 12.1788,50.5423 13.2258,48.6833 C13.2328,48.6793 13.2398,48.6783 13.2458,48.6743 C14.1368,48.1473 14.6558,47.2313 14.7138,46.2703 C15.8258,44.6363 17.1378,43.0353 18.6548,41.4993 C18.9418,41.4683 19.2308,41.4083 19.5098,41.2873 C20.4568,40.8803 21.0868,40.0433 21.2698,39.1023 C22.4978,38.0873 23.8468,37.1213 25.3078,36.2083 C25.6978,36.3893 26.1258,36.4923 26.5658,36.4923 C26.8798,36.4923 27.1978,36.4423 27.5118,36.3383 C28.6288,35.9673 29.3708,34.9993 29.5248,33.9083 C30.6958,33.3523 31.9188,32.8263 33.2148,32.3433 C33.7238,32.7243 34.3478,32.9503 35.0088,32.9503 C35.1968,32.9503 35.3898,32.9323 35.5818,32.8953 C36.6968,32.6793 37.5338,31.8673 37.8568,30.8563 C39.7168,30.3533 41.6848,29.9203 43.7758,29.5703 C44.2838,30.5393 45.2978,31.1793 46.4288,31.1793 C46.5468,31.1793 46.6648,31.1723 46.7848,31.1583 C48.0678,31.0063 49.0558,30.0623 49.3408,28.8753 C51.0318,28.7233 52.7918,28.6213 54.6208,28.5703 C55.1148,29.5483 56.1178,30.2253 57.2888,30.2253 C58.4598,30.2253 59.4618,29.5483 59.9568,28.5703 C61.8288,28.6223 63.6278,28.7293 65.3548,28.8873 C65.6438,30.0693 66.6298,31.0073 67.9088,31.1583 C68.0288,31.1723 68.1468,31.1793 68.2648,31.1793 C69.3888,31.1793 70.3978,30.5483 70.9098,29.5903 C73.0088,29.9453 74.9828,30.3853 76.8488,30.8943 C77.1808,31.8873 78.0108,32.6813 79.1118,32.8953 C79.3038,32.9323 79.4968,32.9503 79.6848,32.9503 C80.3298,32.9503 80.9368,32.7343 81.4388,32.3693 C82.7548,32.8633 83.9938,33.4013 85.1788,33.9683 C85.3528,35.0353 86.0858,35.9743 87.1818,36.3383 C87.4958,36.4423 87.8138,36.4923 88.1278,36.4923 C88.5428,36.4923 88.9438,36.3983 89.3158,36.2373 C90.8178,37.1783 92.2048,38.1743 93.4598,39.2223 C93.6708,40.1133 94.2778,40.8983 95.1838,41.2873 C95.4208,41.3903 95.6648,41.4483 95.9098,41.4863 C97.5018,43.0963 98.8678,44.7783 100.0148,46.4943 C100.1268,47.3043 100.5618,48.0533 101.2738,48.5463 C102.3818,50.4933 103.2468,52.4523 103.9008,54.3673 C103.1568,55.4733 103.2098,56.9783 104.1338,58.0233 C104.4058,58.3303 104.7298,58.5603 105.0778,58.7283 C105.5048,60.8803 105.6918,62.8983 105.6918,64.6623 C105.6918,76.8313 112.6498,76.9683 113.4388,65.0943 C113.5968,62.7103 113.6948,58.7423 113.2938,53.9263 L113.6808,53.5833 C114.9218,52.4853 115.0388,50.5893 113.9408,49.3483" id="twist_long_hair_Fill-1" ns2:color="Hair-500" />
                <path d="M32.9872,165.9284 L32.9872,147.5394 C15.4562,139.2114 2.9392,122.0434 1.1962,101.7954 L1.1962,171.4894 C9.7472,167.9074 19.1362,165.9284 28.9872,165.9284 L32.9872,165.9284 Z" id="twist_long_hair_Fill-4" ns2:color="Hair-500" />
                <path d="M80.9877,147.5387 L80.9867,165.9287 L84.9867,165.9287 C94.8667,165.9287 104.2797,167.9227 112.8507,171.5227 L112.8507,101.7957 L112.7787,101.7957 C111.0357,122.0427 98.5177,139.2107 80.9877,147.5387" id="twist_long_hair_Fill-6" ns2:color="Hair-500" />
            </g>
            <path d="M6.6562,169.4792 C8.6202,168.8382 10.6212,168.2832 12.6562,167.8112 L12.6562,131.1382 C10.3472,128.1512 8.3302,124.9262 6.6562,121.5032 L6.6562,169.4792 Z" id="twist_long_hair_Fill-8" fill-opacity=".24" fill="#000" />
            <path d="M29.7026,165.9284 L32.9876,165.9284 L32.9876,147.5394 C31.8716,147.0094 30.7766,146.4424 29.7026,145.8424 L29.7026,165.9284 Z" id="twist_long_hair_Fill-10" fill-opacity=".24" fill="#000" />
            <path d="M24.1796,142.3093 C22.0646,140.7783 20.0576,139.1063 18.1796,137.3013 L18.1796,166.7363 C20.1526,166.4393 22.1576,166.2403 24.1796,166.1063 L24.1796,142.3093 Z" id="twist_long_hair_Fill-12" fill-opacity=".24" fill="#000" />
            <path d="M83.853,146.069 C82.914,146.585 81.959,147.078 80.988,147.539 L80.987,165.928 L83.853,165.928 L83.853,146.069 Z" id="twist_long_hair_Fill-14" fill-opacity=".24" fill="#000" />
            <path d="M95.3764,166.6852 L95.3764,137.6912 C93.4944,139.4632 91.4894,141.1072 89.3764,142.6082 L89.3764,166.0752 C91.3994,166.1972 93.4014,166.3992 95.3764,166.6852" id="twist_long_hair_Fill-16" fill-opacity=".24" fill="#000" />
            <path d="M106.8998,122.3307 C105.2068,125.6507 103.1948,128.7787 100.8998,131.6757 L100.8998,167.7177 C102.9328,168.1767 104.9358,168.7137 106.8998,169.3417 L106.8998,122.3307 Z" id="twist_long_hair_Fill-18" fill-opacity=".24" fill="#000" />
            <path d="M32.9872,158.6843 L32.9872,147.5393 C15.4562,139.2113 2.9392,122.0433 1.1962,101.7953 L1.1962,141.3833 C9.0002,149.2063 20.0532,155.3023 32.9872,158.6843" id="twist_long_hair_Fill-20" fill-opacity=".24" fill="#000" />
            <path d="M112.851,140.3151 L112.851,101.7951 L112.779,101.7951 C111.036,122.0431 98.518,139.2111 80.988,147.5391 L80.988,158.4151 C94.082,154.8261 105.195,148.4521 112.851,140.3151" id="twist_long_hair_Fill-22" fill-opacity=".24" fill="#000" />
            <path d="M57.2885,1.0002 C55.6315,1.0002 54.2885,2.3432 54.2885,4.0002 L54.2885,27.2252 C54.2885,28.8822 55.6315,30.2252 57.2885,30.2252 C58.9455,30.2252 60.2885,28.8822 60.2885,27.2252 L60.2885,4.0002 C60.2885,2.3432 58.9455,1.0002 57.2885,1.0002" id="twist_long_hair_Fill-24" fill-opacity=".24" fill="#000" />
            <path d="M71.4067,1.5656 C69.7607,1.3786 68.2687,2.5466 68.0747,4.1926 L65.2817,27.8266 C65.0877,29.4726 66.2637,30.9636 67.9087,31.1586 C68.0287,31.1716 68.1467,31.1796 68.2647,31.1796 C69.7637,31.1796 71.0597,30.0566 71.2407,28.5306 L74.0337,4.8976 C74.2277,3.2516 73.0517,1.7606 71.4067,1.5656" id="twist_long_hair_Fill-26" fill-opacity=".24" fill="#000" />
            <path d="M84.3393,5.8908 C82.7113,5.5788 81.1383,6.6398 80.8233,8.2658 L76.7363,29.3798 C76.4223,31.0068 77.4853,32.5798 79.1113,32.8948 C79.3043,32.9328 79.4963,32.9508 79.6853,32.9508 C81.0933,32.9508 82.3503,31.9538 82.6273,30.5198 L86.7143,9.4068 C87.0283,7.7798 85.9663,6.2058 84.3393,5.8908" id="twist_long_hair_Fill-28" fill-opacity=".24" fill="#000" />
            <path d="M95.2026,12.1867 C93.6316,11.6677 91.9326,12.5167 91.4106,14.0887 L85.2806,32.5457 C84.7586,34.1187 85.6096,35.8157 87.1816,36.3387 C87.4956,36.4427 87.8136,36.4927 88.1276,36.4927 C89.3856,36.4927 90.5566,35.6957 90.9736,34.4367 L97.1036,15.9787 C97.6266,14.4067 96.7746,12.7087 95.2026,12.1867" id="twist_long_hair_Fill-30" fill-opacity=".24" fill="#000" />
            <path d="M103.8197,21.2004 C102.3007,20.5464 100.5337,21.2494 99.8797,22.7714 L93.6127,37.3464 C92.9587,38.8694 93.6617,40.6334 95.1837,41.2874 C95.5697,41.4544 95.9717,41.5334 96.3677,41.5334 C97.5297,41.5334 98.6357,40.8524 99.1247,39.7174 L105.3907,25.1414 C106.0457,23.6184 105.3417,21.8544 103.8197,21.2004" id="twist_long_hair_Fill-32" fill-opacity=".24" fill="#000" />
            <path d="M105.5571,47.6188 L111.0751,38.2878 C111.9181,36.8618 111.4461,35.0218 110.0201,34.1788 C108.5921,33.3348 106.7531,33.8088 105.9111,35.2338 L100.3931,44.5648 C99.5491,45.9918 100.0221,47.8308 101.4481,48.6748 C101.9271,48.9578 102.4531,49.0928 102.9721,49.0928 C103.9981,49.0928 104.9971,48.5658 105.5571,47.6188" id="twist_long_hair_Fill-34" fill-opacity=".24" fill="#000" />
            <path d="M113.9408,49.3483 C112.8428,48.1053 110.9458,47.9923 109.7068,49.0893 L104.3938,53.7883 C103.1528,54.8873 103.0368,56.7823 104.1338,58.0233 C104.7268,58.6943 105.5528,59.0363 106.3818,59.0363 C107.0888,59.0363 107.7978,58.7873 108.3688,58.2833 L113.6808,53.5833 C114.9218,52.4853 115.0388,50.5893 113.9408,49.3483" id="twist_long_hair_Fill-36" fill-opacity=".24" fill="#000" />
            <path d="M46.6191,4.193 C46.4251,2.547 44.9321,1.378 43.2871,1.566 C41.6421,1.76 40.4661,3.252 40.6601,4.897 L43.4531,28.531 C43.6341,30.057 44.9301,31.179 46.4291,31.179 C46.5471,31.179 46.6651,31.172 46.7851,31.158 C48.4301,30.964 49.6061,29.472 49.4121,27.827 L46.6191,4.193 Z" id="twist_long_hair_Fill-38" fill-opacity=".24" fill="#000" />
            <path d="M33.87,8.2658 C33.556,6.6398 31.982,5.5778 30.354,5.8908 C28.727,6.2058 27.665,7.7798 27.979,9.4068 L32.066,30.5198 C32.344,31.9538 33.6,32.9508 35.009,32.9508 C35.197,32.9508 35.39,32.9328 35.582,32.8948 C37.208,32.5798 38.271,31.0068 37.957,29.3798 L33.87,8.2658 Z" id="twist_long_hair_Fill-40" fill-opacity=".24" fill="#000" />
            <path d="M23.2831,14.0886 C22.7611,12.5166 21.0621,11.6676 19.4911,12.1866 C17.9191,12.7096 17.0671,14.4066 17.5901,15.9796 L23.7201,34.4366 C24.1371,35.6956 25.3081,36.4926 26.5661,36.4926 C26.8801,36.4926 27.1981,36.4426 27.5121,36.3386 C29.0841,35.8166 29.9351,34.1186 29.4131,32.5466 L23.2831,14.0886 Z" id="twist_long_hair_Fill-42" fill-opacity=".24" fill="#000" />
            <path d="M14.8144,22.7712 C14.1604,21.2492 12.3924,20.5462 10.8744,21.2002 C9.3514,21.8542 8.6484,23.6192 9.3024,25.1412 L15.5694,39.7172 C16.0574,40.8532 17.1644,41.5332 18.3264,41.5332 C18.7214,41.5332 19.1244,41.4542 19.5094,41.2882 C21.0324,40.6332 21.7354,38.8692 21.0814,37.3472 L14.8144,22.7712 Z" id="twist_long_hair_Fill-44" fill-opacity=".24" fill="#000" />
            <path d="M8.7831,35.2341 C7.9401,33.8091 6.1011,33.3351 4.6741,34.1781 C3.2481,35.0221 2.7751,36.8611 3.6191,38.2881 L9.1371,47.6191 C9.6961,48.5661 10.6951,49.0921 11.7211,49.0921 C12.2401,49.0921 12.7661,48.9581 13.2461,48.6741 C14.6721,47.8311 15.1441,45.9911 14.3011,44.5651 L8.7831,35.2341 Z" id="twist_long_hair_Fill-46" fill-opacity=".24" fill="#000" />
            <path d="M4.9872,49.089 C3.7482,47.992 1.8502,48.106 0.7532,49.348 C-0.3448,50.589 -0.2288,52.485 1.0122,53.583 L6.3252,58.283 C6.8952,58.788 7.6042,59.036 8.3112,59.036 C9.1402,59.036 9.9662,58.694 10.5592,58.024 C11.6572,56.782 11.5412,54.887 10.2992,53.789 L4.9872,49.089 Z" id="twist_long_hair_Fill-48" fill-opacity=".24" fill="#000" />
        </g>
        <g id="twist_long_hair_Facial-Hair" transform="translate(49.000000, 72.000000)"><defs>
        <path d="M101.428403,98.1685688 C98.9148372,100.462621 96.23722,101.494309 92.8529444,100.772863 C92.2705777,100.648833 89.8963391,96.2345713 83.9998344,96.2345713 C78.1033297,96.2345713 75.7294253,100.648833 75.1467245,100.772863 C71.7624488,101.494309 69.0848316,100.462621 66.5712661,98.1685688 C61.8461772,93.855604 57.9166219,87.9081858 60.2778299,81.4191814 C61.5083844,78.0369425 63.5097479,74.3237342 67.1506257,73.2459109 C71.0384163,72.0955419 76.4968931,73.2439051 80.4147542,72.4582708 C81.6840664,72.2035248 83.0706538,71.7508657 83.9998344,71 C84.929015,71.7508657 86.3159365,72.2035248 87.5845805,72.4582708 C91.5027758,73.2439051 96.9612525,72.0955419 100.849043,73.2459109 C104.489921,74.3237342 106.491284,78.0369425 107.722173,81.4191814 C110.083381,87.9081858 106.153826,93.855604 101.428403,98.1685688 M140.081033,26 C136.670693,34.4002532 137.987774,44.8580348 137.356666,53.6758724 C136.844038,60.8431942 135.33712,71.5857526 128.972858,76.214531 C125.718361,78.5816138 119.79436,82.5598986 115.54187,81.4501943 C112.614539,80.6863848 112.302182,72.290096 108.455284,69.1469801 C104.09172,65.5823153 98.6429854,64.0160432 93.1491481,64.2578722 C90.7785381,64.3622683 85.9841367,64.3374908 83.9999331,66.1604584 C82.0157295,64.3374908 77.2216647,64.3622683 74.8510547,64.2578722 C69.3568808,64.0160432 63.9081467,65.5823153 59.5445817,69.1469801 C55.6976839,72.290096 55.3856641,80.6863848 52.4583326,81.4501943 C48.2058427,82.5598986 42.2818421,78.5816138 39.0270077,76.214531 C32.6624096,71.5857526 31.1561652,60.8431942 30.642864,53.6758724 C30.0120926,44.8580348 31.3291729,34.4002532 27.9188335,26 C26.2597768,26 27.3540339,42.1288693 27.3540339,42.1288693 L27.3540339,62.4851205 C27.3856735,77.7732046 36.935095,100.655445 58.1080116,109.393004 C63.2861266,111.52982 75.0153111,115 83.9999331,115 C92.9845551,115 104.71374,111.860188 109.891855,109.723371 C131.064771,100.985813 140.614193,77.7732046 140.646169,62.4851205 L140.646169,42.1288693 C140.646169,42.1288693 141.740089,26 140.081033,26" id="beard_light_path-1" />
    </defs>
    <g id="beard_light_Facial-Hair/Beard-Light" stroke="none" stroke-width="1" fill="none" fill-rule="evenodd">
        <mask id="beard_light_mask-2" fill="white">
            <use xlink:href="#beard_light_path-1" />
        </mask>
        <use id="beard_light_Lite-Beard" fill="#331B0C" xlink:href="#beard_light_path-1" />
        <g id="beard_light_Facial-Hair-Color" mask="url(#beard_light_mask-2)" fill="#724133">
            <rect id="beard_light_Color" x="0" y="0" width="168" height="152" />
        </g>
    </g>
</g>
        <g id="twist_long_hair_Accessory" transform="translate(62.000000, 85.000000)"><defs>
        <filter x="-3.1%" y="-9.8%" width="106.2%" height="119.5%" filterUnits="objectBoundingBox" id="prescription_02_filter-1">
            <feOffset dx="0" dy="2" in="SourceAlpha" result="shadowOffsetOuter1" />
            <feColorMatrix values="0 0 0 0 0   0 0 0 0 0   0 0 0 0 0  0 0 0 0.2 0" type="matrix" in="shadowOffsetOuter1" result="shadowMatrixOuter1" />
            <feMerge>
                <feMergeNode in="shadowMatrixOuter1" />
                <feMergeNode in="SourceGraphic" />
            </feMerge>
        </filter>
    </defs>
    <g id="prescription_02_Top/_Resources/Prescription-02" stroke="none" stroke-width="1" fill="none" fill-rule="evenodd">
        <g id="prescription_02_Wayfarers" filter="url(#prescription_02_filter-1)" transform="translate(6.000000, 7.000000)" fill="#252C2F" fill-rule="nonzero">
            <path d="M35.4700694,0 C57.1829942,0 59,10.127 59,20.5 C59,32.5686429 48.7212748,41 34,41 L31.2421498,41 C17.3147125,41 9,33.3359286 9,20.5 C9,10.127 10.8170058,0 32.5299306,0 L35.4700694,0 Z M35.6146394,6 L32.3853606,6 C13,6 13,12.8410159 13,21.5015498 C13,28.5719428 16.116254,37 30.9709365,37 L34,37 C46.3649085,37 55,30.6270373 55,21.5015498 L54.9994766,20.7271501 C54.9825532,12.4367119 54.4184392,6 35.6146394,6 Z" id="prescription_02_Left" />
            <path d="M97.4700694,0 C119.182994,0 121,10.127 121,20.5 C121,32.5686429 110.721275,41 96,41 L93.2421498,41 C79.3147125,41 71,33.3359286 71,20.5 C71,10.127 72.8170058,0 94.5299306,0 L97.4700694,0 Z M97.6146394,6 L94.3853606,6 C75.5815608,6 75.0174468,12.4367119 75.0005234,20.7271501 L75,21.5015498 C75,28.5719428 78.1194833,37 92.9709365,37 L96,37 C108.364909,37 117,30.6270373 117,21.5015498 C117,12.8410159 117,6 97.6146394,6 Z" id="prescription_02_Right" />
            <path d="M2.95454545,5.77156439 C3.64590909,5.09629136 11.2095455,0 32.5,0 C50.3513636,0 54.1302273,1.85267217 59.8502273,4.6518809 L60.2689233,4.85850899 C60.6666014,4.99901896 62.7002447,5.68982981 65.0790606,5.76579519 C67.2462948,5.67278567 69.1000195,5.08540191 69.641698,4.89719767 C76.1703915,1.7220864 82.5610971,0 97.5,0 C118.790455,0 126.354091,5.09629136 127.045455,5.77156439 C128.679318,5.77156439 130,7.06150904 130,8.65734659 L130,11.5431288 C130,13.1389663 128.679318,14.428911 127.045455,14.428911 C127.045455,14.428911 120.143997,14.428911 120.143997,17.3146932 C120.143997,20.2004754 118.181818,13.1389663 118.181818,11.5431288 L118.181818,8.73240251 C114.578575,7.35340151 108.128411,4.78617535 97.5,4.78617535 C85.6584651,4.78617535 79.7610984,6.88602813 74.7022935,8.97112368 L74.7588636,9.10752861 L74.7563667,11.0937608 L72.5391666,16.4436339 L69.8004908,15.3608351 C69.5558969,15.2641292 69.0281396,15.090392 68.2963505,14.9099044 C66.256272,14.4067419 64.1589087,14.253569 62.3040836,14.6343084 C61.6235903,14.7739931 60.9922286,14.9836085 60.4128127,15.266732 L57.7704824,16.5578701 L55.1266751,11.3962031 L55.2440909,9.10175705 L55.3248203,8.90683855 C50.9620526,6.87386374 46.9392639,4.78617535 32.5,4.78617535 C21.8721459,4.78617535 15.422131,7.3524397 11.8181818,8.7314671 L11.8181818,11.5431288 C11.8181818,13.1389663 8.86363636,20.2004754 8.86363636,17.3146932 C8.86363636,14.428911 2.95454545,14.428911 2.95454545,14.428911 C1.32363636,14.428911 0,13.1389663 0,11.5431288 L0,8.65734659 C0,7.06150904 1.32363636,5.77156439 2.95454545,5.77156439 Z" id="prescription_02_Stuff" />
        </g>
    </g>
</g>
    </g>
</g>
    </g>
</svg>