<svg xmlns="http://www.w3.org/2000/svg" xmlns:ns2="http://design.blush" xmlns:xlink="http://www.w3.org/1999/xlink" width="264px" height="280px" viewBox="0 0 264 280" version="1.1">
    <title id="transparent_Title">Avataaar/Default</title>
    <desc>Created with python_avatars</desc>
    <defs>
        <path d="M100,0 C130.927946,-5.68137151e-15 156,25.072054 156,56 L156.000809,62.1660527 C161.675838,63.1185422 166,68.05429 166,74 L166,88 C166,94.0524166 161.519235,99.0582945 155.693975,99.8813638 C153.627928,119.686472 141.237929,136.421678 124.001014,144.610469 L124,163 L128,163 C167.764502,163 200,195.235498 200,235 L200,244 L0,244 L0,235 C-4.86974701e-15,195.235498 32.235498,163 72,163 L76,163 L75.9999836,144.610943 C58.7625487,136.422324 46.3721119,119.686854 44.3051107,99.8809698 C38.480765,99.0582945 34,94.0524166 34,88 L34,74 C34,68.053942 38.3246685,63.1179645 44.0001873,62.1658855 L44,56 C44,25.072054 69.072054,5.68137151e-15 100,0 Z" id="transparent_path-1" />
        <path d="M83,36.3476251 C83,52.6289957 105.161905,65.8276544 132.5,65.8276544 C159.838095,65.8276544 182,52.6289957 182,36.3476251 C182,34.9853134 181.844841,33.6445843 181.544472,32.3313638 C210.784239,41.4879251 232,68.792221 232,101.051724 L232,110 L32,110 L32,101.051724 C32,68.3970853 53.7386736,40.8197864 83.5337207,32.0021267 C83.1821692,33.4207025 83,34.871494 83,36.3476251 Z" id="transparent_path-3" />
        <rect id="transparent_path-5" x="0" y="0" width="264" height="280" />
        <path d="M74,0 C114.869071,0 148,33.1309285 148,74 L148,84.1482318 L148,197.608051 C135.525121,187.236892 119.490913,181 102,181 L102,181 L98,181 L98,162.610951 C115.530782,154.282984 128.048193,137.114792 129.791419,116.867187 C135.569129,116.002364 140,111.018625 140,105 L140,105 L140,92 C140,87.3536213 137.359271,83.3240177 133.496777,81.3301515 C132.723933,81.0500337 131.951808,80.748163 131.180891,80.4262497 C130.794819,80.3202581 130.400778,80.2331546 130,80.1659169 L130,80.1659169 L130.000458,79.9172528 C117.224481,74.2339715 104.877985,63.0706967 96.1104311,47.8848473 C93.1752556,42.8009742 90.8310687,37.5951441 89.0661426,32.3970356 C80.4313947,42.9409152 67.7445474,53.6023901 52.3415164,62.4953343 C42.777598,68.0170651 33.1467898,72.2910056 24,75.2659587 L24.0003852,137.246608 C29.6019576,148.318362 38.7728825,157.277529 50,162.610951 L50,162.610951 L50,181 L46,181 C38.3273639,181 30.9350359,182.200142 24.0004995,184.422941 L24,230 C24,244.105888 13.5691766,255.775526 0,257.716445 L0,74 C0,33.1309285 33.1309285,0 74,0 Z" id="transparent_path-7" />
    </defs>
    <g id="transparent_Avataaar/Default" stroke="none" stroke-width="1" fill="none" fill-rule="evenodd">
        <g id="transparent_Body" transform="translate(32.000000, 36.000000)">
            <mask id="transparent_mask-2" fill="white">
                <use xlink:href="#transparent_path-1" />
            </mask>
            <use fill="#D0C6AC" xlink:href="#transparent_path-1" />
            <g id="transparent_Skin-Color" mask="url(#transparent_mask-2)" fill="#F8D25C">
                <g transform="translate(-32.000000, 0.000000)" id="transparent_Color">
                    <rect x="0" y="0" width="264" height="244" />
                </g>
            </g>
            <path d="M44,94 C44,124.927946 69.072054,150 100,150 C130.927946,150 156,124.927946 156,94 L156,94 L156,102 C156,132.927946 130.927946,158 100,158 C69.072054,158 44,132.927946 44,102 Z" id="transparent_Neck-Shadow" fill-opacity="0.100000001" fill="#000000" mask="url(#transparent_mask-2)" />
        </g>
        <g id="transparent_Clothing" transform="translate(0.000000, 170.000000)">
            
        </g>
        <g id="transparent_Face" transform="translate(76.000000, 82.000000)" fill="#000000">
            <g id="transparent_Mouth" transform="translate(2.000000, 52.000000)">    
                
            <g id="default_Mouth/Default" stroke="none" stroke-width="1" fill="none" fill-rule="evenodd" fill-opacity="0.699999988">
        <path d="M40,15 C40,22.7319865 46.2680135,29 54,29 L54,29 C61.7319865,29 68,22.7319865 68,15" id="default_Mouth" fill="#000000" />
    </g>
</g>
            <g id="transparent_Nose" transform="translate(28.000000, 40.000000)" fill-opacity="0.16">
                
            <g id="default_Nose/Default" stroke="none" stroke-width="1" fill="none" fill-rule="evenodd" fill-opacity="0.16">
        <path d="M16,8 C16,12.418278 21.372583,16 28,16 L28,16 C34.627417,16 40,12.418278 40,8" id="default_Nose" fill="#000000" />
    </g>
</g>
            <g id="transparent_Eyes" transform="translate(0.000000, 8.000000)">
                
            <defs>
        <path d="M14,14.0481187 C23.6099827,14.0481187 28,18.4994466 28,11.5617716 C28,4.62409673 21.7319865,0 14,0 C6.2680135,0 0,4.62409673 0,11.5617716 C0,18.4994466 4.39001726,14.0481187 14,14.0481187 Z" id="squint_path-1" />
        <path d="M14,14.0481187 C23.6099827,14.0481187 28,18.4994466 28,11.5617716 C28,4.62409673 21.7319865,0 14,0 C6.2680135,0 0,4.62409673 0,11.5617716 C0,18.4994466 4.39001726,14.0481187 14,14.0481187 Z" id="squint_path-3" />
    </defs>
    <g id="squint_Eyes/Squint-😊" stroke="none" stroke-width="1" fill="none" fill-rule="evenodd">
        <g id="squint_Eye" transform="translate(16.000000, 13.000000)">
            <mask id="squint_mask-2" fill="white">
                <use xlink:href="#squint_path-1" />
            </mask>
            <use id="squint_The-white-stuff" fill="#FFFFFF" xlink:href="#squint_path-1" />
            <circle fill-opacity="0.699999988" fill="#000000" mask="url(#squint_mask-2)" cx="14" cy="10" r="6" />
        </g>
        <g id="squint_Eye" transform="translate(68.000000, 13.000000)">
            <mask id="squint_mask-4" fill="white">
                <use xlink:href="#squint_path-3" />
            </mask>
            <use id="squint_Eyeball-Mask" fill="#FFFFFF" xlink:href="#squint_path-3" />
            <circle fill-opacity="0.699999988" fill="#000000" mask="url(#squint_mask-4)" cx="14" cy="10" r="6" />
        </g>
    </g>
</g>
            <g id="transparent_Eyebrow" fill-opacity="0.599999964">
                
            <g id="angry_natural_Eyebrow/Natural/Angry-Natural" stroke="none" stroke-width="1" fill="none" fill-rule="evenodd" fill-opacity="0.599999964">
        <path d="M44.8565785,12.2282877 C44.8578785,12.2192877 44.8578785,12.2192877 44.8565785,12.2282877 M17.5862288,7.89238094 C15.2441598,8.3302947 13.0866155,9.78806858 12.1523766,12.0987479 C11.8009169,12.967391 11.3917103,14.9243181 11.7083227,15.8073302 C11.8284629,16.14295 12.0332321,16.1008692 12.9555234,16.0430509 C14.643791,15.9369937 16.9330912,13.6622369 18.7484684,13.2557982 C21.2753939,12.6899315 23.9825295,13.1148447 26.4961798,13.6882381 C30.8109365,14.6725177 36.4854008,17.7875215 40.9461842,16.1699775 C41.2783949,16.0495512 45.6210294,12.9225732 44.3685187,12.2769925 C43.9238011,11.9068186 41.1370145,12.0854053 40.6216067,11.9988489 C38.2277647,11.5971998 35.7297127,10.9345131 33.373373,10.3265657 C28.2329017,9.00016592 22.9666484,6.88073171 17.5862288,7.89238094" id="angry_natural_Eyebrows-The-Web" fill="#000000" transform="translate(28.094701, 12.127505) rotate(17.000000) translate(-28.094701, -12.127505) " />
        <path d="M100.918293,12.2094196 C100.919593,12.2004196 100.919593,12.2004196 100.918293,12.2094196 M73.5862288,7.89238094 C71.2441598,8.3302947 69.0866155,9.78806858 68.1523766,12.0987479 C67.8009169,12.967391 67.3917103,14.9243181 67.7083227,15.8073302 C67.8284629,16.14295 68.0332321,16.1008692 68.9555234,16.0430509 C70.643791,15.9369937 72.9330912,13.6622369 74.7484684,13.2557982 C77.2753939,12.6899315 79.9825295,13.1148447 82.4961798,13.6882381 C86.8109365,14.6725177 92.4854008,17.7875215 96.9461842,16.1699775 C97.2783949,16.0495512 101.621029,12.9225732 100.368519,12.2769925 C99.9238011,11.9068186 97.1370145,12.0854053 96.6216067,11.9988489 C94.2277647,11.5971998 91.7297127,10.9345131 89.373373,10.3265657 C84.2329017,9.00016592 78.9666484,6.88073171 73.5862288,7.89238094" id="angry_natural_Eyebrows-The-Web" fill="#000000" transform="translate(84.094701, 12.127505) scale(-1, 1) rotate(17.000000) translate(-84.094701, -12.127505) " />
    </g>
</g>
        </g>
        <g id="transparent_Top">
            
        <g id="long_hair_curly_Hairstyle/Long hair curly" stroke="none" stroke-width="1" fill="none" fill-rule="evenodd">
        <g id="long_hair_curly_Group-13" transform="translate(6.800000, 9.600000)">
            <path d="M220.9468,135.0391 C201.3318,126.8661 199.4248,113.5171 204.3288,94.9911 C209.2318,76.4651 211.4118,66.1121 207.0528,52.4911 C204.4198,44.2621 187.9348,28.8101 172.1148,33.8451 C172.2398,33.3551 172.3518,32.8511 172.4538,32.3301 C175.7218,15.4391 160.7388,1.0001 121.2348,1.0001 C70.2888,1.0001 37.0508,35.3271 37.0508,68.0191 C37.0508,95.8081 56.1218,91.9941 56.1218,111.0641 C56.1218,132.3141 -0.0002,160.1031 -0.0002,201.7861 C-0.0002,220.6181 13.5678,234.8591 28.4438,239.8811 C37.5818,210.6071 64.8878,189.3541 97.1708,189.3541 L101.1708,189.3541 L101.1708,172.3631 L101.1708,170.9661 C92.0248,166.6211 84.2528,159.8621 78.6548,151.5221 C83.3848,143.7721 93.6728,134.9321 101.4198,130.7001 C98.1338,135.0271 95.6768,139.5171 96.8038,144.2981 C99.5148,155.7971 116.8728,153.3471 116.8728,153.3471 C99.9868,148.6771 104.6088,138.4611 110.8748,133.7911 C115.3838,130.4311 128.7778,122.3851 128.3238,109.7811 C128.3268,109.6641 128.3368,109.5491 128.3368,109.4301 C128.3368,86.5451 110.0648,88.4521 110.0648,68.0191 C110.0648,47.5871 134.8578,48.4211 145.3588,49.2051 C148.3508,49.4291 152.4878,49.4831 156.6518,48.5541 C152.3588,59.6511 157.0338,71.8211 159.3768,75.9201 C167.0048,89.2691 181.4198,86.5041 183.3508,94.4461 C185.8018,104.5261 169.4568,111.6091 169.4568,126.8661 C169.4568,133.0541 172.5488,137.9851 176.8428,141.9181 C171.5118,154.6781 161.6158,165.0541 149.1718,170.9651 L149.1718,189.3541 L153.1708,189.3541 C181.9778,189.3541 206.8238,206.2791 218.3348,230.7221 C230.0108,229.6551 247.8168,220.9791 255.5468,200.4251 C267.5348,168.5491 240.5628,143.2121 220.9468,135.0391" id="long_hair_curly_Hair-Color" fill="#724133" ns2:color="Hair-500" />
            <path d="M170.5464,24.7017 C161.8274,14.8937 129.4074,14.0767 111.1544,22.7947 C92.9014,31.5127 84.7284,48.6767 93.1734,65.0227 C101.6034,81.3387 121.8884,82.4787 127.4254,101.4357 C123.7414,86.6657 110.0654,85.7027 110.0654,68.0197 C110.0654,47.5867 134.8584,48.4207 145.3594,49.2047 C148.3514,49.4287 152.4874,49.4837 156.6514,48.5537 C156.6514,48.5537 179.2644,34.5097 170.5464,24.7017" id="long_hair_curly_Fill-4" fill-opacity=".16" fill="#000" />
            <path d="M43.1046,213.836 C34.8836,208.679 29.1506,198.513 29.1506,189.526 C29.1506,157.651 82.5486,124.959 82.5486,109.158 C82.5486,93.357 65.3856,82.187 50.1286,60.936 C41.0686,48.317 50.3586,33.104 59.3996,22.828 C45.1286,35.426 37.0516,51.917 37.0516,68.02 C37.0516,95.808 56.1226,91.994 56.1226,111.065 C56.1226,132.315 0.0006,160.104 0.0006,201.786 C0.0006,220.637 13.5956,234.733 28.4886,239.731 C31.5326,230.056 36.5646,221.271 43.1046,213.836" id="long_hair_curly_Fill-6" fill-opacity=".16" fill="#000" />
            <path d="M207.9664,156.834 C203.5604,145.348 193.9764,138.309 187.7094,126.049 C183.2314,117.286 182.3014,101.436 182.3014,101.436 C178.8084,108.459 169.4564,115.323 169.4564,126.866 C169.4564,133.054 172.5484,137.985 176.8424,141.918 C171.5124,154.678 161.6154,165.054 149.1714,170.965 L149.1714,189.355 L153.1704,189.355 C168.1524,189.355 182.0554,193.939 193.5754,201.772 C213.2754,190.638 211.6174,166.353 207.9664,156.834" id="long_hair_curly_Fill-8" fill-opacity=".6" fill="#000" />
            <path d="M101.171,189.3545 L101.171,172.3635 L101.171,170.9655 C92.025,166.6215 84.253,159.8625 78.654,151.5225 C69.75,169.1625 70.593,183.3795 74.827,192.9025 C81.861,190.6065 89.369,189.3545 97.171,189.3545 L101.171,189.3545 Z" id="long_hair_curly_Fill-10" fill-opacity=".6" fill="#000" />
        </g>
    </g>
</g>
    </g>
</svg>