<svg xmlns="http://www.w3.org/2000/svg" xmlns:ns2="http://design.blush" xmlns:xlink="http://www.w3.org/1999/xlink" width="264px" height="280px" viewBox="0 0 264 280" version="1.1">
    <title id="transparent_Title">Avataaar/Default</title>
    <desc>Created with python_avatars</desc>
    <defs>
        <path d="M100,0 C130.927946,-5.68137151e-15 156,25.072054 156,56 L156.000809,62.1660527 C161.675838,63.1185422 166,68.05429 166,74 L166,88 C166,94.0524166 161.519235,99.0582945 155.693975,99.8813638 C153.627928,119.686472 141.237929,136.421678 124.001014,144.610469 L124,163 L128,163 C167.764502,163 200,195.235498 200,235 L200,244 L0,244 L0,235 C-4.86974701e-15,195.235498 32.235498,163 72,163 L76,163 L75.9999836,144.610943 C58.7625487,136.422324 46.3721119,119.686854 44.3051107,99.8809698 C38.480765,99.0582945 34,94.0524166 34,88 L34,74 C34,68.053942 38.3246685,63.1179645 44.0001873,62.1658855 L44,56 C44,25.072054 69.072054,5.68137151e-15 100,0 Z" id="transparent_path-1" />
        <path d="M83,36.3476251 C83,52.6289957 105.161905,65.8276544 132.5,65.8276544 C159.838095,65.8276544 182,52.6289957 182,36.3476251 C182,34.9853134 181.844841,33.6445843 181.544472,32.3313638 C210.784239,41.4879251 232,68.792221 232,101.051724 L232,110 L32,110 L32,101.051724 C32,68.3970853 53.7386736,40.8197864 83.5337207,32.0021267 C83.1821692,33.4207025 83,34.871494 83,36.3476251 Z" id="transparent_path-3" />
        <rect id="transparent_path-5" x="0" y="0" width="264" height="280" />
        <path d="M74,0 C114.869071,0 148,33.1309285 148,74 L148,84.1482318 L148,197.608051 C135.525121,187.236892 119.490913,181 102,181 L102,181 L98,181 L98,162.610951 C115.530782,154.282984 128.048193,137.114792 129.791419,116.867187 C135.569129,116.002364 140,111.018625 140,105 L140,105 L140,92 C140,87.3536213 137.359271,83.3240177 133.496777,81.3301515 C132.723933,81.0500337 131.951808,80.748163 131.180891,80.4262497 C130.794819,80.3202581 130.400778,80.2331546 130,80.1659169 L130,80.1659169 L130.000458,79.9172528 C117.224481,74.2339715 104.877985,63.0706967 96.1104311,47.8848473 C93.1752556,42.8009742 90.8310687,37.5951441 89.0661426,32.3970356 C80.4313947,42.9409152 67.7445474,53.6023901 52.3415164,62.4953343 C42.777598,68.0170651 33.1467898,72.2910056 24,75.2659587 L24.0003852,137.246608 C29.6019576,148.318362 38.7728825,157.277529 50,162.610951 L50,162.610951 L50,181 L46,181 C38.3273639,181 30.9350359,182.200142 24.0004995,184.422941 L24,230 C24,244.105888 13.5691766,255.775526 0,257.716445 L0,74 C0,33.1309285 33.1309285,0 74,0 Z" id="transparent_path-7" />
    </defs>
    <g id="transparent_Avataaar/Default" stroke="none" stroke-width="1" fill="none" fill-rule="evenodd">
        <g id="transparent_Body" transform="translate(32.000000, 36.000000)">
            <mask id="transparent_mask-2" fill="white">
                <use xlink:href="#transparent_path-1" />
            </mask>
            <use fill="#D0C6AC" xlink:href="#transparent_path-1" />
            <g id="transparent_Skin-Color" mask="url(#transparent_mask-2)" fill="#D08B5B">
                <g transform="translate(-32.000000, 0.000000)" id="transparent_Color">
                    <rect x="0" y="0" width="264" height="244" />
                </g>
            </g>
            <path d="M44,94 C44,124.927946 69.072054,150 100,150 C130.927946,150 156,124.927946 156,94 L156,94 L156,102 C156,132.927946 130.927946,158 100,158 C69.072054,158 44,132.927946 44,102 Z" id="transparent_Neck-Shadow" fill-opacity="0.100000001" fill="#000000" mask="url(#transparent_mask-2)" />
        </g>
        <g id="transparent_Clothing" transform="translate(0.000000, 170.000000)">
            
        <g id="bond_suit_Clothing/Bond Suit" stroke="none" stroke-width="1" fill="none" fill-rule="evenodd">
        <g id="bond_suit_Suit" transform="translate(31.500000, 28.600000)">
            <path d="M124.379699,3.0005061 L128.359699,3.0005061 C167.925874,3.0005061 199.999699,34.434727 199.999699,73.2118883 L199.999699,81.9883111 L0.9996985,81.9883111 L0.9996985,73.2118883 L1.0096485,72.050475 C1.6424685,33.8096507 33.4695335,3.0005061 72.6396985,3.0005061 L76.6196985,3.0005061 C76.6196985,3.0005061 76.4236835,15.1129447 100.491739,15.1129447 C124.559794,15.1129447 124.379699,3.0005061 124.379699,3.0005061" id="bond_suit_Fabric-Color" fill="#A7FFC4" ns2:color="Top-500" />
            <path d="M86.846271,30.4401 L100.520301,16.6691854 L114.194331,30.4401 L142.147401,2.28791707 C137.769621,1.45386829 133.258176,1.00040488 128.639196,1.00040488 L124.619196,1.00040488 C124.619196,1.00040488 124.801101,13.5728805 100.491156,13.5728805 C76.181211,13.5728805 76.380201,1.00040488 76.380201,1.00040488 L72.360201,1.00040488 C67.753281,1.00040488 63.252891,1.44981951 58.885161,2.27981951 L86.846271,30.4401 Z" id="bond_suit_Fill-7" fill="#FFF" />
            <path d="M128.639698,0.000506097561 L124.640803,0.000506097561 L124.640803,81.988311 L200.999698,81.988311 L200.999698,72.8785549 C200.999698,32.6286159 168.603523,0.000506097561 128.639698,0.000506097561" id="bond_suit_Fill-9" fill="#191919" />
            <path d="M76.380201,0.000506097561 L72.360201,0.000506097561 C32.796366,0.000506097561 0.649431,31.9797988 0.009246,71.6730305 L0.000201,72.8785549 L0.000201,81.988311 L76.380201,81.988311 L76.380201,0.000506097561 Z" id="bond_suit_Fill-12" fill="#191919" />
            <path d="M66.873906,0.206082927 L40.132866,43.4571805 L62.584566,56.6946683 L48.757776,75.9982415 L55.328466,81.9884122 L76.380201,81.9884122 L76.380201,0.000607317073 C76.380201,0.000607317073 73.264701,0.0431195122 66.873906,0.206082927" id="bond_suit_Fill-15" fill="#2B2B2B" />
            <path d="M134.28006,0.224909756 L160.887435,43.4577878 L138.435735,56.6942634 L152.26353,75.9978366 L145.69083,81.9880073 L124.6401,81.9869951 L124.6401,-0.000809756098 C124.6401,-0.000809756098 127.889265,0.0619463415 134.28006,0.224909756" id="bond_suit_Fill-18" fill="#2B2B2B" />
            <path d="M117.319471,4.55653649 L104.309494,9.42526147 C103.959547,8.06616124 102.826255,7.06466754 101.46774,7.06466754 L99.5726387,7.06466754 C98.2087401,7.06466754 97.0727562,8.07300071 96.7272951,9.43894041 L83.6805286,4.55653649 C81.6014805,3.86379597 79.5,5.55705312 79.5,7.92546359 L79.5,20.8755099 C79.5,23.2429433 81.6014805,24.9362005 83.6805286,24.24346 L96.7272951,19.3620331 C97.0727562,20.7269957 98.2087401,21.7353289 99.5726387,21.7353289 L101.46774,21.7353289 C102.826255,21.7353289 103.959547,20.7328581 104.308597,19.3757121 L117.319471,24.24346 C119.398519,24.9362005 121.5,23.2429433 121.5,20.8755099 L121.5,7.92546359 C121.5,5.55705312 119.398519,3.86379597 117.319471,4.55653649" id="bond_suit_Fill-1" fill="#191919" />
        </g>
    </g>
</g>
        <g id="transparent_Face" transform="translate(76.000000, 82.000000)" fill="#000000">
            <g id="transparent_Mouth" transform="translate(2.000000, 52.000000)">    
                
            <g id="big_smile_Mouth/Big Smile" stroke="none" stroke-width="1" fill="none" fill-rule="evenodd"><path d="M29,15.6086957 C30.410031,25.2313711 38.062182,35 54,35 C69.937818,35 77.6461342,25.183301 79,14.7391304 C79.1012093,14.3397326 78.775269,13 76.826087,13 C56.838426,13 41.7395748,13 31.173913,13 C29.3833142,13 28.870211,14.2404669 29,15.6086957 Z" id="big_smile_Mouth" fill-opacity=".7" fill="#000" /><path d="M70,13 C70,15.7614237 67.7614237,18 65,18 L44,18 C41.2385763,18 39,15.7614237 39,13 L70,13 Z" id="big_smile_Path" fill="#FFF" /></g></g>
            <g id="transparent_Nose" transform="translate(28.000000, 40.000000)" fill-opacity="0.16">
                
            <g id="wide_Nose/Wide" stroke="none" stroke-width="1" fill="none" fill-rule="evenodd"><path d="M13,6 C13,12.627417 16.8281211,18 28,18 C39.1718789,18 43,12.627417 43,6 C39.0361818,6 32.8972468,9 27.83815,9 C23.0794079,9 17.1013384,6 13,6 Z" id="wide_Nose" fill-opacity=".16" fill="#000" /></g></g>
            <g id="transparent_Eyes" transform="translate(0.000000, 8.000000)">
                
            <g id="default_Eyes/Default-😀" stroke="none" stroke-width="1" fill="none" fill-rule="evenodd" fill-opacity="0.599999964">
        <circle id="default_Eye" fill="#000000" cx="30" cy="22" r="6" />
        <circle id="default_Eye" fill="#000000" cx="82" cy="22" r="6" />
    </g>
</g>
            <g id="transparent_Eyebrow" fill-opacity="0.599999964">
                
            <g id="angry_Eyebrow/Outline/Angry" stroke="none" stroke-width="1" fill="none" fill-rule="evenodd" fill-opacity="0.599999964">
        <path d="M15.6114904,15.1845247 C19.8515017,9.41618792 22.4892046,9.70087612 28.9238518,14.5564693 C29.1057771,14.6937504 29.2212592,14.7812575 29.5936891,15.063789 C34.4216439,18.7263562 36.7081807,20 40,20 C41.1045695,20 42,19.1045695 42,18 C42,16.8954305 41.1045695,16 40,16 C37.9337712,16 36.0986396,14.9777974 32.011227,11.8770179 C31.6358269,11.5922331 31.5189458,11.5036659 31.3332441,11.3635351 C27.5737397,8.52660822 25.3739873,7.28738405 22.6379899,6.99208688 C18.9538127,6.59445233 15.5799484,8.47367246 12.3885096,12.8154753 C11.7343147,13.7054768 11.9254737,14.9572954 12.8154753,15.6114904 C13.7054768,16.2656853 14.9572954,16.0745263 15.6114904,15.1845247 Z" id="angry_Eyebrow" fill="#000000" fill-rule="nonzero" />
        <path d="M73.6114904,15.1845247 C77.8515017,9.41618792 80.4892046,9.70087612 86.9238518,14.5564693 C87.1057771,14.6937504 87.2212592,14.7812575 87.5936891,15.063789 C92.4216439,18.7263562 94.7081807,20 98,20 C99.1045695,20 100,19.1045695 100,18 C100,16.8954305 99.1045695,16 98,16 C95.9337712,16 94.0986396,14.9777974 90.011227,11.8770179 C89.6358269,11.5922331 89.5189458,11.5036659 89.3332441,11.3635351 C85.5737397,8.52660822 83.3739873,7.28738405 80.6379899,6.99208688 C76.9538127,6.59445233 73.5799484,8.47367246 70.3885096,12.8154753 C69.7343147,13.7054768 69.9254737,14.9572954 70.8154753,15.6114904 C71.7054768,16.2656853 72.9572954,16.0745263 73.6114904,15.1845247 Z" id="angry_Eyebrow" fill="#000000" fill-rule="nonzero" transform="translate(84.999934, 13.470064) scale(-1, 1) translate(-84.999934, -13.470064) " />
    </g>
</g>
        </g>
        <g id="transparent_Top">
            
        <defs>
        <path d="M56.6830963,168.772 L56.7107473,168.709458 C56.416717,169.539043 55.6388355,169.398111 55.3468697,170.07271 C55.3356677,170.098476 54.6931475,172.74417 54.7822568,172.609485 C54.0114437,173.77676 53.0103456,173.688921 51.9872076,174.195261 C50.5714284,174.896017 49.4285338,176.192512 47.7210266,176.087887 C47.3835007,176.067196 45.8972683,175.647914 45.7732734,175.678365 C45.2188422,174.627817 44.712395,174.701211 44.2542196,175.898937 C43.9803807,176.413865 43.7062927,176.928403 43.4326768,177.443722 C42.7562908,178.242857 43.008912,179.689263 41.3837473,179.20908 C37.0221866,177.920783 44.1404008,170.681333 46.6413081,170.561482 C45.222862,167.210738 44.0760798,165.639406 40.9122645,164.344472 C38.6803216,163.431343 35.8579788,163.072962 34.3203529,160.740363 C33.4406255,159.407952 33.1549566,158.211397 33.7876434,156.661927 C34.3317238,155.329905 36.8900419,154.785698 37.0806939,153.833919 C37.301235,152.734182 32.6420388,149.851129 31.6318019,148.569078 C29.604919,146.000291 29.2527527,142.493 25.7496614,142.923213 C22.7169752,143.295258 22.5082405,147.54781 20.3316507,148.295803 C13.6337844,150.600652 21.2344349,140.573248 23.098365,138.949431 L23.1440963,138.91 L23.0903283,138.926748 C20.5600386,139.66429 14.3680056,141.038369 13.0786076,137.500234 L13.0097195,137.290621 C11.9114372,133.569004 14.8906605,135.386674 16.2480678,135.542832 C18.8477815,135.842653 20.9696368,135.690791 23.5253695,134.93577 C21.328009,133.54519 16.5600021,129.760719 17.6048295,126.674272 C19.1297602,122.18397 22.0492883,127.906352 23.2377959,129.136091 C23.9404919,126.650458 25.9286815,125.412912 27.9404633,124.415457 C24.4247131,124.380712 21.0634173,123.177911 18.2658233,120.739516 C14.7956022,122.001266 11.5636759,120.776994 8.31806645,119.133048 C7.1521321,118.543555 4.82030298,117.777604 4.28187338,116.365942 C3.50714906,114.33785 4.86832034,113.256461 6.48191847,113.343909 C9.44069672,113.504361 12.7691062,118.433464 16.0678004,117.11862 C16.5976214,116.907417 16.4875948,115.464915 17.3157029,115.190078 C17.8260425,115.020647 18.5290809,115.331791 18.9332619,115.176024 C19.4893606,114.962089 19.4216552,115.995069 20.0353361,115.585546 C18.3720966,114.086046 16.6502186,113.127241 15.2570206,111.263504 C14.5506213,110.319534 14.1501828,108.989074 13.4385893,108.120059 C12.8005957,107.342006 11.5823428,106.981673 11.003339,106.125931 C9.16499332,103.411918 10.2619363,102.05257 13.2017458,102.613565 C13.8353612,102.734196 16.8931801,103.937778 17.3124291,104.492136 C19.1191629,101.97332 21.8129983,98.7732678 20.3954288,95.1781378 C20.0019971,94.1826354 18.1406712,92.8638875 17.4378821,91.9242113 C16.6409799,90.859219 16.1532654,89.4217916 15.3182307,88.4286316 C14.198865,87.0989527 12.4468385,86.1721595 10.6783285,86.1030599 C6.99233616,85.9593953 6.54565844,89.3249741 4.0949367,91.063785 C2.03522104,92.5273687 0.433581882,91.7946008 1.19123199,88.9213077 C1.809527,86.5809011 5.12707484,84.0898028 7.09694168,83.2707581 C9.76564295,82.1620417 12.8451619,82.9775728 15.2071591,83.5889284 C16.5566308,83.9387206 16.830792,83.3870952 18.2972545,84.4567723 C19.8941915,85.6220957 19.4819334,86.7425238 21.8496116,87.4998864 C20.5363542,82.427509 17.8734551,80.3759933 13.6493116,78.5079623 C12.4125819,77.9610216 7.67255627,75.2239756 11.1123314,73.8095815 C11.9860935,73.4504198 16.4523462,75.5265303 17.3583008,75.9707976 C16.6185854,74.4088349 15.0865685,71.7213688 15.9842104,70.148475 C17.308498,67.8307112 19.2330959,69.6940575 19.730271,71.5921487 C19.9981829,68.0411331 17.8464603,62.9714884 13.763287,62.7450604 C11.4834592,62.6185731 9.14262534,67.628878 7.16521769,64.996067 C3.36588279,59.9510171 18.1321771,57.1944514 21.5613192,60.4944442 C21.943774,57.4376663 23.7571524,54.1197154 22.3890054,51.3693961 C20.9020846,48.3856217 19.1118632,47.2226407 18.6111593,43.6353185 C18.3438318,41.7216116 18.7294809,35.5639414 22.017351,38.8436337 C23.1404237,39.9656235 22.7491426,42.3411654 23.8253733,43.8305151 C24.378271,44.5964663 25.4350389,45.6056325 26.2928172,45.9077967 C26.8597232,40.8604044 25.7628153,35.687696 23.3441752,31.4035222 C22.4173261,29.7638712 19.6293173,21.8322547 24.3487748,24.0297774 C25.8867201,24.7465391 25.4417603,27.8938883 26.6642795,29.0186108 C27.3301947,29.6315279 33.9115906,32.848367 34.9351609,32.1593232 C35.6651905,31.6682087 37.6814572,26.1886512 38.2998862,25.2263323 C39.0417626,24.0719399 42.4186453,18.1910583 43.6123112,22.3561622 C44.2482173,24.5790605 41.0431153,26.9417195 41.8428337,29.7357629 C43.310101,28.5232019 45.1988562,27.6534061 46.1779169,25.8763368 C46.7758614,24.7926055 47.2109167,18.4409099 50.1948883,21.4906608 C50.6468605,18.7543956 50.3931233,16.0052474 50.0116201,13.3177814 C49.6590375,10.8387852 47.8009276,3.86128948 51.3078111,2.86461591 C54.8879763,1.84842269 53.781581,6.23526987 53.6920659,8.39570525 C53.5723002,11.2974971 54.7243438,16.0478003 57.1484939,17.9212967 C58.9543722,19.318904 58.3962141,19.1568908 59.9693808,17.0979577 C61.2224184,15.460649 62.1474037,13.4950198 62.9428241,11.5742858 C63.4388415,10.377731 63.8604755,9.23622158 63.9388761,7.95573223 C64.0256621,6.54407081 62.5963925,4.71468878 63.8882057,3.47753307 C68.4061862,-0.841776108 67.3001674,13.2963097 66.8533479,14.7153886 L67.1277802,14.3696025 C69.5621201,11.3036027 72.2796963,8.00664659 76.3331882,10.4628367 C76.9137424,7.69455926 76.4475113,-0.492764683 81.1879964,0.0233349851 C85.0314735,0.441445987 81.4218191,3.79726501 80.7256589,5.08595261 C79.876509,6.65923677 80.3338947,8.84621888 80.0771587,10.6065013 C83.364323,9.74958849 82.7941498,9.19327834 83.5854252,6.15758165 C83.8958015,4.9680539 84.7804466,2.10647253 86.0261697,1.61691959 C90.9097688,-0.301081675 87.8388134,6.00571874 87.4245062,7.76092608 C90.1353523,7.6410754 93.1402627,11.9174413 95.6691727,9.75271164 C97.031157,8.58855944 96.1010516,5.40060944 98.2500992,4.75060494 C99.9590183,4.23411488 100.663044,6.16656069 100.304676,7.66059506 C100.877713,7.60828238 102.885296,7.799575 103.355021,8.20948774 C104.312204,9.04610014 103.680648,10.8501066 104.381766,11.3369268 C106.402711,12.7415612 112.701004,8.10642397 114.282756,6.69671451 C115.532497,5.5840942 120.275192,-1.30204956 121.855094,2.8653967 C122.399415,4.30399525 119.848493,8.69357518 119.467423,10.1091405 C118.919891,12.1450405 118.138071,14.7079712 118.647561,16.7751026 C119.599928,15.6019713 121.293397,13.448563 121.988704,12.004499 C122.708203,10.5112454 122.329503,8.38945896 123.682122,7.11833905 C129.125524,2.01512054 126.706116,13.3220757 126.762486,14.9351799 C128.507084,14.2133431 130.456777,14.0782671 131.680174,15.6730229 C132.817064,17.1557359 131.646423,18.2285361 132.745372,19.2693241 C135.152043,16.9117402 129.921887,7.49233563 136.714154,7.77771298 C138.176249,7.83939509 139.521287,8.64672801 138.699701,10.5498943 C138.200031,11.7078002 137.073558,10.9742516 136.520803,12.0087933 C135.29832,14.3004008 137.763741,20.0192692 137.555716,22.7360147 C140.091904,22.4795265 140.175628,20.6196938 140.789049,18.7364375 C141.471891,16.6443209 142.95772,13.6238495 145.2945,16.2125461 C146.663012,17.7307849 145.315305,22.3600662 145.407913,24.5603216 C145.468923,26.0067281 145.57044,27.4527441 145.655991,28.8975889 C146.966535,28.2315783 148.695236,24.958913 150.755804,27.2056252 C151.717562,28.2546115 149.878539,32.2772219 150.985494,32.7702884 C151.481865,31.2813291 151.173373,26.8456828 152.06891,25.5866651 C154.318536,22.4287754 155.459059,27.1091981 155.331481,28.8503513 C155.102123,31.9875502 151.880955,36.8237399 156.546177,36.7183337 C160.604934,36.6265913 158.858129,32.1374612 159.703512,29.2516754 C160.195301,27.5757179 161.389659,24.7192116 163.546466,26.0840259 C165.31836,27.2060156 164.114962,28.45176 163.920134,29.8505384 C163.549887,32.5063826 163.413049,35.0454993 163.186097,37.7423348 C166.575417,35.355081 166.819045,40.5238856 166.669221,42.5269926 C166.529338,44.4051737 164.602506,51.1718572 166.081721,51.4935411 C166.456472,51.5751333 167.767833,50.323533 168.576831,50.3754553 C170.198398,50.4792998 170.861461,51.5731813 170.637754,53.3037939 C170.392027,55.207741 165.620359,59.6336275 167.354151,61.6554733 C167.481496,61.8046035 170.125896,61.5734908 170.302082,61.4622287 C171.519076,60.6935447 172.07606,58.1758997 172.440664,56.6162793 C172.918922,54.5725714 171.724815,48.2755308 175.118415,49.6165311 C177.605245,50.5995409 176.170088,56.1298495 175.629329,58.1778516 C174.740084,61.5524095 171.737261,64.1977131 172.525841,67.608968 C172.993447,66.1289878 174.690293,61.8139729 176.465593,64.9570277 C177.190719,66.2433729 175.978715,68.6739603 175.522623,70.0032488 C174.992708,71.5499862 172.923099,74.6707886 172.991008,76.2507095 C173.095791,78.6883239 173.199533,76.9046179 175.238294,78.4419859 C175.729666,76.7176196 175.988608,73.3450137 176.919931,72.0153348 C178.355898,69.967723 180.162561,70.057123 180.708517,72.5829664 C181.079608,74.3018671 178.635221,81.0771393 177.758771,82.7050785 C178.870779,81.7013778 182.244616,77.9719526 183.551013,80.6153042 C184.275583,82.0835727 183.373237,82.3806618 182.804663,83.2477249 C181.122531,85.8176826 175.17003,88.2904324 175.591269,91.6482034 C177.383839,90.9736042 181.203002,90.8666365 180.67198,94.0499017 C180.211017,96.8166176 176.930155,95.9749301 175.237767,96.9915137 C177.112955,96.5335826 181.952817,95.619282 182.515816,98.6011044 C183.230278,102.394554 177.79234,101.136708 175.950562,101.597371 C177.22313,104.1482 179.717195,106.166532 182.208315,107.158911 C183.193837,107.552037 185.137049,107.742159 185.67495,108.813788 C187.90383,113.244749 177.994834,111.484467 176.467109,113.140514 C177.396605,114.146948 179.037272,115.426656 177.742225,117.034295 C181.381252,118.556438 182.806036,121.517569 183.364612,125.543693 C183.618438,127.375418 183.243976,134.318949 180.207508,130.116368 C179.400215,129.001405 179.612624,126.110544 179.140297,124.762907 C178.501504,122.944066 176.178665,119.993084 173.890225,120.718825 C170.89879,121.667871 178.111059,127.812658 177.404406,130.612948 C176.063377,135.941423 173.298856,129.431618 172.206,129.014288 C172.731819,131.833707 169.622984,135.99803 170.567003,137.868403 C170.962455,138.651922 172.851533,139.287873 173.478827,140.295477 C174.059985,141.228907 175.050449,143.548232 174.928748,144.633135 C174.419542,149.169502 172.103838,145.707106 171.222117,143.992109 C170.13091,141.873446 170.263178,141.804346 167.966582,141.555666 C166.462257,141.392482 163.413669,141.041128 162.554381,142.176001 C162.683813,142.004354 161.891083,147.181871 161.855079,147.132842 L161.859064,147.240034 C161.960642,148.14665 163.419895,148.63721 162.95061,150.127527 C162.495834,151.571982 160.792178,152.307873 159.706723,151.14333 C159.340419,153.270972 159.678802,152.06661 161.181077,153.276828 C161.993578,153.931908 164.07308,154.203231 163.10825,156.053694 C162.056295,158.072417 158.584855,155.129634 157.398137,155.187802 C155.254913,155.292428 154.108583,157.895569 152.848916,159.689035 C151.308063,161.884996 149.356221,162.768846 147.651918,164.434653 C148.428013,164.951924 159.522305,167.44029 155.089787,169.887664 C153.172487,170.947581 147.387236,168.73171 145.642135,167.571852 C145.563369,171.165421 146.500469,171.843533 148.024863,174.616105 C148.803043,176.034013 150.534993,182 147.428222,182 C145.247,182 146.012313,178.819858 145.478876,177.405464 C145.140008,176.50834 144.414366,176.040649 143.956619,175.261034 C142.191903,172.260864 142.862922,169.494538 142.311896,166.167999 C142.166089,165.289848 141.96453,164.47122 141.755564,163.663497 C147.992529,155.385796 151.985725,145.321469 152.83162,134.375034 C157.488357,132.807518 160.867612,128.459787 160.9962,123.304975 L161,123 L161,110 C161,104.964745 157.898745,100.653827 153.502126,98.8731363 C152.970496,99.2477013 152.23272,98.8741774 152,98.0318338 C152.46274,96.526107 148.704055,70.1780326 139,63.1563695 C135.42084,60.7446886 116.408606,60.5635409 97.3126144,60.5504522 L96.7334726,60.5501156 C77.6219937,60.5410694 58.5820398,60.7427484 55,63.1563695 C45.2959449,70.1780326 41.5372601,96.526107 42,98.0318338 C41.7672256,98.8743746 41.0291589,99.2478761 40.4975878,98.8743384 C36.190098,100.618022 33.1261238,104.791345 33.0037999,109.695025 L33,110 L33,123 C33,128.288115 36.4205527,132.777317 41.1698127,134.37576 C42.1997823,147.718972 47.9073425,159.751229 56.6545296,168.836196 L56.6830963,168.772 Z M23.1596563,138.89736 L23.1440963,138.91 L23.232183,138.884943 C23.3239632,138.857597 23.4100831,138.83135 23.4900552,138.806518 C23.4992034,138.674811 23.3760267,138.718592 23.1596563,138.89736 Z" id="short_dreads_2_path-1" />
    </defs>
    <g id="short_dreads_2_Top/Short-Hair/Dreads-02" stroke="none" stroke-width="1" fill="none" fill-rule="evenodd" transform="translate(-1 0)">
        <g id="short_dreads_2_Hair" transform="translate(36.000000, 0.000000)">
            <mask id="short_dreads_2_mask-2" fill="white">
                <use xlink:href="#short_dreads_2_path-1" />
            </mask>
            <use id="short_dreads_2_Dreads" fill="#2E3257" xlink:href="#short_dreads_2_path-1" />
            <g id="short_dreads_2_Hair-Color" mask="url(#short_dreads_2_mask-2)" fill="#724133">
                <g transform="translate(-35.000000, 0.000000)" id="short_dreads_2_Color">
                    <rect x="0" y="0" width="264" height="280" />
                </g>
            </g>
        </g>
        <g id="short_dreads_2_Facial-Hair" transform="translate(49.000000, 72.000000)"><defs>
        <path d="M101.428403,98.1685688 C98.9148372,100.462621 96.23722,101.494309 92.8529444,100.772863 C92.2705777,100.648833 89.8963391,96.2345713 83.9998344,96.2345713 C78.1033297,96.2345713 75.7294253,100.648833 75.1467245,100.772863 C71.7624488,101.494309 69.0848316,100.462621 66.5712661,98.1685688 C61.8461772,93.855604 57.9166219,87.9081858 60.2778299,81.4191814 C61.5083844,78.0369425 63.5097479,74.3237342 67.1506257,73.2459109 C71.0384163,72.0955419 76.4968931,73.2439051 80.4147542,72.4582708 C81.6840664,72.2035248 83.0706538,71.7508657 83.9998344,71 C84.929015,71.7508657 86.3159365,72.2035248 87.5845805,72.4582708 C91.5027758,73.2439051 96.9612525,72.0955419 100.849043,73.2459109 C104.489921,74.3237342 106.491284,78.0369425 107.722173,81.4191814 C110.083381,87.9081858 106.153826,93.855604 101.428403,98.1685688 M140.081033,26 C136.670693,34.4002532 137.987774,44.8580348 137.356666,53.6758724 C136.844038,60.8431942 135.33712,71.5857526 128.972858,76.214531 C125.718361,78.5816138 119.79436,82.5598986 115.54187,81.4501943 C112.614539,80.6863848 112.302182,72.290096 108.455284,69.1469801 C104.09172,65.5823153 98.6429854,64.0160432 93.1491481,64.2578722 C90.7785381,64.3622683 85.9841367,64.3374908 83.9999331,66.1604584 C82.0157295,64.3374908 77.2216647,64.3622683 74.8510547,64.2578722 C69.3568808,64.0160432 63.9081467,65.5823153 59.5445817,69.1469801 C55.6976839,72.290096 55.3856641,80.6863848 52.4583326,81.4501943 C48.2058427,82.5598986 42.2818421,78.5816138 39.0270077,76.214531 C32.6624096,71.5857526 31.1561652,60.8431942 30.642864,53.6758724 C30.0120926,44.8580348 31.3291729,34.4002532 27.9188335,26 C26.2597768,26 27.3540339,42.1288693 27.3540339,42.1288693 L27.3540339,62.4851205 C27.3856735,77.7732046 36.935095,100.655445 58.1080116,109.393004 C63.2861266,111.52982 75.0153111,115 83.9999331,115 C92.9845551,115 104.71374,111.860188 109.891855,109.723371 C131.064771,100.985813 140.614193,77.7732046 140.646169,62.4851205 L140.646169,42.1288693 C140.646169,42.1288693 141.740089,26 140.081033,26" id="beard_light_path-1" />
    </defs>
    <g id="beard_light_Facial-Hair/Beard-Light" stroke="none" stroke-width="1" fill="none" fill-rule="evenodd">
        <mask id="beard_light_mask-2" fill="white">
            <use xlink:href="#beard_light_path-1" />
        </mask>
        <use id="beard_light_Lite-Beard" fill="#331B0C" xlink:href="#beard_light_path-1" />
        <g id="beard_light_Facial-Hair-Color" mask="url(#beard_light_mask-2)" fill="#724133">
            <rect id="beard_light_Color" x="0" y="0" width="168" height="152" />
        </g>
    </g>
</g>
        <g id="short_dreads_2_Accessory" transform="translate(62.000000, 85.000000)"><g id="sunglasses_2_Accesories/Sunglasses" stroke="none" stroke-width="1" fill="none" fill-rule="evenodd"><path d="M88.420644,10.0315667 L111.711555,10.4879 L112.418885,10.5173904 C116.716907,10.7306495 119.842183,11.5608236 122.25907,15.0052776 L123.270648,15.0612226 C125.98538,15.2235685 128.815928,15.5199023 131.241565,16.6393667 C134.626236,18.2013667 135.149293,21.7387 130.882414,22.2260333 C128.960673,22.4457 127.036739,22.0827 125.144457,21.7450333 L124.805075,21.6912775 C125.908933,31.1522104 118.598088,42.5597165 110.577413,46.0372333 C99.6003746,50.7965667 87.3375086,45.5292333 81.5337832,36.0035667 C78.9077874,31.6933472 77.3913647,25.4882292 77.0679314,20.1428905 C76.2485064,19.7454964 75.4674464,19.2201465 74.7189648,18.8553 C72.7120473,17.8773 69.3809643,17.7566333 67.2126933,18.8553 C66.4674989,19.2329059 65.6844252,19.7618811 64.860867,20.1592462 C64.5358863,25.500774 63.019749,31.6993553 60.3955746,36.0058333 C54.5921826,45.5318333 42.3293166,50.7991667 31.352278,46.0395 C23.3308758,42.5619527 16.0191895,31.1527353 17.1248105,21.6913039 L16.7871634,21.7450333 L15.9116787,21.9004644 C14.302955,22.1806014 12.6752968,22.4119051 11.0492092,22.2260333 C6.7823325,21.7387 7.30538922,18.2013667 10.6900582,16.6393667 C13.4186633,15.3800781 16.6596437,15.1623841 19.6724863,15.0063698 C22.088769,11.5628588 25.2136434,10.7331687 29.5106444,10.5199823 L30.2178029,10.4905 L54.367281,10.0138705 C59.1910659,9.92297948 63.3004405,10.2797475 64.5415862,14.6398662 C66.6301126,13.8258114 69.0470363,13.3846333 70.8914864,13.3846333 C72.750063,13.3846333 75.2403142,13.8326884 77.3827667,14.6590316 C78.6884926,10.0210681 83.2241204,9.89209727 88.420644,10.0315667 Z M54.6792964,17.2841303 L53.1743719,17.2627916 C48.2545196,17.2171575 28.0180517,17.1530306 25.6158944,19.1491667 C23.2262624,21.1345 24.5340925,27.0731667 25.1565036,29.5561667 C26.2203032,33.7998333 28.6396056,38.0601667 32.1723805,40.7525 C35.160879,43.03 38.9870799,43.1875781 42.598636,42.8394006 L42.8137377,42.8154434 C42.5755438,42.8270989 44.279595,42.5883296 44.6288896,42.5222918 L44.6612747,42.5158333 C45.7297416,42.2861667 46.7985419,41.9835 47.8106684,41.5641667 C49.7165732,40.7748333 51.5084639,39.6188333 52.9776475,38.1685 C55.7666627,35.4145 56.9648125,31.7228333 57.6852359,27.9548333 C58.1572949,25.4871667 58.5553446,22.6705 58.1459601,20.1651667 C57.7671628,17.8464167 56.7581109,17.3549128 54.6792964,17.2841303 L54.6792964,17.2841303 Z M90.2432286,17.2498018 L87.6805515,17.2725667 C85.3089217,17.2952333 84.1877816,17.6892333 83.7837311,20.1625667 C83.3743466,22.6679 83.7723963,25.4845667 84.244122,27.9522333 C84.9648787,31.7202333 86.1630285,35.4119 88.9520437,38.1659 C90.4212273,39.6162333 92.213118,40.7722333 94.1190228,41.5619 C94.9624616,41.9110667 95.8452571,42.1794463 96.7344192,42.392116 L97.2684165,42.5132333 C97.5131654,42.5657289 99.2030063,42.8028032 99.1366495,42.8130415 L98.9855976,42.8019336 C102.697275,43.192883 106.673335,43.1001622 109.757311,40.7499 C113.290086,38.0575667 115.709388,33.7975667 116.773188,29.5539 L116.961141,28.7771479 C117.606864,25.9999642 118.480835,20.9475202 116.313797,19.1465667 C114.107164,17.3129068 96.8513244,17.2177679 90.2432286,17.2498018 L90.2432286,17.2498018 Z" id="sunglasses_2_Shape" fill-opacity=".16" fill="#000" /><g id="sunglasses_2_Sunglasses" transform="translate(8.000000, 8.000000)"><path d="M47.0104611,6.27728008 C49.5212682,6.30134922 50.7082016,6.72633117 51.1359635,9.39189846 C51.5693724,12.0919529 51.1479634,15.1275382 50.648202,17.7869984 C49.8855011,21.8478573 48.6170388,25.8264499 45.6643523,28.794498 C44.1089507,30.3575551 42.2119044,31.6034024 40.1941529,32.4540848 C39.1226305,32.9060098 37.9911085,33.2322006 36.8599395,33.4797175 C36.5292357,33.5519249 33.7060778,33.9478084 35.4375958,33.7466335 C31.3967988,34.2161613 27.0129452,34.1974808 23.6381438,31.5793333 C19.8980507,28.6777448 17.3367734,24.0862872 16.2105455,19.5127916 C15.5516086,16.8368063 14.1670294,10.4365709 16.6968952,8.29693227 C19.5948762,5.84547255 47.0104611,6.27728008 47.0104611,6.27728008 L47.0104611,6.27728008 Z" id="sunglasses_2_shades" fill-opacity=".7" fill="#150662" /><path d="M78.9192315,6.27468008 C76.4084239,6.29910846 75.2214902,6.72373117 74.7937283,9.38929846 C74.3603192,12.0893529 74.7817283,15.1249382 75.2811369,17.7843984 C76.0441909,21.8452573 77.3126534,25.8238499 80.2653406,28.791898 C81.8207425,30.3549551 83.7177893,31.6008024 85.7355412,32.4518441 C86.8070638,32.9034098 87.938586,33.2296006 89.0697553,33.4771175 C89.4004591,33.5493249 92.2232647,33.9455676 90.4920992,33.7440335 C94.5328971,34.2135613 98.9167517,34.1948808 102.291554,31.5767333 C106.031648,28.6751448 108.592926,24.0840464 109.719154,19.5105508 C110.378091,16.8342063 111.762317,10.4343302 109.232804,8.29433227 C106.334822,5.84287255 78.9192315,6.27468008 78.9192315,6.27468008 L78.9192315,6.27468008 Z" id="sunglasses_2_shades" fill-opacity=".7" fill="#150662" /><g id="sunglasses_2_Glasses" fill="#252C2F"><path d="M46.2491397,7.27516667 C48.6207695,7.2975 49.7419096,7.69183333 50.1459601,10.1651667 C50.5553446,12.6705 50.1572949,15.4871667 49.6852359,17.9548333 C48.9648125,21.7228333 47.7666627,25.4145 44.9776475,28.1685 C43.5084639,29.6188333 41.7165732,30.7748333 39.8106684,31.5641667 C38.7985419,31.9835 37.7297416,32.2861667 36.6612747,32.5158333 C36.3489024,32.5828333 33.6822357,32.9501667 35.3177735,32.7635 C31.5009631,33.1991667 27.3601122,33.1818333 24.1723805,30.7525 C20.6396056,28.0601667 18.2203032,23.7998333 17.1565036,19.5561667 C16.5340925,17.0731667 15.2262624,11.1345 17.6158944,9.14916667 C20.3532365,6.8745 46.2491397,7.27516667 46.2491397,7.27516667 L46.2491397,7.27516667 Z M22.2178029,0.4905 C16.7774562,0.677833333 13.1466691,1.63383333 10.4633337,7.06916667 C5.54571911,17.0301667 13.9627711,31.9688333 23.352278,36.0395 C34.3293166,40.7991667 46.5921826,35.5318333 52.3955746,26.0058333 C55.4689587,20.9621667 57.0224862,13.3231667 56.9224737,7.50383333 C56.7951245,0.0765 51.6071427,-0.1295 45.5090472,0.0338333333 L22.2178029,0.4905 Z" id="sunglasses_2_Frame" /><path d="M79.6805515,7.27256667 C77.3089217,7.29523333 76.1877816,7.68923333 75.7837311,10.1625667 C75.3743466,12.6679 75.7723963,15.4845667 76.244122,17.9522333 C76.9648787,21.7202333 78.1630285,25.4119 80.9520437,28.1659 C82.4212273,29.6162333 84.213118,30.7722333 86.1190228,31.5619 C87.1311493,31.9809 88.1999496,32.2835667 89.2684165,32.5132333 C89.5807888,32.5802333 92.2471221,32.9479 90.6119177,32.7609 C94.4287281,33.1965667 98.569579,33.1792333 101.757311,30.7499 C105.290086,28.0575667 107.709388,23.7975667 108.773188,19.5539 C109.395599,17.0705667 110.703095,11.1322333 108.313797,9.14656667 C105.576455,6.8719 79.6805515,7.27256667 79.6805515,7.27256667 L79.6805515,7.27256667 Z M103.711555,0.4879 C109.152235,0.675233333 112.783022,1.63156667 115.466357,7.06656667 C120.383639,17.0275667 111.96692,31.9662333 102.577413,36.0372333 C91.6003746,40.7965667 79.3375086,35.5292333 73.5337832,26.0035667 C70.4607325,20.9595667 68.907205,13.3205667 69.0068841,7.50123333 C69.1345667,0.0739 74.3225485,-0.1321 80.420644,0.0315666667 L103.711555,0.4879 Z" id="sunglasses_2_Frame" /><path d="M13.1969483,4.9267 C9.78501392,5.11836667 5.88606327,5.16436667 2.69005822,6.63936667 C-0.69461078,8.20136667 -1.2176675,11.7387 3.04920921,12.2260333 C4.97094906,12.4457 6.89488267,12.0827 8.78716336,11.7450333 C10.336903,11.4683667 12.4419791,11.5580333 13.9064752,10.9657 C16.6355213,9.86236667 16.4603333,4.74003333 13.1969483,4.9267" id="sunglasses_2_Frame" /><path d="M112.73467,4.9267 C116.146606,5.11836667 120.045559,5.16436667 123.241565,6.63936667 C126.626236,8.20136667 127.149293,11.7387 122.882414,12.2260333 C120.960673,12.4457 119.036739,12.0827 117.144457,11.7450333 C115.594717,11.4683667 113.489639,11.5580333 112.025143,10.9657 C109.295782,9.86236667 109.471283,4.74003333 112.73467,4.9267" id="sunglasses_2_Frame" /><path d="M73.1094302,7.01263333 C71.1631869,4.71263333 66.0912197,3.38463333 62.8914864,3.38463333 C59.6914198,3.38463333 54.7681378,4.71263333 52.8222279,7.01263333 C51.8407719,8.1723 51.8074344,9.72396667 53.5083137,10.4509667 C55.6262451,11.3566333 57.5174814,9.7143 59.2126933,8.8553 C61.3809643,7.75663333 64.7120473,7.8773 66.7189648,8.8553 C68.4271783,9.68796667 70.3050797,11.3566333 72.4233444,10.4509667 C74.1242237,9.72396667 74.0908862,8.1723 73.1094302,7.01263333" id="sunglasses_2_Frame" /></g></g></g></g>
    </g>
</g>
    </g>
</svg>