<svg xmlns="http://www.w3.org/2000/svg" xmlns:dc="http://purl.org/dc/elements/1.1/" xmlns:ns2="http://design.blush" xmlns:ns4="http://creativecommons.org/ns#" xmlns:rdf="http://www.w3.org/1999/02/22-rdf-syntax-ns#" xmlns:xlink="http://www.w3.org/1999/xlink" width="264px" height="280px" viewBox="0 0 264 280" version="1.1">
    <title id="transparent_Title">Avataaar/Default</title>
    <desc>Created with python_avatars</desc>
    <defs>
        <path d="M100,0 C130.927946,-5.68137151e-15 156,25.072054 156,56 L156.000809,62.1660527 C161.675838,63.1185422 166,68.05429 166,74 L166,88 C166,94.0524166 161.519235,99.0582945 155.693975,99.8813638 C153.627928,119.686472 141.237929,136.421678 124.001014,144.610469 L124,163 L128,163 C167.764502,163 200,195.235498 200,235 L200,244 L0,244 L0,235 C-4.86974701e-15,195.235498 32.235498,163 72,163 L76,163 L75.9999836,144.610943 C58.7625487,136.422324 46.3721119,119.686854 44.3051107,99.8809698 C38.480765,99.0582945 34,94.0524166 34,88 L34,74 C34,68.053942 38.3246685,63.1179645 44.0001873,62.1658855 L44,56 C44,25.072054 69.072054,5.68137151e-15 100,0 Z" id="transparent_path-1" />
        <path d="M83,36.3476251 C83,52.6289957 105.161905,65.8276544 132.5,65.8276544 C159.838095,65.8276544 182,52.6289957 182,36.3476251 C182,34.9853134 181.844841,33.6445843 181.544472,32.3313638 C210.784239,41.4879251 232,68.792221 232,101.051724 L232,110 L32,110 L32,101.051724 C32,68.3970853 53.7386736,40.8197864 83.5337207,32.0021267 C83.1821692,33.4207025 83,34.871494 83,36.3476251 Z" id="transparent_path-3" />
        <rect id="transparent_path-5" x="0" y="0" width="264" height="280" />
        <path d="M74,0 C114.869071,0 148,33.1309285 148,74 L148,84.1482318 L148,197.608051 C135.525121,187.236892 119.490913,181 102,181 L102,181 L98,181 L98,162.610951 C115.530782,154.282984 128.048193,137.114792 129.791419,116.867187 C135.569129,116.002364 140,111.018625 140,105 L140,105 L140,92 C140,87.3536213 137.359271,83.3240177 133.496777,81.3301515 C132.723933,81.0500337 131.951808,80.748163 131.180891,80.4262497 C130.794819,80.3202581 130.400778,80.2331546 130,80.1659169 L130,80.1659169 L130.000458,79.9172528 C117.224481,74.2339715 104.877985,63.0706967 96.1104311,47.8848473 C93.1752556,42.8009742 90.8310687,37.5951441 89.0661426,32.3970356 C80.4313947,42.9409152 67.7445474,53.6023901 52.3415164,62.4953343 C42.777598,68.0170651 33.1467898,72.2910056 24,75.2659587 L24.0003852,137.246608 C29.6019576,148.318362 38.7728825,157.277529 50,162.610951 L50,162.610951 L50,181 L46,181 C38.3273639,181 30.9350359,182.200142 24.0004995,184.422941 L24,230 C24,244.105888 13.5691766,255.775526 0,257.716445 L0,74 C0,33.1309285 33.1309285,0 74,0 Z" id="transparent_path-7" />
    </defs>
    <g id="transparent_Avataaar/Default" stroke="none" stroke-width="1" fill="none" fill-rule="evenodd">
        <g id="transparent_Body" transform="translate(32.000000, 36.000000)">
            <mask id="transparent_mask-2" fill="white">
                <use xlink:href="#transparent_path-1" />
            </mask>
            <use fill="#D0C6AC" xlink:href="#transparent_path-1" />
            <g id="transparent_Skin-Color" mask="url(#transparent_mask-2)" fill="#EDB98A">
                <g transform="translate(-32.000000, 0.000000)" id="transparent_Color">
                    <rect x="0" y="0" width="264" height="244" />
                </g>
            </g>
            <path d="M44,94 C44,124.927946 69.072054,150 100,150 C130.927946,150 156,124.927946 156,94 L156,94 L156,102 C156,132.927946 130.927946,158 100,158 C69.072054,158 44,132.927946 44,102 Z" id="transparent_Neck-Shadow" fill-opacity="0.100000001" fill="#000000" mask="url(#transparent_mask-2)" />
        </g>
        <g id="transparent_Clothing" transform="translate(0.000000, 170.000000)">
            
        <g id="bond_suit_Clothing/Bond Suit" stroke="none" stroke-width="1" fill="none" fill-rule="evenodd">
        <g id="bond_suit_Suit" transform="translate(31.500000, 28.600000)">
            <path d="M124.379699,3.0005061 L128.359699,3.0005061 C167.925874,3.0005061 199.999699,34.434727 199.999699,73.2118883 L199.999699,81.9883111 L0.9996985,81.9883111 L0.9996985,73.2118883 L1.0096485,72.050475 C1.6424685,33.8096507 33.4695335,3.0005061 72.6396985,3.0005061 L76.6196985,3.0005061 C76.6196985,3.0005061 76.4236835,15.1129447 100.491739,15.1129447 C124.559794,15.1129447 124.379699,3.0005061 124.379699,3.0005061" id="bond_suit_Fabric-Color" fill="#FFFFFF" ns2:color="Top-500" />
            <path d="M86.846271,30.4401 L100.520301,16.6691854 L114.194331,30.4401 L142.147401,2.28791707 C137.769621,1.45386829 133.258176,1.00040488 128.639196,1.00040488 L124.619196,1.00040488 C124.619196,1.00040488 124.801101,13.5728805 100.491156,13.5728805 C76.181211,13.5728805 76.380201,1.00040488 76.380201,1.00040488 L72.360201,1.00040488 C67.753281,1.00040488 63.252891,1.44981951 58.885161,2.27981951 L86.846271,30.4401 Z" id="bond_suit_Fill-7" fill="#FFF" />
            <path d="M128.639698,0.000506097561 L124.640803,0.000506097561 L124.640803,81.988311 L200.999698,81.988311 L200.999698,72.8785549 C200.999698,32.6286159 168.603523,0.000506097561 128.639698,0.000506097561" id="bond_suit_Fill-9" fill="#191919" />
            <path d="M76.380201,0.000506097561 L72.360201,0.000506097561 C32.796366,0.000506097561 0.649431,31.9797988 0.009246,71.6730305 L0.000201,72.8785549 L0.000201,81.988311 L76.380201,81.988311 L76.380201,0.000506097561 Z" id="bond_suit_Fill-12" fill="#191919" />
            <path d="M66.873906,0.206082927 L40.132866,43.4571805 L62.584566,56.6946683 L48.757776,75.9982415 L55.328466,81.9884122 L76.380201,81.9884122 L76.380201,0.000607317073 C76.380201,0.000607317073 73.264701,0.0431195122 66.873906,0.206082927" id="bond_suit_Fill-15" fill="#2B2B2B" />
            <path d="M134.28006,0.224909756 L160.887435,43.4577878 L138.435735,56.6942634 L152.26353,75.9978366 L145.69083,81.9880073 L124.6401,81.9869951 L124.6401,-0.000809756098 C124.6401,-0.000809756098 127.889265,0.0619463415 134.28006,0.224909756" id="bond_suit_Fill-18" fill="#2B2B2B" />
            <path d="M117.319471,4.55653649 L104.309494,9.42526147 C103.959547,8.06616124 102.826255,7.06466754 101.46774,7.06466754 L99.5726387,7.06466754 C98.2087401,7.06466754 97.0727562,8.07300071 96.7272951,9.43894041 L83.6805286,4.55653649 C81.6014805,3.86379597 79.5,5.55705312 79.5,7.92546359 L79.5,20.8755099 C79.5,23.2429433 81.6014805,24.9362005 83.6805286,24.24346 L96.7272951,19.3620331 C97.0727562,20.7269957 98.2087401,21.7353289 99.5726387,21.7353289 L101.46774,21.7353289 C102.826255,21.7353289 103.959547,20.7328581 104.308597,19.3757121 L117.319471,24.24346 C119.398519,24.9362005 121.5,23.2429433 121.5,20.8755099 L121.5,7.92546359 C121.5,5.55705312 119.398519,3.86379597 117.319471,4.55653649" id="bond_suit_Fill-1" fill="#191919" />
        </g>
    </g>
</g>
        <g id="transparent_Face" transform="translate(76.000000, 82.000000)" fill="#000000">
            <g id="transparent_Mouth" transform="translate(2.000000, 52.000000)">    
                
            <g id="eating_Mouth/Eating" stroke="none" stroke-width="1" fill="none" fill-rule="evenodd">
        <g id="eating_Om-Nom-Nom" opacity="0.599999964" transform="translate(28.000000, 6.000000)" fill="#000000" fill-opacity="0.599999964">
            <path d="M45.7064761,0 C42.3399588,1.95870633 40.0195381,5.49520667 40.0195381,9.67694348 C40.0195381,15.344608 45.4930527,20.2451296 51.8234083,20.2451296 C51.8823878,20.2451296 51.9412524,20.2447983 52,20.244138 C50.6423552,20.7317259 49.1600404,21 47.6077404,21 C42.2861196,21 37.787011,17.8470634 36.3137083,13.513833 C33.8402487,15.6694366 30.1376666,17.0394229 26,17.0394229 C21.8623334,17.0394229 18.1597513,15.6694366 15.6851623,13.5125989 C14.212989,17.8470634 9.71388039,21 4.39225962,21 C2.83995964,21 1.35764479,20.7317259 0,20.244138 C0.0587475828,20.2447983 0.11761218,20.2451296 0.176591694,20.2451296 C6.50694731,20.2451296 11.9804619,15.344608 11.9804619,9.67694348 C11.9804619,5.49520667 9.66004124,1.95870633 6.29352385,0 C11.7918498,0.797121661 16.0171848,4.99477485 16.1905909,10.1049337 C18.754121,11.8420922 22.2048056,12.9056086 26,12.9056086 C29.7951944,12.9056086 33.245879,11.8420922 35.8100516,10.1058522 C35.9828152,4.99477485 40.2081502,0.797121661 45.7064761,0 Z" id="eating_Delicious" />
        </g>
        <circle id="eating_Redish" fill-opacity="0.2" fill="#FF4646" cx="17" cy="15" r="9" />
        <circle id="eating_Redish" fill-opacity="0.2" fill="#FF4646" cx="91" cy="15" r="9" />
    </g>
</g>
            <g id="transparent_Nose" transform="translate(28.000000, 40.000000)" fill-opacity="0.16">
                
            <g id="default_Nose/Default" stroke="none" stroke-width="1" fill="none" fill-rule="evenodd" fill-opacity="0.16">
        <path d="M16,8 C16,12.418278 21.372583,16 28,16 L28,16 C34.627417,16 40,12.418278 40,8" id="default_Nose" fill="#000000" />
    </g>
</g>
            <g id="transparent_Eyes" transform="translate(0.000000, 8.000000)">
                
            <g id="eye_roll_Eyes/Eye-Roll-🙄" stroke="none" stroke-width="1" fill="none" fill-rule="evenodd">
        <circle id="eye_roll_Eyeball" fill="#FFFFFF" cx="30" cy="22" r="14" />
        <circle id="eye_roll_The-white-stuff" fill="#FFFFFF" cx="82" cy="22" r="14" />
        <circle id="eye_roll_Eye" fill-opacity="0.699999988" fill="#000000" cx="30" cy="14" r="6" />
        <circle id="eye_roll_Eye" fill-opacity="0.699999988" fill="#000000" cx="82" cy="14" r="6" />
    </g>
</g>
            <g id="transparent_Eyebrow" fill-opacity="0.599999964">
                
            <g id="up_down_Eyebrow/Outline/Up-Down" stroke="none" stroke-width="1" fill="none" fill-rule="evenodd" fill-opacity="0.599999964">
        <path d="M15.5914402,14.1619718 C20.0874642,7.83556966 29.6031809,4.65350252 39.3473715,7.79575991 C40.3986323,8.13476518 41.5256656,7.55736801 41.8646708,6.50610724 C42.2036761,5.45484647 41.6262789,4.32781316 40.5750182,3.98880789 C29.1665516,0.309863172 17.8358054,4.09887835 12.3309495,11.8448183 C11.6910852,12.7451779 11.9022584,13.9937761 12.8026181,14.6336404 C13.7029777,15.2735046 14.9515759,15.0623314 15.5914402,14.1619718 Z" id="up_down_Eyebrow" fill="#000000" fill-rule="nonzero" />
        <path d="M73.6376405,21.1577995 C77.5525501,15.6490895 88.2853148,12.56006 97.5304219,14.8304032 C98.6031199,15.0938282 99.6862617,14.4377829 99.9496867,13.3650849 C100.213112,12.2923868 99.5570664,11.2092451 98.4843684,10.9458201 C87.7477584,8.30920485 75.3194947,11.8862211 70.3771498,18.840646 C69.7372855,19.7410057 69.9484587,20.9896038 70.8488184,21.6294681 C71.749178,22.2693324 72.9977762,22.0581591 73.6376405,21.1577995 Z" id="up_down_Eyebrow" fill="#000000" fill-rule="nonzero" transform="translate(85.007549, 16.038421) scale(-1, 1) translate(-85.007549, -16.038421) " />
    </g>
</g>
        </g>
        <g id="transparent_Top">
            
        <metadata id="gladiator_helmet_metadata23">
        <rdf:RDF>
            <ns4:Work rdf:about="">
                <dc:format>image/svg+xml</dc:format>
                <dc:type rdf:resource="http://purl.org/dc/dcmitype/StillImage" />
                <dc:title />
            </ns4:Work>
        </rdf:RDF>
    </metadata>
    <g id="gladiator_helmet_Facial-Hair" transform="translate(49.000000, 72.000000)" />
    <g id="gladiator_helmet_Accessory" transform="translate(62.000000, 85.000000)"><defs>
        <filter x="-3.2%" y="-10.5%" width="106.3%" height="121.1%" filterUnits="objectBoundingBox" id="sunglasses_filter-1">
            <feOffset dx="0" dy="2" in="SourceAlpha" result="shadowOffsetOuter1" />
            <feColorMatrix values="0 0 0 0 0   0 0 0 0 0   0 0 0 0 0  0 0 0 0.1 0" type="matrix" in="shadowOffsetOuter1" result="shadowMatrixOuter1" />
            <feMerge>
                <feMergeNode in="shadowMatrixOuter1" />
                <feMergeNode in="SourceGraphic" />
            </feMerge>
        </filter>
        <linearGradient x1="50%" y1="0%" x2="50%" y2="70.5058195%" id="sunglasses_linearGradient-2">
            <stop stop-color="#FFFFFF" stop-opacity="0.5" offset="0%" />
            <stop stop-color="#000000" stop-opacity="0.5" offset="100%" />
        </linearGradient>
        <path d="M47.0104611,6.27728008 C49.5212682,6.30134922 50.7082016,6.72633117 51.1359635,9.39189846 C51.5693724,12.0919529 51.1479634,15.1275382 50.648202,17.7869984 C49.8855011,21.8478573 48.6170388,25.8264499 45.6643523,28.794498 C44.1089507,30.3575551 42.2119044,31.6034024 40.1941529,32.4540848 C39.1226305,32.9060098 37.9911085,33.2322006 36.8599395,33.4797175 C36.5292357,33.5519249 33.7060778,33.9478084 35.4375958,33.7466335 C31.3967988,34.2161613 27.0129452,34.1974808 23.6381438,31.5793333 C19.8980507,28.6777448 17.3367734,24.0862872 16.2105455,19.5127916 C15.5516086,16.8368063 14.1670294,10.4365709 16.6968952,8.29693227 C19.5948762,5.84547255 47.0104611,6.27728008 47.0104611,6.27728008 L47.0104611,6.27728008 Z" id="sunglasses_path-3" />
        <linearGradient x1="50%" y1="0%" x2="50%" y2="100%" id="sunglasses_linearGradient-4">
            <stop stop-color="#FFFFFF" stop-opacity="0.5" offset="0%" />
            <stop stop-color="#000000" stop-opacity="0.5" offset="70.5058195%" />
        </linearGradient>
        <path d="M78.9192315,6.27468008 C76.4084239,6.29910846 75.2214902,6.72373117 74.7937283,9.38929846 C74.3603192,12.0893529 74.7817283,15.1249382 75.2811369,17.7843984 C76.0441909,21.8452573 77.3126534,25.8238499 80.2653406,28.791898 C81.8207425,30.3549551 83.7177893,31.6008024 85.7355412,32.4518441 C86.8070638,32.9034098 87.938586,33.2296006 89.0697553,33.4771175 C89.4004591,33.5493249 92.2232647,33.9455676 90.4920992,33.7440335 C94.5328971,34.2135613 98.9167517,34.1948808 102.291554,31.5767333 C106.031648,28.6751448 108.592926,24.0840464 109.719154,19.5105508 C110.378091,16.8342063 111.762317,10.4343302 109.232804,8.29433227 C106.334822,5.84287255 78.9192315,6.27468008 78.9192315,6.27468008 L78.9192315,6.27468008 Z" id="sunglasses_path-5" />
    </defs>
    <g id="sunglasses_Top/_Resources/Sunglasses" stroke="none" stroke-width="1" fill="none" fill-rule="evenodd">
        <g id="sunglasses_Sunglasses" filter="url(#sunglasses_filter-1)" transform="translate(8.000000, 8.000000)">
            <g id="sunglasses_shades">
                <use fill-opacity="0.700000048" fill="#000000" xlink:href="#sunglasses_path-3" />
                <use fill="url(#linearGradient-2)" style="mix-blend-mode: screen;" xlink:href="#sunglasses_path-3" />
            </g>
            <g id="sunglasses_shades">
                <use fill-opacity="0.700000048" fill="#000000" xlink:href="#sunglasses_path-5" />
                <use fill="url(#linearGradient-4)" style="mix-blend-mode: screen;" xlink:href="#sunglasses_path-5" />
            </g>
            <g id="sunglasses_Glasses" fill="#252C2F">
                <path d="M46.2491397,7.27516667 C48.6207695,7.2975 49.7419096,7.69183333 50.1459601,10.1651667 C50.5553446,12.6705 50.1572949,15.4871667 49.6852359,17.9548333 C48.9648125,21.7228333 47.7666627,25.4145 44.9776475,28.1685 C43.5084639,29.6188333 41.7165732,30.7748333 39.8106684,31.5641667 C38.7985419,31.9835 37.7297416,32.2861667 36.6612747,32.5158333 C36.3489024,32.5828333 33.6822357,32.9501667 35.3177735,32.7635 C31.5009631,33.1991667 27.3601122,33.1818333 24.1723805,30.7525 C20.6396056,28.0601667 18.2203032,23.7998333 17.1565036,19.5561667 C16.5340925,17.0731667 15.2262624,11.1345 17.6158944,9.14916667 C20.3532365,6.8745 46.2491397,7.27516667 46.2491397,7.27516667 L46.2491397,7.27516667 Z M22.2178029,0.4905 C16.7774562,0.677833333 13.1466691,1.63383333 10.4633337,7.06916667 C5.54571911,17.0301667 13.9627711,31.9688333 23.352278,36.0395 C34.3293166,40.7991667 46.5921826,35.5318333 52.3955746,26.0058333 C55.4689587,20.9621667 57.0224862,13.3231667 56.9224737,7.50383333 C56.7951245,0.0765 51.6071427,-0.1295 45.5090472,0.0338333333 L22.2178029,0.4905 Z" id="sunglasses_Frame" />
                <path d="M79.6805515,7.27256667 C77.3089217,7.29523333 76.1877816,7.68923333 75.7837311,10.1625667 C75.3743466,12.6679 75.7723963,15.4845667 76.244122,17.9522333 C76.9648787,21.7202333 78.1630285,25.4119 80.9520437,28.1659 C82.4212273,29.6162333 84.213118,30.7722333 86.1190228,31.5619 C87.1311493,31.9809 88.1999496,32.2835667 89.2684165,32.5132333 C89.5807888,32.5802333 92.2471221,32.9479 90.6119177,32.7609 C94.4287281,33.1965667 98.569579,33.1792333 101.757311,30.7499 C105.290086,28.0575667 107.709388,23.7975667 108.773188,19.5539 C109.395599,17.0705667 110.703095,11.1322333 108.313797,9.14656667 C105.576455,6.8719 79.6805515,7.27256667 79.6805515,7.27256667 L79.6805515,7.27256667 Z M103.711555,0.4879 C109.152235,0.675233333 112.783022,1.63156667 115.466357,7.06656667 C120.383639,17.0275667 111.96692,31.9662333 102.577413,36.0372333 C91.6003746,40.7965667 79.3375086,35.5292333 73.5337832,26.0035667 C70.4607325,20.9595667 68.907205,13.3205667 69.0068841,7.50123333 C69.1345667,0.0739 74.3225485,-0.1321 80.420644,0.0315666667 L103.711555,0.4879 Z" id="sunglasses_Frame" />
                <path d="M13.1969483,4.9267 C9.78501392,5.11836667 5.88606327,5.16436667 2.69005822,6.63936667 C-0.69461078,8.20136667 -1.2176675,11.7387 3.04920921,12.2260333 C4.97094906,12.4457 6.89488267,12.0827 8.78716336,11.7450333 C10.336903,11.4683667 12.4419791,11.5580333 13.9064752,10.9657 C16.6355213,9.86236667 16.4603333,4.74003333 13.1969483,4.9267" id="sunglasses_Frame" />
                <path d="M112.73467,4.9267 C116.146606,5.11836667 120.045559,5.16436667 123.241565,6.63936667 C126.626236,8.20136667 127.149293,11.7387 122.882414,12.2260333 C120.960673,12.4457 119.036739,12.0827 117.144457,11.7450333 C115.594717,11.4683667 113.489639,11.5580333 112.025143,10.9657 C109.295782,9.86236667 109.471283,4.74003333 112.73467,4.9267" id="sunglasses_Frame" />
                <path d="M73.1094302,7.01263333 C71.1631869,4.71263333 66.0912197,3.38463333 62.8914864,3.38463333 C59.6914198,3.38463333 54.7681378,4.71263333 52.8222279,7.01263333 C51.8407719,8.1723 51.8074344,9.72396667 53.5083137,10.4509667 C55.6262451,11.3566333 57.5174814,9.7143 59.2126933,8.8553 C61.3809643,7.75663333 64.7120473,7.8773 66.7189648,8.8553 C68.4271783,9.68796667 70.3050797,11.3566333 72.4233444,10.4509667 C74.1242237,9.72396667 74.0908862,8.1723 73.1094302,7.01263333" id="sunglasses_Frame" />
            </g>
        </g>
    </g>
</g>
    <defs id="gladiator_helmet_defs3">
        <path d="M264,0 L264,280 L232,280 L232,271 C232,231.235498 199.764502,199 160,199 L160,199 L156,199 L156.001014,180.610469 C173.531251,172.282329 186.048207,155.114429 187.791415,134.867236 C193.568906,134.002616 198,129.018777 198,123 L198,123 L198,110 C198,104.05429 193.675838,99.1185422 188.000809,98.1660527 L188,92 C188,61.072054 162.927946,36 132,36 C101.072054,36 76,61.072054 76,92 L76,92 L76.0001873,98.1658855 C70.3246685,99.1179645 66,104.053942 66,110 L66,110 L66,123 C66,129.018777 70.4310943,134.002616 76.2090181,134.867253 C77.9518263,155.114813 90.4692242,172.28298 107.999984,180.610943 L108,199 L104,199 C64.633143,199 32.6454629,230.594012 32.0096459,269.809348 L32,271 L32,280 L0,280 L0,0 L264,0 Z" id="gladiator_helmet_hairstylegladiator-helmet-path-1" />
        <mask id="gladiator_helmet_hairstylegladiator-helmet-mask-2" fill="#ffffff">
            <use xlink:href="#gladiator_helmet_hairstylegladiator-helmet-path-1" id="gladiator_helmet_use6" x="0" y="0" width="100%" height="100%" />
        </mask>
    </defs>
    <path d="m 157.1539,81.808923 c -4.27851,3.079186 -10.20898,6.171881 -18.15056,8.02902 -2.166,0.506 -3.641,-2.168 -2.068,-3.741 2.833,-2.832 6.073,-6.503 7.932,-10.044 0,0 -8.77854,-2.589743 -22.94454,2.677257 -15.423,4.64 -28.051,13.969813 -31.942,19.184813 -1.147,1.538 -3.384,-7.309018 0,-13.231018 0,0 -11.71574,6.924205 -9.622627,-7.541795 L 93.9378,67.7286 c -0.580098,0.580098 27.4875,-23.140213 42.99754,-23.115624 27.91076,0.04446 51.39346,25.561769 51.39346,42.840153 0,14.773001 15.24359,22.239361 3,25.782071 -3,0.86806 -17.008,-15.704 -14.647,-25.33 l -3.153,3.703 c -0.488,1.985 -8.55057,-1.984108 -8.55057,-9.379824 0,0 -1.15279,-5.220867 -7.82433,-0.419453 z" id="gladiator_helmet_Fill-1" fill="#724133" ns2:color="Hair-500" style="fill-rule:evenodd;stroke:none;stroke-width:1" />
    <path d="m 77.2311,134.9196 c 1.713,19.909 13.848,36.834 30.92,45.312 v -41.693 l -21.083,-6.866 c 0,0 -9.056,-41.26 25.96,-46.016 3.536,-0.48 6.936,1.41 8.078,4.452 1.491,3.968 4.913,9.68 12.761,14.558 0,0 8.711,-6.948 11.663,-14.678 1.14,-2.984 4.558,-4.796 8.031,-4.313 34.858,4.843 25.824,45.997 25.824,45.997 l -21.082,6.866 v 41.339 c 0,0.048 0.016,0.093 0.019,0.142 16.846,-8.548 28.791,-25.358 30.492,-45.1 3.91,-0.585 7.197,-3.061 8.917,-6.463 v -21.179 c 0,-0.93 -0.029,-1.853 -0.078,-2.772 -1.708,-3.267 -4.868,-5.656 -8.63,-6.287 l -0.001,-6.166 c 0,-6.294 -1.054,-12.339 -2.968,-17.986 -11.668,-14.926 -30.971,-24.693 -52.827,-24.693 -22.305,0 -41.963,10.163 -53.547,25.61 -1.721,5.383 -2.658,11.115 -2.658,17.069 v 6.166 c -3.442,0.577 -6.38,2.625 -8.165,5.47 -0.081,1.188 -0.135,2.382 -0.135,3.589 v 21.934 c 1.805,3.012 4.893,5.167 8.509,5.708" id="gladiator_helmet_path11" fill-opacity="0.16" fill="#000000" style="fill-rule:evenodd;stroke:none;stroke-width:1" />
    <path id="gladiator_helmet_Fabric-Color" d="M 54.222656 0.90039062 C 51.341656 0.90039062 49.249859 3.6379688 50.005859 6.4179688 L 55.779297 27.626953 C 24.299191 33.998712 0.59960937 61.81956 0.59960938 95.179688 L 0.59960938 169.06836 C 0.59960938 170.14736 1.155125 171.16075 2.078125 171.71875 C 14.390125 179.16075 28.044313 183.36747 34.570312 185.10547 C 36.536312 185.62947 38.457031 184.14438 38.457031 182.10938 L 38.457031 132.39062 L 20.205078 124.21875 C 20.205078 124.21875 10.526359 75.104359 47.943359 69.443359 C 51.721359 68.872359 55.355172 71.122187 56.576172 74.742188 C 58.169172 79.465187 61.823938 86.264312 70.210938 92.070312 C 70.210938 92.070312 79.518828 83.801609 82.673828 74.599609 C 83.890828 71.046609 87.544859 68.890844 91.255859 69.464844 C 128.50286 75.229844 118.84961 124.21875 118.84961 124.21875 L 100.5957 132.39062 L 100.5957 181.59766 C 100.5957 183.79566 102.81356 185.29366 104.85156 184.47266 C 111.38456 181.83966 124.47569 175.81252 137.30469 165.47852 C 138.03269 164.89152 138.45312 163.99655 138.45312 163.06055 L 138.45312 95.179688 C 138.45312 61.820223 114.75504 33.999439 83.275391 27.626953 L 89.046875 6.4179688 C 89.803875 3.6379688 87.711078 0.90039062 84.830078 0.90039062 L 54.222656 0.90039062 z " transform="translate(63.7,2.8)" fill="#3C4F5C" />
    <path d="m 133.2267,89.4216 v -43.045 c 0,0 6.874,13.894 0,43.045" id="gladiator_helmet_Fill-6" fill-opacity="0.24" fill="#000000" style="fill-rule:evenodd;stroke:none;stroke-width:1" />
    <path id="gladiator_helmet_Fill-8-5" style="fill-rule:evenodd;stroke:none;stroke-width:1;fill:#000000;fill-opacity:0.23999999" d="m 119.48398,30.444578 c -1.64206,0.33468 -3.26502,0.722647 -4.86328,1.169922 l 2.85742,10.496093 c 0.686,2.518 2.97108,4.265625 5.58008,4.265625 h 20.33594 c 2.609,0 4.89603,-1.747625 5.58203,-4.265625 L 151.83359,31.6145 c -1.59859,-0.447445 -3.22256,-0.835159 -4.86523,-1.169922 l -1.8418,6.767578 c -0.519,1.902 -2.2448,3.222656 -4.2168,3.222656 h -15.36523 c -1.972,0 -3.69975,-1.320656 -4.21875,-3.222656 z" />
</g>
    </g>
</svg>