<svg xmlns="http://www.w3.org/2000/svg" xmlns:ns2="http://design.blush" xmlns:xlink="http://www.w3.org/1999/xlink" width="264px" height="280px" viewBox="0 0 264 280" version="1.1">
    <title id="transparent_Title">Avataaar/Default</title>
    <desc>Created with python_avatars</desc>
    <defs>
        <path d="M100,0 C130.927946,-5.68137151e-15 156,25.072054 156,56 L156.000809,62.1660527 C161.675838,63.1185422 166,68.05429 166,74 L166,88 C166,94.0524166 161.519235,99.0582945 155.693975,99.8813638 C153.627928,119.686472 141.237929,136.421678 124.001014,144.610469 L124,163 L128,163 C167.764502,163 200,195.235498 200,235 L200,244 L0,244 L0,235 C-4.86974701e-15,195.235498 32.235498,163 72,163 L76,163 L75.9999836,144.610943 C58.7625487,136.422324 46.3721119,119.686854 44.3051107,99.8809698 C38.480765,99.0582945 34,94.0524166 34,88 L34,74 C34,68.053942 38.3246685,63.1179645 44.0001873,62.1658855 L44,56 C44,25.072054 69.072054,5.68137151e-15 100,0 Z" id="transparent_path-1" />
        <path d="M83,36.3476251 C83,52.6289957 105.161905,65.8276544 132.5,65.8276544 C159.838095,65.8276544 182,52.6289957 182,36.3476251 C182,34.9853134 181.844841,33.6445843 181.544472,32.3313638 C210.784239,41.4879251 232,68.792221 232,101.051724 L232,110 L32,110 L32,101.051724 C32,68.3970853 53.7386736,40.8197864 83.5337207,32.0021267 C83.1821692,33.4207025 83,34.871494 83,36.3476251 Z" id="transparent_path-3" />
        <rect id="transparent_path-5" x="0" y="0" width="264" height="280" />
        <path d="M74,0 C114.869071,0 148,33.1309285 148,74 L148,84.1482318 L148,197.608051 C135.525121,187.236892 119.490913,181 102,181 L102,181 L98,181 L98,162.610951 C115.530782,154.282984 128.048193,137.114792 129.791419,116.867187 C135.569129,116.002364 140,111.018625 140,105 L140,105 L140,92 C140,87.3536213 137.359271,83.3240177 133.496777,81.3301515 C132.723933,81.0500337 131.951808,80.748163 131.180891,80.4262497 C130.794819,80.3202581 130.400778,80.2331546 130,80.1659169 L130,80.1659169 L130.000458,79.9172528 C117.224481,74.2339715 104.877985,63.0706967 96.1104311,47.8848473 C93.1752556,42.8009742 90.8310687,37.5951441 89.0661426,32.3970356 C80.4313947,42.9409152 67.7445474,53.6023901 52.3415164,62.4953343 C42.777598,68.0170651 33.1467898,72.2910056 24,75.2659587 L24.0003852,137.246608 C29.6019576,148.318362 38.7728825,157.277529 50,162.610951 L50,162.610951 L50,181 L46,181 C38.3273639,181 30.9350359,182.200142 24.0004995,184.422941 L24,230 C24,244.105888 13.5691766,255.775526 0,257.716445 L0,74 C0,33.1309285 33.1309285,0 74,0 Z" id="transparent_path-7" />
    </defs>
    <g id="transparent_Avataaar/Default" stroke="none" stroke-width="1" fill="none" fill-rule="evenodd">
        <g id="transparent_Body" transform="translate(32.000000, 36.000000)">
            <mask id="transparent_mask-2" fill="white">
                <use xlink:href="#transparent_path-1" />
            </mask>
            <use fill="#D0C6AC" xlink:href="#transparent_path-1" />
            <g id="transparent_Skin-Color" mask="url(#transparent_mask-2)" fill="#FFDBB4">
                <g transform="translate(-32.000000, 0.000000)" id="transparent_Color">
                    <rect x="0" y="0" width="264" height="244" />
                </g>
            </g>
            <path d="M44,94 C44,124.927946 69.072054,150 100,150 C130.927946,150 156,124.927946 156,94 L156,94 L156,102 C156,132.927946 130.927946,158 100,158 C69.072054,158 44,132.927946 44,102 Z" id="transparent_Neck-Shadow" fill-opacity="0.100000001" fill="#000000" mask="url(#transparent_mask-2)" />
        </g>
        <g id="transparent_Clothing" transform="translate(0.000000, 170.000000)">
            
        <g id="chef_Clothing/Chef" stroke="none" stroke-width="1" fill="none" fill-rule="evenodd">
        <path d="M104,29.0517235 L160,29.0517235 C199.764502,29.0517235 232,61.2872215 232,101.051724 L232,110 L232,110 L32,110 L32,101.051724 C32,61.2872215 64.235498,29.0517235 104,29.0517235 Z" id="chef_Fabric-Color" fill="#65C9FF" />
        <polyline id="chef_Path-10" stroke-opacity=".206" stroke="#979797" stroke-width="4" points="136 29 97 70 97 110" />
        <path d="M107.127,19.0853917 C113.854,20.6843917 131.291,23.5633917 158.064,19.1733917 C159.566,18.9273917 160.991,19.7773917 160.991,20.9203917 L160.991,31.3083917 C160.991,32.0803917 160.333,32.7653917 159.346,33.0073917 C152.963,34.5713917 129.018,39.5293917 105.502,32.5903917 C104.591,32.3203917 104,31.6523917 104,30.9243917 L104,20.7953917 C104,19.5853917 105.577,18.7173917 107.127,19.0853917" id="chef_Fill-1" fill="#F7F9F9" />
        <circle id="chef_Oval" fill-opacity=".502" fill="#D8D8D8" cx="115" cy="79" r="4" />
        <polygon id="chef_Path-11" fill="#60ADE6" points="160.991 75 186.16092 62.6280915 186.16092 75" ns2:color="Top-500" />
    </g>
</g>
        <g id="transparent_Face" transform="translate(76.000000, 82.000000)" fill="#000000">
            <g id="transparent_Mouth" transform="translate(2.000000, 52.000000)">    
                
            <defs>
        <path d="M34.0082051,12.6020819 C35.1280248,23.0929366 38.2345159,31.9944054 53.9961505,31.9999965 C69.757785,32.0055894 72.9169073,23.0424631 73.9942614,12.5047938 C74.0809675,11.6567158 73.1738581,10.9999965 72.0369872,10.9999965 C65.3505138,10.9999965 62.6703194,12.4951994 53.9894323,12.4999965 C45.3085452,12.5047938 40.7567994,10.9999965 36.0924943,10.9999965 C34.9490269,10.9999965 33.8961688,11.5524868 34.0082051,12.6020819 Z" id="vomit_path-1" />
        <path d="M66,25 C69.3137085,25 72,27.6862915 72,31 L72,36 C72,39.3137085 69.3137085,42 66,42 C62.6862915,42 60,39.3137085 60,36 L59.9170737,36.0001915 C59.4410745,33.1623839 56.9730632,31 54,31 C51.0269368,31 48.5589255,33.1623839 48.0829263,36.0001915 L48,36 L48,38 C48,41.3137085 45.3137085,44 42,44 C38.6862915,44 36,41.3137085 36,38 L36,31 C36,27.6862915 38.6862915,25 42,25 L66,25 Z" id="vomit_path-3" />
        <filter x="-1.4%" y="-2.6%" width="102.8%" height="105.3%" filterUnits="objectBoundingBox" id="vomit_filter-4">
            <feOffset dx="0" dy="-1" in="SourceAlpha" result="shadowOffsetInner1" />
            <feComposite in="shadowOffsetInner1" in2="SourceAlpha" operator="arithmetic" k2="-1" k3="1" result="shadowInnerInner1" />
            <feColorMatrix values="0 0 0 0 0   0 0 0 0 0   0 0 0 0 0  0 0 0 0.1 0" type="matrix" in="shadowInnerInner1" />
        </filter>
    </defs>
    <g id="vomit_Mouth/Vomit" stroke="none" stroke-width="1" fill="none" fill-rule="evenodd">
        <mask id="vomit_mask-2" fill="white">
            <use xlink:href="#vomit_path-1" transform="translate(54.000000, 21.499998) scale(1, -1) translate(-54.000000, -21.499998)" />
        </mask>
        <use id="vomit_Mouth" fill-opacity="0.699999988" fill="#000000" transform="translate(54.000000, 21.499998) scale(1, -1) translate(-54.000000, -21.499998)" xlink:href="#vomit_path-1" />
        <path d="M44,0 L65,0 C67.7614237,-5.07265313e-16 70,2.23857625 70,5 L70,11 C70,13.7614237 67.7614237,16 65,16 L44,16 C41.2385763,16 39,13.7614237 39,11 L39,5 C39,2.23857625 41.2385763,5.07265313e-16 44,0 Z" id="vomit_Teeth" fill="#FFFFFF" mask="url(#vomit_mask-2)" />
        <g id="vomit_Vomit-Stuff">
            <use fill="#88C553" fill-rule="evenodd" xlink:href="#vomit_path-3" />
        </g>
    </g>
</g>
            <g id="transparent_Nose" transform="translate(28.000000, 40.000000)" fill-opacity="0.16">
                
            <g id="wide_Nose/Wide" stroke="none" stroke-width="1" fill="none" fill-rule="evenodd"><path d="M13,6 C13,12.627417 16.8281211,18 28,18 C39.1718789,18 43,12.627417 43,6 C39.0361818,6 32.8972468,9 27.83815,9 C23.0794079,9 17.1013384,6 13,6 Z" id="wide_Nose" fill-opacity=".16" fill="#000" /></g></g>
            <g id="transparent_Eyes" transform="translate(0.000000, 8.000000)">
                
            <g id="eye_roll_Eyes/Eye-Roll-🙄" stroke="none" stroke-width="1" fill="none" fill-rule="evenodd">
        <circle id="eye_roll_Eyeball" fill="#FFFFFF" cx="30" cy="22" r="14" />
        <circle id="eye_roll_The-white-stuff" fill="#FFFFFF" cx="82" cy="22" r="14" />
        <circle id="eye_roll_Eye" fill-opacity="0.699999988" fill="#000000" cx="30" cy="14" r="6" />
        <circle id="eye_roll_Eye" fill-opacity="0.699999988" fill="#000000" cx="82" cy="14" r="6" />
    </g>
</g>
            <g id="transparent_Eyebrow" fill-opacity="0.599999964">
                
            <g id="up_down_Eyebrow/Outline/Up-Down" stroke="none" stroke-width="1" fill="none" fill-rule="evenodd" fill-opacity="0.599999964">
        <path d="M15.5914402,14.1619718 C20.0874642,7.83556966 29.6031809,4.65350252 39.3473715,7.79575991 C40.3986323,8.13476518 41.5256656,7.55736801 41.8646708,6.50610724 C42.2036761,5.45484647 41.6262789,4.32781316 40.5750182,3.98880789 C29.1665516,0.309863172 17.8358054,4.09887835 12.3309495,11.8448183 C11.6910852,12.7451779 11.9022584,13.9937761 12.8026181,14.6336404 C13.7029777,15.2735046 14.9515759,15.0623314 15.5914402,14.1619718 Z" id="up_down_Eyebrow" fill="#000000" fill-rule="nonzero" />
        <path d="M73.6376405,21.1577995 C77.5525501,15.6490895 88.2853148,12.56006 97.5304219,14.8304032 C98.6031199,15.0938282 99.6862617,14.4377829 99.9496867,13.3650849 C100.213112,12.2923868 99.5570664,11.2092451 98.4843684,10.9458201 C87.7477584,8.30920485 75.3194947,11.8862211 70.3771498,18.840646 C69.7372855,19.7410057 69.9484587,20.9896038 70.8488184,21.6294681 C71.749178,22.2693324 72.9977762,22.0581591 73.6376405,21.1577995 Z" id="up_down_Eyebrow" fill="#000000" fill-rule="nonzero" transform="translate(85.007549, 16.038421) scale(-1, 1) translate(-85.007549, -16.038421) " />
    </g>
</g>
        </g>
        <g id="transparent_Top">
            
        <g id="no_hair_Top/-No-Hair" stroke="none" stroke-width="1" fill="none" fill-rule="evenodd">
        <g id="no_hair_Facial-Hair" transform="translate(49.000000, 72.000000)"><defs>
        <path d="M92.8529444,110.772863 C92.4646999,110.690176 89.5136632,105.844079 83.9998344,96.2345713 C78.4862283,105.844079 75.5351917,110.690176 75.1467245,110.772863 C71.7624488,111.494309 69.0848316,110.462621 66.5712661,108.168569 C63.4212068,105.293259 61.0789787,94.1669555 59.5445817,74.7896583 C70.8461226,73.7591561 77.8028468,72.982027 80.4147542,72.4582708 C81.6840664,72.2035248 83.0706538,71.7508657 83.9998344,71 C84.929015,71.7508657 86.3159365,72.2035248 87.5845805,72.4582708 C90.1967107,72.982027 96.6092912,73.7591561 106.822322,74.7896583 C106.376658,94.1669555 104.578685,105.293259 101.428403,108.168569 C98.9148372,110.462621 96.23722,111.494309 92.8529444,110.772863 Z M119.485129,94.9574 C114.699289,80.7432272 111.022674,72.1397539 108.455284,69.1469801 C105.887895,66.1542063 100.78585,64.5245037 93.1491481,64.2578722 L74.8510547,64.2578722 C69.3311956,64.2578722 64.229038,65.8875748 59.5445817,69.1469801 C54.8601255,72.4063854 50.7221618,80.0360076 47.1306906,92.0358469 C43.5494525,94.4281216 47.6874162,99.3657372 59.5445817,106.848694 C64.2269942,109.803725 74.189578,112.02247 83.1742,112.02247 C92.158822,112.02247 103.277169,108.98551 108.455284,106.848694" id="wick_beard_facial-hairwick-beard-path-1" />
    </defs>
    <g id="wick_beard_Facial Hair/Wick Beard" stroke="none" stroke-width="1" fill="none" fill-rule="evenodd">
        <path d="M133.5472,25.575 L133.5472,63.866 C133.5472,70.516 120.4702,71.131 120.4702,71.131 L120.4702,86.356 C120.4702,91.474 110.1472,94.407 105.5142,95.466 C96.6236019,102.56883 89.9363032,106.124209 85.4523039,106.132137 C80.0074143,106.141765 71.8013797,102.612719 60.8342,95.545 C56.3992,94.559 45.5272,91.61 45.5272,86.356 L45.5272,71.131 C45.5272,71.131 32.4492,70.516 32.4492,63.866 L32.4492,25.575 C32.4492,24.153 31.2972,23 29.8752,23 C28.4532,23 27.3002,24.153 27.3002,25.575 L27.3002,64.096 C27.3022,64.096 27.3042,64.097 27.3062,64.097 C29.3732,83.903 41.7642,100.639 59.0012,108.827 C59.0012,108.827 83.0012,121.169 107.0022,108.827 C124.2392,100.638 136.6292,83.903 138.6962,64.098 L138.6962,25.575 C138.6962,24.153 137.5442,23 136.1212,23 C134.6992,23 133.5472,24.153 133.5472,25.575 Z" id="wick_beard_Combined-Shape" ns2:color="Hair-500" />
        <mask id="wick_beard_facial-hairwick-beard-mask-2" fill="#fff">
            <use xlink:href="#wick_beard_facial-hairwick-beard-path-1" />
        </mask>
        <use id="wick_beard_Lite-Beard" xlink:href="#wick_beard_facial-hairwick-beard-path-1" ns2:color="Hair-500" />
        <g id="wick_beard_Facial-Hair-Color" mask="url(#wick_beard_facial-hair-color-mask)" fill="#724133">
            <rect x="0" y="0" width="264" height="264" />
        </g>
        <mask id="wick_beard_facial-hair-color-mask" fill="white">
            <use xlink:href="#wick_beard_Combined-Shape" />
            <use xlink:href="#wick_beard_Lite-Beard" />
        </mask>
    </g>
</g>
        <g id="no_hair_Accessory" transform="translate(62.000000, 85.000000)" />
        <g id="no_hair_Hair-Color" fill="#B58143" />
    </g>
</g>
    </g>
</svg>