<svg xmlns="http://www.w3.org/2000/svg" xmlns:ns2="http://design.blush" xmlns:xlink="http://www.w3.org/1999/xlink" width="264px" height="280px" viewBox="0 0 264 280" version="1.1">
    <title id="transparent_Title">Avataaar/Default</title>
    <desc>Created with python_avatars</desc>
    <defs>
        <path d="M100,0 C130.927946,-5.68137151e-15 156,25.072054 156,56 L156.000809,62.1660527 C161.675838,63.1185422 166,68.05429 166,74 L166,88 C166,94.0524166 161.519235,99.0582945 155.693975,99.8813638 C153.627928,119.686472 141.237929,136.421678 124.001014,144.610469 L124,163 L128,163 C167.764502,163 200,195.235498 200,235 L200,244 L0,244 L0,235 C-4.86974701e-15,195.235498 32.235498,163 72,163 L76,163 L75.9999836,144.610943 C58.7625487,136.422324 46.3721119,119.686854 44.3051107,99.8809698 C38.480765,99.0582945 34,94.0524166 34,88 L34,74 C34,68.053942 38.3246685,63.1179645 44.0001873,62.1658855 L44,56 C44,25.072054 69.072054,5.68137151e-15 100,0 Z" id="transparent_path-1" />
        <path d="M83,36.3476251 C83,52.6289957 105.161905,65.8276544 132.5,65.8276544 C159.838095,65.8276544 182,52.6289957 182,36.3476251 C182,34.9853134 181.844841,33.6445843 181.544472,32.3313638 C210.784239,41.4879251 232,68.792221 232,101.051724 L232,110 L32,110 L32,101.051724 C32,68.3970853 53.7386736,40.8197864 83.5337207,32.0021267 C83.1821692,33.4207025 83,34.871494 83,36.3476251 Z" id="transparent_path-3" />
        <rect id="transparent_path-5" x="0" y="0" width="264" height="280" />
        <path d="M74,0 C114.869071,0 148,33.1309285 148,74 L148,84.1482318 L148,197.608051 C135.525121,187.236892 119.490913,181 102,181 L102,181 L98,181 L98,162.610951 C115.530782,154.282984 128.048193,137.114792 129.791419,116.867187 C135.569129,116.002364 140,111.018625 140,105 L140,105 L140,92 C140,87.3536213 137.359271,83.3240177 133.496777,81.3301515 C132.723933,81.0500337 131.951808,80.748163 131.180891,80.4262497 C130.794819,80.3202581 130.400778,80.2331546 130,80.1659169 L130,80.1659169 L130.000458,79.9172528 C117.224481,74.2339715 104.877985,63.0706967 96.1104311,47.8848473 C93.1752556,42.8009742 90.8310687,37.5951441 89.0661426,32.3970356 C80.4313947,42.9409152 67.7445474,53.6023901 52.3415164,62.4953343 C42.777598,68.0170651 33.1467898,72.2910056 24,75.2659587 L24.0003852,137.246608 C29.6019576,148.318362 38.7728825,157.277529 50,162.610951 L50,162.610951 L50,181 L46,181 C38.3273639,181 30.9350359,182.200142 24.0004995,184.422941 L24,230 C24,244.105888 13.5691766,255.775526 0,257.716445 L0,74 C0,33.1309285 33.1309285,0 74,0 Z" id="transparent_path-7" />
    </defs>
    <g id="transparent_Avataaar/Default" stroke="none" stroke-width="1" fill="none" fill-rule="evenodd">
        <g id="transparent_Body" transform="translate(32.000000, 36.000000)">
            <mask id="transparent_mask-2" fill="white">
                <use xlink:href="#transparent_path-1" />
            </mask>
            <use fill="#D0C6AC" xlink:href="#transparent_path-1" />
            <g id="transparent_Skin-Color" mask="url(#transparent_mask-2)" fill="#F8D25C">
                <g transform="translate(-32.000000, 0.000000)" id="transparent_Color">
                    <rect x="0" y="0" width="264" height="244" />
                </g>
            </g>
            <path d="M44,94 C44,124.927946 69.072054,150 100,150 C130.927946,150 156,124.927946 156,94 L156,94 L156,102 C156,132.927946 130.927946,158 100,158 C69.072054,158 44,132.927946 44,102 Z" id="transparent_Neck-Shadow" fill-opacity="0.100000001" fill="#000000" mask="url(#transparent_mask-2)" />
        </g>
        <g id="transparent_Clothing" transform="translate(0.000000, 170.000000)">
            
        <g id="shirt_wick_Clothing/Shirt Wick" stroke="none" stroke-width="1" fill="none" fill-rule="evenodd">
        <g id="shirt_wick_Wick-suit" transform="translate(31.500000, 28.600000)">
            <path d="M124.379699,3.0005061 L128.359699,3.0005061 C167.925874,3.0005061 199.999699,34.434727 199.999699,73.2118883 L199.999699,81.9883111 L0.9996985,81.9883111 L0.9996985,73.2118883 L1.0096485,72.050475 C1.6424685,33.8096507 33.4695335,3.0005061 72.6396985,3.0005061 L76.6196985,3.0005061 C76.6196985,3.0005061 76.4236835,15.1129447 100.491739,15.1129447 C124.559794,15.1129447 124.379699,3.0005061 124.379699,3.0005061" id="shirt_wick_Fill-1" fill="#EDEDED" />
            <path d="M118.32468,81.988311 L107.529975,28.3672744 C111.54093,27.0767256 114.229305,24.7476646 114.229305,22.0795183 C114.229305,18.0155549 108.00735,14.7198476 100.334175,14.7198476 C92.659995,14.7198476 86.439045,18.0155549 86.439045,22.0795183 C86.439045,24.7476646 89.12742,27.0767256 93.138375,28.3672744 L82.34367,81.988311 L118.32468,81.988311 Z" id="shirt_wick_Fabric-Color" fill="#FF488E" ns2:color="Top-500" />
            <path d="M86.846271,30.4401 L100.520301,16.6691854 L114.194331,30.4401 L142.147401,2.28791707 C137.769621,1.45386829 133.258176,1.00040488 128.639196,1.00040488 L124.619196,1.00040488 C124.619196,1.00040488 124.801101,13.5728805 100.491156,13.5728805 C76.181211,13.5728805 76.380201,1.00040488 76.380201,1.00040488 L72.360201,1.00040488 C67.753281,1.00040488 63.252891,1.44981951 58.885161,2.27981951 L86.846271,30.4401 Z" id="shirt_wick_Fill-7" fill="#FFF" />
            <path d="M128.639698,0.000506097561 L124.640803,0.000506097561 L124.640803,81.988311 L200.999698,81.988311 L200.999698,72.8785549 C200.999698,32.6286159 168.603523,0.000506097561 128.639698,0.000506097561" id="shirt_wick_Fill-9" fill="#191919" />
            <path d="M76.380201,0.000506097561 L72.360201,0.000506097561 C32.796366,0.000506097561 0.649431,31.9797988 0.009246,71.6730305 L0.000201,72.8785549 L0.000201,81.988311 L76.380201,81.988311 L76.380201,0.000506097561 Z" id="shirt_wick_Fill-12" fill="#191919" />
            <path d="M66.873906,0.206082927 L40.132866,43.4571805 L62.584566,56.6946683 L48.757776,75.9982415 L55.328466,81.9884122 L76.380201,81.9884122 L76.380201,0.000607317073 C76.380201,0.000607317073 73.264701,0.0431195122 66.873906,0.206082927" id="shirt_wick_Fill-15" fill="#2B2B2B" />
            <path d="M134.28006,0.224909756 L160.887435,43.4577878 L138.435735,56.6942634 L152.26353,75.9978366 L145.69083,81.9880073 L124.6401,81.9869951 L124.6401,-0.000809756098 C124.6401,-0.000809756098 127.889265,0.0619463415 134.28006,0.224909756" id="shirt_wick_Fill-18" fill="#2B2B2B" />
        </g>
    </g>
</g>
        <g id="transparent_Face" transform="translate(76.000000, 82.000000)" fill="#000000">
            <g id="transparent_Mouth" transform="translate(2.000000, 52.000000)">    
                
            <defs>
        <path d="M35.117844,15.1280772 C36.1757121,24.6198025 44.2259873,32 54,32 C63.8042055,32 71.8740075,24.574136 72.8917593,15.0400546 C72.9736685,14.272746 72.1167429,13 71.042767,13 C56.1487536,13 44.7379213,13 37.0868244,13 C36.0066168,13 35.0120058,14.1784435 35.117844,15.1280772 Z" id="concerned_path-1" />
    </defs>
    <g id="concerned_Mouth/Concerned" stroke="none" stroke-width="1" fill="none" fill-rule="evenodd">
        <mask id="concerned_mask-2" fill="white">
            <use xlink:href="#concerned_path-1" transform="translate(54.003637, 22.500000) scale(1, -1) translate(-54.003637, -22.500000)" />
        </mask>
        <use id="concerned_Mouth" fill-opacity="0.699999988" fill="#000000" transform="translate(54.003637, 22.500000) scale(1, -1) translate(-54.003637, -22.500000)" xlink:href="#concerned_path-1" />
        <path d="M44,2 L65,2 C67.7614237,2 70,4.23857625 70,7 L70,13 C70,15.7614237 67.7614237,18 65,18 L44,18 C41.2385763,18 39,15.7614237 39,13 L39,7 C39,4.23857625 41.2385763,2 44,2 Z" id="concerned_Teeth" fill="#FFFFFF" mask="url(#concerned_mask-2)" />
        <g id="concerned_Tongue" mask="url(#concerned_mask-2)" fill="#FF4F6D">
            <g transform="translate(38.000000, 24.000000)">
                <circle id="concerned_friend?" cx="11" cy="11" r="11" />
                <circle id="concerned_How-you-doing" cx="21" cy="11" r="11" />
            </g>
        </g>
    </g>
</g>
            <g id="transparent_Nose" transform="translate(28.000000, 40.000000)" fill-opacity="0.16">
                
            <g id="default_Nose/Default" stroke="none" stroke-width="1" fill="none" fill-rule="evenodd" fill-opacity="0.16">
        <path d="M16,8 C16,12.418278 21.372583,16 28,16 L28,16 C34.627417,16 40,12.418278 40,8" id="default_Nose" fill="#000000" />
    </g>
</g>
            <g id="transparent_Eyes" transform="translate(0.000000, 8.000000)">
                
            <g id="side_Eyes/Side-😒" stroke="none" stroke-width="1" fill="none" fill-rule="evenodd" fill-opacity="0.599999964">
        <path d="M26.9975803,16 C30.5023373,16 33.8908881,17.3142215 36.0178027,19.5426914 C36.76432,20.2169977 37.3413788,21.076429 37.6755948,22.0487876 C37.7255661,22.1661456 37.7719796,22.285947 37.8153518,22.4071242 C37.9093375,22.6697105 37.9470658,22.9204105 37.9396792,23.1420431 C37.9792021,23.4217112 38,23.7084268 38,24 C38,27.3137085 35.3137085,30 32,30 C28.6862915,30 26,27.3137085 26,24 C26,22.6248836 26.4625977,21.3578126 27.2406617,20.3459186 C27.1600773,20.3443723 27.0789132,20.3437884 26.9975803,20.3437884 C23.2572061,20.3437884 19.8737584,21.5787519 17.4375392,23.5716412 C16.5467928,24.3002944 15.6201012,23.5583844 16.1601674,22.4473116 C18.006676,18.648508 22.1644225,16 26.9975803,16 Z" id="side_Eye" fill="#000000" />
        <path d="M84.9975803,16 C88.5023373,16 91.8908881,17.3142215 94.0178027,19.5426914 C94.76432,20.2169977 95.3413788,21.076429 95.6755948,22.0487876 C95.7255661,22.1661456 95.7719796,22.285947 95.8153518,22.4071242 C95.9093375,22.6697105 95.9470658,22.9204105 95.9396792,23.1420431 C95.9792021,23.4217112 96,23.7084268 96,24 C96,27.3137085 93.3137085,30 90,30 C86.6862915,30 84,27.3137085 84,24 C84,22.6248836 84.4625977,21.3578126 85.2406617,20.3459186 C85.1600773,20.3443723 85.0789132,20.3437884 84.9975803,20.3437884 C81.2572061,20.3437884 77.8737584,21.5787519 75.4375392,23.5716412 C74.5467928,24.3002944 73.6201012,23.5583844 74.1601674,22.4473116 C76.006676,18.648508 80.1644225,16 84.9975803,16 Z" id="side_Eye" fill="#000000" />
    </g>
</g>
            <g id="transparent_Eyebrow" fill-opacity="0.599999964">
                
            </g>
        </g>
        <g id="transparent_Top">
            
        <defs>
        <path d="M116,0 C127.211125,0 137.909274,2.19631647 147.687647,6.18215166 C148.610063,6.06196359 149.5487,6 150.5,6 C157.20097,6 163.273609,9.07451734 167.696813,14.0565753 C185.740112,14.9903576 201.159349,27.3683704 208.470051,44.9557881 C216.493006,49.5558365 222,59.0429312 222,70 C222,70.5797069 221.984585,71.155299 221.954198,71.7262703 C228.261198,81.2649995 232,93.1347507 232,106 C232,113.33094 230.786009,120.338641 228.574705,126.776091 C228.853754,128.467881 229,130.214422 229,132 C229,141.455043 224.899348,149.815506 218.619686,154.885227 C211.258904,172.684098 195.389647,185 177,185 C175.501611,185 174.019954,184.918235 172.558269,184.7584 C167.111013,189.906495 160.121612,193 152.5,193 C148.058842,193 143.832349,191.949612 140.000349,190.054355 L140.001014,180.610469 C157.531251,172.282329 170.048207,155.114429 171.791415,134.867236 C177.471002,134.017289 181.849484,129.186467 181.9962,123.304975 L182,123 L182,110 C182,108.014881 181.517977,106.142344 180.66459,104.493048 C177.966884,103.690147 174.996344,101.441815 172.021298,98.1710101 C172.014833,98.1684128 172.007822,98.1672297 172.000809,98.1660527 L172.000578,98.1482144 C165.15458,90.6107624 158.28802,77.6643047 154.667387,64.4375583 C143.683333,66.1120035 130.513036,67.0867832 116.353789,67.0867832 C101.905209,67.0867832 88.4864083,66.0717587 77.3694123,64.3345498 C73.7552209,77.6016095 66.866618,90.6012163 59.9999953,98.157119 L60.0001873,98.1658855 L59.9901075,98.1679956 C57.0105489,101.444388 54.0354269,103.695335 51.3340398,104.498009 C50.5253168,106.059631 50.0504689,107.824174 50.0037999,109.695025 L50,110 L50,123 C50,129.018777 54.4310943,134.002616 60.2090181,134.867253 C61.9518594,155.115197 74.4696989,172.283632 92.0009808,180.611417 L92.0011384,190.053619 C88.1687443,191.949341 83.9417323,193 79.5,193 C71.8787605,193 64.8896703,189.906797 59.4414808,184.758965 C57.9800457,184.918235 56.4983893,185 55,185 C36.6103527,185 20.7410963,172.684098 13.3790205,154.885043 C7.10065151,149.815506 3,141.455043 3,132 C3,130.214422 3.14624584,128.467881 3.42579502,126.775169 C1.21399074,120.338641 0,113.33094 0,106 C0,93.1347507 3.73880224,81.2649995 10.0453187,71.7257869 C10.015415,71.155299 10,70.5797069 10,70 C10,59.0429312 15.5069937,49.5558365 23.5303378,44.956594 C30.8406711,27.3683817 46.2599587,14.9903972 64.3034353,14.0567145 C68.7263913,9.07451734 74.7990304,6 81.5,6 C82.4512999,6 83.3899366,6.06196359 84.3129883,6.18255189 C94.0907062,2.19632063 104.788864,0 116,0 Z" id="fro_path-1" />
    </defs>
    <g id="fro_Top/Long-Hair/Fro" stroke="none" stroke-width="1" fill="none" fill-rule="evenodd">
        <path d="M97.3896087,42.3923264 C107.880511,40.9293514 120.189742,40.0867832 133.353789,40.0867832 C146.22875,40.0867832 158.286026,40.8927515 168.625585,42.2974868 C168.785566,39.3365659 169.136623,36.5967441 169.664482,34.1152734 C187.354365,45.9536992 199,66.1168577 199,89 L199.001113,109.776682 C189.979495,108.708272 177.129693,89.3920217 171.667447,69.4377806 C160.684858,71.1118906 147.513856,72.0867832 133.353789,72.0867832 C118.904694,72.0867832 105.485452,71.0716864 94.3682241,69.3343642 C88.921994,89.3307155 76.0372341,108.71789 66.9995261,109.777628 L67,89 C67,66.1129662 78.6495962,45.9468414 96.3425686,34.1078455 C96.8779574,36.6186627 97.2315682,39.3925882 97.3896087,42.3923264 Z" id="fro_Shadow" fill-opacity="0.16" fill="#000000" />
        <g id="fro_Hair" transform="translate(16.000000, 0.000000)">
            <mask id="fro_mask-2" fill="white">
                <use xlink:href="#fro_path-1" />
            </mask>
            <use fill="#314756" xlink:href="#fro_path-1" />
            <g id="fro_Hair-Color" mask="url(#fro_mask-2)" fill="#E8E1E1">
                <g transform="translate(-16.000000, 0.000000)" id="fro_Color">
                    <rect x="0" y="0" width="264" height="280" />
                </g>
            </g>
        </g>
        <g id="fro_Facial-Hair" transform="translate(49.000000, 72.000000)"><defs>
        <path d="M84.5044337,93.8410391 C72.9930718,94.2191416 67.8580835,99.7213834 63.9909333,94.1296214 C61.0884259,89.9323547 62.3028943,82.8739117 65.014944,78.9027173 C68.8738581,73.2512381 74.1088724,75.9847769 79.9622738,75.3400279 C81.5538829,75.1648137 83.1526985,74.7228407 84.5044337,74 C85.856169,74.7228407 87.4546414,75.1648137 89.0462504,75.3400279 C94.899995,75.9847769 100.134666,73.2512381 103.993923,78.9027173 C106.70563,82.8739117 107.920098,89.9323547 105.017591,94.1296214 C101.150441,99.7213834 96.0157956,93.4629366 84.5044337,93.8410391 Z M140.39109,26 C136.966521,40.0748212 135.393023,54.4337754 132.909944,68.6711471 C132.392536,71.6390145 131.826063,74.5963095 131.224594,77.5496398 C131.098329,78.1697764 130.973781,80.4725746 130.362704,80.7643064 C128.511632,81.6484223 124.739149,76.9466834 123.730409,75.8851496 C121.196893,73.219256 118.684993,70.5292442 115.599415,68.437233 C109.364783,64.2102603 102.065485,61.7108818 94.4700836,61.117837 C91.2922091,60.8693859 86.9951134,61.3025234 84.000116,63.1104016 C81.0051185,61.3025234 76.7080229,60.8693859 73.5298053,61.117837 C65.9344039,61.7108818 58.6351055,64.2102603 52.4004739,68.437233 C49.3148957,70.5292442 46.8033387,73.219256 44.2694796,75.8851496 C43.2607395,76.9466834 39.4882573,81.6484223 37.6371849,80.7643064 C37.0261079,80.4725746 36.9015594,78.1697764 36.7752954,77.5496398 C36.1738255,74.5963095 35.6073527,71.6390145 35.0899445,68.6711471 C32.6072086,54.4337754 31.0337113,40.0748212 27.6091415,26 C26.6127533,26 25.7385119,44.7478165 25.6273446,46.4945731 C25.174784,53.5889755 24.6463963,60.5254529 25.3216346,67.6261326 C26.485803,79.8749043 27.6993791,95.2339402 37.032627,104.58753 C45.4659003,113.039493 57.7103052,114.806417 68.2713185,120.141327 C69.631059,120.828202 71.4347824,121.676306 73.3798667,122.37111 C75.4289129,123.934171 79.4926946,125 84.1740722,125 C89.0846465,125 93.3155222,123.827456 95.2540874,122.137856 C96.9548781,121.49261 98.5180822,120.752874 99.7285704,120.141327 C110.288776,114.805245 122.533989,113.039493 130.967262,104.58753 C140.30051,95.2339402 141.514086,79.8749043 142.678597,67.6261326 C143.353493,60.5254529 142.825105,53.5889755 142.372887,46.4945731 C142.261377,44.7478165 141.387136,26 140.39109,26 Z" id="beard_medium_path-1" />
    </defs>
    <g id="beard_medium_Facial-Hair/Beard-Medium" stroke="none" stroke-width="1" fill="none" fill-rule="evenodd">
        <mask id="beard_medium_mask-2" fill="white">
            <use xlink:href="#beard_medium_path-1" />
        </mask>
        <use id="beard_medium_Beardness" fill="#252E32" xlink:href="#beard_medium_path-1" />
        <g id="beard_medium_Facial-Hair-Color" mask="url(#beard_medium_mask-2)" fill="#C93305">
            <rect id="beard_medium_Color" x="0" y="0" width="168" height="152" />
        </g>
    </g>
</g>
        <g id="fro_Accessory" transform="translate(62.000000, 85.000000)"><defs>
        <filter x="-3.1%" y="-9.8%" width="106.2%" height="119.5%" filterUnits="objectBoundingBox" id="wayfarers_filter-1">
            <feOffset dx="0" dy="2" in="SourceAlpha" result="shadowOffsetOuter1" />
            <feColorMatrix values="0 0 0 0 0   0 0 0 0 0   0 0 0 0 0  0 0 0 0.2 0" type="matrix" in="shadowOffsetOuter1" result="shadowMatrixOuter1" />
            <feMerge>
                <feMergeNode in="shadowMatrixOuter1" />
                <feMergeNode in="SourceGraphic" />
            </feMerge>
        </filter>
        <linearGradient x1="50%" y1="0%" x2="50%" y2="100%" id="wayfarers_linearGradient-2">
            <stop stop-color="#FFFFFF" stop-opacity="0.5" offset="0%" />
            <stop stop-color="#000000" stop-opacity="0.5" offset="70.5058195%" />
        </linearGradient>
        <path d="M44.9178864,17.5714286 C44.9178864,27.2737857 36.66775,35.1428571 22.9204545,35.1428571 L20.1704091,35.1428571 C6.42311364,35.1428571 0.923022727,27.2708571 0.923022727,17.5714286 L0.923022727,17.5714286 C0.923022727,7.86614286 2.20715909,0 21.4545455,0 L24.3863636,0 C43.63375,0 44.9178864,7.86614286 44.9178864,17.5714286 L44.9178864,17.5714286 Z" id="wayfarers_path-3" />
        <path d="M106.486068,17.5714286 C106.486068,27.2737857 98.2388636,35.1428571 84.4886364,35.1428571 L81.7385909,35.1428571 C67.9912955,35.1428571 62.4912045,27.2708571 62.4912045,17.5714286 L62.4912045,17.5714286 C62.4912045,7.86614286 63.7753409,0 83.0227273,0 L85.9545455,0 C105.199,0 106.486068,7.86614286 106.486068,17.5714286 L106.486068,17.5714286 Z" id="wayfarers_path-4" />
    </defs>
    <g id="wayfarers_Top/_Resources/Wayfarers" stroke="none" stroke-width="1" fill="none" fill-rule="evenodd">
        <g id="wayfarers_Wayfarers" filter="url(#wayfarers_filter-1)" transform="translate(7.000000, 7.000000)" fill-rule="nonzero">
            <g id="wayfarers_Shades" transform="translate(10.795455, 2.928571)">
                <g id="wayfarers_Shade">
                    <use fill-opacity="0.700000048" fill="#000000" xlink:href="#wayfarers_path-3" />
                    <use fill="url(#linearGradient-2)" style="mix-blend-mode: screen;" xlink:href="#wayfarers_path-3" />
                </g>
                <g id="wayfarers_Shade">
                    <use fill-opacity="0.700000048" fill="#000000" xlink:href="#wayfarers_path-4" />
                    <use fill="url(#linearGradient-2)" style="mix-blend-mode: screen;" xlink:href="#wayfarers_path-4" />
                </g>
            </g>
            <path d="M35.1818182,0 C56.8332955,0 58.6451591,10.127 58.6451591,20.5 C58.6451591,32.5686429 48.3955227,41 33.7159091,41 L30.9658636,41 C17.0778409,41 8.78665909,33.3359286 8.78665909,20.5 C8.78665909,10.127 10.5985227,0 32.25,0 L35.1818182,0 Z M35.1818182,5.85421429 L32.25,5.85421429 C14.6502955,5.85421429 14.6502955,12.3175714 14.6502955,20.5 C14.6502955,27.1800714 17.4795,35.1428571 30.9658636,35.1428571 L33.7159091,35.1428571 C44.9418409,35.1428571 52.7815227,29.1217143 52.7815227,20.5 L52.7810475,19.768351 C52.765683,11.935587 52.2535316,5.85421429 35.1818182,5.85421429 Z" id="wayfarers_Left" fill="#252C2F" />
            <path d="M96.75,0 C118.401477,0 120.213341,10.127 120.213341,20.5 C120.213341,32.5686429 109.963705,41 95.2840909,41 L92.5340455,41 C78.6460227,41 70.3548409,33.3359286 70.3548409,20.5 C70.3548409,10.127 72.1667045,0 93.8181818,0 L96.75,0 Z M96.75,5.85421429 L93.8181818,5.85421429 C76.2184773,5.85421429 76.2184773,12.3175714 76.2184773,20.5 C76.2184773,27.1800714 79.0506136,35.1428571 92.5340455,35.1428571 L95.2840909,35.1428571 C106.510023,35.1428571 114.349705,29.1217143 114.349705,20.5 L114.349229,19.768351 C114.333865,11.935587 113.821713,5.85421429 96.75,5.85421429 Z" id="wayfarers_Right" fill="#252C2F" />
            <path d="M2.93181818,5.85714286 C3.61786364,5.17185714 11.1233182,0 32.25,0 C49.9640455,0 53.7138409,1.88014286 59.3898409,4.72085714 L59.8053162,4.93054903 C60.1999353,5.07314243 62.2179351,5.77419634 64.5784525,5.85128811 C66.7290156,5.75689949 68.5684809,5.16080623 69.1059926,4.96981137 C75.5844654,1.74762081 81.9260118,0 96.75,0 C117.876682,0 125.382136,5.17185714 126.068182,5.85714286 C127.689477,5.85714286 129,7.16621429 129,8.78571429 L129,11.7142857 C129,13.3337857 127.689477,14.6428571 126.068182,14.6428571 C126.068182,14.6428571 120.204545,14.6428571 120.204545,17.5714286 C120.204545,20.5 117.272727,13.3337857 117.272727,11.7142857 L117.272727,8.8618831 C113.697201,7.46243482 107.296654,5.85714286 96.75,5.85714286 C84.9995538,5.85714286 79.1475515,6.98813142 74.1276604,9.10414393 L74.1837955,9.24257143 L71.6878772,10.2500422 L74.1813177,11.2582547 L71.981173,16.6874536 L69.263564,15.5885995 C69.0208516,15.4904597 68.4971539,15.3141463 67.770994,15.1309826 C65.7466083,14.6203594 63.6653786,14.4649153 61.8248214,14.8513001 C61.1495627,14.993056 60.5230576,15.2057795 59.9480988,15.4931011 L57.3260941,16.8033836 L54.7026238,11.5651815 L57.3246285,10.2548989 L57.3310023,10.251716 L54.8191364,9.23671429 L54.8992448,9.03890561 C50.5700368,6.97578666 46.5781927,5.85714286 32.25,5.85714286 C21.7038986,5.85714286 15.3034993,7.46145875 11.7272727,8.86093383 L11.7272727,11.7142857 C11.7272727,13.3337857 8.79545455,20.5 8.79545455,17.5714286 C8.79545455,14.6428571 2.93181818,14.6428571 2.93181818,14.6428571 C1.31345455,14.6428571 0,13.3337857 0,11.7142857 L0,8.78571429 C0,7.16621429 1.31345455,5.85714286 2.93181818,5.85714286 Z" id="wayfarers_Stuff" fill="#252C2F" />
        </g>
    </g>
</g>
    </g>
</g>
    </g>
</svg>