<svg xmlns="http://www.w3.org/2000/svg" xmlns:dc="http://purl.org/dc/elements/1.1/" xmlns:ns3="http://creativecommons.org/ns#" xmlns:ns5="http://design.blush" xmlns:rdf="http://www.w3.org/1999/02/22-rdf-syntax-ns#" xmlns:xlink="http://www.w3.org/1999/xlink" width="264px" height="280px" viewBox="0 0 264 280" version="1.1">
    <title id="transparent_Title">Avataaar/Default</title>
    <desc>Created with python_avatars</desc>
    <defs>
        <path d="M100,0 C130.927946,-5.68137151e-15 156,25.072054 156,56 L156.000809,62.1660527 C161.675838,63.1185422 166,68.05429 166,74 L166,88 C166,94.0524166 161.519235,99.0582945 155.693975,99.8813638 C153.627928,119.686472 141.237929,136.421678 124.001014,144.610469 L124,163 L128,163 C167.764502,163 200,195.235498 200,235 L200,244 L0,244 L0,235 C-4.86974701e-15,195.235498 32.235498,163 72,163 L76,163 L75.9999836,144.610943 C58.7625487,136.422324 46.3721119,119.686854 44.3051107,99.8809698 C38.480765,99.0582945 34,94.0524166 34,88 L34,74 C34,68.053942 38.3246685,63.1179645 44.0001873,62.1658855 L44,56 C44,25.072054 69.072054,5.68137151e-15 100,0 Z" id="transparent_path-1" />
        <path d="M83,36.3476251 C83,52.6289957 105.161905,65.8276544 132.5,65.8276544 C159.838095,65.8276544 182,52.6289957 182,36.3476251 C182,34.9853134 181.844841,33.6445843 181.544472,32.3313638 C210.784239,41.4879251 232,68.792221 232,101.051724 L232,110 L32,110 L32,101.051724 C32,68.3970853 53.7386736,40.8197864 83.5337207,32.0021267 C83.1821692,33.4207025 83,34.871494 83,36.3476251 Z" id="transparent_path-3" />
        <rect id="transparent_path-5" x="0" y="0" width="264" height="280" />
        <path d="M74,0 C114.869071,0 148,33.1309285 148,74 L148,84.1482318 L148,197.608051 C135.525121,187.236892 119.490913,181 102,181 L102,181 L98,181 L98,162.610951 C115.530782,154.282984 128.048193,137.114792 129.791419,116.867187 C135.569129,116.002364 140,111.018625 140,105 L140,105 L140,92 C140,87.3536213 137.359271,83.3240177 133.496777,81.3301515 C132.723933,81.0500337 131.951808,80.748163 131.180891,80.4262497 C130.794819,80.3202581 130.400778,80.2331546 130,80.1659169 L130,80.1659169 L130.000458,79.9172528 C117.224481,74.2339715 104.877985,63.0706967 96.1104311,47.8848473 C93.1752556,42.8009742 90.8310687,37.5951441 89.0661426,32.3970356 C80.4313947,42.9409152 67.7445474,53.6023901 52.3415164,62.4953343 C42.777598,68.0170651 33.1467898,72.2910056 24,75.2659587 L24.0003852,137.246608 C29.6019576,148.318362 38.7728825,157.277529 50,162.610951 L50,162.610951 L50,181 L46,181 C38.3273639,181 30.9350359,182.200142 24.0004995,184.422941 L24,230 C24,244.105888 13.5691766,255.775526 0,257.716445 L0,74 C0,33.1309285 33.1309285,0 74,0 Z" id="transparent_path-7" />
    </defs>
    <g id="transparent_Avataaar/Default" stroke="none" stroke-width="1" fill="none" fill-rule="evenodd">
        <g id="transparent_Body" transform="translate(32.000000, 36.000000)">
            <mask id="transparent_mask-2" fill="white">
                <use xlink:href="#transparent_path-1" />
            </mask>
            <use fill="#D0C6AC" xlink:href="#transparent_path-1" />
            <g id="transparent_Skin-Color" mask="url(#transparent_mask-2)" fill="#FFDBB4">
                <g transform="translate(-32.000000, 0.000000)" id="transparent_Color">
                    <rect x="0" y="0" width="264" height="244" />
                </g>
            </g>
            <path d="M44,94 C44,124.927946 69.072054,150 100,150 C130.927946,150 156,124.927946 156,94 L156,94 L156,102 C156,132.927946 130.927946,158 100,158 C69.072054,158 44,132.927946 44,102 Z" id="transparent_Neck-Shadow" fill-opacity="0.100000001" fill="#000000" mask="url(#transparent_mask-2)" />
        </g>
        <g id="transparent_Clothing" transform="translate(0.000000, 170.000000)">
            
        <defs>
        <path d="M232,101.051724 L232,110 L32,110 L32,101.051724 C32,65.1384292 58.2938256,35.3663869 92.6806879,29.9363855 C93.5844961,35.0070695 96.1171239,39.8245023 100.236125,43.5389794 L100.236125,43.5389794 L129.321203,69.7676333 C130.843316,71.1402598 133.156684,71.1402598 134.678797,69.7676333 L134.678797,69.7676333 L163.763875,43.5389794 C164.189462,43.1551884 164.601167,42.7562772 164.998197,42.3430127 C168.413626,38.7879269 170.516642,34.4534098 171.319249,29.9385703 C205.706684,35.3669637 232,65.1387771 232,101.051724 Z" id="shirt_v_neck_path-1" />
    </defs>
    <g id="shirt_v_neck_Clothing/Shirt-V-Neck" stroke="none" stroke-width="1" fill="none" fill-rule="evenodd">
        <mask id="shirt_v_neck_mask-2" fill="white">
            <use xlink:href="#shirt_v_neck_path-1" />
        </mask>
        <use id="shirt_v_neck_Clothes" fill="#E6E6E6" xlink:href="#shirt_v_neck_path-1" />
        <g id="shirt_v_neck_Fabric-Color" mask="url(#shirt_v_neck_mask-2)" fill="#262E33">
            <rect id="shirt_v_neck_ðŸ–Color" x="0" y="0" width="264" height="110" />
        </g>
    </g>
</g>
        <g id="transparent_Face" transform="translate(76.000000, 82.000000)" fill="#000000">
            <g id="transparent_Mouth" transform="translate(2.000000, 52.000000)">    
                
            <g id="sad_Mouth/Sad" stroke="none" stroke-width="1" fill="none" fill-rule="evenodd" fill-opacity="0.699999988">
        <path d="M40.0582943,16.6539438 C40.7076459,23.6831146 46.7016363,28.3768187 54,28.3768187 C61.3416045,28.3768187 67.3633339,23.627332 67.9526838,16.5287605 C67.9840218,16.1513016 67.0772329,15.8529531 66.6289111,16.077395 C61.0902255,18.8502083 56.8805885,20.2366149 54,20.2366149 C51.1558456,20.2366149 47.0072148,18.8804569 41.5541074,16.168141 C41.0473376,15.9160792 40.0197139,16.2363147 40.0582943,16.6539438 Z" id="sad_Mouth" fill="#000000" transform="translate(54.005357, 22.188409) scale(1, -1) translate(-54.005357, -22.188409) " />
    </g>
</g>
            <g id="transparent_Nose" transform="translate(28.000000, 40.000000)" fill-opacity="0.16">
                
            <g id="default_Nose/Default" stroke="none" stroke-width="1" fill="none" fill-rule="evenodd" fill-opacity="0.16">
        <path d="M16,8 C16,12.418278 21.372583,16 28,16 L28,16 C34.627417,16 40,12.418278 40,8" id="default_Nose" fill="#000000" />
    </g>
</g>
            <g id="transparent_Eyes" transform="translate(0.000000, 8.000000)">
                
            <g id="closed_Eyes/Closed-ðŸ˜Œ" stroke="none" stroke-width="1" fill="none" fill-rule="evenodd" fill-opacity="0.599999964">
        <path d="M16.1601674,32.4473116 C18.006676,28.648508 22.1644225,26 26.9975803,26 C31.8136766,26 35.9591217,28.629842 37.8153518,32.4071242 C38.3667605,33.5291977 37.5821037,34.4474817 36.790607,33.7670228 C34.3395063,31.6597833 30.8587163,30.3437884 26.9975803,30.3437884 C23.2572061,30.3437884 19.8737584,31.5787519 17.4375392,33.5716412 C16.5467928,34.3002944 15.6201012,33.5583844 16.1601674,32.4473116 Z" id="closed_Closed-Eye" fill="#000000" transform="translate(27.000000, 30.000000) scale(1, -1) translate(-27.000000, -30.000000) " />
        <path d="M74.1601674,32.4473116 C76.006676,28.648508 80.1644225,26 84.9975803,26 C89.8136766,26 93.9591217,28.629842 95.8153518,32.4071242 C96.3667605,33.5291977 95.5821037,34.4474817 94.790607,33.7670228 C92.3395063,31.6597833 88.8587163,30.3437884 84.9975803,30.3437884 C81.2572061,30.3437884 77.8737584,31.5787519 75.4375392,33.5716412 C74.5467928,34.3002944 73.6201012,33.5583844 74.1601674,32.4473116 Z" id="closed_Closed-Eye" fill="#000000" transform="translate(85.000000, 30.000000) scale(1, -1) translate(-85.000000, -30.000000) " />
    </g>
</g>
            <g id="transparent_Eyebrow" fill-opacity="0.599999964">
                
            <g id="raised_excited_Eyebrow/Outline/Raised-Excited" stroke="none" stroke-width="1" fill="none" fill-rule="evenodd" fill-opacity="0.599999964">
        <g id="raised_excited_I-Browse" transform="translate(12.000000, 0.000000)" fill="#000000" fill-rule="nonzero">
            <path d="M3.97579559,17.1279169 C5.47099148,7.60476158 18.0585488,1.10867597 27.1635167,5.30104271 C28.1668367,5.76301969 29.3546946,5.32417444 29.8166716,4.32085442 C30.2786486,3.3175344 29.8398033,2.12967649 28.8364833,1.66769952 C17.3488212,-3.62177466 1.93575948,4.3324746 0.0242044059,16.507492 C-0.147121205,17.5986938 0.598585765,18.6221744 1.68978754,18.7935 C2.78098932,18.9648257 3.80446998,18.2191187 3.97579559,17.1279169 Z" id="raised_excited_Eyebrow" />
            <path d="M61.9757956,17.1279169 C63.4709915,7.60476158 76.0585488,1.10867597 85.1635167,5.30104271 C86.1668367,5.76301969 87.3546946,5.32417444 87.8166716,4.32085442 C88.2786486,3.3175344 87.8398033,2.12967649 86.8364833,1.66769952 C75.3488212,-3.62177466 59.9357595,4.3324746 58.0242044,16.507492 C57.8528788,17.5986938 58.5985858,18.6221744 59.6897875,18.7935 C60.7809893,18.9648257 61.80447,18.2191187 61.9757956,17.1279169 Z" id="raised_excited_Eyebrow" transform="translate(73.000097, 9.410436) scale(-1, 1) translate(-73.000097, -9.410436) " />
        </g>
    </g>
</g>
        </g>
        <g id="transparent_Top">
            
        <metadata id="dreadlocks_metadata25">
      <rdf:RDF>
         <ns3:Work rdf:about="">
            <dc:format>image/svg+xml</dc:format>
            <dc:type rdf:resource="http://purl.org/dc/dcmitype/StillImage" />
            <dc:title />
         </ns3:Work>
      </rdf:RDF>
   </metadata>
   <defs id="dreadlocks_defs23" />
   <g id="dreadlocks_Hairstyle/Dreadlocks" stroke="none" stroke-width="1" fill="none" fill-rule="evenodd">
      <g id="dreadlocks_Group-35" transform="translate(52.300000, 33.100000)">
         <g id="dreadlocks_Hair-Color" fill="#B58143">
            <path d="M135.7129,58.8838 C135.7129,58.7438 135.7039,58.6068 135.7029,58.4668 C136.6069,57.9398 137.2679,57.0168 137.4129,55.8978 C137.6209,54.3068 136.7149,52.8388 135.3079,52.2388 C135.0399,49.9838 134.6419,47.7688 134.1149,45.6028 C135.4309,45.2428 136.4749,44.1408 136.6669,42.7038 C136.9239,40.7878 135.5789,39.0268 133.6629,38.7698 C133.0549,38.6878 132.4559,38.5868 131.8609,38.4778 C130.6489,35.3818 129.1779,32.4148 127.4579,29.6148 C128.0429,29.2318 128.5199,28.6718 128.7959,27.9718 C129.5039,26.1738 128.6199,24.1408 126.8209,23.4328 C122.1719,21.6028 117.4079,14.6048 115.9639,12.0618 C115.0129,10.3818 112.8769,9.7908 111.1969,10.7398 C110.7149,11.0128 110.3339,11.3888 110.0409,11.8178 C107.3149,10.0578 104.4339,8.5168 101.4099,7.2448 C101.0349,5.9128 100.8719,5.1098 100.8659,5.0778 C100.4989,3.1828 98.6659,1.9428 96.7689,2.3088 C95.4419,2.5648 94.4499,3.5438 94.0899,4.7548 C92.0029,4.2018 89.8689,3.7698 87.6939,3.4598 C87.2149,1.9338 85.7239,0.8818 84.0849,1.0108 C82.8229,1.1108 81.7819,1.8718 81.2479,2.9228 C80.7359,2.9088 80.2279,2.8838 79.7129,2.8838 C79.1069,2.8838 78.5059,2.9108 77.9039,2.9298 C77.3719,1.8788 76.3319,1.1158 75.0699,1.0148 C73.3989,0.8768 71.9059,1.9498 71.4409,3.4968 C69.2769,3.8168 67.1579,4.2668 65.0829,4.8278 C64.7409,3.5858 63.7369,2.5748 62.3859,2.3128 C60.4909,1.9418 58.6539,3.1828 58.2829,5.0778 C58.2779,5.1028 58.1019,5.9668 57.6989,7.3828 C54.7179,8.6578 51.8759,10.1928 49.1879,11.9448 C48.8879,11.4628 48.4809,11.0388 47.9519,10.7398 C46.2679,9.7888 44.1329,10.3828 43.1829,12.0648 C41.7489,14.6028 37.0029,21.5928 32.3289,23.4328 C30.5299,24.1418 29.6459,26.1738 30.3539,27.9718 C30.6599,28.7508 31.2189,29.3488 31.8949,29.7298 C30.2149,32.4798 28.7769,35.3918 27.5859,38.4268 C26.8949,38.5598 26.1949,38.6748 25.4859,38.7698 C23.5709,39.0268 22.2259,40.7878 22.4829,42.7038 C22.6879,44.2358 23.8559,45.4008 25.2949,45.6758 C24.7859,47.7798 24.3979,49.9308 24.1339,52.1208 C22.5569,52.6278 21.5139,54.1968 21.7359,55.8978 C21.8959,57.1248 22.6789,58.1088 23.7209,58.6008 C23.7199,58.6958 23.7129,58.7888 23.7129,58.8838 L23.7129,65.0498 C23.7129,65.0498 73.8409,62.4388 79.7129,27.0218 C79.7129,27.0218 91.9419,65.0498 135.7139,65.0498 L135.7129,58.8838 Z" id="dreadlocks_Fill-1" ns5:color="Hair-500" />
            <path d="M49.5625,147.1787 C50.0395,146.4437 50.4895,145.6907 50.8895,144.9057 C37.8005,137.0327 28.2015,123.9577 24.9365,108.5447 C24.0565,108.6657 23.1965,108.8457 22.3485,109.0557 C21.8635,107.5397 20.3925,106.5017 18.7335,106.6327 C16.8075,106.7917 15.3745,108.4817 15.5325,110.4077 C15.5435,110.5457 15.5895,111.0327 15.6905,111.7787 C13.7455,112.9197 11.9705,114.3127 10.4045,115.9147 C9.6325,115.2497 8.5885,114.9137 7.5085,115.1117 C5.6055,115.4537 4.3425,117.2747 4.6855,119.1767 C4.7095,119.3127 4.9705,120.7017 5.5815,122.8777 C4.0755,126.1077 3.2195,129.7007 3.2195,133.4997 C3.2195,134.1167 3.2495,134.7277 3.2925,135.3337 C2.9605,135.3537 2.6275,135.4057 2.2995,135.5257 C0.4845,136.1887 -0.4495,138.1987 0.2135,140.0137 C0.4235,140.5877 5.5155,154.1427 19.9925,160.6487 C20.4585,160.8577 20.9455,160.9567 21.4245,160.9567 C22.7605,160.9567 24.0365,160.1887 24.6195,158.8907 C24.6865,158.7417 24.7265,158.5867 24.7715,158.4347 C25.9625,158.6077 27.1805,158.6997 28.4195,158.6997 C30.4915,158.6997 32.5005,158.4367 34.4265,157.9647 C35.8795,158.5227 37.3685,159.0027 38.8945,159.3917 C39.1855,159.4657 39.4765,159.5007 39.7625,159.5007 C41.3235,159.5007 42.7475,158.4487 43.1515,156.8657 C43.3915,155.9247 43.2245,154.9767 42.7625,154.2037 C43.4725,153.7107 44.1565,153.1847 44.8105,152.6227 C45.2585,152.8217 45.6955,153.0277 46.1565,153.2157 C46.5895,153.3917 47.0365,153.4757 47.4765,153.4757 C48.8565,153.4757 50.1655,152.6537 50.7185,151.2957 C51.3335,149.7877 50.8105,148.1097 49.5625,147.1787" id="dreadlocks_Fill-3" ns5:color="Hair-500" />
            <path d="M158.9033,135.5254 C158.2933,135.3014 157.6643,135.2714 157.0693,135.3824 C157.1153,134.7594 157.1463,134.1334 157.1463,133.5004 C157.1463,130.1414 156.4853,126.9384 155.2933,124.0074 C156.1433,121.1844 156.4893,119.3354 156.5173,119.1764 C156.8613,117.2744 155.5973,115.4544 153.6953,115.1114 C152.4073,114.8764 151.1693,115.3924 150.3883,116.3344 C148.9263,114.7634 147.2693,113.3784 145.4513,112.2214 C145.5983,111.2134 145.6573,110.5724 145.6713,110.4084 C145.8293,108.4814 144.3953,106.7914 142.4693,106.6324 C140.7413,106.4964 139.2183,107.6294 138.8023,109.2494 C137.4173,108.8584 135.9853,108.5784 134.5143,108.4284 C131.3323,123.6104 122.0043,136.5264 109.2493,144.4624 C109.7913,145.5804 110.4173,146.6494 111.1113,147.6684 C110.2613,148.6324 109.9663,150.0244 110.4843,151.2964 C111.0383,152.6534 112.3463,153.4754 113.7273,153.4754 C114.1673,153.4754 114.6143,153.3914 115.0473,153.2154 C115.3173,153.1054 115.5703,152.9814 115.8373,152.8684 C116.5993,153.5034 117.3983,154.0964 118.2333,154.6394 C117.9443,155.3204 117.8553,156.0924 118.0513,156.8654 C118.4563,158.4484 119.8803,159.5014 121.4413,159.5014 C121.7273,159.5014 122.0183,159.4654 122.3083,159.3914 C123.7153,159.0324 125.0923,158.5974 126.4383,158.0944 C128.2123,158.4904 130.0533,158.7004 131.9463,158.7004 C133.4633,158.7004 134.9453,158.5584 136.3873,158.3014 C136.4373,158.5004 136.4973,158.6984 136.5843,158.8904 C137.1673,160.1884 138.4433,160.9574 139.7783,160.9574 C140.2573,160.9574 140.7453,160.8574 141.2113,160.6484 C155.6873,154.1424 160.7803,140.5874 160.9903,140.0134 C161.6533,138.1984 160.7183,136.1884 158.9033,135.5254" id="dreadlocks_Fill-5" ns5:color="Hair-500" />
         </g>
         <path d="M133.9473,58.9467 C135.6783,58.9467 137.1833,57.6617 137.4133,55.8977 C137.6633,53.9817 136.3103,52.2247 134.3943,51.9757 C91.8013,46.4307 87.9893,5.9407 87.8473,4.2197 C87.6943,2.2957 85.9853,0.8607 84.0853,1.0107 C82.1573,1.1627 80.7183,2.8477 80.8703,4.7757 C80.9083,5.2647 81.8943,16.9137 88.8233,29.4217 C95.2733,41.0647 108.2583,55.6327 133.4903,58.9167 C133.6433,58.9367 133.7963,58.9467 133.9473,58.9467" id="dreadlocks_Fill-8" fill-opacity=".24" fill="#000" />
         <path d="M132.7334,45.707 C132.8904,45.728 133.0474,45.739 133.2034,45.739 C134.9284,45.739 136.4314,44.461 136.6674,42.704 C136.9234,40.788 135.5794,39.026 133.6634,38.77 C122.5974,37.286 113.7474,31.264 107.3554,20.873 C102.4404,12.881 100.8854,5.177 100.8664,5.078 C100.4994,3.183 98.6664,1.942 96.7684,2.309 C94.8704,2.675 93.6284,4.51 93.9944,6.408 C94.0614,6.758 101.1074,41.466 132.7334,45.707" id="dreadlocks_Fill-11" fill-opacity=".24" fill="#000" />
         <path d="M124.2568,29.9467 C124.6778,30.1127 125.1108,30.1907 125.5378,30.1907 C126.9348,30.1907 128.2528,29.3497 128.7958,27.9717 C129.5038,26.1737 128.6198,24.1407 126.8208,23.4327 C122.1718,21.6027 117.4078,14.6047 115.9638,12.0617 C115.0128,10.3817 112.8768,9.7907 111.1968,10.7397 C109.5138,11.6907 108.9208,13.8257 109.8718,15.5087 C110.5248,16.6637 116.4748,26.8827 124.2568,29.9467" id="dreadlocks_Fill-13" fill-opacity=".24" fill="#000" />
         <path d="M75.0703,1.0146 C73.1493,0.8566 71.4593,2.2966 71.3013,4.2196 C71.1593,5.9406 67.3483,46.4306 24.7553,51.9756 C22.8383,52.2246 21.4863,53.9816 21.7363,55.8976 C21.9653,57.6616 23.4703,58.9466 25.2023,58.9466 C25.3523,58.9466 25.5053,58.9366 25.6583,58.9166 C50.8913,55.6326 63.8763,41.0646 70.3253,29.4216 C77.2543,16.9136 78.2403,5.2646 78.2793,4.7756 C78.4303,2.8506 76.9953,1.1696 75.0703,1.0146" id="dreadlocks_Fill-15" fill-opacity=".24" fill="#000" />
         <path d="M25.9473,45.7387 C26.1023,45.7387 26.2593,45.7287 26.4173,45.7067 C58.0413,41.4667 65.0883,6.7587 65.1553,6.4077 C65.5213,4.5117 64.2813,2.6807 62.3863,2.3127 C60.4913,1.9417 58.6543,3.1827 58.2833,5.0777 C58.2683,5.1547 56.7163,12.8697 51.7933,20.8727 C45.4033,31.2637 36.5513,37.2857 25.4863,38.7697 C23.5713,39.0267 22.2253,40.7877 22.4833,42.7037 C22.7183,44.4617 24.2203,45.7387 25.9473,45.7387" id="dreadlocks_Fill-17" fill-opacity=".24" fill="#000" />
         <path d="M33.6118,30.1909 C34.0378,30.1909 34.4718,30.1119 34.8928,29.9469 C42.6748,26.8829 48.6248,16.6639 49.2768,15.5089 C50.2278,13.8259 49.6348,11.6909 47.9518,10.7399 C46.2678,9.7889 44.1328,10.3819 43.1828,12.0649 C41.7488,14.6029 37.0028,21.5929 32.3288,23.4329 C30.5298,24.1419 29.6458,26.1729 30.3538,27.9719 C30.8968,29.3499 32.2158,30.1909 33.6118,30.1909" id="dreadlocks_Fill-19" fill-opacity=".24" fill="#000" />
         <path d="M48.7983,146.7334 C25.1153,137.0824 22.6043,110.9354 22.5083,109.8284 C22.3473,107.9044 20.6623,106.4814 18.7343,106.6324 C16.8073,106.7914 15.3743,108.4814 15.5323,110.4084 C15.6383,111.6894 18.4323,141.9174 46.1563,153.2154 C46.5893,153.3914 47.0363,153.4754 47.4763,153.4754 C48.8573,153.4754 50.1653,152.6534 50.7183,151.2954 C51.4483,149.5054 50.5883,147.4624 48.7983,146.7334" id="dreadlocks_Fill-21" fill-opacity=".24" fill="#000" />
         <path d="M40.625,152.6084 C17.103,146.6094 11.63,118.2364 11.573,117.9294 C11.228,116.0294 9.409,114.7644 7.508,115.1114 C5.606,115.4544 4.342,117.2744 4.686,119.1764 C4.746,119.5144 6.231,127.5354 11.094,136.4594 C17.653,148.4954 27.267,156.4254 38.895,159.3914 C39.185,159.4654 39.476,159.5014 39.762,159.5014 C41.324,159.5014 42.748,158.4484 43.151,156.8654 C43.629,154.9924 42.498,153.0864 40.625,152.6084" id="dreadlocks_Fill-23" fill-opacity=".24" fill="#000" />
         <path d="M22.8613,154.2636 C11.1863,149.0166 6.8533,137.7826 6.7843,137.6016 C6.1183,135.7926 4.1133,134.8596 2.2993,135.5256 C0.4843,136.1886 -0.4497,138.1986 0.2133,140.0136 C0.4233,140.5876 5.5153,154.1426 19.9923,160.6486 C20.4583,160.8576 20.9453,160.9566 21.4243,160.9566 C22.7603,160.9566 24.0363,160.1886 24.6193,158.8906 C25.4113,157.1276 24.6243,155.0556 22.8613,154.2636" id="dreadlocks_Fill-25" fill-opacity=".24" fill="#000" />
         <path d="M145.6709,110.4082 C145.8289,108.4812 144.3959,106.7912 142.4699,106.6332 C140.5409,106.4812 138.8569,107.9042 138.6939,109.8282 C138.5999,110.9352 136.0879,137.0822 112.4049,146.7332 C110.6149,147.4632 109.7549,149.5062 110.4839,151.2962 C111.0379,152.6532 112.3469,153.4752 113.7279,153.4752 C114.1669,153.4752 114.6139,153.3912 115.0469,153.2162 C142.7709,141.9172 145.5659,111.6892 145.6709,110.4082" id="dreadlocks_Fill-28" fill-opacity=".24" fill="#000" />
         <path d="M150.1094,136.459 C154.9724,127.535 156.4574,119.515 156.5174,119.177 C156.8614,117.274 155.5974,115.454 153.6954,115.111 C151.7954,114.765 149.9754,116.029 149.6304,117.93 C149.5734,118.236 144.1004,146.609 120.5784,152.608 C118.7054,153.086 117.5744,154.992 118.0514,156.865 C118.4564,158.448 119.8804,159.501 121.4414,159.501 C121.7274,159.501 122.0184,159.466 122.3084,159.392 C133.9364,156.426 143.5494,148.495 150.1094,136.459" id="dreadlocks_Fill-30" fill-opacity=".24" fill="#000" />
         <path d="M158.9033,135.5254 C157.0903,134.8594 155.0853,135.7934 154.4193,137.6014 C154.3503,137.7824 150.0173,149.0164 138.3413,154.2634 C136.5793,155.0554 135.7923,157.1284 136.5843,158.8904 C137.1673,160.1884 138.4433,160.9574 139.7783,160.9574 C140.2573,160.9574 140.7453,160.8574 141.2113,160.6484 C155.6873,154.1424 160.7803,140.5874 160.9903,140.0134 C161.6533,138.1984 160.7183,136.1884 158.9033,135.5254" id="dreadlocks_Fill-32" fill-opacity=".24" fill="#000" />
      </g>
      <g id="dreadlocks_Facial-Hair" transform="translate(49.000000, 72.000000)"><defs>
        <path d="M101.428403,98.1685688 C98.9148372,100.462621 96.23722,101.494309 92.8529444,100.772863 C92.2705777,100.648833 89.8963391,96.2345713 83.9998344,96.2345713 C78.1033297,96.2345713 75.7294253,100.648833 75.1467245,100.772863 C71.7624488,101.494309 69.0848316,100.462621 66.5712661,98.1685688 C61.8461772,93.855604 57.9166219,87.9081858 60.2778299,81.4191814 C61.5083844,78.0369425 63.5097479,74.3237342 67.1506257,73.2459109 C71.0384163,72.0955419 76.4968931,73.2439051 80.4147542,72.4582708 C81.6840664,72.2035248 83.0706538,71.7508657 83.9998344,71 C84.929015,71.7508657 86.3159365,72.2035248 87.5845805,72.4582708 C91.5027758,73.2439051 96.9612525,72.0955419 100.849043,73.2459109 C104.489921,74.3237342 106.491284,78.0369425 107.722173,81.4191814 C110.083381,87.9081858 106.153826,93.855604 101.428403,98.1685688 M140.081033,26 C136.670693,34.4002532 137.987774,44.8580348 137.356666,53.6758724 C136.844038,60.8431942 135.33712,71.5857526 128.972858,76.214531 C125.718361,78.5816138 119.79436,82.5598986 115.54187,81.4501943 C112.614539,80.6863848 112.302182,72.290096 108.455284,69.1469801 C104.09172,65.5823153 98.6429854,64.0160432 93.1491481,64.2578722 C90.7785381,64.3622683 85.9841367,64.3374908 83.9999331,66.1604584 C82.0157295,64.3374908 77.2216647,64.3622683 74.8510547,64.2578722 C69.3568808,64.0160432 63.9081467,65.5823153 59.5445817,69.1469801 C55.6976839,72.290096 55.3856641,80.6863848 52.4583326,81.4501943 C48.2058427,82.5598986 42.2818421,78.5816138 39.0270077,76.214531 C32.6624096,71.5857526 31.1561652,60.8431942 30.642864,53.6758724 C30.0120926,44.8580348 31.3291729,34.4002532 27.9188335,26 C26.2597768,26 27.3540339,42.1288693 27.3540339,42.1288693 L27.3540339,62.4851205 C27.3856735,77.7732046 36.935095,100.655445 58.1080116,109.393004 C63.2861266,111.52982 75.0153111,115 83.9999331,115 C92.9845551,115 104.71374,111.860188 109.891855,109.723371 C131.064771,100.985813 140.614193,77.7732046 140.646169,62.4851205 L140.646169,42.1288693 C140.646169,42.1288693 141.740089,26 140.081033,26" id="beard_light_path-1" />
    </defs>
    <g id="beard_light_Facial-Hair/Beard-Light" stroke="none" stroke-width="1" fill="none" fill-rule="evenodd">
        <mask id="beard_light_mask-2" fill="white">
            <use xlink:href="#beard_light_path-1" />
        </mask>
        <use id="beard_light_Lite-Beard" fill="#331B0C" xlink:href="#beard_light_path-1" />
        <g id="beard_light_Facial-Hair-Color" mask="url(#beard_light_mask-2)" fill="#724133">
            <rect id="beard_light_Color" x="0" y="0" width="168" height="152" />
        </g>
    </g>
</g>
      <g id="dreadlocks_Accessory" transform="translate(62.000000, 85.000000)"><defs>
        <path d="M102,3 C110.919724,3 118.702944,7.86594657 122.839966,15.0881434 C123.049977,15.0306809 123.271405,15 123.5,15 L131.5,15 C132.880712,15 134,16.1192881 134,17.5 C134,18.8807119 132.880712,20 131.5,20 L124.963112,19.9999542 C125.63735,22.2145597 126,24.5649291 126,27 C126,40.254834 115.254834,51 102,51 C88.745166,51 78,40.254834 78,27 C78,25.5817328 78.1230214,24.1921987 78.3589754,22.8414867 C78.2814883,18.460693 74.9167538,15 70.8624171,15 C67.1244063,15 63.9725878,17.9417418 63.4412238,21.8340095 C63.8076631,23.4981856 64,25.2266315 64,27 C64,40.254834 53.254834,51 40,51 C26.745166,51 16,40.254834 16,27 C16,24.5649291 16.3626501,22.2145597 17.0368877,19.9999542 L10.5,20 C9.11928813,20 8,18.8807119 8,17.5 C8,16.1192881 9.11928813,15 10.5,15 L18.5,15 C18.7285947,15 18.9500235,15.0306809 19.1603931,15.0881495 C23.2970555,7.86594657 31.0802764,3 40,3 C49.3522436,3 57.4550935,8.34929022 61.4157763,16.1550973 C63.492635,13.0394413 66.9492812,11 70.8624171,11 C74.874933,11 78.4074783,13.1443461 80.4650049,16.3947271 C84.3793874,8.45920672 92.5521607,3 102,3 Z M40,7 C28.954305,7 20,15.954305 20,27 C20,38.045695 28.954305,47 40,47 C51.045695,47 60,38.045695 60,27 C60,15.954305 51.045695,7 40,7 Z M102,7 C90.954305,7 82,15.954305 82,27 C82,38.045695 90.954305,47 102,47 C113.045695,47 122,38.045695 122,27 C122,15.954305 113.045695,7 102,7 Z" id="round_path-1" />
        <filter x="-0.8%" y="-2.1%" width="101.6%" height="108.3%" filterUnits="objectBoundingBox" id="round_filter-2">
            <feOffset dx="0" dy="2" in="SourceAlpha" result="shadowOffsetOuter1" />
            <feColorMatrix values="0 0 0 0 0   0 0 0 0 0   0 0 0 0 0  0 0 0 0.1 0" type="matrix" in="shadowOffsetOuter1" />
        </filter>
    </defs>
    <g id="round_Top/_Resources/Round" stroke="none" stroke-width="1" fill="none" fill-rule="evenodd">
        <g id="round_Lennon-Glasses">
            <use fill="black" fill-opacity="1" filter="url(#round_filter-2)" xlink:href="#round_path-1" />
            <use fill="#252C2F" fill-rule="evenodd" xlink:href="#round_path-1" />
        </g>
    </g>
</g>
   </g>
</g>
    </g>
</svg>