<svg xmlns="http://www.w3.org/2000/svg" xmlns:ns2="http://design.blush" xmlns:xlink="http://www.w3.org/1999/xlink" width="264px" height="280px" viewBox="0 0 264 280" version="1.1">
    <title id="transparent_Title">Avataaar/Default</title>
    <desc>Created with python_avatars</desc>
    <defs>
        <path d="M100,0 C130.927946,-5.68137151e-15 156,25.072054 156,56 L156.000809,62.1660527 C161.675838,63.1185422 166,68.05429 166,74 L166,88 C166,94.0524166 161.519235,99.0582945 155.693975,99.8813638 C153.627928,119.686472 141.237929,136.421678 124.001014,144.610469 L124,163 L128,163 C167.764502,163 200,195.235498 200,235 L200,244 L0,244 L0,235 C-4.86974701e-15,195.235498 32.235498,163 72,163 L76,163 L75.9999836,144.610943 C58.7625487,136.422324 46.3721119,119.686854 44.3051107,99.8809698 C38.480765,99.0582945 34,94.0524166 34,88 L34,74 C34,68.053942 38.3246685,63.1179645 44.0001873,62.1658855 L44,56 C44,25.072054 69.072054,5.68137151e-15 100,0 Z" id="transparent_path-1" />
        <path d="M83,36.3476251 C83,52.6289957 105.161905,65.8276544 132.5,65.8276544 C159.838095,65.8276544 182,52.6289957 182,36.3476251 C182,34.9853134 181.844841,33.6445843 181.544472,32.3313638 C210.784239,41.4879251 232,68.792221 232,101.051724 L232,110 L32,110 L32,101.051724 C32,68.3970853 53.7386736,40.8197864 83.5337207,32.0021267 C83.1821692,33.4207025 83,34.871494 83,36.3476251 Z" id="transparent_path-3" />
        <rect id="transparent_path-5" x="0" y="0" width="264" height="280" />
        <path d="M74,0 C114.869071,0 148,33.1309285 148,74 L148,84.1482318 L148,197.608051 C135.525121,187.236892 119.490913,181 102,181 L102,181 L98,181 L98,162.610951 C115.530782,154.282984 128.048193,137.114792 129.791419,116.867187 C135.569129,116.002364 140,111.018625 140,105 L140,105 L140,92 C140,87.3536213 137.359271,83.3240177 133.496777,81.3301515 C132.723933,81.0500337 131.951808,80.748163 131.180891,80.4262497 C130.794819,80.3202581 130.400778,80.2331546 130,80.1659169 L130,80.1659169 L130.000458,79.9172528 C117.224481,74.2339715 104.877985,63.0706967 96.1104311,47.8848473 C93.1752556,42.8009742 90.8310687,37.5951441 89.0661426,32.3970356 C80.4313947,42.9409152 67.7445474,53.6023901 52.3415164,62.4953343 C42.777598,68.0170651 33.1467898,72.2910056 24,75.2659587 L24.0003852,137.246608 C29.6019576,148.318362 38.7728825,157.277529 50,162.610951 L50,162.610951 L50,181 L46,181 C38.3273639,181 30.9350359,182.200142 24.0004995,184.422941 L24,230 C24,244.105888 13.5691766,255.775526 0,257.716445 L0,74 C0,33.1309285 33.1309285,0 74,0 Z" id="transparent_path-7" />
    </defs>
    <g id="transparent_Avataaar/Default" stroke="none" stroke-width="1" fill="none" fill-rule="evenodd">
        <g id="transparent_Body" transform="translate(32.000000, 36.000000)">
            <mask id="transparent_mask-2" fill="white">
                <use xlink:href="#transparent_path-1" />
            </mask>
            <use fill="#D0C6AC" xlink:href="#transparent_path-1" />
            <g id="transparent_Skin-Color" mask="url(#transparent_mask-2)" fill="#AE5D29">
                <g transform="translate(-32.000000, 0.000000)" id="transparent_Color">
                    <rect x="0" y="0" width="264" height="244" />
                </g>
            </g>
            <path d="M44,94 C44,124.927946 69.072054,150 100,150 C130.927946,150 156,124.927946 156,94 L156,94 L156,102 C156,132.927946 130.927946,158 100,158 C69.072054,158 44,132.927946 44,102 Z" id="transparent_Neck-Shadow" fill-opacity="0.100000001" fill="#000000" mask="url(#transparent_mask-2)" />
        </g>
        <g id="transparent_Clothing" transform="translate(0.000000, 170.000000)">
            
        <defs>
        <path d="M160,29.0517235 C199.764502,29.0517235 232,61.2872215 232,101.051724 L232,110 L32,110 L32,101.051724 C32,61.2872215 64.235498,29.0517235 104,29.0517235 L105.192363,29.0520252 C105.065349,30.0355191 105,31.0365551 105,32.0517235 C105,45.8588423 117.088312,57.0517235 132,57.0517235 C146.911688,57.0517235 159,45.8588423 159,32.0517235 C159,31.0365551 158.934651,30.0355191 158.807637,29.0520252 L160,29.0517235 Z" id="collar_sweater_path-1" />
    </defs>
    <g id="collar_sweater_Clothing/Collar-+-Sweater" stroke="none" stroke-width="1" fill="none" fill-rule="evenodd">
        <mask id="collar_sweater_mask-2" fill="white">
            <use xlink:href="#collar_sweater_path-1" />
        </mask>
        <use id="collar_sweater_Clothes" fill="#E6E6E6" xlink:href="#collar_sweater_path-1" />
        <g id="collar_sweater_Fabric-Color" mask="url(#collar_sweater_mask-2)" fill="#A7FFC4">
            <rect id="collar_sweater_ðŸ–Color" x="0" y="0" width="264" height="110" />
        </g>
        <path d="M118.07795,50.9956082 L118,51.0567821 L119,54.207887 L114.421,53.8754994 L108.308702,58.6917545 C101.361717,54.0802103 97,47.4262523 97,40.027915 C97,32.7399202 101.232581,26.1742662 107.999601,21.5717708 L108,36.8768102 C108,42.7004148 111.977587,47.8531513 118.07795,50.9956082 Z M166,40.027915 C166,47.2334229 161.862687,53.7328485 155.229194,58.3270307 L149.58,53.8754994 L145,54.207887 L146,51.0567821 L146.015,51.0664994 L145.923049,50.9950934 C152.022847,47.8525885 156,42.7000968 156,36.8768102 L156.000973,22.2802074 C162.182048,26.8358435 166,33.1060895 166,40.027915 Z" id="collar_sweater_Collar" fill="#F2F2F2" />
    </g>
</g>
        <g id="transparent_Face" transform="translate(76.000000, 82.000000)" fill="#000000">
            <g id="transparent_Mouth" transform="translate(2.000000, 52.000000)">    
                
            <g id="eating_Mouth/Eating" stroke="none" stroke-width="1" fill="none" fill-rule="evenodd">
        <g id="eating_Om-Nom-Nom" opacity="0.599999964" transform="translate(28.000000, 6.000000)" fill="#000000" fill-opacity="0.599999964">
            <path d="M45.7064761,0 C42.3399588,1.95870633 40.0195381,5.49520667 40.0195381,9.67694348 C40.0195381,15.344608 45.4930527,20.2451296 51.8234083,20.2451296 C51.8823878,20.2451296 51.9412524,20.2447983 52,20.244138 C50.6423552,20.7317259 49.1600404,21 47.6077404,21 C42.2861196,21 37.787011,17.8470634 36.3137083,13.513833 C33.8402487,15.6694366 30.1376666,17.0394229 26,17.0394229 C21.8623334,17.0394229 18.1597513,15.6694366 15.6851623,13.5125989 C14.212989,17.8470634 9.71388039,21 4.39225962,21 C2.83995964,21 1.35764479,20.7317259 0,20.244138 C0.0587475828,20.2447983 0.11761218,20.2451296 0.176591694,20.2451296 C6.50694731,20.2451296 11.9804619,15.344608 11.9804619,9.67694348 C11.9804619,5.49520667 9.66004124,1.95870633 6.29352385,0 C11.7918498,0.797121661 16.0171848,4.99477485 16.1905909,10.1049337 C18.754121,11.8420922 22.2048056,12.9056086 26,12.9056086 C29.7951944,12.9056086 33.245879,11.8420922 35.8100516,10.1058522 C35.9828152,4.99477485 40.2081502,0.797121661 45.7064761,0 Z" id="eating_Delicious" />
        </g>
        <circle id="eating_Redish" fill-opacity="0.2" fill="#FF4646" cx="17" cy="15" r="9" />
        <circle id="eating_Redish" fill-opacity="0.2" fill="#FF4646" cx="91" cy="15" r="9" />
    </g>
</g>
            <g id="transparent_Nose" transform="translate(28.000000, 40.000000)" fill-opacity="0.16">
                
            <g id="default_Nose/Default" stroke="none" stroke-width="1" fill="none" fill-rule="evenodd" fill-opacity="0.16">
        <path d="M16,8 C16,12.418278 21.372583,16 28,16 L28,16 C34.627417,16 40,12.418278 40,8" id="default_Nose" fill="#000000" />
    </g>
</g>
            <g id="transparent_Eyes" transform="translate(0.000000, 8.000000)">
                
            <g id="eye_roll_Eyes/Eye-Roll-ðŸ™„" stroke="none" stroke-width="1" fill="none" fill-rule="evenodd">
        <circle id="eye_roll_Eyeball" fill="#FFFFFF" cx="30" cy="22" r="14" />
        <circle id="eye_roll_The-white-stuff" fill="#FFFFFF" cx="82" cy="22" r="14" />
        <circle id="eye_roll_Eye" fill-opacity="0.699999988" fill="#000000" cx="30" cy="14" r="6" />
        <circle id="eye_roll_Eye" fill-opacity="0.699999988" fill="#000000" cx="82" cy="14" r="6" />
    </g>
</g>
            <g id="transparent_Eyebrow" fill-opacity="0.599999964">
                
            <g id="frown_natural_Eyebrow/Natural/Frown-Natural" stroke="none" stroke-width="1" fill="none" fill-rule="evenodd" fill-opacity="0.599999964">
        <path d="M36.3692975,6.87618545 C34.3991755,9.78053246 30.8236346,11.5165625 27.6315757,12.5601676 C23.6890255,13.8490851 9.08080143,15.9390364 12.5196198,23.9079177 C12.572332,24.029546 12.7390347,24.0312591 12.7920764,23.9096308 C13.9448284,21.2646433 30.256648,18.7865093 31.7648785,18.2064622 C36.2101722,16.4974987 40.1579937,12.7153722 40.9269343,7.66282939 C41.2794477,5.34640965 40.2901039,1.6143049 39.3791695,0.113308759 C39.2697915,-0.0669067099 39.0052417,-0.02339461 38.9498938,0.181831751 C38.5898029,1.51323348 37.5385221,5.15317482 36.3692975,6.87618545" id="frown_natural_Fill-5" fill="#000000" />
        <path d="M95.3692975,6.87618545 C93.3991755,9.78053246 89.8236346,11.5165625 86.6315757,12.5601676 C82.6890255,13.8490851 68.0808014,15.9390364 71.5196198,23.9079177 C71.572332,24.029546 71.7390347,24.0312591 71.7920764,23.9096308 C72.9448284,21.2646433 89.256648,18.7865093 90.7648785,18.2064622 C95.2101722,16.4974987 99.1579937,12.7153722 99.9269343,7.66282939 C100.279448,5.34640965 99.2901039,1.6143049 98.3791695,0.113308759 C98.2697915,-0.0669067099 98.0052417,-0.02339461 97.9498938,0.181831751 C97.5898029,1.51323348 96.5385221,5.15317482 95.3692975,6.87618545" id="frown_natural_Fill-5" fill="#000000" transform="translate(85.500000, 12.000000) scale(-1, 1) translate(-85.500000, -12.000000) " />
    </g>
</g>
        </g>
        <g id="transparent_Top">
            
        <defs>
        <path d="M264,0 L264,280 L232,280 L232,271 C232,231.235498 199.764502,199 160,199 L160,199 L156,199 L156.001014,180.610469 C173.531251,172.282329 186.048207,155.114429 187.791415,134.867236 C193.568906,134.002616 198,129.018777 198,123 L198,123 L198,110 C198,104.05429 193.675838,99.1185422 188.000809,98.1660527 L188,92 C188,61.072054 162.927946,36 132,36 C101.072054,36 76,61.072054 76,92 L76,92 L76.0001873,98.1658855 C70.3246685,99.1179645 66,104.053942 66,110 L66,110 L66,123 C66,129.018777 70.4310943,134.002616 76.2090181,134.867253 C77.9518263,155.114813 90.4692242,172.28298 107.999984,180.610943 L108,199 L104,199 C64.633143,199 32.6454629,230.594012 32.0096459,269.809348 L32,271 L32,280 L0,280 L0,0 L264,0 Z" id="einstein_hair_hairstyleeinstein-hair-path-1" />
    </defs>
    <g id="einstein_hair_Hairstyle/Einstein hair" stroke="none" stroke-width="1" fill="none" fill-rule="evenodd">
        <g id="einstein_hair_template-for-hairstyles" opacity=".184" transform="translate(1.000000, 0.000000)">
            <mask id="einstein_hair_hairstyleeinstein-hair-mask-2" fill="#fff">
                <use xlink:href="#einstein_hair_hairstyleeinstein-hair-path-1" />
            </mask>
            <g id="einstein_hair_Mask-Hair" />
        </g>
        <g id="einstein_hair_Einstein" transform="translate(18.100000, -11.600000)">
            <path d="M213.8679,72.5843 C205.2769,69.5873 192.7449,60.5973 193.2899,58.5533 C193.8349,56.5103 207.5929,68.7703 209.7719,63.1853 C211.9519,57.6003 208.4099,47.9283 200.3729,44.2513 C192.3359,40.5723 175.1729,40.1643 173.1299,37.9843 C171.0859,35.8053 179.2599,37.5763 184.5719,33.3533 C189.8849,29.1303 183.8899,23.1373 170.3889,24.2263 C166.4679,24.5433 163.4579,23.4093 163.8659,21.6383 C164.2749,19.8673 173.8099,18.6413 172.4479,15.3723 C171.0859,12.1033 165.3649,9.1063 159.2349,10.0603 C153.1049,11.0133 145.8859,21.5023 141.6629,20.1403 C137.4399,18.7773 136.6229,15.1003 139.0739,11.4223 C141.5259,7.7443 143.1609,0.6153 138.2579,0.0253 C133.3529,-0.5647 128.4489,9.6513 126.5429,11.4223 C124.6359,13.1923 121.6389,10.4683 122.8639,6.6543 C124.0909,2.8403 125.0439,-0.0327 120.4129,1.85828358e-05 C115.7809,0.0333 111.6949,8.2893 111.2859,12.7843 C110.8769,17.2793 109.1059,19.4593 108.0159,15.9173 C106.9269,12.3753 100.9329,0.0333 96.7099,0.0333 C92.4879,0.0333 84.0419,-0.4297 86.6299,5.5643 C89.2189,11.5583 95.8929,17.1433 94.2589,20.8213 C92.6239,24.4993 86.1469,23.0003 86.1469,23.0003 C86.1469,23.0003 74.0979,9.6513 68.3769,9.3783 C62.6559,9.1063 61.0209,11.0133 64.0179,13.8743 C67.0139,16.7343 72.8719,22.1833 67.9679,22.1833 C63.0639,22.1833 56.1169,16.8713 48.0799,20.8213 C40.0429,24.7713 38.1359,25.0433 40.9969,27.3593 C43.8569,29.6753 47.3989,30.9013 50.9409,32.6723 C54.4819,34.4423 52.7119,37.8483 50.6679,37.8483 C48.6249,37.8483 35.9569,40.7093 30.0989,43.1613 C24.2419,45.6133 17.8399,47.6563 18.6569,51.4703 C19.4739,55.2843 18.1119,59.9163 20.5639,60.3243 C23.0159,60.7333 31.7339,56.2383 32.5509,59.0983 C33.3679,61.9593 25.7399,65.2283 20.5639,67.4083 C15.3879,69.5873 5.5799,81.4383 4.4899,84.7083 C3.3999,87.9773 3.8089,91.2463 5.9889,91.3823 C8.1679,91.5193 16.8859,84.7083 19.2019,87.4323 C21.5169,90.1563 12.5269,92.8813 11.1649,95.8773 C9.8029,98.8743 10.8919,102.4163 9.9389,106.2303 C8.9849,110.0443 1.2209,116.7193 1.7659,121.6233 C2.3099,126.5273 -1.9121,139.0593 1.0849,140.4213 C4.0809,141.7833 8.1679,142.6073 9.6659,141.5833 C11.1649,140.5573 11.7099,128.9603 15.1149,129.5833 C18.5209,130.2053 11.2589,148.3223 13.8679,150.9103 C16.4769,153.4983 22.6069,143.6903 24.5139,146.6873 C26.4209,149.6843 22.0619,163.3063 21.1089,168.3463 C20.1549,173.3863 18.2479,186.7353 21.5169,188.6433 C24.7869,190.5503 32.8239,193.1383 34.3219,190.8223 C35.8209,188.5063 33.0959,179.1073 33.9129,177.6083 C34.7309,176.1103 40.0429,172.0233 41.2689,175.7023 C42.4949,179.3803 39.7709,190.0953 43.8569,191.7533 C47.9439,193.4103 47.8079,196.8153 50.1229,199.9493 C52.4389,203.0823 64.4269,202.7533 65.3799,198.6683 C66.3339,194.5823 70.5559,190.0053 73.4169,195.4533 C76.2779,200.9023 83.3609,204.7173 85.5399,204.3083 C86.3459,204.1563 88.0459,203.3463 89.8679,202.3843 L89.8679,192.1593 C72.3379,183.8313 59.8199,166.6633 58.0769,146.4163 C52.2999,145.5513 47.8679,140.5673 47.8679,134.5483 L47.8679,121.5483 C47.8679,116.6123 50.8529,112.3803 55.1129,110.5383 C56.4189,111.3883 58.0389,113.9083 58.3399,121.1153 C58.3969,122.4923 59.5339,123.5833 60.9109,123.5833 L60.9109,123.5833 C62.3179,123.5833 63.4629,122.4633 63.4869,121.0573 C63.6549,110.8063 65.4279,72.5773 82.3889,66.7273 C104.8939,58.9633 109.5029,76.4863 113.8709,76.5323 L113.8709,76.5423 C118.2449,76.5423 122.8359,58.9613 145.3709,66.7343 C162.3319,72.5853 164.1039,110.8133 164.2729,121.0643 C164.2969,122.4713 165.4419,123.5903 166.8479,123.5903 C168.2259,123.5903 169.3629,122.5003 169.4199,121.1233 C169.7209,113.9193 171.3399,111.3973 172.6449,110.5473 C176.8929,112.3943 179.8679,116.6203 179.8679,121.5483 L179.8679,134.5483 C179.8679,140.5673 175.4369,145.5513 169.6599,146.4163 C167.9169,166.6633 155.3989,183.8313 137.8689,192.1593 L137.8689,195.8743 C139.1169,195.6473 140.2229,195.7213 140.9809,196.4073 C143.8429,198.9953 146.5659,199.8133 148.7459,197.2253 C150.9259,194.6373 152.1509,183.8753 156.9189,187.2803 C161.6869,190.6863 164.1919,197.3603 168.3889,196.9523 C172.5849,196.5433 178.0329,182.5133 181.1659,183.7383 C184.2999,184.9653 181.1659,193.1383 186.3429,193.5473 C191.5179,193.9553 189.3399,178.1533 191.7909,178.0183 C194.2429,177.8813 197.1029,184.1473 200.0999,182.2403 C203.0969,180.3333 203.3699,168.2183 198.8749,163.5833 C194.3799,158.9473 190.4299,150.0263 194.2429,149.5833 C198.0569,149.1393 200.0999,163.3063 203.9149,160.8543 C207.7289,158.4023 213.8589,146.3363 210.8619,142.9703 C207.8649,139.6043 194.2429,123.6503 198.3299,123.5903 C202.4159,123.5303 209.7719,133.3193 212.6329,129.5833 C215.4929,125.8463 215.9209,117.1273 213.8679,110.5893 C211.8149,104.0513 202.1439,91.5193 204.0509,89.2033 C205.9579,86.8873 216.1749,99.5973 218.7629,93.5833 C221.3499,87.5683 222.4599,75.5813 213.8679,72.5843" id="einstein_hair_Hair-Color" fill="#F59797" ns2:color="Hair-500" />
            <path d="M96.3728,50.4217 C93.3698,48.0317 89.8008,46.3437 87.1058,43.5727 C85.6808,42.1067 84.8208,40.3267 83.8978,38.5267 C83.0188,36.8127 81.9628,35.2247 80.6238,33.8327 C78.0258,31.1297 74.6438,29.2637 71.1228,28.0547 C66.3568,26.4197 61.2578,26.0287 56.2678,25.6567 C54.3418,25.5127 54.3518,28.5137 56.2678,28.6567 C63.7268,29.2137 72.0618,29.9207 77.8178,35.2817 C79.0748,36.4527 80.0948,37.7827 80.9148,39.2907 C81.8178,40.9537 82.5588,42.6877 83.7128,44.2037 C85.8628,47.0277 88.9048,48.9027 91.8218,50.8367 C94.9238,52.8927 98.6428,55.6207 99.1758,59.6087 C99.2838,60.4177 99.7878,61.0987 100.6758,61.1087518 C101.4028,61.1157 102.2828,60.4117 102.1758,59.6087 C101.6618,55.7637 99.3468,52.7887 96.3728,50.4217" id="einstein_hair_Fill-4" fill-opacity=".3" fill="#FFF" />
            <path d="M112.7542,43.0193 C111.2122,39.7513 109.7352,36.3643 109.5452,32.7063 C109.3772,29.4673 109.6082,25.9323 107.0892,23.4793 C105.7052,22.1323 103.5812,24.2513 104.9672,25.6013 C107.0982,27.6753 106.3462,31.3663 106.6562,34.0473 C107.0522,37.4873 108.3662,40.6763 109.8152,43.7903 C111.2592,46.8943 112.8612,49.9503 113.7172,53.2833 C114.7002,57.1063 114.5812,61.0923 113.5072,64.8803 C112.9812,66.7413 115.8752,67.5353 116.4002,65.6773 C117.5152,61.7413 117.6902,57.6073 116.8682,53.5963 C116.1042,49.8683 114.3662,46.4353 112.7542,43.0193" id="einstein_hair_Fill-6" fill-opacity=".3" fill="#FFF" />
            <path d="M128.572,27.5306 C126.495,31.4386 125.57,35.5906 125.335,39.9876 C125.084,44.7006 124.989,49.4266 124.822,54.1436 C124.755,56.0746 127.755,56.0726 127.822,54.1436 C127.978,49.7386 128.104,45.3296 128.292,40.9256 C128.469,36.7326 129.176,32.7826 131.163,29.0446 C132.068,27.3406 129.479,25.8226 128.572,27.5306" id="einstein_hair_Fill-8" fill-opacity=".3" fill="#FFF" />
            <path d="M154.8767,29.7718 C149.1957,30.3908 146.4527,36.2168 144.2247,40.7788 C142.8637,43.5638 141.6647,46.4238 140.5957,49.3328 C139.8667,51.3148 139.0087,54.0408 136.7747,54.7578 C134.9447,55.3468 135.7277,58.2438 137.5727,57.6508 C139.8307,56.9258 141.3107,55.1598 142.3017,53.0678 C143.5107,50.5128 144.3227,47.7788 145.4667,45.1918 C146.6507,42.5108 147.9367,39.8288 149.4697,37.3278 C150.6737,35.3628 152.3937,33.0428 154.8767,32.7718 C156.7747,32.5648 156.7967,29.5628 154.8767,29.7718" id="einstein_hair_Fill-10" fill-opacity=".3" fill="#FFF" />
            <path d="M181.4539,52.3338 C183.1849,51.4798 181.6669,48.8908 179.9399,49.7438 C177.6799,50.8588 175.1309,50.9218 172.6639,51.0668 C170.1409,51.2148 167.6519,51.4758 165.2959,52.4428 C160.8639,54.2618 157.3699,57.6848 153.0499,59.7098 C151.3029,60.5288 152.8239,63.1158 154.5629,62.2998 C158.8599,60.2868 162.3299,56.6818 166.8119,55.0548 C171.5669,53.3288 176.8189,54.6218 181.4539,52.3338" id="einstein_hair_Fill-12" fill-opacity=".3" fill="#FFF" />
            <path d="M178.8464,71.6028 C185.1654,73.0838 191.2904,75.9208 196.8744,79.1788 C198.5464,80.1538 200.0584,77.5618 198.3894,76.5888 C192.5994,73.2108 186.1954,70.2458 179.6444,68.7098 C176.1934,67.9008 173.1094,68.2988 169.7374,69.2418 C166.1394,70.2478 162.7424,70.2758 159.0364,70.0228 C157.1104,69.8918 157.1174,72.8928 159.0364,73.0228 C162.3784,73.2508 165.6884,73.3708 168.9664,72.5578 C170.6124,72.1498 172.2244,71.5808 173.9024,71.3088 C175.5574,71.0408 177.2244,71.2228 178.8464,71.6028" id="einstein_hair_Fill-14" fill-opacity=".3" fill="#FFF" />
            <path d="M202.157,97.1272 C196.309,87.2822 185.392,80.9622 173.946,80.7792 C172.014,80.7482 172.014,83.7482 173.946,83.7792 C184.341,83.9452 194.259,89.7052 199.566,98.6412 C200.552,100.2992 203.146,98.7922 202.157,97.1272" id="einstein_hair_Fill-16" fill-opacity=".3" fill="#FFF" />
            <path d="M187.8289,104.221 C184.3359,99.867 179.3679,96.974 174.4839,94.438 C172.7729,93.55 171.2549,96.138 172.9709,97.029 C177.6309,99.449 182.3999,102.154 185.7079,106.342 C189.2109,110.778 190.2399,116.569 193.0979,121.375 C194.0829,123.033 196.6779,121.526 195.6869,119.861 C192.6829,114.805 191.5639,108.876 187.8289,104.221" id="einstein_hair_Fill-18" fill-opacity=".3" fill="#FFF" />
            <path d="M184.8816,137.4031 C184.2916,135.5731 181.3946,136.3561 181.9886,138.2001 C184.3216,145.4391 186.2736,152.7931 187.8366,160.2361 C188.2336,162.1251 191.1246,161.3251 190.7296,159.4391 C189.1666,151.9951 187.2146,144.6421 184.8816,137.4031" id="einstein_hair_Fill-20" fill-opacity=".3" fill="#FFF" />
            <path d="M173.1042,156.5662 C173.3252,159.9552 174.3312,163.1932 174.8692,166.5312 C175.3182,169.3182 175.2922,172.3282 173.8192,174.8172 C172.8332,176.4832 175.4242,177.9932 176.4092,176.3322 C180.1452,170.0242 176.5352,163.1642 176.1042,156.5662 C175.9792,154.6492 172.9782,154.6352 173.1042,156.5662" id="einstein_hair_Fill-22" fill-opacity=".3" fill="#FFF" />
            <path d="M162.9988,174.4495 C161.7028,178.6805 160.2208,182.8505 158.5548,186.9505 C158.2488,187.7015 158.8858,188.5985 159.6018,188.7965 C160.4598,189.0315 161.1408,188.5015 161.4468,187.7485 C163.1128,183.6485 164.5958,179.4785 165.8918,175.2475 C166.4588,173.3975 163.5628,172.6065 162.9988,174.4495" id="einstein_hair_Fill-24" fill-opacity=".3" fill="#FFF" />
            <path d="M70.6931,47.4158 C69.5811,46.0498 68.3771,44.7228 66.7761,43.9258 C65.2081,43.1448 63.4501,42.8538 61.7111,42.8448 C57.8061,42.8258 53.8781,43.8278 50.0351,44.4108 C45.9311,45.0338 41.7141,45.4348 37.5921,44.7518 C35.7031,44.4398 34.8911,47.3308 36.7941,47.6448 C44.5841,48.9348 51.9481,46.6878 59.6441,45.9508 C61.2591,45.7948 62.9411,45.7358 64.5071,46.2288 C66.1351,46.7418 67.2521,47.9408 68.3121,49.2188 C70.8321,52.2598 73.1461,55.4778 75.3281,58.7668 C76.3901,60.3688 78.9891,58.8678 77.9181,57.2528 C75.6691,53.8618 73.2631,50.5718 70.6931,47.4158" id="einstein_hair_Fill-26" fill-opacity=".3" fill="#FFF" />
            <path d="M61.6965,65.512 C58.3815,65.167 55.0675,64.823 51.7525,64.477 C50.1775,64.314 48.6025,64.15 47.0285,63.986 C45.4855,63.825 43.9215,63.578 42.3855,63.935 C39.7615,64.545 38.0905,66.95 36.1175,68.586 C34.0195,70.327 31.4875,71.718 28.7385,71.99 C26.8345,72.179 26.8155,75.18 28.7385,74.99 C31.4775,74.719 34.0115,73.741 36.2845,72.191 C37.3575,71.46 38.3745,70.635 39.3235,69.75 C40.2935,68.845 41.1915,67.706 42.3995,67.107 C43.7305,66.447 45.3655,66.813 46.7795,66.96 C48.4375,67.133 50.0945,67.305 51.7525,67.477 C55.0675,67.823 58.3815,68.167 61.6965,68.512 C63.6145,68.712 63.6005,65.71 61.6965,65.512" id="einstein_hair_Fill-28" fill-opacity=".3" fill="#FFF" />
            <path d="M58.179,78.1995 C50.332,79.0945 43.363,82.7985 37.242,87.6465 C34.144,90.0995 31.278,92.8275 28.491,95.6225 C26.039,98.0805 22.891,101.0175 23.391,104.8405 C23.497,105.6505 24.005,106.3315 24.891,106.340552 C25.621,106.3475 26.497,105.6435 26.391,104.8405 C25.954,101.5035 29.446,98.8905 31.563,96.7965 C34.051,94.3355 36.616,91.9405 39.363,89.7685 C44.798,85.4695 51.205,81.9945 58.179,81.1995 C60.075,80.9835 60.097,77.9805 58.179,78.1995" id="einstein_hair_Fill-30" fill-opacity=".3" fill="#FFF" />
            <path d="M34.4919,112.9988 C36.0389,111.7178 37.3459,110.1918 38.6599,108.6808 C41.2019,105.7568 43.9569,103.3068 47.2869,101.3068 C50.6569,99.2828 54.2669,97.6978 57.8629,96.1238 C59.6269,95.3518 58.1019,92.7658 56.3479,93.5338 C52.6259,95.1628 48.8869,96.8058 45.4149,98.9338 C41.8839,101.0968 38.9629,103.7698 36.2569,106.8848 C34.9469,108.3918 33.6219,109.8978 32.0489,111.1388 C30.4089,112.4318 28.5799,113.4678 26.8889,114.6898 C23.5909,117.0738 21.1439,120.0858 19.9629,124.0238 C19.4079,125.8768 22.3029,126.6688 22.8559,124.8218 C24.0429,120.8628 26.7689,118.3318 30.1159,116.1068 C31.6069,115.1158 33.1109,114.1428 34.4919,112.9988" id="einstein_hair_Fill-32" fill-opacity=".3" fill="#FFF" />
            <path d="M41.3586,129.1854 C38.1946,130.8254 35.7426,133.6094 34.1036,136.7404 C32.5506,139.7074 31.9686,143.4474 29.4196,145.7914 C27.9956,147.1014 30.1216,149.2184 31.5406,147.9134 C34.1576,145.5064 34.8776,142.0254 36.3526,138.9374 C37.7806,135.9474 39.8956,133.3184 42.8726,131.7754 C44.5876,130.8874 43.0726,128.2974 41.3586,129.1854" id="einstein_hair_Fill-34" fill-opacity=".3" fill="#FFF" />
            <path d="M48.6453,149.5066 C46.0833,154.5866 44.1273,159.9366 42.1923,165.2776 C41.9163,166.0396 42.5033,166.9206 43.2403,167.1226 C44.0743,167.3516 44.8083,166.8396 45.0853,166.0756 C46.9333,160.9756 48.7903,155.8716 51.2363,151.0206 C52.1033,149.3006 49.5163,147.7806 48.6453,149.5066" id="einstein_hair_Fill-36" fill-opacity=".3" fill="#FFF" />
            <path d="M56.0955,166.2381 C55.4725,168.1411 55.1105,170.1281 55.0405,172.1311 C54.9725,174.0701 55.3895,175.9611 55.4055,177.8921 C55.4305,181.2631 52.3555,183.4511 51.8465,186.7001 C51.7205,187.5071 52.0535,188.3041 52.8945,188.5451 C53.6045,188.7491 54.6145,188.2971 54.7395,187.4981 C54.9905,185.8991 55.9155,184.6411 56.7415,183.2901 C57.6185,181.8541 58.2615,180.3671 58.3835,178.6671 C58.5225,176.7351 58.0355,174.8111 58.0285,172.8781 C58.0215,170.8751 58.3665,168.9351 58.9885,167.0351 C59.5905,165.1961 56.6945,164.4081 56.0955,166.2381" id="einstein_hair_Fill-38" fill-opacity=".3" fill="#FFF" />
            <path d="M68.845,184.1731 C68.611,183.6111 68.454,183.0241 68.355,182.4231 C68.296,181.8481 68.295,181.2711 68.362,180.6961 C68.362,180.6941 68.362,180.6941 68.363,180.6931 C68.433,180.2851 68.427,179.9051 68.211,179.5361 C68.029,179.2261 67.673,178.9291 67.315,178.8471 C66.931,178.7601 66.5,178.7781 66.159,178.9981 C65.849,179.1981 65.535,179.5171 65.47,179.8951 C65.318,180.7771 65.253,181.6541 65.358,182.5451 C65.417,183.0401 65.491,183.5311 65.622,184.0141 C65.752,184.4911 65.939,184.9451 66.134,185.4011 C66.272,185.7211 66.711,186.0021 67.031,186.0901 C67.39,186.1891 67.868,186.1441 68.186,185.9391 C68.507,185.7321 68.789,185.4241 68.876,185.0421 C68.894,184.9091 68.911,184.7771 68.929,184.6431 C68.929,184.4431 68.879,184.2561 68.804,184.0751 C68.818,184.1091 68.831,184.1411 68.845,184.1731" id="einstein_hair_Fill-40" fill-opacity=".3" fill="#FFF" />
        </g>
        <path d="M71.6635564,132.5 C73.2228944,133.678221 75.0788001,134.484556 77.0992188,134.787076 C78.8422188,155.034076 91.3602188,172.202076 108.890219,180.530076 L108.890219,180.530076 L108.890219,190.755076 C107.068219,191.717076 105.368219,192.527076 104.562219,192.679076 C102.383219,193.088076 95.3002188,189.273076 92.4392188,183.824076 C90.7410229,180.590322 88.5633167,180.888597 86.8741482,182.519722 C76.6771731,171.566716 71.6062589,155.105494 71.6604294,133.138376 Z M193.379301,133.016416 C193.205515,153.287291 188.787354,168.878427 180.124815,179.789822 C178.883318,178.301536 177.539393,176.792725 175.941219,175.651076 C171.173219,172.246076 169.948219,183.008076 167.768219,185.596076 C165.588219,188.184076 162.865219,187.366076 160.003219,184.778076 C159.245219,184.092076 158.139219,184.018076 156.891219,184.245076 L156.891219,184.245076 L156.891219,180.530076 C174.421219,172.202076 186.939219,155.034076 188.682219,134.787076 C190.346778,134.537839 191.89959,133.946634 193.266855,133.087235 Z" id="einstein_hair_Combined-Shape" fill-opacity=".16" fill="#000" />
        <g id="einstein_hair_Facial-Hair" transform="translate(49.000000, 72.000000)" />
        <g id="einstein_hair_Accessory" transform="translate(62.000000, 85.000000)"><defs>
        <filter x="-3.1%" y="-9.8%" width="106.2%" height="119.5%" filterUnits="objectBoundingBox" id="wayfarers_filter-1">
            <feOffset dx="0" dy="2" in="SourceAlpha" result="shadowOffsetOuter1" />
            <feColorMatrix values="0 0 0 0 0   0 0 0 0 0   0 0 0 0 0  0 0 0 0.2 0" type="matrix" in="shadowOffsetOuter1" result="shadowMatrixOuter1" />
            <feMerge>
                <feMergeNode in="shadowMatrixOuter1" />
                <feMergeNode in="SourceGraphic" />
            </feMerge>
        </filter>
        <linearGradient x1="50%" y1="0%" x2="50%" y2="100%" id="wayfarers_linearGradient-2">
            <stop stop-color="#FFFFFF" stop-opacity="0.5" offset="0%" />
            <stop stop-color="#000000" stop-opacity="0.5" offset="70.5058195%" />
        </linearGradient>
        <path d="M44.9178864,17.5714286 C44.9178864,27.2737857 36.66775,35.1428571 22.9204545,35.1428571 L20.1704091,35.1428571 C6.42311364,35.1428571 0.923022727,27.2708571 0.923022727,17.5714286 L0.923022727,17.5714286 C0.923022727,7.86614286 2.20715909,0 21.4545455,0 L24.3863636,0 C43.63375,0 44.9178864,7.86614286 44.9178864,17.5714286 L44.9178864,17.5714286 Z" id="wayfarers_path-3" />
        <path d="M106.486068,17.5714286 C106.486068,27.2737857 98.2388636,35.1428571 84.4886364,35.1428571 L81.7385909,35.1428571 C67.9912955,35.1428571 62.4912045,27.2708571 62.4912045,17.5714286 L62.4912045,17.5714286 C62.4912045,7.86614286 63.7753409,0 83.0227273,0 L85.9545455,0 C105.199,0 106.486068,7.86614286 106.486068,17.5714286 L106.486068,17.5714286 Z" id="wayfarers_path-4" />
    </defs>
    <g id="wayfarers_Top/_Resources/Wayfarers" stroke="none" stroke-width="1" fill="none" fill-rule="evenodd">
        <g id="wayfarers_Wayfarers" filter="url(#wayfarers_filter-1)" transform="translate(7.000000, 7.000000)" fill-rule="nonzero">
            <g id="wayfarers_Shades" transform="translate(10.795455, 2.928571)">
                <g id="wayfarers_Shade">
                    <use fill-opacity="0.700000048" fill="#000000" xlink:href="#wayfarers_path-3" />
                    <use fill="url(#linearGradient-2)" style="mix-blend-mode: screen;" xlink:href="#wayfarers_path-3" />
                </g>
                <g id="wayfarers_Shade">
                    <use fill-opacity="0.700000048" fill="#000000" xlink:href="#wayfarers_path-4" />
                    <use fill="url(#linearGradient-2)" style="mix-blend-mode: screen;" xlink:href="#wayfarers_path-4" />
                </g>
            </g>
            <path d="M35.1818182,0 C56.8332955,0 58.6451591,10.127 58.6451591,20.5 C58.6451591,32.5686429 48.3955227,41 33.7159091,41 L30.9658636,41 C17.0778409,41 8.78665909,33.3359286 8.78665909,20.5 C8.78665909,10.127 10.5985227,0 32.25,0 L35.1818182,0 Z M35.1818182,5.85421429 L32.25,5.85421429 C14.6502955,5.85421429 14.6502955,12.3175714 14.6502955,20.5 C14.6502955,27.1800714 17.4795,35.1428571 30.9658636,35.1428571 L33.7159091,35.1428571 C44.9418409,35.1428571 52.7815227,29.1217143 52.7815227,20.5 L52.7810475,19.768351 C52.765683,11.935587 52.2535316,5.85421429 35.1818182,5.85421429 Z" id="wayfarers_Left" fill="#252C2F" />
            <path d="M96.75,0 C118.401477,0 120.213341,10.127 120.213341,20.5 C120.213341,32.5686429 109.963705,41 95.2840909,41 L92.5340455,41 C78.6460227,41 70.3548409,33.3359286 70.3548409,20.5 C70.3548409,10.127 72.1667045,0 93.8181818,0 L96.75,0 Z M96.75,5.85421429 L93.8181818,5.85421429 C76.2184773,5.85421429 76.2184773,12.3175714 76.2184773,20.5 C76.2184773,27.1800714 79.0506136,35.1428571 92.5340455,35.1428571 L95.2840909,35.1428571 C106.510023,35.1428571 114.349705,29.1217143 114.349705,20.5 L114.349229,19.768351 C114.333865,11.935587 113.821713,5.85421429 96.75,5.85421429 Z" id="wayfarers_Right" fill="#252C2F" />
            <path d="M2.93181818,5.85714286 C3.61786364,5.17185714 11.1233182,0 32.25,0 C49.9640455,0 53.7138409,1.88014286 59.3898409,4.72085714 L59.8053162,4.93054903 C60.1999353,5.07314243 62.2179351,5.77419634 64.5784525,5.85128811 C66.7290156,5.75689949 68.5684809,5.16080623 69.1059926,4.96981137 C75.5844654,1.74762081 81.9260118,0 96.75,0 C117.876682,0 125.382136,5.17185714 126.068182,5.85714286 C127.689477,5.85714286 129,7.16621429 129,8.78571429 L129,11.7142857 C129,13.3337857 127.689477,14.6428571 126.068182,14.6428571 C126.068182,14.6428571 120.204545,14.6428571 120.204545,17.5714286 C120.204545,20.5 117.272727,13.3337857 117.272727,11.7142857 L117.272727,8.8618831 C113.697201,7.46243482 107.296654,5.85714286 96.75,5.85714286 C84.9995538,5.85714286 79.1475515,6.98813142 74.1276604,9.10414393 L74.1837955,9.24257143 L71.6878772,10.2500422 L74.1813177,11.2582547 L71.981173,16.6874536 L69.263564,15.5885995 C69.0208516,15.4904597 68.4971539,15.3141463 67.770994,15.1309826 C65.7466083,14.6203594 63.6653786,14.4649153 61.8248214,14.8513001 C61.1495627,14.993056 60.5230576,15.2057795 59.9480988,15.4931011 L57.3260941,16.8033836 L54.7026238,11.5651815 L57.3246285,10.2548989 L57.3310023,10.251716 L54.8191364,9.23671429 L54.8992448,9.03890561 C50.5700368,6.97578666 46.5781927,5.85714286 32.25,5.85714286 C21.7038986,5.85714286 15.3034993,7.46145875 11.7272727,8.86093383 L11.7272727,11.7142857 C11.7272727,13.3337857 8.79545455,20.5 8.79545455,17.5714286 C8.79545455,14.6428571 2.93181818,14.6428571 2.93181818,14.6428571 C1.31345455,14.6428571 0,13.3337857 0,11.7142857 L0,8.78571429 C0,7.16621429 1.31345455,5.85714286 2.93181818,5.85714286 Z" id="wayfarers_Stuff" fill="#252C2F" />
        </g>
    </g>
</g>
    </g>
</g>
    </g>
</svg>