<svg xmlns="http://www.w3.org/2000/svg" xmlns:xlink="http://www.w3.org/1999/xlink" width="264px" height="280px" viewBox="0 0 264 280" version="1.1">
    <title id="transparent_Title">Avataaar/Default</title>
    <desc>Created with python_avatars</desc>
    <defs>
        <path d="M100,0 C130.927946,-5.68137151e-15 156,25.072054 156,56 L156.000809,62.1660527 C161.675838,63.1185422 166,68.05429 166,74 L166,88 C166,94.0524166 161.519235,99.0582945 155.693975,99.8813638 C153.627928,119.686472 141.237929,136.421678 124.001014,144.610469 L124,163 L128,163 C167.764502,163 200,195.235498 200,235 L200,244 L0,244 L0,235 C-4.86974701e-15,195.235498 32.235498,163 72,163 L76,163 L75.9999836,144.610943 C58.7625487,136.422324 46.3721119,119.686854 44.3051107,99.8809698 C38.480765,99.0582945 34,94.0524166 34,88 L34,74 C34,68.053942 38.3246685,63.1179645 44.0001873,62.1658855 L44,56 C44,25.072054 69.072054,5.68137151e-15 100,0 Z" id="transparent_path-1" />
        <path d="M83,36.3476251 C83,52.6289957 105.161905,65.8276544 132.5,65.8276544 C159.838095,65.8276544 182,52.6289957 182,36.3476251 C182,34.9853134 181.844841,33.6445843 181.544472,32.3313638 C210.784239,41.4879251 232,68.792221 232,101.051724 L232,110 L32,110 L32,101.051724 C32,68.3970853 53.7386736,40.8197864 83.5337207,32.0021267 C83.1821692,33.4207025 83,34.871494 83,36.3476251 Z" id="transparent_path-3" />
        <rect id="transparent_path-5" x="0" y="0" width="264" height="280" />
        <path d="M74,0 C114.869071,0 148,33.1309285 148,74 L148,84.1482318 L148,197.608051 C135.525121,187.236892 119.490913,181 102,181 L102,181 L98,181 L98,162.610951 C115.530782,154.282984 128.048193,137.114792 129.791419,116.867187 C135.569129,116.002364 140,111.018625 140,105 L140,105 L140,92 C140,87.3536213 137.359271,83.3240177 133.496777,81.3301515 C132.723933,81.0500337 131.951808,80.748163 131.180891,80.4262497 C130.794819,80.3202581 130.400778,80.2331546 130,80.1659169 L130,80.1659169 L130.000458,79.9172528 C117.224481,74.2339715 104.877985,63.0706967 96.1104311,47.8848473 C93.1752556,42.8009742 90.8310687,37.5951441 89.0661426,32.3970356 C80.4313947,42.9409152 67.7445474,53.6023901 52.3415164,62.4953343 C42.777598,68.0170651 33.1467898,72.2910056 24,75.2659587 L24.0003852,137.246608 C29.6019576,148.318362 38.7728825,157.277529 50,162.610951 L50,162.610951 L50,181 L46,181 C38.3273639,181 30.9350359,182.200142 24.0004995,184.422941 L24,230 C24,244.105888 13.5691766,255.775526 0,257.716445 L0,74 C0,33.1309285 33.1309285,0 74,0 Z" id="transparent_path-7" />
    </defs>
    <g id="transparent_Avataaar/Default" stroke="none" stroke-width="1" fill="none" fill-rule="evenodd">
        <g id="transparent_Body" transform="translate(32.000000, 36.000000)">
            <mask id="transparent_mask-2" fill="white">
                <use xlink:href="#transparent_path-1" />
            </mask>
            <use fill="#D0C6AC" xlink:href="#transparent_path-1" />
            <g id="transparent_Skin-Color" mask="url(#transparent_mask-2)" fill="#D08B5B">
                <g transform="translate(-32.000000, 0.000000)" id="transparent_Color">
                    <rect x="0" y="0" width="264" height="244" />
                </g>
            </g>
            <path d="M44,94 C44,124.927946 69.072054,150 100,150 C130.927946,150 156,124.927946 156,94 L156,94 L156,102 C156,132.927946 130.927946,158 100,158 C69.072054,158 44,132.927946 44,102 Z" id="transparent_Neck-Shadow" fill-opacity="0.100000001" fill="#000000" mask="url(#transparent_mask-2)" />
        </g>
        <g id="transparent_Clothing" transform="translate(0.000000, 170.000000)">
            
        <defs>
        <path d="M99,32.5 C99,44.3741221 113.998461,54 132.5,54 C151.001539,54 166,44.3741221 166,32.5 C166,31.4019929 165.871751,30.3232102 165.624342,29.2694852 C202.75978,32.1370674 232,63.1796858 232,101.051724 L232,110 L32,110 L32,101.051724 C32,62.8342194 61.7761079,31.571298 99.3946469,29.196636 C99.1341902,30.2738104 99,31.3768477 99,32.5 Z" id="graphic_shirt_path-1" />
    </defs>
    <g id="graphic_shirt_Clothing/Graphic-Shirt" stroke="none" stroke-width="1" fill="none" fill-rule="evenodd">
        <mask id="graphic_shirt_mask-2" fill="white">
            <use xlink:href="#graphic_shirt_path-1" />
        </mask>
        <use id="graphic_shirt_Clothes" fill="#E6E6E6" xlink:href="#graphic_shirt_path-1" />
        <g id="graphic_shirt_Fabric-Color" mask="url(#graphic_shirt_mask-2)" fill="#FFFFB1">
            <rect id="graphic_shirt_ðŸ–Color" x="0" y="0" width="264" height="110" />
        </g>
        <g id="graphic_shirt_Graphic" fill="#FFFFFF" transform="translate(77.000000, 58.000000)">
        <g id="diamond_Clothing/Graphic/Diamond" stroke="none" stroke-width="1" fill="none" fill-rule="evenodd">
        <g id="diamond_Diamond" transform="translate(29.000000, 2.000000)" fill="#FFFFFF">
            <path d="M34.7804613,27.7365051 C32.3910217,30.3933795 29.9226048,32.9801662 27.4446301,35.5565142 C28.4300853,32.0044048 29.1846452,27.9785814 30.6489944,24.5994547 C31.0655115,23.6371144 30.7485963,23.5153306 31.576097,23.1057395 C32.1847753,22.8045111 33.6536519,23.1494823 34.3825567,23.1678741 C35.9404713,23.2066461 37.5335988,23.3597457 39.0789374,23.1186635 C37.6281703,24.6436945 36.1869609,26.1712109 34.7804613,27.7365051 M19.5162179,31.798118 C16.8174087,28.5164183 14.1321816,25.2302449 10.8578947,22.4814113 C12.146683,22.6176103 13.5536857,22.4376686 14.8163159,22.687201 C16.7595591,23.0714412 16.6534177,23.6778747 17.6358547,25.6458009 C19.0866218,28.5522078 20.5248129,31.434755 21.6858291,34.4689106 C20.9750337,33.5692019 20.2446197,32.6844056 19.5162179,31.798118 M10.4182378,19.266817 C11.3810563,17.6920783 11.5616476,16.294796 13.3373785,15.4865494 C15.3988361,14.5480688 18.6379102,14.7454082 20.8256308,14.5709343 C19.4553501,16.093977 17.7887788,17.6736865 17.2223558,19.6928116 C16.3480725,17.9749149 15.2599971,16.5189775 13.5521766,15.5223389 C13.3368755,15.4159645 14.7101745,20.0725781 14.8897597,20.3926954 C13.1743936,20.2967597 11.3684803,19.9850926 9.66518708,20.3012334 C9.916204,19.9562622 10.1672209,19.611291 10.4182378,19.266817 M26.8243819,14.2592673 C28.4154971,14.2945597 29.9940364,14.4183318 31.563521,14.6783029 C30.2968665,16.353451 29.9150592,18.3104416 29.4653415,20.3086895 C28.9869505,18.0509676 27.2564932,15.9473394 25.7312761,14.2607585 C26.095477,14.2602615 26.4596779,14.2597644 26.8243819,14.2592673 M23.3257392,15.3334498 C23.5601558,15.1748824 27.7826729,20.4190405 28.3923573,20.889275 C25.0798394,20.8813217 21.7743641,20.7192748 18.4658705,20.5736313 C20.3728949,19.0868752 21.4886374,16.8863171 23.3257392,15.3334498 M26.0124754,32.4289082 C25.6105465,33.7779741 25.2352788,35.1369815 24.797634,36.4756088 C23.2432407,31.7444337 20.9357965,27.288142 18.7898282,22.8020257 C22.1295103,22.8900083 25.465671,23.0107979 28.8058561,23.0575231 C27.9864041,26.2164449 26.9441054,29.3032906 26.0124754,32.4289082 M33.2416622,14.9656131 C34.5188805,16.093977 36.338879,18.4063774 36.9284418,19.1833081 C36.9867944,19.260355 37.0461531,19.3369048 37.1070209,19.4124604 C37.3177947,19.6744198 38.0733606,20.6680759 38.3701542,21.0567898 C36.1426934,20.8306199 33.8251885,20.9270528 31.5901821,20.9066727 C32.0881916,18.8527521 32.6938517,16.8952645 32.1737084,14.7787123 C32.5308668,14.8363732 32.886516,14.8985078 33.2416622,14.9656131 M40.8898811,20.5830758 C38.7323429,17.9068154 36.5199733,13.3247633 33.025858,12.5055811 C29.5538765,11.6918667 25.478247,12.0517501 21.9519372,12.2754346 C18.8773572,12.4702886 13.8690917,12.0721303 11.1572035,13.8690622 C9.76378291,14.7921334 8.73154499,16.8738902 8.2491297,18.4202955 C7.81450321,19.8131041 8.51523782,20.7048596 7.00259677,20.7048596 C6.90651615,20.7048596 9.50672951,24.3777585 9.81308082,24.66656 C12.0853121,26.8064748 14.2574385,28.8688456 16.2701013,31.2642577 C19.1047312,34.6379166 21.6747622,39.6022206 25.414864,41 C24.7292206,40.6609938 28.2067356,38.0334469 28.6242587,37.5811072 C30.7355173,35.2930636 32.8709217,33.0268914 34.9967685,30.7517718 C36.9349813,28.6779682 39.0472459,26.7209776 40.9271061,24.6004489 C42.361776,22.9824645 42.3658003,22.4262358 40.8898811,20.5830758" id="diamond_Fill-21" />
            <path d="M6.99858316,11.9999257 C7.04159508,12.0142408 6.09038895,9.95483812 6.17394084,10.0812061 C5.69932656,9.36248835 5.12830624,8.8402333 4.43566602,8.35351923 C3.70792411,7.84261755 0.1270582,7.25421678 0,7 C1.49355183,9.65224611 4.16721231,11.1276907 6.99858316,11.9999257" id="diamond_Fill-23" />
            <path d="M22.3553325,7.19614224 C22.5279973,7.84840006 22.7925782,8.44932951 23.1490753,8.99893058 C23.2186566,9.07737584 24.0076748,4.81518326 23.9999436,4.45201075 C23.9866286,3.8317121 23.6120919,0 22.814054,0 C21.4769753,0 22.1397162,6.46931298 22.3553325,7.19614224" id="diamond_Fill-25" />
            <path d="M48.969198,5 C45.977552,5 39.2896081,10.8535875 40.0615528,13.9997703 C40.0673207,14.0103781 40.50905,13.6497123 40.4129174,13.7172166 C40.4321439,13.7032335 40.4508897,13.6887683 40.4691549,13.6738209 C41.7405084,12.649202 43.1873037,11.6544779 44.4605798,10.4683308 C45.3723974,9.61874094 46.4476403,8.85642448 47.2772645,7.92727594 C47.3618612,7.83276992 49.2628831,5 48.969198,5" id="diamond_Fill-27" />
        </g>
    </g>
</g>
    </g>
</g>
        <g id="transparent_Face" transform="translate(76.000000, 82.000000)" fill="#000000">
            <g id="transparent_Mouth" transform="translate(2.000000, 52.000000)">    
                
            <defs>
        <path d="M29,15.6086957 C30.410031,25.2313711 41.062182,33 54,33 C66.9681454,33 77.6461342,25.183301 79,14.7391304 C79.1012093,14.3397326 78.775269,13 76.826087,13 C56.838426,13 41.7395748,13 31.173913,13 C29.3833142,13 28.870211,14.2404669 29,15.6086957 Z" id="tongue_path-1" />
    </defs>
    <g id="tongue_Mouth/Tongue" stroke="none" stroke-width="1" fill="none" fill-rule="evenodd">
        <mask id="tongue_mask-2" fill="white">
            <use xlink:href="#tongue_path-1" />
        </mask>
        <use id="tongue_Mouth" fill-opacity="0.699999988" fill="#000000" xlink:href="#tongue_path-1" />
        <path d="M44,2 L65,2 C67.7614237,2 70,4.23857625 70,7 L70,13 C70,15.7614237 67.7614237,18 65,18 L44,18 C41.2385763,18 39,15.7614237 39,13 L39,7 C39,4.23857625 41.2385763,2 44,2 Z" id="tongue_Teeth" fill="#FFFFFF" mask="url(#tongue_mask-2)" />
        <path d="M59.5,20 C63.0898509,20 66,21.5670034 66,23.5 C66,23.5829439 65.9946418,23.6652139 65.9841015,23.7467151 C65.9945755,23.8293228 66,23.9140279 66,24 L66,33 C66,39.0751322 61.0751322,44 55,44 L54,44 C47.9248678,44 43,39.0751322 43,33 L43,24 C43,23.9140279 43.0054245,23.8293228 43.0159499,23.7462082 C43.0053582,23.6652139 43,23.5829439 43,23.5 C43,21.5670034 45.9101491,20 49.5,20 C51.5110191,20 53.3087347,20.4917558 54.5010337,21.2641296 C55.6909749,20.4918353 57.4888185,20 59.5,20 Z" id="tongue_Tongue" fill="#FF4F6D" />
    </g>
</g>
            <g id="transparent_Nose" transform="translate(28.000000, 40.000000)" fill-opacity="0.16">
                
            <g id="wide_Nose/Wide" stroke="none" stroke-width="1" fill="none" fill-rule="evenodd"><path d="M13,6 C13,12.627417 16.8281211,18 28,18 C39.1718789,18 43,12.627417 43,6 C39.0361818,6 32.8972468,9 27.83815,9 C23.0794079,9 17.1013384,6 13,6 Z" id="wide_Nose" fill-opacity=".16" fill="#000" /></g></g>
            <g id="transparent_Eyes" transform="translate(0.000000, 8.000000)">
                
            <g id="wink_Eyes/Wink-ðŸ˜‰" stroke="none" stroke-width="1" fill="none" fill-rule="evenodd" fill-opacity="0.599999964">
        <circle id="wink_Eye" fill="#000000" cx="30" cy="22" r="6" />
        <path d="M70.4123979,24.204889 C72.2589064,20.4060854 76.4166529,17.7575774 81.2498107,17.7575774 C86.065907,17.7575774 90.2113521,20.3874194 92.0675822,24.1647016 C92.618991,25.2867751 91.8343342,26.2050591 91.0428374,25.5246002 C88.5917368,23.4173607 85.1109468,22.1013658 81.2498107,22.1013658 C77.5094365,22.1013658 74.1259889,23.3363293 71.6897696,25.3292186 C70.7990233,26.0578718 69.8723316,25.3159619 70.4123979,24.204889 Z" id="wink_Winky-Wink" fill="#000000" transform="translate(81.252230, 21.757577) rotate(-4.000000) translate(-81.252230, -21.757577) " />
    </g>
</g>
            <g id="transparent_Eyebrow" fill-opacity="0.599999964">
                
            <g id="default_Eyebrow/Outline/Default" stroke="none" stroke-width="1" fill="none" fill-rule="evenodd" fill-opacity="0.599999964">
        <g id="default_I-Browse" transform="translate(12.000000, 6.000000)" fill="#000000" fill-rule="nonzero">
            <path d="M3.63024536,11.1585767 C7.54515501,5.64986673 18.2779197,2.56083721 27.5230268,4.83118046 C28.5957248,5.0946055 29.6788665,4.43856013 29.9422916,3.36586212 C30.2057166,2.2931641 29.5496712,1.21002236 28.4769732,0.94659732 C17.7403633,-1.69001789 5.31209962,1.88699832 0.369754639,8.84142326 C-0.270109626,9.74178291 -0.0589363917,10.9903811 0.84142326,11.6302454 C1.74178291,12.2701096 2.9903811,12.0589364 3.63024536,11.1585767 Z" id="default_Eyebrow" />
            <path d="M61.6302454,11.1585767 C65.545155,5.64986673 76.2779197,2.56083721 85.5230268,4.83118046 C86.5957248,5.0946055 87.6788665,4.43856013 87.9422916,3.36586212 C88.2057166,2.2931641 87.5496712,1.21002236 86.4769732,0.94659732 C75.7403633,-1.69001789 63.3120996,1.88699832 58.3697546,8.84142326 C57.7298904,9.74178291 57.9410636,10.9903811 58.8414233,11.6302454 C59.7417829,12.2701096 60.9903811,12.0589364 61.6302454,11.1585767 Z" id="default_Eyebrow" transform="translate(73.000154, 6.039198) scale(-1, 1) translate(-73.000154, -6.039198) " />
        </g>
    </g>
</g>
        </g>
        <g id="transparent_Top">
            
        <defs>
        <path d="M133,18 C170.555563,18 201.576875,45.9764505 206.360189,82.2256031 C206.623924,84.2242503 206.827836,91.3570149 206.971924,103.623897 C206.991377,103.728785 207,103.810849 207,103.874706 L207,158 L207,158 C207,175.673112 192.673112,190 175,190 L157,190 L157,180.610951 C174.530782,172.282984 187.048193,155.114792 188.791419,134.867187 C194.569129,134.002364 199,129.018625 199,123 L199,110 C199,108.48388 198.718835,106.513303 198.205802,104.402814 C180.318197,99.0191367 162.700008,82.6930439 152.444252,59.6582378 C152.171378,59.0453546 151.905522,58.431776 151.646653,57.8176545 L151.263,56.897 L151.042157,57.4762306 C146.40281,69.4134872 137.846143,78.0997511 125.372156,83.5350224 C130.244513,77.5880409 134.394107,70.6604321 137.820938,62.752196 C129.843979,71.2579416 119.473269,79.4910638 107.341516,86.4953343 C94.9709782,93.6374678 82.4094417,98.555016 70.8702973,101.173946 C68.4906508,103.366307 67,106.509074 67,110 L67,123 C67,129.018625 71.4308707,134.002364 77.2085808,134.867187 C78.9518066,155.114792 91.4692178,172.282984 109,180.610951 L109,190 L67,190 C62.581722,190 59,186.418278 59,182 L59.0005942,102.340338 C57.3242044,102.197712 55.7583108,101.883328 54.8534901,101.273154 C51.6949619,99.1431718 50,95.0507583 50,90.5 C50,83.5964406 54.4771525,78 60,78 C66.8627142,43.8282542 96.9151011,18 133,18 Z" id="long_not_too_long_path-1" />
    </defs>
    <g id="long_not_too_long_Top/Long-Hair/Long-but-not-too-long" stroke="none" stroke-width="1" fill="none" fill-rule="evenodd" transform="translate(-1 0)">
        <g id="long_not_too_long_Behind">
            <mask id="long_not_too_long_mask-2" fill="white">
                <use xlink:href="#long_not_too_long_path-1" />
            </mask>
            <use id="long_not_too_long_Combined-Shape" fill="#944F23" xlink:href="#long_not_too_long_path-1" />
            <g id="long_not_too_long_Hair-Color" mask="url(#long_not_too_long_mask-2)" fill="#2C1B18">
                <rect id="long_not_too_long_Color" x="0" y="0" width="266" height="280" />
            </g>
        </g>
        <g id="long_not_too_long_Top" opacity="0.439990942" transform="translate(50.000000, 18.000000)" fill="#FFFFFF" fill-opacity="0.159999996">
            <path d="M82.9999943,0 C123.869071,0 156.999994,33.1309285 156.999994,74 L156.999994,88.1510343 C136.296003,86.1944823 114.38223,68.4713761 102.444252,41.6582378 C102.034942,40.738913 101.64142,39.8180234 101.263585,38.8960843 C96.6778122,51.1324394 88.0473359,60.0120855 75.3721558,65.5350224 C80.2445133,59.5880409 84.3941075,52.6604321 87.8209384,44.752196 C79.8439791,53.2579416 69.4732686,61.4910638 57.3415164,68.4953343 C41.6782753,77.5385107 25.7088267,83.0152453 11.8962575,84.7752566 C11.2824677,84.9228515 10.6484415,85 10,85 C9.98234128,85 9.96469325,84.9999428 9.94705603,84.9998285 C9.63018145,85.0332323 9.31445508,85.0640043 8.99999434,85.0927525 L8.99948924,84.9382175 C3.94641137,84.3107663 0,78.9814667 0,72.5 C0,65.5964406 4.4771525,60 10,60 C10.1082052,60 10.216009,60.0021482 10.3233856,60.0064125 C16.8624267,25.8284974 46.9149305,0 82.9999943,0 Z" id="long_not_too_long_Combined-Shape" />
        </g>
        <g id="long_not_too_long_Facial-Hair" transform="translate(49.000000, 72.000000)"><defs>
        <path d="M105.612044,67.1316942 C111.386129,69.3374281 116.495271,75.5829845 125.36175,72.8283797 C125.730639,72.7136458 126.091098,73.0449523 125.980498,73.408662 C124.607113,77.9183313 116.972736,81.0068878 114.378714,81.1080652 C103.039714,81.5495987 93.9060174,72.8306951 84.0009784,72.1615262 C74.0951698,72.8301081 64.9612417,81.5496135 53.6221945,81.1080652 C51.0278347,81.0068878 43.3937943,77.9183313 42.0204089,73.408662 C41.9094725,73.0449523 42.2699314,72.7136458 42.6388201,72.8283797 C51.5052994,75.5829845 56.6144416,69.3374281 62.3885276,67.1316942 C67.5783507,65.1488567 77.2089224,65.7112779 84.0008729,69.2973744 C90.7925576,65.7112249 100.422466,65.1489502 105.612044,67.1316942 Z" id="moustache_fancy_path-1" />
    </defs>
    <g id="moustache_fancy_Facial-Hair/Moustache-Fancy" stroke="none" stroke-width="1" fill="none" fill-rule="evenodd">
        <mask id="moustache_fancy_mask-2" fill="white">
            <use xlink:href="#moustache_fancy_path-1" />
        </mask>
        <use id="moustache_fancy_Moustache-U-a-Question" fill="#28354B" xlink:href="#moustache_fancy_path-1" />
        <g id="moustache_fancy_Facial-Hair-Color" mask="url(#moustache_fancy_mask-2)" fill="#B58143">
            <rect id="moustache_fancy_Color" x="0" y="0" width="168" height="152" />
        </g>
    </g>
</g>
        <g id="long_not_too_long_Accessory" transform="translate(62.000000, 85.000000)" />
    </g>
</g>
    </g>
</svg>