<svg xmlns="http://www.w3.org/2000/svg" xmlns:dc="http://purl.org/dc/elements/1.1/" xmlns:ns3="http://creativecommons.org/ns#" xmlns:ns5="http://design.blush" xmlns:rdf="http://www.w3.org/1999/02/22-rdf-syntax-ns#" xmlns:xlink="http://www.w3.org/1999/xlink" width="264px" height="280px" viewBox="0 0 264 280" version="1.1">
    <title id="transparent_Title">Avataaar/Default</title>
    <desc>Created with python_avatars</desc>
    <defs>
        <path d="M100,0 C130.927946,-5.68137151e-15 156,25.072054 156,56 L156.000809,62.1660527 C161.675838,63.1185422 166,68.05429 166,74 L166,88 C166,94.0524166 161.519235,99.0582945 155.693975,99.8813638 C153.627928,119.686472 141.237929,136.421678 124.001014,144.610469 L124,163 L128,163 C167.764502,163 200,195.235498 200,235 L200,244 L0,244 L0,235 C-4.86974701e-15,195.235498 32.235498,163 72,163 L76,163 L75.9999836,144.610943 C58.7625487,136.422324 46.3721119,119.686854 44.3051107,99.8809698 C38.480765,99.0582945 34,94.0524166 34,88 L34,74 C34,68.053942 38.3246685,63.1179645 44.0001873,62.1658855 L44,56 C44,25.072054 69.072054,5.68137151e-15 100,0 Z" id="transparent_path-1" />
        <path d="M83,36.3476251 C83,52.6289957 105.161905,65.8276544 132.5,65.8276544 C159.838095,65.8276544 182,52.6289957 182,36.3476251 C182,34.9853134 181.844841,33.6445843 181.544472,32.3313638 C210.784239,41.4879251 232,68.792221 232,101.051724 L232,110 L32,110 L32,101.051724 C32,68.3970853 53.7386736,40.8197864 83.5337207,32.0021267 C83.1821692,33.4207025 83,34.871494 83,36.3476251 Z" id="transparent_path-3" />
        <rect id="transparent_path-5" x="0" y="0" width="264" height="280" />
        <path d="M74,0 C114.869071,0 148,33.1309285 148,74 L148,84.1482318 L148,197.608051 C135.525121,187.236892 119.490913,181 102,181 L102,181 L98,181 L98,162.610951 C115.530782,154.282984 128.048193,137.114792 129.791419,116.867187 C135.569129,116.002364 140,111.018625 140,105 L140,105 L140,92 C140,87.3536213 137.359271,83.3240177 133.496777,81.3301515 C132.723933,81.0500337 131.951808,80.748163 131.180891,80.4262497 C130.794819,80.3202581 130.400778,80.2331546 130,80.1659169 L130,80.1659169 L130.000458,79.9172528 C117.224481,74.2339715 104.877985,63.0706967 96.1104311,47.8848473 C93.1752556,42.8009742 90.8310687,37.5951441 89.0661426,32.3970356 C80.4313947,42.9409152 67.7445474,53.6023901 52.3415164,62.4953343 C42.777598,68.0170651 33.1467898,72.2910056 24,75.2659587 L24.0003852,137.246608 C29.6019576,148.318362 38.7728825,157.277529 50,162.610951 L50,162.610951 L50,181 L46,181 C38.3273639,181 30.9350359,182.200142 24.0004995,184.422941 L24,230 C24,244.105888 13.5691766,255.775526 0,257.716445 L0,74 C0,33.1309285 33.1309285,0 74,0 Z" id="transparent_path-7" />
    </defs>
    <g id="transparent_Avataaar/Default" stroke="none" stroke-width="1" fill="none" fill-rule="evenodd">
        <g id="transparent_Body" transform="translate(32.000000, 36.000000)">
            <mask id="transparent_mask-2" fill="white">
                <use xlink:href="#transparent_path-1" />
            </mask>
            <use fill="#D0C6AC" xlink:href="#transparent_path-1" />
            <g id="transparent_Skin-Color" mask="url(#transparent_mask-2)" fill="#FFDBB4">
                <g transform="translate(-32.000000, 0.000000)" id="transparent_Color">
                    <rect x="0" y="0" width="264" height="244" />
                </g>
            </g>
            <path d="M44,94 C44,124.927946 69.072054,150 100,150 C130.927946,150 156,124.927946 156,94 L156,94 L156,102 C156,132.927946 130.927946,158 100,158 C69.072054,158 44,132.927946 44,102 Z" id="transparent_Neck-Shadow" fill-opacity="0.100000001" fill="#000000" mask="url(#transparent_mask-2)" />
        </g>
        <g id="transparent_Clothing" transform="translate(0.000000, 170.000000)">
            
        <metadata id="gladiator_metadata28">
    <rdf:RDF>
      <ns3:Work rdf:about="">
        <dc:format>image/svg+xml</dc:format>
        <dc:type rdf:resource="http://purl.org/dc/dcmitype/StillImage" />
        <dc:title />
      </ns3:Work>
    </rdf:RDF>
  </metadata>
  <defs id="gladiator_defs26" />
  <g id="gladiator_Clothing/Gladiator" stroke="none" stroke-width="1" fill="none" fill-rule="evenodd">
    <g id="gladiator_Armor" transform="translate(56.000000, 27.000000)">
      <path id="gladiator_Fill-1" d="M 43.599609 1.0859375 C 25.891609 1.0859375 14.720703 7.0800781 14.720703 7.0800781 L 14.720703 38.820312 C 14.720703 39.109747 14.746878 39.392515 14.763672 39.677734 L 0.56054688 53.388672 L 0.56054688 83.634766 L 62.761719 83.634766 L 90.458984 83.634766 L 152.66016 83.634766 L 152.66016 53.388672 L 138.69922 39.912109 C 138.72634 39.550498 138.75391 39.188863 138.75391 38.820312 L 138.75391 7.0800781 C 138.75391 7.0800781 127.58495 1.0859375 109.87695 1.0859375 L 109.87695 22.884766 L 90.458984 22.884766 L 62.761719 22.884766 L 43.599609 22.884766 L 43.599609 1.0859375 z " transform="translate(-0.56,-1.0865385)" style="fill:#60ade6;fill-opacity:1" />
      <g id="gladiator_Fabric-Color" mask="url(#gladiator_fabric-mask)" fill="#FFFFFF">
        <rect x="0" y="0" width="264" height="110" id="gladiator_rect10" />
      </g>
      <mask id="gladiator_fabric-mask" fill="white">
        <use xlink:href="#gladiator_Fill-1" id="gladiator_use13" />
        <path d="m 14.1613,5.9939 c 0,0 11.17,-5.994 28.878,-5.994 v 37.734 c 0,7.975 -6.464,14.44 -14.439,14.44 v 0 c -7.974,0 -14.439,-6.465 -14.439,-14.44 z" id="gladiator_use15" fill="#60ade6" ns5:color="Top-500" />
        <path d="m 138.1945,5.9939 c 0,0 -11.17,-5.994 -28.878,-5.994 v 37.734 c 0,7.975 6.464,14.44 14.439,14.44 7.974,0 14.439,-6.465 14.439,-14.44 z" id="gladiator_use17" fill="#60ade6" ns5:color="Top-500" />
      </mask>
      <g id="gladiator_g849">
        <path d="M36.5011,37.0515 C36.5011,40.9635 33.3301,44.1345 29.4181,44.1345 C25.5051,44.1345 22.3341,40.9635 22.3341,37.0515 C22.3341,33.1395 25.5051,29.9685 29.4181,29.9685 C33.3301,29.9685 36.5011,33.1395 36.5011,37.0515" id="gladiator_Fill-10" fill-opacity=".24" fill="#000" />
        <path d="M130.839,37.0515 C130.839,40.9635 127.667,44.1345 123.755,44.1345 C119.843,44.1345 116.672,40.9635 116.672,37.0515 C116.672,33.1395 119.843,29.9685 123.755,29.9685 C127.667,29.9685 130.839,33.1395 130.839,37.0515" id="gladiator_Fill-12" fill-opacity=".24" fill="#000" />
        <path d="M33.6227,82.5486 L62.2017,82.5486 L89.8987,82.5486 L119.0577,82.5486 C112.9127,64.8676 96.1137,52.1736 76.3397,52.1736 C56.5667,52.1736 39.7687,64.8676 33.6227,82.5486" id="gladiator_Fill-14" fill-opacity=".24" fill="#000" />
        <path id="gladiator_Fill-2-8" d="m 43.038543,21.799022 v 15.935547 c 0,7.975 -6.464453,14.439453 -14.439453,14.439453 -7.684602,0 -13.948588,-6.008382 -14.394531,-13.582031 L 11.5112,41.1916 c 0.651,8.879001 8.042891,15.886719 17.08789,15.886719 9.474001,0 17.154297,-7.680297 17.154297,-17.154297 v -18.125 z" style="fill:#000000;fill-opacity:0.23999999" />
        <path id="gladiator_Fill-6-0" d="m 106.60281,21.799022 v 18.125 c 0,9.474 7.67834,17.152344 17.15235,17.152344 9.04599,-10e-7 16.43784,-7.005766 17.08984,-15.884766 l -2.69336,-2.599609 c -0.44594,7.573649 -6.71188,13.582031 -14.39648,13.582031 -7.975,0 -14.4375,-6.464453 -14.4375,-14.439453 V 21.799022 Z" style="fill:#000000;fill-opacity:0.23999999" />
      </g>
    </g>
  </g>
</g>
        <g id="transparent_Face" transform="translate(76.000000, 82.000000)" fill="#000000">
            <g id="transparent_Mouth" transform="translate(2.000000, 52.000000)">    
                
            <defs>
        <rect id="grimace_path-1" x="24" y="9" width="60" height="22" rx="11" />
    </defs>
    <g id="grimace_Mouth/Grimace" stroke="none" stroke-width="1" fill="none" fill-rule="evenodd">
        <rect id="grimace_Mouth" fill-opacity="0.599999964" fill="#000000" x="22" y="7" width="64" height="26" rx="13" />
        <mask id="grimace_mask-2" fill="white">
            <use xlink:href="#grimace_path-1" />
        </mask>
        <use id="grimace_Mouth" fill="#FFFFFF" xlink:href="#grimace_path-1" />
        <path d="M36,6 L35.9993333,17.999 L44.9993333,17.999 L45,6 L49,6 L48.9993333,17.999 L57.9993333,17.999 L58,6 L62,6 L61.9993333,17.999 L70.9993333,17.999 L71,6 L75,6 L74.9993333,17.999 L83.8666667,18 L83.8666667,22 L74.9993333,21.999 L75,34 L71,34 L70.9993333,21.999 L61.9993333,21.999 L62,34 L58,34 L57.9993333,21.999 L48.9993333,21.999 L49,34 L45,34 L44.9993333,21.999 L35.9993333,21.999 L36,34 L32,34 L31.9993333,21.999 L24,22 L24,18 L31.9993333,17.999 L32,6 L36,6 Z" id="grimace_Grimace-Teeth" fill="#E6E6E6" mask="url(#grimace_mask-2)" />
    </g>
</g>
            <g id="transparent_Nose" transform="translate(28.000000, 40.000000)" fill-opacity="0.16">
                
            <g id="default_Nose/Default" stroke="none" stroke-width="1" fill="none" fill-rule="evenodd" fill-opacity="0.16">
        <path d="M16,8 C16,12.418278 21.372583,16 28,16 L28,16 C34.627417,16 40,12.418278 40,8" id="default_Nose" fill="#000000" />
    </g>
</g>
            <g id="transparent_Eyes" transform="translate(0.000000, 8.000000)">
                
            <g id="happy_Eyes/Happy-ðŸ˜" stroke="none" stroke-width="1" fill="none" fill-rule="evenodd" fill-opacity="0.599999964">
        <path d="M16.1601674,22.4473116 C18.006676,18.648508 22.1644225,16 26.9975803,16 C31.8136766,16 35.9591217,18.629842 37.8153518,22.4071242 C38.3667605,23.5291977 37.5821037,24.4474817 36.790607,23.7670228 C34.3395063,21.6597833 30.8587163,20.3437884 26.9975803,20.3437884 C23.2572061,20.3437884 19.8737584,21.5787519 17.4375392,23.5716412 C16.5467928,24.3002944 15.6201012,23.5583844 16.1601674,22.4473116 Z" id="happy_Squint" fill="#000000" />
        <path d="M74.1601674,22.4473116 C76.006676,18.648508 80.1644225,16 84.9975803,16 C89.8136766,16 93.9591217,18.629842 95.8153518,22.4071242 C96.3667605,23.5291977 95.5821037,24.4474817 94.790607,23.7670228 C92.3395063,21.6597833 88.8587163,20.3437884 84.9975803,20.3437884 C81.2572061,20.3437884 77.8737584,21.5787519 75.4375392,23.5716412 C74.5467928,24.3002944 73.6201012,23.5583844 74.1601674,22.4473116 Z" id="happy_Squint" fill="#000000" />
    </g>
</g>
            <g id="transparent_Eyebrow" fill-opacity="0.599999964">
                
            <g id="unibrow_natural_Eyebrow/Natural/Unibrow-Natural" stroke="none" stroke-width="1" fill="none" fill-rule="evenodd" fill-opacity="0.599999964">
        <path d="M57.000525,12 C56.999825,11.9961 56.999825,11.9961 57.000525,12 M96.2812935,8.14993193 C97.7243204,8.76008291 105.241692,14.8939029 103.822605,17.5722412 C103.563259,18.0619945 102.91024,18.1443003 102.524546,17.7511372 C101.997542,17.2147893 100.987756,16.584232 100.86041,16.507708 C95.8563653,13.4967455 89.636055,14.1895424 84.1715051,15.0153209 C78.0153663,15.945512 71.9486685,18.0766191 65.7030886,17.0505179 C64.112573,16.7893996 61.3100901,16.0581965 59.4577569,14.8912505 C59.2166111,15.3812089 58.7733181,15.7165315 58.0750241,15.6547468 C55.8451696,15.4574504 57.5922879,12 58.7633758,12 C58.9879322,12 59.1830493,12.1416326 59.3360395,12.3691906 C60.6258515,12.2076142 61.9177831,11.6174215 63.2409655,11.2908151 C66.9279989,10.3803501 70.6888462,9.98718701 74.4284137,9.38927986 C81.0899445,8.32440654 89.7471082,5.39200867 96.2812935,8.14993193 Z" id="unibrow_natural_Kahlo" fill="#000000" transform="translate(80.500000, 12.500000) rotate(-2.000000) translate(-80.500000, -12.500000) " />
        <path d="M54.999475,12 C55.000175,11.9961 55.000175,11.9961 54.999475,12 M15.7187065,8.14993193 C22.2528918,5.39200867 30.9100555,8.32440654 37.5715863,9.38927986 C41.3111538,9.98718701 45.0720011,10.3803501 48.7590345,11.2908151 C50.2416282,11.6567696 51.6849876,12.3536477 53.1313394,12.4128263 C53.8325707,12.4413952 54.2674737,13.2763566 53.8149484,13.8242681 C52.3320222,15.6179895 48.3271239,16.7172136 46.2969114,17.0505179 C40.0513315,18.0766191 33.9846337,15.945512 27.8284949,15.0153209 C22.363945,14.1895424 16.1436347,13.4967455 11.1395899,16.507708 C11.0122444,16.584232 10.0024581,17.2147893 9.47545402,17.7511372 C9.0897602,18.1443003 8.43674067,18.0619945 8.17739482,17.5722412 C6.75830756,14.8939029 14.2756796,8.76008291 15.7187065,8.14993193 Z M54.9339874,11 C56.1050753,11 57.8521936,15.4015737 55.6223391,15.6527457 C53.3924847,15.9039176 53.7628995,11 54.9339874,11 Z" id="unibrow_natural_Frida" fill="#000000" transform="translate(32.348682, 12.500000) rotate(2.000000) translate(-32.348682, -12.500000) " />
    </g>
</g>
        </g>
        <g id="transparent_Top">
            
        <defs>
        <path d="M264,0 L264,280 L232,280 L232,271 C232,231.235498 199.764502,199 160,199 L160,199 L156,199 L156.001014,180.610469 C173.531251,172.282329 186.048207,155.114429 187.791415,134.867236 C193.568906,134.002616 198,129.018777 198,123 L198,123 L198,110 C198,104.05429 193.675838,99.1185422 188.000809,98.1660527 L188,92 C188,61.072054 162.927946,36 132,36 C101.072054,36 76,61.072054 76,92 L76,92 L76.0001873,98.1658855 C70.3246685,99.1179645 66,104.053942 66,110 L66,110 L66,123 C66,129.018777 70.4310943,134.002616 76.2090181,134.867253 C77.9518263,155.114813 90.4692242,172.28298 107.999984,180.610943 L108,199 L104,199 C64.633143,199 32.6454629,230.594012 32.0096459,269.809348 L32,271 L32,280 L0,280 L0,0 L264,0 Z" id="twist_long_hair_hairstyletwist-long-hair-path-1" />
    </defs>
    <g id="twist_long_hair_Hairstyle/Twist Long hair" stroke="none" stroke-width="1" fill="none" fill-rule="evenodd">
        <g id="twist_long_hair_template-for-hairstyles" opacity=".184" transform="translate(1.000000, 0.000000)">
            <mask id="twist_long_hair_hairstyletwist-long-hair-mask-2" fill="#fff">
                <use xlink:href="#twist_long_hair_hairstyletwist-long-hair-path-1" />
            </mask>
            <g id="twist_long_hair_Mask-Hair" />
        </g>
        <g id="twist_long_hair_Group-51" transform="translate(75.000000, 33.000000)">
            <g id="twist_long_hair_Hair-Color" fill="#D6B370">
                <path d="M113.9408,49.3483 C113.5818,48.9423 113.1338,48.6693 112.6548,48.5073 C112.1988,45.5163 111.5358,42.3423 110.5878,39.1103 L111.0748,38.2873 C111.9188,36.8613 111.4458,35.0223 110.0198,34.1783 C109.6238,33.9443 109.1958,33.8213 108.7648,33.7823 C107.7368,31.1693 106.4958,28.5683 105.0028,26.0413 L105.3908,25.1413 C106.0448,23.6193 105.3418,21.8543 103.8198,21.2003 C103.1148,20.8963 102.3598,20.8963 101.6838,21.1233 C100.3128,19.3433 98.7878,17.6313 97.0928,16.0133 L97.1038,15.9793 C97.6268,14.4073 96.7748,12.7093 95.2028,12.1863 C94.3788,11.9143 93.5258,12.0253 92.8198,12.4113 C90.9638,11.0413 88.9458,9.7743 86.7508,8.6333 C86.6608,7.3083 85.7048,6.1553 84.3388,5.8903 C83.4618,5.7223 82.6078,5.9623 81.9508,6.4653 C79.4918,5.5033 76.8458,4.6843 73.9968,4.0343 C73.7748,2.7613 72.7548,1.7253 71.4068,1.5653 C70.1858,1.4263 69.0518,2.0353 68.4678,3.0313 C65.7328,2.6483 62.8418,2.4003 59.7698,2.3153 C59.2298,1.5223 58.3208,1.0003 57.2888,1.0003 C56.2558,1.0003 55.3468,1.5223 54.8068,2.3153 C51.7748,2.3993 48.9198,2.6413 46.2148,3.0163 C45.6278,2.0303 44.5018,1.4273 43.2868,1.5653 C41.9488,1.7243 40.9348,2.7443 40.7028,4.0043 C37.8368,4.6523 35.1768,5.4713 32.7038,6.4333 C32.0518,5.9513 31.2138,5.7253 30.3548,5.8903 C29.0098,6.1513 28.0648,7.2733 27.9498,8.5723 C25.7288,9.7183 23.6848,10.9913 21.8098,12.3713 C21.1168,12.0153 20.2888,11.9233 19.4908,12.1863 C17.9378,12.7023 17.0928,14.3673 17.5768,15.9233 C15.8538,17.5593 14.3048,19.2923 12.9148,21.0963 C12.2628,20.9003 11.5458,20.9113 10.8738,21.2003 C9.3518,21.8543 8.6488,23.6193 9.3028,25.1413 L9.6408,25.9283 C8.1188,28.4913 6.8548,31.1333 5.8098,33.7863 C5.4198,33.8373 5.0338,33.9653 4.6738,34.1783 C3.2478,35.0223 2.7748,36.8613 3.6188,38.2873 L4.0268,38.9783 C3.0538,42.2723 2.3778,45.5083 1.9158,48.5523 C1.4838,48.7193 1.0808,48.9773 0.7528,49.3483 C-0.3452,50.5893 -0.2282,52.4853 1.0128,53.5833 L1.2918,53.8293 C0.8798,58.6893 0.9788,62.6943 1.1378,65.0943 C1.9268,76.9683 8.8848,76.8313 8.8848,64.6623 C8.8848,62.9153 9.0688,60.9203 9.4868,58.7923 C9.8848,58.6233 10.2538,58.3693 10.5598,58.0233 C11.5178,56.9403 11.5498,55.3583 10.7168,54.2433 C11.3508,52.4123 12.1788,50.5423 13.2258,48.6833 C13.2328,48.6793 13.2398,48.6783 13.2458,48.6743 C14.1368,48.1473 14.6558,47.2313 14.7138,46.2703 C15.8258,44.6363 17.1378,43.0353 18.6548,41.4993 C18.9418,41.4683 19.2308,41.4083 19.5098,41.2873 C20.4568,40.8803 21.0868,40.0433 21.2698,39.1023 C22.4978,38.0873 23.8468,37.1213 25.3078,36.2083 C25.6978,36.3893 26.1258,36.4923 26.5658,36.4923 C26.8798,36.4923 27.1978,36.4423 27.5118,36.3383 C28.6288,35.9673 29.3708,34.9993 29.5248,33.9083 C30.6958,33.3523 31.9188,32.8263 33.2148,32.3433 C33.7238,32.7243 34.3478,32.9503 35.0088,32.9503 C35.1968,32.9503 35.3898,32.9323 35.5818,32.8953 C36.6968,32.6793 37.5338,31.8673 37.8568,30.8563 C39.7168,30.3533 41.6848,29.9203 43.7758,29.5703 C44.2838,30.5393 45.2978,31.1793 46.4288,31.1793 C46.5468,31.1793 46.6648,31.1723 46.7848,31.1583 C48.0678,31.0063 49.0558,30.0623 49.3408,28.8753 C51.0318,28.7233 52.7918,28.6213 54.6208,28.5703 C55.1148,29.5483 56.1178,30.2253 57.2888,30.2253 C58.4598,30.2253 59.4618,29.5483 59.9568,28.5703 C61.8288,28.6223 63.6278,28.7293 65.3548,28.8873 C65.6438,30.0693 66.6298,31.0073 67.9088,31.1583 C68.0288,31.1723 68.1468,31.1793 68.2648,31.1793 C69.3888,31.1793 70.3978,30.5483 70.9098,29.5903 C73.0088,29.9453 74.9828,30.3853 76.8488,30.8943 C77.1808,31.8873 78.0108,32.6813 79.1118,32.8953 C79.3038,32.9323 79.4968,32.9503 79.6848,32.9503 C80.3298,32.9503 80.9368,32.7343 81.4388,32.3693 C82.7548,32.8633 83.9938,33.4013 85.1788,33.9683 C85.3528,35.0353 86.0858,35.9743 87.1818,36.3383 C87.4958,36.4423 87.8138,36.4923 88.1278,36.4923 C88.5428,36.4923 88.9438,36.3983 89.3158,36.2373 C90.8178,37.1783 92.2048,38.1743 93.4598,39.2223 C93.6708,40.1133 94.2778,40.8983 95.1838,41.2873 C95.4208,41.3903 95.6648,41.4483 95.9098,41.4863 C97.5018,43.0963 98.8678,44.7783 100.0148,46.4943 C100.1268,47.3043 100.5618,48.0533 101.2738,48.5463 C102.3818,50.4933 103.2468,52.4523 103.9008,54.3673 C103.1568,55.4733 103.2098,56.9783 104.1338,58.0233 C104.4058,58.3303 104.7298,58.5603 105.0778,58.7283 C105.5048,60.8803 105.6918,62.8983 105.6918,64.6623 C105.6918,76.8313 112.6498,76.9683 113.4388,65.0943 C113.5968,62.7103 113.6948,58.7423 113.2938,53.9263 L113.6808,53.5833 C114.9218,52.4853 115.0388,50.5893 113.9408,49.3483" id="twist_long_hair_Fill-1" ns5:color="Hair-500" />
                <path d="M32.9872,165.9284 L32.9872,147.5394 C15.4562,139.2114 2.9392,122.0434 1.1962,101.7954 L1.1962,171.4894 C9.7472,167.9074 19.1362,165.9284 28.9872,165.9284 L32.9872,165.9284 Z" id="twist_long_hair_Fill-4" ns5:color="Hair-500" />
                <path d="M80.9877,147.5387 L80.9867,165.9287 L84.9867,165.9287 C94.8667,165.9287 104.2797,167.9227 112.8507,171.5227 L112.8507,101.7957 L112.7787,101.7957 C111.0357,122.0427 98.5177,139.2107 80.9877,147.5387" id="twist_long_hair_Fill-6" ns5:color="Hair-500" />
            </g>
            <path d="M6.6562,169.4792 C8.6202,168.8382 10.6212,168.2832 12.6562,167.8112 L12.6562,131.1382 C10.3472,128.1512 8.3302,124.9262 6.6562,121.5032 L6.6562,169.4792 Z" id="twist_long_hair_Fill-8" fill-opacity=".24" fill="#000" />
            <path d="M29.7026,165.9284 L32.9876,165.9284 L32.9876,147.5394 C31.8716,147.0094 30.7766,146.4424 29.7026,145.8424 L29.7026,165.9284 Z" id="twist_long_hair_Fill-10" fill-opacity=".24" fill="#000" />
            <path d="M24.1796,142.3093 C22.0646,140.7783 20.0576,139.1063 18.1796,137.3013 L18.1796,166.7363 C20.1526,166.4393 22.1576,166.2403 24.1796,166.1063 L24.1796,142.3093 Z" id="twist_long_hair_Fill-12" fill-opacity=".24" fill="#000" />
            <path d="M83.853,146.069 C82.914,146.585 81.959,147.078 80.988,147.539 L80.987,165.928 L83.853,165.928 L83.853,146.069 Z" id="twist_long_hair_Fill-14" fill-opacity=".24" fill="#000" />
            <path d="M95.3764,166.6852 L95.3764,137.6912 C93.4944,139.4632 91.4894,141.1072 89.3764,142.6082 L89.3764,166.0752 C91.3994,166.1972 93.4014,166.3992 95.3764,166.6852" id="twist_long_hair_Fill-16" fill-opacity=".24" fill="#000" />
            <path d="M106.8998,122.3307 C105.2068,125.6507 103.1948,128.7787 100.8998,131.6757 L100.8998,167.7177 C102.9328,168.1767 104.9358,168.7137 106.8998,169.3417 L106.8998,122.3307 Z" id="twist_long_hair_Fill-18" fill-opacity=".24" fill="#000" />
            <path d="M32.9872,158.6843 L32.9872,147.5393 C15.4562,139.2113 2.9392,122.0433 1.1962,101.7953 L1.1962,141.3833 C9.0002,149.2063 20.0532,155.3023 32.9872,158.6843" id="twist_long_hair_Fill-20" fill-opacity=".24" fill="#000" />
            <path d="M112.851,140.3151 L112.851,101.7951 L112.779,101.7951 C111.036,122.0431 98.518,139.2111 80.988,147.5391 L80.988,158.4151 C94.082,154.8261 105.195,148.4521 112.851,140.3151" id="twist_long_hair_Fill-22" fill-opacity=".24" fill="#000" />
            <path d="M57.2885,1.0002 C55.6315,1.0002 54.2885,2.3432 54.2885,4.0002 L54.2885,27.2252 C54.2885,28.8822 55.6315,30.2252 57.2885,30.2252 C58.9455,30.2252 60.2885,28.8822 60.2885,27.2252 L60.2885,4.0002 C60.2885,2.3432 58.9455,1.0002 57.2885,1.0002" id="twist_long_hair_Fill-24" fill-opacity=".24" fill="#000" />
            <path d="M71.4067,1.5656 C69.7607,1.3786 68.2687,2.5466 68.0747,4.1926 L65.2817,27.8266 C65.0877,29.4726 66.2637,30.9636 67.9087,31.1586 C68.0287,31.1716 68.1467,31.1796 68.2647,31.1796 C69.7637,31.1796 71.0597,30.0566 71.2407,28.5306 L74.0337,4.8976 C74.2277,3.2516 73.0517,1.7606 71.4067,1.5656" id="twist_long_hair_Fill-26" fill-opacity=".24" fill="#000" />
            <path d="M84.3393,5.8908 C82.7113,5.5788 81.1383,6.6398 80.8233,8.2658 L76.7363,29.3798 C76.4223,31.0068 77.4853,32.5798 79.1113,32.8948 C79.3043,32.9328 79.4963,32.9508 79.6853,32.9508 C81.0933,32.9508 82.3503,31.9538 82.6273,30.5198 L86.7143,9.4068 C87.0283,7.7798 85.9663,6.2058 84.3393,5.8908" id="twist_long_hair_Fill-28" fill-opacity=".24" fill="#000" />
            <path d="M95.2026,12.1867 C93.6316,11.6677 91.9326,12.5167 91.4106,14.0887 L85.2806,32.5457 C84.7586,34.1187 85.6096,35.8157 87.1816,36.3387 C87.4956,36.4427 87.8136,36.4927 88.1276,36.4927 C89.3856,36.4927 90.5566,35.6957 90.9736,34.4367 L97.1036,15.9787 C97.6266,14.4067 96.7746,12.7087 95.2026,12.1867" id="twist_long_hair_Fill-30" fill-opacity=".24" fill="#000" />
            <path d="M103.8197,21.2004 C102.3007,20.5464 100.5337,21.2494 99.8797,22.7714 L93.6127,37.3464 C92.9587,38.8694 93.6617,40.6334 95.1837,41.2874 C95.5697,41.4544 95.9717,41.5334 96.3677,41.5334 C97.5297,41.5334 98.6357,40.8524 99.1247,39.7174 L105.3907,25.1414 C106.0457,23.6184 105.3417,21.8544 103.8197,21.2004" id="twist_long_hair_Fill-32" fill-opacity=".24" fill="#000" />
            <path d="M105.5571,47.6188 L111.0751,38.2878 C111.9181,36.8618 111.4461,35.0218 110.0201,34.1788 C108.5921,33.3348 106.7531,33.8088 105.9111,35.2338 L100.3931,44.5648 C99.5491,45.9918 100.0221,47.8308 101.4481,48.6748 C101.9271,48.9578 102.4531,49.0928 102.9721,49.0928 C103.9981,49.0928 104.9971,48.5658 105.5571,47.6188" id="twist_long_hair_Fill-34" fill-opacity=".24" fill="#000" />
            <path d="M113.9408,49.3483 C112.8428,48.1053 110.9458,47.9923 109.7068,49.0893 L104.3938,53.7883 C103.1528,54.8873 103.0368,56.7823 104.1338,58.0233 C104.7268,58.6943 105.5528,59.0363 106.3818,59.0363 C107.0888,59.0363 107.7978,58.7873 108.3688,58.2833 L113.6808,53.5833 C114.9218,52.4853 115.0388,50.5893 113.9408,49.3483" id="twist_long_hair_Fill-36" fill-opacity=".24" fill="#000" />
            <path d="M46.6191,4.193 C46.4251,2.547 44.9321,1.378 43.2871,1.566 C41.6421,1.76 40.4661,3.252 40.6601,4.897 L43.4531,28.531 C43.6341,30.057 44.9301,31.179 46.4291,31.179 C46.5471,31.179 46.6651,31.172 46.7851,31.158 C48.4301,30.964 49.6061,29.472 49.4121,27.827 L46.6191,4.193 Z" id="twist_long_hair_Fill-38" fill-opacity=".24" fill="#000" />
            <path d="M33.87,8.2658 C33.556,6.6398 31.982,5.5778 30.354,5.8908 C28.727,6.2058 27.665,7.7798 27.979,9.4068 L32.066,30.5198 C32.344,31.9538 33.6,32.9508 35.009,32.9508 C35.197,32.9508 35.39,32.9328 35.582,32.8948 C37.208,32.5798 38.271,31.0068 37.957,29.3798 L33.87,8.2658 Z" id="twist_long_hair_Fill-40" fill-opacity=".24" fill="#000" />
            <path d="M23.2831,14.0886 C22.7611,12.5166 21.0621,11.6676 19.4911,12.1866 C17.9191,12.7096 17.0671,14.4066 17.5901,15.9796 L23.7201,34.4366 C24.1371,35.6956 25.3081,36.4926 26.5661,36.4926 C26.8801,36.4926 27.1981,36.4426 27.5121,36.3386 C29.0841,35.8166 29.9351,34.1186 29.4131,32.5466 L23.2831,14.0886 Z" id="twist_long_hair_Fill-42" fill-opacity=".24" fill="#000" />
            <path d="M14.8144,22.7712 C14.1604,21.2492 12.3924,20.5462 10.8744,21.2002 C9.3514,21.8542 8.6484,23.6192 9.3024,25.1412 L15.5694,39.7172 C16.0574,40.8532 17.1644,41.5332 18.3264,41.5332 C18.7214,41.5332 19.1244,41.4542 19.5094,41.2882 C21.0324,40.6332 21.7354,38.8692 21.0814,37.3472 L14.8144,22.7712 Z" id="twist_long_hair_Fill-44" fill-opacity=".24" fill="#000" />
            <path d="M8.7831,35.2341 C7.9401,33.8091 6.1011,33.3351 4.6741,34.1781 C3.2481,35.0221 2.7751,36.8611 3.6191,38.2881 L9.1371,47.6191 C9.6961,48.5661 10.6951,49.0921 11.7211,49.0921 C12.2401,49.0921 12.7661,48.9581 13.2461,48.6741 C14.6721,47.8311 15.1441,45.9911 14.3011,44.5651 L8.7831,35.2341 Z" id="twist_long_hair_Fill-46" fill-opacity=".24" fill="#000" />
            <path d="M4.9872,49.089 C3.7482,47.992 1.8502,48.106 0.7532,49.348 C-0.3448,50.589 -0.2288,52.485 1.0122,53.583 L6.3252,58.283 C6.8952,58.788 7.6042,59.036 8.3112,59.036 C9.1402,59.036 9.9662,58.694 10.5592,58.024 C11.6572,56.782 11.5412,54.887 10.2992,53.789 L4.9872,49.089 Z" id="twist_long_hair_Fill-48" fill-opacity=".24" fill="#000" />
        </g>
        <g id="twist_long_hair_Facial-Hair" transform="translate(49.000000, 72.000000)"><defs>
        <path d="M64.7214121,63.4643353 C71.8381194,62.1698595 81.796173,63.6461901 84.1074639,67.092174 L83.998,66.939 L84.010445,66.9215199 C86.5309935,63.5977488 96.2765075,62.1914341 103.274279,63.4643353 C112.927938,65.2207224 117.019147,75.7669804 115.780485,77.6791014 C114.655476,79.4153191 111.53642,77.7739966 109.119711,77.6298353 C104.118941,77.3322546 94.948229,81.5102869 86.0463327,76.6891498 C85.2347477,76.2495714 84.5386341,75.6083797 83.9975585,74.8390687 C83.4573866,75.6083797 82.7612729,76.2495714 81.949688,76.6891498 C73.0477917,81.5102869 63.8767499,77.3322546 58.8763101,77.6298353 C56.459601,77.7739966 53.3405442,79.4153191 52.2155358,77.6791014 C50.9768736,75.7669804 55.0680827,65.2207224 64.7214121,63.4643353 Z" id="moustache_magnum_path-1" />
    </defs>
    <g id="moustache_magnum_Facial-Hair/Moustache-Magnum" stroke="none" stroke-width="1" fill="none" fill-rule="evenodd">
        <mask id="moustache_magnum_mask-2" fill="white">
            <use xlink:href="#moustache_magnum_path-1" />
        </mask>
        <use id="moustache_magnum_Hey..." fill="#28354B" xlink:href="#moustache_magnum_path-1" />
        <g id="moustache_magnum_Facial-Hair-Color" mask="url(#moustache_magnum_mask-2)" fill="#E8E1E1">
            <rect id="moustache_magnum_Color" x="0" y="0" width="168" height="152" />
        </g>
    </g>
</g>
        <g id="twist_long_hair_Accessory" transform="translate(62.000000, 85.000000)" />
    </g>
</g>
    </g>
</svg>