<svg xmlns="http://www.w3.org/2000/svg" xmlns:ns2="http://design.blush" xmlns:xlink="http://www.w3.org/1999/xlink" width="264px" height="280px" viewBox="0 0 264 280" version="1.1">
    <title id="transparent_Title">Avataaar/Default</title>
    <desc>Created with python_avatars</desc>
    <defs>
        <path d="M100,0 C130.927946,-5.68137151e-15 156,25.072054 156,56 L156.000809,62.1660527 C161.675838,63.1185422 166,68.05429 166,74 L166,88 C166,94.0524166 161.519235,99.0582945 155.693975,99.8813638 C153.627928,119.686472 141.237929,136.421678 124.001014,144.610469 L124,163 L128,163 C167.764502,163 200,195.235498 200,235 L200,244 L0,244 L0,235 C-4.86974701e-15,195.235498 32.235498,163 72,163 L76,163 L75.9999836,144.610943 C58.7625487,136.422324 46.3721119,119.686854 44.3051107,99.8809698 C38.480765,99.0582945 34,94.0524166 34,88 L34,74 C34,68.053942 38.3246685,63.1179645 44.0001873,62.1658855 L44,56 C44,25.072054 69.072054,5.68137151e-15 100,0 Z" id="transparent_path-1" />
        <path d="M83,36.3476251 C83,52.6289957 105.161905,65.8276544 132.5,65.8276544 C159.838095,65.8276544 182,52.6289957 182,36.3476251 C182,34.9853134 181.844841,33.6445843 181.544472,32.3313638 C210.784239,41.4879251 232,68.792221 232,101.051724 L232,110 L32,110 L32,101.051724 C32,68.3970853 53.7386736,40.8197864 83.5337207,32.0021267 C83.1821692,33.4207025 83,34.871494 83,36.3476251 Z" id="transparent_path-3" />
        <rect id="transparent_path-5" x="0" y="0" width="264" height="280" />
        <path d="M74,0 C114.869071,0 148,33.1309285 148,74 L148,84.1482318 L148,197.608051 C135.525121,187.236892 119.490913,181 102,181 L102,181 L98,181 L98,162.610951 C115.530782,154.282984 128.048193,137.114792 129.791419,116.867187 C135.569129,116.002364 140,111.018625 140,105 L140,105 L140,92 C140,87.3536213 137.359271,83.3240177 133.496777,81.3301515 C132.723933,81.0500337 131.951808,80.748163 131.180891,80.4262497 C130.794819,80.3202581 130.400778,80.2331546 130,80.1659169 L130,80.1659169 L130.000458,79.9172528 C117.224481,74.2339715 104.877985,63.0706967 96.1104311,47.8848473 C93.1752556,42.8009742 90.8310687,37.5951441 89.0661426,32.3970356 C80.4313947,42.9409152 67.7445474,53.6023901 52.3415164,62.4953343 C42.777598,68.0170651 33.1467898,72.2910056 24,75.2659587 L24.0003852,137.246608 C29.6019576,148.318362 38.7728825,157.277529 50,162.610951 L50,162.610951 L50,181 L46,181 C38.3273639,181 30.9350359,182.200142 24.0004995,184.422941 L24,230 C24,244.105888 13.5691766,255.775526 0,257.716445 L0,74 C0,33.1309285 33.1309285,0 74,0 Z" id="transparent_path-7" />
    </defs>
    <g id="transparent_Avataaar/Default" stroke="none" stroke-width="1" fill="none" fill-rule="evenodd">
        <g id="transparent_Body" transform="translate(32.000000, 36.000000)">
            <mask id="transparent_mask-2" fill="white">
                <use xlink:href="#transparent_path-1" />
            </mask>
            <use fill="#D0C6AC" xlink:href="#transparent_path-1" />
            <g id="transparent_Skin-Color" mask="url(#transparent_mask-2)" fill="#614335">
                <g transform="translate(-32.000000, 0.000000)" id="transparent_Color">
                    <rect x="0" y="0" width="264" height="244" />
                </g>
            </g>
            <path d="M44,94 C44,124.927946 69.072054,150 100,150 C130.927946,150 156,124.927946 156,94 L156,94 L156,102 C156,132.927946 130.927946,158 100,158 C69.072054,158 44,132.927946 44,102 Z" id="transparent_Neck-Shadow" fill-opacity="0.100000001" fill="#000000" mask="url(#transparent_mask-2)" />
        </g>
        <g id="transparent_Clothing" transform="translate(0.000000, 170.000000)">
            
        <defs>
        <path d="M160,29.0517235 C199.764502,29.0517235 232,61.2872215 232,101.051724 L232,110 L32,110 L32,101.051724 C32,61.2872215 64.235498,29.0517235 104,29.0517235 L105.192363,29.0520252 C105.065349,30.0355191 105,31.0365551 105,32.0517235 C105,45.8588423 117.088312,57.0517235 132,57.0517235 C146.911688,57.0517235 159,45.8588423 159,32.0517235 C159,31.0365551 158.934651,30.0355191 158.807637,29.0520252 L160,29.0517235 Z" id="collar_sweater_path-1" />
    </defs>
    <g id="collar_sweater_Clothing/Collar-+-Sweater" stroke="none" stroke-width="1" fill="none" fill-rule="evenodd">
        <mask id="collar_sweater_mask-2" fill="white">
            <use xlink:href="#collar_sweater_path-1" />
        </mask>
        <use id="collar_sweater_Clothes" fill="#E6E6E6" xlink:href="#collar_sweater_path-1" />
        <g id="collar_sweater_Fabric-Color" mask="url(#collar_sweater_mask-2)" fill="#E6E6E6">
            <rect id="collar_sweater_ðŸ–Color" x="0" y="0" width="264" height="110" />
        </g>
        <path d="M118.07795,50.9956082 L118,51.0567821 L119,54.207887 L114.421,53.8754994 L108.308702,58.6917545 C101.361717,54.0802103 97,47.4262523 97,40.027915 C97,32.7399202 101.232581,26.1742662 107.999601,21.5717708 L108,36.8768102 C108,42.7004148 111.977587,47.8531513 118.07795,50.9956082 Z M166,40.027915 C166,47.2334229 161.862687,53.7328485 155.229194,58.3270307 L149.58,53.8754994 L145,54.207887 L146,51.0567821 L146.015,51.0664994 L145.923049,50.9950934 C152.022847,47.8525885 156,42.7000968 156,36.8768102 L156.000973,22.2802074 C162.182048,26.8358435 166,33.1060895 166,40.027915 Z" id="collar_sweater_Collar" fill="#F2F2F2" />
    </g>
</g>
        <g id="transparent_Face" transform="translate(76.000000, 82.000000)" fill="#000000">
            <g id="transparent_Mouth" transform="translate(2.000000, 52.000000)">    
                
            <g id="big_smile_Mouth/Big Smile" stroke="none" stroke-width="1" fill="none" fill-rule="evenodd"><path d="M29,15.6086957 C30.410031,25.2313711 38.062182,35 54,35 C69.937818,35 77.6461342,25.183301 79,14.7391304 C79.1012093,14.3397326 78.775269,13 76.826087,13 C56.838426,13 41.7395748,13 31.173913,13 C29.3833142,13 28.870211,14.2404669 29,15.6086957 Z" id="big_smile_Mouth" fill-opacity=".7" fill="#000" /><path d="M70,13 C70,15.7614237 67.7614237,18 65,18 L44,18 C41.2385763,18 39,15.7614237 39,13 L70,13 Z" id="big_smile_Path" fill="#FFF" /></g></g>
            <g id="transparent_Nose" transform="translate(28.000000, 40.000000)" fill-opacity="0.16">
                
            <g id="default_Nose/Default" stroke="none" stroke-width="1" fill="none" fill-rule="evenodd" fill-opacity="0.16">
        <path d="M16,8 C16,12.418278 21.372583,16 28,16 L28,16 C34.627417,16 40,12.418278 40,8" id="default_Nose" fill="#000000" />
    </g>
</g>
            <g id="transparent_Eyes" transform="translate(0.000000, 8.000000)">
                
            <g id="side_Eyes/Side-ðŸ˜’" stroke="none" stroke-width="1" fill="none" fill-rule="evenodd" fill-opacity="0.599999964">
        <path d="M26.9975803,16 C30.5023373,16 33.8908881,17.3142215 36.0178027,19.5426914 C36.76432,20.2169977 37.3413788,21.076429 37.6755948,22.0487876 C37.7255661,22.1661456 37.7719796,22.285947 37.8153518,22.4071242 C37.9093375,22.6697105 37.9470658,22.9204105 37.9396792,23.1420431 C37.9792021,23.4217112 38,23.7084268 38,24 C38,27.3137085 35.3137085,30 32,30 C28.6862915,30 26,27.3137085 26,24 C26,22.6248836 26.4625977,21.3578126 27.2406617,20.3459186 C27.1600773,20.3443723 27.0789132,20.3437884 26.9975803,20.3437884 C23.2572061,20.3437884 19.8737584,21.5787519 17.4375392,23.5716412 C16.5467928,24.3002944 15.6201012,23.5583844 16.1601674,22.4473116 C18.006676,18.648508 22.1644225,16 26.9975803,16 Z" id="side_Eye" fill="#000000" />
        <path d="M84.9975803,16 C88.5023373,16 91.8908881,17.3142215 94.0178027,19.5426914 C94.76432,20.2169977 95.3413788,21.076429 95.6755948,22.0487876 C95.7255661,22.1661456 95.7719796,22.285947 95.8153518,22.4071242 C95.9093375,22.6697105 95.9470658,22.9204105 95.9396792,23.1420431 C95.9792021,23.4217112 96,23.7084268 96,24 C96,27.3137085 93.3137085,30 90,30 C86.6862915,30 84,27.3137085 84,24 C84,22.6248836 84.4625977,21.3578126 85.2406617,20.3459186 C85.1600773,20.3443723 85.0789132,20.3437884 84.9975803,20.3437884 C81.2572061,20.3437884 77.8737584,21.5787519 75.4375392,23.5716412 C74.5467928,24.3002944 73.6201012,23.5583844 74.1601674,22.4473116 C76.006676,18.648508 80.1644225,16 84.9975803,16 Z" id="side_Eye" fill="#000000" />
    </g>
</g>
            <g id="transparent_Eyebrow" fill-opacity="0.599999964">
                
            <g id="up_down_Eyebrow/Outline/Up-Down" stroke="none" stroke-width="1" fill="none" fill-rule="evenodd" fill-opacity="0.599999964">
        <path d="M15.5914402,14.1619718 C20.0874642,7.83556966 29.6031809,4.65350252 39.3473715,7.79575991 C40.3986323,8.13476518 41.5256656,7.55736801 41.8646708,6.50610724 C42.2036761,5.45484647 41.6262789,4.32781316 40.5750182,3.98880789 C29.1665516,0.309863172 17.8358054,4.09887835 12.3309495,11.8448183 C11.6910852,12.7451779 11.9022584,13.9937761 12.8026181,14.6336404 C13.7029777,15.2735046 14.9515759,15.0623314 15.5914402,14.1619718 Z" id="up_down_Eyebrow" fill="#000000" fill-rule="nonzero" />
        <path d="M73.6376405,21.1577995 C77.5525501,15.6490895 88.2853148,12.56006 97.5304219,14.8304032 C98.6031199,15.0938282 99.6862617,14.4377829 99.9496867,13.3650849 C100.213112,12.2923868 99.5570664,11.2092451 98.4843684,10.9458201 C87.7477584,8.30920485 75.3194947,11.8862211 70.3771498,18.840646 C69.7372855,19.7410057 69.9484587,20.9896038 70.8488184,21.6294681 C71.749178,22.2693324 72.9977762,22.0581591 73.6376405,21.1577995 Z" id="up_down_Eyebrow" fill="#000000" fill-rule="nonzero" transform="translate(85.007549, 16.038421) scale(-1, 1) translate(-85.007549, -16.038421) " />
    </g>
</g>
        </g>
        <g id="transparent_Top">
            
        <g id="jedi_Hairstyle/Jedi" stroke="none" stroke-width="1" fill="none" fill-rule="evenodd">
        <g id="jedi_Facial-Hair" transform="translate(49.000000, 72.000000)"><g id="einstien_mustache_Facial Hair/Einstien Mustache" stroke="none" stroke-width="1" fill="none" fill-rule="evenodd">
        <g id="einstien_mustache_mustache" transform="translate(52.000000, 65.000000)">
            <path d="M0.1095,17.4004 C0.1095,17.4004 5.0135,0.0004 30.2595,0.0004 C55.5055,0.0004 62.9515,16.1414 63.3155,17.5484 C63.6785,18.9564 63.1335,21.7704 59.3185,20.2144 C55.5055,18.6594 54.7785,17.0494 52.9625,18.8544 C51.1465,20.6594 50.6925,23.4834 47.9675,22.6194 C45.2435,21.7564 44.9715,16.6794 41.7015,18.8544 C38.4325,21.0294 38.5235,23.5484 35.5265,22.0254 C33.2325,20.8584 31.5305,17.7164 29.9865,18.8544 C28.4425,19.9924 28.7155,22.8484 25.8095,22.6054 C22.9035,22.3624 21.6015,19.4394 20.1495,19.4094 C16.6075,19.3354 17.2735,21.9924 14.7305,22.2144 C12.1875,22.4374 10.7345,18.1764 8.5545,18.1294 C6.3755,18.0824 -0.9805,24.4374 0.1095,17.4004" id="einstien_mustache_Facial-Hair-Color" fill="#2C1B18" ns2:color="Hair-500" />
            <path d="M21.2369,19.8873 C22.0519,14.8863 23.6129,9.9273 23.8379,4.8753 C23.9079,3.3003 20.9079,3.3033 20.8379,4.8753 C20.6149,9.8823 19.0779,14.7933 18.2569,19.7463 C18.7199,19.5293 19.3159,19.3913 20.1489,19.4093 C20.5119,19.4173 20.8649,19.6053 21.2369,19.8873" id="einstien_mustache_Fill-4" fill-opacity=".16" fill="#000" />
            <path d="M8.5548,18.1294 C8.7758,18.1344 8.9868,18.1914 9.1948,18.2734 C9.5518,16.4414 10.1578,14.6404 11.0478,12.9324 C11.6798,11.7214 12.4528,10.5554 13.3278,9.4514 C14.2368,8.3034 15.2668,7.1924 15.5198,5.8044 C15.6388,5.1514 15.3198,4.4894 14.4718,4.2994 C13.7648,4.1414 12.7468,4.4964 12.6268,5.1534 C12.3818,6.5004 11.2428,7.5354 10.3928,8.6614 C9.4768,9.8754 8.7128,11.1554 8.0568,12.4754 C7.0118,14.5794 6.3628,16.7924 6.0468,19.0424 C7.0728,18.5374 7.9888,18.1174 8.5548,18.1294" id="einstien_mustache_Fill-6" fill-opacity=".16" fill="#000" />
            <path d="M32.9596,20.0132 C33.0526,14.9272 32.7116,9.8432 31.9156,4.7922 C31.8126,4.1322 31.3006,3.5762 30.4156,3.56915338 C29.6846,3.5632 28.8126,4.1372 28.9156,4.7922 C29.6516,9.4612 30.0036,14.1592 29.9796,18.8612 C29.9816,18.8592 29.9846,18.8562 29.9866,18.8542 C30.8936,18.1862 31.8556,18.9962 32.9596,20.0132" id="einstien_mustache_Fill-8" fill-opacity=".16" fill="#000" />
            <path d="M43.4313,18.3545 C43.4523,16.9565 43.4323,15.5585 43.2663,14.1635 C42.8603,10.7705 41.6363,7.4605 40.6263,4.1635 C40.1593,2.6365 37.2643,3.2835 37.7343,4.8135 C38.7133,8.0145 39.9793,11.2575 40.3093,14.5575 C40.4863,16.3285 40.4483,18.1035 40.4013,19.8785 C40.7713,19.5395 41.1923,19.1935 41.7023,18.8545 C42.3993,18.3905 42.9543,18.2705 43.4313,18.3545" id="einstien_mustache_Fill-10" fill-opacity=".16" fill="#000" />
            <path d="M47.0817,7.9122 C49.9427,11.4532 51.3527,15.5112 52.2867,19.6402 C52.4927,19.3672 52.7147,19.1012 52.9627,18.8542 C53.7177,18.1042 54.2857,17.9492 54.9647,18.1302 C53.9717,14.0942 52.4777,10.1482 49.6727,6.6772 C48.6137,5.3682 46.0157,6.5922 47.0817,7.9122" id="einstien_mustache_Fill-12" fill-opacity=".16" fill="#000" />
        </g>
    </g>
</g>
        <g id="jedi_Accessory" transform="translate(62.000000, 85.000000)" />
        <g id="jedi_Group-10" transform="translate(45.100000, 25.500000)">
            <path d="M32.3295,132.4725 C32.3295,132.4725 84.6375,81.7315 146.7525,122.4155 C146.7525,122.4155 171.7465,103.5295 157.3015,85.0005 C142.8565,66.4725 49.0385,58.1205 49.0385,58.1205 L11.2605,100.9845 C11.2605,100.9845 13.3055,117.1835 32.3295,132.4725" id="jedi_Fill-1" fill-opacity=".24" fill="#000" />
            <path d="M147.4413,181.7171 C143.4353,176.4381 135.6783,165.0601 136.2183,160.1941 C136.9453,153.6551 170.7273,123.5061 170.7273,96.2621 C170.7273,73.0141 122.4163,0.0001 85.3643,0.0001 C48.3123,0.0001 0.0003,73.0141 0.0003,96.2621 C0.0003,123.5061 33.7823,153.6551 34.5083,160.1941 C35.2353,166.7331 24.7913,181.7171 24.7913,181.7171 C24.7793,181.7281 38.1183,181.724231 46.9553,181.7201 C51.1803,181.7191 54.6033,178.2931 54.6033,174.0681 L54.6033,150.2421 C41.4913,140.9831 32.5303,126.2361 31.0763,109.3401 C25.6443,108.5271 21.4053,104.0741 20.9163,98.5431 C33.7693,86.1371 58.4843,77.7361 86.8773,77.7361 C115.2553,77.7361 139.9603,86.1301 152.8183,98.5251 C152.3373,104.0641 148.0943,108.5261 142.6583,109.3401 C141.2033,126.2361 132.2433,140.9831 119.1303,150.2421 L119.1303,174.0641 C119.1303,178.2901 122.5563,181.7171 126.7833,181.7171 L147.4413,181.7171 Z" id="jedi_Fabric-Color" fill="#B1E2FF" />
            <path d="M31.076,109.3397 C25.644,108.5267 21.405,104.0737 20.916,98.5437 C20.916,98.5437 16.437,102.4227 16.437,110.9737 C16.437,127.2367 46.95,151.2947 46.95,172.5447 L46.95,181.7167 C51.177,181.7167 54.603,178.2907 54.603,174.0637 L54.603,173.7117 C57.643,173.2937 62.857,173.4727 62.857,173.4727 L62.857,155.0837 C58.739,153.0837 54.603,150.2427 54.603,150.2427 C41.491,140.9827 32.53,126.2357 31.076,109.3397" id="jedi_Fill-6" fill="#070707" />
            <path d="M152.8231,98.5433 C152.3341,104.0743 148.0941,108.5263 142.6631,109.3393 C141.2091,126.2353 132.2481,140.9823 119.1351,150.2423 C119.1351,150.2423 115.0001,153.0833 110.8831,155.0833 L110.8831,173.4733 C110.8831,173.4733 116.0951,173.2933 119.1351,173.7113 L119.1351,174.0643 C119.1351,178.2903 122.5621,181.7173 126.7891,181.7173 L126.7891,172.5443 C126.7891,151.2943 157.3021,127.2363 157.3021,110.9733 C157.3021,102.4233 152.8231,98.5433 152.8231,98.5433" id="jedi_Fill-8" fill="#070707" />
        </g>
    </g>
</g>
    </g>
</svg>