<svg xmlns="http://www.w3.org/2000/svg" xmlns:ns2="http://design.blush" xmlns:xlink="http://www.w3.org/1999/xlink" width="264px" height="280px" viewBox="0 0 264 280" version="1.1">
    <title id="transparent_Title">Avataaar/Default</title>
    <desc>Created with python_avatars</desc>
    <defs>
        <path d="M100,0 C130.927946,-5.68137151e-15 156,25.072054 156,56 L156.000809,62.1660527 C161.675838,63.1185422 166,68.05429 166,74 L166,88 C166,94.0524166 161.519235,99.0582945 155.693975,99.8813638 C153.627928,119.686472 141.237929,136.421678 124.001014,144.610469 L124,163 L128,163 C167.764502,163 200,195.235498 200,235 L200,244 L0,244 L0,235 C-4.86974701e-15,195.235498 32.235498,163 72,163 L76,163 L75.9999836,144.610943 C58.7625487,136.422324 46.3721119,119.686854 44.3051107,99.8809698 C38.480765,99.0582945 34,94.0524166 34,88 L34,74 C34,68.053942 38.3246685,63.1179645 44.0001873,62.1658855 L44,56 C44,25.072054 69.072054,5.68137151e-15 100,0 Z" id="transparent_path-1" />
        <path d="M83,36.3476251 C83,52.6289957 105.161905,65.8276544 132.5,65.8276544 C159.838095,65.8276544 182,52.6289957 182,36.3476251 C182,34.9853134 181.844841,33.6445843 181.544472,32.3313638 C210.784239,41.4879251 232,68.792221 232,101.051724 L232,110 L32,110 L32,101.051724 C32,68.3970853 53.7386736,40.8197864 83.5337207,32.0021267 C83.1821692,33.4207025 83,34.871494 83,36.3476251 Z" id="transparent_path-3" />
        <rect id="transparent_path-5" x="0" y="0" width="264" height="280" />
        <path d="M74,0 C114.869071,0 148,33.1309285 148,74 L148,84.1482318 L148,197.608051 C135.525121,187.236892 119.490913,181 102,181 L102,181 L98,181 L98,162.610951 C115.530782,154.282984 128.048193,137.114792 129.791419,116.867187 C135.569129,116.002364 140,111.018625 140,105 L140,105 L140,92 C140,87.3536213 137.359271,83.3240177 133.496777,81.3301515 C132.723933,81.0500337 131.951808,80.748163 131.180891,80.4262497 C130.794819,80.3202581 130.400778,80.2331546 130,80.1659169 L130,80.1659169 L130.000458,79.9172528 C117.224481,74.2339715 104.877985,63.0706967 96.1104311,47.8848473 C93.1752556,42.8009742 90.8310687,37.5951441 89.0661426,32.3970356 C80.4313947,42.9409152 67.7445474,53.6023901 52.3415164,62.4953343 C42.777598,68.0170651 33.1467898,72.2910056 24,75.2659587 L24.0003852,137.246608 C29.6019576,148.318362 38.7728825,157.277529 50,162.610951 L50,162.610951 L50,181 L46,181 C38.3273639,181 30.9350359,182.200142 24.0004995,184.422941 L24,230 C24,244.105888 13.5691766,255.775526 0,257.716445 L0,74 C0,33.1309285 33.1309285,0 74,0 Z" id="transparent_path-7" />
    </defs>
    <g id="transparent_Avataaar/Default" stroke="none" stroke-width="1" fill="none" fill-rule="evenodd">
        <g id="transparent_Body" transform="translate(32.000000, 36.000000)">
            <mask id="transparent_mask-2" fill="white">
                <use xlink:href="#transparent_path-1" />
            </mask>
            <use fill="#D0C6AC" xlink:href="#transparent_path-1" />
            <g id="transparent_Skin-Color" mask="url(#transparent_mask-2)" fill="#614335">
                <g transform="translate(-32.000000, 0.000000)" id="transparent_Color">
                    <rect x="0" y="0" width="264" height="244" />
                </g>
            </g>
            <path d="M44,94 C44,124.927946 69.072054,150 100,150 C130.927946,150 156,124.927946 156,94 L156,94 L156,102 C156,132.927946 130.927946,158 100,158 C69.072054,158 44,132.927946 44,102 Z" id="transparent_Neck-Shadow" fill-opacity="0.100000001" fill="#000000" mask="url(#transparent_mask-2)" />
        </g>
        <g id="transparent_Clothing" transform="translate(0.000000, 170.000000)">
            
        <defs>
        <path d="M83,36.3476251 C83,52.6289957 105.161905,65.8276544 132.5,65.8276544 C159.838095,65.8276544 182,52.6289957 182,36.3476251 C182,34.9853134 181.844841,33.6445843 181.544472,32.3313638 C210.784239,41.4879251 232,68.792221 232,101.051724 L232,110 L32,110 L32,101.051724 C32,68.3970853 53.7386736,40.8197864 83.5337207,32.0021267 C83.1821692,33.4207025 83,34.871494 83,36.3476251 Z" id="shirt_scoop_neck_path-1" />
    </defs>
    <g id="shirt_scoop_neck_Clothing/Shirt-Scoop-Neck" stroke="none" stroke-width="1" fill="none" fill-rule="evenodd">
        <mask id="shirt_scoop_neck_mask-2" fill="white">
            <use xlink:href="#shirt_scoop_neck_path-1" />
        </mask>
        <use id="shirt_scoop_neck_Clothes" fill="#E6E6E6" xlink:href="#shirt_scoop_neck_path-1" />
        <g id="shirt_scoop_neck_Fabric-Color" mask="url(#shirt_scoop_neck_mask-2)" fill="#5199E4">
            <rect id="shirt_scoop_neck_ðŸ–Color" x="0" y="0" width="264" height="110" />
        </g>
    </g>
</g>
        <g id="transparent_Face" transform="translate(76.000000, 82.000000)" fill="#000000">
            <g id="transparent_Mouth" transform="translate(2.000000, 52.000000)">    
                
            <g id="sad_Mouth/Sad" stroke="none" stroke-width="1" fill="none" fill-rule="evenodd" fill-opacity="0.699999988">
        <path d="M40.0582943,16.6539438 C40.7076459,23.6831146 46.7016363,28.3768187 54,28.3768187 C61.3416045,28.3768187 67.3633339,23.627332 67.9526838,16.5287605 C67.9840218,16.1513016 67.0772329,15.8529531 66.6289111,16.077395 C61.0902255,18.8502083 56.8805885,20.2366149 54,20.2366149 C51.1558456,20.2366149 47.0072148,18.8804569 41.5541074,16.168141 C41.0473376,15.9160792 40.0197139,16.2363147 40.0582943,16.6539438 Z" id="sad_Mouth" fill="#000000" transform="translate(54.005357, 22.188409) scale(1, -1) translate(-54.005357, -22.188409) " />
    </g>
</g>
            <g id="transparent_Nose" transform="translate(28.000000, 40.000000)" fill-opacity="0.16">
                
            <g id="wide_Nose/Wide" stroke="none" stroke-width="1" fill="none" fill-rule="evenodd"><path d="M13,6 C13,12.627417 16.8281211,18 28,18 C39.1718789,18 43,12.627417 43,6 C39.0361818,6 32.8972468,9 27.83815,9 C23.0794079,9 17.1013384,6 13,6 Z" id="wide_Nose" fill-opacity=".16" fill="#000" /></g></g>
            <g id="transparent_Eyes" transform="translate(0.000000, 8.000000)">
                
            <g id="x_dizzy_Eyes/X-Dizzy-ðŸ˜µ" stroke="none" stroke-width="1" fill="none" fill-rule="evenodd" fill-opacity="0.599999964">
        <path d="M23.5,13.3 L29,18.799 L34.5,13.3 C34.9,12.9 35.6,12.9 36.1,13.3 L37.7,14.9 C38.1,15.3 38.1,16 37.7,16.5 L32.2,22 L37.7,27.5 C38.1,27.9 38.1,28.6 37.7,29.1 L36.1,30.7 C35.7,31.1 35,31.1 34.5,30.7 L29,25.2 L23.5,30.7 C23.1,31.1 22.4,31.1 21.9,30.7 L20.3,29.1 C19.9,28.7 19.9,28 20.3,27.5 L25.799,22 L20.3,16.5 C19.9,16 19.9,15.3 20.3,14.9 L21.9,13.3 C22.3,12.9 23,12.9 23.5,13.3 Z" id="x_dizzy_Eye" fill="#000000" fill-rule="nonzero" />
        <path d="M77.5,13.3 L83,18.799 L88.5,13.3 C88.9,12.9 89.6,12.9 90.1,13.3 L91.7,14.9 C92.1,15.3 92.1,16 91.7,16.5 L86.2,22 L91.7,27.5 C92.1,27.9 92.1,28.6 91.7,29.1 L90.1,30.7 C89.7,31.1 89,31.1 88.5,30.7 L83,25.2 L77.5,30.7 C77.1,31.1 76.4,31.1 75.9,30.7 L74.3,29.1 C73.9,28.7 73.9,28 74.3,27.5 L79.799,22 L74.3,16.5 C73.9,16 73.9,15.3 74.3,14.9 L75.9,13.3 C76.3,12.9 77,12.9 77.5,13.3 Z" id="x_dizzy_Eye" fill="#000000" fill-rule="nonzero" />
    </g>
</g>
            <g id="transparent_Eyebrow" fill-opacity="0.599999964">
                
            <g id="sad_concerned_natural_Eyebrow/Natural/Sad-Concerned-Natural" stroke="none" stroke-width="1" fill="none" fill-rule="evenodd" fill-opacity="0.599999964">
        <path d="M22.7663531,5.57844898 L23.6772984,5.17582144 C28.9190996,3.09473425 36.8645466,3.96712704 41.7227321,6.29911638 C42.2897848,6.57148957 41.9021563,7.4519421 41.3211012,7.40711006 C26.4021788,6.25602197 16.3582869,15.5525942 12.9460869,21.8470939 C12.8449215,22.0337142 12.5391523,22.05489 12.4635344,21.8808353 C10.156283,16.5620676 16.9134476,7.89614725 22.7663531,5.57844898 Z" id="sad_concerned_natural_Eyebrow" fill="#000000" transform="translate(27.000000, 13.000000) scale(-1, -1) translate(-27.000000, -13.000000) " />
        <path d="M80.7663531,5.57844898 L81.6772984,5.17582144 C86.9190996,3.09473425 94.8645466,3.96712704 99.7227321,6.29911638 C100.289785,6.57148957 99.9021563,7.4519421 99.3211012,7.40711006 C84.4021788,6.25602197 74.3582869,15.5525942 70.9460869,21.8470939 C70.8449215,22.0337142 70.5391523,22.05489 70.4635344,21.8808353 C68.156283,16.5620676 74.9134476,7.89614725 80.7663531,5.57844898 Z" id="sad_concerned_natural_Eyebrow" fill="#000000" transform="translate(85.000000, 13.000000) scale(1, -1) translate(-85.000000, -13.000000) " />
    </g>
</g>
        </g>
        <g id="transparent_Top">
            
        <g id="jedi_Hairstyle/Jedi" stroke="none" stroke-width="1" fill="none" fill-rule="evenodd">
        <g id="jedi_Facial-Hair" transform="translate(49.000000, 72.000000)"><g id="einstien_mustache_Facial Hair/Einstien Mustache" stroke="none" stroke-width="1" fill="none" fill-rule="evenodd">
        <g id="einstien_mustache_mustache" transform="translate(52.000000, 65.000000)">
            <path d="M0.1095,17.4004 C0.1095,17.4004 5.0135,0.0004 30.2595,0.0004 C55.5055,0.0004 62.9515,16.1414 63.3155,17.5484 C63.6785,18.9564 63.1335,21.7704 59.3185,20.2144 C55.5055,18.6594 54.7785,17.0494 52.9625,18.8544 C51.1465,20.6594 50.6925,23.4834 47.9675,22.6194 C45.2435,21.7564 44.9715,16.6794 41.7015,18.8544 C38.4325,21.0294 38.5235,23.5484 35.5265,22.0254 C33.2325,20.8584 31.5305,17.7164 29.9865,18.8544 C28.4425,19.9924 28.7155,22.8484 25.8095,22.6054 C22.9035,22.3624 21.6015,19.4394 20.1495,19.4094 C16.6075,19.3354 17.2735,21.9924 14.7305,22.2144 C12.1875,22.4374 10.7345,18.1764 8.5545,18.1294 C6.3755,18.0824 -0.9805,24.4374 0.1095,17.4004" id="einstien_mustache_Facial-Hair-Color" fill="#F59797" ns2:color="Hair-500" />
            <path d="M21.2369,19.8873 C22.0519,14.8863 23.6129,9.9273 23.8379,4.8753 C23.9079,3.3003 20.9079,3.3033 20.8379,4.8753 C20.6149,9.8823 19.0779,14.7933 18.2569,19.7463 C18.7199,19.5293 19.3159,19.3913 20.1489,19.4093 C20.5119,19.4173 20.8649,19.6053 21.2369,19.8873" id="einstien_mustache_Fill-4" fill-opacity=".16" fill="#000" />
            <path d="M8.5548,18.1294 C8.7758,18.1344 8.9868,18.1914 9.1948,18.2734 C9.5518,16.4414 10.1578,14.6404 11.0478,12.9324 C11.6798,11.7214 12.4528,10.5554 13.3278,9.4514 C14.2368,8.3034 15.2668,7.1924 15.5198,5.8044 C15.6388,5.1514 15.3198,4.4894 14.4718,4.2994 C13.7648,4.1414 12.7468,4.4964 12.6268,5.1534 C12.3818,6.5004 11.2428,7.5354 10.3928,8.6614 C9.4768,9.8754 8.7128,11.1554 8.0568,12.4754 C7.0118,14.5794 6.3628,16.7924 6.0468,19.0424 C7.0728,18.5374 7.9888,18.1174 8.5548,18.1294" id="einstien_mustache_Fill-6" fill-opacity=".16" fill="#000" />
            <path d="M32.9596,20.0132 C33.0526,14.9272 32.7116,9.8432 31.9156,4.7922 C31.8126,4.1322 31.3006,3.5762 30.4156,3.56915338 C29.6846,3.5632 28.8126,4.1372 28.9156,4.7922 C29.6516,9.4612 30.0036,14.1592 29.9796,18.8612 C29.9816,18.8592 29.9846,18.8562 29.9866,18.8542 C30.8936,18.1862 31.8556,18.9962 32.9596,20.0132" id="einstien_mustache_Fill-8" fill-opacity=".16" fill="#000" />
            <path d="M43.4313,18.3545 C43.4523,16.9565 43.4323,15.5585 43.2663,14.1635 C42.8603,10.7705 41.6363,7.4605 40.6263,4.1635 C40.1593,2.6365 37.2643,3.2835 37.7343,4.8135 C38.7133,8.0145 39.9793,11.2575 40.3093,14.5575 C40.4863,16.3285 40.4483,18.1035 40.4013,19.8785 C40.7713,19.5395 41.1923,19.1935 41.7023,18.8545 C42.3993,18.3905 42.9543,18.2705 43.4313,18.3545" id="einstien_mustache_Fill-10" fill-opacity=".16" fill="#000" />
            <path d="M47.0817,7.9122 C49.9427,11.4532 51.3527,15.5112 52.2867,19.6402 C52.4927,19.3672 52.7147,19.1012 52.9627,18.8542 C53.7177,18.1042 54.2857,17.9492 54.9647,18.1302 C53.9717,14.0942 52.4777,10.1482 49.6727,6.6772 C48.6137,5.3682 46.0157,6.5922 47.0817,7.9122" id="einstien_mustache_Fill-12" fill-opacity=".16" fill="#000" />
        </g>
    </g>
</g>
        <g id="jedi_Accessory" transform="translate(62.000000, 85.000000)" />
        <g id="jedi_Group-10" transform="translate(45.100000, 25.500000)">
            <path d="M32.3295,132.4725 C32.3295,132.4725 84.6375,81.7315 146.7525,122.4155 C146.7525,122.4155 171.7465,103.5295 157.3015,85.0005 C142.8565,66.4725 49.0385,58.1205 49.0385,58.1205 L11.2605,100.9845 C11.2605,100.9845 13.3055,117.1835 32.3295,132.4725" id="jedi_Fill-1" fill-opacity=".24" fill="#000" />
            <path d="M147.4413,181.7171 C143.4353,176.4381 135.6783,165.0601 136.2183,160.1941 C136.9453,153.6551 170.7273,123.5061 170.7273,96.2621 C170.7273,73.0141 122.4163,0.0001 85.3643,0.0001 C48.3123,0.0001 0.0003,73.0141 0.0003,96.2621 C0.0003,123.5061 33.7823,153.6551 34.5083,160.1941 C35.2353,166.7331 24.7913,181.7171 24.7913,181.7171 C24.7793,181.7281 38.1183,181.724231 46.9553,181.7201 C51.1803,181.7191 54.6033,178.2931 54.6033,174.0681 L54.6033,150.2421 C41.4913,140.9831 32.5303,126.2361 31.0763,109.3401 C25.6443,108.5271 21.4053,104.0741 20.9163,98.5431 C33.7693,86.1371 58.4843,77.7361 86.8773,77.7361 C115.2553,77.7361 139.9603,86.1301 152.8183,98.5251 C152.3373,104.0641 148.0943,108.5261 142.6583,109.3401 C141.2033,126.2361 132.2433,140.9831 119.1303,150.2421 L119.1303,174.0641 C119.1303,178.2901 122.5563,181.7171 126.7833,181.7171 L147.4413,181.7171 Z" id="jedi_Fabric-Color" fill="#FFFFB1" />
            <path d="M31.076,109.3397 C25.644,108.5267 21.405,104.0737 20.916,98.5437 C20.916,98.5437 16.437,102.4227 16.437,110.9737 C16.437,127.2367 46.95,151.2947 46.95,172.5447 L46.95,181.7167 C51.177,181.7167 54.603,178.2907 54.603,174.0637 L54.603,173.7117 C57.643,173.2937 62.857,173.4727 62.857,173.4727 L62.857,155.0837 C58.739,153.0837 54.603,150.2427 54.603,150.2427 C41.491,140.9827 32.53,126.2357 31.076,109.3397" id="jedi_Fill-6" fill="#070707" />
            <path d="M152.8231,98.5433 C152.3341,104.0743 148.0941,108.5263 142.6631,109.3393 C141.2091,126.2353 132.2481,140.9823 119.1351,150.2423 C119.1351,150.2423 115.0001,153.0833 110.8831,155.0833 L110.8831,173.4733 C110.8831,173.4733 116.0951,173.2933 119.1351,173.7113 L119.1351,174.0643 C119.1351,178.2903 122.5621,181.7173 126.7891,181.7173 L126.7891,172.5443 C126.7891,151.2943 157.3021,127.2363 157.3021,110.9733 C157.3021,102.4233 152.8231,98.5433 152.8231,98.5433" id="jedi_Fill-8" fill="#070707" />
        </g>
    </g>
</g>
    </g>
</svg>