<svg xmlns="http://www.w3.org/2000/svg" xmlns:ns2="http://design.blush" xmlns:xlink="http://www.w3.org/1999/xlink" width="264px" height="280px" viewBox="0 0 264 280" version="1.1">
    <title id="transparent_Title">Avataaar/Default</title>
    <desc>Created with python_avatars</desc>
    <defs>
        <path d="M100,0 C130.927946,-5.68137151e-15 156,25.072054 156,56 L156.000809,62.1660527 C161.675838,63.1185422 166,68.05429 166,74 L166,88 C166,94.0524166 161.519235,99.0582945 155.693975,99.8813638 C153.627928,119.686472 141.237929,136.421678 124.001014,144.610469 L124,163 L128,163 C167.764502,163 200,195.235498 200,235 L200,244 L0,244 L0,235 C-4.86974701e-15,195.235498 32.235498,163 72,163 L76,163 L75.9999836,144.610943 C58.7625487,136.422324 46.3721119,119.686854 44.3051107,99.8809698 C38.480765,99.0582945 34,94.0524166 34,88 L34,74 C34,68.053942 38.3246685,63.1179645 44.0001873,62.1658855 L44,56 C44,25.072054 69.072054,5.68137151e-15 100,0 Z" id="transparent_path-1" />
        <path d="M83,36.3476251 C83,52.6289957 105.161905,65.8276544 132.5,65.8276544 C159.838095,65.8276544 182,52.6289957 182,36.3476251 C182,34.9853134 181.844841,33.6445843 181.544472,32.3313638 C210.784239,41.4879251 232,68.792221 232,101.051724 L232,110 L32,110 L32,101.051724 C32,68.3970853 53.7386736,40.8197864 83.5337207,32.0021267 C83.1821692,33.4207025 83,34.871494 83,36.3476251 Z" id="transparent_path-3" />
        <rect id="transparent_path-5" x="0" y="0" width="264" height="280" />
        <path d="M74,0 C114.869071,0 148,33.1309285 148,74 L148,84.1482318 L148,197.608051 C135.525121,187.236892 119.490913,181 102,181 L102,181 L98,181 L98,162.610951 C115.530782,154.282984 128.048193,137.114792 129.791419,116.867187 C135.569129,116.002364 140,111.018625 140,105 L140,105 L140,92 C140,87.3536213 137.359271,83.3240177 133.496777,81.3301515 C132.723933,81.0500337 131.951808,80.748163 131.180891,80.4262497 C130.794819,80.3202581 130.400778,80.2331546 130,80.1659169 L130,80.1659169 L130.000458,79.9172528 C117.224481,74.2339715 104.877985,63.0706967 96.1104311,47.8848473 C93.1752556,42.8009742 90.8310687,37.5951441 89.0661426,32.3970356 C80.4313947,42.9409152 67.7445474,53.6023901 52.3415164,62.4953343 C42.777598,68.0170651 33.1467898,72.2910056 24,75.2659587 L24.0003852,137.246608 C29.6019576,148.318362 38.7728825,157.277529 50,162.610951 L50,162.610951 L50,181 L46,181 C38.3273639,181 30.9350359,182.200142 24.0004995,184.422941 L24,230 C24,244.105888 13.5691766,255.775526 0,257.716445 L0,74 C0,33.1309285 33.1309285,0 74,0 Z" id="transparent_path-7" />
    </defs>
    <g id="transparent_Avataaar/Default" stroke="none" stroke-width="1" fill="none" fill-rule="evenodd">
        <g id="transparent_Body" transform="translate(32.000000, 36.000000)">
            <mask id="transparent_mask-2" fill="white">
                <use xlink:href="#transparent_path-1" />
            </mask>
            <use fill="#D0C6AC" xlink:href="#transparent_path-1" />
            <g id="transparent_Skin-Color" mask="url(#transparent_mask-2)" fill="#AE5D29">
                <g transform="translate(-32.000000, 0.000000)" id="transparent_Color">
                    <rect x="0" y="0" width="264" height="244" />
                </g>
            </g>
            <path d="M44,94 C44,124.927946 69.072054,150 100,150 C130.927946,150 156,124.927946 156,94 L156,94 L156,102 C156,132.927946 130.927946,158 100,158 C69.072054,158 44,132.927946 44,102 Z" id="transparent_Neck-Shadow" fill-opacity="0.100000001" fill="#000000" mask="url(#transparent_mask-2)" />
        </g>
        <g id="transparent_Clothing" transform="translate(0.000000, 170.000000)">
            
        <defs>
        <path d="M83,36.3476251 C83,52.6289957 105.161905,65.8276544 132.5,65.8276544 C159.838095,65.8276544 182,52.6289957 182,36.3476251 C182,34.9853134 181.844841,33.6445843 181.544472,32.3313638 C210.784239,41.4879251 232,68.792221 232,101.051724 L232,110 L32,110 L32,101.051724 C32,68.3970853 53.7386736,40.8197864 83.5337207,32.0021267 C83.1821692,33.4207025 83,34.871494 83,36.3476251 Z" id="shirt_scoop_neck_path-1" />
    </defs>
    <g id="shirt_scoop_neck_Clothing/Shirt-Scoop-Neck" stroke="none" stroke-width="1" fill="none" fill-rule="evenodd">
        <mask id="shirt_scoop_neck_mask-2" fill="white">
            <use xlink:href="#shirt_scoop_neck_path-1" />
        </mask>
        <use id="shirt_scoop_neck_Clothes" fill="#E6E6E6" xlink:href="#shirt_scoop_neck_path-1" />
        <g id="shirt_scoop_neck_Fabric-Color" mask="url(#shirt_scoop_neck_mask-2)" fill="#25557C">
            <rect id="shirt_scoop_neck_ðŸ–Color" x="0" y="0" width="264" height="110" />
        </g>
    </g>
</g>
        <g id="transparent_Face" transform="translate(76.000000, 82.000000)" fill="#000000">
            <g id="transparent_Mouth" transform="translate(2.000000, 52.000000)">    
                
            <g id="disbelief_Mouth/Disbelief" stroke="none" stroke-width="1" fill="none" fill-rule="evenodd" fill-opacity="0.699999988">
        <path d="M40,15 C40,22.7319865 46.2680135,29 54,29 L54,29 C61.7319865,29 68,22.7319865 68,15" id="disbelief_Mouth" fill="#000000" transform="translate(54.000000, 22.000000) scale(1, -1) translate(-54.000000, -22.000000) " />
    </g>
</g>
            <g id="transparent_Nose" transform="translate(28.000000, 40.000000)" fill-opacity="0.16">
                
            <g id="wide_Nose/Wide" stroke="none" stroke-width="1" fill="none" fill-rule="evenodd"><path d="M13,6 C13,12.627417 16.8281211,18 28,18 C39.1718789,18 43,12.627417 43,6 C39.0361818,6 32.8972468,9 27.83815,9 C23.0794079,9 17.1013384,6 13,6 Z" id="wide_Nose" fill-opacity=".16" fill="#000" /></g></g>
            <g id="transparent_Eyes" transform="translate(0.000000, 8.000000)">
                
            <g id="cry_Eyes/Cry-ðŸ˜¢" stroke="none" stroke-width="1" fill="none" fill-rule="evenodd">
        <circle id="cry_Eye" fill-opacity="0.599999964" fill="#000000" cx="30" cy="22" r="6" />
        <path d="M25,27 C25,27 19,34.2706667 19,38.2706667 C19,41.5846667 21.686,44.2706667 25,44.2706667 C28.314,44.2706667 31,41.5846667 31,38.2706667 C31,34.2706667 25,27 25,27 Z" id="cry_Drop" fill="#92D9FF" fill-rule="nonzero" />
        <circle id="cry_Eye" fill-opacity="0.599999964" fill="#000000" cx="82" cy="22" r="6" />
    </g>
</g>
            <g id="transparent_Eyebrow" fill-opacity="0.599999964">
                
            <g id="angry_natural_Eyebrow/Natural/Angry-Natural" stroke="none" stroke-width="1" fill="none" fill-rule="evenodd" fill-opacity="0.599999964">
        <path d="M44.8565785,12.2282877 C44.8578785,12.2192877 44.8578785,12.2192877 44.8565785,12.2282877 M17.5862288,7.89238094 C15.2441598,8.3302947 13.0866155,9.78806858 12.1523766,12.0987479 C11.8009169,12.967391 11.3917103,14.9243181 11.7083227,15.8073302 C11.8284629,16.14295 12.0332321,16.1008692 12.9555234,16.0430509 C14.643791,15.9369937 16.9330912,13.6622369 18.7484684,13.2557982 C21.2753939,12.6899315 23.9825295,13.1148447 26.4961798,13.6882381 C30.8109365,14.6725177 36.4854008,17.7875215 40.9461842,16.1699775 C41.2783949,16.0495512 45.6210294,12.9225732 44.3685187,12.2769925 C43.9238011,11.9068186 41.1370145,12.0854053 40.6216067,11.9988489 C38.2277647,11.5971998 35.7297127,10.9345131 33.373373,10.3265657 C28.2329017,9.00016592 22.9666484,6.88073171 17.5862288,7.89238094" id="angry_natural_Eyebrows-The-Web" fill="#000000" transform="translate(28.094701, 12.127505) rotate(17.000000) translate(-28.094701, -12.127505) " />
        <path d="M100.918293,12.2094196 C100.919593,12.2004196 100.919593,12.2004196 100.918293,12.2094196 M73.5862288,7.89238094 C71.2441598,8.3302947 69.0866155,9.78806858 68.1523766,12.0987479 C67.8009169,12.967391 67.3917103,14.9243181 67.7083227,15.8073302 C67.8284629,16.14295 68.0332321,16.1008692 68.9555234,16.0430509 C70.643791,15.9369937 72.9330912,13.6622369 74.7484684,13.2557982 C77.2753939,12.6899315 79.9825295,13.1148447 82.4961798,13.6882381 C86.8109365,14.6725177 92.4854008,17.7875215 96.9461842,16.1699775 C97.2783949,16.0495512 101.621029,12.9225732 100.368519,12.2769925 C99.9238011,11.9068186 97.1370145,12.0854053 96.6216067,11.9988489 C94.2277647,11.5971998 91.7297127,10.9345131 89.373373,10.3265657 C84.2329017,9.00016592 78.9666484,6.88073171 73.5862288,7.89238094" id="angry_natural_Eyebrows-The-Web" fill="#000000" transform="translate(84.094701, 12.127505) scale(-1, 1) rotate(17.000000) translate(-84.094701, -12.127505) " />
    </g>
</g>
        </g>
        <g id="transparent_Top">
            
        <g id="astronout_Hairstyle/Astronout" stroke="none" stroke-width="1" fill="none" fill-rule="evenodd">
        <path d="M157.153901,81.8089233 C152.875387,84.8881087 146.944923,87.9808041 139.003339,89.8379429 C136.837339,90.3439429 135.362339,87.6699429 136.935339,86.0969429 C139.768339,83.2649429 143.008339,79.5939429 144.867339,76.0529429 C144.867339,76.0529429 136.0888,73.4632 121.9228,78.7302 C106.4998,83.3702 93.8718,92.7000135 89.9808,97.9150135 C88.8338,99.4530135 86.5968,90.6059946 89.9808,84.6839946 C89.9808,84.6839946 78.2650595,91.6082 80.3581732,77.1422 L93.9378,67.7286002 C93.3577024,68.3086979 121.425301,44.5883868 136.935339,44.6129756 C164.846101,44.6574385 188.3288,70.1747449 188.3288,87.4531292 C188.3288,102.226129 203.572389,109.692493 191.3288,113.2352 C188.3288,114.103256 174.3208,97.5312 176.6818,87.9052 L173.5288,91.6082 C173.0408,93.5932 164.97823,89.6240921 164.97823,82.2283756 C164.97823,82.2283756 163.825444,77.0075086 157.153901,81.8089233 Z" id="astronout_Hair-Color" fill="#D6B370" ns2:color="Hair-500" />
        <g id="astronout_Accessory" transform="translate(62.000000, 85.000000)" />
        <g id="astronout_Astronaut" transform="translate(42.400000, 20.400000)">
            <path d="M90.5656,15.5468 C121.4936,15.5468 146.5646,40.6188 146.5646,71.5468 L146.5646,71.5468 L146.5656,77.7128 C152.2406,78.6648 156.5646,83.6008 156.5646,89.5468 L156.5646,89.5468 L156.5646,103.5468 C156.5646,109.5658 152.1346,114.5488 146.3566,115.4138 C144.6136,135.6608 132.0966,152.8288 114.5656,161.1578 L114.5656,161.1578 L114.5656,176.4388 L66.5656,176.4388 L66.5656,161.1578 C49.0346,152.8288 36.5176,135.6608 34.7746,115.4138 C28.9966,114.5488 24.5656,109.5658 24.5656,103.5468 L24.5656,103.5468 L24.5656,89.5468 C24.5656,83.5998 28.8906,78.6648 34.5656,77.7128 L34.5656,77.7128 L34.5656,71.5468 C34.5656,40.6188 59.6376,15.5468 90.5656,15.5468 Z M90.5856,38.5288 C62.8336,38.5288 40.3356,59.9928 40.3356,86.4708 L40.3356,86.4708 L40.3356,110.4288 C40.3356,136.9068 62.8336,158.3708 90.5856,158.3708 C118.3376,158.3708 140.8356,136.9068 140.8356,110.4288 L140.8356,110.4288 L140.8356,86.4708 C140.8356,59.9928 118.3376,38.5288 90.5856,38.5288 Z" id="astronout_Combined-Shape" fill="#0F1011" />
            <path d="M0.0006,90.8376 C0.0006,140.8666 40.5566,181.4226 90.5856,181.4226 C140.6146,181.4226 181.1716,140.8666 181.1716,90.8376 C181.1716,40.8086 140.6146,0.2516 90.5856,0.2516 C40.5566,0.2516 0.0006,40.8086 0.0006,90.8376 Z" id="astronout_Path" stroke="#5F5F5F" stroke-width="3" fill="#B8B8B8" opacity=".194" />
            <path d="M136.4206,136.2853 C119.1286,127.7993 127.7896,108.8133 103.1836,75.2593 C85.2026004,50.7393 52.5096004,66.5403 44.6086004,43.3833 C36.9656004,20.9803 107.6826,-11.7817 150.8596,31.3963 C187.0096,67.5453 161.7216,148.7013 136.4206,136.2853" id="astronout_Fill-12" fill="#FFF" opacity=".17" />
            <path d="M43.9274004,168.38 C54.4464004,169.897 90.8464004,174.15 136.1304,168.275 C137.7554,168.065 139.3084,169.02 139.8334,170.571 L142.7114,179.069 C143.2964,180.796 142.4364,182.677 140.7434,183.353 C129.8804,187.684 90.4514004,200.552 40.3664004,183.131 C38.6884004,182.547 37.7144004,180.798 38.1344004,179.071 L40.1064004,170.964 C40.5244004,169.245 42.1764004,168.128 43.9274004,168.38" id="astronout_Fill-9" fill="#D4EEF4" />
            <path d="M105.4987,186.8038 L90.3547,186.8038 C87.9157,186.8038 85.9397,184.8268 85.9397,182.3888 L85.9397,180.4568 C85.9397,178.0188 87.9157,176.0418 90.3547,176.0418 L105.4987,176.0418 C107.9367,176.0418 109.9137,178.0188 109.9137,180.4568 L109.9137,182.3888 C109.9137,184.8268 107.9367,186.8038 105.4987,186.8038" id="astronout_Fill-14" fill="#A9CDD3" />
            <path d="M83.5134,181.0851 C83.5134,183.8701 81.2554,186.1281 78.4704,186.1281 C75.6854,186.1281 73.4274,183.8701 73.4274,181.0851 C73.4274,178.3001 75.6854,176.0421 78.4704,176.0421 C81.2554,176.0421 83.5134,178.3001 83.5134,181.0851" id="astronout_Fill-16" fill="#A9CDD3" />
        </g>
    </g>
</g>
    </g>
</svg>