<svg xmlns="http://www.w3.org/2000/svg" xmlns:ns2="http://design.blush" xmlns:xlink="http://www.w3.org/1999/xlink" width="264px" height="280px" viewBox="0 0 264 280" version="1.1">
    <title id="transparent_Title">Avataaar/Default</title>
    <desc>Created with python_avatars</desc>
    <defs>
        <path d="M100,0 C130.927946,-5.68137151e-15 156,25.072054 156,56 L156.000809,62.1660527 C161.675838,63.1185422 166,68.05429 166,74 L166,88 C166,94.0524166 161.519235,99.0582945 155.693975,99.8813638 C153.627928,119.686472 141.237929,136.421678 124.001014,144.610469 L124,163 L128,163 C167.764502,163 200,195.235498 200,235 L200,244 L0,244 L0,235 C-4.86974701e-15,195.235498 32.235498,163 72,163 L76,163 L75.9999836,144.610943 C58.7625487,136.422324 46.3721119,119.686854 44.3051107,99.8809698 C38.480765,99.0582945 34,94.0524166 34,88 L34,74 C34,68.053942 38.3246685,63.1179645 44.0001873,62.1658855 L44,56 C44,25.072054 69.072054,5.68137151e-15 100,0 Z" id="transparent_path-1" />
        <path d="M83,36.3476251 C83,52.6289957 105.161905,65.8276544 132.5,65.8276544 C159.838095,65.8276544 182,52.6289957 182,36.3476251 C182,34.9853134 181.844841,33.6445843 181.544472,32.3313638 C210.784239,41.4879251 232,68.792221 232,101.051724 L232,110 L32,110 L32,101.051724 C32,68.3970853 53.7386736,40.8197864 83.5337207,32.0021267 C83.1821692,33.4207025 83,34.871494 83,36.3476251 Z" id="transparent_path-3" />
        <rect id="transparent_path-5" x="0" y="0" width="264" height="280" />
        <path d="M74,0 C114.869071,0 148,33.1309285 148,74 L148,84.1482318 L148,197.608051 C135.525121,187.236892 119.490913,181 102,181 L102,181 L98,181 L98,162.610951 C115.530782,154.282984 128.048193,137.114792 129.791419,116.867187 C135.569129,116.002364 140,111.018625 140,105 L140,105 L140,92 C140,87.3536213 137.359271,83.3240177 133.496777,81.3301515 C132.723933,81.0500337 131.951808,80.748163 131.180891,80.4262497 C130.794819,80.3202581 130.400778,80.2331546 130,80.1659169 L130,80.1659169 L130.000458,79.9172528 C117.224481,74.2339715 104.877985,63.0706967 96.1104311,47.8848473 C93.1752556,42.8009742 90.8310687,37.5951441 89.0661426,32.3970356 C80.4313947,42.9409152 67.7445474,53.6023901 52.3415164,62.4953343 C42.777598,68.0170651 33.1467898,72.2910056 24,75.2659587 L24.0003852,137.246608 C29.6019576,148.318362 38.7728825,157.277529 50,162.610951 L50,162.610951 L50,181 L46,181 C38.3273639,181 30.9350359,182.200142 24.0004995,184.422941 L24,230 C24,244.105888 13.5691766,255.775526 0,257.716445 L0,74 C0,33.1309285 33.1309285,0 74,0 Z" id="transparent_path-7" />
    </defs>
    <g id="transparent_Avataaar/Default" stroke="none" stroke-width="1" fill="none" fill-rule="evenodd">
        <g id="transparent_Body" transform="translate(32.000000, 36.000000)">
            <mask id="transparent_mask-2" fill="white">
                <use xlink:href="#transparent_path-1" />
            </mask>
            <use fill="#D0C6AC" xlink:href="#transparent_path-1" />
            <g id="transparent_Skin-Color" mask="url(#transparent_mask-2)" fill="#614335">
                <g transform="translate(-32.000000, 0.000000)" id="transparent_Color">
                    <rect x="0" y="0" width="264" height="244" />
                </g>
            </g>
            <path d="M44,94 C44,124.927946 69.072054,150 100,150 C130.927946,150 156,124.927946 156,94 L156,94 L156,102 C156,132.927946 130.927946,158 100,158 C69.072054,158 44,132.927946 44,102 Z" id="transparent_Neck-Shadow" fill-opacity="0.100000001" fill="#000000" mask="url(#transparent_mask-2)" />
        </g>
        <g id="transparent_Clothing" transform="translate(0.000000, 170.000000)">
            
        <g id="bond_suit_Clothing/Bond Suit" stroke="none" stroke-width="1" fill="none" fill-rule="evenodd">
        <g id="bond_suit_Suit" transform="translate(31.500000, 28.600000)">
            <path d="M124.379699,3.0005061 L128.359699,3.0005061 C167.925874,3.0005061 199.999699,34.434727 199.999699,73.2118883 L199.999699,81.9883111 L0.9996985,81.9883111 L0.9996985,73.2118883 L1.0096485,72.050475 C1.6424685,33.8096507 33.4695335,3.0005061 72.6396985,3.0005061 L76.6196985,3.0005061 C76.6196985,3.0005061 76.4236835,15.1129447 100.491739,15.1129447 C124.559794,15.1129447 124.379699,3.0005061 124.379699,3.0005061" id="bond_suit_Fabric-Color" fill="#65C9FF" ns2:color="Top-500" />
            <path d="M86.846271,30.4401 L100.520301,16.6691854 L114.194331,30.4401 L142.147401,2.28791707 C137.769621,1.45386829 133.258176,1.00040488 128.639196,1.00040488 L124.619196,1.00040488 C124.619196,1.00040488 124.801101,13.5728805 100.491156,13.5728805 C76.181211,13.5728805 76.380201,1.00040488 76.380201,1.00040488 L72.360201,1.00040488 C67.753281,1.00040488 63.252891,1.44981951 58.885161,2.27981951 L86.846271,30.4401 Z" id="bond_suit_Fill-7" fill="#FFF" />
            <path d="M128.639698,0.000506097561 L124.640803,0.000506097561 L124.640803,81.988311 L200.999698,81.988311 L200.999698,72.8785549 C200.999698,32.6286159 168.603523,0.000506097561 128.639698,0.000506097561" id="bond_suit_Fill-9" fill="#191919" />
            <path d="M76.380201,0.000506097561 L72.360201,0.000506097561 C32.796366,0.000506097561 0.649431,31.9797988 0.009246,71.6730305 L0.000201,72.8785549 L0.000201,81.988311 L76.380201,81.988311 L76.380201,0.000506097561 Z" id="bond_suit_Fill-12" fill="#191919" />
            <path d="M66.873906,0.206082927 L40.132866,43.4571805 L62.584566,56.6946683 L48.757776,75.9982415 L55.328466,81.9884122 L76.380201,81.9884122 L76.380201,0.000607317073 C76.380201,0.000607317073 73.264701,0.0431195122 66.873906,0.206082927" id="bond_suit_Fill-15" fill="#2B2B2B" />
            <path d="M134.28006,0.224909756 L160.887435,43.4577878 L138.435735,56.6942634 L152.26353,75.9978366 L145.69083,81.9880073 L124.6401,81.9869951 L124.6401,-0.000809756098 C124.6401,-0.000809756098 127.889265,0.0619463415 134.28006,0.224909756" id="bond_suit_Fill-18" fill="#2B2B2B" />
            <path d="M117.319471,4.55653649 L104.309494,9.42526147 C103.959547,8.06616124 102.826255,7.06466754 101.46774,7.06466754 L99.5726387,7.06466754 C98.2087401,7.06466754 97.0727562,8.07300071 96.7272951,9.43894041 L83.6805286,4.55653649 C81.6014805,3.86379597 79.5,5.55705312 79.5,7.92546359 L79.5,20.8755099 C79.5,23.2429433 81.6014805,24.9362005 83.6805286,24.24346 L96.7272951,19.3620331 C97.0727562,20.7269957 98.2087401,21.7353289 99.5726387,21.7353289 L101.46774,21.7353289 C102.826255,21.7353289 103.959547,20.7328581 104.308597,19.3757121 L117.319471,24.24346 C119.398519,24.9362005 121.5,23.2429433 121.5,20.8755099 L121.5,7.92546359 C121.5,5.55705312 119.398519,3.86379597 117.319471,4.55653649" id="bond_suit_Fill-1" fill="#191919" />
        </g>
    </g>
</g>
        <g id="transparent_Face" transform="translate(76.000000, 82.000000)" fill="#000000">
            <g id="transparent_Mouth" transform="translate(2.000000, 52.000000)">    
                
            <defs>
        <rect id="grimace_path-1" x="24" y="9" width="60" height="22" rx="11" />
    </defs>
    <g id="grimace_Mouth/Grimace" stroke="none" stroke-width="1" fill="none" fill-rule="evenodd">
        <rect id="grimace_Mouth" fill-opacity="0.599999964" fill="#000000" x="22" y="7" width="64" height="26" rx="13" />
        <mask id="grimace_mask-2" fill="white">
            <use xlink:href="#grimace_path-1" />
        </mask>
        <use id="grimace_Mouth" fill="#FFFFFF" xlink:href="#grimace_path-1" />
        <path d="M36,6 L35.9993333,17.999 L44.9993333,17.999 L45,6 L49,6 L48.9993333,17.999 L57.9993333,17.999 L58,6 L62,6 L61.9993333,17.999 L70.9993333,17.999 L71,6 L75,6 L74.9993333,17.999 L83.8666667,18 L83.8666667,22 L74.9993333,21.999 L75,34 L71,34 L70.9993333,21.999 L61.9993333,21.999 L62,34 L58,34 L57.9993333,21.999 L48.9993333,21.999 L49,34 L45,34 L44.9993333,21.999 L35.9993333,21.999 L36,34 L32,34 L31.9993333,21.999 L24,22 L24,18 L31.9993333,17.999 L32,6 L36,6 Z" id="grimace_Grimace-Teeth" fill="#E6E6E6" mask="url(#grimace_mask-2)" />
    </g>
</g>
            <g id="transparent_Nose" transform="translate(28.000000, 40.000000)" fill-opacity="0.16">
                
            <g id="small_Nose/Small" stroke="none" stroke-width="1" fill="none" fill-rule="evenodd"><path d="M20,7 C20,12.5228475 24.0470996,15 28,15 C31.9529004,15 36,12.5228475 36,7 C33.8327451,7.7317728 31.1406373,8.0976592 27.9236765,8.0976592 C24.7406373,8.0976592 22.0994118,7.7317728 20,7 Z" id="small_Nose" fill-opacity=".16" fill="#000" /></g></g>
            <g id="transparent_Eyes" transform="translate(0.000000, 8.000000)">
                
            <g id="x_dizzy_Eyes/X-Dizzy-ðŸ˜µ" stroke="none" stroke-width="1" fill="none" fill-rule="evenodd" fill-opacity="0.599999964">
        <path d="M23.5,13.3 L29,18.799 L34.5,13.3 C34.9,12.9 35.6,12.9 36.1,13.3 L37.7,14.9 C38.1,15.3 38.1,16 37.7,16.5 L32.2,22 L37.7,27.5 C38.1,27.9 38.1,28.6 37.7,29.1 L36.1,30.7 C35.7,31.1 35,31.1 34.5,30.7 L29,25.2 L23.5,30.7 C23.1,31.1 22.4,31.1 21.9,30.7 L20.3,29.1 C19.9,28.7 19.9,28 20.3,27.5 L25.799,22 L20.3,16.5 C19.9,16 19.9,15.3 20.3,14.9 L21.9,13.3 C22.3,12.9 23,12.9 23.5,13.3 Z" id="x_dizzy_Eye" fill="#000000" fill-rule="nonzero" />
        <path d="M77.5,13.3 L83,18.799 L88.5,13.3 C88.9,12.9 89.6,12.9 90.1,13.3 L91.7,14.9 C92.1,15.3 92.1,16 91.7,16.5 L86.2,22 L91.7,27.5 C92.1,27.9 92.1,28.6 91.7,29.1 L90.1,30.7 C89.7,31.1 89,31.1 88.5,30.7 L83,25.2 L77.5,30.7 C77.1,31.1 76.4,31.1 75.9,30.7 L74.3,29.1 C73.9,28.7 73.9,28 74.3,27.5 L79.799,22 L74.3,16.5 C73.9,16 73.9,15.3 74.3,14.9 L75.9,13.3 C76.3,12.9 77,12.9 77.5,13.3 Z" id="x_dizzy_Eye" fill="#000000" fill-rule="nonzero" />
    </g>
</g>
            <g id="transparent_Eyebrow" fill-opacity="0.599999964">
                
            <g id="angry_natural_Eyebrow/Natural/Angry-Natural" stroke="none" stroke-width="1" fill="none" fill-rule="evenodd" fill-opacity="0.599999964">
        <path d="M44.8565785,12.2282877 C44.8578785,12.2192877 44.8578785,12.2192877 44.8565785,12.2282877 M17.5862288,7.89238094 C15.2441598,8.3302947 13.0866155,9.78806858 12.1523766,12.0987479 C11.8009169,12.967391 11.3917103,14.9243181 11.7083227,15.8073302 C11.8284629,16.14295 12.0332321,16.1008692 12.9555234,16.0430509 C14.643791,15.9369937 16.9330912,13.6622369 18.7484684,13.2557982 C21.2753939,12.6899315 23.9825295,13.1148447 26.4961798,13.6882381 C30.8109365,14.6725177 36.4854008,17.7875215 40.9461842,16.1699775 C41.2783949,16.0495512 45.6210294,12.9225732 44.3685187,12.2769925 C43.9238011,11.9068186 41.1370145,12.0854053 40.6216067,11.9988489 C38.2277647,11.5971998 35.7297127,10.9345131 33.373373,10.3265657 C28.2329017,9.00016592 22.9666484,6.88073171 17.5862288,7.89238094" id="angry_natural_Eyebrows-The-Web" fill="#000000" transform="translate(28.094701, 12.127505) rotate(17.000000) translate(-28.094701, -12.127505) " />
        <path d="M100.918293,12.2094196 C100.919593,12.2004196 100.919593,12.2004196 100.918293,12.2094196 M73.5862288,7.89238094 C71.2441598,8.3302947 69.0866155,9.78806858 68.1523766,12.0987479 C67.8009169,12.967391 67.3917103,14.9243181 67.7083227,15.8073302 C67.8284629,16.14295 68.0332321,16.1008692 68.9555234,16.0430509 C70.643791,15.9369937 72.9330912,13.6622369 74.7484684,13.2557982 C77.2753939,12.6899315 79.9825295,13.1148447 82.4961798,13.6882381 C86.8109365,14.6725177 92.4854008,17.7875215 96.9461842,16.1699775 C97.2783949,16.0495512 101.621029,12.9225732 100.368519,12.2769925 C99.9238011,11.9068186 97.1370145,12.0854053 96.6216067,11.9988489 C94.2277647,11.5971998 91.7297127,10.9345131 89.373373,10.3265657 C84.2329017,9.00016592 78.9666484,6.88073171 73.5862288,7.89238094" id="angry_natural_Eyebrows-The-Web" fill="#000000" transform="translate(84.094701, 12.127505) scale(-1, 1) rotate(17.000000) translate(-84.094701, -12.127505) " />
    </g>
</g>
        </g>
        <g id="transparent_Top">
            
        <defs>
        <path d="M32.4485915,77.5347425 C26.3649028,77.5347425 22.6330986,80.4596103 22.6330986,86.5347425 L22.6330986,165.988782 C22.6330986,196.446757 0,196.404852 0,176.910255 L0,103.04488 C0,68.8032255 17.2273451,21 72,21 L73.6319364,21.0142796 C127.115479,21.9547084 144,69.1456421 144,103.04488 L144,103.04488 L144,176.910255 C144,196.404852 121.366901,196.446757 121.366901,165.988782 L121.366901,165.988782 L121.366901,86.5347425 C121.366901,80.4596103 117.635097,77.5347425 111.551408,77.5347425 L111.551408,77.5347425 L72,77.5347425 L32.4485915,77.5347425 Z" id="winter_hat_2_path-1" />
    </defs>
    <g id="winter_hat_2_Facial-Hair" transform="translate(49.000000, 72.000000)"><defs>
        <path d="M92.8529444,110.772863 C92.4646999,110.690176 89.5136632,105.844079 83.9998344,96.2345713 C78.4862283,105.844079 75.5351917,110.690176 75.1467245,110.772863 C71.7624488,111.494309 69.0848316,110.462621 66.5712661,108.168569 C63.4212068,105.293259 61.0789787,94.1669555 59.5445817,74.7896583 C70.8461226,73.7591561 77.8028468,72.982027 80.4147542,72.4582708 C81.6840664,72.2035248 83.0706538,71.7508657 83.9998344,71 C84.929015,71.7508657 86.3159365,72.2035248 87.5845805,72.4582708 C90.1967107,72.982027 96.6092912,73.7591561 106.822322,74.7896583 C106.376658,94.1669555 104.578685,105.293259 101.428403,108.168569 C98.9148372,110.462621 96.23722,111.494309 92.8529444,110.772863 Z M119.485129,94.9574 C114.699289,80.7432272 111.022674,72.1397539 108.455284,69.1469801 C105.887895,66.1542063 100.78585,64.5245037 93.1491481,64.2578722 L74.8510547,64.2578722 C69.3311956,64.2578722 64.229038,65.8875748 59.5445817,69.1469801 C54.8601255,72.4063854 50.7221618,80.0360076 47.1306906,92.0358469 C43.5494525,94.4281216 47.6874162,99.3657372 59.5445817,106.848694 C64.2269942,109.803725 74.189578,112.02247 83.1742,112.02247 C92.158822,112.02247 103.277169,108.98551 108.455284,106.848694" id="wick_beard_facial-hairwick-beard-path-1" />
    </defs>
    <g id="wick_beard_Facial Hair/Wick Beard" stroke="none" stroke-width="1" fill="none" fill-rule="evenodd">
        <path d="M133.5472,25.575 L133.5472,63.866 C133.5472,70.516 120.4702,71.131 120.4702,71.131 L120.4702,86.356 C120.4702,91.474 110.1472,94.407 105.5142,95.466 C96.6236019,102.56883 89.9363032,106.124209 85.4523039,106.132137 C80.0074143,106.141765 71.8013797,102.612719 60.8342,95.545 C56.3992,94.559 45.5272,91.61 45.5272,86.356 L45.5272,71.131 C45.5272,71.131 32.4492,70.516 32.4492,63.866 L32.4492,25.575 C32.4492,24.153 31.2972,23 29.8752,23 C28.4532,23 27.3002,24.153 27.3002,25.575 L27.3002,64.096 C27.3022,64.096 27.3042,64.097 27.3062,64.097 C29.3732,83.903 41.7642,100.639 59.0012,108.827 C59.0012,108.827 83.0012,121.169 107.0022,108.827 C124.2392,100.638 136.6292,83.903 138.6962,64.098 L138.6962,25.575 C138.6962,24.153 137.5442,23 136.1212,23 C134.6992,23 133.5472,24.153 133.5472,25.575 Z" id="wick_beard_Combined-Shape" ns2:color="Hair-500" />
        <mask id="wick_beard_facial-hairwick-beard-mask-2" fill="#fff">
            <use xlink:href="#wick_beard_facial-hairwick-beard-path-1" />
        </mask>
        <use id="wick_beard_Lite-Beard" xlink:href="#wick_beard_facial-hairwick-beard-path-1" ns2:color="Hair-500" />
        <g id="wick_beard_Facial-Hair-Color" mask="url(#wick_beard_facial-hair-color-mask)" fill="#F59797">
            <rect x="0" y="0" width="264" height="264" />
        </g>
        <mask id="wick_beard_facial-hair-color-mask" fill="white">
            <use xlink:href="#wick_beard_Combined-Shape" />
            <use xlink:href="#wick_beard_Lite-Beard" />
        </mask>
    </g>
</g>
    <g id="winter_hat_2_Top/Accessories/Winter-Hat-2" stroke="none" stroke-width="1" fill="none" fill-rule="evenodd">
        <g id="winter_hat_2_hat" transform="translate(61.000000, 0.000000)">
            <g id="winter_hat_2_string" transform="translate(0.000000, 176.000000)" fill="#F4F4F4">
                <circle id="winter_hat_2_puff" cx="9" cy="65" r="9" />
                <rect x="8" y="0" width="2" height="58" />
            </g>
            <g id="winter_hat_2_string" transform="translate(126.000000, 168.000000)" fill="#F4F4F4">
                <circle id="winter_hat_2_puff" cx="9" cy="65" r="9" />
                <rect x="8" y="0" width="2" height="58" />
            </g>
            <circle id="winter_hat_2_puff" fill="#F4F4F4" cx="72" cy="20" r="20" />
            <mask id="winter_hat_2_mask-2" fill="white">
                <use xlink:href="#winter_hat_2_path-1" />
            </mask>
            <use id="winter_hat_2_Combined-Shape" fill="#F4F4F4" xlink:href="#winter_hat_2_path-1" />
            <g id="winter_hat_2_Fabric-Color" mask="url(#winter_hat_2_mask-2)" fill="#65C9FF">
                <g transform="translate(-2.000000, 19.000000)" id="winter_hat_2_ðŸ–Color">
                    <rect x="0" y="0" width="149" height="172" />
                </g>
            </g>
            <rect id="winter_hat_2_color-dark" fill-opacity="0.2" fill="#000000" mask="url(#winter_hat_2_mask-2)" x="-1" y="21" width="146" height="46" />
            <g id="winter_hat_2_light-triangles" mask="url(#winter_hat_2_mask-2)" fill="#FFFFFF" fill-opacity="0.5">
                <g transform="translate(29.000000, 32.000000)" id="winter_hat_2_Triangle">
                    <polygon transform="translate(12.500000, 9.000000) rotate(180.000000) translate(-12.500000, -9.000000) " points="12.5 0 25 18 0 18" />
                    <polygon transform="translate(43.500000, 9.000000) rotate(180.000000) translate(-43.500000, -9.000000) " points="43.5 0 56 18 31 18" />
                    <polygon transform="translate(74.500000, 9.000000) rotate(180.000000) translate(-74.500000, -9.000000) " points="74.5 0 87 18 62 18" />
                </g>
            </g>
            <g id="winter_hat_2_dark-triangles" mask="url(#winter_hat_2_mask-2)" fill="#000000" fill-opacity="0.5">
                <g transform="translate(13.000000, 41.000000)" id="winter_hat_2_Triangle">
                    <polygon points="12.5 0 25 18 0 18" />
                    <polygon points="43.5 0 56 18 31 18" />
                    <polygon points="74.5 0 87 18 62 18" />
                    <polygon points="105.5 0 118 18 93 18" />
                </g>
            </g>
        </g>
        <g id="winter_hat_2_Accessory" transform="translate(62.000000, 85.000000)" />
    </g>
</g>
    </g>
</svg>