<svg xmlns="http://www.w3.org/2000/svg" xmlns:dc="http://purl.org/dc/elements/1.1/" xmlns:ns3="http://creativecommons.org/ns#" xmlns:ns5="http://design.blush" xmlns:rdf="http://www.w3.org/1999/02/22-rdf-syntax-ns#" xmlns:xlink="http://www.w3.org/1999/xlink" width="264px" height="280px" viewBox="0 0 264 280" version="1.1">
    <title id="transparent_Title">Avataaar/Default</title>
    <desc>Created with python_avatars</desc>
    <defs>
        <path d="M100,0 C130.927946,-5.68137151e-15 156,25.072054 156,56 L156.000809,62.1660527 C161.675838,63.1185422 166,68.05429 166,74 L166,88 C166,94.0524166 161.519235,99.0582945 155.693975,99.8813638 C153.627928,119.686472 141.237929,136.421678 124.001014,144.610469 L124,163 L128,163 C167.764502,163 200,195.235498 200,235 L200,244 L0,244 L0,235 C-4.86974701e-15,195.235498 32.235498,163 72,163 L76,163 L75.9999836,144.610943 C58.7625487,136.422324 46.3721119,119.686854 44.3051107,99.8809698 C38.480765,99.0582945 34,94.0524166 34,88 L34,74 C34,68.053942 38.3246685,63.1179645 44.0001873,62.1658855 L44,56 C44,25.072054 69.072054,5.68137151e-15 100,0 Z" id="transparent_path-1" />
        <path d="M83,36.3476251 C83,52.6289957 105.161905,65.8276544 132.5,65.8276544 C159.838095,65.8276544 182,52.6289957 182,36.3476251 C182,34.9853134 181.844841,33.6445843 181.544472,32.3313638 C210.784239,41.4879251 232,68.792221 232,101.051724 L232,110 L32,110 L32,101.051724 C32,68.3970853 53.7386736,40.8197864 83.5337207,32.0021267 C83.1821692,33.4207025 83,34.871494 83,36.3476251 Z" id="transparent_path-3" />
        <rect id="transparent_path-5" x="0" y="0" width="264" height="280" />
        <path d="M74,0 C114.869071,0 148,33.1309285 148,74 L148,84.1482318 L148,197.608051 C135.525121,187.236892 119.490913,181 102,181 L102,181 L98,181 L98,162.610951 C115.530782,154.282984 128.048193,137.114792 129.791419,116.867187 C135.569129,116.002364 140,111.018625 140,105 L140,105 L140,92 C140,87.3536213 137.359271,83.3240177 133.496777,81.3301515 C132.723933,81.0500337 131.951808,80.748163 131.180891,80.4262497 C130.794819,80.3202581 130.400778,80.2331546 130,80.1659169 L130,80.1659169 L130.000458,79.9172528 C117.224481,74.2339715 104.877985,63.0706967 96.1104311,47.8848473 C93.1752556,42.8009742 90.8310687,37.5951441 89.0661426,32.3970356 C80.4313947,42.9409152 67.7445474,53.6023901 52.3415164,62.4953343 C42.777598,68.0170651 33.1467898,72.2910056 24,75.2659587 L24.0003852,137.246608 C29.6019576,148.318362 38.7728825,157.277529 50,162.610951 L50,162.610951 L50,181 L46,181 C38.3273639,181 30.9350359,182.200142 24.0004995,184.422941 L24,230 C24,244.105888 13.5691766,255.775526 0,257.716445 L0,74 C0,33.1309285 33.1309285,0 74,0 Z" id="transparent_path-7" />
    </defs>
    <g id="transparent_Avataaar/Default" stroke="none" stroke-width="1" fill="none" fill-rule="evenodd">
        <g id="transparent_Body" transform="translate(32.000000, 36.000000)">
            <mask id="transparent_mask-2" fill="white">
                <use xlink:href="#transparent_path-1" />
            </mask>
            <use fill="#D0C6AC" xlink:href="#transparent_path-1" />
            <g id="transparent_Skin-Color" mask="url(#transparent_mask-2)" fill="#AE5D29">
                <g transform="translate(-32.000000, 0.000000)" id="transparent_Color">
                    <rect x="0" y="0" width="264" height="244" />
                </g>
            </g>
            <path d="M44,94 C44,124.927946 69.072054,150 100,150 C130.927946,150 156,124.927946 156,94 L156,94 L156,102 C156,132.927946 130.927946,158 100,158 C69.072054,158 44,132.927946 44,102 Z" id="transparent_Neck-Shadow" fill-opacity="0.100000001" fill="#000000" mask="url(#transparent_mask-2)" />
        </g>
        <g id="transparent_Clothing" transform="translate(0.000000, 170.000000)">
            
        <metadata id="gladiator_metadata28">
    <rdf:RDF>
      <ns3:Work rdf:about="">
        <dc:format>image/svg+xml</dc:format>
        <dc:type rdf:resource="http://purl.org/dc/dcmitype/StillImage" />
        <dc:title />
      </ns3:Work>
    </rdf:RDF>
  </metadata>
  <defs id="gladiator_defs26" />
  <g id="gladiator_Clothing/Gladiator" stroke="none" stroke-width="1" fill="none" fill-rule="evenodd">
    <g id="gladiator_Armor" transform="translate(56.000000, 27.000000)">
      <path id="gladiator_Fill-1" d="M 43.599609 1.0859375 C 25.891609 1.0859375 14.720703 7.0800781 14.720703 7.0800781 L 14.720703 38.820312 C 14.720703 39.109747 14.746878 39.392515 14.763672 39.677734 L 0.56054688 53.388672 L 0.56054688 83.634766 L 62.761719 83.634766 L 90.458984 83.634766 L 152.66016 83.634766 L 152.66016 53.388672 L 138.69922 39.912109 C 138.72634 39.550498 138.75391 39.188863 138.75391 38.820312 L 138.75391 7.0800781 C 138.75391 7.0800781 127.58495 1.0859375 109.87695 1.0859375 L 109.87695 22.884766 L 90.458984 22.884766 L 62.761719 22.884766 L 43.599609 22.884766 L 43.599609 1.0859375 z " transform="translate(-0.56,-1.0865385)" style="fill:#60ade6;fill-opacity:1" />
      <g id="gladiator_Fabric-Color" mask="url(#gladiator_fabric-mask)" fill="#25557C">
        <rect x="0" y="0" width="264" height="110" id="gladiator_rect10" />
      </g>
      <mask id="gladiator_fabric-mask" fill="white">
        <use xlink:href="#gladiator_Fill-1" id="gladiator_use13" />
        <path d="m 14.1613,5.9939 c 0,0 11.17,-5.994 28.878,-5.994 v 37.734 c 0,7.975 -6.464,14.44 -14.439,14.44 v 0 c -7.974,0 -14.439,-6.465 -14.439,-14.44 z" id="gladiator_use15" fill="#60ade6" ns5:color="Top-500" />
        <path d="m 138.1945,5.9939 c 0,0 -11.17,-5.994 -28.878,-5.994 v 37.734 c 0,7.975 6.464,14.44 14.439,14.44 7.974,0 14.439,-6.465 14.439,-14.44 z" id="gladiator_use17" fill="#60ade6" ns5:color="Top-500" />
      </mask>
      <g id="gladiator_g849">
        <path d="M36.5011,37.0515 C36.5011,40.9635 33.3301,44.1345 29.4181,44.1345 C25.5051,44.1345 22.3341,40.9635 22.3341,37.0515 C22.3341,33.1395 25.5051,29.9685 29.4181,29.9685 C33.3301,29.9685 36.5011,33.1395 36.5011,37.0515" id="gladiator_Fill-10" fill-opacity=".24" fill="#000" />
        <path d="M130.839,37.0515 C130.839,40.9635 127.667,44.1345 123.755,44.1345 C119.843,44.1345 116.672,40.9635 116.672,37.0515 C116.672,33.1395 119.843,29.9685 123.755,29.9685 C127.667,29.9685 130.839,33.1395 130.839,37.0515" id="gladiator_Fill-12" fill-opacity=".24" fill="#000" />
        <path d="M33.6227,82.5486 L62.2017,82.5486 L89.8987,82.5486 L119.0577,82.5486 C112.9127,64.8676 96.1137,52.1736 76.3397,52.1736 C56.5667,52.1736 39.7687,64.8676 33.6227,82.5486" id="gladiator_Fill-14" fill-opacity=".24" fill="#000" />
        <path id="gladiator_Fill-2-8" d="m 43.038543,21.799022 v 15.935547 c 0,7.975 -6.464453,14.439453 -14.439453,14.439453 -7.684602,0 -13.948588,-6.008382 -14.394531,-13.582031 L 11.5112,41.1916 c 0.651,8.879001 8.042891,15.886719 17.08789,15.886719 9.474001,0 17.154297,-7.680297 17.154297,-17.154297 v -18.125 z" style="fill:#000000;fill-opacity:0.23999999" />
        <path id="gladiator_Fill-6-0" d="m 106.60281,21.799022 v 18.125 c 0,9.474 7.67834,17.152344 17.15235,17.152344 9.04599,-10e-7 16.43784,-7.005766 17.08984,-15.884766 l -2.69336,-2.599609 c -0.44594,7.573649 -6.71188,13.582031 -14.39648,13.582031 -7.975,0 -14.4375,-6.464453 -14.4375,-14.439453 V 21.799022 Z" style="fill:#000000;fill-opacity:0.23999999" />
      </g>
    </g>
  </g>
</g>
        <g id="transparent_Face" transform="translate(76.000000, 82.000000)" fill="#000000">
            <g id="transparent_Mouth" transform="translate(2.000000, 52.000000)">    
                
            <g id="disbelief_Mouth/Disbelief" stroke="none" stroke-width="1" fill="none" fill-rule="evenodd" fill-opacity="0.699999988">
        <path d="M40,15 C40,22.7319865 46.2680135,29 54,29 L54,29 C61.7319865,29 68,22.7319865 68,15" id="disbelief_Mouth" fill="#000000" transform="translate(54.000000, 22.000000) scale(1, -1) translate(-54.000000, -22.000000) " />
    </g>
</g>
            <g id="transparent_Nose" transform="translate(28.000000, 40.000000)" fill-opacity="0.16">
                
            <g id="small_Nose/Small" stroke="none" stroke-width="1" fill="none" fill-rule="evenodd"><path d="M20,7 C20,12.5228475 24.0470996,15 28,15 C31.9529004,15 36,12.5228475 36,7 C33.8327451,7.7317728 31.1406373,8.0976592 27.9236765,8.0976592 C24.7406373,8.0976592 22.0994118,7.7317728 20,7 Z" id="small_Nose" fill-opacity=".16" fill="#000" /></g></g>
            <g id="transparent_Eyes" transform="translate(0.000000, 8.000000)">
                
            <g id="default_Eyes/Default-😀" stroke="none" stroke-width="1" fill="none" fill-rule="evenodd" fill-opacity="0.599999964">
        <circle id="default_Eye" fill="#000000" cx="30" cy="22" r="6" />
        <circle id="default_Eye" fill="#000000" cx="82" cy="22" r="6" />
    </g>
</g>
            <g id="transparent_Eyebrow" fill-opacity="0.599999964">
                
            <g id="raised_excited_Eyebrow/Outline/Raised-Excited" stroke="none" stroke-width="1" fill="none" fill-rule="evenodd" fill-opacity="0.599999964">
        <g id="raised_excited_I-Browse" transform="translate(12.000000, 0.000000)" fill="#000000" fill-rule="nonzero">
            <path d="M3.97579559,17.1279169 C5.47099148,7.60476158 18.0585488,1.10867597 27.1635167,5.30104271 C28.1668367,5.76301969 29.3546946,5.32417444 29.8166716,4.32085442 C30.2786486,3.3175344 29.8398033,2.12967649 28.8364833,1.66769952 C17.3488212,-3.62177466 1.93575948,4.3324746 0.0242044059,16.507492 C-0.147121205,17.5986938 0.598585765,18.6221744 1.68978754,18.7935 C2.78098932,18.9648257 3.80446998,18.2191187 3.97579559,17.1279169 Z" id="raised_excited_Eyebrow" />
            <path d="M61.9757956,17.1279169 C63.4709915,7.60476158 76.0585488,1.10867597 85.1635167,5.30104271 C86.1668367,5.76301969 87.3546946,5.32417444 87.8166716,4.32085442 C88.2786486,3.3175344 87.8398033,2.12967649 86.8364833,1.66769952 C75.3488212,-3.62177466 59.9357595,4.3324746 58.0242044,16.507492 C57.8528788,17.5986938 58.5985858,18.6221744 59.6897875,18.7935 C60.7809893,18.9648257 61.80447,18.2191187 61.9757956,17.1279169 Z" id="raised_excited_Eyebrow" transform="translate(73.000097, 9.410436) scale(-1, 1) translate(-73.000097, -9.410436) " />
        </g>
    </g>
</g>
        </g>
        <g id="transparent_Top">
            
        <metadata id="gladiator_helmet_metadata23">
        <rdf:RDF>
            <ns3:Work rdf:about="">
                <dc:format>image/svg+xml</dc:format>
                <dc:type rdf:resource="http://purl.org/dc/dcmitype/StillImage" />
                <dc:title />
            </ns3:Work>
        </rdf:RDF>
    </metadata>
    <g id="gladiator_helmet_Facial-Hair" transform="translate(49.000000, 72.000000)" />
    <g id="gladiator_helmet_Accessory" transform="translate(62.000000, 85.000000)" />
    <defs id="gladiator_helmet_defs3">
        <path d="M264,0 L264,280 L232,280 L232,271 C232,231.235498 199.764502,199 160,199 L160,199 L156,199 L156.001014,180.610469 C173.531251,172.282329 186.048207,155.114429 187.791415,134.867236 C193.568906,134.002616 198,129.018777 198,123 L198,123 L198,110 C198,104.05429 193.675838,99.1185422 188.000809,98.1660527 L188,92 C188,61.072054 162.927946,36 132,36 C101.072054,36 76,61.072054 76,92 L76,92 L76.0001873,98.1658855 C70.3246685,99.1179645 66,104.053942 66,110 L66,110 L66,123 C66,129.018777 70.4310943,134.002616 76.2090181,134.867253 C77.9518263,155.114813 90.4692242,172.28298 107.999984,180.610943 L108,199 L104,199 C64.633143,199 32.6454629,230.594012 32.0096459,269.809348 L32,271 L32,280 L0,280 L0,0 L264,0 Z" id="gladiator_helmet_hairstylegladiator-helmet-path-1" />
        <mask id="gladiator_helmet_hairstylegladiator-helmet-mask-2" fill="#ffffff">
            <use xlink:href="#gladiator_helmet_hairstylegladiator-helmet-path-1" id="gladiator_helmet_use6" x="0" y="0" width="100%" height="100%" />
        </mask>
    </defs>
    <path d="m 157.1539,81.808923 c -4.27851,3.079186 -10.20898,6.171881 -18.15056,8.02902 -2.166,0.506 -3.641,-2.168 -2.068,-3.741 2.833,-2.832 6.073,-6.503 7.932,-10.044 0,0 -8.77854,-2.589743 -22.94454,2.677257 -15.423,4.64 -28.051,13.969813 -31.942,19.184813 -1.147,1.538 -3.384,-7.309018 0,-13.231018 0,0 -11.71574,6.924205 -9.622627,-7.541795 L 93.9378,67.7286 c -0.580098,0.580098 27.4875,-23.140213 42.99754,-23.115624 27.91076,0.04446 51.39346,25.561769 51.39346,42.840153 0,14.773001 15.24359,22.239361 3,25.782071 -3,0.86806 -17.008,-15.704 -14.647,-25.33 l -3.153,3.703 c -0.488,1.985 -8.55057,-1.984108 -8.55057,-9.379824 0,0 -1.15279,-5.220867 -7.82433,-0.419453 z" id="gladiator_helmet_Fill-1" fill="#724133" ns5:color="Hair-500" style="fill-rule:evenodd;stroke:none;stroke-width:1" />
    <path d="m 77.2311,134.9196 c 1.713,19.909 13.848,36.834 30.92,45.312 v -41.693 l -21.083,-6.866 c 0,0 -9.056,-41.26 25.96,-46.016 3.536,-0.48 6.936,1.41 8.078,4.452 1.491,3.968 4.913,9.68 12.761,14.558 0,0 8.711,-6.948 11.663,-14.678 1.14,-2.984 4.558,-4.796 8.031,-4.313 34.858,4.843 25.824,45.997 25.824,45.997 l -21.082,6.866 v 41.339 c 0,0.048 0.016,0.093 0.019,0.142 16.846,-8.548 28.791,-25.358 30.492,-45.1 3.91,-0.585 7.197,-3.061 8.917,-6.463 v -21.179 c 0,-0.93 -0.029,-1.853 -0.078,-2.772 -1.708,-3.267 -4.868,-5.656 -8.63,-6.287 l -0.001,-6.166 c 0,-6.294 -1.054,-12.339 -2.968,-17.986 -11.668,-14.926 -30.971,-24.693 -52.827,-24.693 -22.305,0 -41.963,10.163 -53.547,25.61 -1.721,5.383 -2.658,11.115 -2.658,17.069 v 6.166 c -3.442,0.577 -6.38,2.625 -8.165,5.47 -0.081,1.188 -0.135,2.382 -0.135,3.589 v 21.934 c 1.805,3.012 4.893,5.167 8.509,5.708" id="gladiator_helmet_path11" fill-opacity="0.16" fill="#000000" style="fill-rule:evenodd;stroke:none;stroke-width:1" />
    <path id="gladiator_helmet_Fabric-Color" d="M 54.222656 0.90039062 C 51.341656 0.90039062 49.249859 3.6379688 50.005859 6.4179688 L 55.779297 27.626953 C 24.299191 33.998712 0.59960937 61.81956 0.59960938 95.179688 L 0.59960938 169.06836 C 0.59960938 170.14736 1.155125 171.16075 2.078125 171.71875 C 14.390125 179.16075 28.044313 183.36747 34.570312 185.10547 C 36.536312 185.62947 38.457031 184.14438 38.457031 182.10938 L 38.457031 132.39062 L 20.205078 124.21875 C 20.205078 124.21875 10.526359 75.104359 47.943359 69.443359 C 51.721359 68.872359 55.355172 71.122187 56.576172 74.742188 C 58.169172 79.465187 61.823938 86.264312 70.210938 92.070312 C 70.210938 92.070312 79.518828 83.801609 82.673828 74.599609 C 83.890828 71.046609 87.544859 68.890844 91.255859 69.464844 C 128.50286 75.229844 118.84961 124.21875 118.84961 124.21875 L 100.5957 132.39062 L 100.5957 181.59766 C 100.5957 183.79566 102.81356 185.29366 104.85156 184.47266 C 111.38456 181.83966 124.47569 175.81252 137.30469 165.47852 C 138.03269 164.89152 138.45312 163.99655 138.45312 163.06055 L 138.45312 95.179688 C 138.45312 61.820223 114.75504 33.999439 83.275391 27.626953 L 89.046875 6.4179688 C 89.803875 3.6379688 87.711078 0.90039062 84.830078 0.90039062 L 54.222656 0.90039062 z " transform="translate(63.7,2.8)" fill="#FF488E" />
    <path d="m 133.2267,89.4216 v -43.045 c 0,0 6.874,13.894 0,43.045" id="gladiator_helmet_Fill-6" fill-opacity="0.24" fill="#000000" style="fill-rule:evenodd;stroke:none;stroke-width:1" />
    <path id="gladiator_helmet_Fill-8-5" style="fill-rule:evenodd;stroke:none;stroke-width:1;fill:#000000;fill-opacity:0.23999999" d="m 119.48398,30.444578 c -1.64206,0.33468 -3.26502,0.722647 -4.86328,1.169922 l 2.85742,10.496093 c 0.686,2.518 2.97108,4.265625 5.58008,4.265625 h 20.33594 c 2.609,0 4.89603,-1.747625 5.58203,-4.265625 L 151.83359,31.6145 c -1.59859,-0.447445 -3.22256,-0.835159 -4.86523,-1.169922 l -1.8418,6.767578 c -0.519,1.902 -2.2448,3.222656 -4.2168,3.222656 h -15.36523 c -1.972,0 -3.69975,-1.320656 -4.21875,-3.222656 z" />
</g>
    </g>
</svg>