<svg xmlns="http://www.w3.org/2000/svg" xmlns:xlink="http://www.w3.org/1999/xlink" width="264px" height="280px" viewBox="0 0 264 280" version="1.1">
    <title id="transparent_Title">Avataaar/Default</title>
    <desc>Created with python_avatars</desc>
    <defs>
        <path d="M100,0 C130.927946,-5.68137151e-15 156,25.072054 156,56 L156.000809,62.1660527 C161.675838,63.1185422 166,68.05429 166,74 L166,88 C166,94.0524166 161.519235,99.0582945 155.693975,99.8813638 C153.627928,119.686472 141.237929,136.421678 124.001014,144.610469 L124,163 L128,163 C167.764502,163 200,195.235498 200,235 L200,244 L0,244 L0,235 C-4.86974701e-15,195.235498 32.235498,163 72,163 L76,163 L75.9999836,144.610943 C58.7625487,136.422324 46.3721119,119.686854 44.3051107,99.8809698 C38.480765,99.0582945 34,94.0524166 34,88 L34,74 C34,68.053942 38.3246685,63.1179645 44.0001873,62.1658855 L44,56 C44,25.072054 69.072054,5.68137151e-15 100,0 Z" id="transparent_path-1" />
        <path d="M83,36.3476251 C83,52.6289957 105.161905,65.8276544 132.5,65.8276544 C159.838095,65.8276544 182,52.6289957 182,36.3476251 C182,34.9853134 181.844841,33.6445843 181.544472,32.3313638 C210.784239,41.4879251 232,68.792221 232,101.051724 L232,110 L32,110 L32,101.051724 C32,68.3970853 53.7386736,40.8197864 83.5337207,32.0021267 C83.1821692,33.4207025 83,34.871494 83,36.3476251 Z" id="transparent_path-3" />
        <rect id="transparent_path-5" x="0" y="0" width="264" height="280" />
        <path d="M74,0 C114.869071,0 148,33.1309285 148,74 L148,84.1482318 L148,197.608051 C135.525121,187.236892 119.490913,181 102,181 L102,181 L98,181 L98,162.610951 C115.530782,154.282984 128.048193,137.114792 129.791419,116.867187 C135.569129,116.002364 140,111.018625 140,105 L140,105 L140,92 C140,87.3536213 137.359271,83.3240177 133.496777,81.3301515 C132.723933,81.0500337 131.951808,80.748163 131.180891,80.4262497 C130.794819,80.3202581 130.400778,80.2331546 130,80.1659169 L130,80.1659169 L130.000458,79.9172528 C117.224481,74.2339715 104.877985,63.0706967 96.1104311,47.8848473 C93.1752556,42.8009742 90.8310687,37.5951441 89.0661426,32.3970356 C80.4313947,42.9409152 67.7445474,53.6023901 52.3415164,62.4953343 C42.777598,68.0170651 33.1467898,72.2910056 24,75.2659587 L24.0003852,137.246608 C29.6019576,148.318362 38.7728825,157.277529 50,162.610951 L50,162.610951 L50,181 L46,181 C38.3273639,181 30.9350359,182.200142 24.0004995,184.422941 L24,230 C24,244.105888 13.5691766,255.775526 0,257.716445 L0,74 C0,33.1309285 33.1309285,0 74,0 Z" id="transparent_path-7" />
    </defs>
    <g id="transparent_Avataaar/Default" stroke="none" stroke-width="1" fill="none" fill-rule="evenodd">
        <g id="transparent_Body" transform="translate(32.000000, 36.000000)">
            <mask id="transparent_mask-2" fill="white">
                <use xlink:href="#transparent_path-1" />
            </mask>
            <use fill="#D0C6AC" xlink:href="#transparent_path-1" />
            <g id="transparent_Skin-Color" mask="url(#transparent_mask-2)" fill="#FFDBB4">
                <g transform="translate(-32.000000, 0.000000)" id="transparent_Color">
                    <rect x="0" y="0" width="264" height="244" />
                </g>
            </g>
            <path d="M44,94 C44,124.927946 69.072054,150 100,150 C130.927946,150 156,124.927946 156,94 L156,94 L156,102 C156,132.927946 130.927946,158 100,158 C69.072054,158 44,132.927946 44,102 Z" id="transparent_Neck-Shadow" fill-opacity="0.100000001" fill="#000000" mask="url(#transparent_mask-2)" />
        </g>
        <g id="transparent_Clothing" transform="translate(0.000000, 170.000000)">
            
        <defs>
        <path d="M160,29.0517235 C199.764502,29.0517235 232,61.2872215 232,101.051724 L232,110 L32,110 L32,101.051724 C32,61.2872215 64.235498,29.0517235 104,29.0517235 L105.192363,29.0520252 C105.065349,30.0355191 105,31.0365551 105,32.0517235 C105,45.8588423 117.088312,57.0517235 132,57.0517235 C146.911688,57.0517235 159,45.8588423 159,32.0517235 C159,31.0365551 158.934651,30.0355191 158.807637,29.0520252 L160,29.0517235 Z" id="blazer_sweater_path-1" />
    </defs>
    <g id="blazer_sweater_Clothing/Blazer-+-Sweater" stroke="none" stroke-width="1" fill="none" fill-rule="evenodd">
        <mask id="blazer_sweater_mask-2" fill="white">
            <use xlink:href="#blazer_sweater_path-1" />
        </mask>
        <use id="blazer_sweater_Clothes" fill="#E6E6E6" xlink:href="#blazer_sweater_path-1" />
        <g id="blazer_sweater_Fabric-Color" mask="url(#blazer_sweater_mask-2)" fill="#FFFFB1">
            <rect id="blazer_sweater_ðŸ–Color" x="0" y="0" width="264" height="110" />
        </g>
        <g id="blazer_sweater_Blazer" transform="translate(32.000000, 28.000000)">
            <path d="M64,40.5 C64,55.7092257 65.9608691,69.9209213 69.3620096,82.0011822 L0,82 L0,73.0517235 C-4.73779789e-15,34.3646678 30.512279,2.80413671 68.7847355,1.12223161 C65.7400343,12.7307619 64,26.1727873 64,40.5 Z M200,73.0517235 L200,82 L131.63799,82.0011822 C135.039131,69.9209213 137,55.7092257 137,40.5 C137,26.194165 135.265154,12.7708778 132.228695,1.1737534 C170.025091,3.36299447 200,34.7068514 200,73.0517235 Z" id="blazer_sweater_Saco" fill="#3A4C5A" />
            <path d="M149,58 L158.555853,50.83311 C159.998897,49.7508275 161.987779,49.7682725 163.411616,50.8757011 L170,56 L170,56 L149,58 Z" id="blazer_sweater_Pocket-hanky" fill="#E6E6E6" />
            <path d="M69,0 C65,19.3333333 66.6666667,46.6666667 74,82 L58,82 L44,46 L50,37 L44,31 L63,1 C65.027659,0.369238637 67.027659,0.0359053037 69,0 Z" id="blazer_sweater_Wing" fill="#2F4351" />
            <path d="M151,0 C147,19.3333333 148.666667,46.6666667 156,82 L140,82 L126,46 L132,37 L126,31 L145,1 C147.027659,0.369238637 149.027659,0.0359053037 151,0 Z" id="blazer_sweater_Wing" fill="#2F4351" transform="translate(141.000000, 41.000000) scale(-1, 1) translate(-141.000000, -41.000000) " />
        </g>
        <path d="M167,39.8878801 C167,47.2887654 162.572022,53.9447584 155.520121,58.5564834 L149.58,53.8760062 L145,54.207887 L146,51.0567821 L145.92205,50.9956082 C152.022413,47.8531513 156,42.7004148 156,36.8768102 L156.000381,21.539265 C162.772478,26.1362012 167,32.6564553 167,39.8878801 Z M118.07795,50.9956082 L118,51.0567821 L119,54.207887 L114.419,53.8760062 L108.479879,58.5564834 C101.427978,53.9447584 97,47.2887654 97,39.8878801 C97,32.6560965 101.227942,26.1355541 108.000627,21.5385807 L108,36.8768102 C108,42.7004148 111.977587,47.8531513 118.07795,50.9956082 Z" id="blazer_sweater_Collar" fill="#F2F2F2" />
    </g>
</g>
        <g id="transparent_Face" transform="translate(76.000000, 82.000000)" fill="#000000">
            <g id="transparent_Mouth" transform="translate(2.000000, 52.000000)">    
                
            <defs>
        <path d="M29,15.6086957 C30.410031,25.2313711 41.062182,33 54,33 C66.9681454,33 77.6461342,25.183301 79,14.7391304 C79.1012093,14.3397326 78.775269,13 76.826087,13 C56.838426,13 41.7395748,13 31.173913,13 C29.3833142,13 28.870211,14.2404669 29,15.6086957 Z" id="tongue_path-1" />
    </defs>
    <g id="tongue_Mouth/Tongue" stroke="none" stroke-width="1" fill="none" fill-rule="evenodd">
        <mask id="tongue_mask-2" fill="white">
            <use xlink:href="#tongue_path-1" />
        </mask>
        <use id="tongue_Mouth" fill-opacity="0.699999988" fill="#000000" xlink:href="#tongue_path-1" />
        <path d="M44,2 L65,2 C67.7614237,2 70,4.23857625 70,7 L70,13 C70,15.7614237 67.7614237,18 65,18 L44,18 C41.2385763,18 39,15.7614237 39,13 L39,7 C39,4.23857625 41.2385763,2 44,2 Z" id="tongue_Teeth" fill="#FFFFFF" mask="url(#tongue_mask-2)" />
        <path d="M59.5,20 C63.0898509,20 66,21.5670034 66,23.5 C66,23.5829439 65.9946418,23.6652139 65.9841015,23.7467151 C65.9945755,23.8293228 66,23.9140279 66,24 L66,33 C66,39.0751322 61.0751322,44 55,44 L54,44 C47.9248678,44 43,39.0751322 43,33 L43,24 C43,23.9140279 43.0054245,23.8293228 43.0159499,23.7462082 C43.0053582,23.6652139 43,23.5829439 43,23.5 C43,21.5670034 45.9101491,20 49.5,20 C51.5110191,20 53.3087347,20.4917558 54.5010337,21.2641296 C55.6909749,20.4918353 57.4888185,20 59.5,20 Z" id="tongue_Tongue" fill="#FF4F6D" />
    </g>
</g>
            <g id="transparent_Nose" transform="translate(28.000000, 40.000000)" fill-opacity="0.16">
                
            <g id="wide_Nose/Wide" stroke="none" stroke-width="1" fill="none" fill-rule="evenodd"><path d="M13,6 C13,12.627417 16.8281211,18 28,18 C39.1718789,18 43,12.627417 43,6 C39.0361818,6 32.8972468,9 27.83815,9 C23.0794079,9 17.1013384,6 13,6 Z" id="wide_Nose" fill-opacity=".16" fill="#000" /></g></g>
            <g id="transparent_Eyes" transform="translate(0.000000, 8.000000)">
                
            <g id="eye_roll_Eyes/Eye-Roll-ðŸ™„" stroke="none" stroke-width="1" fill="none" fill-rule="evenodd">
        <circle id="eye_roll_Eyeball" fill="#FFFFFF" cx="30" cy="22" r="14" />
        <circle id="eye_roll_The-white-stuff" fill="#FFFFFF" cx="82" cy="22" r="14" />
        <circle id="eye_roll_Eye" fill-opacity="0.699999988" fill="#000000" cx="30" cy="14" r="6" />
        <circle id="eye_roll_Eye" fill-opacity="0.699999988" fill="#000000" cx="82" cy="14" r="6" />
    </g>
</g>
            <g id="transparent_Eyebrow" fill-opacity="0.599999964">
                
            <g id="default_Eyebrow/Outline/Default" stroke="none" stroke-width="1" fill="none" fill-rule="evenodd" fill-opacity="0.599999964">
        <g id="default_I-Browse" transform="translate(12.000000, 6.000000)" fill="#000000" fill-rule="nonzero">
            <path d="M3.63024536,11.1585767 C7.54515501,5.64986673 18.2779197,2.56083721 27.5230268,4.83118046 C28.5957248,5.0946055 29.6788665,4.43856013 29.9422916,3.36586212 C30.2057166,2.2931641 29.5496712,1.21002236 28.4769732,0.94659732 C17.7403633,-1.69001789 5.31209962,1.88699832 0.369754639,8.84142326 C-0.270109626,9.74178291 -0.0589363917,10.9903811 0.84142326,11.6302454 C1.74178291,12.2701096 2.9903811,12.0589364 3.63024536,11.1585767 Z" id="default_Eyebrow" />
            <path d="M61.6302454,11.1585767 C65.545155,5.64986673 76.2779197,2.56083721 85.5230268,4.83118046 C86.5957248,5.0946055 87.6788665,4.43856013 87.9422916,3.36586212 C88.2057166,2.2931641 87.5496712,1.21002236 86.4769732,0.94659732 C75.7403633,-1.69001789 63.3120996,1.88699832 58.3697546,8.84142326 C57.7298904,9.74178291 57.9410636,10.9903811 58.8414233,11.6302454 C59.7417829,12.2701096 60.9903811,12.0589364 61.6302454,11.1585767 Z" id="default_Eyebrow" transform="translate(73.000154, 6.039198) scale(-1, 1) translate(-73.000154, -6.039198) " />
        </g>
    </g>
</g>
        </g>
        <g id="transparent_Top">
            
        <defs>
        <path d="M90.9102919,55.3613196 L175.085702,55.3613196 C193.333279,44.8338001 196.759397,26.1510357 183.849606,9.92600089 C180.635746,5.88682054 175.085702,21.6755614 158.028596,22.6504878 C140.97149,23.6254143 142.608865,16.3498661 124.45759,19.0739248 C106.306316,21.7979835 108.311575,36.37843 96.4671989,39.8768239 C88.5709482,42.2090865 86.7186458,47.370585 90.9102919,55.3613196 Z" id="frizzle_path-1" />
    </defs>
    <g id="frizzle_Top/Short-Hair/Frizzle" stroke="none" stroke-width="1" fill="none" fill-rule="evenodd" transform="translate(-1 0)">
        <g id="frizzle_Facial-Hair" transform="translate(49.000000, 72.000000)"><defs>
        <path d="M84.5044337,93.8410391 C72.9930718,94.2191416 67.8580835,99.7213834 63.9909333,94.1296214 C61.0884259,89.9323547 62.3028943,82.8739117 65.014944,78.9027173 C68.8738581,73.2512381 74.1088724,75.9847769 79.9622738,75.3400279 C81.5538829,75.1648137 83.1526985,74.7228407 84.5044337,74 C85.856169,74.7228407 87.4546414,75.1648137 89.0462504,75.3400279 C94.899995,75.9847769 100.134666,73.2512381 103.993923,78.9027173 C106.70563,82.8739117 107.920098,89.9323547 105.017591,94.1296214 C101.150441,99.7213834 96.0157956,93.4629366 84.5044337,93.8410391 Z M140.39109,26 C136.966521,40.0748212 135.393023,54.4337754 132.909944,68.6711471 C132.392536,71.6390145 131.826063,74.5963095 131.224594,77.5496398 C131.098329,78.1697764 130.973781,80.4725746 130.362704,80.7643064 C128.511632,81.6484223 124.739149,76.9466834 123.730409,75.8851496 C121.196893,73.219256 118.684993,70.5292442 115.599415,68.437233 C109.364783,64.2102603 102.065485,61.7108818 94.4700836,61.117837 C91.2922091,60.8693859 86.9951134,61.3025234 84.000116,63.1104016 C81.0051185,61.3025234 76.7080229,60.8693859 73.5298053,61.117837 C65.9344039,61.7108818 58.6351055,64.2102603 52.4004739,68.437233 C49.3148957,70.5292442 46.8033387,73.219256 44.2694796,75.8851496 C43.2607395,76.9466834 39.4882573,81.6484223 37.6371849,80.7643064 C37.0261079,80.4725746 36.9015594,78.1697764 36.7752954,77.5496398 C36.1738255,74.5963095 35.6073527,71.6390145 35.0899445,68.6711471 C32.6072086,54.4337754 31.0337113,40.0748212 27.6091415,26 C26.6127533,26 25.7385119,44.7478165 25.6273446,46.4945731 C25.174784,53.5889755 24.6463963,60.5254529 25.3216346,67.6261326 C26.485803,79.8749043 27.6993791,95.2339402 37.032627,104.58753 C45.4659003,113.039493 57.7103052,114.806417 68.2713185,120.141327 C69.631059,120.828202 71.4347824,121.676306 73.3798667,122.37111 C75.4289129,123.934171 79.4926946,125 84.1740722,125 C89.0846465,125 93.3155222,123.827456 95.2540874,122.137856 C96.9548781,121.49261 98.5180822,120.752874 99.7285704,120.141327 C110.288776,114.805245 122.533989,113.039493 130.967262,104.58753 C140.30051,95.2339402 141.514086,79.8749043 142.678597,67.6261326 C143.353493,60.5254529 142.825105,53.5889755 142.372887,46.4945731 C142.261377,44.7478165 141.387136,26 140.39109,26 Z" id="beard_medium_path-1" />
    </defs>
    <g id="beard_medium_Facial-Hair/Beard-Medium" stroke="none" stroke-width="1" fill="none" fill-rule="evenodd">
        <mask id="beard_medium_mask-2" fill="white">
            <use xlink:href="#beard_medium_path-1" />
        </mask>
        <use id="beard_medium_Beardness" fill="#252E32" xlink:href="#beard_medium_path-1" />
        <g id="beard_medium_Facial-Hair-Color" mask="url(#beard_medium_mask-2)" fill="#2C1B18">
            <rect id="beard_medium_Color" x="0" y="0" width="168" height="152" />
        </g>
    </g>
</g>
        <mask id="frizzle_mask-2" fill="white">
            <use xlink:href="#frizzle_path-1" />
        </mask>
        <use id="frizzle_Hair-Maks" fill="#252E32" xlink:href="#frizzle_path-1" />
        <g id="frizzle_Hair-Color" mask="url(#frizzle_mask-2)" fill="#E8E1E1">
            <g transform="translate(1.000000, 0.000000)" id="frizzle_Color">
                <rect x="0" y="0" width="264" height="280" />
            </g>
        </g>
        <g id="frizzle_Accessory" transform="translate(62.000000, 85.000000)">
        </g>
    </g>
</g>
    </g>
</svg>