<svg xmlns="http://www.w3.org/2000/svg" xmlns:ns2="http://design.blush" xmlns:xlink="http://www.w3.org/1999/xlink" width="264px" height="280px" viewBox="0 0 264 280" version="1.1">
    <title id="transparent_Title">Avataaar/Default</title>
    <desc>Created with python_avatars</desc>
    <defs>
        <path d="M100,0 C130.927946,-5.68137151e-15 156,25.072054 156,56 L156.000809,62.1660527 C161.675838,63.1185422 166,68.05429 166,74 L166,88 C166,94.0524166 161.519235,99.0582945 155.693975,99.8813638 C153.627928,119.686472 141.237929,136.421678 124.001014,144.610469 L124,163 L128,163 C167.764502,163 200,195.235498 200,235 L200,244 L0,244 L0,235 C-4.86974701e-15,195.235498 32.235498,163 72,163 L76,163 L75.9999836,144.610943 C58.7625487,136.422324 46.3721119,119.686854 44.3051107,99.8809698 C38.480765,99.0582945 34,94.0524166 34,88 L34,74 C34,68.053942 38.3246685,63.1179645 44.0001873,62.1658855 L44,56 C44,25.072054 69.072054,5.68137151e-15 100,0 Z" id="transparent_path-1" />
        <path d="M83,36.3476251 C83,52.6289957 105.161905,65.8276544 132.5,65.8276544 C159.838095,65.8276544 182,52.6289957 182,36.3476251 C182,34.9853134 181.844841,33.6445843 181.544472,32.3313638 C210.784239,41.4879251 232,68.792221 232,101.051724 L232,110 L32,110 L32,101.051724 C32,68.3970853 53.7386736,40.8197864 83.5337207,32.0021267 C83.1821692,33.4207025 83,34.871494 83,36.3476251 Z" id="transparent_path-3" />
        <rect id="transparent_path-5" x="0" y="0" width="264" height="280" />
        <path d="M74,0 C114.869071,0 148,33.1309285 148,74 L148,84.1482318 L148,197.608051 C135.525121,187.236892 119.490913,181 102,181 L102,181 L98,181 L98,162.610951 C115.530782,154.282984 128.048193,137.114792 129.791419,116.867187 C135.569129,116.002364 140,111.018625 140,105 L140,105 L140,92 C140,87.3536213 137.359271,83.3240177 133.496777,81.3301515 C132.723933,81.0500337 131.951808,80.748163 131.180891,80.4262497 C130.794819,80.3202581 130.400778,80.2331546 130,80.1659169 L130,80.1659169 L130.000458,79.9172528 C117.224481,74.2339715 104.877985,63.0706967 96.1104311,47.8848473 C93.1752556,42.8009742 90.8310687,37.5951441 89.0661426,32.3970356 C80.4313947,42.9409152 67.7445474,53.6023901 52.3415164,62.4953343 C42.777598,68.0170651 33.1467898,72.2910056 24,75.2659587 L24.0003852,137.246608 C29.6019576,148.318362 38.7728825,157.277529 50,162.610951 L50,162.610951 L50,181 L46,181 C38.3273639,181 30.9350359,182.200142 24.0004995,184.422941 L24,230 C24,244.105888 13.5691766,255.775526 0,257.716445 L0,74 C0,33.1309285 33.1309285,0 74,0 Z" id="transparent_path-7" />
    </defs>
    <g id="transparent_Avataaar/Default" stroke="none" stroke-width="1" fill="none" fill-rule="evenodd">
        <g id="transparent_Body" transform="translate(32.000000, 36.000000)">
            <mask id="transparent_mask-2" fill="white">
                <use xlink:href="#transparent_path-1" />
            </mask>
            <use fill="#D0C6AC" xlink:href="#transparent_path-1" />
            <g id="transparent_Skin-Color" mask="url(#transparent_mask-2)" fill="#614335">
                <g transform="translate(-32.000000, 0.000000)" id="transparent_Color">
                    <rect x="0" y="0" width="264" height="244" />
                </g>
            </g>
            <path d="M44,94 C44,124.927946 69.072054,150 100,150 C130.927946,150 156,124.927946 156,94 L156,94 L156,102 C156,132.927946 130.927946,158 100,158 C69.072054,158 44,132.927946 44,102 Z" id="transparent_Neck-Shadow" fill-opacity="0.100000001" fill="#000000" mask="url(#transparent_mask-2)" />
        </g>
        <g id="transparent_Clothing" transform="translate(0.000000, 170.000000)">
            
        <g id="astronaut_suit_Clothing/Astronaut suit" stroke="none" stroke-width="1" fill="none" fill-rule="evenodd"><g id="astronaut_suit_Astronaut-suit" transform="translate(32.000000, 22.000000)"><path d="M127.9997,6.7405 L123.9997,6.7405 L124.0007,0.0005 L75.9997,0.0005 L75.9997,6.7405 L71.9997,6.7405 C32.6327,6.7405 0.6457,38.3345 0.0097,77.5495 L-0.0003,78.7405 L-0.0003,87.7405 L199.9997,87.7405 L199.9997,78.7405 C199.9997,38.9755 167.7647,6.7405 127.9997,6.7405" id="astronaut_suit_Fill-1" fill="#B0DBE2" /><path d="M180.2253,29.2054 C168.8273,38.7164 145.7303,58.8474 145.7303,58.8474 L145.7303,87.7404 L199.9993,87.7404 L199.9993,78.7404 C199.9993,59.5424 192.4713,42.1134 180.2253,29.2054" id="astronaut_suit_Fill-4" fill="#D4EEF4" /><path d="M0.0095,77.5491 L0.0005,78.7401 L0.0005,87.7401 L54.3105,87.7401 L54.3105,58.8471 C54.3105,58.8471 31.1785,38.6861 19.7905,29.1841 C7.7865,41.8261 0.3135,58.8131 0.0095,77.5491" id="astronaut_suit_Fill-6" fill="#D4EEF4" /><path d="M121.8503,50.7298 L78.1893,50.7298 C73.4013,50.7298 69.5203,54.6118 69.5203,59.3998 L69.5203,87.7738 L130.5203,87.7738 L130.5203,59.3998 C130.5203,54.6118 126.6383,50.7298 121.8503,50.7298" id="astronaut_suit_Fill-8" fill="#60ADE6" ns2:color="Top-500" /><path d="M83.6935,58.473 C80.9605,58.473 78.7445,60.689 78.7445,63.422 C78.7445,66.156 80.9605,68.371 83.6935,68.371 C86.4265,68.371 88.6425,66.156 88.6425,63.422 C88.6425,60.689 86.4265,58.473 83.6935,58.473" id="astronaut_suit_Fill-10" fill="#EBFCFF" /><path d="M100.0202,58.473 C97.2872,58.473 95.0712,60.689 95.0712,63.422 C95.0712,66.156 97.2872,68.371 100.0202,68.371 C102.7532,68.371 104.9692,66.156 104.9692,63.422 C104.9692,60.689 102.7532,58.473 100.0202,58.473" id="astronaut_suit_Fill-12" fill="#EBFCFF" /><path d="M116.3464,58.473 C113.6144,58.473 111.3974,60.689 111.3974,63.422 C111.3974,66.156 113.6144,68.371 116.3464,68.371 C119.0804,68.371 121.2964,66.156 121.2964,63.422 C121.2964,60.689 119.0804,58.473 116.3464,58.473" id="astronaut_suit_Fill-14" fill="#EBFCFF" /><path d="M117.8112,87.7737 L82.2292,87.7737 C80.3042,87.7737 78.7442,86.2137 78.7442,84.2897 L78.7442,78.4967 C78.7442,76.5717 80.3042,75.0107 82.2292,75.0107 L117.8112,75.0107 C119.7362,75.0107 121.2962,76.5717 121.2962,78.4967 L121.2962,84.2897 C121.2962,86.2137 119.7362,87.7737 117.8112,87.7737" id="astronaut_suit_Fill-16" fill="#B0DBE2" /><path d="M164.361,16.6038 C153.687,10.3438 141.267,6.7408 128,6.7408 L124,6.7408 L124.001,-0.0002 L76,-0.0002 L76,6.7408 L72,6.7408 C59.006,6.7408 46.827,10.1998 36.303,16.2208 C95.548,34.5108 143.322,23.6098 164.361,16.6038" id="astronaut_suit_Fill-18" fill="#60ADE6" ns2:color="Top-500" /></g></g></g>
        <g id="transparent_Face" transform="translate(76.000000, 82.000000)" fill="#000000">
            <g id="transparent_Mouth" transform="translate(2.000000, 52.000000)">    
                
            <g id="twinkle_Mouth/Twinkle" stroke="none" stroke-width="1" fill="none" fill-rule="evenodd" fill-opacity="0.599999964">
        <path d="M40,16 C40,21.371763 46.1581544,25 54,25 C61.8418456,25 68,21.371763 68,16 C68,14.8954305 67.050301,14 66,14 C64.7072748,14 64.1302316,14.9051755 64,16 C62.7575758,18.9378973 59.6832595,20.7163149 54,21 C48.3167405,20.7163149 45.2424242,18.9378973 44,16 C43.8697684,14.9051755 43.2927252,14 42,14 C40.949699,14 40,14.8954305 40,16 Z" id="twinkle_Mouth" fill="#000000" fill-rule="nonzero" />
    </g>
</g>
            <g id="transparent_Nose" transform="translate(28.000000, 40.000000)" fill-opacity="0.16">
                
            <g id="wide_Nose/Wide" stroke="none" stroke-width="1" fill="none" fill-rule="evenodd"><path d="M13,6 C13,12.627417 16.8281211,18 28,18 C39.1718789,18 43,12.627417 43,6 C39.0361818,6 32.8972468,9 27.83815,9 C23.0794079,9 17.1013384,6 13,6 Z" id="wide_Nose" fill-opacity=".16" fill="#000" /></g></g>
            <g id="transparent_Eyes" transform="translate(0.000000, 8.000000)">
                
            <g id="eye_roll_Eyes/Eye-Roll-🙄" stroke="none" stroke-width="1" fill="none" fill-rule="evenodd">
        <circle id="eye_roll_Eyeball" fill="#FFFFFF" cx="30" cy="22" r="14" />
        <circle id="eye_roll_The-white-stuff" fill="#FFFFFF" cx="82" cy="22" r="14" />
        <circle id="eye_roll_Eye" fill-opacity="0.699999988" fill="#000000" cx="30" cy="14" r="6" />
        <circle id="eye_roll_Eye" fill-opacity="0.699999988" fill="#000000" cx="82" cy="14" r="6" />
    </g>
</g>
            <g id="transparent_Eyebrow" fill-opacity="0.599999964">
                
            <g id="up_down_Eyebrow/Outline/Up-Down" stroke="none" stroke-width="1" fill="none" fill-rule="evenodd" fill-opacity="0.599999964">
        <path d="M15.5914402,14.1619718 C20.0874642,7.83556966 29.6031809,4.65350252 39.3473715,7.79575991 C40.3986323,8.13476518 41.5256656,7.55736801 41.8646708,6.50610724 C42.2036761,5.45484647 41.6262789,4.32781316 40.5750182,3.98880789 C29.1665516,0.309863172 17.8358054,4.09887835 12.3309495,11.8448183 C11.6910852,12.7451779 11.9022584,13.9937761 12.8026181,14.6336404 C13.7029777,15.2735046 14.9515759,15.0623314 15.5914402,14.1619718 Z" id="up_down_Eyebrow" fill="#000000" fill-rule="nonzero" />
        <path d="M73.6376405,21.1577995 C77.5525501,15.6490895 88.2853148,12.56006 97.5304219,14.8304032 C98.6031199,15.0938282 99.6862617,14.4377829 99.9496867,13.3650849 C100.213112,12.2923868 99.5570664,11.2092451 98.4843684,10.9458201 C87.7477584,8.30920485 75.3194947,11.8862211 70.3771498,18.840646 C69.7372855,19.7410057 69.9484587,20.9896038 70.8488184,21.6294681 C71.749178,22.2693324 72.9977762,22.0581591 73.6376405,21.1577995 Z" id="up_down_Eyebrow" fill="#000000" fill-rule="nonzero" transform="translate(85.007549, 16.038421) scale(-1, 1) translate(-85.007549, -16.038421) " />
    </g>
</g>
        </g>
        <g id="transparent_Top">
            
        <g id="mohawk_Hairstyle/Mohawk" stroke="none" stroke-width="1" fill="none" fill-rule="evenodd">
        <path d="M115.676155,17.5598143 L122.20504,51.9330239 C122.653196,54.2924753 124.715579,56 127.117215,56 L138.866942,56 C141.257026,56 143.312891,54.3084797 143.773298,51.9631596 L150.52342,17.5778958 C150.842583,15.9520726 149.783325,14.3753498 148.157502,14.0561867 C147.96714,14.018817 147.773602,14 147.579606,14 L118.62346,14 C116.966606,14 115.62346,15.3431458 115.62346,17 C115.62346,17.187843 115.641103,17.3752708 115.676155,17.5598143 Z" id="mohawk_Hair-Color" fill="#C93305" ns2:color="Hair-500" />
    </g>
    <g id="mohawk_Facial-Hair" transform="translate(49.000000, 72.000000)"><defs>
        <path d="M84.5044337,93.8410391 C72.9930718,94.2191416 67.8580835,99.7213834 63.9909333,94.1296214 C61.0884259,89.9323547 62.3028943,82.8739117 65.014944,78.9027173 C68.8738581,73.2512381 74.1088724,75.9847769 79.9622738,75.3400279 C81.5538829,75.1648137 83.1526985,74.7228407 84.5044337,74 C85.856169,74.7228407 87.4546414,75.1648137 89.0462504,75.3400279 C94.899995,75.9847769 100.134666,73.2512381 103.993923,78.9027173 C106.70563,82.8739117 107.920098,89.9323547 105.017591,94.1296214 C101.150441,99.7213834 96.0157956,93.4629366 84.5044337,93.8410391 Z M140.39109,26 C136.966521,40.0748212 135.393023,54.4337754 132.909944,68.6711471 C132.392536,71.6390145 131.826063,74.5963095 131.224594,77.5496398 C131.098329,78.1697764 130.973781,80.4725746 130.362704,80.7643064 C128.511632,81.6484223 124.739149,76.9466834 123.730409,75.8851496 C121.196893,73.219256 118.684993,70.5292442 115.599415,68.437233 C109.364783,64.2102603 102.065485,61.7108818 94.4700836,61.117837 C91.2922091,60.8693859 86.9951134,61.3025234 84.000116,63.1104016 C81.0051185,61.3025234 76.7080229,60.8693859 73.5298053,61.117837 C65.9344039,61.7108818 58.6351055,64.2102603 52.4004739,68.437233 C49.3148957,70.5292442 46.8033387,73.219256 44.2694796,75.8851496 C43.2607395,76.9466834 39.4882573,81.6484223 37.6371849,80.7643064 C37.0261079,80.4725746 36.9015594,78.1697764 36.7752954,77.5496398 C36.1738255,74.5963095 35.6073527,71.6390145 35.0899445,68.6711471 C32.6072086,54.4337754 31.0337113,40.0748212 27.6091415,26 C26.6127533,26 25.7385119,44.7478165 25.6273446,46.4945731 C25.174784,53.5889755 24.6463963,60.5254529 25.3216346,67.6261326 C26.485803,79.8749043 27.6993791,95.2339402 37.032627,104.58753 C45.4659003,113.039493 57.7103052,114.806417 68.2713185,120.141327 C69.631059,120.828202 71.4347824,121.676306 73.3798667,122.37111 C75.4289129,123.934171 79.4926946,125 84.1740722,125 C89.0846465,125 93.3155222,123.827456 95.2540874,122.137856 C96.9548781,121.49261 98.5180822,120.752874 99.7285704,120.141327 C110.288776,114.805245 122.533989,113.039493 130.967262,104.58753 C140.30051,95.2339402 141.514086,79.8749043 142.678597,67.6261326 C143.353493,60.5254529 142.825105,53.5889755 142.372887,46.4945731 C142.261377,44.7478165 141.387136,26 140.39109,26 Z" id="beard_medium_path-1" />
    </defs>
    <g id="beard_medium_Facial-Hair/Beard-Medium" stroke="none" stroke-width="1" fill="none" fill-rule="evenodd">
        <mask id="beard_medium_mask-2" fill="white">
            <use xlink:href="#beard_medium_path-1" />
        </mask>
        <use id="beard_medium_Beardness" fill="#252E32" xlink:href="#beard_medium_path-1" />
        <g id="beard_medium_Facial-Hair-Color" mask="url(#beard_medium_mask-2)" fill="#D6B370">
            <rect id="beard_medium_Color" x="0" y="0" width="168" height="152" />
        </g>
    </g>
</g>
    <g id="mohawk_Accessory" transform="translate(62.000000, 85.000000)"><defs>
        <path d="M102,3 C110.919724,3 118.702944,7.86594657 122.839966,15.0881434 C123.049977,15.0306809 123.271405,15 123.5,15 L131.5,15 C132.880712,15 134,16.1192881 134,17.5 C134,18.8807119 132.880712,20 131.5,20 L124.963112,19.9999542 C125.63735,22.2145597 126,24.5649291 126,27 C126,40.254834 115.254834,51 102,51 C88.745166,51 78,40.254834 78,27 C78,25.5817328 78.1230214,24.1921987 78.3589754,22.8414867 C78.2814883,18.460693 74.9167538,15 70.8624171,15 C67.1244063,15 63.9725878,17.9417418 63.4412238,21.8340095 C63.8076631,23.4981856 64,25.2266315 64,27 C64,40.254834 53.254834,51 40,51 C26.745166,51 16,40.254834 16,27 C16,24.5649291 16.3626501,22.2145597 17.0368877,19.9999542 L10.5,20 C9.11928813,20 8,18.8807119 8,17.5 C8,16.1192881 9.11928813,15 10.5,15 L18.5,15 C18.7285947,15 18.9500235,15.0306809 19.1603931,15.0881495 C23.2970555,7.86594657 31.0802764,3 40,3 C49.3522436,3 57.4550935,8.34929022 61.4157763,16.1550973 C63.492635,13.0394413 66.9492812,11 70.8624171,11 C74.874933,11 78.4074783,13.1443461 80.4650049,16.3947271 C84.3793874,8.45920672 92.5521607,3 102,3 Z M40,7 C28.954305,7 20,15.954305 20,27 C20,38.045695 28.954305,47 40,47 C51.045695,47 60,38.045695 60,27 C60,15.954305 51.045695,7 40,7 Z M102,7 C90.954305,7 82,15.954305 82,27 C82,38.045695 90.954305,47 102,47 C113.045695,47 122,38.045695 122,27 C122,15.954305 113.045695,7 102,7 Z" id="round_path-1" />
        <filter x="-0.8%" y="-2.1%" width="101.6%" height="108.3%" filterUnits="objectBoundingBox" id="round_filter-2">
            <feOffset dx="0" dy="2" in="SourceAlpha" result="shadowOffsetOuter1" />
            <feColorMatrix values="0 0 0 0 0   0 0 0 0 0   0 0 0 0 0  0 0 0 0.1 0" type="matrix" in="shadowOffsetOuter1" />
        </filter>
    </defs>
    <g id="round_Top/_Resources/Round" stroke="none" stroke-width="1" fill="none" fill-rule="evenodd">
        <g id="round_Lennon-Glasses">
            <use fill="black" fill-opacity="1" filter="url(#round_filter-2)" xlink:href="#round_path-1" />
            <use fill="#252C2F" fill-rule="evenodd" xlink:href="#round_path-1" />
        </g>
    </g>
</g>
</g>
    </g>
</svg>