<svg xmlns="http://www.w3.org/2000/svg" xmlns:ns2="http://design.blush" xmlns:xlink="http://www.w3.org/1999/xlink" width="264px" height="280px" viewBox="0 0 264 280" version="1.1">
    <title id="transparent_Title">Avataaar/Default</title>
    <desc>Created with python_avatars</desc>
    <defs>
        <path d="M100,0 C130.927946,-5.68137151e-15 156,25.072054 156,56 L156.000809,62.1660527 C161.675838,63.1185422 166,68.05429 166,74 L166,88 C166,94.0524166 161.519235,99.0582945 155.693975,99.8813638 C153.627928,119.686472 141.237929,136.421678 124.001014,144.610469 L124,163 L128,163 C167.764502,163 200,195.235498 200,235 L200,244 L0,244 L0,235 C-4.86974701e-15,195.235498 32.235498,163 72,163 L76,163 L75.9999836,144.610943 C58.7625487,136.422324 46.3721119,119.686854 44.3051107,99.8809698 C38.480765,99.0582945 34,94.0524166 34,88 L34,74 C34,68.053942 38.3246685,63.1179645 44.0001873,62.1658855 L44,56 C44,25.072054 69.072054,5.68137151e-15 100,0 Z" id="transparent_path-1" />
        <path d="M83,36.3476251 C83,52.6289957 105.161905,65.8276544 132.5,65.8276544 C159.838095,65.8276544 182,52.6289957 182,36.3476251 C182,34.9853134 181.844841,33.6445843 181.544472,32.3313638 C210.784239,41.4879251 232,68.792221 232,101.051724 L232,110 L32,110 L32,101.051724 C32,68.3970853 53.7386736,40.8197864 83.5337207,32.0021267 C83.1821692,33.4207025 83,34.871494 83,36.3476251 Z" id="transparent_path-3" />
        <rect id="transparent_path-5" x="0" y="0" width="264" height="280" />
        <path d="M74,0 C114.869071,0 148,33.1309285 148,74 L148,84.1482318 L148,197.608051 C135.525121,187.236892 119.490913,181 102,181 L102,181 L98,181 L98,162.610951 C115.530782,154.282984 128.048193,137.114792 129.791419,116.867187 C135.569129,116.002364 140,111.018625 140,105 L140,105 L140,92 C140,87.3536213 137.359271,83.3240177 133.496777,81.3301515 C132.723933,81.0500337 131.951808,80.748163 131.180891,80.4262497 C130.794819,80.3202581 130.400778,80.2331546 130,80.1659169 L130,80.1659169 L130.000458,79.9172528 C117.224481,74.2339715 104.877985,63.0706967 96.1104311,47.8848473 C93.1752556,42.8009742 90.8310687,37.5951441 89.0661426,32.3970356 C80.4313947,42.9409152 67.7445474,53.6023901 52.3415164,62.4953343 C42.777598,68.0170651 33.1467898,72.2910056 24,75.2659587 L24.0003852,137.246608 C29.6019576,148.318362 38.7728825,157.277529 50,162.610951 L50,162.610951 L50,181 L46,181 C38.3273639,181 30.9350359,182.200142 24.0004995,184.422941 L24,230 C24,244.105888 13.5691766,255.775526 0,257.716445 L0,74 C0,33.1309285 33.1309285,0 74,0 Z" id="transparent_path-7" />
    </defs>
    <g id="transparent_Avataaar/Default" stroke="none" stroke-width="1" fill="none" fill-rule="evenodd">
        <g id="transparent_Body" transform="translate(32.000000, 36.000000)">
            <mask id="transparent_mask-2" fill="white">
                <use xlink:href="#transparent_path-1" />
            </mask>
            <use fill="#D0C6AC" xlink:href="#transparent_path-1" />
            <g id="transparent_Skin-Color" mask="url(#transparent_mask-2)" fill="#F8D25C">
                <g transform="translate(-32.000000, 0.000000)" id="transparent_Color">
                    <rect x="0" y="0" width="264" height="244" />
                </g>
            </g>
            <path d="M44,94 C44,124.927946 69.072054,150 100,150 C130.927946,150 156,124.927946 156,94 L156,94 L156,102 C156,132.927946 130.927946,158 100,158 C69.072054,158 44,132.927946 44,102 Z" id="transparent_Neck-Shadow" fill-opacity="0.100000001" fill="#000000" mask="url(#transparent_mask-2)" />
        </g>
        <g id="transparent_Clothing" transform="translate(0.000000, 170.000000)">
            
        <g id="jedi_robe_Clothing/Jedi robe" stroke="none" stroke-width="1" fill="none" fill-rule="evenodd">
        <g id="jedi_robe_Robe" transform="translate(31.000000, 27.500000)">
            <path d="M77.0002,1.8388 C77.0002,1.8388 100.4152,19.9298 125.0262,1.8388 L144.7322,1.8388 L146.6392,82.8388 L53.7902,82.8388 L56.4622,1.8388 L77.0002,1.8388 Z" id="jedi_robe_Fabric-Color" fill="#5199E4" ns2:color="Top-500" />
            <path d="M144.732,1.8388 L145.05,15.3598 L82.694,82.8388 L59.513,82.8388 L134.365,1.8388 L144.732,1.8388 Z M145.3534,28.2147 L145.9284,52.6767 L118.0564,82.8387 L94.8764,82.8387 L145.3534,28.2147 Z M55.4976,31.0798 L83.4626,56.9218 L71.9076,69.4258 L54.7556,53.5748 L55.4976,31.0798 Z M68.9459,1.8391 L104.2319,34.4461 L92.6779,46.9491 L56.0899,13.1381 L56.4619,1.8391 L68.9459,1.8391 Z" id="jedi_robe_Combined-Shape" fill-opacity=".3" fill="#FFF" />
            <path d="M0.0095,72.6474 L0.0005,73.8384 L0.0005,82.8384 L68.7465,82.8384 L68.7465,0.0004 C17.4125,0.0004 0.4205,47.3044 0.0095,72.6474" id="jedi_robe_Fill-14" fill="#282828" />
            <path d="M61.0934,0.538 L61.0934,82.839 L68.7464,82.839 L68.7464,0 C66.0854,0 63.5354,0.185 61.0934,0.538" id="jedi_robe_Fill-17" fill="#070707" />
            <path d="M202.0104,72.6474 L202.0204,73.8384 L202.0204,82.8384 L133.2744,82.8374 L133.2744,0.0004 C184.6074,0.0004 201.5994,47.3044 202.0104,72.6474" id="jedi_robe_Fill-20" fill="#282828" />
            <path d="M140.8268,0.538 L140.8268,82.838 L133.2738,82.838 L133.2738,0 C135.8998,0 138.4168,0.185 140.8268,0.538" id="jedi_robe_Fill-23" fill="#070707" />
        </g>
    </g>
</g>
        <g id="transparent_Face" transform="translate(76.000000, 82.000000)" fill="#000000">
            <g id="transparent_Mouth" transform="translate(2.000000, 52.000000)">    
                
            <g id="twinkle_Mouth/Twinkle" stroke="none" stroke-width="1" fill="none" fill-rule="evenodd" fill-opacity="0.599999964">
        <path d="M40,16 C40,21.371763 46.1581544,25 54,25 C61.8418456,25 68,21.371763 68,16 C68,14.8954305 67.050301,14 66,14 C64.7072748,14 64.1302316,14.9051755 64,16 C62.7575758,18.9378973 59.6832595,20.7163149 54,21 C48.3167405,20.7163149 45.2424242,18.9378973 44,16 C43.8697684,14.9051755 43.2927252,14 42,14 C40.949699,14 40,14.8954305 40,16 Z" id="twinkle_Mouth" fill="#000000" fill-rule="nonzero" />
    </g>
</g>
            <g id="transparent_Nose" transform="translate(28.000000, 40.000000)" fill-opacity="0.16">
                
            <g id="small_Nose/Small" stroke="none" stroke-width="1" fill="none" fill-rule="evenodd"><path d="M20,7 C20,12.5228475 24.0470996,15 28,15 C31.9529004,15 36,12.5228475 36,7 C33.8327451,7.7317728 31.1406373,8.0976592 27.9236765,8.0976592 C24.7406373,8.0976592 22.0994118,7.7317728 20,7 Z" id="small_Nose" fill-opacity=".16" fill="#000" /></g></g>
            <g id="transparent_Eyes" transform="translate(0.000000, 8.000000)">
                
            <g id="happy_Eyes/Happy-ðŸ˜" stroke="none" stroke-width="1" fill="none" fill-rule="evenodd" fill-opacity="0.599999964">
        <path d="M16.1601674,22.4473116 C18.006676,18.648508 22.1644225,16 26.9975803,16 C31.8136766,16 35.9591217,18.629842 37.8153518,22.4071242 C38.3667605,23.5291977 37.5821037,24.4474817 36.790607,23.7670228 C34.3395063,21.6597833 30.8587163,20.3437884 26.9975803,20.3437884 C23.2572061,20.3437884 19.8737584,21.5787519 17.4375392,23.5716412 C16.5467928,24.3002944 15.6201012,23.5583844 16.1601674,22.4473116 Z" id="happy_Squint" fill="#000000" />
        <path d="M74.1601674,22.4473116 C76.006676,18.648508 80.1644225,16 84.9975803,16 C89.8136766,16 93.9591217,18.629842 95.8153518,22.4071242 C96.3667605,23.5291977 95.5821037,24.4474817 94.790607,23.7670228 C92.3395063,21.6597833 88.8587163,20.3437884 84.9975803,20.3437884 C81.2572061,20.3437884 77.8737584,21.5787519 75.4375392,23.5716412 C74.5467928,24.3002944 73.6201012,23.5583844 74.1601674,22.4473116 Z" id="happy_Squint" fill="#000000" />
    </g>
</g>
            <g id="transparent_Eyebrow" fill-opacity="0.599999964">
                
            <g id="sad_concerned_natural_Eyebrow/Natural/Sad-Concerned-Natural" stroke="none" stroke-width="1" fill="none" fill-rule="evenodd" fill-opacity="0.599999964">
        <path d="M22.7663531,5.57844898 L23.6772984,5.17582144 C28.9190996,3.09473425 36.8645466,3.96712704 41.7227321,6.29911638 C42.2897848,6.57148957 41.9021563,7.4519421 41.3211012,7.40711006 C26.4021788,6.25602197 16.3582869,15.5525942 12.9460869,21.8470939 C12.8449215,22.0337142 12.5391523,22.05489 12.4635344,21.8808353 C10.156283,16.5620676 16.9134476,7.89614725 22.7663531,5.57844898 Z" id="sad_concerned_natural_Eyebrow" fill="#000000" transform="translate(27.000000, 13.000000) scale(-1, -1) translate(-27.000000, -13.000000) " />
        <path d="M80.7663531,5.57844898 L81.6772984,5.17582144 C86.9190996,3.09473425 94.8645466,3.96712704 99.7227321,6.29911638 C100.289785,6.57148957 99.9021563,7.4519421 99.3211012,7.40711006 C84.4021788,6.25602197 74.3582869,15.5525942 70.9460869,21.8470939 C70.8449215,22.0337142 70.5391523,22.05489 70.4635344,21.8808353 C68.156283,16.5620676 74.9134476,7.89614725 80.7663531,5.57844898 Z" id="sad_concerned_natural_Eyebrow" fill="#000000" transform="translate(85.000000, 13.000000) scale(1, -1) translate(-85.000000, -13.000000) " />
    </g>
</g>
        </g>
        <g id="transparent_Top">
            
        <defs>
        <path d="M116,0 C127.211125,0 137.909274,2.19631647 147.687647,6.18215166 C148.610063,6.06196359 149.5487,6 150.5,6 C157.20097,6 163.273609,9.07451734 167.696813,14.0565753 C185.740112,14.9903576 201.159349,27.3683704 208.470051,44.9557881 C216.493006,49.5558365 222,59.0429312 222,70 C222,70.5797069 221.984585,71.155299 221.954198,71.7262703 C228.261198,81.2649995 232,93.1347507 232,106 C232,113.33094 230.786009,120.338641 228.574705,126.776091 C228.853754,128.467881 229,130.214422 229,132 C229,141.455043 224.899348,149.815506 218.619686,154.885227 C211.258904,172.684098 195.389647,185 177,185 C175.501611,185 174.019954,184.918235 172.558269,184.7584 C167.111013,189.906495 160.121612,193 152.5,193 C148.058842,193 143.832349,191.949612 140.000349,190.054355 L140.001014,180.610469 C157.531251,172.282329 170.048207,155.114429 171.791415,134.867236 C177.471002,134.017289 181.849484,129.186467 181.9962,123.304975 L182,123 L182,110 C182,108.014881 181.517977,106.142344 180.66459,104.493048 C177.966884,103.690147 174.996344,101.441815 172.021298,98.1710101 C172.014833,98.1684128 172.007822,98.1672297 172.000809,98.1660527 L172.000578,98.1482144 C165.15458,90.6107624 158.28802,77.6643047 154.667387,64.4375583 C143.683333,66.1120035 130.513036,67.0867832 116.353789,67.0867832 C101.905209,67.0867832 88.4864083,66.0717587 77.3694123,64.3345498 C73.7552209,77.6016095 66.866618,90.6012163 59.9999953,98.157119 L60.0001873,98.1658855 L59.9901075,98.1679956 C57.0105489,101.444388 54.0354269,103.695335 51.3340398,104.498009 C50.5253168,106.059631 50.0504689,107.824174 50.0037999,109.695025 L50,110 L50,123 C50,129.018777 54.4310943,134.002616 60.2090181,134.867253 C61.9518594,155.115197 74.4696989,172.283632 92.0009808,180.611417 L92.0011384,190.053619 C88.1687443,191.949341 83.9417323,193 79.5,193 C71.8787605,193 64.8896703,189.906797 59.4414808,184.758965 C57.9800457,184.918235 56.4983893,185 55,185 C36.6103527,185 20.7410963,172.684098 13.3790205,154.885043 C7.10065151,149.815506 3,141.455043 3,132 C3,130.214422 3.14624584,128.467881 3.42579502,126.775169 C1.21399074,120.338641 0,113.33094 0,106 C0,93.1347507 3.73880224,81.2649995 10.0453187,71.7257869 C10.015415,71.155299 10,70.5797069 10,70 C10,59.0429312 15.5069937,49.5558365 23.5303378,44.956594 C30.8406711,27.3683817 46.2599587,14.9903972 64.3034353,14.0567145 C68.7263913,9.07451734 74.7990304,6 81.5,6 C82.4512999,6 83.3899366,6.06196359 84.3129883,6.18255189 C94.0907062,2.19632063 104.788864,0 116,0 Z" id="fro_path-1" />
    </defs>
    <g id="fro_Top/Long-Hair/Fro" stroke="none" stroke-width="1" fill="none" fill-rule="evenodd">
        <path d="M97.3896087,42.3923264 C107.880511,40.9293514 120.189742,40.0867832 133.353789,40.0867832 C146.22875,40.0867832 158.286026,40.8927515 168.625585,42.2974868 C168.785566,39.3365659 169.136623,36.5967441 169.664482,34.1152734 C187.354365,45.9536992 199,66.1168577 199,89 L199.001113,109.776682 C189.979495,108.708272 177.129693,89.3920217 171.667447,69.4377806 C160.684858,71.1118906 147.513856,72.0867832 133.353789,72.0867832 C118.904694,72.0867832 105.485452,71.0716864 94.3682241,69.3343642 C88.921994,89.3307155 76.0372341,108.71789 66.9995261,109.777628 L67,89 C67,66.1129662 78.6495962,45.9468414 96.3425686,34.1078455 C96.8779574,36.6186627 97.2315682,39.3925882 97.3896087,42.3923264 Z" id="fro_Shadow" fill-opacity="0.16" fill="#000000" />
        <g id="fro_Hair" transform="translate(16.000000, 0.000000)">
            <mask id="fro_mask-2" fill="white">
                <use xlink:href="#fro_path-1" />
            </mask>
            <use fill="#314756" xlink:href="#fro_path-1" />
            <g id="fro_Hair-Color" mask="url(#fro_mask-2)" fill="#C93305">
                <g transform="translate(-16.000000, 0.000000)" id="fro_Color">
                    <rect x="0" y="0" width="264" height="280" />
                </g>
            </g>
        </g>
        <g id="fro_Facial-Hair" transform="translate(49.000000, 72.000000)" />
        <g id="fro_Accessory" transform="translate(62.000000, 85.000000)" />
    </g>
</g>
    </g>
</svg>