<svg xmlns="http://www.w3.org/2000/svg" xmlns:ns2="http://design.blush" xmlns:xlink="http://www.w3.org/1999/xlink" width="264px" height="280px" viewBox="0 0 264 280" version="1.1">
    <title id="transparent_Title">Avataaar/Default</title>
    <desc>Created with python_avatars</desc>
    <defs>
        <path d="M100,0 C130.927946,-5.68137151e-15 156,25.072054 156,56 L156.000809,62.1660527 C161.675838,63.1185422 166,68.05429 166,74 L166,88 C166,94.0524166 161.519235,99.0582945 155.693975,99.8813638 C153.627928,119.686472 141.237929,136.421678 124.001014,144.610469 L124,163 L128,163 C167.764502,163 200,195.235498 200,235 L200,244 L0,244 L0,235 C-4.86974701e-15,195.235498 32.235498,163 72,163 L76,163 L75.9999836,144.610943 C58.7625487,136.422324 46.3721119,119.686854 44.3051107,99.8809698 C38.480765,99.0582945 34,94.0524166 34,88 L34,74 C34,68.053942 38.3246685,63.1179645 44.0001873,62.1658855 L44,56 C44,25.072054 69.072054,5.68137151e-15 100,0 Z" id="transparent_path-1" />
        <path d="M83,36.3476251 C83,52.6289957 105.161905,65.8276544 132.5,65.8276544 C159.838095,65.8276544 182,52.6289957 182,36.3476251 C182,34.9853134 181.844841,33.6445843 181.544472,32.3313638 C210.784239,41.4879251 232,68.792221 232,101.051724 L232,110 L32,110 L32,101.051724 C32,68.3970853 53.7386736,40.8197864 83.5337207,32.0021267 C83.1821692,33.4207025 83,34.871494 83,36.3476251 Z" id="transparent_path-3" />
        <rect id="transparent_path-5" x="0" y="0" width="264" height="280" />
        <path d="M74,0 C114.869071,0 148,33.1309285 148,74 L148,84.1482318 L148,197.608051 C135.525121,187.236892 119.490913,181 102,181 L102,181 L98,181 L98,162.610951 C115.530782,154.282984 128.048193,137.114792 129.791419,116.867187 C135.569129,116.002364 140,111.018625 140,105 L140,105 L140,92 C140,87.3536213 137.359271,83.3240177 133.496777,81.3301515 C132.723933,81.0500337 131.951808,80.748163 131.180891,80.4262497 C130.794819,80.3202581 130.400778,80.2331546 130,80.1659169 L130,80.1659169 L130.000458,79.9172528 C117.224481,74.2339715 104.877985,63.0706967 96.1104311,47.8848473 C93.1752556,42.8009742 90.8310687,37.5951441 89.0661426,32.3970356 C80.4313947,42.9409152 67.7445474,53.6023901 52.3415164,62.4953343 C42.777598,68.0170651 33.1467898,72.2910056 24,75.2659587 L24.0003852,137.246608 C29.6019576,148.318362 38.7728825,157.277529 50,162.610951 L50,162.610951 L50,181 L46,181 C38.3273639,181 30.9350359,182.200142 24.0004995,184.422941 L24,230 C24,244.105888 13.5691766,255.775526 0,257.716445 L0,74 C0,33.1309285 33.1309285,0 74,0 Z" id="transparent_path-7" />
    </defs>
    <g id="transparent_Avataaar/Default" stroke="none" stroke-width="1" fill="none" fill-rule="evenodd">
        <g id="transparent_Body" transform="translate(32.000000, 36.000000)">
            <mask id="transparent_mask-2" fill="white">
                <use xlink:href="#transparent_path-1" />
            </mask>
            <use fill="#D0C6AC" xlink:href="#transparent_path-1" />
            <g id="transparent_Skin-Color" mask="url(#transparent_mask-2)" fill="#EDB98A">
                <g transform="translate(-32.000000, 0.000000)" id="transparent_Color">
                    <rect x="0" y="0" width="264" height="244" />
                </g>
            </g>
            <path d="M44,94 C44,124.927946 69.072054,150 100,150 C130.927946,150 156,124.927946 156,94 L156,94 L156,102 C156,132.927946 130.927946,158 100,158 C69.072054,158 44,132.927946 44,102 Z" id="transparent_Neck-Shadow" fill-opacity="0.100000001" fill="#000000" mask="url(#transparent_mask-2)" />
        </g>
        <g id="transparent_Clothing" transform="translate(0.000000, 170.000000)">
            
        <defs>
        <path d="M160,29.0517235 C199.764502,29.0517235 232,61.2872215 232,101.051724 L232,110 L32,110 L32,101.051724 C32,61.2872215 64.235498,29.0517235 104,29.0517235 L105.192363,29.0520252 C105.065349,30.0355191 105,31.0365551 105,32.0517235 C105,45.8588423 117.088312,57.0517235 132,57.0517235 C146.911688,57.0517235 159,45.8588423 159,32.0517235 C159,31.0365551 158.934651,30.0355191 158.807637,29.0520252 L160,29.0517235 Z" id="collar_sweater_path-1" />
    </defs>
    <g id="collar_sweater_Clothing/Collar-+-Sweater" stroke="none" stroke-width="1" fill="none" fill-rule="evenodd">
        <mask id="collar_sweater_mask-2" fill="white">
            <use xlink:href="#collar_sweater_path-1" />
        </mask>
        <use id="collar_sweater_Clothes" fill="#E6E6E6" xlink:href="#collar_sweater_path-1" />
        <g id="collar_sweater_Fabric-Color" mask="url(#collar_sweater_mask-2)" fill="#FF488E">
            <rect id="collar_sweater_ðŸ–Color" x="0" y="0" width="264" height="110" />
        </g>
        <path d="M118.07795,50.9956082 L118,51.0567821 L119,54.207887 L114.421,53.8754994 L108.308702,58.6917545 C101.361717,54.0802103 97,47.4262523 97,40.027915 C97,32.7399202 101.232581,26.1742662 107.999601,21.5717708 L108,36.8768102 C108,42.7004148 111.977587,47.8531513 118.07795,50.9956082 Z M166,40.027915 C166,47.2334229 161.862687,53.7328485 155.229194,58.3270307 L149.58,53.8754994 L145,54.207887 L146,51.0567821 L146.015,51.0664994 L145.923049,50.9950934 C152.022847,47.8525885 156,42.7000968 156,36.8768102 L156.000973,22.2802074 C162.182048,26.8358435 166,33.1060895 166,40.027915 Z" id="collar_sweater_Collar" fill="#F2F2F2" />
    </g>
</g>
        <g id="transparent_Face" transform="translate(76.000000, 82.000000)" fill="#000000">
            <g id="transparent_Mouth" transform="translate(2.000000, 52.000000)">    
                
            <g id="serious_Mouth/Serious" stroke="none" stroke-width="1" fill="none" fill-rule="evenodd" fill-opacity="0.699999988">
        <rect id="serious_Why-so-serious?" fill="#000000" x="42" y="18" width="24" height="6" rx="3" />
    </g>
</g>
            <g id="transparent_Nose" transform="translate(28.000000, 40.000000)" fill-opacity="0.16">
                
            <g id="default_Nose/Default" stroke="none" stroke-width="1" fill="none" fill-rule="evenodd" fill-opacity="0.16">
        <path d="M16,8 C16,12.418278 21.372583,16 28,16 L28,16 C34.627417,16 40,12.418278 40,8" id="default_Nose" fill="#000000" />
    </g>
</g>
            <g id="transparent_Eyes" transform="translate(0.000000, 8.000000)">
                
            <defs>
        <path d="M14,14.0481187 C23.6099827,14.0481187 28,18.4994466 28,11.5617716 C28,4.62409673 21.7319865,0 14,0 C6.2680135,0 0,4.62409673 0,11.5617716 C0,18.4994466 4.39001726,14.0481187 14,14.0481187 Z" id="squint_path-1" />
        <path d="M14,14.0481187 C23.6099827,14.0481187 28,18.4994466 28,11.5617716 C28,4.62409673 21.7319865,0 14,0 C6.2680135,0 0,4.62409673 0,11.5617716 C0,18.4994466 4.39001726,14.0481187 14,14.0481187 Z" id="squint_path-3" />
    </defs>
    <g id="squint_Eyes/Squint-ðŸ˜Š" stroke="none" stroke-width="1" fill="none" fill-rule="evenodd">
        <g id="squint_Eye" transform="translate(16.000000, 13.000000)">
            <mask id="squint_mask-2" fill="white">
                <use xlink:href="#squint_path-1" />
            </mask>
            <use id="squint_The-white-stuff" fill="#FFFFFF" xlink:href="#squint_path-1" />
            <circle fill-opacity="0.699999988" fill="#000000" mask="url(#squint_mask-2)" cx="14" cy="10" r="6" />
        </g>
        <g id="squint_Eye" transform="translate(68.000000, 13.000000)">
            <mask id="squint_mask-4" fill="white">
                <use xlink:href="#squint_path-3" />
            </mask>
            <use id="squint_Eyeball-Mask" fill="#FFFFFF" xlink:href="#squint_path-3" />
            <circle fill-opacity="0.699999988" fill="#000000" mask="url(#squint_mask-4)" cx="14" cy="10" r="6" />
        </g>
    </g>
</g>
            <g id="transparent_Eyebrow" fill-opacity="0.599999964">
                
            <g id="sad_concerned_natural_Eyebrow/Natural/Sad-Concerned-Natural" stroke="none" stroke-width="1" fill="none" fill-rule="evenodd" fill-opacity="0.599999964">
        <path d="M22.7663531,5.57844898 L23.6772984,5.17582144 C28.9190996,3.09473425 36.8645466,3.96712704 41.7227321,6.29911638 C42.2897848,6.57148957 41.9021563,7.4519421 41.3211012,7.40711006 C26.4021788,6.25602197 16.3582869,15.5525942 12.9460869,21.8470939 C12.8449215,22.0337142 12.5391523,22.05489 12.4635344,21.8808353 C10.156283,16.5620676 16.9134476,7.89614725 22.7663531,5.57844898 Z" id="sad_concerned_natural_Eyebrow" fill="#000000" transform="translate(27.000000, 13.000000) scale(-1, -1) translate(-27.000000, -13.000000) " />
        <path d="M80.7663531,5.57844898 L81.6772984,5.17582144 C86.9190996,3.09473425 94.8645466,3.96712704 99.7227321,6.29911638 C100.289785,6.57148957 99.9021563,7.4519421 99.3211012,7.40711006 C84.4021788,6.25602197 74.3582869,15.5525942 70.9460869,21.8470939 C70.8449215,22.0337142 70.5391523,22.05489 70.4635344,21.8808353 C68.156283,16.5620676 74.9134476,7.89614725 80.7663531,5.57844898 Z" id="sad_concerned_natural_Eyebrow" fill="#000000" transform="translate(85.000000, 13.000000) scale(1, -1) translate(-85.000000, -13.000000) " />
    </g>
</g>
        </g>
        <g id="transparent_Top">
            
        <g id="bride_Hairstyle/Bride" stroke="none" stroke-width="1" fill="none" fill-rule="evenodd">
        <g id="bride_Facial-Hair" transform="translate(49.000000, 72.000000)" />
        <g id="bride_Accessory" transform="translate(62.000000, 85.000000)"><defs>
        <path d="M83.4984286,93.8410391 C72.1241067,94.2191416 67.0502492,99.7213834 63.2291365,94.1296214 C60.3611827,89.9323547 61.5611932,82.8739117 64.2409566,78.9027173 C68.0539313,73.2512381 73.2266239,75.9847769 79.010342,75.3400279 C80.5830033,75.1648137 82.1627854,74.7228407 83.4984286,74 C84.8340717,74.7228407 86.4135147,75.1648137 87.986176,75.3400279 C93.7702332,75.9847769 98.9425868,73.2512381 102.755901,78.9027173 C105.435325,82.8739117 106.635335,89.9323547 103.767382,94.1296214 C99.9462689,99.7213834 94.8727504,93.4629366 83.4984286,93.8410391 Z M138.719768,26 C135.335967,40.0748212 133.781202,54.4337754 131.327683,68.6711471 C130.816435,71.6390145 130.256705,74.5963095 129.662396,77.5496398 C129.537635,78.1697764 129.414569,80.4725746 128.810767,80.7643064 C126.981731,81.6484223 123.254159,76.9466834 122.257428,75.8851496 C119.754073,73.219256 117.272077,70.5292442 114.223231,68.437233 C108.062822,64.2102603 100.85042,61.7108818 93.3454397,61.117837 C90.2053971,60.8693859 85.9594573,61.3025234 83.0001146,63.1104016 C80.0407719,61.3025234 75.7948321,60.8693859 72.6544504,61.117837 C65.1494705,61.7108818 57.9370685,64.2102603 51.7766588,68.437233 C48.7278137,70.5292442 46.2461561,73.219256 43.742462,75.8851496 C42.7457307,76.9466834 39.018159,81.6484223 37.1891231,80.7643064 C36.5853209,80.4725746 36.4622551,78.1697764 36.3374942,77.5496398 C35.7431847,74.5963095 35.1834557,71.6390145 34.6722071,68.6711471 C32.2190276,54.4337754 30.6642623,40.0748212 27.2804612,26 C26.2959348,26 25.432101,44.7478165 25.3222572,46.4945731 C24.8750842,53.5889755 24.3529868,60.5254529 25.0201865,67.6261326 C26.1704958,79.8749043 27.3696246,95.2339402 36.5917624,104.58753 C44.9246396,113.039493 57.0232778,114.806417 67.4585647,120.141327 C68.8021178,120.828202 70.5843683,121.676306 72.5062968,122.37111 C74.5309497,123.934171 78.546353,125 83.1719999,125 C88.024115,125 92.2046231,123.827456 94.1201102,122.137856 C95.8006534,121.49261 97.3452479,120.752874 98.5413255,120.141327 C108.975814,114.805245 121.075251,113.039493 129.408128,104.58753 C138.630266,95.2339402 139.829394,79.8749043 140.980043,67.6261326 C141.646903,60.5254529 141.124806,53.5889755 140.677972,46.4945731 C140.567789,44.7478165 139.703955,26 138.719768,26 Z" id="eyepatch_path-1" />
    </defs>
    <g id="eyepatch_Top/Accesories/Eyepatch" stroke="none" stroke-width="1" fill="none" fill-rule="evenodd" transform="translate(-62 -85)">
        <path d="M160.395307,39.7810237 C157.318088,36.6927979 154.11865,43.6386608 152.623361,45.4281124 C149.013122,49.7486528 145.540256,54.182935 141.868413,58.4518947 C134.616309,66.8823544 127.439316,75.3743141 120.233991,83.8401528 C119.140279,85.1257012 119.27271,85.2649028 117.837048,85.3885641 C116.88598,85.4708947 115.563312,84.9802173 114.5737,84.9256608 C111.823607,84.774556 109.112057,85.2348141 106.435756,85.8227012 C101.091389,86.9961608 95.4264863,88.9291124 90.7890799,91.898306 C89.5718308,92.677306 88.7874545,93.5971608 87.4670933,93.841177 C86.3183659,94.0534512 84.794416,93.6295641 83.622299,93.5194592 C81.5412806,93.3237173 78.5378542,92.4726366 76.4953793,92.9137173 C73.9027538,93.4738302 72.9174244,96.6109915 75.5604528,98.0003624 C77.570314,99.0564431 81.5706,98.4761608 83.8235816,98.6447899 C86.3971,98.8372253 85.6120649,98.704306 85.2473843,101.164306 C84.7239177,104.69758 85.5985582,108.646475 87.0885766,111.878201 C90.5482655,119.383185 100.122861,127.335201 108.8551,126.603153 C116.142123,125.992451 122.526834,119.413274 125.519389,113.099935 C127.050916,109.868871 127.954546,106.192096 128.250376,102.628403 C128.438811,100.36183 128.333722,97.9580399 127.684083,95.7632173 C127.362888,94.6783705 126.853916,93.5554995 126.308378,92.5695157 C125.866281,91.7710076 123.908799,89.9203866 123.788886,89.1165882 C123.556307,87.5602415 127.973324,83.3874995 128.816339,82.3443141 C132.788953,77.4276205 136.780344,72.5320882 140.721662,67.5889431 C144.603353,62.7201931 148.506456,57.8640076 152.489612,53.0785802 C154.294237,50.9098786 163.318023,42.7148382 160.395307,39.7810237" id="eyepatch_Badass-Eyepatch" fill="#28354B" />
    </g>
</g>
        <g id="bride_Group-6" transform="translate(69.000000, -55.000000)">
            <path d="M117.8748,169.5479 C118.7828,164.0989 128.5908,155.7439 128.5908,143.3939 C128.5908,138.5909 126.4058,107.1459 99.6728,92.0579 C99.7838,91.2529 99.8448,90.4379 99.8448,89.6119 C99.8448,86.7789 99.1598,84.0599 97.9158,81.5219 C114.7568,73.6399 125.8518,60.2059 125.8518,44.9529 C125.8518,20.6779 97.7598,0.9999 63.1068,0.9999 C28.4548,0.9999 0.3628,20.6779 0.3628,44.9529 C0.3628,60.7919 12.3268,74.6689 30.2638,82.4039 C29.2808,84.6869 28.7458,87.1059 28.7458,89.6119 C28.7458,90.5299 28.8218,91.4349 28.9598,92.3259 C3.6398,106.6659 1.0898,135.5739 1.0898,146.8449 C1.0898,162.1009 20.5238,181.3539 20.5238,191.3429 C20.5238,201.3319 -0.0002,208.0529 -0.0002,218.2239 C-0.0002,228.3949 13.2588,235.4779 15.2568,240.1999 C17.2548,244.9219 12.7138,250.1779 12.7138,256.0019 C12.7138,263.4479 24.1558,265.4459 24.1558,265.4459 C11.6238,256.3649 24.5198,244.5599 24.5198,238.5659 C24.5198,232.5719 11.9868,231.6639 11.9868,220.4029 C11.9868,209.1429 32.3298,206.0549 32.3298,192.6139 C32.3298,179.1739 19.2518,161.9079 19.2518,151.7369 C19.2518,141.5659 21.6138,123.9599 37.4148,123.9599 C53.2158,123.9599 51.5818,134.4939 65.2638,134.4939 C78.9448,134.4939 87.3618,126.1399 97.3518,126.1399 C107.3408,126.1399 113.8788,135.5839 113.8788,144.1199 C113.8788,152.6569 104.0708,159.0139 104.0708,171.0009 C104.0708,182.9879 115.4168,189.7079 115.4168,198.4259 C115.4168,207.1449 98.9858,213.8639 98.9858,223.4899 C98.9858,233.1169 106.7958,234.5689 113.5158,240.7449 C120.2358,246.9199 107.1588,254.0039 104.7978,259.8159 C102.4368,265.6279 108.0668,268.8969 108.0668,268.8969 C103.3448,259.2709 122.9608,254.0039 122.9608,245.6489 C122.9608,233.4809 111.0308,229.2409 111.0308,223.4289 C111.0308,214.0459 126.4108,209.1429 126.4108,195.1569 C126.4108,188.0739 116.9668,174.9969 117.8748,169.5479" id="bride_Hair-Color" fill="#C93305" ns2:color="Hair-500" />
            <path d="M65.2634,84.0025 C79.8114,84.0025 91.0234,87.1765 99.6724,92.0575 C99.7844,91.2525 99.8444,90.4375 99.8444,89.6125 C99.8444,75.8585 83.9284,64.7095 64.2954,64.7095 C44.6614,64.7095 28.7454,75.8585 28.7454,89.6125 C28.7454,90.5295 28.8224,91.4345 28.9594,92.3265 C37.9154,87.2545 49.7144,84.0025 65.2634,84.0025" id="bride_Fill-4" fill-opacity=".8" fill="#FFF" />
        </g>
    </g>
</g>
    </g>
</svg>