<svg xmlns="http://www.w3.org/2000/svg" xmlns:ns2="http://design.blush" xmlns:xlink="http://www.w3.org/1999/xlink" width="264px" height="280px" viewBox="0 0 264 280" version="1.1">
    <title id="transparent_Title">Avataaar/Default</title>
    <desc>Created with python_avatars</desc>
    <defs>
        <path d="M100,0 C130.927946,-5.68137151e-15 156,25.072054 156,56 L156.000809,62.1660527 C161.675838,63.1185422 166,68.05429 166,74 L166,88 C166,94.0524166 161.519235,99.0582945 155.693975,99.8813638 C153.627928,119.686472 141.237929,136.421678 124.001014,144.610469 L124,163 L128,163 C167.764502,163 200,195.235498 200,235 L200,244 L0,244 L0,235 C-4.86974701e-15,195.235498 32.235498,163 72,163 L76,163 L75.9999836,144.610943 C58.7625487,136.422324 46.3721119,119.686854 44.3051107,99.8809698 C38.480765,99.0582945 34,94.0524166 34,88 L34,74 C34,68.053942 38.3246685,63.1179645 44.0001873,62.1658855 L44,56 C44,25.072054 69.072054,5.68137151e-15 100,0 Z" id="transparent_path-1" />
        <path d="M83,36.3476251 C83,52.6289957 105.161905,65.8276544 132.5,65.8276544 C159.838095,65.8276544 182,52.6289957 182,36.3476251 C182,34.9853134 181.844841,33.6445843 181.544472,32.3313638 C210.784239,41.4879251 232,68.792221 232,101.051724 L232,110 L32,110 L32,101.051724 C32,68.3970853 53.7386736,40.8197864 83.5337207,32.0021267 C83.1821692,33.4207025 83,34.871494 83,36.3476251 Z" id="transparent_path-3" />
        <rect id="transparent_path-5" x="0" y="0" width="264" height="280" />
        <path d="M74,0 C114.869071,0 148,33.1309285 148,74 L148,84.1482318 L148,197.608051 C135.525121,187.236892 119.490913,181 102,181 L102,181 L98,181 L98,162.610951 C115.530782,154.282984 128.048193,137.114792 129.791419,116.867187 C135.569129,116.002364 140,111.018625 140,105 L140,105 L140,92 C140,87.3536213 137.359271,83.3240177 133.496777,81.3301515 C132.723933,81.0500337 131.951808,80.748163 131.180891,80.4262497 C130.794819,80.3202581 130.400778,80.2331546 130,80.1659169 L130,80.1659169 L130.000458,79.9172528 C117.224481,74.2339715 104.877985,63.0706967 96.1104311,47.8848473 C93.1752556,42.8009742 90.8310687,37.5951441 89.0661426,32.3970356 C80.4313947,42.9409152 67.7445474,53.6023901 52.3415164,62.4953343 C42.777598,68.0170651 33.1467898,72.2910056 24,75.2659587 L24.0003852,137.246608 C29.6019576,148.318362 38.7728825,157.277529 50,162.610951 L50,162.610951 L50,181 L46,181 C38.3273639,181 30.9350359,182.200142 24.0004995,184.422941 L24,230 C24,244.105888 13.5691766,255.775526 0,257.716445 L0,74 C0,33.1309285 33.1309285,0 74,0 Z" id="transparent_path-7" />
    </defs>
    <g id="transparent_Avataaar/Default" stroke="none" stroke-width="1" fill="none" fill-rule="evenodd">
        <g id="transparent_Body" transform="translate(32.000000, 36.000000)">
            <mask id="transparent_mask-2" fill="white">
                <use xlink:href="#transparent_path-1" />
            </mask>
            <use fill="#D0C6AC" xlink:href="#transparent_path-1" />
            <g id="transparent_Skin-Color" mask="url(#transparent_mask-2)" fill="#EDB98A">
                <g transform="translate(-32.000000, 0.000000)" id="transparent_Color">
                    <rect x="0" y="0" width="264" height="244" />
                </g>
            </g>
            <path d="M44,94 C44,124.927946 69.072054,150 100,150 C130.927946,150 156,124.927946 156,94 L156,94 L156,102 C156,132.927946 130.927946,158 100,158 C69.072054,158 44,132.927946 44,102 Z" id="transparent_Neck-Shadow" fill-opacity="0.100000001" fill="#000000" mask="url(#transparent_mask-2)" />
        </g>
        <g id="transparent_Clothing" transform="translate(0.000000, 170.000000)">
            
        <defs>
        <path d="M83,36.3476251 C83,52.6289957 105.161905,65.8276544 132.5,65.8276544 C159.838095,65.8276544 182,52.6289957 182,36.3476251 C182,34.9853134 181.844841,33.6445843 181.544472,32.3313638 C210.784239,41.4879251 232,68.792221 232,101.051724 L232,110 L32,110 L32,101.051724 C32,68.3970853 53.7386736,40.8197864 83.5337207,32.0021267 C83.1821692,33.4207025 83,34.871494 83,36.3476251 Z" id="shirt_scoop_neck_path-1" />
    </defs>
    <g id="shirt_scoop_neck_Clothing/Shirt-Scoop-Neck" stroke="none" stroke-width="1" fill="none" fill-rule="evenodd">
        <mask id="shirt_scoop_neck_mask-2" fill="white">
            <use xlink:href="#shirt_scoop_neck_path-1" />
        </mask>
        <use id="shirt_scoop_neck_Clothes" fill="#E6E6E6" xlink:href="#shirt_scoop_neck_path-1" />
        <g id="shirt_scoop_neck_Fabric-Color" mask="url(#shirt_scoop_neck_mask-2)" fill="#A7FFC4">
            <rect id="shirt_scoop_neck_ðŸ–Color" x="0" y="0" width="264" height="110" />
        </g>
    </g>
</g>
        <g id="transparent_Face" transform="translate(76.000000, 82.000000)" fill="#000000">
            <g id="transparent_Mouth" transform="translate(2.000000, 52.000000)">    
                
            <g id="twinkle_Mouth/Twinkle" stroke="none" stroke-width="1" fill="none" fill-rule="evenodd" fill-opacity="0.599999964">
        <path d="M40,16 C40,21.371763 46.1581544,25 54,25 C61.8418456,25 68,21.371763 68,16 C68,14.8954305 67.050301,14 66,14 C64.7072748,14 64.1302316,14.9051755 64,16 C62.7575758,18.9378973 59.6832595,20.7163149 54,21 C48.3167405,20.7163149 45.2424242,18.9378973 44,16 C43.8697684,14.9051755 43.2927252,14 42,14 C40.949699,14 40,14.8954305 40,16 Z" id="twinkle_Mouth" fill="#000000" fill-rule="nonzero" />
    </g>
</g>
            <g id="transparent_Nose" transform="translate(28.000000, 40.000000)" fill-opacity="0.16">
                
            <g id="wide_Nose/Wide" stroke="none" stroke-width="1" fill="none" fill-rule="evenodd"><path d="M13,6 C13,12.627417 16.8281211,18 28,18 C39.1718789,18 43,12.627417 43,6 C39.0361818,6 32.8972468,9 27.83815,9 C23.0794079,9 17.1013384,6 13,6 Z" id="wide_Nose" fill-opacity=".16" fill="#000" /></g></g>
            <g id="transparent_Eyes" transform="translate(0.000000, 8.000000)">
                
            <g id="heart_Eyes/Hearts-ðŸ˜" stroke="none" stroke-width="1" fill="none" fill-rule="evenodd" fill-opacity="0.8">
        <path d="M35.9583333,10 C33.4074091,10 30.8837273,11.9797894 29.5,13.8206358 C28.1106364,11.9797894 25.5925909,10 23.0416667,10 C17.5523182,10 14,13.3341032 14,17.6412715 C14,23.3708668 18.4118636,26.771228 23.0416667,30.376724 C24.695,31.6133636 27.8223436,34.7777086 28.2083333,35.470905 C28.5943231,36.1641015 30.3143077,36.1885229 30.7916667,35.470905 C31.2690257,34.7532872 34.3021818,31.6133636 35.9583333,30.376724 C40.5853182,26.771228 45,23.3708668 45,17.6412715 C45,13.3341032 41.4476818,10 35.9583333,10 Z" id="heart_Heart" fill="#FF5353" fill-rule="nonzero" />
        <path d="M88.9583333,10 C86.4074091,10 83.8837273,11.9797894 82.5,13.8206358 C81.1106364,11.9797894 78.5925909,10 76.0416667,10 C70.5523182,10 67,13.3341032 67,17.6412715 C67,23.3708668 71.4118636,26.771228 76.0416667,30.376724 C77.695,31.6133636 80.8223436,34.7777086 81.2083333,35.470905 C81.5943231,36.1641015 83.3143077,36.1885229 83.7916667,35.470905 C84.2690257,34.7532872 87.3021818,31.6133636 88.9583333,30.376724 C93.5853182,26.771228 98,23.3708668 98,17.6412715 C98,13.3341032 94.4476818,10 88.9583333,10 Z" id="heart_Heart" fill="#FF5353" fill-rule="nonzero" />
    </g>
</g>
            <g id="transparent_Eyebrow" fill-opacity="0.599999964">
                
            <g id="sad_concerned_Eyebrow/Outline/Sad-Concerned" stroke="none" stroke-width="1" fill="none" fill-rule="evenodd" fill-opacity="0.599999964">
        <path d="M15.9726042,19.4088529 C17.452356,11.0203704 30.0622688,5.22829657 39.2106453,8.9774793 C40.2254706,9.39337449 41.4016967,8.94600219 41.8378196,7.97824531 C42.2739426,7.01048842 41.8048116,5.88881678 40.7899862,5.47292159 C29.3457328,0.782843812 13.9550264,7.85221132 12.0280273,18.7760684 C11.84479,19.8148122 12.5792704,20.798534 13.6685352,20.9732726 C14.7578,21.1480113 15.7893668,20.4475967 15.9726042,19.4088529 Z" id="sad_concerned_Eyebrow" fill="#000000" fill-rule="nonzero" transform="translate(27.000414, 12.500000) scale(-1, -1) translate(-27.000414, -12.500000) " />
        <path d="M73.9726042,19.4088529 C75.452356,11.0203704 88.0622688,5.22829657 97.2106453,8.9774793 C98.2254706,9.39337449 99.4016967,8.94600219 99.8378196,7.97824531 C100.273943,7.01048842 99.8048116,5.88881678 98.7899862,5.47292159 C87.3457328,0.782843812 71.9550264,7.85221132 70.0280273,18.7760684 C69.84479,19.8148122 70.5792704,20.798534 71.6685352,20.9732726 C72.7578,21.1480113 73.7893668,20.4475967 73.9726042,19.4088529 Z" id="sad_concerned_Eyebrow" fill="#000000" fill-rule="nonzero" transform="translate(85.000414, 12.500000) scale(1, -1) translate(-85.000414, -12.500000) " />
    </g>
</g>
        </g>
        <g id="transparent_Top">
            
        <g id="loose_hair_Hairstyle/Loose hair" stroke="none" stroke-width="1" fill="none" fill-rule="evenodd" transform="translate(-1, 0)">
        <g id="loose_hair_Accessory" transform="translate(62.000000, 85.000000)" />
        <path d="M248.9316,185.8679 C227.6806,173.0629 234.2196,160.8039 236.1266,151.8129 C238.0346,142.8219 233.1296,127.2929 226.5916,121.2999 C220.0526,115.3059 207.2476,96.7809 213.5146,80.1619 C216.2336,72.9509 212.2876,54.6889 202.8896,45.2899 C193.4906,35.8899 179.7326,37.9339 174.0106,30.5779 C169.5946,24.9009 157.9366,9.5999 140.2286,9.5999 C122.5196,9.5999 115.4366,19.9529 107.8086,25.1289 C100.1806,30.3059 89.0106,25.1289 80.5646,32.7579 C72.1196,40.3859 68.8496,49.3759 68.8496,69.5359 C68.8496,89.6969 32.9946,100.5949 31.2536,124.1599 C30.2396,137.8809 43.2406,143.3669 43.2406,155.3539 C43.2406,167.3419 12.9996,175.7879 12.9996,194.5859 C12.9996,210.1149 24.9876,217.7429 30.4356,220.4679 C34.3556,222.4279 33.9606,234.3959 39.6786,240.7579 C51.1186,216.1309 76.0526,199.0449 104.9946,199.0449 L108.9946,199.0449 L108.9946,180.6559 C101.7626,177.2209 95.3876,172.2769 90.2666,166.2379 C91.2026,159.9859 89.0526,151.6059 83.7936,137.8259 C81.0146,130.5459 82.6186,119.6039 86.5576,115.3059 C92.5516,108.7679 93.6416,97.5969 93.6416,97.5969 C93.0636,102.2189 93.9556,106.6439 95.1756,110.2089 C95.8526,112.1889 98.7426,112.1079 99.2696,110.0819 C101.6846,100.8209 110.6416,92.5819 113.8026,83.9759 C116.5326,76.5419 113.8026,61.6359 113.8026,61.6359 C116.8476,76.0759 127.0776,84.8769 134.9166,89.6549 C136.8016,90.8029 138.9366,88.7289 137.9026,86.7799 C132.6306,76.8509 134.7236,64.0879 134.7236,64.0879 C136.1526,76.3469 143.2256,85.0659 157.1196,91.6039 C171.0136,98.1419 174.5556,103.0469 174.5556,112.3089 C174.5556,115.8659 175.6396,118.6989 176.9756,120.8399 C178.1776,122.7669 181.1046,122.0129 181.3536,119.7559 C182.0326,113.6089 185.7256,108.2229 185.7256,108.2229 C185.1836,119.0599 186.6816,127.7849 188.7826,134.9479 C187.0276,155.1799 174.5156,172.3319 156.9946,180.6549 L156.9936,199.0449 L160.9936,199.0449 C166.3236,199.0449 171.5146,199.6259 176.5136,200.7229 C176.5076,200.7279 176.5006,200.7319 176.4946,200.7359 C176.4946,200.7359 165.9936,210.3229 161.4646,220.6539 C160.2256,223.4779 163.9666,225.8459 165.9916,223.5189 C166.9636,222.3999 168.0886,221.4269 169.3796,220.7399 C169.3796,220.7399 159.3776,236.3809 166.2696,250.7359 C167.3496,252.9869 170.6496,252.6919 171.3266,250.2889 C172.4966,246.1369 174.4366,240.7879 177.2806,237.4949 C177.2806,237.4949 169.4106,258.1669 188.2456,268.4279 C190.1316,269.4549 192.4046,267.9089 192.1956,265.7709 C191.8326,262.0789 192.0506,257.0079 194.9886,253.2959 C199.1386,248.0539 215.4406,243.1469 225.9256,239.9049 C225.9346,239.9249 225.9456,239.9429 225.9546,239.9629 C228.2436,239.2779 230.3736,238.5709 232.3096,237.8439 C232.3276,237.8379 232.3496,237.8299 232.3686,237.8229 C232.3776,237.8199 232.3876,237.8149 232.3976,237.8119 C234.4236,237.0469 236.2316,236.2599 237.7616,235.4509 C256.8316,225.3709 262.6356,194.1249 248.9316,185.8679" id="loose_hair_Hair-Color" fill="#F59797" ns2:color="Hair-500" />
        <path d="M182.5146,156.2127 C176.8766,166.8587 167.9086,175.4707 156.9946,180.6547 L156.9936,199.0447 L160.9936,199.0447 C166.3186,199.0447 171.5006,199.6397 176.4946,200.7357 C184.6146,192.2167 191.9846,178.0807 182.5146,156.2127" id="loose_hair_Fill-4" fill-opacity=".24" fill="#000" />
        <path d="M108.9946,199.0447 L108.9946,180.6557 C101.8026,177.2387 95.4556,172.3317 90.3486,166.3367 C90.1316,171.2767 89.0936,177.5687 85.7416,182.5987 C82.4426,187.5457 79.4976,195.4047 81.3696,203.0277 C88.7716,200.4567 96.7166,199.0447 104.9946,199.0447 L108.9946,199.0447 Z" id="loose_hair_Fill-6" fill-opacity=".24" fill="#000" />
    </g>
</g>
    </g>
</svg>