<svg xmlns="http://www.w3.org/2000/svg" xmlns:dc="http://purl.org/dc/elements/1.1/" xmlns:ns2="http://design.blush" xmlns:ns4="http://creativecommons.org/ns#" xmlns:rdf="http://www.w3.org/1999/02/22-rdf-syntax-ns#" xmlns:xlink="http://www.w3.org/1999/xlink" width="264px" height="280px" viewBox="0 0 264 280" version="1.1">
    <title id="transparent_Title">Avataaar/Default</title>
    <desc>Created with python_avatars</desc>
    <defs>
        <path d="M100,0 C130.927946,-5.68137151e-15 156,25.072054 156,56 L156.000809,62.1660527 C161.675838,63.1185422 166,68.05429 166,74 L166,88 C166,94.0524166 161.519235,99.0582945 155.693975,99.8813638 C153.627928,119.686472 141.237929,136.421678 124.001014,144.610469 L124,163 L128,163 C167.764502,163 200,195.235498 200,235 L200,244 L0,244 L0,235 C-4.86974701e-15,195.235498 32.235498,163 72,163 L76,163 L75.9999836,144.610943 C58.7625487,136.422324 46.3721119,119.686854 44.3051107,99.8809698 C38.480765,99.0582945 34,94.0524166 34,88 L34,74 C34,68.053942 38.3246685,63.1179645 44.0001873,62.1658855 L44,56 C44,25.072054 69.072054,5.68137151e-15 100,0 Z" id="transparent_path-1" />
        <path d="M83,36.3476251 C83,52.6289957 105.161905,65.8276544 132.5,65.8276544 C159.838095,65.8276544 182,52.6289957 182,36.3476251 C182,34.9853134 181.844841,33.6445843 181.544472,32.3313638 C210.784239,41.4879251 232,68.792221 232,101.051724 L232,110 L32,110 L32,101.051724 C32,68.3970853 53.7386736,40.8197864 83.5337207,32.0021267 C83.1821692,33.4207025 83,34.871494 83,36.3476251 Z" id="transparent_path-3" />
        <rect id="transparent_path-5" x="0" y="0" width="264" height="280" />
        <path d="M74,0 C114.869071,0 148,33.1309285 148,74 L148,84.1482318 L148,197.608051 C135.525121,187.236892 119.490913,181 102,181 L102,181 L98,181 L98,162.610951 C115.530782,154.282984 128.048193,137.114792 129.791419,116.867187 C135.569129,116.002364 140,111.018625 140,105 L140,105 L140,92 C140,87.3536213 137.359271,83.3240177 133.496777,81.3301515 C132.723933,81.0500337 131.951808,80.748163 131.180891,80.4262497 C130.794819,80.3202581 130.400778,80.2331546 130,80.1659169 L130,80.1659169 L130.000458,79.9172528 C117.224481,74.2339715 104.877985,63.0706967 96.1104311,47.8848473 C93.1752556,42.8009742 90.8310687,37.5951441 89.0661426,32.3970356 C80.4313947,42.9409152 67.7445474,53.6023901 52.3415164,62.4953343 C42.777598,68.0170651 33.1467898,72.2910056 24,75.2659587 L24.0003852,137.246608 C29.6019576,148.318362 38.7728825,157.277529 50,162.610951 L50,162.610951 L50,181 L46,181 C38.3273639,181 30.9350359,182.200142 24.0004995,184.422941 L24,230 C24,244.105888 13.5691766,255.775526 0,257.716445 L0,74 C0,33.1309285 33.1309285,0 74,0 Z" id="transparent_path-7" />
    </defs>
    <g id="transparent_Avataaar/Default" stroke="none" stroke-width="1" fill="none" fill-rule="evenodd">
        <g id="transparent_Body" transform="translate(32.000000, 36.000000)">
            <mask id="transparent_mask-2" fill="white">
                <use xlink:href="#transparent_path-1" />
            </mask>
            <use fill="#D0C6AC" xlink:href="#transparent_path-1" />
            <g id="transparent_Skin-Color" mask="url(#transparent_mask-2)" fill="#F8D25C">
                <g transform="translate(-32.000000, 0.000000)" id="transparent_Color">
                    <rect x="0" y="0" width="264" height="244" />
                </g>
            </g>
            <path d="M44,94 C44,124.927946 69.072054,150 100,150 C130.927946,150 156,124.927946 156,94 L156,94 L156,102 C156,132.927946 130.927946,158 100,158 C69.072054,158 44,132.927946 44,102 Z" id="transparent_Neck-Shadow" fill-opacity="0.100000001" fill="#000000" mask="url(#transparent_mask-2)" />
        </g>
        <g id="transparent_Clothing" transform="translate(0.000000, 170.000000)">
            
        <g id="astronaut_suit_Clothing/Astronaut suit" stroke="none" stroke-width="1" fill="none" fill-rule="evenodd"><g id="astronaut_suit_Astronaut-suit" transform="translate(32.000000, 22.000000)"><path d="M127.9997,6.7405 L123.9997,6.7405 L124.0007,0.0005 L75.9997,0.0005 L75.9997,6.7405 L71.9997,6.7405 C32.6327,6.7405 0.6457,38.3345 0.0097,77.5495 L-0.0003,78.7405 L-0.0003,87.7405 L199.9997,87.7405 L199.9997,78.7405 C199.9997,38.9755 167.7647,6.7405 127.9997,6.7405" id="astronaut_suit_Fill-1" fill="#B0DBE2" /><path d="M180.2253,29.2054 C168.8273,38.7164 145.7303,58.8474 145.7303,58.8474 L145.7303,87.7404 L199.9993,87.7404 L199.9993,78.7404 C199.9993,59.5424 192.4713,42.1134 180.2253,29.2054" id="astronaut_suit_Fill-4" fill="#D4EEF4" /><path d="M0.0095,77.5491 L0.0005,78.7401 L0.0005,87.7401 L54.3105,87.7401 L54.3105,58.8471 C54.3105,58.8471 31.1785,38.6861 19.7905,29.1841 C7.7865,41.8261 0.3135,58.8131 0.0095,77.5491" id="astronaut_suit_Fill-6" fill="#D4EEF4" /><path d="M121.8503,50.7298 L78.1893,50.7298 C73.4013,50.7298 69.5203,54.6118 69.5203,59.3998 L69.5203,87.7738 L130.5203,87.7738 L130.5203,59.3998 C130.5203,54.6118 126.6383,50.7298 121.8503,50.7298" id="astronaut_suit_Fill-8" fill="#60ADE6" ns2:color="Top-500" /><path d="M83.6935,58.473 C80.9605,58.473 78.7445,60.689 78.7445,63.422 C78.7445,66.156 80.9605,68.371 83.6935,68.371 C86.4265,68.371 88.6425,66.156 88.6425,63.422 C88.6425,60.689 86.4265,58.473 83.6935,58.473" id="astronaut_suit_Fill-10" fill="#EBFCFF" /><path d="M100.0202,58.473 C97.2872,58.473 95.0712,60.689 95.0712,63.422 C95.0712,66.156 97.2872,68.371 100.0202,68.371 C102.7532,68.371 104.9692,66.156 104.9692,63.422 C104.9692,60.689 102.7532,58.473 100.0202,58.473" id="astronaut_suit_Fill-12" fill="#EBFCFF" /><path d="M116.3464,58.473 C113.6144,58.473 111.3974,60.689 111.3974,63.422 C111.3974,66.156 113.6144,68.371 116.3464,68.371 C119.0804,68.371 121.2964,66.156 121.2964,63.422 C121.2964,60.689 119.0804,58.473 116.3464,58.473" id="astronaut_suit_Fill-14" fill="#EBFCFF" /><path d="M117.8112,87.7737 L82.2292,87.7737 C80.3042,87.7737 78.7442,86.2137 78.7442,84.2897 L78.7442,78.4967 C78.7442,76.5717 80.3042,75.0107 82.2292,75.0107 L117.8112,75.0107 C119.7362,75.0107 121.2962,76.5717 121.2962,78.4967 L121.2962,84.2897 C121.2962,86.2137 119.7362,87.7737 117.8112,87.7737" id="astronaut_suit_Fill-16" fill="#B0DBE2" /><path d="M164.361,16.6038 C153.687,10.3438 141.267,6.7408 128,6.7408 L124,6.7408 L124.001,-0.0002 L76,-0.0002 L76,6.7408 L72,6.7408 C59.006,6.7408 46.827,10.1998 36.303,16.2208 C95.548,34.5108 143.322,23.6098 164.361,16.6038" id="astronaut_suit_Fill-18" fill="#60ADE6" ns2:color="Top-500" /></g></g></g>
        <g id="transparent_Face" transform="translate(76.000000, 82.000000)" fill="#000000">
            <g id="transparent_Mouth" transform="translate(2.000000, 52.000000)">    
                
            <g id="eating_Mouth/Eating" stroke="none" stroke-width="1" fill="none" fill-rule="evenodd">
        <g id="eating_Om-Nom-Nom" opacity="0.599999964" transform="translate(28.000000, 6.000000)" fill="#000000" fill-opacity="0.599999964">
            <path d="M45.7064761,0 C42.3399588,1.95870633 40.0195381,5.49520667 40.0195381,9.67694348 C40.0195381,15.344608 45.4930527,20.2451296 51.8234083,20.2451296 C51.8823878,20.2451296 51.9412524,20.2447983 52,20.244138 C50.6423552,20.7317259 49.1600404,21 47.6077404,21 C42.2861196,21 37.787011,17.8470634 36.3137083,13.513833 C33.8402487,15.6694366 30.1376666,17.0394229 26,17.0394229 C21.8623334,17.0394229 18.1597513,15.6694366 15.6851623,13.5125989 C14.212989,17.8470634 9.71388039,21 4.39225962,21 C2.83995964,21 1.35764479,20.7317259 0,20.244138 C0.0587475828,20.2447983 0.11761218,20.2451296 0.176591694,20.2451296 C6.50694731,20.2451296 11.9804619,15.344608 11.9804619,9.67694348 C11.9804619,5.49520667 9.66004124,1.95870633 6.29352385,0 C11.7918498,0.797121661 16.0171848,4.99477485 16.1905909,10.1049337 C18.754121,11.8420922 22.2048056,12.9056086 26,12.9056086 C29.7951944,12.9056086 33.245879,11.8420922 35.8100516,10.1058522 C35.9828152,4.99477485 40.2081502,0.797121661 45.7064761,0 Z" id="eating_Delicious" />
        </g>
        <circle id="eating_Redish" fill-opacity="0.2" fill="#FF4646" cx="17" cy="15" r="9" />
        <circle id="eating_Redish" fill-opacity="0.2" fill="#FF4646" cx="91" cy="15" r="9" />
    </g>
</g>
            <g id="transparent_Nose" transform="translate(28.000000, 40.000000)" fill-opacity="0.16">
                
            <g id="wide_Nose/Wide" stroke="none" stroke-width="1" fill="none" fill-rule="evenodd"><path d="M13,6 C13,12.627417 16.8281211,18 28,18 C39.1718789,18 43,12.627417 43,6 C39.0361818,6 32.8972468,9 27.83815,9 C23.0794079,9 17.1013384,6 13,6 Z" id="wide_Nose" fill-opacity=".16" fill="#000" /></g></g>
            <g id="transparent_Eyes" transform="translate(0.000000, 8.000000)">
                
            <g id="surprised_Eyes/Surprised-😳" stroke="none" stroke-width="1" fill="none" fill-rule="evenodd">
        <circle id="surprised_The-White-Stuff" fill="#FFFFFF" cx="30" cy="22" r="14" />
        <circle id="surprised_Eye-Ball" fill="#FFFFFF" cx="82" cy="22" r="14" />
        <circle id="surprised_Eye" fill-opacity="0.699999988" fill="#000000" cx="30" cy="22" r="6" />
        <circle id="surprised_Eye" fill-opacity="0.699999988" fill="#000000" cx="82" cy="22" r="6" />
    </g>
</g>
            <g id="transparent_Eyebrow" fill-opacity="0.599999964">
                
            <g id="angry_Eyebrow/Outline/Angry" stroke="none" stroke-width="1" fill="none" fill-rule="evenodd" fill-opacity="0.599999964">
        <path d="M15.6114904,15.1845247 C19.8515017,9.41618792 22.4892046,9.70087612 28.9238518,14.5564693 C29.1057771,14.6937504 29.2212592,14.7812575 29.5936891,15.063789 C34.4216439,18.7263562 36.7081807,20 40,20 C41.1045695,20 42,19.1045695 42,18 C42,16.8954305 41.1045695,16 40,16 C37.9337712,16 36.0986396,14.9777974 32.011227,11.8770179 C31.6358269,11.5922331 31.5189458,11.5036659 31.3332441,11.3635351 C27.5737397,8.52660822 25.3739873,7.28738405 22.6379899,6.99208688 C18.9538127,6.59445233 15.5799484,8.47367246 12.3885096,12.8154753 C11.7343147,13.7054768 11.9254737,14.9572954 12.8154753,15.6114904 C13.7054768,16.2656853 14.9572954,16.0745263 15.6114904,15.1845247 Z" id="angry_Eyebrow" fill="#000000" fill-rule="nonzero" />
        <path d="M73.6114904,15.1845247 C77.8515017,9.41618792 80.4892046,9.70087612 86.9238518,14.5564693 C87.1057771,14.6937504 87.2212592,14.7812575 87.5936891,15.063789 C92.4216439,18.7263562 94.7081807,20 98,20 C99.1045695,20 100,19.1045695 100,18 C100,16.8954305 99.1045695,16 98,16 C95.9337712,16 94.0986396,14.9777974 90.011227,11.8770179 C89.6358269,11.5922331 89.5189458,11.5036659 89.3332441,11.3635351 C85.5737397,8.52660822 83.3739873,7.28738405 80.6379899,6.99208688 C76.9538127,6.59445233 73.5799484,8.47367246 70.3885096,12.8154753 C69.7343147,13.7054768 69.9254737,14.9572954 70.8154753,15.6114904 C71.7054768,16.2656853 72.9572954,16.0745263 73.6114904,15.1845247 Z" id="angry_Eyebrow" fill="#000000" fill-rule="nonzero" transform="translate(84.999934, 13.470064) scale(-1, 1) translate(-84.999934, -13.470064) " />
    </g>
</g>
        </g>
        <g id="transparent_Top">
            
        <metadata id="dreadlocks_metadata25">
      <rdf:RDF>
         <ns4:Work rdf:about="">
            <dc:format>image/svg+xml</dc:format>
            <dc:type rdf:resource="http://purl.org/dc/dcmitype/StillImage" />
            <dc:title />
         </ns4:Work>
      </rdf:RDF>
   </metadata>
   <defs id="dreadlocks_defs23" />
   <g id="dreadlocks_Hairstyle/Dreadlocks" stroke="none" stroke-width="1" fill="none" fill-rule="evenodd">
      <g id="dreadlocks_Group-35" transform="translate(52.300000, 33.100000)">
         <g id="dreadlocks_Hair-Color" fill="#ECDCBF">
            <path d="M135.7129,58.8838 C135.7129,58.7438 135.7039,58.6068 135.7029,58.4668 C136.6069,57.9398 137.2679,57.0168 137.4129,55.8978 C137.6209,54.3068 136.7149,52.8388 135.3079,52.2388 C135.0399,49.9838 134.6419,47.7688 134.1149,45.6028 C135.4309,45.2428 136.4749,44.1408 136.6669,42.7038 C136.9239,40.7878 135.5789,39.0268 133.6629,38.7698 C133.0549,38.6878 132.4559,38.5868 131.8609,38.4778 C130.6489,35.3818 129.1779,32.4148 127.4579,29.6148 C128.0429,29.2318 128.5199,28.6718 128.7959,27.9718 C129.5039,26.1738 128.6199,24.1408 126.8209,23.4328 C122.1719,21.6028 117.4079,14.6048 115.9639,12.0618 C115.0129,10.3818 112.8769,9.7908 111.1969,10.7398 C110.7149,11.0128 110.3339,11.3888 110.0409,11.8178 C107.3149,10.0578 104.4339,8.5168 101.4099,7.2448 C101.0349,5.9128 100.8719,5.1098 100.8659,5.0778 C100.4989,3.1828 98.6659,1.9428 96.7689,2.3088 C95.4419,2.5648 94.4499,3.5438 94.0899,4.7548 C92.0029,4.2018 89.8689,3.7698 87.6939,3.4598 C87.2149,1.9338 85.7239,0.8818 84.0849,1.0108 C82.8229,1.1108 81.7819,1.8718 81.2479,2.9228 C80.7359,2.9088 80.2279,2.8838 79.7129,2.8838 C79.1069,2.8838 78.5059,2.9108 77.9039,2.9298 C77.3719,1.8788 76.3319,1.1158 75.0699,1.0148 C73.3989,0.8768 71.9059,1.9498 71.4409,3.4968 C69.2769,3.8168 67.1579,4.2668 65.0829,4.8278 C64.7409,3.5858 63.7369,2.5748 62.3859,2.3128 C60.4909,1.9418 58.6539,3.1828 58.2829,5.0778 C58.2779,5.1028 58.1019,5.9668 57.6989,7.3828 C54.7179,8.6578 51.8759,10.1928 49.1879,11.9448 C48.8879,11.4628 48.4809,11.0388 47.9519,10.7398 C46.2679,9.7888 44.1329,10.3828 43.1829,12.0648 C41.7489,14.6028 37.0029,21.5928 32.3289,23.4328 C30.5299,24.1418 29.6459,26.1738 30.3539,27.9718 C30.6599,28.7508 31.2189,29.3488 31.8949,29.7298 C30.2149,32.4798 28.7769,35.3918 27.5859,38.4268 C26.8949,38.5598 26.1949,38.6748 25.4859,38.7698 C23.5709,39.0268 22.2259,40.7878 22.4829,42.7038 C22.6879,44.2358 23.8559,45.4008 25.2949,45.6758 C24.7859,47.7798 24.3979,49.9308 24.1339,52.1208 C22.5569,52.6278 21.5139,54.1968 21.7359,55.8978 C21.8959,57.1248 22.6789,58.1088 23.7209,58.6008 C23.7199,58.6958 23.7129,58.7888 23.7129,58.8838 L23.7129,65.0498 C23.7129,65.0498 73.8409,62.4388 79.7129,27.0218 C79.7129,27.0218 91.9419,65.0498 135.7139,65.0498 L135.7129,58.8838 Z" id="dreadlocks_Fill-1" ns2:color="Hair-500" />
            <path d="M49.5625,147.1787 C50.0395,146.4437 50.4895,145.6907 50.8895,144.9057 C37.8005,137.0327 28.2015,123.9577 24.9365,108.5447 C24.0565,108.6657 23.1965,108.8457 22.3485,109.0557 C21.8635,107.5397 20.3925,106.5017 18.7335,106.6327 C16.8075,106.7917 15.3745,108.4817 15.5325,110.4077 C15.5435,110.5457 15.5895,111.0327 15.6905,111.7787 C13.7455,112.9197 11.9705,114.3127 10.4045,115.9147 C9.6325,115.2497 8.5885,114.9137 7.5085,115.1117 C5.6055,115.4537 4.3425,117.2747 4.6855,119.1767 C4.7095,119.3127 4.9705,120.7017 5.5815,122.8777 C4.0755,126.1077 3.2195,129.7007 3.2195,133.4997 C3.2195,134.1167 3.2495,134.7277 3.2925,135.3337 C2.9605,135.3537 2.6275,135.4057 2.2995,135.5257 C0.4845,136.1887 -0.4495,138.1987 0.2135,140.0137 C0.4235,140.5877 5.5155,154.1427 19.9925,160.6487 C20.4585,160.8577 20.9455,160.9567 21.4245,160.9567 C22.7605,160.9567 24.0365,160.1887 24.6195,158.8907 C24.6865,158.7417 24.7265,158.5867 24.7715,158.4347 C25.9625,158.6077 27.1805,158.6997 28.4195,158.6997 C30.4915,158.6997 32.5005,158.4367 34.4265,157.9647 C35.8795,158.5227 37.3685,159.0027 38.8945,159.3917 C39.1855,159.4657 39.4765,159.5007 39.7625,159.5007 C41.3235,159.5007 42.7475,158.4487 43.1515,156.8657 C43.3915,155.9247 43.2245,154.9767 42.7625,154.2037 C43.4725,153.7107 44.1565,153.1847 44.8105,152.6227 C45.2585,152.8217 45.6955,153.0277 46.1565,153.2157 C46.5895,153.3917 47.0365,153.4757 47.4765,153.4757 C48.8565,153.4757 50.1655,152.6537 50.7185,151.2957 C51.3335,149.7877 50.8105,148.1097 49.5625,147.1787" id="dreadlocks_Fill-3" ns2:color="Hair-500" />
            <path d="M158.9033,135.5254 C158.2933,135.3014 157.6643,135.2714 157.0693,135.3824 C157.1153,134.7594 157.1463,134.1334 157.1463,133.5004 C157.1463,130.1414 156.4853,126.9384 155.2933,124.0074 C156.1433,121.1844 156.4893,119.3354 156.5173,119.1764 C156.8613,117.2744 155.5973,115.4544 153.6953,115.1114 C152.4073,114.8764 151.1693,115.3924 150.3883,116.3344 C148.9263,114.7634 147.2693,113.3784 145.4513,112.2214 C145.5983,111.2134 145.6573,110.5724 145.6713,110.4084 C145.8293,108.4814 144.3953,106.7914 142.4693,106.6324 C140.7413,106.4964 139.2183,107.6294 138.8023,109.2494 C137.4173,108.8584 135.9853,108.5784 134.5143,108.4284 C131.3323,123.6104 122.0043,136.5264 109.2493,144.4624 C109.7913,145.5804 110.4173,146.6494 111.1113,147.6684 C110.2613,148.6324 109.9663,150.0244 110.4843,151.2964 C111.0383,152.6534 112.3463,153.4754 113.7273,153.4754 C114.1673,153.4754 114.6143,153.3914 115.0473,153.2154 C115.3173,153.1054 115.5703,152.9814 115.8373,152.8684 C116.5993,153.5034 117.3983,154.0964 118.2333,154.6394 C117.9443,155.3204 117.8553,156.0924 118.0513,156.8654 C118.4563,158.4484 119.8803,159.5014 121.4413,159.5014 C121.7273,159.5014 122.0183,159.4654 122.3083,159.3914 C123.7153,159.0324 125.0923,158.5974 126.4383,158.0944 C128.2123,158.4904 130.0533,158.7004 131.9463,158.7004 C133.4633,158.7004 134.9453,158.5584 136.3873,158.3014 C136.4373,158.5004 136.4973,158.6984 136.5843,158.8904 C137.1673,160.1884 138.4433,160.9574 139.7783,160.9574 C140.2573,160.9574 140.7453,160.8574 141.2113,160.6484 C155.6873,154.1424 160.7803,140.5874 160.9903,140.0134 C161.6533,138.1984 160.7183,136.1884 158.9033,135.5254" id="dreadlocks_Fill-5" ns2:color="Hair-500" />
         </g>
         <path d="M133.9473,58.9467 C135.6783,58.9467 137.1833,57.6617 137.4133,55.8977 C137.6633,53.9817 136.3103,52.2247 134.3943,51.9757 C91.8013,46.4307 87.9893,5.9407 87.8473,4.2197 C87.6943,2.2957 85.9853,0.8607 84.0853,1.0107 C82.1573,1.1627 80.7183,2.8477 80.8703,4.7757 C80.9083,5.2647 81.8943,16.9137 88.8233,29.4217 C95.2733,41.0647 108.2583,55.6327 133.4903,58.9167 C133.6433,58.9367 133.7963,58.9467 133.9473,58.9467" id="dreadlocks_Fill-8" fill-opacity=".24" fill="#000" />
         <path d="M132.7334,45.707 C132.8904,45.728 133.0474,45.739 133.2034,45.739 C134.9284,45.739 136.4314,44.461 136.6674,42.704 C136.9234,40.788 135.5794,39.026 133.6634,38.77 C122.5974,37.286 113.7474,31.264 107.3554,20.873 C102.4404,12.881 100.8854,5.177 100.8664,5.078 C100.4994,3.183 98.6664,1.942 96.7684,2.309 C94.8704,2.675 93.6284,4.51 93.9944,6.408 C94.0614,6.758 101.1074,41.466 132.7334,45.707" id="dreadlocks_Fill-11" fill-opacity=".24" fill="#000" />
         <path d="M124.2568,29.9467 C124.6778,30.1127 125.1108,30.1907 125.5378,30.1907 C126.9348,30.1907 128.2528,29.3497 128.7958,27.9717 C129.5038,26.1737 128.6198,24.1407 126.8208,23.4327 C122.1718,21.6027 117.4078,14.6047 115.9638,12.0617 C115.0128,10.3817 112.8768,9.7907 111.1968,10.7397 C109.5138,11.6907 108.9208,13.8257 109.8718,15.5087 C110.5248,16.6637 116.4748,26.8827 124.2568,29.9467" id="dreadlocks_Fill-13" fill-opacity=".24" fill="#000" />
         <path d="M75.0703,1.0146 C73.1493,0.8566 71.4593,2.2966 71.3013,4.2196 C71.1593,5.9406 67.3483,46.4306 24.7553,51.9756 C22.8383,52.2246 21.4863,53.9816 21.7363,55.8976 C21.9653,57.6616 23.4703,58.9466 25.2023,58.9466 C25.3523,58.9466 25.5053,58.9366 25.6583,58.9166 C50.8913,55.6326 63.8763,41.0646 70.3253,29.4216 C77.2543,16.9136 78.2403,5.2646 78.2793,4.7756 C78.4303,2.8506 76.9953,1.1696 75.0703,1.0146" id="dreadlocks_Fill-15" fill-opacity=".24" fill="#000" />
         <path d="M25.9473,45.7387 C26.1023,45.7387 26.2593,45.7287 26.4173,45.7067 C58.0413,41.4667 65.0883,6.7587 65.1553,6.4077 C65.5213,4.5117 64.2813,2.6807 62.3863,2.3127 C60.4913,1.9417 58.6543,3.1827 58.2833,5.0777 C58.2683,5.1547 56.7163,12.8697 51.7933,20.8727 C45.4033,31.2637 36.5513,37.2857 25.4863,38.7697 C23.5713,39.0267 22.2253,40.7877 22.4833,42.7037 C22.7183,44.4617 24.2203,45.7387 25.9473,45.7387" id="dreadlocks_Fill-17" fill-opacity=".24" fill="#000" />
         <path d="M33.6118,30.1909 C34.0378,30.1909 34.4718,30.1119 34.8928,29.9469 C42.6748,26.8829 48.6248,16.6639 49.2768,15.5089 C50.2278,13.8259 49.6348,11.6909 47.9518,10.7399 C46.2678,9.7889 44.1328,10.3819 43.1828,12.0649 C41.7488,14.6029 37.0028,21.5929 32.3288,23.4329 C30.5298,24.1419 29.6458,26.1729 30.3538,27.9719 C30.8968,29.3499 32.2158,30.1909 33.6118,30.1909" id="dreadlocks_Fill-19" fill-opacity=".24" fill="#000" />
         <path d="M48.7983,146.7334 C25.1153,137.0824 22.6043,110.9354 22.5083,109.8284 C22.3473,107.9044 20.6623,106.4814 18.7343,106.6324 C16.8073,106.7914 15.3743,108.4814 15.5323,110.4084 C15.6383,111.6894 18.4323,141.9174 46.1563,153.2154 C46.5893,153.3914 47.0363,153.4754 47.4763,153.4754 C48.8573,153.4754 50.1653,152.6534 50.7183,151.2954 C51.4483,149.5054 50.5883,147.4624 48.7983,146.7334" id="dreadlocks_Fill-21" fill-opacity=".24" fill="#000" />
         <path d="M40.625,152.6084 C17.103,146.6094 11.63,118.2364 11.573,117.9294 C11.228,116.0294 9.409,114.7644 7.508,115.1114 C5.606,115.4544 4.342,117.2744 4.686,119.1764 C4.746,119.5144 6.231,127.5354 11.094,136.4594 C17.653,148.4954 27.267,156.4254 38.895,159.3914 C39.185,159.4654 39.476,159.5014 39.762,159.5014 C41.324,159.5014 42.748,158.4484 43.151,156.8654 C43.629,154.9924 42.498,153.0864 40.625,152.6084" id="dreadlocks_Fill-23" fill-opacity=".24" fill="#000" />
         <path d="M22.8613,154.2636 C11.1863,149.0166 6.8533,137.7826 6.7843,137.6016 C6.1183,135.7926 4.1133,134.8596 2.2993,135.5256 C0.4843,136.1886 -0.4497,138.1986 0.2133,140.0136 C0.4233,140.5876 5.5153,154.1426 19.9923,160.6486 C20.4583,160.8576 20.9453,160.9566 21.4243,160.9566 C22.7603,160.9566 24.0363,160.1886 24.6193,158.8906 C25.4113,157.1276 24.6243,155.0556 22.8613,154.2636" id="dreadlocks_Fill-25" fill-opacity=".24" fill="#000" />
         <path d="M145.6709,110.4082 C145.8289,108.4812 144.3959,106.7912 142.4699,106.6332 C140.5409,106.4812 138.8569,107.9042 138.6939,109.8282 C138.5999,110.9352 136.0879,137.0822 112.4049,146.7332 C110.6149,147.4632 109.7549,149.5062 110.4839,151.2962 C111.0379,152.6532 112.3469,153.4752 113.7279,153.4752 C114.1669,153.4752 114.6139,153.3912 115.0469,153.2162 C142.7709,141.9172 145.5659,111.6892 145.6709,110.4082" id="dreadlocks_Fill-28" fill-opacity=".24" fill="#000" />
         <path d="M150.1094,136.459 C154.9724,127.535 156.4574,119.515 156.5174,119.177 C156.8614,117.274 155.5974,115.454 153.6954,115.111 C151.7954,114.765 149.9754,116.029 149.6304,117.93 C149.5734,118.236 144.1004,146.609 120.5784,152.608 C118.7054,153.086 117.5744,154.992 118.0514,156.865 C118.4564,158.448 119.8804,159.501 121.4414,159.501 C121.7274,159.501 122.0184,159.466 122.3084,159.392 C133.9364,156.426 143.5494,148.495 150.1094,136.459" id="dreadlocks_Fill-30" fill-opacity=".24" fill="#000" />
         <path d="M158.9033,135.5254 C157.0903,134.8594 155.0853,135.7934 154.4193,137.6014 C154.3503,137.7824 150.0173,149.0164 138.3413,154.2634 C136.5793,155.0554 135.7923,157.1284 136.5843,158.8904 C137.1673,160.1884 138.4433,160.9574 139.7783,160.9574 C140.2573,160.9574 140.7453,160.8574 141.2113,160.6484 C155.6873,154.1424 160.7803,140.5874 160.9903,140.0134 C161.6533,138.1984 160.7183,136.1884 158.9033,135.5254" id="dreadlocks_Fill-32" fill-opacity=".24" fill="#000" />
      </g>
      <g id="dreadlocks_Facial-Hair" transform="translate(49.000000, 72.000000)"><defs>
        <path d="M84.5044337,93.8410391 C72.9930718,94.2191416 67.8580835,99.7213834 63.9909333,94.1296214 C61.0884259,89.9323547 62.3028943,82.8739117 65.014944,78.9027173 C68.8738581,73.2512381 74.1088724,75.9847769 79.9622738,75.3400279 C81.5538829,75.1648137 83.1526985,74.7228407 84.5044337,74 C85.856169,74.7228407 87.4546414,75.1648137 89.0462504,75.3400279 C94.899995,75.9847769 100.134666,73.2512381 103.993923,78.9027173 C106.70563,82.8739117 107.920098,89.9323547 105.017591,94.1296214 C101.150441,99.7213834 96.0157956,93.4629366 84.5044337,93.8410391 Z M140.39109,26 C136.966521,40.0748212 135.393023,54.4337754 132.909944,68.6711471 C132.392536,71.6390145 131.826063,74.5963095 131.224594,77.5496398 C131.098329,78.1697764 130.973781,80.4725746 130.362704,80.7643064 C128.511632,81.6484223 124.739149,76.9466834 123.730409,75.8851496 C121.196893,73.219256 118.684993,70.5292442 115.599415,68.437233 C109.364783,64.2102603 102.065485,61.7108818 94.4700836,61.117837 C91.2922091,60.8693859 86.9951134,61.3025234 84.000116,63.1104016 C81.0051185,61.3025234 76.7080229,60.8693859 73.5298053,61.117837 C65.9344039,61.7108818 58.6351055,64.2102603 52.4004739,68.437233 C49.3148957,70.5292442 46.8033387,73.219256 44.2694796,75.8851496 C43.2607395,76.9466834 39.4882573,81.6484223 37.6371849,80.7643064 C37.0261079,80.4725746 36.9015594,78.1697764 36.7752954,77.5496398 C36.1738255,74.5963095 35.6073527,71.6390145 35.0899445,68.6711471 C32.6072086,54.4337754 31.0337113,40.0748212 27.6091415,26 C26.6127533,26 25.7385119,44.7478165 25.6273446,46.4945731 C25.174784,53.5889755 24.6463963,60.5254529 25.3216346,67.6261326 C26.485803,79.8749043 27.6993791,95.2339402 37.032627,104.58753 C45.4659003,113.039493 57.7103052,114.806417 68.2713185,120.141327 C69.631059,120.828202 71.4347824,121.676306 73.3798667,122.37111 C75.4289129,123.934171 79.4926946,125 84.1740722,125 C89.0846465,125 93.3155222,123.827456 95.2540874,122.137856 C96.9548781,121.49261 98.5180822,120.752874 99.7285704,120.141327 C110.288776,114.805245 122.533989,113.039493 130.967262,104.58753 C140.30051,95.2339402 141.514086,79.8749043 142.678597,67.6261326 C143.353493,60.5254529 142.825105,53.5889755 142.372887,46.4945731 C142.261377,44.7478165 141.387136,26 140.39109,26 Z" id="beard_medium_path-1" />
    </defs>
    <g id="beard_medium_Facial-Hair/Beard-Medium" stroke="none" stroke-width="1" fill="none" fill-rule="evenodd">
        <mask id="beard_medium_mask-2" fill="white">
            <use xlink:href="#beard_medium_path-1" />
        </mask>
        <use id="beard_medium_Beardness" fill="#252E32" xlink:href="#beard_medium_path-1" />
        <g id="beard_medium_Facial-Hair-Color" mask="url(#beard_medium_mask-2)" fill="#2C1B18">
            <rect id="beard_medium_Color" x="0" y="0" width="168" height="152" />
        </g>
    </g>
</g>
      <g id="dreadlocks_Accessory" transform="translate(62.000000, 85.000000)"><defs>
        <path d="M83.4984286,93.8410391 C72.1241067,94.2191416 67.0502492,99.7213834 63.2291365,94.1296214 C60.3611827,89.9323547 61.5611932,82.8739117 64.2409566,78.9027173 C68.0539313,73.2512381 73.2266239,75.9847769 79.010342,75.3400279 C80.5830033,75.1648137 82.1627854,74.7228407 83.4984286,74 C84.8340717,74.7228407 86.4135147,75.1648137 87.986176,75.3400279 C93.7702332,75.9847769 98.9425868,73.2512381 102.755901,78.9027173 C105.435325,82.8739117 106.635335,89.9323547 103.767382,94.1296214 C99.9462689,99.7213834 94.8727504,93.4629366 83.4984286,93.8410391 Z M138.719768,26 C135.335967,40.0748212 133.781202,54.4337754 131.327683,68.6711471 C130.816435,71.6390145 130.256705,74.5963095 129.662396,77.5496398 C129.537635,78.1697764 129.414569,80.4725746 128.810767,80.7643064 C126.981731,81.6484223 123.254159,76.9466834 122.257428,75.8851496 C119.754073,73.219256 117.272077,70.5292442 114.223231,68.437233 C108.062822,64.2102603 100.85042,61.7108818 93.3454397,61.117837 C90.2053971,60.8693859 85.9594573,61.3025234 83.0001146,63.1104016 C80.0407719,61.3025234 75.7948321,60.8693859 72.6544504,61.117837 C65.1494705,61.7108818 57.9370685,64.2102603 51.7766588,68.437233 C48.7278137,70.5292442 46.2461561,73.219256 43.742462,75.8851496 C42.7457307,76.9466834 39.018159,81.6484223 37.1891231,80.7643064 C36.5853209,80.4725746 36.4622551,78.1697764 36.3374942,77.5496398 C35.7431847,74.5963095 35.1834557,71.6390145 34.6722071,68.6711471 C32.2190276,54.4337754 30.6642623,40.0748212 27.2804612,26 C26.2959348,26 25.432101,44.7478165 25.3222572,46.4945731 C24.8750842,53.5889755 24.3529868,60.5254529 25.0201865,67.6261326 C26.1704958,79.8749043 27.3696246,95.2339402 36.5917624,104.58753 C44.9246396,113.039493 57.0232778,114.806417 67.4585647,120.141327 C68.8021178,120.828202 70.5843683,121.676306 72.5062968,122.37111 C74.5309497,123.934171 78.546353,125 83.1719999,125 C88.024115,125 92.2046231,123.827456 94.1201102,122.137856 C95.8006534,121.49261 97.3452479,120.752874 98.5413255,120.141327 C108.975814,114.805245 121.075251,113.039493 129.408128,104.58753 C138.630266,95.2339402 139.829394,79.8749043 140.980043,67.6261326 C141.646903,60.5254529 141.124806,53.5889755 140.677972,46.4945731 C140.567789,44.7478165 139.703955,26 138.719768,26 Z" id="eyepatch_path-1" />
    </defs>
    <g id="eyepatch_Top/Accesories/Eyepatch" stroke="none" stroke-width="1" fill="none" fill-rule="evenodd" transform="translate(-62 -85)">
        <path d="M160.395307,39.7810237 C157.318088,36.6927979 154.11865,43.6386608 152.623361,45.4281124 C149.013122,49.7486528 145.540256,54.182935 141.868413,58.4518947 C134.616309,66.8823544 127.439316,75.3743141 120.233991,83.8401528 C119.140279,85.1257012 119.27271,85.2649028 117.837048,85.3885641 C116.88598,85.4708947 115.563312,84.9802173 114.5737,84.9256608 C111.823607,84.774556 109.112057,85.2348141 106.435756,85.8227012 C101.091389,86.9961608 95.4264863,88.9291124 90.7890799,91.898306 C89.5718308,92.677306 88.7874545,93.5971608 87.4670933,93.841177 C86.3183659,94.0534512 84.794416,93.6295641 83.622299,93.5194592 C81.5412806,93.3237173 78.5378542,92.4726366 76.4953793,92.9137173 C73.9027538,93.4738302 72.9174244,96.6109915 75.5604528,98.0003624 C77.570314,99.0564431 81.5706,98.4761608 83.8235816,98.6447899 C86.3971,98.8372253 85.6120649,98.704306 85.2473843,101.164306 C84.7239177,104.69758 85.5985582,108.646475 87.0885766,111.878201 C90.5482655,119.383185 100.122861,127.335201 108.8551,126.603153 C116.142123,125.992451 122.526834,119.413274 125.519389,113.099935 C127.050916,109.868871 127.954546,106.192096 128.250376,102.628403 C128.438811,100.36183 128.333722,97.9580399 127.684083,95.7632173 C127.362888,94.6783705 126.853916,93.5554995 126.308378,92.5695157 C125.866281,91.7710076 123.908799,89.9203866 123.788886,89.1165882 C123.556307,87.5602415 127.973324,83.3874995 128.816339,82.3443141 C132.788953,77.4276205 136.780344,72.5320882 140.721662,67.5889431 C144.603353,62.7201931 148.506456,57.8640076 152.489612,53.0785802 C154.294237,50.9098786 163.318023,42.7148382 160.395307,39.7810237" id="eyepatch_Badass-Eyepatch" fill="#28354B" />
    </g>
</g>
   </g>
</g>
    </g>
</svg>