<svg xmlns="http://www.w3.org/2000/svg" xmlns:xlink="http://www.w3.org/1999/xlink" width="264px" height="280px" viewBox="0 0 264 280" version="1.1">
    <title id="transparent_Title">Avataaar/Default</title>
    <desc>Created with python_avatars</desc>
    <defs>
        <path d="M100,0 C130.927946,-5.68137151e-15 156,25.072054 156,56 L156.000809,62.1660527 C161.675838,63.1185422 166,68.05429 166,74 L166,88 C166,94.0524166 161.519235,99.0582945 155.693975,99.8813638 C153.627928,119.686472 141.237929,136.421678 124.001014,144.610469 L124,163 L128,163 C167.764502,163 200,195.235498 200,235 L200,244 L0,244 L0,235 C-4.86974701e-15,195.235498 32.235498,163 72,163 L76,163 L75.9999836,144.610943 C58.7625487,136.422324 46.3721119,119.686854 44.3051107,99.8809698 C38.480765,99.0582945 34,94.0524166 34,88 L34,74 C34,68.053942 38.3246685,63.1179645 44.0001873,62.1658855 L44,56 C44,25.072054 69.072054,5.68137151e-15 100,0 Z" id="transparent_path-1" />
        <path d="M83,36.3476251 C83,52.6289957 105.161905,65.8276544 132.5,65.8276544 C159.838095,65.8276544 182,52.6289957 182,36.3476251 C182,34.9853134 181.844841,33.6445843 181.544472,32.3313638 C210.784239,41.4879251 232,68.792221 232,101.051724 L232,110 L32,110 L32,101.051724 C32,68.3970853 53.7386736,40.8197864 83.5337207,32.0021267 C83.1821692,33.4207025 83,34.871494 83,36.3476251 Z" id="transparent_path-3" />
        <rect id="transparent_path-5" x="0" y="0" width="264" height="280" />
        <path d="M74,0 C114.869071,0 148,33.1309285 148,74 L148,84.1482318 L148,197.608051 C135.525121,187.236892 119.490913,181 102,181 L102,181 L98,181 L98,162.610951 C115.530782,154.282984 128.048193,137.114792 129.791419,116.867187 C135.569129,116.002364 140,111.018625 140,105 L140,105 L140,92 C140,87.3536213 137.359271,83.3240177 133.496777,81.3301515 C132.723933,81.0500337 131.951808,80.748163 131.180891,80.4262497 C130.794819,80.3202581 130.400778,80.2331546 130,80.1659169 L130,80.1659169 L130.000458,79.9172528 C117.224481,74.2339715 104.877985,63.0706967 96.1104311,47.8848473 C93.1752556,42.8009742 90.8310687,37.5951441 89.0661426,32.3970356 C80.4313947,42.9409152 67.7445474,53.6023901 52.3415164,62.4953343 C42.777598,68.0170651 33.1467898,72.2910056 24,75.2659587 L24.0003852,137.246608 C29.6019576,148.318362 38.7728825,157.277529 50,162.610951 L50,162.610951 L50,181 L46,181 C38.3273639,181 30.9350359,182.200142 24.0004995,184.422941 L24,230 C24,244.105888 13.5691766,255.775526 0,257.716445 L0,74 C0,33.1309285 33.1309285,0 74,0 Z" id="transparent_path-7" />
    </defs>
    <g id="transparent_Avataaar/Default" stroke="none" stroke-width="1" fill="none" fill-rule="evenodd">
        <g id="transparent_Body" transform="translate(32.000000, 36.000000)">
            <mask id="transparent_mask-2" fill="white">
                <use xlink:href="#transparent_path-1" />
            </mask>
            <use fill="#D0C6AC" xlink:href="#transparent_path-1" />
            <g id="transparent_Skin-Color" mask="url(#transparent_mask-2)" fill="#EDB98A">
                <g transform="translate(-32.000000, 0.000000)" id="transparent_Color">
                    <rect x="0" y="0" width="264" height="244" />
                </g>
            </g>
            <path d="M44,94 C44,124.927946 69.072054,150 100,150 C130.927946,150 156,124.927946 156,94 L156,94 L156,102 C156,132.927946 130.927946,158 100,158 C69.072054,158 44,132.927946 44,102 Z" id="transparent_Neck-Shadow" fill-opacity="0.100000001" fill="#000000" mask="url(#transparent_mask-2)" />
        </g>
        <g id="transparent_Clothing" transform="translate(0.000000, 170.000000)">
            
        <defs>
        <path d="M160,29.0517235 C199.764502,29.0517235 232,61.2872215 232,101.051724 L232,110 L32,110 L32,101.051724 C32,61.2872215 64.235498,29.0517235 104,29.0517235 L105.192363,29.0520252 C105.065349,30.0355191 105,31.0365551 105,32.0517235 C105,45.8588423 117.088312,57.0517235 132,57.0517235 C146.911688,57.0517235 159,45.8588423 159,32.0517235 C159,31.0365551 158.934651,30.0355191 158.807637,29.0520252 L160,29.0517235 Z" id="blazer_sweater_path-1" />
    </defs>
    <g id="blazer_sweater_Clothing/Blazer-+-Sweater" stroke="none" stroke-width="1" fill="none" fill-rule="evenodd">
        <mask id="blazer_sweater_mask-2" fill="white">
            <use xlink:href="#blazer_sweater_path-1" />
        </mask>
        <use id="blazer_sweater_Clothes" fill="#E6E6E6" xlink:href="#blazer_sweater_path-1" />
        <g id="blazer_sweater_Fabric-Color" mask="url(#blazer_sweater_mask-2)" fill="#FF488E">
            <rect id="blazer_sweater_ðŸ–Color" x="0" y="0" width="264" height="110" />
        </g>
        <g id="blazer_sweater_Blazer" transform="translate(32.000000, 28.000000)">
            <path d="M64,40.5 C64,55.7092257 65.9608691,69.9209213 69.3620096,82.0011822 L0,82 L0,73.0517235 C-4.73779789e-15,34.3646678 30.512279,2.80413671 68.7847355,1.12223161 C65.7400343,12.7307619 64,26.1727873 64,40.5 Z M200,73.0517235 L200,82 L131.63799,82.0011822 C135.039131,69.9209213 137,55.7092257 137,40.5 C137,26.194165 135.265154,12.7708778 132.228695,1.1737534 C170.025091,3.36299447 200,34.7068514 200,73.0517235 Z" id="blazer_sweater_Saco" fill="#3A4C5A" />
            <path d="M149,58 L158.555853,50.83311 C159.998897,49.7508275 161.987779,49.7682725 163.411616,50.8757011 L170,56 L170,56 L149,58 Z" id="blazer_sweater_Pocket-hanky" fill="#E6E6E6" />
            <path d="M69,0 C65,19.3333333 66.6666667,46.6666667 74,82 L58,82 L44,46 L50,37 L44,31 L63,1 C65.027659,0.369238637 67.027659,0.0359053037 69,0 Z" id="blazer_sweater_Wing" fill="#2F4351" />
            <path d="M151,0 C147,19.3333333 148.666667,46.6666667 156,82 L140,82 L126,46 L132,37 L126,31 L145,1 C147.027659,0.369238637 149.027659,0.0359053037 151,0 Z" id="blazer_sweater_Wing" fill="#2F4351" transform="translate(141.000000, 41.000000) scale(-1, 1) translate(-141.000000, -41.000000) " />
        </g>
        <path d="M167,39.8878801 C167,47.2887654 162.572022,53.9447584 155.520121,58.5564834 L149.58,53.8760062 L145,54.207887 L146,51.0567821 L145.92205,50.9956082 C152.022413,47.8531513 156,42.7004148 156,36.8768102 L156.000381,21.539265 C162.772478,26.1362012 167,32.6564553 167,39.8878801 Z M118.07795,50.9956082 L118,51.0567821 L119,54.207887 L114.419,53.8760062 L108.479879,58.5564834 C101.427978,53.9447584 97,47.2887654 97,39.8878801 C97,32.6560965 101.227942,26.1355541 108.000627,21.5385807 L108,36.8768102 C108,42.7004148 111.977587,47.8531513 118.07795,50.9956082 Z" id="blazer_sweater_Collar" fill="#F2F2F2" />
    </g>
</g>
        <g id="transparent_Face" transform="translate(76.000000, 82.000000)" fill="#000000">
            <g id="transparent_Mouth" transform="translate(2.000000, 52.000000)">    
                
            <defs>
        <path d="M34.0082051,12.6020819 C35.1280248,23.0929366 38.2345159,31.9944054 53.9961505,31.9999965 C69.757785,32.0055894 72.9169073,23.0424631 73.9942614,12.5047938 C74.0809675,11.6567158 73.1738581,10.9999965 72.0369872,10.9999965 C65.3505138,10.9999965 62.6703194,12.4951994 53.9894323,12.4999965 C45.3085452,12.5047938 40.7567994,10.9999965 36.0924943,10.9999965 C34.9490269,10.9999965 33.8961688,11.5524868 34.0082051,12.6020819 Z" id="vomit_path-1" />
        <path d="M66,25 C69.3137085,25 72,27.6862915 72,31 L72,36 C72,39.3137085 69.3137085,42 66,42 C62.6862915,42 60,39.3137085 60,36 L59.9170737,36.0001915 C59.4410745,33.1623839 56.9730632,31 54,31 C51.0269368,31 48.5589255,33.1623839 48.0829263,36.0001915 L48,36 L48,38 C48,41.3137085 45.3137085,44 42,44 C38.6862915,44 36,41.3137085 36,38 L36,31 C36,27.6862915 38.6862915,25 42,25 L66,25 Z" id="vomit_path-3" />
        <filter x="-1.4%" y="-2.6%" width="102.8%" height="105.3%" filterUnits="objectBoundingBox" id="vomit_filter-4">
            <feOffset dx="0" dy="-1" in="SourceAlpha" result="shadowOffsetInner1" />
            <feComposite in="shadowOffsetInner1" in2="SourceAlpha" operator="arithmetic" k2="-1" k3="1" result="shadowInnerInner1" />
            <feColorMatrix values="0 0 0 0 0   0 0 0 0 0   0 0 0 0 0  0 0 0 0.1 0" type="matrix" in="shadowInnerInner1" />
        </filter>
    </defs>
    <g id="vomit_Mouth/Vomit" stroke="none" stroke-width="1" fill="none" fill-rule="evenodd">
        <mask id="vomit_mask-2" fill="white">
            <use xlink:href="#vomit_path-1" transform="translate(54.000000, 21.499998) scale(1, -1) translate(-54.000000, -21.499998)" />
        </mask>
        <use id="vomit_Mouth" fill-opacity="0.699999988" fill="#000000" transform="translate(54.000000, 21.499998) scale(1, -1) translate(-54.000000, -21.499998)" xlink:href="#vomit_path-1" />
        <path d="M44,0 L65,0 C67.7614237,-5.07265313e-16 70,2.23857625 70,5 L70,11 C70,13.7614237 67.7614237,16 65,16 L44,16 C41.2385763,16 39,13.7614237 39,11 L39,5 C39,2.23857625 41.2385763,5.07265313e-16 44,0 Z" id="vomit_Teeth" fill="#FFFFFF" mask="url(#vomit_mask-2)" />
        <g id="vomit_Vomit-Stuff">
            <use fill="#88C553" fill-rule="evenodd" xlink:href="#vomit_path-3" />
        </g>
    </g>
</g>
            <g id="transparent_Nose" transform="translate(28.000000, 40.000000)" fill-opacity="0.16">
                
            <g id="default_Nose/Default" stroke="none" stroke-width="1" fill="none" fill-rule="evenodd" fill-opacity="0.16">
        <path d="M16,8 C16,12.418278 21.372583,16 28,16 L28,16 C34.627417,16 40,12.418278 40,8" id="default_Nose" fill="#000000" />
    </g>
</g>
            <g id="transparent_Eyes" transform="translate(0.000000, 8.000000)">
                
            <g id="cry_Eyes/Cry-ðŸ˜¢" stroke="none" stroke-width="1" fill="none" fill-rule="evenodd">
        <circle id="cry_Eye" fill-opacity="0.599999964" fill="#000000" cx="30" cy="22" r="6" />
        <path d="M25,27 C25,27 19,34.2706667 19,38.2706667 C19,41.5846667 21.686,44.2706667 25,44.2706667 C28.314,44.2706667 31,41.5846667 31,38.2706667 C31,34.2706667 25,27 25,27 Z" id="cry_Drop" fill="#92D9FF" fill-rule="nonzero" />
        <circle id="cry_Eye" fill-opacity="0.599999964" fill="#000000" cx="82" cy="22" r="6" />
    </g>
</g>
            <g id="transparent_Eyebrow" fill-opacity="0.599999964">
                
            <g id="sad_concerned_Eyebrow/Outline/Sad-Concerned" stroke="none" stroke-width="1" fill="none" fill-rule="evenodd" fill-opacity="0.599999964">
        <path d="M15.9726042,19.4088529 C17.452356,11.0203704 30.0622688,5.22829657 39.2106453,8.9774793 C40.2254706,9.39337449 41.4016967,8.94600219 41.8378196,7.97824531 C42.2739426,7.01048842 41.8048116,5.88881678 40.7899862,5.47292159 C29.3457328,0.782843812 13.9550264,7.85221132 12.0280273,18.7760684 C11.84479,19.8148122 12.5792704,20.798534 13.6685352,20.9732726 C14.7578,21.1480113 15.7893668,20.4475967 15.9726042,19.4088529 Z" id="sad_concerned_Eyebrow" fill="#000000" fill-rule="nonzero" transform="translate(27.000414, 12.500000) scale(-1, -1) translate(-27.000414, -12.500000) " />
        <path d="M73.9726042,19.4088529 C75.452356,11.0203704 88.0622688,5.22829657 97.2106453,8.9774793 C98.2254706,9.39337449 99.4016967,8.94600219 99.8378196,7.97824531 C100.273943,7.01048842 99.8048116,5.88881678 98.7899862,5.47292159 C87.3457328,0.782843812 71.9550264,7.85221132 70.0280273,18.7760684 C69.84479,19.8148122 70.5792704,20.798534 71.6685352,20.9732726 C72.7578,21.1480113 73.7893668,20.4475967 73.9726042,19.4088529 Z" id="sad_concerned_Eyebrow" fill="#000000" fill-rule="nonzero" transform="translate(85.000414, 12.500000) scale(1, -1) translate(-85.000414, -12.500000) " />
    </g>
</g>
        </g>
        <g id="transparent_Top">
            
        <defs>
        <path d="M264,0 L264,280 L232,280 L232,271 C232,231.235498 199.764502,199 160,199 L160,199 L156,199 L156.001014,180.610469 C173.531251,172.282329 186.048207,155.114429 187.791415,134.867236 C193.568906,134.002616 198,129.018777 198,123 L198,123 L198,110 C198,104.05429 193.675838,99.1185422 188.000809,98.1660527 L188,92 C188,61.072054 162.927946,36 132,36 C101.072054,36 76,61.072054 76,92 L76,92 L76.0001873,98.1658855 C70.3246685,99.1179645 66,104.053942 66,110 L66,110 L66,123 C66,129.018777 70.4310943,134.002616 76.2090181,134.867253 C77.9518263,155.114813 90.4692242,172.28298 107.999984,180.610943 L108,199 L104,199 C64.633143,199 32.6454629,230.594012 32.0096459,269.809348 L32,271 L32,280 L0,280 L0,0 L264,0 Z" id="cornrows_hairstylecornrows-path-1" />
    </defs>
    <g id="cornrows_Hairstyle/Cornrows" stroke="none" stroke-width="1" fill="none" fill-rule="evenodd" transform="translate(-1, -1)">
        <g id="cornrows_template-for-hairstyles" opacity=".184" transform="translate(1.000000, 0.000000)">
            <mask id="cornrows_hairstylecornrows-mask-2" fill="#fff">
                <use xlink:href="#cornrows_hairstylecornrows-path-1" />
            </mask>
            <g id="cornrows_Mask-Hair" />
        </g>
        <g id="cornrows_Group-37" transform="translate(74.000000, 27.000000)">
            <path id="cornrows_Hair-Color" fill="#E8E1E1" d="M 62.193359 0.40039062 C 59.432359 0.40039062 57.193359 2.6393906 57.193359 5.4003906 L 57.193359 5.5546875 C 52.499359 5.8356875 48.242281 6.4977969 44.363281 7.4667969 C 43.470281 5.4387969 41.312531 4.1740156 39.019531 4.5410156 C 36.292531 4.9740156 34.434188 7.5347187 34.867188 10.261719 L 34.943359 10.738281 C 31.021359 12.537281 27.616734 14.715734 24.677734 17.177734 C 23.271734 16.006734 21.286141 15.636062 19.494141 16.414062 C 16.961141 17.515062 15.798438 20.461141 16.898438 22.994141 L 17.623047 24.658203 C 15.260047 27.822203 13.372234 31.194719 11.865234 34.636719 C 10.169234 34.055719 8.219375 34.519797 6.984375 35.966797 C 5.372375 37.857797 5.5972813 40.6995 7.4882812 42.3125 L 8.8007812 43.429688 C 7.9367813 46.647688 7.3386406 49.817266 6.9316406 52.822266 C 5.3526406 52.842266 3.9255469 53.930016 3.5605469 55.541016 C 3.1345469 57.426016 4.317125 59.299562 6.203125 59.726562 L 6.2753906 59.744141 C 5.9993906 64.748141 6.18575 68.832844 6.34375 71.214844 C 7.13275 83.088844 14.091797 82.952203 14.091797 70.783203 C 14.091797 68.186203 14.19275 64.992172 14.46875 61.576172 C 14.66775 61.610172 14.8665 61.644531 15.0625 61.644531 C 16.6615 61.644531 18.104656 60.541016 18.472656 58.916016 C 18.899656 57.030016 17.717031 55.155516 15.832031 54.728516 L 15.275391 54.603516 C 15.561391 52.739516 15.909031 50.880984 16.332031 49.083984 C 16.619031 49.140984 16.906312 49.175781 17.195312 49.175781 C 18.467312 49.175781 19.732047 48.639703 20.623047 47.595703 C 22.235047 45.704703 22.008187 42.864953 20.117188 41.251953 L 19.283203 40.541016 C 20.209203 38.703016 21.290688 37.123922 22.554688 35.919922 C 23.449687 37.550922 25.143734 38.521484 26.927734 38.521484 C 27.592734 38.521484 28.268969 38.387469 28.917969 38.105469 C 30.776969 37.297469 31.887016 35.493844 31.916016 33.589844 C 34.338016 33.884844 36.616125 34.464125 38.828125 35.203125 L 39.283203 38.060547 C 39.673203 40.522547 41.797891 42.277344 44.212891 42.277344 C 44.473891 42.277344 44.737906 42.256844 45.003906 42.214844 C 46.837906 41.922844 48.259 40.661016 48.875 39.041016 C 51.635 40.048016 54.527656 40.917 57.722656 41.375 C 58.537656 43.031 60.224359 44.179687 62.193359 44.179688 C 64.134359 44.179688 65.798953 43.062266 66.626953 41.447266 C 70.134953 41.011266 73.280578 40.080422 76.267578 38.982422 C 76.870578 40.630422 78.303156 41.919844 80.160156 42.214844 C 80.425156 42.256844 80.690172 42.277344 80.951172 42.277344 C 83.367172 42.277344 85.490859 40.522547 85.880859 38.060547 L 86.34375 35.146484 C 88.55075 34.417484 90.825094 33.848359 93.246094 33.568359 C 93.266094 35.479359 94.379094 37.294469 96.246094 38.105469 C 96.894094 38.387469 97.571328 38.521484 98.236328 38.521484 C 99.978328 38.521484 101.63783 37.598156 102.54883 36.035156 C 103.78683 37.248156 104.85272 38.816578 105.76172 40.642578 L 105.04688 41.251953 C 103.15588 42.864953 102.92902 45.704703 104.54102 47.595703 C 105.43202 48.639703 106.69675 49.175781 107.96875 49.175781 C 108.20175 49.175781 108.43306 49.151234 108.66406 49.115234 C 109.08706 50.915234 109.4347 52.773625 109.7207 54.640625 L 109.33203 54.728516 C 107.44703 55.155516 106.26441 57.030016 106.69141 58.916016 C 107.05941 60.541016 108.50256 61.644531 110.10156 61.644531 C 110.24156 61.644531 110.38048 61.612703 110.52148 61.595703 C 110.79648 65.003703 110.89844 68.191203 110.89844 70.783203 C 110.89844 82.952203 117.85553 83.088844 118.64453 71.214844 C 118.80253 68.838844 118.9898 64.76825 118.7168 59.78125 L 118.96094 59.726562 C 120.84694 59.299563 122.02856 57.426016 121.60156 55.541016 C 121.22356 53.871016 119.70659 52.758312 118.05859 52.820312 C 117.65659 49.853313 117.0677 46.727781 116.2207 43.550781 L 117.67578 42.3125 C 119.56778 40.6995 119.79169 37.857797 118.17969 35.966797 C 116.90869 34.476797 114.8833 34.038219 113.1543 34.699219 C 111.6653 31.290219 109.80156 27.946641 107.47656 24.806641 L 108.26367 22.994141 C 109.36467 20.461141 108.20392 17.515063 105.66992 16.414062 C 103.83992 15.619062 101.80353 16.018047 100.39453 17.248047 C 97.476531 14.792047 94.099984 12.6145 90.208984 10.8125 L 90.296875 10.261719 C 90.730875 7.5347187 88.870578 4.9740156 86.142578 4.5410156 C 83.834578 4.1710156 81.66425 5.4548594 80.78125 7.5058594 C 76.69925 6.4748594 72.186312 5.7922969 67.195312 5.5292969 L 67.195312 5.4003906 C 67.195312 2.6393906 64.955359 0.40039063 62.193359 0.40039062 z M 8.0175781 116.40039 C 5.6055781 142.79639 1.594625 158.45377 1.515625 158.75977 C 0.602625 162.23177 2.6764375 165.78722 6.1484375 166.69922 C 6.7024375 166.84422 7.2586406 166.91406 7.8066406 166.91406 C 10.687641 166.91406 13.320891 164.98245 14.087891 162.06445 C 14.253891 161.43245 16.422688 153.03622 18.554688 138.32422 C 13.557688 131.97922 9.9025781 124.53039 8.0175781 116.40039 z M 116.58203 116.40039 C 114.69703 124.53039 111.04192 131.97922 106.04492 138.32422 C 108.17692 153.03622 110.34572 161.43245 110.51172 162.06445 C 111.27872 164.98245 113.91197 166.91406 116.79297 166.91406 C 117.34097 166.91406 117.89717 166.84422 118.45117 166.69922 C 121.92317 165.78722 123.99698 162.23177 123.08398 158.75977 C 123.00498 158.45377 118.99403 142.79639 116.58203 116.40039 z M 20.570312 140.73633 C 18.762313 152.15433 17.123266 158.56577 17.072266 158.75977 C 16.160266 162.23177 18.234078 165.78527 21.705078 166.69727 C 22.259078 166.84227 22.816281 166.91406 23.363281 166.91406 C 26.245281 166.91406 28.877531 164.98245 29.644531 162.06445 C 29.756531 161.63945 30.776078 157.68669 32.080078 150.67969 C 27.803078 147.89869 23.933312 144.54733 20.570312 140.73633 z M 104.03125 140.73633 C 100.66825 144.54733 96.796531 147.89869 92.519531 150.67969 C 93.823531 157.68669 94.843078 161.63945 94.955078 162.06445 C 95.722078 164.98245 98.356281 166.91406 101.23828 166.91406 C 101.78528 166.91406 102.34053 166.84227 102.89453 166.69727 C 106.36553 165.78527 108.4413 162.23177 107.5293 158.75977 C 107.4783 158.56577 105.83925 152.15433 104.03125 140.73633 z M 34.130859 151.94922 C 33.262859 156.28122 32.658906 158.64372 32.628906 158.76172 C 31.716906 162.23272 33.791672 165.78527 37.263672 166.69727 C 37.698672 166.81127 38.133406 166.86762 38.566406 166.89062 L 38.566406 154.3125 C 37.048406 153.5915 35.569859 152.79922 34.130859 151.94922 z M 90.46875 151.94922 C 89.02975 152.79922 87.551203 153.5915 86.033203 154.3125 L 86.033203 166.89062 C 86.466203 166.86762 86.900937 166.81127 87.335938 166.69727 C 90.807938 165.78527 92.884656 162.23272 91.972656 158.76172 C 91.942656 158.64372 91.33675 156.28122 90.46875 151.94922 z " transform="translate(-3.3,-0.4)" />
            <path d="M58.8937,0.0005 C56.1327,0.0005 53.8937,2.2395 53.8937,5.0005 L53.8937,38.7805 C53.8937,41.5425 56.1327,43.7805 58.8937,43.7805 C61.6547,43.7805 63.8937,41.5425 63.8937,38.7805 L63.8937,5.0005 C63.8937,2.2395 61.6547,0.0005 58.8937,0.0005" id="cornrows_Fill-19" fill-opacity=".24" fill="#000" />
            <path d="M41.443,8.2939 C41.01,5.5659 38.45,3.7039 35.721,4.1399 C32.993,4.5729 31.134,7.1349 31.567,9.8619 L35.982,37.6609 C36.373,40.1229 38.498,41.8769 40.914,41.8769 C41.174,41.8769 41.439,41.8569 41.704,41.8149 C44.432,41.3809 46.291,38.8189 45.858,36.0919 L41.443,8.2939 Z" id="cornrows_Fill-21" fill-opacity=".24" fill="#000" />
            <path d="M22.7716,18.6079 C21.6706,16.0749 18.7256,14.9149 16.1926,16.0149 C13.6606,17.1149 12.4996,20.0609 13.5996,22.5929 L19.0396,35.1119 C19.8586,36.9959 21.6976,38.1209 23.6276,38.1209 C24.2926,38.1209 24.9696,37.9869 25.6186,37.7049 C28.1506,36.6049 29.3126,33.6589 28.2116,31.1269 L22.7716,18.6079 Z" id="cornrows_Fill-23" fill-opacity=".24" fill="#000" />
            <path d="M10.0275,35.0625 C8.1375,33.4495 5.2975,33.6765 3.6835,35.5675 C2.0715,37.4585 2.2975,40.2985 4.1885,41.9115 L10.9785,47.7005 C11.8255,48.4225 12.8625,48.7755 13.8955,48.7755 C15.1675,48.7755 16.4315,48.2395 17.3215,47.1955 C18.9345,45.3045 18.7085,42.4645 16.8175,40.8515 L10.0275,35.0625 Z" id="cornrows_Fill-25" fill-opacity=".24" fill="#000" />
            <path d="M12.5314,54.3291 L4.4484,52.4991 C2.5684,52.0741 0.6884,53.2541 0.2614,55.1411 C-0.1646,57.0261 1.0174,58.9001 2.9034,59.3271 L10.9864,61.1561 C11.2464,61.2151 11.5064,61.2441 11.7624,61.2441 C13.3614,61.2441 14.8044,60.1411 15.1724,58.5151 C15.5994,56.6301 14.4164,54.7561 12.5314,54.3291" id="cornrows_Fill-27" fill-opacity=".24" fill="#000" />
            <path d="M82.8434,4.1401 C80.1144,3.7031 77.5534,5.5661 77.1204,8.2941 L72.7054,36.0921 C72.2734,38.8191 74.1324,41.3811 76.8604,41.8141 C77.1254,41.8571 77.3894,41.8771 77.6504,41.8771 C80.0664,41.8771 82.1914,40.1221 82.5814,37.6611 L86.9964,9.8621 C87.4304,7.1351 85.5714,4.5731 82.8434,4.1401" id="cornrows_Fill-29" fill-opacity=".24" fill="#000" />
            <path d="M102.3708,16.0146 C99.8388,14.9146 96.8928,16.0756 95.7928,18.6076 L90.3518,31.1266 C89.2518,33.6596 90.4128,36.6046 92.9458,37.7046 C93.5948,37.9866 94.2708,38.1206 94.9358,38.1206 C96.8668,38.1206 98.7058,36.9956 99.5238,35.1116 L104.9648,22.5936 C106.0648,20.0606 104.9038,17.1156 102.3708,16.0146" id="cornrows_Fill-31" fill-opacity=".24" fill="#000" />
            <path d="M107.5856,47.7002 L114.3756,41.9112 C116.2676,40.2982 116.4926,37.4582 114.8806,35.5672 C113.2666,33.6762 110.4266,33.4502 108.5366,35.0622 L101.7466,40.8512 C99.8556,42.4642 99.6296,45.3042 101.2416,47.1952 C102.1326,48.2392 103.3966,48.7762 104.6686,48.7762 C105.7006,48.7762 106.7386,48.4232 107.5856,47.7002" id="cornrows_Fill-33" fill-opacity=".24" fill="#000" />
            <path d="M118.3024,55.1406 C117.8754,53.2546 115.9954,52.0736 114.1154,52.4996 L106.0324,54.3286 C104.1474,54.7556 102.9644,56.6296 103.3914,58.5156 C103.7594,60.1406 105.2024,61.2436 106.8014,61.2436 C107.0584,61.2436 107.3184,61.2156 107.5774,61.1566 L115.6604,59.3266 C117.5464,58.8996 118.7294,57.0256 118.3024,55.1406" id="cornrows_Fill-35" fill-opacity=".24" fill="#000" />
        </g>
        <path d="M75.8766,166.3001 C79.1806,169.8981 83.0736,173.1471 87.4656,175.9461 C88.0336,172.8061 88.6456,169.1321 89.2556,164.9231 C84.2576,158.5781 80.6026,151.1301 78.7176,143.0001 C77.8856,152.1091 76.8626,159.9381 75.8766,166.3001" id="cornrows_Fill-10" fill-opacity=".24" fill="#000" />
        <path d="M91.2696,167.3372 C90.6536,171.2322 90.0586,174.5272 89.5376,177.2092 C93.2866,179.4062 97.3606,181.2842 101.6866,182.8102 C102.0126,181.2572 102.3826,179.4122 102.7796,177.2802 C98.5026,174.4992 94.6326,171.1482 91.2696,167.3372" id="cornrows_Fill-12" fill-opacity=".24" fill="#000" />
        <path d="M103.7696,183.5169 C105.5636,184.0899 107.3946,184.6089 109.2666,185.0569 L109.2666,180.9129 C107.7486,180.1919 106.2696,179.3999 104.8316,178.5499 C104.3986,180.7049 104.0326,182.3709 103.7696,183.5169" id="cornrows_Fill-14" fill-opacity=".24" fill="#000" />
        <path d="M176.7444,166.3001 C180.0484,169.8981 183.9414,173.1471 188.3334,175.9461 C188.9014,172.8061 189.5134,169.1321 190.1234,164.9231 C185.1254,158.5781 181.4704,151.1301 179.5854,143.0001 C178.7534,152.1091 177.7304,159.9381 176.7444,166.3001" id="cornrows_Fill-10" fill-opacity=".24" fill="#000" transform="translate(183.433900, 159.473100) scale(-1, 1) translate(-183.433900, -159.473100)" />
        <path d="M164.9524,167.3372 C164.3364,171.2322 163.7414,174.5272 163.2204,177.2092 C166.9694,179.4062 171.0434,181.2842 175.3694,182.8102 C175.6954,181.2572 176.0654,179.4122 176.4624,177.2802 C172.1854,174.4992 168.3154,171.1482 164.9524,167.3372" id="cornrows_Fill-12" fill-opacity=".24" fill="#000" transform="translate(169.841400, 175.073700) scale(-1, 1) translate(-169.841400, -175.073700)" />
        <path d="M156.7334,183.5169 C158.5274,184.0899 160.3584,184.6089 162.2304,185.0569 L162.2304,180.9129 C160.7124,180.1919 159.2334,179.3999 157.7954,178.5499 C157.3624,180.7049 156.9964,182.3709 156.7334,183.5169" id="cornrows_Fill-14" fill-opacity=".24" fill="#000" transform="translate(159.481900, 181.803400) scale(-1, 1) translate(-159.481900, -181.803400)" />
    </g>
    <g id="cornrows_Facial-Hair" transform="translate(49.000000, 72.000000)" />
    <g id="cornrows_Accessory" transform="translate(62.000000, 85.000000)"><g id="sunglasses_2_Accesories/Sunglasses" stroke="none" stroke-width="1" fill="none" fill-rule="evenodd"><path d="M88.420644,10.0315667 L111.711555,10.4879 L112.418885,10.5173904 C116.716907,10.7306495 119.842183,11.5608236 122.25907,15.0052776 L123.270648,15.0612226 C125.98538,15.2235685 128.815928,15.5199023 131.241565,16.6393667 C134.626236,18.2013667 135.149293,21.7387 130.882414,22.2260333 C128.960673,22.4457 127.036739,22.0827 125.144457,21.7450333 L124.805075,21.6912775 C125.908933,31.1522104 118.598088,42.5597165 110.577413,46.0372333 C99.6003746,50.7965667 87.3375086,45.5292333 81.5337832,36.0035667 C78.9077874,31.6933472 77.3913647,25.4882292 77.0679314,20.1428905 C76.2485064,19.7454964 75.4674464,19.2201465 74.7189648,18.8553 C72.7120473,17.8773 69.3809643,17.7566333 67.2126933,18.8553 C66.4674989,19.2329059 65.6844252,19.7618811 64.860867,20.1592462 C64.5358863,25.500774 63.019749,31.6993553 60.3955746,36.0058333 C54.5921826,45.5318333 42.3293166,50.7991667 31.352278,46.0395 C23.3308758,42.5619527 16.0191895,31.1527353 17.1248105,21.6913039 L16.7871634,21.7450333 L15.9116787,21.9004644 C14.302955,22.1806014 12.6752968,22.4119051 11.0492092,22.2260333 C6.7823325,21.7387 7.30538922,18.2013667 10.6900582,16.6393667 C13.4186633,15.3800781 16.6596437,15.1623841 19.6724863,15.0063698 C22.088769,11.5628588 25.2136434,10.7331687 29.5106444,10.5199823 L30.2178029,10.4905 L54.367281,10.0138705 C59.1910659,9.92297948 63.3004405,10.2797475 64.5415862,14.6398662 C66.6301126,13.8258114 69.0470363,13.3846333 70.8914864,13.3846333 C72.750063,13.3846333 75.2403142,13.8326884 77.3827667,14.6590316 C78.6884926,10.0210681 83.2241204,9.89209727 88.420644,10.0315667 Z M54.6792964,17.2841303 L53.1743719,17.2627916 C48.2545196,17.2171575 28.0180517,17.1530306 25.6158944,19.1491667 C23.2262624,21.1345 24.5340925,27.0731667 25.1565036,29.5561667 C26.2203032,33.7998333 28.6396056,38.0601667 32.1723805,40.7525 C35.160879,43.03 38.9870799,43.1875781 42.598636,42.8394006 L42.8137377,42.8154434 C42.5755438,42.8270989 44.279595,42.5883296 44.6288896,42.5222918 L44.6612747,42.5158333 C45.7297416,42.2861667 46.7985419,41.9835 47.8106684,41.5641667 C49.7165732,40.7748333 51.5084639,39.6188333 52.9776475,38.1685 C55.7666627,35.4145 56.9648125,31.7228333 57.6852359,27.9548333 C58.1572949,25.4871667 58.5553446,22.6705 58.1459601,20.1651667 C57.7671628,17.8464167 56.7581109,17.3549128 54.6792964,17.2841303 L54.6792964,17.2841303 Z M90.2432286,17.2498018 L87.6805515,17.2725667 C85.3089217,17.2952333 84.1877816,17.6892333 83.7837311,20.1625667 C83.3743466,22.6679 83.7723963,25.4845667 84.244122,27.9522333 C84.9648787,31.7202333 86.1630285,35.4119 88.9520437,38.1659 C90.4212273,39.6162333 92.213118,40.7722333 94.1190228,41.5619 C94.9624616,41.9110667 95.8452571,42.1794463 96.7344192,42.392116 L97.2684165,42.5132333 C97.5131654,42.5657289 99.2030063,42.8028032 99.1366495,42.8130415 L98.9855976,42.8019336 C102.697275,43.192883 106.673335,43.1001622 109.757311,40.7499 C113.290086,38.0575667 115.709388,33.7975667 116.773188,29.5539 L116.961141,28.7771479 C117.606864,25.9999642 118.480835,20.9475202 116.313797,19.1465667 C114.107164,17.3129068 96.8513244,17.2177679 90.2432286,17.2498018 L90.2432286,17.2498018 Z" id="sunglasses_2_Shape" fill-opacity=".16" fill="#000" /><g id="sunglasses_2_Sunglasses" transform="translate(8.000000, 8.000000)"><path d="M47.0104611,6.27728008 C49.5212682,6.30134922 50.7082016,6.72633117 51.1359635,9.39189846 C51.5693724,12.0919529 51.1479634,15.1275382 50.648202,17.7869984 C49.8855011,21.8478573 48.6170388,25.8264499 45.6643523,28.794498 C44.1089507,30.3575551 42.2119044,31.6034024 40.1941529,32.4540848 C39.1226305,32.9060098 37.9911085,33.2322006 36.8599395,33.4797175 C36.5292357,33.5519249 33.7060778,33.9478084 35.4375958,33.7466335 C31.3967988,34.2161613 27.0129452,34.1974808 23.6381438,31.5793333 C19.8980507,28.6777448 17.3367734,24.0862872 16.2105455,19.5127916 C15.5516086,16.8368063 14.1670294,10.4365709 16.6968952,8.29693227 C19.5948762,5.84547255 47.0104611,6.27728008 47.0104611,6.27728008 L47.0104611,6.27728008 Z" id="sunglasses_2_shades" fill-opacity=".7" fill="#150662" /><path d="M78.9192315,6.27468008 C76.4084239,6.29910846 75.2214902,6.72373117 74.7937283,9.38929846 C74.3603192,12.0893529 74.7817283,15.1249382 75.2811369,17.7843984 C76.0441909,21.8452573 77.3126534,25.8238499 80.2653406,28.791898 C81.8207425,30.3549551 83.7177893,31.6008024 85.7355412,32.4518441 C86.8070638,32.9034098 87.938586,33.2296006 89.0697553,33.4771175 C89.4004591,33.5493249 92.2232647,33.9455676 90.4920992,33.7440335 C94.5328971,34.2135613 98.9167517,34.1948808 102.291554,31.5767333 C106.031648,28.6751448 108.592926,24.0840464 109.719154,19.5105508 C110.378091,16.8342063 111.762317,10.4343302 109.232804,8.29433227 C106.334822,5.84287255 78.9192315,6.27468008 78.9192315,6.27468008 L78.9192315,6.27468008 Z" id="sunglasses_2_shades" fill-opacity=".7" fill="#150662" /><g id="sunglasses_2_Glasses" fill="#252C2F"><path d="M46.2491397,7.27516667 C48.6207695,7.2975 49.7419096,7.69183333 50.1459601,10.1651667 C50.5553446,12.6705 50.1572949,15.4871667 49.6852359,17.9548333 C48.9648125,21.7228333 47.7666627,25.4145 44.9776475,28.1685 C43.5084639,29.6188333 41.7165732,30.7748333 39.8106684,31.5641667 C38.7985419,31.9835 37.7297416,32.2861667 36.6612747,32.5158333 C36.3489024,32.5828333 33.6822357,32.9501667 35.3177735,32.7635 C31.5009631,33.1991667 27.3601122,33.1818333 24.1723805,30.7525 C20.6396056,28.0601667 18.2203032,23.7998333 17.1565036,19.5561667 C16.5340925,17.0731667 15.2262624,11.1345 17.6158944,9.14916667 C20.3532365,6.8745 46.2491397,7.27516667 46.2491397,7.27516667 L46.2491397,7.27516667 Z M22.2178029,0.4905 C16.7774562,0.677833333 13.1466691,1.63383333 10.4633337,7.06916667 C5.54571911,17.0301667 13.9627711,31.9688333 23.352278,36.0395 C34.3293166,40.7991667 46.5921826,35.5318333 52.3955746,26.0058333 C55.4689587,20.9621667 57.0224862,13.3231667 56.9224737,7.50383333 C56.7951245,0.0765 51.6071427,-0.1295 45.5090472,0.0338333333 L22.2178029,0.4905 Z" id="sunglasses_2_Frame" /><path d="M79.6805515,7.27256667 C77.3089217,7.29523333 76.1877816,7.68923333 75.7837311,10.1625667 C75.3743466,12.6679 75.7723963,15.4845667 76.244122,17.9522333 C76.9648787,21.7202333 78.1630285,25.4119 80.9520437,28.1659 C82.4212273,29.6162333 84.213118,30.7722333 86.1190228,31.5619 C87.1311493,31.9809 88.1999496,32.2835667 89.2684165,32.5132333 C89.5807888,32.5802333 92.2471221,32.9479 90.6119177,32.7609 C94.4287281,33.1965667 98.569579,33.1792333 101.757311,30.7499 C105.290086,28.0575667 107.709388,23.7975667 108.773188,19.5539 C109.395599,17.0705667 110.703095,11.1322333 108.313797,9.14656667 C105.576455,6.8719 79.6805515,7.27256667 79.6805515,7.27256667 L79.6805515,7.27256667 Z M103.711555,0.4879 C109.152235,0.675233333 112.783022,1.63156667 115.466357,7.06656667 C120.383639,17.0275667 111.96692,31.9662333 102.577413,36.0372333 C91.6003746,40.7965667 79.3375086,35.5292333 73.5337832,26.0035667 C70.4607325,20.9595667 68.907205,13.3205667 69.0068841,7.50123333 C69.1345667,0.0739 74.3225485,-0.1321 80.420644,0.0315666667 L103.711555,0.4879 Z" id="sunglasses_2_Frame" /><path d="M13.1969483,4.9267 C9.78501392,5.11836667 5.88606327,5.16436667 2.69005822,6.63936667 C-0.69461078,8.20136667 -1.2176675,11.7387 3.04920921,12.2260333 C4.97094906,12.4457 6.89488267,12.0827 8.78716336,11.7450333 C10.336903,11.4683667 12.4419791,11.5580333 13.9064752,10.9657 C16.6355213,9.86236667 16.4603333,4.74003333 13.1969483,4.9267" id="sunglasses_2_Frame" /><path d="M112.73467,4.9267 C116.146606,5.11836667 120.045559,5.16436667 123.241565,6.63936667 C126.626236,8.20136667 127.149293,11.7387 122.882414,12.2260333 C120.960673,12.4457 119.036739,12.0827 117.144457,11.7450333 C115.594717,11.4683667 113.489639,11.5580333 112.025143,10.9657 C109.295782,9.86236667 109.471283,4.74003333 112.73467,4.9267" id="sunglasses_2_Frame" /><path d="M73.1094302,7.01263333 C71.1631869,4.71263333 66.0912197,3.38463333 62.8914864,3.38463333 C59.6914198,3.38463333 54.7681378,4.71263333 52.8222279,7.01263333 C51.8407719,8.1723 51.8074344,9.72396667 53.5083137,10.4509667 C55.6262451,11.3566333 57.5174814,9.7143 59.2126933,8.8553 C61.3809643,7.75663333 64.7120473,7.8773 66.7189648,8.8553 C68.4271783,9.68796667 70.3050797,11.3566333 72.4233444,10.4509667 C74.1242237,9.72396667 74.0908862,8.1723 73.1094302,7.01263333" id="sunglasses_2_Frame" /></g></g></g></g>
</g>
    </g>
</svg>