<svg xmlns="http://www.w3.org/2000/svg" xmlns:dc="http://purl.org/dc/elements/1.1/" xmlns:ns3="http://creativecommons.org/ns#" xmlns:ns5="http://design.blush" xmlns:rdf="http://www.w3.org/1999/02/22-rdf-syntax-ns#" xmlns:xlink="http://www.w3.org/1999/xlink" width="264px" height="280px" viewBox="0 0 264 280" version="1.1">
    <title id="transparent_Title">Avataaar/Default</title>
    <desc>Created with python_avatars</desc>
    <defs>
        <path d="M100,0 C130.927946,-5.68137151e-15 156,25.072054 156,56 L156.000809,62.1660527 C161.675838,63.1185422 166,68.05429 166,74 L166,88 C166,94.0524166 161.519235,99.0582945 155.693975,99.8813638 C153.627928,119.686472 141.237929,136.421678 124.001014,144.610469 L124,163 L128,163 C167.764502,163 200,195.235498 200,235 L200,244 L0,244 L0,235 C-4.86974701e-15,195.235498 32.235498,163 72,163 L76,163 L75.9999836,144.610943 C58.7625487,136.422324 46.3721119,119.686854 44.3051107,99.8809698 C38.480765,99.0582945 34,94.0524166 34,88 L34,74 C34,68.053942 38.3246685,63.1179645 44.0001873,62.1658855 L44,56 C44,25.072054 69.072054,5.68137151e-15 100,0 Z" id="transparent_path-1" />
        <path d="M83,36.3476251 C83,52.6289957 105.161905,65.8276544 132.5,65.8276544 C159.838095,65.8276544 182,52.6289957 182,36.3476251 C182,34.9853134 181.844841,33.6445843 181.544472,32.3313638 C210.784239,41.4879251 232,68.792221 232,101.051724 L232,110 L32,110 L32,101.051724 C32,68.3970853 53.7386736,40.8197864 83.5337207,32.0021267 C83.1821692,33.4207025 83,34.871494 83,36.3476251 Z" id="transparent_path-3" />
        <rect id="transparent_path-5" x="0" y="0" width="264" height="280" />
        <path d="M74,0 C114.869071,0 148,33.1309285 148,74 L148,84.1482318 L148,197.608051 C135.525121,187.236892 119.490913,181 102,181 L102,181 L98,181 L98,162.610951 C115.530782,154.282984 128.048193,137.114792 129.791419,116.867187 C135.569129,116.002364 140,111.018625 140,105 L140,105 L140,92 C140,87.3536213 137.359271,83.3240177 133.496777,81.3301515 C132.723933,81.0500337 131.951808,80.748163 131.180891,80.4262497 C130.794819,80.3202581 130.400778,80.2331546 130,80.1659169 L130,80.1659169 L130.000458,79.9172528 C117.224481,74.2339715 104.877985,63.0706967 96.1104311,47.8848473 C93.1752556,42.8009742 90.8310687,37.5951441 89.0661426,32.3970356 C80.4313947,42.9409152 67.7445474,53.6023901 52.3415164,62.4953343 C42.777598,68.0170651 33.1467898,72.2910056 24,75.2659587 L24.0003852,137.246608 C29.6019576,148.318362 38.7728825,157.277529 50,162.610951 L50,162.610951 L50,181 L46,181 C38.3273639,181 30.9350359,182.200142 24.0004995,184.422941 L24,230 C24,244.105888 13.5691766,255.775526 0,257.716445 L0,74 C0,33.1309285 33.1309285,0 74,0 Z" id="transparent_path-7" />
    </defs>
    <g id="transparent_Avataaar/Default" stroke="none" stroke-width="1" fill="none" fill-rule="evenodd">
        <g id="transparent_Body" transform="translate(32.000000, 36.000000)">
            <mask id="transparent_mask-2" fill="white">
                <use xlink:href="#transparent_path-1" />
            </mask>
            <use fill="#D0C6AC" xlink:href="#transparent_path-1" />
            <g id="transparent_Skin-Color" mask="url(#transparent_mask-2)" fill="#FFDBB4">
                <g transform="translate(-32.000000, 0.000000)" id="transparent_Color">
                    <rect x="0" y="0" width="264" height="244" />
                </g>
            </g>
            <path d="M44,94 C44,124.927946 69.072054,150 100,150 C130.927946,150 156,124.927946 156,94 L156,94 L156,102 C156,132.927946 130.927946,158 100,158 C69.072054,158 44,132.927946 44,102 Z" id="transparent_Neck-Shadow" fill-opacity="0.100000001" fill="#000000" mask="url(#transparent_mask-2)" />
        </g>
        <g id="transparent_Clothing" transform="translate(0.000000, 170.000000)">
            
        <defs>
        <path d="M99,32.5 C99,44.3741221 113.998461,54 132.5,54 C151.001539,54 166,44.3741221 166,32.5 C166,31.4019929 165.871751,30.3232102 165.624342,29.2694852 C202.75978,32.1370674 232,63.1796858 232,101.051724 L232,110 L32,110 L32,101.051724 C32,62.8342194 61.7761079,31.571298 99.3946469,29.196636 C99.1341902,30.2738104 99,31.3768477 99,32.5 Z" id="graphic_shirt_path-1" />
    </defs>
    <g id="graphic_shirt_Clothing/Graphic-Shirt" stroke="none" stroke-width="1" fill="none" fill-rule="evenodd">
        <mask id="graphic_shirt_mask-2" fill="white">
            <use xlink:href="#graphic_shirt_path-1" />
        </mask>
        <use id="graphic_shirt_Clothes" fill="#E6E6E6" xlink:href="#graphic_shirt_path-1" />
        <g id="graphic_shirt_Fabric-Color" mask="url(#graphic_shirt_mask-2)" fill="#262E33">
            <rect id="graphic_shirt_ðŸ–Color" x="0" y="0" width="264" height="110" />
        </g>
        <g id="graphic_shirt_Graphic" fill="#FFFFFF" transform="translate(77.000000, 58.000000)">
        <g id="deer_Clothing/Graphic/Deer" stroke="none" stroke-width="1" fill="none" fill-rule="evenodd">
        <path d="M72.45112,3.27317229 C72.1324825,9.78825116 67.1525061,15.7132405 60.9627599,17.341806 C62.4810453,18.1005509 62.2814414,18.2716565 63.8114683,17.3650829 C64.6961227,16.840332 65.656084,16.4352324 66.6375037,16.1342663 C67.9238458,15.7397843 69.2985331,15.5141363 70.6438495,15.3736088 L71.3330677,15.307354 C72.6731522,15.1709294 76.5059425,14.5522065 76.9598206,16.2351328 C77.3545748,17.6603319 74.7317873,18.9054413 73.8540158,19.6535687 C72.3474717,20.9370645 70.7886986,22.2879408 69.0287021,23.2010483 C68.2808959,23.5889965 67.4755973,23.9042554 66.6674645,24.1357992 C65.420446,24.4927115 65.5625576,24.2427912 65.0864232,25.3008688 C64.2491394,27.1617948 64.0321258,29.6352706 63.2754123,31.6133978 C61.5708838,36.0670427 57.5083567,46.4138243 51.0084754,41.8719723 C48.9403681,40.4271716 47.8107637,37.6249608 46.6471497,35.4361165 C45.312678,32.9242543 44.0348889,29.927661 43.2668389,27.1858884 C42.8923285,25.8501217 43.1299908,25.3952014 42.1376394,24.7708091 C41.514535,24.3787772 40.4582132,24.2775023 39.7537287,23.9908291 C38.2544724,23.3807295 36.9414591,22.5546042 35.6656945,21.5602318 C34.4279881,20.5948534 29.5561137,16.6096049 33.5340216,15.8696448 C35.3592032,15.5298839 37.7512114,15.6560692 39.6006855,15.7495851 C41.6283052,15.8520851 43.6741443,16.3196647 45.4774626,17.2854514 C47.3184343,18.2720648 46.7783296,17.9862083 48.6865108,17.4345052 C45.3653119,16.3090472 42.0384447,14.4370952 39.8031236,11.6536693 C38.5961879,10.1508806 35.8037572,4.00047299 37.9022302,2.58875006 C40.4225841,0.893212425 40.6331197,7.93508406 41.3416529,9.15569148 C42.9344356,11.8995059 45.8495437,12.9351233 48.3844732,14.454655 C46.6435058,12.7868862 45.3446632,10.9496454 44.7106272,8.58683697 C44.4357163,7.56224546 43.6846711,5.0981621 44.1919809,4.10133952 C44.7207491,3.06123008 45.9641237,2.99507471 46.6499838,3.88041325 C47.2678248,4.67754462 47.1123524,6.5115185 47.3241026,7.47240483 C47.6739156,9.06095045 48.2451958,10.282783 49.3059712,11.5127828 C50.8113007,13.2585495 52.7227209,14.6866071 54.9750468,15.2395353 C60.1015883,16.4977125 61.8947847,11.1317769 62.5826693,6.99461605 C62.7510977,5.98186717 62.5033135,4.30184746 63.6329179,3.81589134 C65.0001846,3.22743524 65.5293577,4.56156854 65.5690356,5.59718594 C65.6564888,7.91058207 64.5127138,11.4535697 63.4029483,13.4419061 C66.1929497,11.7100238 68.4064075,8.96375923 69.3015886,5.75399867 C69.6327773,4.56646894 69.3639395,1.9182123 70.4757294,1.25134983 C72.0154733,0.327216479 72.5049686,2.16772422 72.45112,3.27317229 Z M53.0344702,33.4664333 C52.5980925,35.7582944 56.4400387,35.1974948 56.9297708,33.6367531 C57.5886752,31.4414328 53.4036129,31.5246305 53.0344702,33.4664333 Z M52.6986912,23.1385385 C49.8083182,22.1255453 48.8835101,27 51.7024587,27 C54.0260737,27 54.9736078,23.9354052 52.6986912,23.1385385 Z M56.0375022,24.7163015 C55.622102,27.6609177 58.7932497,27.8924294 58.8595294,24.6214062 C59.7193936,22.4825816 56.3639386,22.4048657 56.0375022,24.7163015 Z" id="deer_oh,-deer!" fill="#FFFFFF" />
    </g>
</g>
    </g>
</g>
        <g id="transparent_Face" transform="translate(76.000000, 82.000000)" fill="#000000">
            <g id="transparent_Mouth" transform="translate(2.000000, 52.000000)">    
                
            <g id="big_smile_Mouth/Big Smile" stroke="none" stroke-width="1" fill="none" fill-rule="evenodd"><path d="M29,15.6086957 C30.410031,25.2313711 38.062182,35 54,35 C69.937818,35 77.6461342,25.183301 79,14.7391304 C79.1012093,14.3397326 78.775269,13 76.826087,13 C56.838426,13 41.7395748,13 31.173913,13 C29.3833142,13 28.870211,14.2404669 29,15.6086957 Z" id="big_smile_Mouth" fill-opacity=".7" fill="#000" /><path d="M70,13 C70,15.7614237 67.7614237,18 65,18 L44,18 C41.2385763,18 39,15.7614237 39,13 L70,13 Z" id="big_smile_Path" fill="#FFF" /></g></g>
            <g id="transparent_Nose" transform="translate(28.000000, 40.000000)" fill-opacity="0.16">
                
            <g id="small_Nose/Small" stroke="none" stroke-width="1" fill="none" fill-rule="evenodd"><path d="M20,7 C20,12.5228475 24.0470996,15 28,15 C31.9529004,15 36,12.5228475 36,7 C33.8327451,7.7317728 31.1406373,8.0976592 27.9236765,8.0976592 C24.7406373,8.0976592 22.0994118,7.7317728 20,7 Z" id="small_Nose" fill-opacity=".16" fill="#000" /></g></g>
            <g id="transparent_Eyes" transform="translate(0.000000, 8.000000)">
                
            <g id="closed_Eyes/Closed-ðŸ˜Œ" stroke="none" stroke-width="1" fill="none" fill-rule="evenodd" fill-opacity="0.599999964">
        <path d="M16.1601674,32.4473116 C18.006676,28.648508 22.1644225,26 26.9975803,26 C31.8136766,26 35.9591217,28.629842 37.8153518,32.4071242 C38.3667605,33.5291977 37.5821037,34.4474817 36.790607,33.7670228 C34.3395063,31.6597833 30.8587163,30.3437884 26.9975803,30.3437884 C23.2572061,30.3437884 19.8737584,31.5787519 17.4375392,33.5716412 C16.5467928,34.3002944 15.6201012,33.5583844 16.1601674,32.4473116 Z" id="closed_Closed-Eye" fill="#000000" transform="translate(27.000000, 30.000000) scale(1, -1) translate(-27.000000, -30.000000) " />
        <path d="M74.1601674,32.4473116 C76.006676,28.648508 80.1644225,26 84.9975803,26 C89.8136766,26 93.9591217,28.629842 95.8153518,32.4071242 C96.3667605,33.5291977 95.5821037,34.4474817 94.790607,33.7670228 C92.3395063,31.6597833 88.8587163,30.3437884 84.9975803,30.3437884 C81.2572061,30.3437884 77.8737584,31.5787519 75.4375392,33.5716412 C74.5467928,34.3002944 73.6201012,33.5583844 74.1601674,32.4473116 Z" id="closed_Closed-Eye" fill="#000000" transform="translate(85.000000, 30.000000) scale(1, -1) translate(-85.000000, -30.000000) " />
    </g>
</g>
            <g id="transparent_Eyebrow" fill-opacity="0.599999964">
                
            <g id="up_down_natural_Eyebrow/Natural/Up-Down-Natural" stroke="none" stroke-width="1" fill="none" fill-rule="evenodd" fill-opacity="0.599999964">
        <path d="M22.7663531,1.57844898 L23.6772984,1.17582144 C28.9190996,-0.905265751 36.8645466,-0.0328729562 41.7227321,2.29911638 C42.2897848,2.57148957 41.9021563,3.4519421 41.3211012,3.40711006 C26.4021788,2.25602197 16.3582869,11.5525942 12.9460869,17.8470939 C12.8449215,18.0337142 12.5391523,18.05489 12.4635344,17.8808353 C10.156283,12.5620676 16.9134476,3.89614725 22.7663531,1.57844898 Z" id="up_down_natural_Eye-Browse-Reddit" fill="#000000" />
        <path d="M86.535177,12.0246305 C92.3421916,12.2928751 101.730304,16.5124899 101.488432,22.3684172 C101.480419,22.5600881 101.1989,22.6442368 101.06135,22.496811 C98.306449,19.5374968 78.7459953,16.5471364 71.8564209,18.1317995 C71.2258949,18.2770375 70.7468448,17.6550104 71.1462176,17.2056651 C74.5683263,13.3574126 81.3327077,11.7792465 86.535177,12.0246305 Z" id="up_down_natural_Eyebrow" fill="#000000" transform="translate(86.246508, 17.285912) rotate(5.000000) translate(-86.246508, -17.285912) " />
    </g>
</g>
        </g>
        <g id="transparent_Top">
            
        <metadata id="gladiator_helmet_metadata23">
        <rdf:RDF>
            <ns3:Work rdf:about="">
                <dc:format>image/svg+xml</dc:format>
                <dc:type rdf:resource="http://purl.org/dc/dcmitype/StillImage" />
                <dc:title />
            </ns3:Work>
        </rdf:RDF>
    </metadata>
    <g id="gladiator_helmet_Facial-Hair" transform="translate(49.000000, 72.000000)"><defs>
        <path d="M64.7214121,63.4643353 C71.8381194,62.1698595 81.796173,63.6461901 84.1074639,67.092174 L83.998,66.939 L84.010445,66.9215199 C86.5309935,63.5977488 96.2765075,62.1914341 103.274279,63.4643353 C112.927938,65.2207224 117.019147,75.7669804 115.780485,77.6791014 C114.655476,79.4153191 111.53642,77.7739966 109.119711,77.6298353 C104.118941,77.3322546 94.948229,81.5102869 86.0463327,76.6891498 C85.2347477,76.2495714 84.5386341,75.6083797 83.9975585,74.8390687 C83.4573866,75.6083797 82.7612729,76.2495714 81.949688,76.6891498 C73.0477917,81.5102869 63.8767499,77.3322546 58.8763101,77.6298353 C56.459601,77.7739966 53.3405442,79.4153191 52.2155358,77.6791014 C50.9768736,75.7669804 55.0680827,65.2207224 64.7214121,63.4643353 Z" id="moustache_magnum_path-1" />
    </defs>
    <g id="moustache_magnum_Facial-Hair/Moustache-Magnum" stroke="none" stroke-width="1" fill="none" fill-rule="evenodd">
        <mask id="moustache_magnum_mask-2" fill="white">
            <use xlink:href="#moustache_magnum_path-1" />
        </mask>
        <use id="moustache_magnum_Hey..." fill="#28354B" xlink:href="#moustache_magnum_path-1" />
        <g id="moustache_magnum_Facial-Hair-Color" mask="url(#moustache_magnum_mask-2)" fill="#E8E1E1">
            <rect id="moustache_magnum_Color" x="0" y="0" width="168" height="152" />
        </g>
    </g>
</g>
    <g id="gladiator_helmet_Accessory" transform="translate(62.000000, 85.000000)"><defs>
        <filter x="-3.0%" y="-8.0%" width="106.1%" height="116.0%" filterUnits="objectBoundingBox" id="kurt_filter-1">
            <feOffset dx="0" dy="2" in="SourceAlpha" result="shadowOffsetOuter1" />
            <feColorMatrix values="0 0 0 0 0   0 0 0 0 0   0 0 0 0 0  0 0 0 0.16 0" type="matrix" in="shadowOffsetOuter1" result="shadowMatrixOuter1" />
            <feMerge>
                <feMergeNode in="shadowMatrixOuter1" />
                <feMergeNode in="SourceGraphic" />
            </feMerge>
        </filter>
    </defs>
    <g id="kurt_Top/_Resources/Kurt" stroke="none" stroke-width="1" fill="none" fill-rule="evenodd">
        <g id="kurt_Kurts" filter="url(#kurt_filter-1)" transform="translate(5.000000, 2.000000)" fill-rule="nonzero">
            <path d="M66,11.1111111 C54.9625586,11.1111111 53.3705645,2.0266011 30.6705882,0.740740741 C7.98552275,-0.283199952 0.815225204,6.4494855 0.776470588,11.1111111 C0.813236892,15.4042795 -0.352293566,26.5612661 14.3647059,39.6296296 C29.1367705,55.1420807 44.2704162,49.8818301 49.6941176,44.8148148 C55.1352081,42.4731118 61.3403442,21.4596351 66,21.4814815 C70.6596558,21.5033279 76.8647919,42.4731118 82.3058824,44.8148148 C87.7295838,49.8818301 102.86323,55.1420807 117.635294,39.6296296 C132.352294,26.5612661 131.186763,15.4042795 131.223529,11.1111111 C131.184775,6.4494855 124.014477,-0.283199952 101.329412,0.740740741 C78.6294355,2.0266011 77.0374414,11.1111111 66,11.1111111 Z" id="kurt_It!" fill="#F4F4F4" />
            <path d="M55.1294118,21.4814815 C55.5103632,13.8233491 42.2156493,5.64243259 27.9529412,5.92592593 C13.6973442,6.22450879 11.8417942,15.3786982 11.6470588,18.8888889 C11.2982286,27.0220633 20.014463,45.3037598 36.1058824,44.8148148 C52.1972736,44.305848 54.9092435,26.5344305 55.1294118,21.4814815 Z" id="kurt_Did" fill="#2F383B" />
            <path d="M120.352941,21.4814815 C120.733893,13.8233491 107.439179,5.64243259 93.1764706,5.92592593 C78.9208736,6.22450879 77.0653236,15.3786982 76.8705882,18.8888889 C76.521758,27.0220633 85.2379924,45.3037598 101.329412,44.8148148 C117.420803,44.305848 120.132773,26.5344305 120.352941,21.4814815 Z" id="kurt_Courtney" fill="#2F383B" transform="translate(98.611765, 25.370370) scale(-1, 1) translate(-98.611765, -25.370370) " />
        </g>
    </g>
</g>
    <defs id="gladiator_helmet_defs3">
        <path d="M264,0 L264,280 L232,280 L232,271 C232,231.235498 199.764502,199 160,199 L160,199 L156,199 L156.001014,180.610469 C173.531251,172.282329 186.048207,155.114429 187.791415,134.867236 C193.568906,134.002616 198,129.018777 198,123 L198,123 L198,110 C198,104.05429 193.675838,99.1185422 188.000809,98.1660527 L188,92 C188,61.072054 162.927946,36 132,36 C101.072054,36 76,61.072054 76,92 L76,92 L76.0001873,98.1658855 C70.3246685,99.1179645 66,104.053942 66,110 L66,110 L66,123 C66,129.018777 70.4310943,134.002616 76.2090181,134.867253 C77.9518263,155.114813 90.4692242,172.28298 107.999984,180.610943 L108,199 L104,199 C64.633143,199 32.6454629,230.594012 32.0096459,269.809348 L32,271 L32,280 L0,280 L0,0 L264,0 Z" id="gladiator_helmet_hairstylegladiator-helmet-path-1" />
        <mask id="gladiator_helmet_hairstylegladiator-helmet-mask-2" fill="#ffffff">
            <use xlink:href="#gladiator_helmet_hairstylegladiator-helmet-path-1" id="gladiator_helmet_use6" x="0" y="0" width="100%" height="100%" />
        </mask>
    </defs>
    <path d="m 157.1539,81.808923 c -4.27851,3.079186 -10.20898,6.171881 -18.15056,8.02902 -2.166,0.506 -3.641,-2.168 -2.068,-3.741 2.833,-2.832 6.073,-6.503 7.932,-10.044 0,0 -8.77854,-2.589743 -22.94454,2.677257 -15.423,4.64 -28.051,13.969813 -31.942,19.184813 -1.147,1.538 -3.384,-7.309018 0,-13.231018 0,0 -11.71574,6.924205 -9.622627,-7.541795 L 93.9378,67.7286 c -0.580098,0.580098 27.4875,-23.140213 42.99754,-23.115624 27.91076,0.04446 51.39346,25.561769 51.39346,42.840153 0,14.773001 15.24359,22.239361 3,25.782071 -3,0.86806 -17.008,-15.704 -14.647,-25.33 l -3.153,3.703 c -0.488,1.985 -8.55057,-1.984108 -8.55057,-9.379824 0,0 -1.15279,-5.220867 -7.82433,-0.419453 z" id="gladiator_helmet_Fill-1" fill="#724133" ns5:color="Hair-500" style="fill-rule:evenodd;stroke:none;stroke-width:1" />
    <path d="m 77.2311,134.9196 c 1.713,19.909 13.848,36.834 30.92,45.312 v -41.693 l -21.083,-6.866 c 0,0 -9.056,-41.26 25.96,-46.016 3.536,-0.48 6.936,1.41 8.078,4.452 1.491,3.968 4.913,9.68 12.761,14.558 0,0 8.711,-6.948 11.663,-14.678 1.14,-2.984 4.558,-4.796 8.031,-4.313 34.858,4.843 25.824,45.997 25.824,45.997 l -21.082,6.866 v 41.339 c 0,0.048 0.016,0.093 0.019,0.142 16.846,-8.548 28.791,-25.358 30.492,-45.1 3.91,-0.585 7.197,-3.061 8.917,-6.463 v -21.179 c 0,-0.93 -0.029,-1.853 -0.078,-2.772 -1.708,-3.267 -4.868,-5.656 -8.63,-6.287 l -0.001,-6.166 c 0,-6.294 -1.054,-12.339 -2.968,-17.986 -11.668,-14.926 -30.971,-24.693 -52.827,-24.693 -22.305,0 -41.963,10.163 -53.547,25.61 -1.721,5.383 -2.658,11.115 -2.658,17.069 v 6.166 c -3.442,0.577 -6.38,2.625 -8.165,5.47 -0.081,1.188 -0.135,2.382 -0.135,3.589 v 21.934 c 1.805,3.012 4.893,5.167 8.509,5.708" id="gladiator_helmet_path11" fill-opacity="0.16" fill="#000000" style="fill-rule:evenodd;stroke:none;stroke-width:1" />
    <path id="gladiator_helmet_Fabric-Color" d="M 54.222656 0.90039062 C 51.341656 0.90039062 49.249859 3.6379688 50.005859 6.4179688 L 55.779297 27.626953 C 24.299191 33.998712 0.59960937 61.81956 0.59960938 95.179688 L 0.59960938 169.06836 C 0.59960938 170.14736 1.155125 171.16075 2.078125 171.71875 C 14.390125 179.16075 28.044313 183.36747 34.570312 185.10547 C 36.536312 185.62947 38.457031 184.14438 38.457031 182.10938 L 38.457031 132.39062 L 20.205078 124.21875 C 20.205078 124.21875 10.526359 75.104359 47.943359 69.443359 C 51.721359 68.872359 55.355172 71.122187 56.576172 74.742188 C 58.169172 79.465187 61.823938 86.264312 70.210938 92.070312 C 70.210938 92.070312 79.518828 83.801609 82.673828 74.599609 C 83.890828 71.046609 87.544859 68.890844 91.255859 69.464844 C 128.50286 75.229844 118.84961 124.21875 118.84961 124.21875 L 100.5957 132.39062 L 100.5957 181.59766 C 100.5957 183.79566 102.81356 185.29366 104.85156 184.47266 C 111.38456 181.83966 124.47569 175.81252 137.30469 165.47852 C 138.03269 164.89152 138.45312 163.99655 138.45312 163.06055 L 138.45312 95.179688 C 138.45312 61.820223 114.75504 33.999439 83.275391 27.626953 L 89.046875 6.4179688 C 89.803875 3.6379688 87.711078 0.90039062 84.830078 0.90039062 L 54.222656 0.90039062 z " transform="translate(63.7,2.8)" fill="#FF5C5C" />
    <path d="m 133.2267,89.4216 v -43.045 c 0,0 6.874,13.894 0,43.045" id="gladiator_helmet_Fill-6" fill-opacity="0.24" fill="#000000" style="fill-rule:evenodd;stroke:none;stroke-width:1" />
    <path id="gladiator_helmet_Fill-8-5" style="fill-rule:evenodd;stroke:none;stroke-width:1;fill:#000000;fill-opacity:0.23999999" d="m 119.48398,30.444578 c -1.64206,0.33468 -3.26502,0.722647 -4.86328,1.169922 l 2.85742,10.496093 c 0.686,2.518 2.97108,4.265625 5.58008,4.265625 h 20.33594 c 2.609,0 4.89603,-1.747625 5.58203,-4.265625 L 151.83359,31.6145 c -1.59859,-0.447445 -3.22256,-0.835159 -4.86523,-1.169922 l -1.8418,6.767578 c -0.519,1.902 -2.2448,3.222656 -4.2168,3.222656 h -15.36523 c -1.972,0 -3.69975,-1.320656 -4.21875,-3.222656 z" />
</g>
    </g>
</svg>