<svg xmlns="http://www.w3.org/2000/svg" xmlns:xlink="http://www.w3.org/1999/xlink" width="264px" height="280px" viewBox="0 0 264 280" version="1.1">
    <title id="transparent_Title">Avataaar/Default</title>
    <desc>Created with python_avatars</desc>
    <defs>
        <path d="M100,0 C130.927946,-5.68137151e-15 156,25.072054 156,56 L156.000809,62.1660527 C161.675838,63.1185422 166,68.05429 166,74 L166,88 C166,94.0524166 161.519235,99.0582945 155.693975,99.8813638 C153.627928,119.686472 141.237929,136.421678 124.001014,144.610469 L124,163 L128,163 C167.764502,163 200,195.235498 200,235 L200,244 L0,244 L0,235 C-4.86974701e-15,195.235498 32.235498,163 72,163 L76,163 L75.9999836,144.610943 C58.7625487,136.422324 46.3721119,119.686854 44.3051107,99.8809698 C38.480765,99.0582945 34,94.0524166 34,88 L34,74 C34,68.053942 38.3246685,63.1179645 44.0001873,62.1658855 L44,56 C44,25.072054 69.072054,5.68137151e-15 100,0 Z" id="transparent_path-1" />
        <path d="M83,36.3476251 C83,52.6289957 105.161905,65.8276544 132.5,65.8276544 C159.838095,65.8276544 182,52.6289957 182,36.3476251 C182,34.9853134 181.844841,33.6445843 181.544472,32.3313638 C210.784239,41.4879251 232,68.792221 232,101.051724 L232,110 L32,110 L32,101.051724 C32,68.3970853 53.7386736,40.8197864 83.5337207,32.0021267 C83.1821692,33.4207025 83,34.871494 83,36.3476251 Z" id="transparent_path-3" />
        <rect id="transparent_path-5" x="0" y="0" width="264" height="280" />
        <path d="M74,0 C114.869071,0 148,33.1309285 148,74 L148,84.1482318 L148,197.608051 C135.525121,187.236892 119.490913,181 102,181 L102,181 L98,181 L98,162.610951 C115.530782,154.282984 128.048193,137.114792 129.791419,116.867187 C135.569129,116.002364 140,111.018625 140,105 L140,105 L140,92 C140,87.3536213 137.359271,83.3240177 133.496777,81.3301515 C132.723933,81.0500337 131.951808,80.748163 131.180891,80.4262497 C130.794819,80.3202581 130.400778,80.2331546 130,80.1659169 L130,80.1659169 L130.000458,79.9172528 C117.224481,74.2339715 104.877985,63.0706967 96.1104311,47.8848473 C93.1752556,42.8009742 90.8310687,37.5951441 89.0661426,32.3970356 C80.4313947,42.9409152 67.7445474,53.6023901 52.3415164,62.4953343 C42.777598,68.0170651 33.1467898,72.2910056 24,75.2659587 L24.0003852,137.246608 C29.6019576,148.318362 38.7728825,157.277529 50,162.610951 L50,162.610951 L50,181 L46,181 C38.3273639,181 30.9350359,182.200142 24.0004995,184.422941 L24,230 C24,244.105888 13.5691766,255.775526 0,257.716445 L0,74 C0,33.1309285 33.1309285,0 74,0 Z" id="transparent_path-7" />
    </defs>
    <g id="transparent_Avataaar/Default" stroke="none" stroke-width="1" fill="none" fill-rule="evenodd">
        <g id="transparent_Body" transform="translate(32.000000, 36.000000)">
            <mask id="transparent_mask-2" fill="white">
                <use xlink:href="#transparent_path-1" />
            </mask>
            <use fill="#D0C6AC" xlink:href="#transparent_path-1" />
            <g id="transparent_Skin-Color" mask="url(#transparent_mask-2)" fill="#614335">
                <g transform="translate(-32.000000, 0.000000)" id="transparent_Color">
                    <rect x="0" y="0" width="264" height="244" />
                </g>
            </g>
            <path d="M44,94 C44,124.927946 69.072054,150 100,150 C130.927946,150 156,124.927946 156,94 L156,94 L156,102 C156,132.927946 130.927946,158 100,158 C69.072054,158 44,132.927946 44,102 Z" id="transparent_Neck-Shadow" fill-opacity="0.100000001" fill="#000000" mask="url(#transparent_mask-2)" />
        </g>
        <g id="transparent_Clothing" transform="translate(0.000000, 170.000000)">
            
        <defs>
        <path d="M99,32.5 C99,44.3741221 113.998461,54 132.5,54 C151.001539,54 166,44.3741221 166,32.5 C166,31.4019929 165.871751,30.3232102 165.624342,29.2694852 C202.75978,32.1370674 232,63.1796858 232,101.051724 L232,110 L32,110 L32,101.051724 C32,62.8342194 61.7761079,31.571298 99.3946469,29.196636 C99.1341902,30.2738104 99,31.3768477 99,32.5 Z" id="graphic_shirt_path-1" />
    </defs>
    <g id="graphic_shirt_Clothing/Graphic-Shirt" stroke="none" stroke-width="1" fill="none" fill-rule="evenodd">
        <mask id="graphic_shirt_mask-2" fill="white">
            <use xlink:href="#graphic_shirt_path-1" />
        </mask>
        <use id="graphic_shirt_Clothes" fill="#E6E6E6" xlink:href="#graphic_shirt_path-1" />
        <g id="graphic_shirt_Fabric-Color" mask="url(#graphic_shirt_mask-2)" fill="#FF488E">
            <rect id="graphic_shirt_ðŸ–Color" x="0" y="0" width="264" height="110" />
        </g>
        <g id="graphic_shirt_Graphic" fill="#FFFFFF" transform="translate(77.000000, 58.000000)">
        <g id="custom_text_Clothing/Graphic/-Your-Text" stroke="none" stroke-width="1" fill="none" fill-rule="evenodd" font-family="Avenir-Heavy, Avenir" font-size="28" font-weight="600" letter-spacing="-0.4590163">
        <text id="custom_text_Graphic-Text" fill="#FFFFFF">
            <tspan x="22.4315408" y="31">Hola!</tspan>
        </text>
    </g>
</g>
    </g>
</g>
        <g id="transparent_Face" transform="translate(76.000000, 82.000000)" fill="#000000">
            <g id="transparent_Mouth" transform="translate(2.000000, 52.000000)">    
                
            <defs>
        <path d="M35.117844,15.1280772 C36.1757121,24.6198025 44.2259873,32 54,32 C63.8042055,32 71.8740075,24.574136 72.8917593,15.0400546 C72.9736685,14.272746 72.1167429,13 71.042767,13 C56.1487536,13 44.7379213,13 37.0868244,13 C36.0066168,13 35.0120058,14.1784435 35.117844,15.1280772 Z" id="smile_path-1" />
    </defs>
    <g id="smile_Mouth/Smile" stroke="none" stroke-width="1" fill="none" fill-rule="evenodd">
        <mask id="smile_mask-2" fill="white">
            <use xlink:href="#smile_path-1" />
        </mask>
        <use id="smile_Mouth" fill-opacity="0.699999988" fill="#000000" xlink:href="#smile_path-1" />
        <path d="M44,2 L65,2 C67.7614237,2 70,4.23857625 70,7 L70,13 C70,15.7614237 67.7614237,18 65,18 L44,18 C41.2385763,18 39,15.7614237 39,13 L39,7 C39,4.23857625 41.2385763,2 44,2 Z" id="smile_Teeth" fill="#FFFFFF" mask="url(#smile_mask-2)" />
        <g id="smile_Tongue" mask="url(#smile_mask-2)" fill="#FF4F6D">
            <g transform="translate(38.000000, 24.000000)">
                <circle cx="11" cy="11" r="11" />
                <circle cx="21" cy="11" r="11" />
            </g>
        </g>
    </g>
</g>
            <g id="transparent_Nose" transform="translate(28.000000, 40.000000)" fill-opacity="0.16">
                
            <g id="wide_Nose/Wide" stroke="none" stroke-width="1" fill="none" fill-rule="evenodd"><path d="M13,6 C13,12.627417 16.8281211,18 28,18 C39.1718789,18 43,12.627417 43,6 C39.0361818,6 32.8972468,9 27.83815,9 C23.0794079,9 17.1013384,6 13,6 Z" id="wide_Nose" fill-opacity=".16" fill="#000" /></g></g>
            <g id="transparent_Eyes" transform="translate(0.000000, 8.000000)">
                
            <defs>
        <path d="M14,14.0481187 C23.6099827,14.0481187 28,18.4994466 28,11.5617716 C28,4.62409673 21.7319865,0 14,0 C6.2680135,0 0,4.62409673 0,11.5617716 C0,18.4994466 4.39001726,14.0481187 14,14.0481187 Z" id="squint_path-1" />
        <path d="M14,14.0481187 C23.6099827,14.0481187 28,18.4994466 28,11.5617716 C28,4.62409673 21.7319865,0 14,0 C6.2680135,0 0,4.62409673 0,11.5617716 C0,18.4994466 4.39001726,14.0481187 14,14.0481187 Z" id="squint_path-3" />
    </defs>
    <g id="squint_Eyes/Squint-ðŸ˜Š" stroke="none" stroke-width="1" fill="none" fill-rule="evenodd">
        <g id="squint_Eye" transform="translate(16.000000, 13.000000)">
            <mask id="squint_mask-2" fill="white">
                <use xlink:href="#squint_path-1" />
            </mask>
            <use id="squint_The-white-stuff" fill="#FFFFFF" xlink:href="#squint_path-1" />
            <circle fill-opacity="0.699999988" fill="#000000" mask="url(#squint_mask-2)" cx="14" cy="10" r="6" />
        </g>
        <g id="squint_Eye" transform="translate(68.000000, 13.000000)">
            <mask id="squint_mask-4" fill="white">
                <use xlink:href="#squint_path-3" />
            </mask>
            <use id="squint_Eyeball-Mask" fill="#FFFFFF" xlink:href="#squint_path-3" />
            <circle fill-opacity="0.699999988" fill="#000000" mask="url(#squint_mask-4)" cx="14" cy="10" r="6" />
        </g>
    </g>
</g>
            <g id="transparent_Eyebrow" fill-opacity="0.599999964">
                
            <g id="unibrow_natural_Eyebrow/Natural/Unibrow-Natural" stroke="none" stroke-width="1" fill="none" fill-rule="evenodd" fill-opacity="0.599999964">
        <path d="M57.000525,12 C56.999825,11.9961 56.999825,11.9961 57.000525,12 M96.2812935,8.14993193 C97.7243204,8.76008291 105.241692,14.8939029 103.822605,17.5722412 C103.563259,18.0619945 102.91024,18.1443003 102.524546,17.7511372 C101.997542,17.2147893 100.987756,16.584232 100.86041,16.507708 C95.8563653,13.4967455 89.636055,14.1895424 84.1715051,15.0153209 C78.0153663,15.945512 71.9486685,18.0766191 65.7030886,17.0505179 C64.112573,16.7893996 61.3100901,16.0581965 59.4577569,14.8912505 C59.2166111,15.3812089 58.7733181,15.7165315 58.0750241,15.6547468 C55.8451696,15.4574504 57.5922879,12 58.7633758,12 C58.9879322,12 59.1830493,12.1416326 59.3360395,12.3691906 C60.6258515,12.2076142 61.9177831,11.6174215 63.2409655,11.2908151 C66.9279989,10.3803501 70.6888462,9.98718701 74.4284137,9.38927986 C81.0899445,8.32440654 89.7471082,5.39200867 96.2812935,8.14993193 Z" id="unibrow_natural_Kahlo" fill="#000000" transform="translate(80.500000, 12.500000) rotate(-2.000000) translate(-80.500000, -12.500000) " />
        <path d="M54.999475,12 C55.000175,11.9961 55.000175,11.9961 54.999475,12 M15.7187065,8.14993193 C22.2528918,5.39200867 30.9100555,8.32440654 37.5715863,9.38927986 C41.3111538,9.98718701 45.0720011,10.3803501 48.7590345,11.2908151 C50.2416282,11.6567696 51.6849876,12.3536477 53.1313394,12.4128263 C53.8325707,12.4413952 54.2674737,13.2763566 53.8149484,13.8242681 C52.3320222,15.6179895 48.3271239,16.7172136 46.2969114,17.0505179 C40.0513315,18.0766191 33.9846337,15.945512 27.8284949,15.0153209 C22.363945,14.1895424 16.1436347,13.4967455 11.1395899,16.507708 C11.0122444,16.584232 10.0024581,17.2147893 9.47545402,17.7511372 C9.0897602,18.1443003 8.43674067,18.0619945 8.17739482,17.5722412 C6.75830756,14.8939029 14.2756796,8.76008291 15.7187065,8.14993193 Z M54.9339874,11 C56.1050753,11 57.8521936,15.4015737 55.6223391,15.6527457 C53.3924847,15.9039176 53.7628995,11 54.9339874,11 Z" id="unibrow_natural_Frida" fill="#000000" transform="translate(32.348682, 12.500000) rotate(2.000000) translate(-32.348682, -12.500000) " />
    </g>
</g>
        </g>
        <g id="transparent_Top">
            
        <defs>
        <path d="M133,0 C143.345979,0 153.255097,1.87042223 162.407652,5.29156448 C163.743974,5.09945523 165.110373,5 166.5,5 C174.218206,5 181.219828,8.06805859 186.351816,13.0511239 C207.443511,13.9372686 225.463529,26.7024213 233.895715,44.8296712 C243.426403,49.4401525 250,59.2024033 250,70.5 C250,71.2993961 249.967088,72.0911052 249.902545,72.8738462 C256.881798,82.4489531 261,94.2435478 261,107 C261,114.157324 259.70357,121.011851 257.332726,127.341563 C257.769628,129.323917 258,131.385056 258,133.5 C258,143.289141 253.064626,151.925564 245.546398,157.056747 C236.835658,174.792827 218.593398,187 197.5,187 C195.537268,187 193.599223,186.894308 191.691244,186.688304 C185.385674,191.880756 177.307106,195 168.5,195 C164.482111,195 160.61585,194.350799 157.000392,193.151572 L157.001014,180.610469 C174.531251,172.282329 187.048207,155.114429 188.791415,134.867236 C194.471002,134.017289 198.849484,129.186467 198.9962,123.304975 L199,123 L199,110 C199,104.05429 194.675838,99.1185422 189.000809,98.1660527 L189,92 C189,86.5620793 188.224908,81.3051912 186.779174,76.3337864 L188.153157,89.1947292 L176.812614,65.1945789 L131.676809,45.6707349 L101.563146,56.2283606 L80.0648273,76.419385 L80.0185329,73.8156164 C78.1570824,79.2403107 77.1053144,85.0411755 77.0075024,91.0739376 L77,92 L77.0001873,98.1658855 C71.4219896,99.1016387 67.148712,103.885834 67.0037999,109.695025 L67,110 L67,123 C67,129.018777 71.4310943,134.002616 77.2090181,134.867253 C78.9518594,155.115197 91.4696989,172.283632 109.000981,180.611417 L109.001111,191.554488 C104.296133,193.764716 99.0423247,195 93.5,195 C84.6933626,195 76.6151861,191.881088 70.3097919,186.687584 C68.4014543,186.894271 66.4630744,187 64.5,187 C43.4066019,187 25.1643418,174.792827 16.4523753,157.057636 C8.93537426,151.925564 4,143.289141 4,133.5 C4,131.385056 4.23037156,129.323917 4.6673902,127.34031 C2.29643027,121.011851 1,114.157324 1,107 C1,94.2435478 5.11820163,82.4489531 12.0976398,72.8731809 C12.0329101,72.091059 12,71.2993728 12,70.5 C12,59.2024033 18.5735967,49.4401525 28.1045443,44.8294932 C36.5364482,26.7022854 54.5564073,13.9367827 75.6478934,13.0493874 C80.7801716,8.06805859 87.7817941,5 95.5,5 C97.8273907,5 100.089623,5.27897771 102.25508,5.80531709 C111.775928,2.05800225 122.147628,0 133,0 Z" id="fro_band_path-1" />
    </defs>
    <g id="fro_band_Top/Long-Hair/Fro-+-Band" transform="translate(-1.000000, 0.000000)" stroke="none" stroke-width="1" fill="none" fill-rule="evenodd">
        <mask id="fro_band_mask-2" fill="white">
            <use xlink:href="#fro_band_path-1" />
        </mask>
        <use id="fro_band_Hair" fill="#314756" xlink:href="#fro_band_path-1" />
        <g id="fro_band_Hair-Color" mask="url(#fro_band_mask-2)" fill="#724133">
            <g transform="translate(1.000000, 0.000000)" id="fro_band_Color">
                <rect x="0" y="0" width="264" height="280" />
            </g>
        </g>
        <path d="M132.5,39 C163.704088,39 189,62.3493236 189,91.1521739 C189,93.8108718 188.784465,96.4231027 188.368644,98.9747915 C184.279068,73.8828117 160.823363,54.6456522 132.5,54.6456522 C104.17626,54.6456522 80.7203083,73.8833236 76.6313559,98.9752085 C76.2155912,96.4237863 76,93.8112197 76,91.1521739 C76,62.3493236 101.295912,39 132.5,39 Z" id="fro_band_Band" fill="#92D9FF" />
        <g id="fro_band_Facial-Hair" transform="translate(49.000000, 72.000000)" />
        <g id="fro_band_Accessory" transform="translate(62.000000, 85.000000)" />
    </g>
</g>
    </g>
</svg>