<svg xmlns="http://www.w3.org/2000/svg" xmlns:dc="http://purl.org/dc/elements/1.1/" xmlns:ns3="http://creativecommons.org/ns#" xmlns:ns5="http://design.blush" xmlns:rdf="http://www.w3.org/1999/02/22-rdf-syntax-ns#" xmlns:xlink="http://www.w3.org/1999/xlink" width="264px" height="280px" viewBox="0 0 264 280" version="1.1">
    <title id="transparent_Title">Avataaar/Default</title>
    <desc>Created with python_avatars</desc>
    <defs>
        <path d="M100,0 C130.927946,-5.68137151e-15 156,25.072054 156,56 L156.000809,62.1660527 C161.675838,63.1185422 166,68.05429 166,74 L166,88 C166,94.0524166 161.519235,99.0582945 155.693975,99.8813638 C153.627928,119.686472 141.237929,136.421678 124.001014,144.610469 L124,163 L128,163 C167.764502,163 200,195.235498 200,235 L200,244 L0,244 L0,235 C-4.86974701e-15,195.235498 32.235498,163 72,163 L76,163 L75.9999836,144.610943 C58.7625487,136.422324 46.3721119,119.686854 44.3051107,99.8809698 C38.480765,99.0582945 34,94.0524166 34,88 L34,74 C34,68.053942 38.3246685,63.1179645 44.0001873,62.1658855 L44,56 C44,25.072054 69.072054,5.68137151e-15 100,0 Z" id="transparent_path-1" />
        <path d="M83,36.3476251 C83,52.6289957 105.161905,65.8276544 132.5,65.8276544 C159.838095,65.8276544 182,52.6289957 182,36.3476251 C182,34.9853134 181.844841,33.6445843 181.544472,32.3313638 C210.784239,41.4879251 232,68.792221 232,101.051724 L232,110 L32,110 L32,101.051724 C32,68.3970853 53.7386736,40.8197864 83.5337207,32.0021267 C83.1821692,33.4207025 83,34.871494 83,36.3476251 Z" id="transparent_path-3" />
        <rect id="transparent_path-5" x="0" y="0" width="264" height="280" />
        <path d="M74,0 C114.869071,0 148,33.1309285 148,74 L148,84.1482318 L148,197.608051 C135.525121,187.236892 119.490913,181 102,181 L102,181 L98,181 L98,162.610951 C115.530782,154.282984 128.048193,137.114792 129.791419,116.867187 C135.569129,116.002364 140,111.018625 140,105 L140,105 L140,92 C140,87.3536213 137.359271,83.3240177 133.496777,81.3301515 C132.723933,81.0500337 131.951808,80.748163 131.180891,80.4262497 C130.794819,80.3202581 130.400778,80.2331546 130,80.1659169 L130,80.1659169 L130.000458,79.9172528 C117.224481,74.2339715 104.877985,63.0706967 96.1104311,47.8848473 C93.1752556,42.8009742 90.8310687,37.5951441 89.0661426,32.3970356 C80.4313947,42.9409152 67.7445474,53.6023901 52.3415164,62.4953343 C42.777598,68.0170651 33.1467898,72.2910056 24,75.2659587 L24.0003852,137.246608 C29.6019576,148.318362 38.7728825,157.277529 50,162.610951 L50,162.610951 L50,181 L46,181 C38.3273639,181 30.9350359,182.200142 24.0004995,184.422941 L24,230 C24,244.105888 13.5691766,255.775526 0,257.716445 L0,74 C0,33.1309285 33.1309285,0 74,0 Z" id="transparent_path-7" />
    </defs>
    <g id="transparent_Avataaar/Default" stroke="none" stroke-width="1" fill="none" fill-rule="evenodd">
        <g id="transparent_Body" transform="translate(32.000000, 36.000000)">
            <mask id="transparent_mask-2" fill="white">
                <use xlink:href="#transparent_path-1" />
            </mask>
            <use fill="#D0C6AC" xlink:href="#transparent_path-1" />
            <g id="transparent_Skin-Color" mask="url(#transparent_mask-2)" fill="#EDB98A">
                <g transform="translate(-32.000000, 0.000000)" id="transparent_Color">
                    <rect x="0" y="0" width="264" height="244" />
                </g>
            </g>
            <path d="M44,94 C44,124.927946 69.072054,150 100,150 C130.927946,150 156,124.927946 156,94 L156,94 L156,102 C156,132.927946 130.927946,158 100,158 C69.072054,158 44,132.927946 44,102 Z" id="transparent_Neck-Shadow" fill-opacity="0.100000001" fill="#000000" mask="url(#transparent_mask-2)" />
        </g>
        <g id="transparent_Clothing" transform="translate(0.000000, 170.000000)">
            
        <defs>
        <path d="M83,36.3476251 C83,52.6289957 105.161905,65.8276544 132.5,65.8276544 C159.838095,65.8276544 182,52.6289957 182,36.3476251 C182,34.9853134 181.844841,33.6445843 181.544472,32.3313638 C210.784239,41.4879251 232,68.792221 232,101.051724 L232,110 L32,110 L32,101.051724 C32,68.3970853 53.7386736,40.8197864 83.5337207,32.0021267 C83.1821692,33.4207025 83,34.871494 83,36.3476251 Z" id="shirt_scoop_neck_path-1" />
    </defs>
    <g id="shirt_scoop_neck_Clothing/Shirt-Scoop-Neck" stroke="none" stroke-width="1" fill="none" fill-rule="evenodd">
        <mask id="shirt_scoop_neck_mask-2" fill="white">
            <use xlink:href="#shirt_scoop_neck_path-1" />
        </mask>
        <use id="shirt_scoop_neck_Clothes" fill="#E6E6E6" xlink:href="#shirt_scoop_neck_path-1" />
        <g id="shirt_scoop_neck_Fabric-Color" mask="url(#shirt_scoop_neck_mask-2)" fill="#929598">
            <rect id="shirt_scoop_neck_ðŸ–Color" x="0" y="0" width="264" height="110" />
        </g>
    </g>
</g>
        <g id="transparent_Face" transform="translate(76.000000, 82.000000)" fill="#000000">
            <g id="transparent_Mouth" transform="translate(2.000000, 52.000000)">    
                
            <g id="serious_Mouth/Serious" stroke="none" stroke-width="1" fill="none" fill-rule="evenodd" fill-opacity="0.699999988">
        <rect id="serious_Why-so-serious?" fill="#000000" x="42" y="18" width="24" height="6" rx="3" />
    </g>
</g>
            <g id="transparent_Nose" transform="translate(28.000000, 40.000000)" fill-opacity="0.16">
                
            <g id="default_Nose/Default" stroke="none" stroke-width="1" fill="none" fill-rule="evenodd" fill-opacity="0.16">
        <path d="M16,8 C16,12.418278 21.372583,16 28,16 L28,16 C34.627417,16 40,12.418278 40,8" id="default_Nose" fill="#000000" />
    </g>
</g>
            <g id="transparent_Eyes" transform="translate(0.000000, 8.000000)">
                
            <g id="side_Eyes/Side-ðŸ˜’" stroke="none" stroke-width="1" fill="none" fill-rule="evenodd" fill-opacity="0.599999964">
        <path d="M26.9975803,16 C30.5023373,16 33.8908881,17.3142215 36.0178027,19.5426914 C36.76432,20.2169977 37.3413788,21.076429 37.6755948,22.0487876 C37.7255661,22.1661456 37.7719796,22.285947 37.8153518,22.4071242 C37.9093375,22.6697105 37.9470658,22.9204105 37.9396792,23.1420431 C37.9792021,23.4217112 38,23.7084268 38,24 C38,27.3137085 35.3137085,30 32,30 C28.6862915,30 26,27.3137085 26,24 C26,22.6248836 26.4625977,21.3578126 27.2406617,20.3459186 C27.1600773,20.3443723 27.0789132,20.3437884 26.9975803,20.3437884 C23.2572061,20.3437884 19.8737584,21.5787519 17.4375392,23.5716412 C16.5467928,24.3002944 15.6201012,23.5583844 16.1601674,22.4473116 C18.006676,18.648508 22.1644225,16 26.9975803,16 Z" id="side_Eye" fill="#000000" />
        <path d="M84.9975803,16 C88.5023373,16 91.8908881,17.3142215 94.0178027,19.5426914 C94.76432,20.2169977 95.3413788,21.076429 95.6755948,22.0487876 C95.7255661,22.1661456 95.7719796,22.285947 95.8153518,22.4071242 C95.9093375,22.6697105 95.9470658,22.9204105 95.9396792,23.1420431 C95.9792021,23.4217112 96,23.7084268 96,24 C96,27.3137085 93.3137085,30 90,30 C86.6862915,30 84,27.3137085 84,24 C84,22.6248836 84.4625977,21.3578126 85.2406617,20.3459186 C85.1600773,20.3443723 85.0789132,20.3437884 84.9975803,20.3437884 C81.2572061,20.3437884 77.8737584,21.5787519 75.4375392,23.5716412 C74.5467928,24.3002944 73.6201012,23.5583844 74.1601674,22.4473116 C76.006676,18.648508 80.1644225,16 84.9975803,16 Z" id="side_Eye" fill="#000000" />
    </g>
</g>
            <g id="transparent_Eyebrow" fill-opacity="0.599999964">
                
            <g id="flat_natural_Eyebrow/Natural/Flat-Natural" stroke="none" stroke-width="1" fill="none" fill-rule="evenodd" fill-opacity="0.599999964">
        <path d="M38.5686071,10.7022978 C33.5865557,11.2384494 28.6553385,11.1338998 23.6562444,11.1010606 C19.8231061,11.0762636 15.91974,10.6892291 12.3246118,12.5091287 C11.6361455,12.8572921 7.8767609,14.9449324 8.00311195,16.0108688 C8.10389896,16.8633498 12.0128479,18.0636592 12.7165939,18.2838164 C16.4280826,19.4452548 19.9241869,18.9282036 23.6870976,18.5703225 C28.3024371,18.1316834 32.9139567,18.1745756 37.5322346,17.8739956 C40.6422336,17.6719334 45.4224171,16.9769469 46.8293214,13.1484895 C47.2530382,11.9954284 46.8152171,9.73353891 46.3074622,8.50642195 C46.1050066,8.01751871 45.5634602,7.84963624 45.1688335,8.14921095 C43.7560524,9.22218432 40.9851444,10.4425994 38.5686071,10.7022978" id="flat_natural_Fill-10" fill="#000000" transform="translate(27.500000, 13.500000) rotate(2.000000) translate(-27.500000, -13.500000) " />
        <path d="M95.5686071,10.7022978 C90.5865557,11.2384494 85.6553385,11.1338998 80.6562444,11.1010606 C76.8231061,11.0762636 72.91974,10.6892291 69.3246118,12.5091287 C68.6361455,12.8572921 64.8767609,14.9449324 65.003112,16.0108688 C65.103899,16.8633498 69.0128479,18.0636592 69.7165939,18.2838164 C73.4280826,19.4452548 76.9241869,18.9282036 80.6870976,18.5703225 C85.3024371,18.1316834 89.9139567,18.1745756 94.5322346,17.8739956 C97.6422336,17.6719334 102.422417,16.9769469 103.829321,13.1484895 C104.253038,11.9954284 103.815217,9.73353891 103.307462,8.50642195 C103.105007,8.01751871 102.56346,7.84963624 102.168833,8.14921095 C100.756052,9.22218432 97.9851444,10.4425994 95.5686071,10.7022978" id="flat_natural_Fill-10" fill="#000000" transform="translate(84.500000, 13.500000) scale(-1, 1) rotate(2.000000) translate(-84.500000, -13.500000) " />
    </g>
</g>
        </g>
        <g id="transparent_Top">
            
        <metadata id="dreadlocks_metadata25">
      <rdf:RDF>
         <ns3:Work rdf:about="">
            <dc:format>image/svg+xml</dc:format>
            <dc:type rdf:resource="http://purl.org/dc/dcmitype/StillImage" />
            <dc:title />
         </ns3:Work>
      </rdf:RDF>
   </metadata>
   <defs id="dreadlocks_defs23" />
   <g id="dreadlocks_Hairstyle/Dreadlocks" stroke="none" stroke-width="1" fill="none" fill-rule="evenodd">
      <g id="dreadlocks_Group-35" transform="translate(52.300000, 33.100000)">
         <g id="dreadlocks_Hair-Color" fill="#4A312C">
            <path d="M135.7129,58.8838 C135.7129,58.7438 135.7039,58.6068 135.7029,58.4668 C136.6069,57.9398 137.2679,57.0168 137.4129,55.8978 C137.6209,54.3068 136.7149,52.8388 135.3079,52.2388 C135.0399,49.9838 134.6419,47.7688 134.1149,45.6028 C135.4309,45.2428 136.4749,44.1408 136.6669,42.7038 C136.9239,40.7878 135.5789,39.0268 133.6629,38.7698 C133.0549,38.6878 132.4559,38.5868 131.8609,38.4778 C130.6489,35.3818 129.1779,32.4148 127.4579,29.6148 C128.0429,29.2318 128.5199,28.6718 128.7959,27.9718 C129.5039,26.1738 128.6199,24.1408 126.8209,23.4328 C122.1719,21.6028 117.4079,14.6048 115.9639,12.0618 C115.0129,10.3818 112.8769,9.7908 111.1969,10.7398 C110.7149,11.0128 110.3339,11.3888 110.0409,11.8178 C107.3149,10.0578 104.4339,8.5168 101.4099,7.2448 C101.0349,5.9128 100.8719,5.1098 100.8659,5.0778 C100.4989,3.1828 98.6659,1.9428 96.7689,2.3088 C95.4419,2.5648 94.4499,3.5438 94.0899,4.7548 C92.0029,4.2018 89.8689,3.7698 87.6939,3.4598 C87.2149,1.9338 85.7239,0.8818 84.0849,1.0108 C82.8229,1.1108 81.7819,1.8718 81.2479,2.9228 C80.7359,2.9088 80.2279,2.8838 79.7129,2.8838 C79.1069,2.8838 78.5059,2.9108 77.9039,2.9298 C77.3719,1.8788 76.3319,1.1158 75.0699,1.0148 C73.3989,0.8768 71.9059,1.9498 71.4409,3.4968 C69.2769,3.8168 67.1579,4.2668 65.0829,4.8278 C64.7409,3.5858 63.7369,2.5748 62.3859,2.3128 C60.4909,1.9418 58.6539,3.1828 58.2829,5.0778 C58.2779,5.1028 58.1019,5.9668 57.6989,7.3828 C54.7179,8.6578 51.8759,10.1928 49.1879,11.9448 C48.8879,11.4628 48.4809,11.0388 47.9519,10.7398 C46.2679,9.7888 44.1329,10.3828 43.1829,12.0648 C41.7489,14.6028 37.0029,21.5928 32.3289,23.4328 C30.5299,24.1418 29.6459,26.1738 30.3539,27.9718 C30.6599,28.7508 31.2189,29.3488 31.8949,29.7298 C30.2149,32.4798 28.7769,35.3918 27.5859,38.4268 C26.8949,38.5598 26.1949,38.6748 25.4859,38.7698 C23.5709,39.0268 22.2259,40.7878 22.4829,42.7038 C22.6879,44.2358 23.8559,45.4008 25.2949,45.6758 C24.7859,47.7798 24.3979,49.9308 24.1339,52.1208 C22.5569,52.6278 21.5139,54.1968 21.7359,55.8978 C21.8959,57.1248 22.6789,58.1088 23.7209,58.6008 C23.7199,58.6958 23.7129,58.7888 23.7129,58.8838 L23.7129,65.0498 C23.7129,65.0498 73.8409,62.4388 79.7129,27.0218 C79.7129,27.0218 91.9419,65.0498 135.7139,65.0498 L135.7129,58.8838 Z" id="dreadlocks_Fill-1" ns5:color="Hair-500" />
            <path d="M49.5625,147.1787 C50.0395,146.4437 50.4895,145.6907 50.8895,144.9057 C37.8005,137.0327 28.2015,123.9577 24.9365,108.5447 C24.0565,108.6657 23.1965,108.8457 22.3485,109.0557 C21.8635,107.5397 20.3925,106.5017 18.7335,106.6327 C16.8075,106.7917 15.3745,108.4817 15.5325,110.4077 C15.5435,110.5457 15.5895,111.0327 15.6905,111.7787 C13.7455,112.9197 11.9705,114.3127 10.4045,115.9147 C9.6325,115.2497 8.5885,114.9137 7.5085,115.1117 C5.6055,115.4537 4.3425,117.2747 4.6855,119.1767 C4.7095,119.3127 4.9705,120.7017 5.5815,122.8777 C4.0755,126.1077 3.2195,129.7007 3.2195,133.4997 C3.2195,134.1167 3.2495,134.7277 3.2925,135.3337 C2.9605,135.3537 2.6275,135.4057 2.2995,135.5257 C0.4845,136.1887 -0.4495,138.1987 0.2135,140.0137 C0.4235,140.5877 5.5155,154.1427 19.9925,160.6487 C20.4585,160.8577 20.9455,160.9567 21.4245,160.9567 C22.7605,160.9567 24.0365,160.1887 24.6195,158.8907 C24.6865,158.7417 24.7265,158.5867 24.7715,158.4347 C25.9625,158.6077 27.1805,158.6997 28.4195,158.6997 C30.4915,158.6997 32.5005,158.4367 34.4265,157.9647 C35.8795,158.5227 37.3685,159.0027 38.8945,159.3917 C39.1855,159.4657 39.4765,159.5007 39.7625,159.5007 C41.3235,159.5007 42.7475,158.4487 43.1515,156.8657 C43.3915,155.9247 43.2245,154.9767 42.7625,154.2037 C43.4725,153.7107 44.1565,153.1847 44.8105,152.6227 C45.2585,152.8217 45.6955,153.0277 46.1565,153.2157 C46.5895,153.3917 47.0365,153.4757 47.4765,153.4757 C48.8565,153.4757 50.1655,152.6537 50.7185,151.2957 C51.3335,149.7877 50.8105,148.1097 49.5625,147.1787" id="dreadlocks_Fill-3" ns5:color="Hair-500" />
            <path d="M158.9033,135.5254 C158.2933,135.3014 157.6643,135.2714 157.0693,135.3824 C157.1153,134.7594 157.1463,134.1334 157.1463,133.5004 C157.1463,130.1414 156.4853,126.9384 155.2933,124.0074 C156.1433,121.1844 156.4893,119.3354 156.5173,119.1764 C156.8613,117.2744 155.5973,115.4544 153.6953,115.1114 C152.4073,114.8764 151.1693,115.3924 150.3883,116.3344 C148.9263,114.7634 147.2693,113.3784 145.4513,112.2214 C145.5983,111.2134 145.6573,110.5724 145.6713,110.4084 C145.8293,108.4814 144.3953,106.7914 142.4693,106.6324 C140.7413,106.4964 139.2183,107.6294 138.8023,109.2494 C137.4173,108.8584 135.9853,108.5784 134.5143,108.4284 C131.3323,123.6104 122.0043,136.5264 109.2493,144.4624 C109.7913,145.5804 110.4173,146.6494 111.1113,147.6684 C110.2613,148.6324 109.9663,150.0244 110.4843,151.2964 C111.0383,152.6534 112.3463,153.4754 113.7273,153.4754 C114.1673,153.4754 114.6143,153.3914 115.0473,153.2154 C115.3173,153.1054 115.5703,152.9814 115.8373,152.8684 C116.5993,153.5034 117.3983,154.0964 118.2333,154.6394 C117.9443,155.3204 117.8553,156.0924 118.0513,156.8654 C118.4563,158.4484 119.8803,159.5014 121.4413,159.5014 C121.7273,159.5014 122.0183,159.4654 122.3083,159.3914 C123.7153,159.0324 125.0923,158.5974 126.4383,158.0944 C128.2123,158.4904 130.0533,158.7004 131.9463,158.7004 C133.4633,158.7004 134.9453,158.5584 136.3873,158.3014 C136.4373,158.5004 136.4973,158.6984 136.5843,158.8904 C137.1673,160.1884 138.4433,160.9574 139.7783,160.9574 C140.2573,160.9574 140.7453,160.8574 141.2113,160.6484 C155.6873,154.1424 160.7803,140.5874 160.9903,140.0134 C161.6533,138.1984 160.7183,136.1884 158.9033,135.5254" id="dreadlocks_Fill-5" ns5:color="Hair-500" />
         </g>
         <path d="M133.9473,58.9467 C135.6783,58.9467 137.1833,57.6617 137.4133,55.8977 C137.6633,53.9817 136.3103,52.2247 134.3943,51.9757 C91.8013,46.4307 87.9893,5.9407 87.8473,4.2197 C87.6943,2.2957 85.9853,0.8607 84.0853,1.0107 C82.1573,1.1627 80.7183,2.8477 80.8703,4.7757 C80.9083,5.2647 81.8943,16.9137 88.8233,29.4217 C95.2733,41.0647 108.2583,55.6327 133.4903,58.9167 C133.6433,58.9367 133.7963,58.9467 133.9473,58.9467" id="dreadlocks_Fill-8" fill-opacity=".24" fill="#000" />
         <path d="M132.7334,45.707 C132.8904,45.728 133.0474,45.739 133.2034,45.739 C134.9284,45.739 136.4314,44.461 136.6674,42.704 C136.9234,40.788 135.5794,39.026 133.6634,38.77 C122.5974,37.286 113.7474,31.264 107.3554,20.873 C102.4404,12.881 100.8854,5.177 100.8664,5.078 C100.4994,3.183 98.6664,1.942 96.7684,2.309 C94.8704,2.675 93.6284,4.51 93.9944,6.408 C94.0614,6.758 101.1074,41.466 132.7334,45.707" id="dreadlocks_Fill-11" fill-opacity=".24" fill="#000" />
         <path d="M124.2568,29.9467 C124.6778,30.1127 125.1108,30.1907 125.5378,30.1907 C126.9348,30.1907 128.2528,29.3497 128.7958,27.9717 C129.5038,26.1737 128.6198,24.1407 126.8208,23.4327 C122.1718,21.6027 117.4078,14.6047 115.9638,12.0617 C115.0128,10.3817 112.8768,9.7907 111.1968,10.7397 C109.5138,11.6907 108.9208,13.8257 109.8718,15.5087 C110.5248,16.6637 116.4748,26.8827 124.2568,29.9467" id="dreadlocks_Fill-13" fill-opacity=".24" fill="#000" />
         <path d="M75.0703,1.0146 C73.1493,0.8566 71.4593,2.2966 71.3013,4.2196 C71.1593,5.9406 67.3483,46.4306 24.7553,51.9756 C22.8383,52.2246 21.4863,53.9816 21.7363,55.8976 C21.9653,57.6616 23.4703,58.9466 25.2023,58.9466 C25.3523,58.9466 25.5053,58.9366 25.6583,58.9166 C50.8913,55.6326 63.8763,41.0646 70.3253,29.4216 C77.2543,16.9136 78.2403,5.2646 78.2793,4.7756 C78.4303,2.8506 76.9953,1.1696 75.0703,1.0146" id="dreadlocks_Fill-15" fill-opacity=".24" fill="#000" />
         <path d="M25.9473,45.7387 C26.1023,45.7387 26.2593,45.7287 26.4173,45.7067 C58.0413,41.4667 65.0883,6.7587 65.1553,6.4077 C65.5213,4.5117 64.2813,2.6807 62.3863,2.3127 C60.4913,1.9417 58.6543,3.1827 58.2833,5.0777 C58.2683,5.1547 56.7163,12.8697 51.7933,20.8727 C45.4033,31.2637 36.5513,37.2857 25.4863,38.7697 C23.5713,39.0267 22.2253,40.7877 22.4833,42.7037 C22.7183,44.4617 24.2203,45.7387 25.9473,45.7387" id="dreadlocks_Fill-17" fill-opacity=".24" fill="#000" />
         <path d="M33.6118,30.1909 C34.0378,30.1909 34.4718,30.1119 34.8928,29.9469 C42.6748,26.8829 48.6248,16.6639 49.2768,15.5089 C50.2278,13.8259 49.6348,11.6909 47.9518,10.7399 C46.2678,9.7889 44.1328,10.3819 43.1828,12.0649 C41.7488,14.6029 37.0028,21.5929 32.3288,23.4329 C30.5298,24.1419 29.6458,26.1729 30.3538,27.9719 C30.8968,29.3499 32.2158,30.1909 33.6118,30.1909" id="dreadlocks_Fill-19" fill-opacity=".24" fill="#000" />
         <path d="M48.7983,146.7334 C25.1153,137.0824 22.6043,110.9354 22.5083,109.8284 C22.3473,107.9044 20.6623,106.4814 18.7343,106.6324 C16.8073,106.7914 15.3743,108.4814 15.5323,110.4084 C15.6383,111.6894 18.4323,141.9174 46.1563,153.2154 C46.5893,153.3914 47.0363,153.4754 47.4763,153.4754 C48.8573,153.4754 50.1653,152.6534 50.7183,151.2954 C51.4483,149.5054 50.5883,147.4624 48.7983,146.7334" id="dreadlocks_Fill-21" fill-opacity=".24" fill="#000" />
         <path d="M40.625,152.6084 C17.103,146.6094 11.63,118.2364 11.573,117.9294 C11.228,116.0294 9.409,114.7644 7.508,115.1114 C5.606,115.4544 4.342,117.2744 4.686,119.1764 C4.746,119.5144 6.231,127.5354 11.094,136.4594 C17.653,148.4954 27.267,156.4254 38.895,159.3914 C39.185,159.4654 39.476,159.5014 39.762,159.5014 C41.324,159.5014 42.748,158.4484 43.151,156.8654 C43.629,154.9924 42.498,153.0864 40.625,152.6084" id="dreadlocks_Fill-23" fill-opacity=".24" fill="#000" />
         <path d="M22.8613,154.2636 C11.1863,149.0166 6.8533,137.7826 6.7843,137.6016 C6.1183,135.7926 4.1133,134.8596 2.2993,135.5256 C0.4843,136.1886 -0.4497,138.1986 0.2133,140.0136 C0.4233,140.5876 5.5153,154.1426 19.9923,160.6486 C20.4583,160.8576 20.9453,160.9566 21.4243,160.9566 C22.7603,160.9566 24.0363,160.1886 24.6193,158.8906 C25.4113,157.1276 24.6243,155.0556 22.8613,154.2636" id="dreadlocks_Fill-25" fill-opacity=".24" fill="#000" />
         <path d="M145.6709,110.4082 C145.8289,108.4812 144.3959,106.7912 142.4699,106.6332 C140.5409,106.4812 138.8569,107.9042 138.6939,109.8282 C138.5999,110.9352 136.0879,137.0822 112.4049,146.7332 C110.6149,147.4632 109.7549,149.5062 110.4839,151.2962 C111.0379,152.6532 112.3469,153.4752 113.7279,153.4752 C114.1669,153.4752 114.6139,153.3912 115.0469,153.2162 C142.7709,141.9172 145.5659,111.6892 145.6709,110.4082" id="dreadlocks_Fill-28" fill-opacity=".24" fill="#000" />
         <path d="M150.1094,136.459 C154.9724,127.535 156.4574,119.515 156.5174,119.177 C156.8614,117.274 155.5974,115.454 153.6954,115.111 C151.7954,114.765 149.9754,116.029 149.6304,117.93 C149.5734,118.236 144.1004,146.609 120.5784,152.608 C118.7054,153.086 117.5744,154.992 118.0514,156.865 C118.4564,158.448 119.8804,159.501 121.4414,159.501 C121.7274,159.501 122.0184,159.466 122.3084,159.392 C133.9364,156.426 143.5494,148.495 150.1094,136.459" id="dreadlocks_Fill-30" fill-opacity=".24" fill="#000" />
         <path d="M158.9033,135.5254 C157.0903,134.8594 155.0853,135.7934 154.4193,137.6014 C154.3503,137.7824 150.0173,149.0164 138.3413,154.2634 C136.5793,155.0554 135.7923,157.1284 136.5843,158.8904 C137.1673,160.1884 138.4433,160.9574 139.7783,160.9574 C140.2573,160.9574 140.7453,160.8574 141.2113,160.6484 C155.6873,154.1424 160.7803,140.5874 160.9903,140.0134 C161.6533,138.1984 160.7183,136.1884 158.9033,135.5254" id="dreadlocks_Fill-32" fill-opacity=".24" fill="#000" />
      </g>
      <g id="dreadlocks_Facial-Hair" transform="translate(49.000000, 72.000000)"><defs>
        <path d="M92.8529444,110.772863 C92.4646999,110.690176 89.5136632,105.844079 83.9998344,96.2345713 C78.4862283,105.844079 75.5351917,110.690176 75.1467245,110.772863 C71.7624488,111.494309 69.0848316,110.462621 66.5712661,108.168569 C63.4212068,105.293259 61.0789787,94.1669555 59.5445817,74.7896583 C70.8461226,73.7591561 77.8028468,72.982027 80.4147542,72.4582708 C81.6840664,72.2035248 83.0706538,71.7508657 83.9998344,71 C84.929015,71.7508657 86.3159365,72.2035248 87.5845805,72.4582708 C90.1967107,72.982027 96.6092912,73.7591561 106.822322,74.7896583 C106.376658,94.1669555 104.578685,105.293259 101.428403,108.168569 C98.9148372,110.462621 96.23722,111.494309 92.8529444,110.772863 Z M119.485129,94.9574 C114.699289,80.7432272 111.022674,72.1397539 108.455284,69.1469801 C105.887895,66.1542063 100.78585,64.5245037 93.1491481,64.2578722 L74.8510547,64.2578722 C69.3311956,64.2578722 64.229038,65.8875748 59.5445817,69.1469801 C54.8601255,72.4063854 50.7221618,80.0360076 47.1306906,92.0358469 C43.5494525,94.4281216 47.6874162,99.3657372 59.5445817,106.848694 C64.2269942,109.803725 74.189578,112.02247 83.1742,112.02247 C92.158822,112.02247 103.277169,108.98551 108.455284,106.848694" id="wick_beard_facial-hairwick-beard-path-1" />
    </defs>
    <g id="wick_beard_Facial Hair/Wick Beard" stroke="none" stroke-width="1" fill="none" fill-rule="evenodd">
        <path d="M133.5472,25.575 L133.5472,63.866 C133.5472,70.516 120.4702,71.131 120.4702,71.131 L120.4702,86.356 C120.4702,91.474 110.1472,94.407 105.5142,95.466 C96.6236019,102.56883 89.9363032,106.124209 85.4523039,106.132137 C80.0074143,106.141765 71.8013797,102.612719 60.8342,95.545 C56.3992,94.559 45.5272,91.61 45.5272,86.356 L45.5272,71.131 C45.5272,71.131 32.4492,70.516 32.4492,63.866 L32.4492,25.575 C32.4492,24.153 31.2972,23 29.8752,23 C28.4532,23 27.3002,24.153 27.3002,25.575 L27.3002,64.096 C27.3022,64.096 27.3042,64.097 27.3062,64.097 C29.3732,83.903 41.7642,100.639 59.0012,108.827 C59.0012,108.827 83.0012,121.169 107.0022,108.827 C124.2392,100.638 136.6292,83.903 138.6962,64.098 L138.6962,25.575 C138.6962,24.153 137.5442,23 136.1212,23 C134.6992,23 133.5472,24.153 133.5472,25.575 Z" id="wick_beard_Combined-Shape" ns5:color="Hair-500" />
        <mask id="wick_beard_facial-hairwick-beard-mask-2" fill="#fff">
            <use xlink:href="#wick_beard_facial-hairwick-beard-path-1" />
        </mask>
        <use id="wick_beard_Lite-Beard" xlink:href="#wick_beard_facial-hairwick-beard-path-1" ns5:color="Hair-500" />
        <g id="wick_beard_Facial-Hair-Color" mask="url(#wick_beard_facial-hair-color-mask)" fill="#2C1B18">
            <rect x="0" y="0" width="264" height="264" />
        </g>
        <mask id="wick_beard_facial-hair-color-mask" fill="white">
            <use xlink:href="#wick_beard_Combined-Shape" />
            <use xlink:href="#wick_beard_Lite-Beard" />
        </mask>
    </g>
</g>
      <g id="dreadlocks_Accessory" transform="translate(62.000000, 85.000000)"><defs>
        <filter x="-3.1%" y="-9.8%" width="106.2%" height="119.5%" filterUnits="objectBoundingBox" id="wayfarers_filter-1">
            <feOffset dx="0" dy="2" in="SourceAlpha" result="shadowOffsetOuter1" />
            <feColorMatrix values="0 0 0 0 0   0 0 0 0 0   0 0 0 0 0  0 0 0 0.2 0" type="matrix" in="shadowOffsetOuter1" result="shadowMatrixOuter1" />
            <feMerge>
                <feMergeNode in="shadowMatrixOuter1" />
                <feMergeNode in="SourceGraphic" />
            </feMerge>
        </filter>
        <linearGradient x1="50%" y1="0%" x2="50%" y2="100%" id="wayfarers_linearGradient-2">
            <stop stop-color="#FFFFFF" stop-opacity="0.5" offset="0%" />
            <stop stop-color="#000000" stop-opacity="0.5" offset="70.5058195%" />
        </linearGradient>
        <path d="M44.9178864,17.5714286 C44.9178864,27.2737857 36.66775,35.1428571 22.9204545,35.1428571 L20.1704091,35.1428571 C6.42311364,35.1428571 0.923022727,27.2708571 0.923022727,17.5714286 L0.923022727,17.5714286 C0.923022727,7.86614286 2.20715909,0 21.4545455,0 L24.3863636,0 C43.63375,0 44.9178864,7.86614286 44.9178864,17.5714286 L44.9178864,17.5714286 Z" id="wayfarers_path-3" />
        <path d="M106.486068,17.5714286 C106.486068,27.2737857 98.2388636,35.1428571 84.4886364,35.1428571 L81.7385909,35.1428571 C67.9912955,35.1428571 62.4912045,27.2708571 62.4912045,17.5714286 L62.4912045,17.5714286 C62.4912045,7.86614286 63.7753409,0 83.0227273,0 L85.9545455,0 C105.199,0 106.486068,7.86614286 106.486068,17.5714286 L106.486068,17.5714286 Z" id="wayfarers_path-4" />
    </defs>
    <g id="wayfarers_Top/_Resources/Wayfarers" stroke="none" stroke-width="1" fill="none" fill-rule="evenodd">
        <g id="wayfarers_Wayfarers" filter="url(#wayfarers_filter-1)" transform="translate(7.000000, 7.000000)" fill-rule="nonzero">
            <g id="wayfarers_Shades" transform="translate(10.795455, 2.928571)">
                <g id="wayfarers_Shade">
                    <use fill-opacity="0.700000048" fill="#000000" xlink:href="#wayfarers_path-3" />
                    <use fill="url(#linearGradient-2)" style="mix-blend-mode: screen;" xlink:href="#wayfarers_path-3" />
                </g>
                <g id="wayfarers_Shade">
                    <use fill-opacity="0.700000048" fill="#000000" xlink:href="#wayfarers_path-4" />
                    <use fill="url(#linearGradient-2)" style="mix-blend-mode: screen;" xlink:href="#wayfarers_path-4" />
                </g>
            </g>
            <path d="M35.1818182,0 C56.8332955,0 58.6451591,10.127 58.6451591,20.5 C58.6451591,32.5686429 48.3955227,41 33.7159091,41 L30.9658636,41 C17.0778409,41 8.78665909,33.3359286 8.78665909,20.5 C8.78665909,10.127 10.5985227,0 32.25,0 L35.1818182,0 Z M35.1818182,5.85421429 L32.25,5.85421429 C14.6502955,5.85421429 14.6502955,12.3175714 14.6502955,20.5 C14.6502955,27.1800714 17.4795,35.1428571 30.9658636,35.1428571 L33.7159091,35.1428571 C44.9418409,35.1428571 52.7815227,29.1217143 52.7815227,20.5 L52.7810475,19.768351 C52.765683,11.935587 52.2535316,5.85421429 35.1818182,5.85421429 Z" id="wayfarers_Left" fill="#252C2F" />
            <path d="M96.75,0 C118.401477,0 120.213341,10.127 120.213341,20.5 C120.213341,32.5686429 109.963705,41 95.2840909,41 L92.5340455,41 C78.6460227,41 70.3548409,33.3359286 70.3548409,20.5 C70.3548409,10.127 72.1667045,0 93.8181818,0 L96.75,0 Z M96.75,5.85421429 L93.8181818,5.85421429 C76.2184773,5.85421429 76.2184773,12.3175714 76.2184773,20.5 C76.2184773,27.1800714 79.0506136,35.1428571 92.5340455,35.1428571 L95.2840909,35.1428571 C106.510023,35.1428571 114.349705,29.1217143 114.349705,20.5 L114.349229,19.768351 C114.333865,11.935587 113.821713,5.85421429 96.75,5.85421429 Z" id="wayfarers_Right" fill="#252C2F" />
            <path d="M2.93181818,5.85714286 C3.61786364,5.17185714 11.1233182,0 32.25,0 C49.9640455,0 53.7138409,1.88014286 59.3898409,4.72085714 L59.8053162,4.93054903 C60.1999353,5.07314243 62.2179351,5.77419634 64.5784525,5.85128811 C66.7290156,5.75689949 68.5684809,5.16080623 69.1059926,4.96981137 C75.5844654,1.74762081 81.9260118,0 96.75,0 C117.876682,0 125.382136,5.17185714 126.068182,5.85714286 C127.689477,5.85714286 129,7.16621429 129,8.78571429 L129,11.7142857 C129,13.3337857 127.689477,14.6428571 126.068182,14.6428571 C126.068182,14.6428571 120.204545,14.6428571 120.204545,17.5714286 C120.204545,20.5 117.272727,13.3337857 117.272727,11.7142857 L117.272727,8.8618831 C113.697201,7.46243482 107.296654,5.85714286 96.75,5.85714286 C84.9995538,5.85714286 79.1475515,6.98813142 74.1276604,9.10414393 L74.1837955,9.24257143 L71.6878772,10.2500422 L74.1813177,11.2582547 L71.981173,16.6874536 L69.263564,15.5885995 C69.0208516,15.4904597 68.4971539,15.3141463 67.770994,15.1309826 C65.7466083,14.6203594 63.6653786,14.4649153 61.8248214,14.8513001 C61.1495627,14.993056 60.5230576,15.2057795 59.9480988,15.4931011 L57.3260941,16.8033836 L54.7026238,11.5651815 L57.3246285,10.2548989 L57.3310023,10.251716 L54.8191364,9.23671429 L54.8992448,9.03890561 C50.5700368,6.97578666 46.5781927,5.85714286 32.25,5.85714286 C21.7038986,5.85714286 15.3034993,7.46145875 11.7272727,8.86093383 L11.7272727,11.7142857 C11.7272727,13.3337857 8.79545455,20.5 8.79545455,17.5714286 C8.79545455,14.6428571 2.93181818,14.6428571 2.93181818,14.6428571 C1.31345455,14.6428571 0,13.3337857 0,11.7142857 L0,8.78571429 C0,7.16621429 1.31345455,5.85714286 2.93181818,5.85714286 Z" id="wayfarers_Stuff" fill="#252C2F" />
        </g>
    </g>
</g>
   </g>
</g>
    </g>
</svg>