<svg xmlns="http://www.w3.org/2000/svg" xmlns:dc="http://purl.org/dc/elements/1.1/" xmlns:ns3="http://creativecommons.org/ns#" xmlns:ns5="http://design.blush" xmlns:rdf="http://www.w3.org/1999/02/22-rdf-syntax-ns#" xmlns:xlink="http://www.w3.org/1999/xlink" width="264px" height="280px" viewBox="0 0 264 280" version="1.1">
    <title id="transparent_Title">Avataaar/Default</title>
    <desc>Created with python_avatars</desc>
    <defs>
        <path d="M100,0 C130.927946,-5.68137151e-15 156,25.072054 156,56 L156.000809,62.1660527 C161.675838,63.1185422 166,68.05429 166,74 L166,88 C166,94.0524166 161.519235,99.0582945 155.693975,99.8813638 C153.627928,119.686472 141.237929,136.421678 124.001014,144.610469 L124,163 L128,163 C167.764502,163 200,195.235498 200,235 L200,244 L0,244 L0,235 C-4.86974701e-15,195.235498 32.235498,163 72,163 L76,163 L75.9999836,144.610943 C58.7625487,136.422324 46.3721119,119.686854 44.3051107,99.8809698 C38.480765,99.0582945 34,94.0524166 34,88 L34,74 C34,68.053942 38.3246685,63.1179645 44.0001873,62.1658855 L44,56 C44,25.072054 69.072054,5.68137151e-15 100,0 Z" id="transparent_path-1" />
        <path d="M83,36.3476251 C83,52.6289957 105.161905,65.8276544 132.5,65.8276544 C159.838095,65.8276544 182,52.6289957 182,36.3476251 C182,34.9853134 181.844841,33.6445843 181.544472,32.3313638 C210.784239,41.4879251 232,68.792221 232,101.051724 L232,110 L32,110 L32,101.051724 C32,68.3970853 53.7386736,40.8197864 83.5337207,32.0021267 C83.1821692,33.4207025 83,34.871494 83,36.3476251 Z" id="transparent_path-3" />
        <rect id="transparent_path-5" x="0" y="0" width="264" height="280" />
        <path d="M74,0 C114.869071,0 148,33.1309285 148,74 L148,84.1482318 L148,197.608051 C135.525121,187.236892 119.490913,181 102,181 L102,181 L98,181 L98,162.610951 C115.530782,154.282984 128.048193,137.114792 129.791419,116.867187 C135.569129,116.002364 140,111.018625 140,105 L140,105 L140,92 C140,87.3536213 137.359271,83.3240177 133.496777,81.3301515 C132.723933,81.0500337 131.951808,80.748163 131.180891,80.4262497 C130.794819,80.3202581 130.400778,80.2331546 130,80.1659169 L130,80.1659169 L130.000458,79.9172528 C117.224481,74.2339715 104.877985,63.0706967 96.1104311,47.8848473 C93.1752556,42.8009742 90.8310687,37.5951441 89.0661426,32.3970356 C80.4313947,42.9409152 67.7445474,53.6023901 52.3415164,62.4953343 C42.777598,68.0170651 33.1467898,72.2910056 24,75.2659587 L24.0003852,137.246608 C29.6019576,148.318362 38.7728825,157.277529 50,162.610951 L50,162.610951 L50,181 L46,181 C38.3273639,181 30.9350359,182.200142 24.0004995,184.422941 L24,230 C24,244.105888 13.5691766,255.775526 0,257.716445 L0,74 C0,33.1309285 33.1309285,0 74,0 Z" id="transparent_path-7" />
    </defs>
    <g id="transparent_Avataaar/Default" stroke="none" stroke-width="1" fill="none" fill-rule="evenodd">
        <g id="transparent_Body" transform="translate(32.000000, 36.000000)">
            <mask id="transparent_mask-2" fill="white">
                <use xlink:href="#transparent_path-1" />
            </mask>
            <use fill="#D0C6AC" xlink:href="#transparent_path-1" />
            <g id="transparent_Skin-Color" mask="url(#transparent_mask-2)" fill="#AE5D29">
                <g transform="translate(-32.000000, 0.000000)" id="transparent_Color">
                    <rect x="0" y="0" width="264" height="244" />
                </g>
            </g>
            <path d="M44,94 C44,124.927946 69.072054,150 100,150 C130.927946,150 156,124.927946 156,94 L156,94 L156,102 C156,132.927946 130.927946,158 100,158 C69.072054,158 44,132.927946 44,102 Z" id="transparent_Neck-Shadow" fill-opacity="0.100000001" fill="#000000" mask="url(#transparent_mask-2)" />
        </g>
        <g id="transparent_Clothing" transform="translate(0.000000, 170.000000)">
            
        <metadata id="gladiator_metadata28">
    <rdf:RDF>
      <ns3:Work rdf:about="">
        <dc:format>image/svg+xml</dc:format>
        <dc:type rdf:resource="http://purl.org/dc/dcmitype/StillImage" />
        <dc:title />
      </ns3:Work>
    </rdf:RDF>
  </metadata>
  <defs id="gladiator_defs26" />
  <g id="gladiator_Clothing/Gladiator" stroke="none" stroke-width="1" fill="none" fill-rule="evenodd">
    <g id="gladiator_Armor" transform="translate(56.000000, 27.000000)">
      <path id="gladiator_Fill-1" d="M 43.599609 1.0859375 C 25.891609 1.0859375 14.720703 7.0800781 14.720703 7.0800781 L 14.720703 38.820312 C 14.720703 39.109747 14.746878 39.392515 14.763672 39.677734 L 0.56054688 53.388672 L 0.56054688 83.634766 L 62.761719 83.634766 L 90.458984 83.634766 L 152.66016 83.634766 L 152.66016 53.388672 L 138.69922 39.912109 C 138.72634 39.550498 138.75391 39.188863 138.75391 38.820312 L 138.75391 7.0800781 C 138.75391 7.0800781 127.58495 1.0859375 109.87695 1.0859375 L 109.87695 22.884766 L 90.458984 22.884766 L 62.761719 22.884766 L 43.599609 22.884766 L 43.599609 1.0859375 z " transform="translate(-0.56,-1.0865385)" style="fill:#60ade6;fill-opacity:1" />
      <g id="gladiator_Fabric-Color" mask="url(#gladiator_fabric-mask)" fill="#929598">
        <rect x="0" y="0" width="264" height="110" id="gladiator_rect10" />
      </g>
      <mask id="gladiator_fabric-mask" fill="white">
        <use xlink:href="#gladiator_Fill-1" id="gladiator_use13" />
        <path d="m 14.1613,5.9939 c 0,0 11.17,-5.994 28.878,-5.994 v 37.734 c 0,7.975 -6.464,14.44 -14.439,14.44 v 0 c -7.974,0 -14.439,-6.465 -14.439,-14.44 z" id="gladiator_use15" fill="#60ade6" ns5:color="Top-500" />
        <path d="m 138.1945,5.9939 c 0,0 -11.17,-5.994 -28.878,-5.994 v 37.734 c 0,7.975 6.464,14.44 14.439,14.44 7.974,0 14.439,-6.465 14.439,-14.44 z" id="gladiator_use17" fill="#60ade6" ns5:color="Top-500" />
      </mask>
      <g id="gladiator_g849">
        <path d="M36.5011,37.0515 C36.5011,40.9635 33.3301,44.1345 29.4181,44.1345 C25.5051,44.1345 22.3341,40.9635 22.3341,37.0515 C22.3341,33.1395 25.5051,29.9685 29.4181,29.9685 C33.3301,29.9685 36.5011,33.1395 36.5011,37.0515" id="gladiator_Fill-10" fill-opacity=".24" fill="#000" />
        <path d="M130.839,37.0515 C130.839,40.9635 127.667,44.1345 123.755,44.1345 C119.843,44.1345 116.672,40.9635 116.672,37.0515 C116.672,33.1395 119.843,29.9685 123.755,29.9685 C127.667,29.9685 130.839,33.1395 130.839,37.0515" id="gladiator_Fill-12" fill-opacity=".24" fill="#000" />
        <path d="M33.6227,82.5486 L62.2017,82.5486 L89.8987,82.5486 L119.0577,82.5486 C112.9127,64.8676 96.1137,52.1736 76.3397,52.1736 C56.5667,52.1736 39.7687,64.8676 33.6227,82.5486" id="gladiator_Fill-14" fill-opacity=".24" fill="#000" />
        <path id="gladiator_Fill-2-8" d="m 43.038543,21.799022 v 15.935547 c 0,7.975 -6.464453,14.439453 -14.439453,14.439453 -7.684602,0 -13.948588,-6.008382 -14.394531,-13.582031 L 11.5112,41.1916 c 0.651,8.879001 8.042891,15.886719 17.08789,15.886719 9.474001,0 17.154297,-7.680297 17.154297,-17.154297 v -18.125 z" style="fill:#000000;fill-opacity:0.23999999" />
        <path id="gladiator_Fill-6-0" d="m 106.60281,21.799022 v 18.125 c 0,9.474 7.67834,17.152344 17.15235,17.152344 9.04599,-10e-7 16.43784,-7.005766 17.08984,-15.884766 l -2.69336,-2.599609 c -0.44594,7.573649 -6.71188,13.582031 -14.39648,13.582031 -7.975,0 -14.4375,-6.464453 -14.4375,-14.439453 V 21.799022 Z" style="fill:#000000;fill-opacity:0.23999999" />
      </g>
    </g>
  </g>
</g>
        <g id="transparent_Face" transform="translate(76.000000, 82.000000)" fill="#000000">
            <g id="transparent_Mouth" transform="translate(2.000000, 52.000000)">    
                
            <defs>
        <path d="M34.0082051,15.1361102 C35.1280248,29.123916 38.2345159,40.9925405 53.9961505,40.9999965 C69.757785,41.0074525 72.9169073,29.0566179 73.9942614,15.0063928 C74.0809675,13.8756222 73.1738581,12.9999965 72.0369872,12.9999965 C65.3505138,12.9999965 62.6703194,14.9936002 53.9894323,14.9999965 C45.3085452,15.0063928 40.7567994,12.9999965 36.0924943,12.9999965 C34.9490269,12.9999965 33.8961688,13.7366502 34.0082051,15.1361102 Z" id="scream_open_path-1" />
    </defs>
    <g id="scream_open_Mouth/Scream-Open" stroke="none" stroke-width="1" fill="none" fill-rule="evenodd">
        <mask id="scream_open_mask-2" fill="white">
            <use xlink:href="#scream_open_path-1" transform="translate(54.000000, 26.999998) scale(1, -1) translate(-54.000000, -26.999998)" />
        </mask>
        <use id="scream_open_Mouth" fill-opacity="0.699999988" fill="#000000" transform="translate(54.000000, 26.999998) scale(1, -1) translate(-54.000000, -26.999998)" xlink:href="#scream_open_path-1" />
        <path d="M44,2 L65,2 C67.7614237,2 70,4.23857625 70,7 L70,13 C70,15.7614237 67.7614237,18 65,18 L44,18 C41.2385763,18 39,15.7614237 39,13 L39,7 C39,4.23857625 41.2385763,2 44,2 Z" id="scream_open_Teeth" fill="#FFFFFF" mask="url(#scream_open_mask-2)" />
        <g id="scream_open_Tongue" mask="url(#scream_open_mask-2)" fill="#FF4F6D">
            <g transform="translate(38.000000, 32.000000)" id="scream_open_Say-ahhhh">
                <circle cx="11" cy="11" r="11" />
                <circle cx="21" cy="11" r="11" />
            </g>
        </g>
    </g>
</g>
            <g id="transparent_Nose" transform="translate(28.000000, 40.000000)" fill-opacity="0.16">
                
            <g id="default_Nose/Default" stroke="none" stroke-width="1" fill="none" fill-rule="evenodd" fill-opacity="0.16">
        <path d="M16,8 C16,12.418278 21.372583,16 28,16 L28,16 C34.627417,16 40,12.418278 40,8" id="default_Nose" fill="#000000" />
    </g>
</g>
            <g id="transparent_Eyes" transform="translate(0.000000, 8.000000)">
                
            <g id="heart_Eyes/Hearts-ðŸ˜" stroke="none" stroke-width="1" fill="none" fill-rule="evenodd" fill-opacity="0.8">
        <path d="M35.9583333,10 C33.4074091,10 30.8837273,11.9797894 29.5,13.8206358 C28.1106364,11.9797894 25.5925909,10 23.0416667,10 C17.5523182,10 14,13.3341032 14,17.6412715 C14,23.3708668 18.4118636,26.771228 23.0416667,30.376724 C24.695,31.6133636 27.8223436,34.7777086 28.2083333,35.470905 C28.5943231,36.1641015 30.3143077,36.1885229 30.7916667,35.470905 C31.2690257,34.7532872 34.3021818,31.6133636 35.9583333,30.376724 C40.5853182,26.771228 45,23.3708668 45,17.6412715 C45,13.3341032 41.4476818,10 35.9583333,10 Z" id="heart_Heart" fill="#FF5353" fill-rule="nonzero" />
        <path d="M88.9583333,10 C86.4074091,10 83.8837273,11.9797894 82.5,13.8206358 C81.1106364,11.9797894 78.5925909,10 76.0416667,10 C70.5523182,10 67,13.3341032 67,17.6412715 C67,23.3708668 71.4118636,26.771228 76.0416667,30.376724 C77.695,31.6133636 80.8223436,34.7777086 81.2083333,35.470905 C81.5943231,36.1641015 83.3143077,36.1885229 83.7916667,35.470905 C84.2690257,34.7532872 87.3021818,31.6133636 88.9583333,30.376724 C93.5853182,26.771228 98,23.3708668 98,17.6412715 C98,13.3341032 94.4476818,10 88.9583333,10 Z" id="heart_Heart" fill="#FF5353" fill-rule="nonzero" />
    </g>
</g>
            <g id="transparent_Eyebrow" fill-opacity="0.599999964">
                
            <g id="raised_excited_natural_Eyebrow/Natural/Raised-Excited-Natural" stroke="none" stroke-width="1" fill="none" fill-rule="evenodd" fill-opacity="0.599999964">
        <path d="M22.7663531,1.57844898 L23.6772984,1.17582144 C28.9190996,-0.905265751 36.8645466,-0.0328729562 41.7227321,2.29911638 C42.2897848,2.57148957 41.9021563,3.4519421 41.3211012,3.40711006 C26.4021788,2.25602197 16.3582869,11.5525942 12.9460869,17.8470939 C12.8449215,18.0337142 12.5391523,18.05489 12.4635344,17.8808353 C10.156283,12.5620676 16.9134476,3.89614725 22.7663531,1.57844898 Z" id="raised_excited_natural_Eye-Browse-Reddit" fill="#000000" />
        <path d="M80.7663531,1.57844898 L81.6772984,1.17582144 C86.9190996,-0.905265751 94.8645466,-0.0328729562 99.7227321,2.29911638 C100.289785,2.57148957 99.9021563,3.4519421 99.3211012,3.40711006 C84.4021788,2.25602197 74.3582869,11.5525942 70.9460869,17.8470939 C70.8449215,18.0337142 70.5391523,18.05489 70.4635344,17.8808353 C68.156283,12.5620676 74.9134476,3.89614725 80.7663531,1.57844898 Z" id="raised_excited_natural_Eye-Browse-Reddit" fill="#000000" transform="translate(85.000000, 9.000000) scale(-1, 1) translate(-85.000000, -9.000000) " />
    </g>
</g>
        </g>
        <g id="transparent_Top">
            
        <g id="braids_Hairstyle/Braids" stroke="none" stroke-width="1" fill="none" fill-rule="evenodd">
        <g id="braids_Group-30" transform="translate(73.000000, -8.000000)">
            <path d="M107.3663,67.8552 C107.3023,67.7452 107.2353,67.6352 107.1713,67.5262 C107.2363,67.6352 107.3023,67.7452 107.3663,67.8552 M108.1303,69.2092 C108.0683,69.0962 108.0053,68.9822 107.9413,68.8692 C108.0053,68.9822 108.0683,69.0962 108.1303,69.2092 M108.6713,70.2322 C108.7293,70.3462 108.7893,70.4592 108.8463,70.5722 C108.7893,70.4592 108.7293,70.3462 108.6713,70.2322 M106.5533,66.5132 C106.4873,66.4072 106.4193,66.3022 106.3523,66.1962 C106.4203,66.3022 106.4873,66.4072 106.5533,66.5132 M124.6713,5.4912 C123.0333,4.0132 120.5113,4.1432 119.0283,5.7782 C118.7343,6.1042 118.5213,6.4692 118.3523,6.8502 C114.3033,5.3152 109.9163,4.4692 105.3293,4.4692 C105.1523,4.4692 104.9783,4.4802 104.8033,4.4822 C102.9703,2.9012 101.7383,1.9712 101.4863,1.7842 C99.7113,0.4712 97.2113,0.8452 95.8953,2.6182 C95.1723,3.5932 94.9753,4.7872 95.2263,5.8852 C92.2383,6.7372 89.4063,7.9562 86.7813,9.4922 C85.9263,8.9192 85.3683,8.5792 85.2023,8.4802 C83.3073,7.3472 80.8583,7.9632 79.7203,9.8542 C78.8153,11.3612 79.0353,13.2162 80.1123,14.4882 C77.6853,16.7752 75.5653,19.3832 73.8313,22.2522 C72.6783,21.7552 71.9273,21.5052 71.7483,21.4492 C69.6473,20.7912 67.4183,21.9532 66.7473,24.0502 C66.0763,26.1472 67.2363,28.3952 69.3303,29.0752 C69.4453,29.1132 69.8493,29.2512 70.4733,29.5102 C69.2323,33.1982 68.5503,37.1422 68.5503,41.2482 C68.5503,42.3052 68.6043,43.3492 68.6923,44.3842 C67.0303,44.1992 65.3083,44.0652 63.5283,43.9852 L63.5283,43.8872 C63.5283,41.6782 61.7373,39.8872 59.5283,39.8872 C57.3193,39.8872 55.5283,41.6782 55.5283,43.8872 L55.5283,43.9852 C52.1103,44.1402 48.9123,44.4922 45.9223,45.0212 L45.8663,44.8122 C45.3013,42.6762 43.1113,41.4052 40.9763,41.9692 C38.8403,42.5352 37.5683,44.7252 38.1333,46.8602 L38.1483,46.9162 C35.8263,47.6532 33.6503,48.5052 31.6233,49.4672 L31.4523,48.9872 C30.7113,46.9072 28.4263,45.8202 26.3423,46.5612 C24.2613,47.3022 23.1753,49.5902 23.9163,51.6712 L24.5993,53.5902 C22.3003,55.2302 20.2423,57.0252 18.4033,58.9362 C17.2673,58.2532 15.8223,58.1412 14.5503,58.7772 C12.5753,59.7682 11.7773,62.1712 12.7663,64.1462 L13.3213,65.2522 C12.1003,67.0722 11.0193,68.9442 10.0703,70.8442 C8.8193,70.1262 7.2303,70.0962 5.9303,70.9242 C4.0693,72.1132 3.5233,74.5862 4.7123,76.4482 L6.6193,79.4352 C5.7783,82.1002 5.1353,84.7382 4.6493,87.2802 C3.3373,87.0642 1.9493,87.4982 1.0043,88.5672 C-0.4597,90.2222 -0.3047,92.7502 1.3503,94.2132 L3.4793,96.0972 C3.1313,100.6572 3.2253,104.4112 3.3783,106.7012 C4.1673,118.5752 11.1253,118.4382 11.1253,106.2702 C11.1253,105.0712 11.2123,103.7552 11.3983,102.3612 C11.6523,102.4112 11.9083,102.4402 12.1653,102.4402 C13.2713,102.4402 14.3723,101.9842 15.1633,101.0902 C16.6273,99.4362 16.4713,96.9082 14.8173,95.4442 L13.5333,94.3092 C13.9713,93.2142 14.4743,92.1112 15.0593,91.0092 C15.4743,91.1492 15.9083,91.2282 16.3463,91.2282 C17.0833,91.2282 17.8293,91.0242 18.4953,90.5992 C20.3573,89.4102 20.9033,86.9372 19.7143,85.0752 L19.4483,84.6592 C20.1953,83.8042 20.9943,82.9642 21.8663,82.1482 C22.6313,83.1752 23.8283,83.7602 25.0693,83.7602 C25.6723,83.7602 26.2833,83.6232 26.8593,83.3352 C28.8333,82.3452 29.6323,79.9412 28.6423,77.9662 L28.3243,77.3322 C29.5683,76.5942 30.8993,75.9012 32.3153,75.2532 L32.4523,75.6382 C33.0353,77.2752 34.5763,78.2962 36.2203,78.2962 C36.6653,78.2962 37.1183,78.2222 37.5623,78.0632 C39.6433,77.3222 40.7293,75.0342 39.9883,72.9532 L39.8403,72.5382 C41.3613,72.1192 42.9683,71.7562 44.6433,71.4382 L44.7443,71.8192 C45.2193,73.6122 46.8373,74.7962 48.6083,74.7962 C48.9473,74.7962 49.2923,74.7532 49.6353,74.6622 C51.5643,74.1512 52.7753,72.3132 52.5763,70.3892 C53.5403,70.3142 54.5303,70.2582 55.5373,70.2152 C55.5863,72.3822 57.3493,74.1262 59.5283,74.1262 C61.7073,74.1262 63.4703,72.3822 63.5193,70.2152 C64.6633,70.2642 65.7803,70.3322 66.8683,70.4212 C66.6863,72.3342 67.8963,74.1542 69.8153,74.6622 C70.1583,74.7532 70.5033,74.7962 70.8423,74.7962 C72.6123,74.7962 74.2313,73.6122 74.7063,71.8192 L74.7883,71.5102 C76.4603,71.8372 78.0553,72.2142 79.5723,72.6432 L79.4623,72.9532 C78.7203,75.0342 79.8063,77.3222 81.8873,78.0632 C82.3313,78.2222 82.7843,78.2962 83.2293,78.2962 C84.8743,78.2962 86.4153,77.2752 86.9983,75.6382 L87.0783,75.4132 C88.4813,76.0702 89.8003,76.7722 91.0323,77.5182 L90.8073,77.9662 C89.8173,79.9412 90.6163,82.3452 92.5913,83.3352 C93.1663,83.6232 93.7783,83.7602 94.3813,83.7602 C95.5333,83.7602 96.6463,83.2542 97.4133,82.3592 C98.2873,83.1902 99.0933,84.0452 99.8383,84.9162 L99.7363,85.0752 C98.5473,86.9372 99.0933,89.4102 100.9543,90.5992 C101.6213,91.0242 102.3663,91.2282 103.1033,91.2282 C103.4233,91.2282 103.7403,91.1882 104.0493,91.1132 C104.6573,92.2682 105.1763,93.4222 105.6243,94.5682 L104.6333,95.4442 C102.9783,96.9082 102.8233,99.4362 104.2873,101.0902 C105.0773,101.9842 106.1793,102.4402 107.2843,102.4402 C107.4113,102.4402 107.5383,102.4192 107.6653,102.4072 C107.8473,103.7842 107.9313,105.0842 107.9313,106.2702 C107.9313,118.4382 114.8893,118.5752 115.6793,106.7012 C115.8273,104.4652 115.9233,100.8362 115.6023,96.4222 L118.0993,94.2132 C119.7553,92.7502 119.9103,90.2222 118.4463,88.5672 C117.4093,87.3942 115.8413,86.9912 114.4253,87.3672 C113.9613,84.9302 113.3543,82.4032 112.5663,79.8482 L114.2683,77.1822 C114.8143,78.6262 116.1723,79.6862 117.8123,79.7662 C117.8793,79.7702 117.9453,79.7712 118.0123,79.7712 C120.1313,79.7712 121.8983,78.1072 122.0043,75.9682 C122.0373,75.3022 122.0593,74.6412 122.0743,73.9842 C124.1753,72.9082 126.1593,71.6362 128.0013,70.1922 C128.6753,70.9622 129.6403,71.4762 130.7413,71.5512 C130.8333,71.5572 130.9263,71.5602 131.0163,71.5602 C133.1013,71.5602 134.8593,69.9432 135.0043,67.8322 C135.1203,66.1292 135.1393,64.4592 135.1183,62.8062 C137.3483,59.7312 139.1193,56.3022 140.3173,52.6132 C140.6423,52.6992 140.9783,52.7592 141.3303,52.7592 C141.3743,52.7592 141.4193,52.7592 141.4643,52.7572 C143.6723,52.6852 145.4023,50.8352 145.3303,48.6272 C144.5083,23.6682 125.4803,6.2212 124.6713,5.4912" id="braids_Hair-Color" fill="#E8E1E1" ns5:color="Hair-500" />
            <path d="M59.5284,39.887 C57.3194,39.887 55.5284,41.678 55.5284,43.887 L55.5284,70.127 C55.5284,72.336 57.3194,74.127 59.5284,74.127 C61.7374,74.127 63.5284,72.336 63.5284,70.127 L63.5284,43.887 C63.5284,41.678 61.7374,39.887 59.5284,39.887" id="braids_Fill-4" fill-opacity=".24" fill="#000" />
            <path d="M45.8667,44.8123 C45.3017,42.6763 43.1117,41.4053 40.9757,41.9693 C38.8407,42.5353 37.5677,44.7253 38.1337,46.8603 L44.7437,71.8193 C45.2187,73.6123 46.8377,74.7963 48.6087,74.7963 C48.9477,74.7963 49.2917,74.7533 49.6347,74.6623 C51.7707,74.0973 53.0427,71.9073 52.4777,69.7713 L45.8667,44.8123 Z" id="braids_Fill-6" fill-opacity=".24" fill="#000" />
            <path d="M31.4522,48.9871 C30.7112,46.9071 28.4262,45.8201 26.3422,46.5611 C24.2612,47.3021 23.1752,49.5911 23.9162,51.6721 L32.4522,75.6381 C33.0352,77.2751 34.5762,78.2971 36.2202,78.2971 C36.6652,78.2971 37.1192,78.2221 37.5622,78.0641 C39.6432,77.3221 40.7292,75.0341 39.9882,72.9531 L31.4522,48.9871 Z" id="braids_Fill-8" fill-opacity=".24" fill="#000" />
            <path d="M19.919,60.5613 C18.93,58.5863 16.525,57.7903 14.55,58.7773 C12.576,59.7683 11.777,62.1713 12.767,64.1463 L21.49,81.5513 C22.192,82.9513 23.604,83.7603 25.069,83.7603 C25.672,83.7603 26.284,83.6233 26.859,83.3353 C28.834,82.3453 29.632,79.9413 28.643,77.9663 L19.919,60.5613 Z" id="braids_Fill-10" fill-opacity=".24" fill="#000" />
            <path d="M11.4546,72.1428 C10.2656,70.2808 7.7936,69.7368 5.9306,70.9248 C4.0686,72.1138 3.5236,74.5868 4.7126,76.4488 L12.9716,89.3808 C13.7346,90.5758 15.0266,91.2278 16.3466,91.2278 C17.0836,91.2278 17.8296,91.0248 18.4956,90.5988 C20.3576,89.4098 20.9026,86.9368 19.7136,85.0748 L11.4546,72.1428 Z" id="braids_Fill-12" fill-opacity=".24" fill="#000" />
            <path d="M6.6499,88.2215 C4.9959,86.7575 2.4679,86.9115 1.0039,88.5675 C-0.4601,90.2225 -0.3051,92.7505 1.3499,94.2135 L9.5169,101.4365 C10.2779,102.1105 11.2239,102.4405 12.1659,102.4405 C13.2719,102.4405 14.3729,101.9845 15.1629,101.0905 C16.6269,99.4355 16.4719,96.9085 14.8169,95.4445 L6.6499,88.2215 Z" id="braids_Fill-14" fill-opacity=".24" fill="#000" />
            <path d="M78.4737,41.9695 C76.3387,41.4055 74.1487,42.6765 73.5827,44.8125 L66.9727,69.7715 C66.4077,71.9065 67.6797,74.0965 69.8157,74.6625 C70.1587,74.7535 70.5027,74.7965 70.8417,74.7965 C72.6127,74.7965 74.2317,73.6125 74.7057,71.8195 L81.3167,46.8605 C81.8817,44.7245 80.6097,42.5345 78.4737,41.9695" id="braids_Fill-17" fill-opacity=".24" fill="#000" />
            <path d="M104.8995,58.7776 C104.2315,58.4436 103.5155,58.3286 102.8205,58.3796 C95.0555,29.1756 72.8415,21.7936 71.7485,21.4496 C69.6475,20.7906 67.4185,21.9536 66.7475,24.0496 C66.0765,26.1476 67.2365,28.3956 69.3305,29.0756 C70.0415,29.3066 81.4945,33.2286 89.5715,47.0026 C88.8705,47.4636 88.3005,48.1356 87.9985,48.9866 L79.4625,72.9536 C78.7205,75.0346 79.8065,77.3226 81.8875,78.0636 C82.3315,78.2216 82.7845,78.2966 83.2295,78.2966 C84.8745,78.2966 86.4155,77.2756 86.9985,75.6376 L94.7685,53.8196 C97.0055,55.4456 99.0105,57.2196 100.8045,59.1046 C100.2855,59.4716 99.8365,59.9526 99.5315,60.5616 L90.8075,77.9666 C89.8175,79.9416 90.6165,82.3446 92.5905,83.3356 C93.1665,83.6236 93.7785,83.7596 94.3805,83.7596 C95.8465,83.7596 97.2575,82.9516 97.9605,81.5516 L106.6835,64.1466 C107.6725,62.1716 106.8745,59.7676 104.8995,58.7776" id="braids_Fill-19" fill-opacity=".24" fill="#000" />
            <path d="M112.7999,88.2215 L104.6329,95.4445 C102.9789,96.9085 102.8229,99.4355 104.2869,101.0905 C105.0769,101.9845 106.1789,102.4405 107.2839,102.4405 C108.2269,102.4405 109.1719,102.1105 109.9329,101.4365 L118.0999,94.2135 C119.7549,92.7505 119.9099,90.2225 118.4459,88.5675 C116.9829,86.9115 114.4539,86.7575 112.7999,88.2215" id="braids_Fill-21" fill-opacity=".24" fill="#000" />
            <path d="M85.2022,8.4798 C83.3072,7.3468 80.8582,7.9628 79.7212,9.8538 C78.5852,11.7458 79.1972,14.2018 81.0882,15.3408 C81.4242,15.5428 113.4062,35.2608 114.0652,71.3558 C113.8962,71.2008 113.7192,71.0518 113.5192,70.9248 C111.6562,69.7368 109.1842,70.2808 107.9952,72.1428 L99.7362,85.0748 C98.5472,86.9368 99.0932,89.4098 100.9542,90.5988 C101.6212,91.0248 102.3662,91.2288 103.1032,91.2288 C104.4232,91.2288 105.7152,90.5758 106.4782,89.3808 L114.2682,77.1818 C114.8142,78.6258 116.1722,79.6858 117.8122,79.7668 C117.8792,79.7698 117.9452,79.7718 118.0122,79.7718 C120.1312,79.7718 121.8982,78.1068 122.0042,75.9678 C124.1512,32.3138 86.7932,9.4328 85.2022,8.4798" id="braids_Fill-23" fill-opacity=".24" fill="#000" />
            <path d="M101.4864,1.7844 C99.7114,0.4714 97.2114,0.8454 95.8954,2.6174 C94.5804,4.3904 94.9524,6.8954 96.7234,8.2124 C97.0494,8.4554 129.3654,32.8974 127.0214,67.2884 C126.8724,69.4924 128.5374,71.4004 130.7414,71.5514 C130.8334,71.5574 130.9254,71.5604 131.0164,71.5604 C133.1014,71.5604 134.8594,69.9434 135.0044,67.8324 C137.6484,29.0184 102.9644,2.8784 101.4864,1.7844" id="braids_Fill-25" fill-opacity=".24" fill="#000" />
            <path d="M124.6709,5.491 C123.0329,4.013 120.5109,4.143 119.0279,5.779 C117.5469,7.414 117.6729,9.943 119.3069,11.426 C119.4809,11.583 136.6259,27.394 137.3339,48.891 C137.4049,51.054 139.1819,52.76 141.3299,52.76 C141.3739,52.76 141.4189,52.759 141.4639,52.758 C143.6719,52.685 145.4019,50.836 145.3299,48.628 C144.5079,23.669 125.4809,6.221 124.6709,5.491" id="braids_Fill-27" fill-opacity=".24" fill="#000" />
        </g>
        <g id="braids_Facial-Hair" transform="translate(49.000000, 72.000000)" />
        <g id="braids_Accessory" transform="translate(62.000000, 85.000000)"><g id="wayfarers_2_Accesories/Wayfarers" stroke="none" stroke-width="1" fill="none" fill-rule="evenodd"><path d="M100.529931,9 L103.5,9 C124.790455,9 132.354091,14.0962914 133.045455,14.7715644 C134.679318,14.7715644 136,16.061509 136,17.6573466 L136,20.5431288 C136,22.0819721 134.771968,23.3363819 133.219267,23.4240198 L132.612705,23.4391531 C131.44626,23.4830476 128.230186,23.7150617 126.820725,24.9414221 C126.960175,26.434022 127,27.9643151 127,29.5 C127,41.5686429 116.721275,50 102,50 L99.2421498,50 C85.3147125,50 77,42.3359286 77,29.5 C77,27.9522934 77.0404506,26.4100634 77.1814034,24.906131 L75.8004908,24.3608351 C75.5558969,24.2641292 75.0281396,24.090392 74.2963505,23.9099044 C72.256272,23.4067419 70.1589087,23.253569 68.3040836,23.6343084 C67.6235903,23.7739931 66.9922286,23.9836085 66.4128127,24.266732 L64.8308166,25.0394014 C64.9619021,26.5011097 65,27.9979759 65,29.5 C65,41.5686429 54.7212748,50 40,50 L37.2421498,50 C23.3147125,50 15,42.3359286 15,29.5 C15,28.6610668 15.0118851,27.8237427 15.0452193,26.9932548 C14.930996,26.9593697 14.8636364,26.7504239 14.8636364,26.3146932 C14.8636364,23.8880127 10.6851521,23.5019499 9.35563443,23.4405308 L8.95454545,23.428911 C7.32363636,23.428911 6,22.1389663 6,20.5431288 L6,17.6573466 C6,16.061509 7.32363636,14.7715644 8.95454545,14.7715644 L9.07093469,14.6699199 C10.2604418,13.7068794 17.8996241,9.09744476 37.8653976,9.00151937 L41.4700694,9 C42.7306767,9 43.9242203,9.0341353 45.0542384,9.10047223 C57.4173567,9.52253128 60.909731,11.2341396 65.8502273,13.6518809 L66.2689233,13.858509 L66.5639301,13.9581917 C67.3005076,14.1970236 69.0662164,14.7015168 71.0790606,14.7657952 C73.2462948,14.6727857 75.1000195,14.0854019 75.641698,13.8971977 L76.3244551,13.570396 C81.33305,11.2128779 86.4386483,9.71580366 95.5614746,9.20060541 C97.0895989,9.06864066 98.7423376,9 100.529931,9 Z M42.1732992,15.0019264 L38.3853606,15 C19.5815608,15 19.0174468,21.4367119 19.0005234,29.7271501 L19,30.5015498 C19,37.5719428 22.116254,46 36.9709365,46 L40,46 C52.3649085,46 61,39.6270373 61,30.5015498 L60.993687,28.7414887 C60.9091306,21.0134217 59.6920357,15.1237886 42.1732992,15.0019264 L42.1732992,15.0019264 Z M103.614639,15 L100.385361,15 C81.5815608,15 81.0174468,21.4367119 81.0005234,29.7271501 L81,30.5015498 C81,37.5719428 84.1194833,46 98.9709365,46 L102,46 C114.364909,46 123,39.6270373 123,30.5015498 L122.993351,28.711307 C122.905012,20.9167947 121.643025,15 103.614639,15 Z" id="wayfarers_2_Shape" fill-opacity=".16" fill="#000" /><g id="wayfarers_2_Wayfarers" transform="translate(7.000000, 7.000000)" fill-rule="nonzero"><g id="wayfarers_2_Shades" transform="translate(10.795455, 2.928571)" fill="#150662" fill-opacity=".7"><path d="M44.9178864,17.5714286 C44.9178864,27.2737857 36.66775,35.1428571 22.9204545,35.1428571 L20.1704091,35.1428571 C6.42311364,35.1428571 0.923022727,27.2708571 0.923022727,17.5714286 L0.923022727,17.5714286 C0.923022727,7.86614286 2.20715909,0 21.4545455,0 L24.3863636,0 C43.63375,0 44.9178864,7.86614286 44.9178864,17.5714286 L44.9178864,17.5714286 Z" id="wayfarers_2_Shade" /><path d="M106.486068,17.5714286 C106.486068,27.2737857 98.2388636,35.1428571 84.4886364,35.1428571 L81.7385909,35.1428571 C67.9912955,35.1428571 62.4912045,27.2708571 62.4912045,17.5714286 L62.4912045,17.5714286 C62.4912045,7.86614286 63.7753409,0 83.0227273,0 L85.9545455,0 C105.199,0 106.486068,7.86614286 106.486068,17.5714286 L106.486068,17.5714286 Z" id="wayfarers_2_Shade" /></g><path d="M35.1818182,0 C56.8332955,0 58.6451591,10.127 58.6451591,20.5 C58.6451591,32.5686429 48.3955227,41 33.7159091,41 L30.9658636,41 C17.0778409,41 8.78665909,33.3359286 8.78665909,20.5 C8.78665909,10.127 10.5985227,0 32.25,0 L35.1818182,0 Z M35.1818182,5.85421429 L32.25,5.85421429 C14.6502955,5.85421429 14.6502955,12.3175714 14.6502955,20.5 C14.6502955,27.1800714 17.4795,35.1428571 30.9658636,35.1428571 L33.7159091,35.1428571 C44.9418409,35.1428571 52.7815227,29.1217143 52.7815227,20.5 L52.7810475,19.768351 C52.765683,11.935587 52.2535316,5.85421429 35.1818182,5.85421429 Z" id="wayfarers_2_Left" fill="#252C2F" /><path d="M96.75,0 C118.401477,0 120.213341,10.127 120.213341,20.5 C120.213341,32.5686429 109.963705,41 95.2840909,41 L92.5340455,41 C78.6460227,41 70.3548409,33.3359286 70.3548409,20.5 C70.3548409,10.127 72.1667045,0 93.8181818,0 L96.75,0 Z M96.75,5.85421429 L93.8181818,5.85421429 C76.2184773,5.85421429 76.2184773,12.3175714 76.2184773,20.5 C76.2184773,27.1800714 79.0506136,35.1428571 92.5340455,35.1428571 L95.2840909,35.1428571 C106.510023,35.1428571 114.349705,29.1217143 114.349705,20.5 L114.349229,19.768351 C114.333865,11.935587 113.821713,5.85421429 96.75,5.85421429 Z" id="wayfarers_2_Right" fill="#252C2F" /><path d="M2.93181818,5.85714286 C3.61786364,5.17185714 11.1233182,0 32.25,0 C49.9640455,0 53.7138409,1.88014286 59.3898409,4.72085714 L59.8053162,4.93054903 C60.1999353,5.07314243 62.2179351,5.77419634 64.5784525,5.85128811 C66.7290156,5.75689949 68.5684809,5.16080623 69.1059926,4.96981137 C75.5844654,1.74762081 81.9260118,0 96.75,0 C117.876682,0 125.382136,5.17185714 126.068182,5.85714286 C127.689477,5.85714286 129,7.16621429 129,8.78571429 L129,11.7142857 C129,13.3337857 127.689477,14.6428571 126.068182,14.6428571 C126.068182,14.6428571 120.204545,14.6428571 120.204545,17.5714286 C120.204545,20.5 117.272727,13.3337857 117.272727,11.7142857 L117.272727,8.8618831 C113.697201,7.46243482 107.296654,5.85714286 96.75,5.85714286 C84.9995538,5.85714286 79.1475515,6.98813142 74.1276604,9.10414393 L74.1837955,9.24257143 L71.6878772,10.2500422 L74.1813177,11.2582547 L71.981173,16.6874536 L69.263564,15.5885995 C69.0208516,15.4904597 68.4971539,15.3141463 67.770994,15.1309826 C65.7466083,14.6203594 63.6653786,14.4649153 61.8248214,14.8513001 C61.1495627,14.993056 60.5230576,15.2057795 59.9480988,15.4931011 L57.3260941,16.8033836 L54.7026238,11.5651815 L57.3246285,10.2548989 L57.3310023,10.251716 L54.8191364,9.23671429 L54.8992448,9.03890561 C50.5700368,6.97578666 46.5781927,5.85714286 32.25,5.85714286 C21.7038986,5.85714286 15.3034993,7.46145875 11.7272727,8.86093383 L11.7272727,11.7142857 C11.7272727,13.3337857 8.79545455,20.5 8.79545455,17.5714286 C8.79545455,14.6428571 2.93181818,14.6428571 2.93181818,14.6428571 C1.31345455,14.6428571 0,13.3337857 0,11.7142857 L0,8.78571429 C0,7.16621429 1.31345455,5.85714286 2.93181818,5.85714286 Z" id="wayfarers_2_Stuff" fill="#252C2F" /></g></g></g>
    </g>
</g>
    </g>
</svg>