<svg xmlns="http://www.w3.org/2000/svg" xmlns:ns2="http://design.blush" xmlns:xlink="http://www.w3.org/1999/xlink" width="264px" height="280px" viewBox="0 0 264 280" version="1.1">
    <title id="transparent_Title">Avataaar/Default</title>
    <desc>Created with python_avatars</desc>
    <defs>
        <path d="M100,0 C130.927946,-5.68137151e-15 156,25.072054 156,56 L156.000809,62.1660527 C161.675838,63.1185422 166,68.05429 166,74 L166,88 C166,94.0524166 161.519235,99.0582945 155.693975,99.8813638 C153.627928,119.686472 141.237929,136.421678 124.001014,144.610469 L124,163 L128,163 C167.764502,163 200,195.235498 200,235 L200,244 L0,244 L0,235 C-4.86974701e-15,195.235498 32.235498,163 72,163 L76,163 L75.9999836,144.610943 C58.7625487,136.422324 46.3721119,119.686854 44.3051107,99.8809698 C38.480765,99.0582945 34,94.0524166 34,88 L34,74 C34,68.053942 38.3246685,63.1179645 44.0001873,62.1658855 L44,56 C44,25.072054 69.072054,5.68137151e-15 100,0 Z" id="transparent_path-1" />
        <path d="M83,36.3476251 C83,52.6289957 105.161905,65.8276544 132.5,65.8276544 C159.838095,65.8276544 182,52.6289957 182,36.3476251 C182,34.9853134 181.844841,33.6445843 181.544472,32.3313638 C210.784239,41.4879251 232,68.792221 232,101.051724 L232,110 L32,110 L32,101.051724 C32,68.3970853 53.7386736,40.8197864 83.5337207,32.0021267 C83.1821692,33.4207025 83,34.871494 83,36.3476251 Z" id="transparent_path-3" />
        <rect id="transparent_path-5" x="0" y="0" width="264" height="280" />
        <path d="M74,0 C114.869071,0 148,33.1309285 148,74 L148,84.1482318 L148,197.608051 C135.525121,187.236892 119.490913,181 102,181 L102,181 L98,181 L98,162.610951 C115.530782,154.282984 128.048193,137.114792 129.791419,116.867187 C135.569129,116.002364 140,111.018625 140,105 L140,105 L140,92 C140,87.3536213 137.359271,83.3240177 133.496777,81.3301515 C132.723933,81.0500337 131.951808,80.748163 131.180891,80.4262497 C130.794819,80.3202581 130.400778,80.2331546 130,80.1659169 L130,80.1659169 L130.000458,79.9172528 C117.224481,74.2339715 104.877985,63.0706967 96.1104311,47.8848473 C93.1752556,42.8009742 90.8310687,37.5951441 89.0661426,32.3970356 C80.4313947,42.9409152 67.7445474,53.6023901 52.3415164,62.4953343 C42.777598,68.0170651 33.1467898,72.2910056 24,75.2659587 L24.0003852,137.246608 C29.6019576,148.318362 38.7728825,157.277529 50,162.610951 L50,162.610951 L50,181 L46,181 C38.3273639,181 30.9350359,182.200142 24.0004995,184.422941 L24,230 C24,244.105888 13.5691766,255.775526 0,257.716445 L0,74 C0,33.1309285 33.1309285,0 74,0 Z" id="transparent_path-7" />
    </defs>
    <g id="transparent_Avataaar/Default" stroke="none" stroke-width="1" fill="none" fill-rule="evenodd">
        <g id="transparent_Body" transform="translate(32.000000, 36.000000)">
            <mask id="transparent_mask-2" fill="white">
                <use xlink:href="#transparent_path-1" />
            </mask>
            <use fill="#D0C6AC" xlink:href="#transparent_path-1" />
            <g id="transparent_Skin-Color" mask="url(#transparent_mask-2)" fill="#FFDBB4">
                <g transform="translate(-32.000000, 0.000000)" id="transparent_Color">
                    <rect x="0" y="0" width="264" height="244" />
                </g>
            </g>
            <path d="M44,94 C44,124.927946 69.072054,150 100,150 C130.927946,150 156,124.927946 156,94 L156,94 L156,102 C156,132.927946 130.927946,158 100,158 C69.072054,158 44,132.927946 44,102 Z" id="transparent_Neck-Shadow" fill-opacity="0.100000001" fill="#000000" mask="url(#transparent_mask-2)" />
        </g>
        <g id="transparent_Clothing" transform="translate(0.000000, 170.000000)">
            
        <defs>
        <path d="M99,32.5 C99,44.3741221 113.998461,54 132.5,54 C151.001539,54 166,44.3741221 166,32.5 C166,31.4019929 165.871751,30.3232102 165.624342,29.2694852 C202.75978,32.1370674 232,63.1796858 232,101.051724 L232,110 L32,110 L32,101.051724 C32,62.8342194 61.7761079,31.571298 99.3946469,29.196636 C99.1341902,30.2738104 99,31.3768477 99,32.5 Z" id="graphic_shirt_path-1" />
    </defs>
    <g id="graphic_shirt_Clothing/Graphic-Shirt" stroke="none" stroke-width="1" fill="none" fill-rule="evenodd">
        <mask id="graphic_shirt_mask-2" fill="white">
            <use xlink:href="#graphic_shirt_path-1" />
        </mask>
        <use id="graphic_shirt_Clothes" fill="#E6E6E6" xlink:href="#graphic_shirt_path-1" />
        <g id="graphic_shirt_Fabric-Color" mask="url(#graphic_shirt_mask-2)" fill="#B1E2FF">
            <rect id="graphic_shirt_ðŸ–Color" x="0" y="0" width="264" height="110" />
        </g>
        <g id="graphic_shirt_Graphic" fill="#FFFFFF" transform="translate(77.000000, 58.000000)">
        <g id="resist_Clothing/Graphic/Resist" stroke="none" stroke-width="1" fill="none" fill-rule="evenodd">
        <g id="resist_Resist" transform="translate(3.000000, 9.000000)" fill="#FFFFFF">
            <path d="M102.565245,21.0710109 C99.4833509,20.4054313 97.3728781,24.6059197 100.65303,25.85541 C103.46796,26.9271503 105.497722,21.7103865 102.565245,21.0710109" id="resist_!" />
            <path d="M101.191001,18 C104.847558,18 103.499462,12.0185653 103.512139,10.034892 C103.52569,7.89835492 105.057378,1.43936922 102.622588,0.300988793 C98.4060734,-1.67043963 99.5622709,6.62567562 99.5876242,8.26886181 C99.6156003,10.0850565 99.7546063,11.9885455 99.3594446,13.7770905 C99.009744,15.3574722 98.2303489,18 101.191001,18" id="resist_H" />
            <path d="M96.057932,1.97392328 C94.9756601,1.35173361 93.2567577,1.65427333 92.0711316,1.60022061 C90.7220251,1.53916824 89.3807782,1.40539746 88.0356015,1.30662485 C85.8592683,1.14718875 83.080101,0.743543202 80.9175222,1.23857286 C79.6922049,1.51933595 78.5800664,2.46389764 79.1565707,3.84671419 C79.777482,5.33646958 81.4602301,4.95187859 82.7370279,4.87682696 C83.3217848,4.84221766 84.7703158,4.58750876 85.3421043,4.78816493 C86.3390991,5.13853549 85.9154647,4.67967061 86.1430012,5.85522022 C86.491969,7.66229234 86.2825097,9.85512207 86.2675764,11.6929148 C86.2420326,14.8668599 86.2322081,18.0567485 86.1650082,21.2287493 C86.1386784,22.4645735 85.7244756,23.8606116 86.9218911,24.6768466 C87.9196719,25.3569777 89.1379155,24.9023904 89.6550795,23.8835548 C90.1694927,22.8705522 89.6806234,20.8169375 89.6259989,19.6876632 C89.5599779,18.3406226 89.4900272,17.0122476 89.5293254,15.6628738 C89.6330726,12.0775058 89.8110933,8.49563763 89.8971563,4.90910305 C90.8399197,4.95537841 91.8188373,4.92737987 92.7525621,5.05842857 C93.4359574,5.15409023 94.4184119,5.59351169 95.0754775,5.55890239 C96.9743656,5.45818543 97.7689748,2.97175996 96.057932,1.97392328" id="resist_C" />
            <path d="M67.7216119,8.81264097 C67.7100258,8.75972031 67.6397369,8.1691564 67.7216119,8.81264097 M67.6853088,8.53730013 C67.6887847,8.56222653 67.685695,8.5449698 67.6853088,8.53730013 M69.1169633,5.42725256 C72.533315,1.44593148 73.7004204,9.77441647 76.3625176,9.42199554 C80.623109,8.85827545 75.4217272,2.46944776 73.6942412,1.64649312 C70.1786354,-0.0289443454 67.0886252,1.72587411 65.4167525,4.9126183 C63.3188978,8.91234656 64.6466637,11.6208874 68.6751471,13.3572987 C70.1461943,13.9915796 75.714469,15.8848355 74.2051877,18.3157346 C73.4451402,19.5398125 70.6791544,19.6445033 69.5047111,19.402142 C67.1492591,18.916269 67.5161519,17.3159942 66.3699015,15.8288469 C65.3371947,14.4885737 63.3397528,14.8820273 63.028087,16.6100019 C62.7828481,17.9675319 64.198282,20.0348891 65.1433208,20.9897619 C67.3759602,23.2457927 71.1831493,23.4271802 74.0298516,22.3998291 C78.4155727,20.816811 78.9473743,16.6909168 75.8357368,13.4953526 C74.0870096,11.6995014 71.9026455,11.154572 69.7225296,10.0773681 C67.0781977,8.7712248 67.5725376,7.68673472 69.1169633,5.42725256" id="resist_A" />
            <path d="M58.749962,20.5676943 C58.1855671,15.7434329 58.0538346,10.8505093 57.9696387,6.00460433 C57.9426476,4.45075032 58.6758373,0.798596322 56.5169562,0.139962235 C53.6023258,-0.749287073 53.9890632,2.83233897 54.0502966,4.30372379 C54.255348,9.21679823 54.8922562,14.0929294 55.1210758,19.0000333 C55.193992,20.5568726 54.6924419,23.5739018 56.9520358,23.9463193 C59.7027058,24.4000865 58.9598476,21.8648117 58.749962,20.5676943" id="resist_E" />
            <path d="M49.4716454,4.67909741 C47.1120678,1.521124 42.3181606,1.01110068 39.382093,3.92183601 C37.3101733,5.97595969 36.00495,10.8410892 37.9661116,13.3252251 C40.0904751,16.016404 45.3211527,13.6574039 46.6913436,16.7080638 C48.3726748,20.4511421 43.9611374,21.8560762 41.6168232,19.3708027 C40.7738094,18.4774087 40.9581453,16.917382 39.7163241,16.3637507 C37.9539791,15.5788077 36.853443,17.2916519 37.2001979,18.7227508 C38.0479082,22.2235205 41.8524287,24.1130716 45.3011927,23.9947614 C49.0689244,23.8650751 50.7028996,21.0184245 50.4641631,17.5957699 C50.1342371,12.8603265 46.4792204,12.1186123 42.4747091,11.597213 C40.7761576,11.3761397 40.5534673,11.3966165 40.6583549,9.64547322 C40.7855505,7.52650643 42.0277631,5.07763608 44.6491681,5.58159221 C46.7551372,5.98657727 46.942604,9.15327227 49.1037564,9.30040167 C52.5998763,9.53853896 50.3604497,5.86712943 49.4716454,4.67909741" id="resist_P" />
            <path d="M31.7209696,20.4381695 C30.3835461,20.7580967 28.7579173,20.5355712 27.3944988,20.5112208 C26.3407598,20.4924897 22.8201338,20.9379153 22.1329619,20.2148947 C21.3727026,19.4150766 21.6202201,16.9680453 21.5881973,15.9288437 C21.5422351,14.4753101 21.1839563,14.2599024 22.4595946,13.9298603 C23.2085518,13.7361807 24.3674009,13.8332078 25.1415996,13.7976187 C26.6572206,13.727939 28.606845,14.008531 30.0716062,13.7099572 C31.4414292,13.4304891 32.5739067,11.958599 31.3223797,10.7058628 C30.4355361,9.81763391 28.7797682,10.2949024 27.6909924,10.3200021 C25.6573553,10.3664552 23.6222112,10.3555912 21.5881973,10.3915549 C21.5964855,8.82376157 21.5448723,7.2454788 21.6669357,5.68105705 C24.5143291,5.82154032 27.4788884,6.56329201 30.3255283,6.42655496 C31.766555,6.35724988 33.3654353,5.43530497 32.6368221,3.69630934 C32.0121888,2.20606276 30.1149312,2.40985716 28.792954,2.35066687 C27.1398233,2.27611708 25.4848088,2.23790563 23.8313013,2.18096308 C22.6068996,2.13900541 20.8260543,1.73628668 19.6721027,2.28847961 C17.3095724,3.41833976 18.121445,7.29867513 18.1873743,9.39955568 C18.2706336,12.0657409 18.2721406,14.6678658 18.3644416,17.3561538 C18.4484544,19.7885748 18.3271445,22.9972128 21.2159792,23.6808981 C24.1051906,24.364958 27.4611816,23.7142395 30.4084109,23.8565959 C31.6166129,23.9150369 33.2693669,24.2671816 33.8631075,22.8608504 C34.4319834,21.512211 33.1326106,20.086774 31.7209696,20.4381695" id="resist_M" />
            <path d="M8.41021607,5.87934286 C10.7314099,6.38056324 11.3520318,8.89406466 11.4306011,11.0286326 C11.4842397,12.4898438 11.613048,12.4018284 10.4273316,12.768689 C9.23708235,13.1371074 7.50704692,12.9377097 6.28808963,12.8851342 C3.74516418,12.7756991 4.0526421,12.6070678 4.00353629,9.93973422 C3.99220418,9.31505862 3.52947636,6.4362544 3.89625898,6.02967003 C4.37220759,5.5015777 7.73482232,5.8267673 8.41021607,5.87934286 M13.4870013,20.7181143 C12.1966517,19.2140637 10.9010138,17.7773878 9.45277018,16.4318428 C11.6107816,16.3722571 13.9557729,15.9594416 14.7229567,13.6130136 C15.3711534,11.6307201 14.8079476,8.6132722 14.05474,6.74080322 C13.0612917,4.27092005 10.9928039,2.62238402 8.42003723,2.26253349 C6.62389782,2.01172858 2.14242611,1.58956627 0.799948834,2.97327723 C-0.664537495,4.48161175 0.351952758,8.62222952 0.4422319,10.4701632 C0.602014649,13.7411422 0.486049391,16.987586 0.285471047,20.2550599 C0.220500284,21.3096868 -0.296621662,23.0423437 0.243919977,23.9918195 C0.843766325,25.0456674 2.30296434,25.3089347 3.21255502,24.5288691 C4.19693763,23.6845445 3.74176455,22.6513373 3.68132663,21.5678912 C3.58802559,19.8917044 3.75574082,18.1644997 3.85546339,16.4937651 C5.46348977,17.806207 7.10551249,19.0851563 8.61683821,20.5163799 C10.1096548,21.9300785 11.1809169,23.7184265 12.6076296,25.143419 C13.618076,26.1528699 15.4266807,26.5676327 15.9381366,24.6947742 C16.377067,23.0871303 14.3667507,21.7435326 13.4870013,20.7181143" id="resist_I" />
        </g>
    </g>
</g>
    </g>
</g>
        <g id="transparent_Face" transform="translate(76.000000, 82.000000)" fill="#000000">
            <g id="transparent_Mouth" transform="translate(2.000000, 52.000000)">    
                
            <g id="serious_Mouth/Serious" stroke="none" stroke-width="1" fill="none" fill-rule="evenodd" fill-opacity="0.699999988">
        <rect id="serious_Why-so-serious?" fill="#000000" x="42" y="18" width="24" height="6" rx="3" />
    </g>
</g>
            <g id="transparent_Nose" transform="translate(28.000000, 40.000000)" fill-opacity="0.16">
                
            <g id="small_Nose/Small" stroke="none" stroke-width="1" fill="none" fill-rule="evenodd"><path d="M20,7 C20,12.5228475 24.0470996,15 28,15 C31.9529004,15 36,12.5228475 36,7 C33.8327451,7.7317728 31.1406373,8.0976592 27.9236765,8.0976592 C24.7406373,8.0976592 22.0994118,7.7317728 20,7 Z" id="small_Nose" fill-opacity=".16" fill="#000" /></g></g>
            <g id="transparent_Eyes" transform="translate(0.000000, 8.000000)">
                
            <g id="x_dizzy_Eyes/X-Dizzy-ðŸ˜µ" stroke="none" stroke-width="1" fill="none" fill-rule="evenodd" fill-opacity="0.599999964">
        <path d="M23.5,13.3 L29,18.799 L34.5,13.3 C34.9,12.9 35.6,12.9 36.1,13.3 L37.7,14.9 C38.1,15.3 38.1,16 37.7,16.5 L32.2,22 L37.7,27.5 C38.1,27.9 38.1,28.6 37.7,29.1 L36.1,30.7 C35.7,31.1 35,31.1 34.5,30.7 L29,25.2 L23.5,30.7 C23.1,31.1 22.4,31.1 21.9,30.7 L20.3,29.1 C19.9,28.7 19.9,28 20.3,27.5 L25.799,22 L20.3,16.5 C19.9,16 19.9,15.3 20.3,14.9 L21.9,13.3 C22.3,12.9 23,12.9 23.5,13.3 Z" id="x_dizzy_Eye" fill="#000000" fill-rule="nonzero" />
        <path d="M77.5,13.3 L83,18.799 L88.5,13.3 C88.9,12.9 89.6,12.9 90.1,13.3 L91.7,14.9 C92.1,15.3 92.1,16 91.7,16.5 L86.2,22 L91.7,27.5 C92.1,27.9 92.1,28.6 91.7,29.1 L90.1,30.7 C89.7,31.1 89,31.1 88.5,30.7 L83,25.2 L77.5,30.7 C77.1,31.1 76.4,31.1 75.9,30.7 L74.3,29.1 C73.9,28.7 73.9,28 74.3,27.5 L79.799,22 L74.3,16.5 C73.9,16 73.9,15.3 74.3,14.9 L75.9,13.3 C76.3,12.9 77,12.9 77.5,13.3 Z" id="x_dizzy_Eye" fill="#000000" fill-rule="nonzero" />
    </g>
</g>
            <g id="transparent_Eyebrow" fill-opacity="0.599999964">
                
            <g id="sad_concerned_Eyebrow/Outline/Sad-Concerned" stroke="none" stroke-width="1" fill="none" fill-rule="evenodd" fill-opacity="0.599999964">
        <path d="M15.9726042,19.4088529 C17.452356,11.0203704 30.0622688,5.22829657 39.2106453,8.9774793 C40.2254706,9.39337449 41.4016967,8.94600219 41.8378196,7.97824531 C42.2739426,7.01048842 41.8048116,5.88881678 40.7899862,5.47292159 C29.3457328,0.782843812 13.9550264,7.85221132 12.0280273,18.7760684 C11.84479,19.8148122 12.5792704,20.798534 13.6685352,20.9732726 C14.7578,21.1480113 15.7893668,20.4475967 15.9726042,19.4088529 Z" id="sad_concerned_Eyebrow" fill="#000000" fill-rule="nonzero" transform="translate(27.000414, 12.500000) scale(-1, -1) translate(-27.000414, -12.500000) " />
        <path d="M73.9726042,19.4088529 C75.452356,11.0203704 88.0622688,5.22829657 97.2106453,8.9774793 C98.2254706,9.39337449 99.4016967,8.94600219 99.8378196,7.97824531 C100.273943,7.01048842 99.8048116,5.88881678 98.7899862,5.47292159 C87.3457328,0.782843812 71.9550264,7.85221132 70.0280273,18.7760684 C69.84479,19.8148122 70.5792704,20.798534 71.6685352,20.9732726 C72.7578,21.1480113 73.7893668,20.4475967 73.9726042,19.4088529 Z" id="sad_concerned_Eyebrow" fill="#000000" fill-rule="nonzero" transform="translate(85.000414, 12.500000) scale(1, -1) translate(-85.000414, -12.500000) " />
    </g>
</g>
        </g>
        <g id="transparent_Top">
            
        <g id="braids_Hairstyle/Braids" stroke="none" stroke-width="1" fill="none" fill-rule="evenodd">
        <g id="braids_Group-30" transform="translate(73.000000, -8.000000)">
            <path d="M107.3663,67.8552 C107.3023,67.7452 107.2353,67.6352 107.1713,67.5262 C107.2363,67.6352 107.3023,67.7452 107.3663,67.8552 M108.1303,69.2092 C108.0683,69.0962 108.0053,68.9822 107.9413,68.8692 C108.0053,68.9822 108.0683,69.0962 108.1303,69.2092 M108.6713,70.2322 C108.7293,70.3462 108.7893,70.4592 108.8463,70.5722 C108.7893,70.4592 108.7293,70.3462 108.6713,70.2322 M106.5533,66.5132 C106.4873,66.4072 106.4193,66.3022 106.3523,66.1962 C106.4203,66.3022 106.4873,66.4072 106.5533,66.5132 M124.6713,5.4912 C123.0333,4.0132 120.5113,4.1432 119.0283,5.7782 C118.7343,6.1042 118.5213,6.4692 118.3523,6.8502 C114.3033,5.3152 109.9163,4.4692 105.3293,4.4692 C105.1523,4.4692 104.9783,4.4802 104.8033,4.4822 C102.9703,2.9012 101.7383,1.9712 101.4863,1.7842 C99.7113,0.4712 97.2113,0.8452 95.8953,2.6182 C95.1723,3.5932 94.9753,4.7872 95.2263,5.8852 C92.2383,6.7372 89.4063,7.9562 86.7813,9.4922 C85.9263,8.9192 85.3683,8.5792 85.2023,8.4802 C83.3073,7.3472 80.8583,7.9632 79.7203,9.8542 C78.8153,11.3612 79.0353,13.2162 80.1123,14.4882 C77.6853,16.7752 75.5653,19.3832 73.8313,22.2522 C72.6783,21.7552 71.9273,21.5052 71.7483,21.4492 C69.6473,20.7912 67.4183,21.9532 66.7473,24.0502 C66.0763,26.1472 67.2363,28.3952 69.3303,29.0752 C69.4453,29.1132 69.8493,29.2512 70.4733,29.5102 C69.2323,33.1982 68.5503,37.1422 68.5503,41.2482 C68.5503,42.3052 68.6043,43.3492 68.6923,44.3842 C67.0303,44.1992 65.3083,44.0652 63.5283,43.9852 L63.5283,43.8872 C63.5283,41.6782 61.7373,39.8872 59.5283,39.8872 C57.3193,39.8872 55.5283,41.6782 55.5283,43.8872 L55.5283,43.9852 C52.1103,44.1402 48.9123,44.4922 45.9223,45.0212 L45.8663,44.8122 C45.3013,42.6762 43.1113,41.4052 40.9763,41.9692 C38.8403,42.5352 37.5683,44.7252 38.1333,46.8602 L38.1483,46.9162 C35.8263,47.6532 33.6503,48.5052 31.6233,49.4672 L31.4523,48.9872 C30.7113,46.9072 28.4263,45.8202 26.3423,46.5612 C24.2613,47.3022 23.1753,49.5902 23.9163,51.6712 L24.5993,53.5902 C22.3003,55.2302 20.2423,57.0252 18.4033,58.9362 C17.2673,58.2532 15.8223,58.1412 14.5503,58.7772 C12.5753,59.7682 11.7773,62.1712 12.7663,64.1462 L13.3213,65.2522 C12.1003,67.0722 11.0193,68.9442 10.0703,70.8442 C8.8193,70.1262 7.2303,70.0962 5.9303,70.9242 C4.0693,72.1132 3.5233,74.5862 4.7123,76.4482 L6.6193,79.4352 C5.7783,82.1002 5.1353,84.7382 4.6493,87.2802 C3.3373,87.0642 1.9493,87.4982 1.0043,88.5672 C-0.4597,90.2222 -0.3047,92.7502 1.3503,94.2132 L3.4793,96.0972 C3.1313,100.6572 3.2253,104.4112 3.3783,106.7012 C4.1673,118.5752 11.1253,118.4382 11.1253,106.2702 C11.1253,105.0712 11.2123,103.7552 11.3983,102.3612 C11.6523,102.4112 11.9083,102.4402 12.1653,102.4402 C13.2713,102.4402 14.3723,101.9842 15.1633,101.0902 C16.6273,99.4362 16.4713,96.9082 14.8173,95.4442 L13.5333,94.3092 C13.9713,93.2142 14.4743,92.1112 15.0593,91.0092 C15.4743,91.1492 15.9083,91.2282 16.3463,91.2282 C17.0833,91.2282 17.8293,91.0242 18.4953,90.5992 C20.3573,89.4102 20.9033,86.9372 19.7143,85.0752 L19.4483,84.6592 C20.1953,83.8042 20.9943,82.9642 21.8663,82.1482 C22.6313,83.1752 23.8283,83.7602 25.0693,83.7602 C25.6723,83.7602 26.2833,83.6232 26.8593,83.3352 C28.8333,82.3452 29.6323,79.9412 28.6423,77.9662 L28.3243,77.3322 C29.5683,76.5942 30.8993,75.9012 32.3153,75.2532 L32.4523,75.6382 C33.0353,77.2752 34.5763,78.2962 36.2203,78.2962 C36.6653,78.2962 37.1183,78.2222 37.5623,78.0632 C39.6433,77.3222 40.7293,75.0342 39.9883,72.9532 L39.8403,72.5382 C41.3613,72.1192 42.9683,71.7562 44.6433,71.4382 L44.7443,71.8192 C45.2193,73.6122 46.8373,74.7962 48.6083,74.7962 C48.9473,74.7962 49.2923,74.7532 49.6353,74.6622 C51.5643,74.1512 52.7753,72.3132 52.5763,70.3892 C53.5403,70.3142 54.5303,70.2582 55.5373,70.2152 C55.5863,72.3822 57.3493,74.1262 59.5283,74.1262 C61.7073,74.1262 63.4703,72.3822 63.5193,70.2152 C64.6633,70.2642 65.7803,70.3322 66.8683,70.4212 C66.6863,72.3342 67.8963,74.1542 69.8153,74.6622 C70.1583,74.7532 70.5033,74.7962 70.8423,74.7962 C72.6123,74.7962 74.2313,73.6122 74.7063,71.8192 L74.7883,71.5102 C76.4603,71.8372 78.0553,72.2142 79.5723,72.6432 L79.4623,72.9532 C78.7203,75.0342 79.8063,77.3222 81.8873,78.0632 C82.3313,78.2222 82.7843,78.2962 83.2293,78.2962 C84.8743,78.2962 86.4153,77.2752 86.9983,75.6382 L87.0783,75.4132 C88.4813,76.0702 89.8003,76.7722 91.0323,77.5182 L90.8073,77.9662 C89.8173,79.9412 90.6163,82.3452 92.5913,83.3352 C93.1663,83.6232 93.7783,83.7602 94.3813,83.7602 C95.5333,83.7602 96.6463,83.2542 97.4133,82.3592 C98.2873,83.1902 99.0933,84.0452 99.8383,84.9162 L99.7363,85.0752 C98.5473,86.9372 99.0933,89.4102 100.9543,90.5992 C101.6213,91.0242 102.3663,91.2282 103.1033,91.2282 C103.4233,91.2282 103.7403,91.1882 104.0493,91.1132 C104.6573,92.2682 105.1763,93.4222 105.6243,94.5682 L104.6333,95.4442 C102.9783,96.9082 102.8233,99.4362 104.2873,101.0902 C105.0773,101.9842 106.1793,102.4402 107.2843,102.4402 C107.4113,102.4402 107.5383,102.4192 107.6653,102.4072 C107.8473,103.7842 107.9313,105.0842 107.9313,106.2702 C107.9313,118.4382 114.8893,118.5752 115.6793,106.7012 C115.8273,104.4652 115.9233,100.8362 115.6023,96.4222 L118.0993,94.2132 C119.7553,92.7502 119.9103,90.2222 118.4463,88.5672 C117.4093,87.3942 115.8413,86.9912 114.4253,87.3672 C113.9613,84.9302 113.3543,82.4032 112.5663,79.8482 L114.2683,77.1822 C114.8143,78.6262 116.1723,79.6862 117.8123,79.7662 C117.8793,79.7702 117.9453,79.7712 118.0123,79.7712 C120.1313,79.7712 121.8983,78.1072 122.0043,75.9682 C122.0373,75.3022 122.0593,74.6412 122.0743,73.9842 C124.1753,72.9082 126.1593,71.6362 128.0013,70.1922 C128.6753,70.9622 129.6403,71.4762 130.7413,71.5512 C130.8333,71.5572 130.9263,71.5602 131.0163,71.5602 C133.1013,71.5602 134.8593,69.9432 135.0043,67.8322 C135.1203,66.1292 135.1393,64.4592 135.1183,62.8062 C137.3483,59.7312 139.1193,56.3022 140.3173,52.6132 C140.6423,52.6992 140.9783,52.7592 141.3303,52.7592 C141.3743,52.7592 141.4193,52.7592 141.4643,52.7572 C143.6723,52.6852 145.4023,50.8352 145.3303,48.6272 C144.5083,23.6682 125.4803,6.2212 124.6713,5.4912" id="braids_Hair-Color" fill="#724133" ns2:color="Hair-500" />
            <path d="M59.5284,39.887 C57.3194,39.887 55.5284,41.678 55.5284,43.887 L55.5284,70.127 C55.5284,72.336 57.3194,74.127 59.5284,74.127 C61.7374,74.127 63.5284,72.336 63.5284,70.127 L63.5284,43.887 C63.5284,41.678 61.7374,39.887 59.5284,39.887" id="braids_Fill-4" fill-opacity=".24" fill="#000" />
            <path d="M45.8667,44.8123 C45.3017,42.6763 43.1117,41.4053 40.9757,41.9693 C38.8407,42.5353 37.5677,44.7253 38.1337,46.8603 L44.7437,71.8193 C45.2187,73.6123 46.8377,74.7963 48.6087,74.7963 C48.9477,74.7963 49.2917,74.7533 49.6347,74.6623 C51.7707,74.0973 53.0427,71.9073 52.4777,69.7713 L45.8667,44.8123 Z" id="braids_Fill-6" fill-opacity=".24" fill="#000" />
            <path d="M31.4522,48.9871 C30.7112,46.9071 28.4262,45.8201 26.3422,46.5611 C24.2612,47.3021 23.1752,49.5911 23.9162,51.6721 L32.4522,75.6381 C33.0352,77.2751 34.5762,78.2971 36.2202,78.2971 C36.6652,78.2971 37.1192,78.2221 37.5622,78.0641 C39.6432,77.3221 40.7292,75.0341 39.9882,72.9531 L31.4522,48.9871 Z" id="braids_Fill-8" fill-opacity=".24" fill="#000" />
            <path d="M19.919,60.5613 C18.93,58.5863 16.525,57.7903 14.55,58.7773 C12.576,59.7683 11.777,62.1713 12.767,64.1463 L21.49,81.5513 C22.192,82.9513 23.604,83.7603 25.069,83.7603 C25.672,83.7603 26.284,83.6233 26.859,83.3353 C28.834,82.3453 29.632,79.9413 28.643,77.9663 L19.919,60.5613 Z" id="braids_Fill-10" fill-opacity=".24" fill="#000" />
            <path d="M11.4546,72.1428 C10.2656,70.2808 7.7936,69.7368 5.9306,70.9248 C4.0686,72.1138 3.5236,74.5868 4.7126,76.4488 L12.9716,89.3808 C13.7346,90.5758 15.0266,91.2278 16.3466,91.2278 C17.0836,91.2278 17.8296,91.0248 18.4956,90.5988 C20.3576,89.4098 20.9026,86.9368 19.7136,85.0748 L11.4546,72.1428 Z" id="braids_Fill-12" fill-opacity=".24" fill="#000" />
            <path d="M6.6499,88.2215 C4.9959,86.7575 2.4679,86.9115 1.0039,88.5675 C-0.4601,90.2225 -0.3051,92.7505 1.3499,94.2135 L9.5169,101.4365 C10.2779,102.1105 11.2239,102.4405 12.1659,102.4405 C13.2719,102.4405 14.3729,101.9845 15.1629,101.0905 C16.6269,99.4355 16.4719,96.9085 14.8169,95.4445 L6.6499,88.2215 Z" id="braids_Fill-14" fill-opacity=".24" fill="#000" />
            <path d="M78.4737,41.9695 C76.3387,41.4055 74.1487,42.6765 73.5827,44.8125 L66.9727,69.7715 C66.4077,71.9065 67.6797,74.0965 69.8157,74.6625 C70.1587,74.7535 70.5027,74.7965 70.8417,74.7965 C72.6127,74.7965 74.2317,73.6125 74.7057,71.8195 L81.3167,46.8605 C81.8817,44.7245 80.6097,42.5345 78.4737,41.9695" id="braids_Fill-17" fill-opacity=".24" fill="#000" />
            <path d="M104.8995,58.7776 C104.2315,58.4436 103.5155,58.3286 102.8205,58.3796 C95.0555,29.1756 72.8415,21.7936 71.7485,21.4496 C69.6475,20.7906 67.4185,21.9536 66.7475,24.0496 C66.0765,26.1476 67.2365,28.3956 69.3305,29.0756 C70.0415,29.3066 81.4945,33.2286 89.5715,47.0026 C88.8705,47.4636 88.3005,48.1356 87.9985,48.9866 L79.4625,72.9536 C78.7205,75.0346 79.8065,77.3226 81.8875,78.0636 C82.3315,78.2216 82.7845,78.2966 83.2295,78.2966 C84.8745,78.2966 86.4155,77.2756 86.9985,75.6376 L94.7685,53.8196 C97.0055,55.4456 99.0105,57.2196 100.8045,59.1046 C100.2855,59.4716 99.8365,59.9526 99.5315,60.5616 L90.8075,77.9666 C89.8175,79.9416 90.6165,82.3446 92.5905,83.3356 C93.1665,83.6236 93.7785,83.7596 94.3805,83.7596 C95.8465,83.7596 97.2575,82.9516 97.9605,81.5516 L106.6835,64.1466 C107.6725,62.1716 106.8745,59.7676 104.8995,58.7776" id="braids_Fill-19" fill-opacity=".24" fill="#000" />
            <path d="M112.7999,88.2215 L104.6329,95.4445 C102.9789,96.9085 102.8229,99.4355 104.2869,101.0905 C105.0769,101.9845 106.1789,102.4405 107.2839,102.4405 C108.2269,102.4405 109.1719,102.1105 109.9329,101.4365 L118.0999,94.2135 C119.7549,92.7505 119.9099,90.2225 118.4459,88.5675 C116.9829,86.9115 114.4539,86.7575 112.7999,88.2215" id="braids_Fill-21" fill-opacity=".24" fill="#000" />
            <path d="M85.2022,8.4798 C83.3072,7.3468 80.8582,7.9628 79.7212,9.8538 C78.5852,11.7458 79.1972,14.2018 81.0882,15.3408 C81.4242,15.5428 113.4062,35.2608 114.0652,71.3558 C113.8962,71.2008 113.7192,71.0518 113.5192,70.9248 C111.6562,69.7368 109.1842,70.2808 107.9952,72.1428 L99.7362,85.0748 C98.5472,86.9368 99.0932,89.4098 100.9542,90.5988 C101.6212,91.0248 102.3662,91.2288 103.1032,91.2288 C104.4232,91.2288 105.7152,90.5758 106.4782,89.3808 L114.2682,77.1818 C114.8142,78.6258 116.1722,79.6858 117.8122,79.7668 C117.8792,79.7698 117.9452,79.7718 118.0122,79.7718 C120.1312,79.7718 121.8982,78.1068 122.0042,75.9678 C124.1512,32.3138 86.7932,9.4328 85.2022,8.4798" id="braids_Fill-23" fill-opacity=".24" fill="#000" />
            <path d="M101.4864,1.7844 C99.7114,0.4714 97.2114,0.8454 95.8954,2.6174 C94.5804,4.3904 94.9524,6.8954 96.7234,8.2124 C97.0494,8.4554 129.3654,32.8974 127.0214,67.2884 C126.8724,69.4924 128.5374,71.4004 130.7414,71.5514 C130.8334,71.5574 130.9254,71.5604 131.0164,71.5604 C133.1014,71.5604 134.8594,69.9434 135.0044,67.8324 C137.6484,29.0184 102.9644,2.8784 101.4864,1.7844" id="braids_Fill-25" fill-opacity=".24" fill="#000" />
            <path d="M124.6709,5.491 C123.0329,4.013 120.5109,4.143 119.0279,5.779 C117.5469,7.414 117.6729,9.943 119.3069,11.426 C119.4809,11.583 136.6259,27.394 137.3339,48.891 C137.4049,51.054 139.1819,52.76 141.3299,52.76 C141.3739,52.76 141.4189,52.759 141.4639,52.758 C143.6719,52.685 145.4019,50.836 145.3299,48.628 C144.5079,23.669 125.4809,6.221 124.6709,5.491" id="braids_Fill-27" fill-opacity=".24" fill="#000" />
        </g>
        <g id="braids_Facial-Hair" transform="translate(49.000000, 72.000000)" />
        <g id="braids_Accessory" transform="translate(62.000000, 85.000000)" />
    </g>
</g>
    </g>
</svg>