<svg xmlns="http://www.w3.org/2000/svg" xmlns:ns2="http://design.blush" xmlns:xlink="http://www.w3.org/1999/xlink" width="264px" height="280px" viewBox="0 0 264 280" version="1.1">
    <title id="transparent_Title">Avataaar/Default</title>
    <desc>Created with python_avatars</desc>
    <defs>
        <path d="M100,0 C130.927946,-5.68137151e-15 156,25.072054 156,56 L156.000809,62.1660527 C161.675838,63.1185422 166,68.05429 166,74 L166,88 C166,94.0524166 161.519235,99.0582945 155.693975,99.8813638 C153.627928,119.686472 141.237929,136.421678 124.001014,144.610469 L124,163 L128,163 C167.764502,163 200,195.235498 200,235 L200,244 L0,244 L0,235 C-4.86974701e-15,195.235498 32.235498,163 72,163 L76,163 L75.9999836,144.610943 C58.7625487,136.422324 46.3721119,119.686854 44.3051107,99.8809698 C38.480765,99.0582945 34,94.0524166 34,88 L34,74 C34,68.053942 38.3246685,63.1179645 44.0001873,62.1658855 L44,56 C44,25.072054 69.072054,5.68137151e-15 100,0 Z" id="transparent_path-1" />
        <path d="M83,36.3476251 C83,52.6289957 105.161905,65.8276544 132.5,65.8276544 C159.838095,65.8276544 182,52.6289957 182,36.3476251 C182,34.9853134 181.844841,33.6445843 181.544472,32.3313638 C210.784239,41.4879251 232,68.792221 232,101.051724 L232,110 L32,110 L32,101.051724 C32,68.3970853 53.7386736,40.8197864 83.5337207,32.0021267 C83.1821692,33.4207025 83,34.871494 83,36.3476251 Z" id="transparent_path-3" />
        <rect id="transparent_path-5" x="0" y="0" width="264" height="280" />
        <path d="M74,0 C114.869071,0 148,33.1309285 148,74 L148,84.1482318 L148,197.608051 C135.525121,187.236892 119.490913,181 102,181 L102,181 L98,181 L98,162.610951 C115.530782,154.282984 128.048193,137.114792 129.791419,116.867187 C135.569129,116.002364 140,111.018625 140,105 L140,105 L140,92 C140,87.3536213 137.359271,83.3240177 133.496777,81.3301515 C132.723933,81.0500337 131.951808,80.748163 131.180891,80.4262497 C130.794819,80.3202581 130.400778,80.2331546 130,80.1659169 L130,80.1659169 L130.000458,79.9172528 C117.224481,74.2339715 104.877985,63.0706967 96.1104311,47.8848473 C93.1752556,42.8009742 90.8310687,37.5951441 89.0661426,32.3970356 C80.4313947,42.9409152 67.7445474,53.6023901 52.3415164,62.4953343 C42.777598,68.0170651 33.1467898,72.2910056 24,75.2659587 L24.0003852,137.246608 C29.6019576,148.318362 38.7728825,157.277529 50,162.610951 L50,162.610951 L50,181 L46,181 C38.3273639,181 30.9350359,182.200142 24.0004995,184.422941 L24,230 C24,244.105888 13.5691766,255.775526 0,257.716445 L0,74 C0,33.1309285 33.1309285,0 74,0 Z" id="transparent_path-7" />
    </defs>
    <g id="transparent_Avataaar/Default" stroke="none" stroke-width="1" fill="none" fill-rule="evenodd">
        <g id="transparent_Body" transform="translate(32.000000, 36.000000)">
            <mask id="transparent_mask-2" fill="white">
                <use xlink:href="#transparent_path-1" />
            </mask>
            <use fill="#D0C6AC" xlink:href="#transparent_path-1" />
            <g id="transparent_Skin-Color" mask="url(#transparent_mask-2)" fill="#F8D25C">
                <g transform="translate(-32.000000, 0.000000)" id="transparent_Color">
                    <rect x="0" y="0" width="264" height="244" />
                </g>
            </g>
            <path d="M44,94 C44,124.927946 69.072054,150 100,150 C130.927946,150 156,124.927946 156,94 L156,94 L156,102 C156,132.927946 130.927946,158 100,158 C69.072054,158 44,132.927946 44,102 Z" id="transparent_Neck-Shadow" fill-opacity="0.100000001" fill="#000000" mask="url(#transparent_mask-2)" />
        </g>
        <g id="transparent_Clothing" transform="translate(0.000000, 170.000000)">
            
        <g id="astronaut_suit_Clothing/Astronaut suit" stroke="none" stroke-width="1" fill="none" fill-rule="evenodd"><g id="astronaut_suit_Astronaut-suit" transform="translate(32.000000, 22.000000)"><path d="M127.9997,6.7405 L123.9997,6.7405 L124.0007,0.0005 L75.9997,0.0005 L75.9997,6.7405 L71.9997,6.7405 C32.6327,6.7405 0.6457,38.3345 0.0097,77.5495 L-0.0003,78.7405 L-0.0003,87.7405 L199.9997,87.7405 L199.9997,78.7405 C199.9997,38.9755 167.7647,6.7405 127.9997,6.7405" id="astronaut_suit_Fill-1" fill="#B0DBE2" /><path d="M180.2253,29.2054 C168.8273,38.7164 145.7303,58.8474 145.7303,58.8474 L145.7303,87.7404 L199.9993,87.7404 L199.9993,78.7404 C199.9993,59.5424 192.4713,42.1134 180.2253,29.2054" id="astronaut_suit_Fill-4" fill="#D4EEF4" /><path d="M0.0095,77.5491 L0.0005,78.7401 L0.0005,87.7401 L54.3105,87.7401 L54.3105,58.8471 C54.3105,58.8471 31.1785,38.6861 19.7905,29.1841 C7.7865,41.8261 0.3135,58.8131 0.0095,77.5491" id="astronaut_suit_Fill-6" fill="#D4EEF4" /><path d="M121.8503,50.7298 L78.1893,50.7298 C73.4013,50.7298 69.5203,54.6118 69.5203,59.3998 L69.5203,87.7738 L130.5203,87.7738 L130.5203,59.3998 C130.5203,54.6118 126.6383,50.7298 121.8503,50.7298" id="astronaut_suit_Fill-8" fill="#60ADE6" ns2:color="Top-500" /><path d="M83.6935,58.473 C80.9605,58.473 78.7445,60.689 78.7445,63.422 C78.7445,66.156 80.9605,68.371 83.6935,68.371 C86.4265,68.371 88.6425,66.156 88.6425,63.422 C88.6425,60.689 86.4265,58.473 83.6935,58.473" id="astronaut_suit_Fill-10" fill="#EBFCFF" /><path d="M100.0202,58.473 C97.2872,58.473 95.0712,60.689 95.0712,63.422 C95.0712,66.156 97.2872,68.371 100.0202,68.371 C102.7532,68.371 104.9692,66.156 104.9692,63.422 C104.9692,60.689 102.7532,58.473 100.0202,58.473" id="astronaut_suit_Fill-12" fill="#EBFCFF" /><path d="M116.3464,58.473 C113.6144,58.473 111.3974,60.689 111.3974,63.422 C111.3974,66.156 113.6144,68.371 116.3464,68.371 C119.0804,68.371 121.2964,66.156 121.2964,63.422 C121.2964,60.689 119.0804,58.473 116.3464,58.473" id="astronaut_suit_Fill-14" fill="#EBFCFF" /><path d="M117.8112,87.7737 L82.2292,87.7737 C80.3042,87.7737 78.7442,86.2137 78.7442,84.2897 L78.7442,78.4967 C78.7442,76.5717 80.3042,75.0107 82.2292,75.0107 L117.8112,75.0107 C119.7362,75.0107 121.2962,76.5717 121.2962,78.4967 L121.2962,84.2897 C121.2962,86.2137 119.7362,87.7737 117.8112,87.7737" id="astronaut_suit_Fill-16" fill="#B0DBE2" /><path d="M164.361,16.6038 C153.687,10.3438 141.267,6.7408 128,6.7408 L124,6.7408 L124.001,-0.0002 L76,-0.0002 L76,6.7408 L72,6.7408 C59.006,6.7408 46.827,10.1998 36.303,16.2208 C95.548,34.5108 143.322,23.6098 164.361,16.6038" id="astronaut_suit_Fill-18" fill="#60ADE6" ns2:color="Top-500" /></g></g></g>
        <g id="transparent_Face" transform="translate(76.000000, 82.000000)" fill="#000000">
            <g id="transparent_Mouth" transform="translate(2.000000, 52.000000)">    
                
            <g id="big_smile_Mouth/Big Smile" stroke="none" stroke-width="1" fill="none" fill-rule="evenodd"><path d="M29,15.6086957 C30.410031,25.2313711 38.062182,35 54,35 C69.937818,35 77.6461342,25.183301 79,14.7391304 C79.1012093,14.3397326 78.775269,13 76.826087,13 C56.838426,13 41.7395748,13 31.173913,13 C29.3833142,13 28.870211,14.2404669 29,15.6086957 Z" id="big_smile_Mouth" fill-opacity=".7" fill="#000" /><path d="M70,13 C70,15.7614237 67.7614237,18 65,18 L44,18 C41.2385763,18 39,15.7614237 39,13 L70,13 Z" id="big_smile_Path" fill="#FFF" /></g></g>
            <g id="transparent_Nose" transform="translate(28.000000, 40.000000)" fill-opacity="0.16">
                
            <g id="default_Nose/Default" stroke="none" stroke-width="1" fill="none" fill-rule="evenodd" fill-opacity="0.16">
        <path d="M16,8 C16,12.418278 21.372583,16 28,16 L28,16 C34.627417,16 40,12.418278 40,8" id="default_Nose" fill="#000000" />
    </g>
</g>
            <g id="transparent_Eyes" transform="translate(0.000000, 8.000000)">
                
            <g id="x_dizzy_Eyes/X-Dizzy-ðŸ˜µ" stroke="none" stroke-width="1" fill="none" fill-rule="evenodd" fill-opacity="0.599999964">
        <path d="M23.5,13.3 L29,18.799 L34.5,13.3 C34.9,12.9 35.6,12.9 36.1,13.3 L37.7,14.9 C38.1,15.3 38.1,16 37.7,16.5 L32.2,22 L37.7,27.5 C38.1,27.9 38.1,28.6 37.7,29.1 L36.1,30.7 C35.7,31.1 35,31.1 34.5,30.7 L29,25.2 L23.5,30.7 C23.1,31.1 22.4,31.1 21.9,30.7 L20.3,29.1 C19.9,28.7 19.9,28 20.3,27.5 L25.799,22 L20.3,16.5 C19.9,16 19.9,15.3 20.3,14.9 L21.9,13.3 C22.3,12.9 23,12.9 23.5,13.3 Z" id="x_dizzy_Eye" fill="#000000" fill-rule="nonzero" />
        <path d="M77.5,13.3 L83,18.799 L88.5,13.3 C88.9,12.9 89.6,12.9 90.1,13.3 L91.7,14.9 C92.1,15.3 92.1,16 91.7,16.5 L86.2,22 L91.7,27.5 C92.1,27.9 92.1,28.6 91.7,29.1 L90.1,30.7 C89.7,31.1 89,31.1 88.5,30.7 L83,25.2 L77.5,30.7 C77.1,31.1 76.4,31.1 75.9,30.7 L74.3,29.1 C73.9,28.7 73.9,28 74.3,27.5 L79.799,22 L74.3,16.5 C73.9,16 73.9,15.3 74.3,14.9 L75.9,13.3 C76.3,12.9 77,12.9 77.5,13.3 Z" id="x_dizzy_Eye" fill="#000000" fill-rule="nonzero" />
    </g>
</g>
            <g id="transparent_Eyebrow" fill-opacity="0.599999964">
                
            <g id="raised_excited_natural_Eyebrow/Natural/Raised-Excited-Natural" stroke="none" stroke-width="1" fill="none" fill-rule="evenodd" fill-opacity="0.599999964">
        <path d="M22.7663531,1.57844898 L23.6772984,1.17582144 C28.9190996,-0.905265751 36.8645466,-0.0328729562 41.7227321,2.29911638 C42.2897848,2.57148957 41.9021563,3.4519421 41.3211012,3.40711006 C26.4021788,2.25602197 16.3582869,11.5525942 12.9460869,17.8470939 C12.8449215,18.0337142 12.5391523,18.05489 12.4635344,17.8808353 C10.156283,12.5620676 16.9134476,3.89614725 22.7663531,1.57844898 Z" id="raised_excited_natural_Eye-Browse-Reddit" fill="#000000" />
        <path d="M80.7663531,1.57844898 L81.6772984,1.17582144 C86.9190996,-0.905265751 94.8645466,-0.0328729562 99.7227321,2.29911638 C100.289785,2.57148957 99.9021563,3.4519421 99.3211012,3.40711006 C84.4021788,2.25602197 74.3582869,11.5525942 70.9460869,17.8470939 C70.8449215,18.0337142 70.5391523,18.05489 70.4635344,17.8808353 C68.156283,12.5620676 74.9134476,3.89614725 80.7663531,1.57844898 Z" id="raised_excited_natural_Eye-Browse-Reddit" fill="#000000" transform="translate(85.000000, 9.000000) scale(-1, 1) translate(-85.000000, -9.000000) " />
    </g>
</g>
        </g>
        <g id="transparent_Top">
            
        <defs>
        <path d="M73,-7.10542736e-15 C85.7219537,-9.44241233e-15 97.5342942,3.89451668 107.309847,10.5563754 C117.203155,4.65354893 125.906598,2.84119251 133.419297,5.12029235 C137.342181,13.7864707 136.088687,24.8654742 129.658817,38.3573029 C132.459583,45.3577133 134,52.9989648 134,61 L134,69 L2,69 L2,61 C2,52.9746294 3.54980175,45.3112343 6.36644521,38.2927749 C-0.0371877014,24.830427 -1.28052214,13.7727611 2.63615554,5.12029235 C10.1413088,2.84348155 18.8348158,4.64991255 28.7166765,10.5395853 C38.486587,3.88763544 50.2892906,-4.77050791e-15 63,-7.10542736e-15 L73,-7.10542736e-15 Z" id="winter_hat_4_path-1" />
        <path d="M133.419297,5.12029235 C137.342181,13.7864707 136.088687,24.8654742 129.658817,38.3573029 C125.120783,27.0107832 117.273218,17.3462285 107.309847,10.5563754 C117.203155,4.65354893 125.906598,2.84119251 133.419297,5.12029235 Z M28.7166765,10.5395853 L28.5059632,10.6823903 C18.6487145,17.4527497 10.8806015,27.044485 6.36644521,38.2927749 C-0.0371877014,24.830427 -1.28052214,13.7727611 2.63615554,5.12029235 C10.1413088,2.84348155 18.8348158,4.64991255 28.7166765,10.5395853 Z" id="winter_hat_4_path-3" />
        <path d="M21.8611602,15.9589276 L21.211192,16.562208 C17.0135267,20.5111528 13.3754262,25.0481848 10.4284992,30.0416954 C7.50362993,21.9329304 7.00274925,16.3216092 8.92709323,13.2081228 C11.5781533,12.0616266 15.8895089,12.9785616 21.8611602,15.9589276 Z M126.68574,13.3144617 C128.572237,16.3667136 128.127967,21.819514 125.352931,29.6728628 C122.278019,24.5465243 118.471615,19.9084275 114.077772,15.9038065 C119.880435,13.0520581 124.083155,12.1889293 126.68574,13.3144617 Z" id="winter_hat_4_path-5" />
        <path d="M67.2845981,61.4514245 C83.2297066,49.8171415 105.159178,44 133.073012,44 C160.985408,44 182.871591,49.8165424 198.731559,61.4496271 C200.786178,62.9566691 202,65.3523287 202,67.9003936 L202,98.3697692 C201.999998,100.578907 200.209138,102.369767 198,102.369767 C197.244438,102.369767 196.504327,102.155772 195.86535,101.752557 C179.223259,91.2508523 158.53625,86 133.804323,86 C108.883259,86 87.6403936,91.3314713 70.075727,101.994414 C68.1873197,103.140807 65.7271281,102.539284 64.5807363,100.650876 C64.2008721,100.02514 64,99.3071624 64,98.5751498 L64,67.914014 C63.999995,65.3588919 65.2205111,62.957477 67.2845981,61.4514245 Z" id="winter_hat_4_path-7" />
        <filter x="-0.7%" y="-1.7%" width="101.4%" height="106.8%" filterUnits="objectBoundingBox" id="winter_hat_4_filter-8">
            <feOffset dx="0" dy="2" in="SourceAlpha" result="shadowOffsetOuter1" />
            <feColorMatrix values="0 0 0 0 0   0 0 0 0 0   0 0 0 0 0  0 0 0 0.1 0" type="matrix" in="shadowOffsetOuter1" />
        </filter>
    </defs>
    <g id="winter_hat_4_Facial-Hair" transform="translate(49.000000, 72.000000)" />
    <g id="winter_hat_4_Top/Accessories/Winter-Hat-4" stroke="none" stroke-width="1" fill="none" fill-rule="evenodd">
        <g id="winter_hat_4_hat" transform="translate(65.000000, 4.000000)">
            <mask id="winter_hat_4_mask-2" fill="white">
                <use xlink:href="#winter_hat_4_path-1" />
            </mask>
            <use id="winter_hat_4_hat-mask" fill="#D8D8D8" xlink:href="#winter_hat_4_path-1" />
            <g id="winter_hat_4_Fabric-Color" mask="url(#winter_hat_4_mask-2)" fill="#65C9FF">
                <g transform="translate(-22.000000, -4.000000)" id="winter_hat_4_ðŸ–Color">
                    <rect x="0" y="0" width="180" height="191" />
                </g>
            </g>
            <mask id="winter_hat_4_mask-4" fill="white">
                <use xlink:href="#winter_hat_4_path-3" />
            </mask>
            <use id="winter_hat_4_shadow" fill-opacity="0.24" fill="#000000" xlink:href="#winter_hat_4_path-3" />
            <mask id="winter_hat_4_mask-6" fill="white">
                <use xlink:href="#winter_hat_4_path-5" />
            </mask>
            <use id="winter_hat_4_light" fill-opacity="0.300000012" fill="#FFFFFF" xlink:href="#winter_hat_4_path-5" />
        </g>
        <g id="winter_hat_4_hat-front">
            <use fill="black" fill-opacity="1" filter="url(#winter_hat_4_filter-8)" xlink:href="#winter_hat_4_path-7" />
            <use fill="#F4F4F4" fill-rule="evenodd" xlink:href="#winter_hat_4_path-7" />
        </g>
        <g id="winter_hat_4_Accessory" transform="translate(62.000000, 85.000000)"><defs>
        <path d="M102,3 C110.919724,3 118.702944,7.86594657 122.839966,15.0881434 C123.049977,15.0306809 123.271405,15 123.5,15 L131.5,15 C132.880712,15 134,16.1192881 134,17.5 C134,18.8807119 132.880712,20 131.5,20 L124.963112,19.9999542 C125.63735,22.2145597 126,24.5649291 126,27 C126,40.254834 115.254834,51 102,51 C88.745166,51 78,40.254834 78,27 C78,25.5817328 78.1230214,24.1921987 78.3589754,22.8414867 C78.2814883,18.460693 74.9167538,15 70.8624171,15 C67.1244063,15 63.9725878,17.9417418 63.4412238,21.8340095 C63.8076631,23.4981856 64,25.2266315 64,27 C64,40.254834 53.254834,51 40,51 C26.745166,51 16,40.254834 16,27 C16,24.5649291 16.3626501,22.2145597 17.0368877,19.9999542 L10.5,20 C9.11928813,20 8,18.8807119 8,17.5 C8,16.1192881 9.11928813,15 10.5,15 L18.5,15 C18.7285947,15 18.9500235,15.0306809 19.1603931,15.0881495 C23.2970555,7.86594657 31.0802764,3 40,3 C49.3522436,3 57.4550935,8.34929022 61.4157763,16.1550973 C63.492635,13.0394413 66.9492812,11 70.8624171,11 C74.874933,11 78.4074783,13.1443461 80.4650049,16.3947271 C84.3793874,8.45920672 92.5521607,3 102,3 Z M40,7 C28.954305,7 20,15.954305 20,27 C20,38.045695 28.954305,47 40,47 C51.045695,47 60,38.045695 60,27 C60,15.954305 51.045695,7 40,7 Z M102,7 C90.954305,7 82,15.954305 82,27 C82,38.045695 90.954305,47 102,47 C113.045695,47 122,38.045695 122,27 C122,15.954305 113.045695,7 102,7 Z" id="round_path-1" />
        <filter x="-0.8%" y="-2.1%" width="101.6%" height="108.3%" filterUnits="objectBoundingBox" id="round_filter-2">
            <feOffset dx="0" dy="2" in="SourceAlpha" result="shadowOffsetOuter1" />
            <feColorMatrix values="0 0 0 0 0   0 0 0 0 0   0 0 0 0 0  0 0 0 0.1 0" type="matrix" in="shadowOffsetOuter1" />
        </filter>
    </defs>
    <g id="round_Top/_Resources/Round" stroke="none" stroke-width="1" fill="none" fill-rule="evenodd">
        <g id="round_Lennon-Glasses">
            <use fill="black" fill-opacity="1" filter="url(#round_filter-2)" xlink:href="#round_path-1" />
            <use fill="#252C2F" fill-rule="evenodd" xlink:href="#round_path-1" />
        </g>
    </g>
</g>
    </g>
</g>
    </g>
</svg>