<svg xmlns="http://www.w3.org/2000/svg" xmlns:xlink="http://www.w3.org/1999/xlink" width="264px" height="280px" viewBox="0 0 264 280" version="1.1">
    <title id="transparent_Title">Avataaar/Default</title>
    <desc>Created with python_avatars</desc>
    <defs>
        <path d="M100,0 C130.927946,-5.68137151e-15 156,25.072054 156,56 L156.000809,62.1660527 C161.675838,63.1185422 166,68.05429 166,74 L166,88 C166,94.0524166 161.519235,99.0582945 155.693975,99.8813638 C153.627928,119.686472 141.237929,136.421678 124.001014,144.610469 L124,163 L128,163 C167.764502,163 200,195.235498 200,235 L200,244 L0,244 L0,235 C-4.86974701e-15,195.235498 32.235498,163 72,163 L76,163 L75.9999836,144.610943 C58.7625487,136.422324 46.3721119,119.686854 44.3051107,99.8809698 C38.480765,99.0582945 34,94.0524166 34,88 L34,74 C34,68.053942 38.3246685,63.1179645 44.0001873,62.1658855 L44,56 C44,25.072054 69.072054,5.68137151e-15 100,0 Z" id="transparent_path-1" />
        <path d="M83,36.3476251 C83,52.6289957 105.161905,65.8276544 132.5,65.8276544 C159.838095,65.8276544 182,52.6289957 182,36.3476251 C182,34.9853134 181.844841,33.6445843 181.544472,32.3313638 C210.784239,41.4879251 232,68.792221 232,101.051724 L232,110 L32,110 L32,101.051724 C32,68.3970853 53.7386736,40.8197864 83.5337207,32.0021267 C83.1821692,33.4207025 83,34.871494 83,36.3476251 Z" id="transparent_path-3" />
        <rect id="transparent_path-5" x="0" y="0" width="264" height="280" />
        <path d="M74,0 C114.869071,0 148,33.1309285 148,74 L148,84.1482318 L148,197.608051 C135.525121,187.236892 119.490913,181 102,181 L102,181 L98,181 L98,162.610951 C115.530782,154.282984 128.048193,137.114792 129.791419,116.867187 C135.569129,116.002364 140,111.018625 140,105 L140,105 L140,92 C140,87.3536213 137.359271,83.3240177 133.496777,81.3301515 C132.723933,81.0500337 131.951808,80.748163 131.180891,80.4262497 C130.794819,80.3202581 130.400778,80.2331546 130,80.1659169 L130,80.1659169 L130.000458,79.9172528 C117.224481,74.2339715 104.877985,63.0706967 96.1104311,47.8848473 C93.1752556,42.8009742 90.8310687,37.5951441 89.0661426,32.3970356 C80.4313947,42.9409152 67.7445474,53.6023901 52.3415164,62.4953343 C42.777598,68.0170651 33.1467898,72.2910056 24,75.2659587 L24.0003852,137.246608 C29.6019576,148.318362 38.7728825,157.277529 50,162.610951 L50,162.610951 L50,181 L46,181 C38.3273639,181 30.9350359,182.200142 24.0004995,184.422941 L24,230 C24,244.105888 13.5691766,255.775526 0,257.716445 L0,74 C0,33.1309285 33.1309285,0 74,0 Z" id="transparent_path-7" />
    </defs>
    <g id="transparent_Avataaar/Default" stroke="none" stroke-width="1" fill="none" fill-rule="evenodd">
        <g id="transparent_Body" transform="translate(32.000000, 36.000000)">
            <mask id="transparent_mask-2" fill="white">
                <use xlink:href="#transparent_path-1" />
            </mask>
            <use fill="#D0C6AC" xlink:href="#transparent_path-1" />
            <g id="transparent_Skin-Color" mask="url(#transparent_mask-2)" fill="#FD9841">
                <g transform="translate(-32.000000, 0.000000)" id="transparent_Color">
                    <rect x="0" y="0" width="264" height="244" />
                </g>
            </g>
            <path d="M44,94 C44,124.927946 69.072054,150 100,150 C130.927946,150 156,124.927946 156,94 L156,94 L156,102 C156,132.927946 130.927946,158 100,158 C69.072054,158 44,132.927946 44,102 Z" id="transparent_Neck-Shadow" fill-opacity="0.100000001" fill="#000000" mask="url(#transparent_mask-2)" />
        </g>
        <g id="transparent_Clothing" transform="translate(0.000000, 170.000000)">
            
        </g>
        <g id="transparent_Face" transform="translate(76.000000, 82.000000)" fill="#000000">
            <g id="transparent_Mouth" transform="translate(2.000000, 52.000000)">    
                
            <defs>
        <path d="M35.117844,15.1280772 C36.1757121,24.6198025 44.2259873,32 54,32 C63.8042055,32 71.8740075,24.574136 72.8917593,15.0400546 C72.9736685,14.272746 72.1167429,13 71.042767,13 C56.1487536,13 44.7379213,13 37.0868244,13 C36.0066168,13 35.0120058,14.1784435 35.117844,15.1280772 Z" id="concerned_path-1" />
    </defs>
    <g id="concerned_Mouth/Concerned" stroke="none" stroke-width="1" fill="none" fill-rule="evenodd">
        <mask id="concerned_mask-2" fill="white">
            <use xlink:href="#concerned_path-1" transform="translate(54.003637, 22.500000) scale(1, -1) translate(-54.003637, -22.500000)" />
        </mask>
        <use id="concerned_Mouth" fill-opacity="0.699999988" fill="#000000" transform="translate(54.003637, 22.500000) scale(1, -1) translate(-54.003637, -22.500000)" xlink:href="#concerned_path-1" />
        <path d="M44,2 L65,2 C67.7614237,2 70,4.23857625 70,7 L70,13 C70,15.7614237 67.7614237,18 65,18 L44,18 C41.2385763,18 39,15.7614237 39,13 L39,7 C39,4.23857625 41.2385763,2 44,2 Z" id="concerned_Teeth" fill="#FFFFFF" mask="url(#concerned_mask-2)" />
        <g id="concerned_Tongue" mask="url(#concerned_mask-2)" fill="#FF4F6D">
            <g transform="translate(38.000000, 24.000000)">
                <circle id="concerned_friend?" cx="11" cy="11" r="11" />
                <circle id="concerned_How-you-doing" cx="21" cy="11" r="11" />
            </g>
        </g>
    </g>
</g>
            <g id="transparent_Nose" transform="translate(28.000000, 40.000000)" fill-opacity="0.16">
                
            <g id="default_Nose/Default" stroke="none" stroke-width="1" fill="none" fill-rule="evenodd" fill-opacity="0.16">
        <path d="M16,8 C16,12.418278 21.372583,16 28,16 L28,16 C34.627417,16 40,12.418278 40,8" id="default_Nose" fill="#000000" />
    </g>
</g>
            <g id="transparent_Eyes" transform="translate(0.000000, 8.000000)">
                
            <g id="closed_Eyes/Closed-😌" stroke="none" stroke-width="1" fill="none" fill-rule="evenodd" fill-opacity="0.599999964">
        <path d="M16.1601674,32.4473116 C18.006676,28.648508 22.1644225,26 26.9975803,26 C31.8136766,26 35.9591217,28.629842 37.8153518,32.4071242 C38.3667605,33.5291977 37.5821037,34.4474817 36.790607,33.7670228 C34.3395063,31.6597833 30.8587163,30.3437884 26.9975803,30.3437884 C23.2572061,30.3437884 19.8737584,31.5787519 17.4375392,33.5716412 C16.5467928,34.3002944 15.6201012,33.5583844 16.1601674,32.4473116 Z" id="closed_Closed-Eye" fill="#000000" transform="translate(27.000000, 30.000000) scale(1, -1) translate(-27.000000, -30.000000) " />
        <path d="M74.1601674,32.4473116 C76.006676,28.648508 80.1644225,26 84.9975803,26 C89.8136766,26 93.9591217,28.629842 95.8153518,32.4071242 C96.3667605,33.5291977 95.5821037,34.4474817 94.790607,33.7670228 C92.3395063,31.6597833 88.8587163,30.3437884 84.9975803,30.3437884 C81.2572061,30.3437884 77.8737584,31.5787519 75.4375392,33.5716412 C74.5467928,34.3002944 73.6201012,33.5583844 74.1601674,32.4473116 Z" id="closed_Closed-Eye" fill="#000000" transform="translate(85.000000, 30.000000) scale(1, -1) translate(-85.000000, -30.000000) " />
    </g>
</g>
            <g id="transparent_Eyebrow" fill-opacity="0.599999964">
                
            <g id="raised_excited_natural_Eyebrow/Natural/Raised-Excited-Natural" stroke="none" stroke-width="1" fill="none" fill-rule="evenodd" fill-opacity="0.599999964">
        <path d="M22.7663531,1.57844898 L23.6772984,1.17582144 C28.9190996,-0.905265751 36.8645466,-0.0328729562 41.7227321,2.29911638 C42.2897848,2.57148957 41.9021563,3.4519421 41.3211012,3.40711006 C26.4021788,2.25602197 16.3582869,11.5525942 12.9460869,17.8470939 C12.8449215,18.0337142 12.5391523,18.05489 12.4635344,17.8808353 C10.156283,12.5620676 16.9134476,3.89614725 22.7663531,1.57844898 Z" id="raised_excited_natural_Eye-Browse-Reddit" fill="#000000" />
        <path d="M80.7663531,1.57844898 L81.6772984,1.17582144 C86.9190996,-0.905265751 94.8645466,-0.0328729562 99.7227321,2.29911638 C100.289785,2.57148957 99.9021563,3.4519421 99.3211012,3.40711006 C84.4021788,2.25602197 74.3582869,11.5525942 70.9460869,17.8470939 C70.8449215,18.0337142 70.5391523,18.05489 70.4635344,17.8808353 C68.156283,12.5620676 74.9134476,3.89614725 80.7663531,1.57844898 Z" id="raised_excited_natural_Eye-Browse-Reddit" fill="#000000" transform="translate(85.000000, 9.000000) scale(-1, 1) translate(-85.000000, -9.000000) " />
    </g>
</g>
        </g>
        <g id="transparent_Top">
            
        <defs>
        <path d="M130,0 C148.878945,0 164.980853,11.8899097 171.225984,28.5899895 C192.088295,32.0369637 208,50.1602929 208,72 C208,81.6675383 204.882152,90.6068643 199.597131,97.8673034 C209.650914,106.664611 216,119.590851 216,134 C216,160.509668 194.509668,182 168,182 C163.278876,182 158.716946,181.318407 154.407246,180.048254 C150.225855,183.577838 145.636551,186.639426 140.72013,189.152328 C139.549827,189.076535 138.371946,189.028747 137.187119,189.00959 L136,189 L132,189 L132.001014,170.610469 C149.531251,162.282329 162.048207,145.114429 163.791415,124.867236 C169.471002,124.017289 173.849484,119.186467 173.9962,113.304975 L174,113 L174,100 C174,95.77573 171.817281,92.0612614 168.518149,89.9229005 C167.448191,89.5331245 166.372488,89.0432753 165.29634,88.4602229 C164.873966,88.3379847 164.44146,88.2400109 164.000809,88.1660527 L164.00094,87.7136046 C155.319987,82.4108349 146.764886,71.1752936 141.449951,56.7992877 C131.312295,58.8351061 119.547256,60 107,60 C95.038684,60 83.7882341,58.9413637 73.9808476,57.0787685 C68.75481,71.0638309 60.4641576,82.0426902 52.000575,87.4226513 L52.0001873,88.1658855 C50.9522364,88.3416812 49.9503407,88.6533017 49.0132207,89.0820264 C48.9409951,89.1180529 48.8681644,89.1522806 48.7953478,89.1860695 C44.8606242,91.0812352 42.1193678,95.0621754 42.0037999,99.6950252 L42,100 L42,113 C42,119.018777 46.4310943,124.002616 52.2090181,124.867253 C53.9518263,145.114813 66.4692242,162.28298 83.9999836,170.610943 L84,189 L80,189 C78.4141498,189 76.8402744,189.051271 75.2799411,189.152244 C70.362623,186.639876 65.7728878,183.578504 61.5908566,180.049243 C57.2830538,181.318407 52.7211243,182 48,182 C21.490332,182 0,160.509668 0,134 C0,119.590851 6.34908591,106.664611 16.4022802,97.8662563 C11.1178478,90.6068643 8,81.6675383 8,72 C8,50.1602929 23.9117053,32.0369637 44.7747628,28.5903656 C51.0191469,11.8899097 67.1210549,0 86,0 C94.0146516,0 101.528813,2.14285314 108.00081,5.88688533 C114.471958,2.14263328 121.98576,0 130,0 Z" id="curly_path-1" />
    </defs>
    <g id="curly_Top/Long-Hair/Curly" stroke="none" stroke-width="1" fill="none" fill-rule="evenodd" transform="translate(-1 0)">
        <path d="M132,26 C142.357028,26 152.18109,26.7937051 160.996853,28.2157826 C183.450437,38.7479324 199,61.5580686 199,88 L199.000816,105.044165 C187.518153,104.674952 173.96279,90.8986839 166.557139,71.0876134 L166.45,70.798 L165.465631,70.9932266 C155.553819,72.9089172 144.143236,74 132,74 C120.038433,74 108.787761,72.9413193 98.9802296,71.0786512 L99.2335907,70.3935102 C91.9856565,90.3070459 78.5154621,104.29362 66.999761,105.021917 L67,88 C67,61.1728391 83.0059435,38.0840666 105.98912,27.7623933 C114.016531,26.6265601 122.7979,26 132,26 Z M166.446,70.785 L166.45,70.798 L166.451788,70.7989188 L166.446,70.785 Z" id="curly_Shadow" fill-opacity="0.16" fill="#000000" />
        <g id="curly_Hair" transform="translate(25.000000, 10.000000)">
            <mask id="curly_mask-2" fill="white">
                <use xlink:href="#curly_path-1" />
            </mask>
            <use id="curly_Curly!" fill="#314756" xlink:href="#curly_path-1" />
            <g id="curly_Hair-Color" mask="url(#curly_mask-2)" fill="#724133">
                <g transform="translate(-24.000000, -10.000000)" id="curly_Color">
                    <rect x="0" y="0" width="264" height="280" />
                </g>
            </g>
        </g>
        <g id="curly_Facial-Hair" transform="translate(49.000000, 72.000000)"><defs>
        <path d="M105.612044,67.1316942 C111.386129,69.3374281 116.495271,75.5829845 125.36175,72.8283797 C125.730639,72.7136458 126.091098,73.0449523 125.980498,73.408662 C124.607113,77.9183313 116.972736,81.0068878 114.378714,81.1080652 C103.039714,81.5495987 93.9060174,72.8306951 84.0009784,72.1615262 C74.0951698,72.8301081 64.9612417,81.5496135 53.6221945,81.1080652 C51.0278347,81.0068878 43.3937943,77.9183313 42.0204089,73.408662 C41.9094725,73.0449523 42.2699314,72.7136458 42.6388201,72.8283797 C51.5052994,75.5829845 56.6144416,69.3374281 62.3885276,67.1316942 C67.5783507,65.1488567 77.2089224,65.7112779 84.0008729,69.2973744 C90.7925576,65.7112249 100.422466,65.1489502 105.612044,67.1316942 Z" id="moustache_fancy_path-1" />
    </defs>
    <g id="moustache_fancy_Facial-Hair/Moustache-Fancy" stroke="none" stroke-width="1" fill="none" fill-rule="evenodd">
        <mask id="moustache_fancy_mask-2" fill="white">
            <use xlink:href="#moustache_fancy_path-1" />
        </mask>
        <use id="moustache_fancy_Moustache-U-a-Question" fill="#28354B" xlink:href="#moustache_fancy_path-1" />
        <g id="moustache_fancy_Facial-Hair-Color" mask="url(#moustache_fancy_mask-2)" fill="#4A312C">
            <rect id="moustache_fancy_Color" x="0" y="0" width="168" height="152" />
        </g>
    </g>
</g>
        <g id="curly_Accessory" transform="translate(62.000000, 85.000000)" />
    </g>
</g>
    </g>
</svg>