<svg xmlns="http://www.w3.org/2000/svg" xmlns:ns2="http://design.blush" xmlns:xlink="http://www.w3.org/1999/xlink" width="264px" height="280px" viewBox="0 0 264 280" version="1.1">
    <title id="transparent_Title">Avataaar/Default</title>
    <desc>Created with python_avatars</desc>
    <defs>
        <path d="M100,0 C130.927946,-5.68137151e-15 156,25.072054 156,56 L156.000809,62.1660527 C161.675838,63.1185422 166,68.05429 166,74 L166,88 C166,94.0524166 161.519235,99.0582945 155.693975,99.8813638 C153.627928,119.686472 141.237929,136.421678 124.001014,144.610469 L124,163 L128,163 C167.764502,163 200,195.235498 200,235 L200,244 L0,244 L0,235 C-4.86974701e-15,195.235498 32.235498,163 72,163 L76,163 L75.9999836,144.610943 C58.7625487,136.422324 46.3721119,119.686854 44.3051107,99.8809698 C38.480765,99.0582945 34,94.0524166 34,88 L34,74 C34,68.053942 38.3246685,63.1179645 44.0001873,62.1658855 L44,56 C44,25.072054 69.072054,5.68137151e-15 100,0 Z" id="transparent_path-1" />
        <path d="M83,36.3476251 C83,52.6289957 105.161905,65.8276544 132.5,65.8276544 C159.838095,65.8276544 182,52.6289957 182,36.3476251 C182,34.9853134 181.844841,33.6445843 181.544472,32.3313638 C210.784239,41.4879251 232,68.792221 232,101.051724 L232,110 L32,110 L32,101.051724 C32,68.3970853 53.7386736,40.8197864 83.5337207,32.0021267 C83.1821692,33.4207025 83,34.871494 83,36.3476251 Z" id="transparent_path-3" />
        <rect id="transparent_path-5" x="0" y="0" width="264" height="280" />
        <path d="M74,0 C114.869071,0 148,33.1309285 148,74 L148,84.1482318 L148,197.608051 C135.525121,187.236892 119.490913,181 102,181 L102,181 L98,181 L98,162.610951 C115.530782,154.282984 128.048193,137.114792 129.791419,116.867187 C135.569129,116.002364 140,111.018625 140,105 L140,105 L140,92 C140,87.3536213 137.359271,83.3240177 133.496777,81.3301515 C132.723933,81.0500337 131.951808,80.748163 131.180891,80.4262497 C130.794819,80.3202581 130.400778,80.2331546 130,80.1659169 L130,80.1659169 L130.000458,79.9172528 C117.224481,74.2339715 104.877985,63.0706967 96.1104311,47.8848473 C93.1752556,42.8009742 90.8310687,37.5951441 89.0661426,32.3970356 C80.4313947,42.9409152 67.7445474,53.6023901 52.3415164,62.4953343 C42.777598,68.0170651 33.1467898,72.2910056 24,75.2659587 L24.0003852,137.246608 C29.6019576,148.318362 38.7728825,157.277529 50,162.610951 L50,162.610951 L50,181 L46,181 C38.3273639,181 30.9350359,182.200142 24.0004995,184.422941 L24,230 C24,244.105888 13.5691766,255.775526 0,257.716445 L0,74 C0,33.1309285 33.1309285,0 74,0 Z" id="transparent_path-7" />
    </defs>
    <g id="transparent_Avataaar/Default" stroke="none" stroke-width="1" fill="none" fill-rule="evenodd">
        <g id="transparent_Body" transform="translate(32.000000, 36.000000)">
            <mask id="transparent_mask-2" fill="white">
                <use xlink:href="#transparent_path-1" />
            </mask>
            <use fill="#D0C6AC" xlink:href="#transparent_path-1" />
            <g id="transparent_Skin-Color" mask="url(#transparent_mask-2)" fill="#FD9841">
                <g transform="translate(-32.000000, 0.000000)" id="transparent_Color">
                    <rect x="0" y="0" width="264" height="244" />
                </g>
            </g>
            <path d="M44,94 C44,124.927946 69.072054,150 100,150 C130.927946,150 156,124.927946 156,94 L156,94 L156,102 C156,132.927946 130.927946,158 100,158 C69.072054,158 44,132.927946 44,102 Z" id="transparent_Neck-Shadow" fill-opacity="0.100000001" fill="#000000" mask="url(#transparent_mask-2)" />
        </g>
        <g id="transparent_Clothing" transform="translate(0.000000, 170.000000)">
            
        <defs>
        <path d="M160,29.0517235 C199.764502,29.0517235 232,61.2872215 232,101.051724 L232,110 L32,110 L32,101.051724 C32,61.2872215 64.235498,29.0517235 104,29.0517235 L105.192363,29.0520252 C105.065349,30.0355191 105,31.0365551 105,32.0517235 C105,45.8588423 117.088312,57.0517235 132,57.0517235 C146.911688,57.0517235 159,45.8588423 159,32.0517235 C159,31.0365551 158.934651,30.0355191 158.807637,29.0520252 L160,29.0517235 Z" id="collar_sweater_path-1" />
    </defs>
    <g id="collar_sweater_Clothing/Collar-+-Sweater" stroke="none" stroke-width="1" fill="none" fill-rule="evenodd">
        <mask id="collar_sweater_mask-2" fill="white">
            <use xlink:href="#collar_sweater_path-1" />
        </mask>
        <use id="collar_sweater_Clothes" fill="#E6E6E6" xlink:href="#collar_sweater_path-1" />
        <g id="collar_sweater_Fabric-Color" mask="url(#collar_sweater_mask-2)" fill="#929598">
            <rect id="collar_sweater_ðŸ–Color" x="0" y="0" width="264" height="110" />
        </g>
        <path d="M118.07795,50.9956082 L118,51.0567821 L119,54.207887 L114.421,53.8754994 L108.308702,58.6917545 C101.361717,54.0802103 97,47.4262523 97,40.027915 C97,32.7399202 101.232581,26.1742662 107.999601,21.5717708 L108,36.8768102 C108,42.7004148 111.977587,47.8531513 118.07795,50.9956082 Z M166,40.027915 C166,47.2334229 161.862687,53.7328485 155.229194,58.3270307 L149.58,53.8754994 L145,54.207887 L146,51.0567821 L146.015,51.0664994 L145.923049,50.9950934 C152.022847,47.8525885 156,42.7000968 156,36.8768102 L156.000973,22.2802074 C162.182048,26.8358435 166,33.1060895 166,40.027915 Z" id="collar_sweater_Collar" fill="#F2F2F2" />
    </g>
</g>
        <g id="transparent_Face" transform="translate(76.000000, 82.000000)" fill="#000000">
            <g id="transparent_Mouth" transform="translate(2.000000, 52.000000)">    
                
            <g id="eating_Mouth/Eating" stroke="none" stroke-width="1" fill="none" fill-rule="evenodd">
        <g id="eating_Om-Nom-Nom" opacity="0.599999964" transform="translate(28.000000, 6.000000)" fill="#000000" fill-opacity="0.599999964">
            <path d="M45.7064761,0 C42.3399588,1.95870633 40.0195381,5.49520667 40.0195381,9.67694348 C40.0195381,15.344608 45.4930527,20.2451296 51.8234083,20.2451296 C51.8823878,20.2451296 51.9412524,20.2447983 52,20.244138 C50.6423552,20.7317259 49.1600404,21 47.6077404,21 C42.2861196,21 37.787011,17.8470634 36.3137083,13.513833 C33.8402487,15.6694366 30.1376666,17.0394229 26,17.0394229 C21.8623334,17.0394229 18.1597513,15.6694366 15.6851623,13.5125989 C14.212989,17.8470634 9.71388039,21 4.39225962,21 C2.83995964,21 1.35764479,20.7317259 0,20.244138 C0.0587475828,20.2447983 0.11761218,20.2451296 0.176591694,20.2451296 C6.50694731,20.2451296 11.9804619,15.344608 11.9804619,9.67694348 C11.9804619,5.49520667 9.66004124,1.95870633 6.29352385,0 C11.7918498,0.797121661 16.0171848,4.99477485 16.1905909,10.1049337 C18.754121,11.8420922 22.2048056,12.9056086 26,12.9056086 C29.7951944,12.9056086 33.245879,11.8420922 35.8100516,10.1058522 C35.9828152,4.99477485 40.2081502,0.797121661 45.7064761,0 Z" id="eating_Delicious" />
        </g>
        <circle id="eating_Redish" fill-opacity="0.2" fill="#FF4646" cx="17" cy="15" r="9" />
        <circle id="eating_Redish" fill-opacity="0.2" fill="#FF4646" cx="91" cy="15" r="9" />
    </g>
</g>
            <g id="transparent_Nose" transform="translate(28.000000, 40.000000)" fill-opacity="0.16">
                
            <g id="small_Nose/Small" stroke="none" stroke-width="1" fill="none" fill-rule="evenodd"><path d="M20,7 C20,12.5228475 24.0470996,15 28,15 C31.9529004,15 36,12.5228475 36,7 C33.8327451,7.7317728 31.1406373,8.0976592 27.9236765,8.0976592 C24.7406373,8.0976592 22.0994118,7.7317728 20,7 Z" id="small_Nose" fill-opacity=".16" fill="#000" /></g></g>
            <g id="transparent_Eyes" transform="translate(0.000000, 8.000000)">
                
            <g id="side_Eyes/Side-ðŸ˜’" stroke="none" stroke-width="1" fill="none" fill-rule="evenodd" fill-opacity="0.599999964">
        <path d="M26.9975803,16 C30.5023373,16 33.8908881,17.3142215 36.0178027,19.5426914 C36.76432,20.2169977 37.3413788,21.076429 37.6755948,22.0487876 C37.7255661,22.1661456 37.7719796,22.285947 37.8153518,22.4071242 C37.9093375,22.6697105 37.9470658,22.9204105 37.9396792,23.1420431 C37.9792021,23.4217112 38,23.7084268 38,24 C38,27.3137085 35.3137085,30 32,30 C28.6862915,30 26,27.3137085 26,24 C26,22.6248836 26.4625977,21.3578126 27.2406617,20.3459186 C27.1600773,20.3443723 27.0789132,20.3437884 26.9975803,20.3437884 C23.2572061,20.3437884 19.8737584,21.5787519 17.4375392,23.5716412 C16.5467928,24.3002944 15.6201012,23.5583844 16.1601674,22.4473116 C18.006676,18.648508 22.1644225,16 26.9975803,16 Z" id="side_Eye" fill="#000000" />
        <path d="M84.9975803,16 C88.5023373,16 91.8908881,17.3142215 94.0178027,19.5426914 C94.76432,20.2169977 95.3413788,21.076429 95.6755948,22.0487876 C95.7255661,22.1661456 95.7719796,22.285947 95.8153518,22.4071242 C95.9093375,22.6697105 95.9470658,22.9204105 95.9396792,23.1420431 C95.9792021,23.4217112 96,23.7084268 96,24 C96,27.3137085 93.3137085,30 90,30 C86.6862915,30 84,27.3137085 84,24 C84,22.6248836 84.4625977,21.3578126 85.2406617,20.3459186 C85.1600773,20.3443723 85.0789132,20.3437884 84.9975803,20.3437884 C81.2572061,20.3437884 77.8737584,21.5787519 75.4375392,23.5716412 C74.5467928,24.3002944 73.6201012,23.5583844 74.1601674,22.4473116 C76.006676,18.648508 80.1644225,16 84.9975803,16 Z" id="side_Eye" fill="#000000" />
    </g>
</g>
            <g id="transparent_Eyebrow" fill-opacity="0.599999964">
                
            <g id="angry_Eyebrow/Outline/Angry" stroke="none" stroke-width="1" fill="none" fill-rule="evenodd" fill-opacity="0.599999964">
        <path d="M15.6114904,15.1845247 C19.8515017,9.41618792 22.4892046,9.70087612 28.9238518,14.5564693 C29.1057771,14.6937504 29.2212592,14.7812575 29.5936891,15.063789 C34.4216439,18.7263562 36.7081807,20 40,20 C41.1045695,20 42,19.1045695 42,18 C42,16.8954305 41.1045695,16 40,16 C37.9337712,16 36.0986396,14.9777974 32.011227,11.8770179 C31.6358269,11.5922331 31.5189458,11.5036659 31.3332441,11.3635351 C27.5737397,8.52660822 25.3739873,7.28738405 22.6379899,6.99208688 C18.9538127,6.59445233 15.5799484,8.47367246 12.3885096,12.8154753 C11.7343147,13.7054768 11.9254737,14.9572954 12.8154753,15.6114904 C13.7054768,16.2656853 14.9572954,16.0745263 15.6114904,15.1845247 Z" id="angry_Eyebrow" fill="#000000" fill-rule="nonzero" />
        <path d="M73.6114904,15.1845247 C77.8515017,9.41618792 80.4892046,9.70087612 86.9238518,14.5564693 C87.1057771,14.6937504 87.2212592,14.7812575 87.5936891,15.063789 C92.4216439,18.7263562 94.7081807,20 98,20 C99.1045695,20 100,19.1045695 100,18 C100,16.8954305 99.1045695,16 98,16 C95.9337712,16 94.0986396,14.9777974 90.011227,11.8770179 C89.6358269,11.5922331 89.5189458,11.5036659 89.3332441,11.3635351 C85.5737397,8.52660822 83.3739873,7.28738405 80.6379899,6.99208688 C76.9538127,6.59445233 73.5799484,8.47367246 70.3885096,12.8154753 C69.7343147,13.7054768 69.9254737,14.9572954 70.8154753,15.6114904 C71.7054768,16.2656853 72.9572954,16.0745263 73.6114904,15.1845247 Z" id="angry_Eyebrow" fill="#000000" fill-rule="nonzero" transform="translate(84.999934, 13.470064) scale(-1, 1) translate(-84.999934, -13.470064) " />
    </g>
</g>
        </g>
        <g id="transparent_Top">
            
        <g id="chef_cap_Hairstyle/Chef Cap" stroke="none" stroke-width="1" fill="none" fill-rule="evenodd">
        <path d="M157.153901,86.8089233 C152.875387,89.8881087 146.944923,92.9808041 139.003339,94.8379429 C136.837339,95.3439429 135.362339,92.6699429 136.935339,91.0969429 C139.768339,88.2649429 143.008339,84.5939429 144.867339,81.0529429 C144.867339,81.0529429 136.0888,78.4632 121.9228,83.7302 C106.4998,88.3702 97.8288,97.5112 93.9378,102.7262 C92.7908,104.2642 90.3508,103.7092 89.9808,101.8262 C89.1828,97.7572 86.5968,95.6059946 89.9808,89.6839946 C89.9808,89.6839946 79.1388,95.9192 78.2588,115.8782 C78.1848,117.5582 75.9728,118.1062 75.1048,116.6642 C69.7248,107.7222 67.4671732,102.9032 80.3581732,82.1422 L93.9378,72.7286002 C92.3138,74.3526002 188.3288,65.5731292 188.3288,92.4531292 C188.3288,107.226129 203.572389,114.692493 191.3288,118.2352 C188.3288,119.103256 174.3208,102.5312 176.6818,92.9052 L173.5288,96.6082 C173.0408,98.5932 164.97823,94.6240921 164.97823,87.2283756 C164.97823,87.2283756 163.825444,82.0075086 157.153901,86.8089233 Z" id="chef_cap_Fill-1" fill="#724133" ns2:color="Hair-500" />
        <g id="chef_cap_Facial-Hair" transform="translate(49.000000, 72.000000)" />
        <g id="chef_cap_Accessory" transform="translate(62.000000, 85.000000)" />
        <g id="chef_cap_Chef_cap" transform="translate(63.000000, -13.000000)">
            <path d="M139.2275,26.4269 C139.2275,16.0449 123.6435,7.6289 104.4205,7.6289 C102.2365,7.6289 100.1035,7.7419 98.0315,7.9499 C91.7265,3.1419 81.3525,-0.0001 69.6135,-0.0001 C57.8745,-0.0001 47.5005,3.1419 41.1965,7.9499 C39.1235,7.7419 36.9905,7.6289 34.8065,7.6289 C15.5835,7.6289 -0.0005,16.0449 -0.0005,26.4269 C-0.0005,32.5069 5.3485,37.9089 13.6385,41.3449 L13.6385,85.0089 L125.0395,85.0089 L125.0395,41.5699 C133.6415,38.1479 139.2275,32.6399 139.2275,26.4269" id="chef_cap_Fill-1" fill="#F4F4F4" />
            <path d="M16.2065,104.153 C30.0265,94.449 68.7285,74.479 122.8585,105.36 C125.2555,106.727 128.2395,104.999 128.2395,102.239 L128.2395,89.302 C128.2395,88.334 127.8485,87.41 127.1465,86.743 C122.6145,82.443 103.9015,66.955 69.4375,66.955 C35.0165,66.955 16.1485,82.404 11.5435,86.727 C10.8235,87.403 10.4275,88.348 10.4373151,89.335 L10.5605,101.231 C10.5905,104.117 13.8445,105.811 16.2065,104.153" id="chef_cap_Fill-4" fill="#F7F9F9" />
            <path d="M69.6338,55.966 L69.6338,55.966 C68.3148,55.966 67.2458,54.897 67.2458,53.578 L67.2458,29.748 C67.2458,28.429 68.3148,27.36 69.6338,27.36 C70.9528,27.36 72.0218,28.429 72.0218,29.748 L72.0218,53.578 C72.0218,54.897 70.9528,55.966 69.6338,55.966" id="chef_cap_Fill-6" fill="#F7F9F9" />
            <path d="M98.0439,59.4919 L98.0439,59.4919 C96.7259,59.4919 95.6559,58.4229 95.6559,57.1039 L95.6559,33.2739 C95.6559,31.9549 96.7259,30.8859 98.0439,30.8859 C99.3629,30.8859 100.4329,31.9549 100.4329,33.2739 L100.4329,57.1039 C100.4329,58.4229 99.3629,59.4919 98.0439,59.4919" id="chef_cap_Fill-8" fill="#F7F9F9" />
            <path d="M39.9233,59.4919 L39.9233,59.4919 C38.6043,59.4919 37.5353,58.4229 37.5353,57.1039 L37.5353,33.2739 C37.5353,31.9549 38.6043,30.8859 39.9233,30.8859 C41.2423,30.8859 42.3113,31.9549 42.3113,33.2739 L42.3113,57.1039 C42.3113,58.4229 41.2423,59.4919 39.9233,59.4919" id="chef_cap_Fill-10" fill="#F7F9F9" />
        </g>
    </g>
</g>
    </g>
</svg>