<svg xmlns="http://www.w3.org/2000/svg" xmlns:ns2="http://design.blush" xmlns:xlink="http://www.w3.org/1999/xlink" width="264px" height="280px" viewBox="0 0 264 280" version="1.1">
    <title id="transparent_Title">Avataaar/Default</title>
    <desc>Created with python_avatars</desc>
    <defs>
        <path d="M100,0 C130.927946,-5.68137151e-15 156,25.072054 156,56 L156.000809,62.1660527 C161.675838,63.1185422 166,68.05429 166,74 L166,88 C166,94.0524166 161.519235,99.0582945 155.693975,99.8813638 C153.627928,119.686472 141.237929,136.421678 124.001014,144.610469 L124,163 L128,163 C167.764502,163 200,195.235498 200,235 L200,244 L0,244 L0,235 C-4.86974701e-15,195.235498 32.235498,163 72,163 L76,163 L75.9999836,144.610943 C58.7625487,136.422324 46.3721119,119.686854 44.3051107,99.8809698 C38.480765,99.0582945 34,94.0524166 34,88 L34,74 C34,68.053942 38.3246685,63.1179645 44.0001873,62.1658855 L44,56 C44,25.072054 69.072054,5.68137151e-15 100,0 Z" id="transparent_path-1" />
        <path d="M83,36.3476251 C83,52.6289957 105.161905,65.8276544 132.5,65.8276544 C159.838095,65.8276544 182,52.6289957 182,36.3476251 C182,34.9853134 181.844841,33.6445843 181.544472,32.3313638 C210.784239,41.4879251 232,68.792221 232,101.051724 L232,110 L32,110 L32,101.051724 C32,68.3970853 53.7386736,40.8197864 83.5337207,32.0021267 C83.1821692,33.4207025 83,34.871494 83,36.3476251 Z" id="transparent_path-3" />
        <rect id="transparent_path-5" x="0" y="0" width="264" height="280" />
        <path d="M74,0 C114.869071,0 148,33.1309285 148,74 L148,84.1482318 L148,197.608051 C135.525121,187.236892 119.490913,181 102,181 L102,181 L98,181 L98,162.610951 C115.530782,154.282984 128.048193,137.114792 129.791419,116.867187 C135.569129,116.002364 140,111.018625 140,105 L140,105 L140,92 C140,87.3536213 137.359271,83.3240177 133.496777,81.3301515 C132.723933,81.0500337 131.951808,80.748163 131.180891,80.4262497 C130.794819,80.3202581 130.400778,80.2331546 130,80.1659169 L130,80.1659169 L130.000458,79.9172528 C117.224481,74.2339715 104.877985,63.0706967 96.1104311,47.8848473 C93.1752556,42.8009742 90.8310687,37.5951441 89.0661426,32.3970356 C80.4313947,42.9409152 67.7445474,53.6023901 52.3415164,62.4953343 C42.777598,68.0170651 33.1467898,72.2910056 24,75.2659587 L24.0003852,137.246608 C29.6019576,148.318362 38.7728825,157.277529 50,162.610951 L50,162.610951 L50,181 L46,181 C38.3273639,181 30.9350359,182.200142 24.0004995,184.422941 L24,230 C24,244.105888 13.5691766,255.775526 0,257.716445 L0,74 C0,33.1309285 33.1309285,0 74,0 Z" id="transparent_path-7" />
    </defs>
    <g id="transparent_Avataaar/Default" stroke="none" stroke-width="1" fill="none" fill-rule="evenodd">
        <g id="transparent_Body" transform="translate(32.000000, 36.000000)">
            <mask id="transparent_mask-2" fill="white">
                <use xlink:href="#transparent_path-1" />
            </mask>
            <use fill="#D0C6AC" xlink:href="#transparent_path-1" />
            <g id="transparent_Skin-Color" mask="url(#transparent_mask-2)" fill="#FFDBB4">
                <g transform="translate(-32.000000, 0.000000)" id="transparent_Color">
                    <rect x="0" y="0" width="264" height="244" />
                </g>
            </g>
            <path d="M44,94 C44,124.927946 69.072054,150 100,150 C130.927946,150 156,124.927946 156,94 L156,94 L156,102 C156,132.927946 130.927946,158 100,158 C69.072054,158 44,132.927946 44,102 Z" id="transparent_Neck-Shadow" fill-opacity="0.100000001" fill="#000000" mask="url(#transparent_mask-2)" />
        </g>
        <g id="transparent_Clothing" transform="translate(0.000000, 170.000000)">
            
        <defs>
        <path d="M99,32.5 C99,44.3741221 113.998461,54 132.5,54 C151.001539,54 166,44.3741221 166,32.5 C166,31.4019929 165.871751,30.3232102 165.624342,29.2694852 C202.75978,32.1370674 232,63.1796858 232,101.051724 L232,110 L32,110 L32,101.051724 C32,62.8342194 61.7761079,31.571298 99.3946469,29.196636 C99.1341902,30.2738104 99,31.3768477 99,32.5 Z" id="graphic_shirt_path-1" />
    </defs>
    <g id="graphic_shirt_Clothing/Graphic-Shirt" stroke="none" stroke-width="1" fill="none" fill-rule="evenodd">
        <mask id="graphic_shirt_mask-2" fill="white">
            <use xlink:href="#graphic_shirt_path-1" />
        </mask>
        <use id="graphic_shirt_Clothes" fill="#E6E6E6" xlink:href="#graphic_shirt_path-1" />
        <g id="graphic_shirt_Fabric-Color" mask="url(#graphic_shirt_mask-2)" fill="#FF488E">
            <rect id="graphic_shirt_ðŸ–Color" x="0" y="0" width="264" height="110" />
        </g>
        <g id="graphic_shirt_Graphic" fill="#FFFFFF" transform="translate(77.000000, 58.000000)">
        </g>
    </g>
</g>
        <g id="transparent_Face" transform="translate(76.000000, 82.000000)" fill="#000000">
            <g id="transparent_Mouth" transform="translate(2.000000, 52.000000)">    
                
            <g id="twinkle_Mouth/Twinkle" stroke="none" stroke-width="1" fill="none" fill-rule="evenodd" fill-opacity="0.599999964">
        <path d="M40,16 C40,21.371763 46.1581544,25 54,25 C61.8418456,25 68,21.371763 68,16 C68,14.8954305 67.050301,14 66,14 C64.7072748,14 64.1302316,14.9051755 64,16 C62.7575758,18.9378973 59.6832595,20.7163149 54,21 C48.3167405,20.7163149 45.2424242,18.9378973 44,16 C43.8697684,14.9051755 43.2927252,14 42,14 C40.949699,14 40,14.8954305 40,16 Z" id="twinkle_Mouth" fill="#000000" fill-rule="nonzero" />
    </g>
</g>
            <g id="transparent_Nose" transform="translate(28.000000, 40.000000)" fill-opacity="0.16">
                
            <g id="default_Nose/Default" stroke="none" stroke-width="1" fill="none" fill-rule="evenodd" fill-opacity="0.16">
        <path d="M16,8 C16,12.418278 21.372583,16 28,16 L28,16 C34.627417,16 40,12.418278 40,8" id="default_Nose" fill="#000000" />
    </g>
</g>
            <g id="transparent_Eyes" transform="translate(0.000000, 8.000000)">
                
            <g id="wink_wacky_Eyes/Wink-Wacky-ðŸ˜œ" stroke="none" stroke-width="1" fill="none" fill-rule="evenodd">
        <circle id="wink_wacky_Cornea?-I-don't-know" fill="#FFFFFF" cx="82" cy="22" r="12" />
        <circle id="wink_wacky_Eye" fill-opacity="0.699999988" fill="#000000" cx="82" cy="22" r="6" />
        <path d="M16.1601674,25.4473116 C18.006676,21.648508 22.1644225,19 26.9975803,19 C31.8136766,19 35.9591217,21.629842 37.8153518,25.4071242 C38.3667605,26.5291977 37.5821037,27.4474817 36.790607,26.7670228 C34.3395063,24.6597833 30.8587163,23.3437884 26.9975803,23.3437884 C23.2572061,23.3437884 19.8737584,24.5787519 17.4375392,26.5716412 C16.5467928,27.3002944 15.6201012,26.5583844 16.1601674,25.4473116 Z" id="wink_wacky_Winky-Doodle" fill-opacity="0.599999964" fill="#000000" />
    </g>
</g>
            <g id="transparent_Eyebrow" fill-opacity="0.599999964">
                
            <g id="up_down_natural_Eyebrow/Natural/Up-Down-Natural" stroke="none" stroke-width="1" fill="none" fill-rule="evenodd" fill-opacity="0.599999964">
        <path d="M22.7663531,1.57844898 L23.6772984,1.17582144 C28.9190996,-0.905265751 36.8645466,-0.0328729562 41.7227321,2.29911638 C42.2897848,2.57148957 41.9021563,3.4519421 41.3211012,3.40711006 C26.4021788,2.25602197 16.3582869,11.5525942 12.9460869,17.8470939 C12.8449215,18.0337142 12.5391523,18.05489 12.4635344,17.8808353 C10.156283,12.5620676 16.9134476,3.89614725 22.7663531,1.57844898 Z" id="up_down_natural_Eye-Browse-Reddit" fill="#000000" />
        <path d="M86.535177,12.0246305 C92.3421916,12.2928751 101.730304,16.5124899 101.488432,22.3684172 C101.480419,22.5600881 101.1989,22.6442368 101.06135,22.496811 C98.306449,19.5374968 78.7459953,16.5471364 71.8564209,18.1317995 C71.2258949,18.2770375 70.7468448,17.6550104 71.1462176,17.2056651 C74.5683263,13.3574126 81.3327077,11.7792465 86.535177,12.0246305 Z" id="up_down_natural_Eyebrow" fill="#000000" transform="translate(86.246508, 17.285912) rotate(5.000000) translate(-86.246508, -17.285912) " />
    </g>
</g>
        </g>
        <g id="transparent_Top">
            
        <g id="curly_2_Hairstyle/Curly 2" stroke="none" stroke-width="1" fill="none" fill-rule="evenodd">
        <g id="curly_2_Accessory" transform="translate(62.000000, 85.000000)"><g id="wayfarers_2_Accesories/Wayfarers" stroke="none" stroke-width="1" fill="none" fill-rule="evenodd"><path d="M100.529931,9 L103.5,9 C124.790455,9 132.354091,14.0962914 133.045455,14.7715644 C134.679318,14.7715644 136,16.061509 136,17.6573466 L136,20.5431288 C136,22.0819721 134.771968,23.3363819 133.219267,23.4240198 L132.612705,23.4391531 C131.44626,23.4830476 128.230186,23.7150617 126.820725,24.9414221 C126.960175,26.434022 127,27.9643151 127,29.5 C127,41.5686429 116.721275,50 102,50 L99.2421498,50 C85.3147125,50 77,42.3359286 77,29.5 C77,27.9522934 77.0404506,26.4100634 77.1814034,24.906131 L75.8004908,24.3608351 C75.5558969,24.2641292 75.0281396,24.090392 74.2963505,23.9099044 C72.256272,23.4067419 70.1589087,23.253569 68.3040836,23.6343084 C67.6235903,23.7739931 66.9922286,23.9836085 66.4128127,24.266732 L64.8308166,25.0394014 C64.9619021,26.5011097 65,27.9979759 65,29.5 C65,41.5686429 54.7212748,50 40,50 L37.2421498,50 C23.3147125,50 15,42.3359286 15,29.5 C15,28.6610668 15.0118851,27.8237427 15.0452193,26.9932548 C14.930996,26.9593697 14.8636364,26.7504239 14.8636364,26.3146932 C14.8636364,23.8880127 10.6851521,23.5019499 9.35563443,23.4405308 L8.95454545,23.428911 C7.32363636,23.428911 6,22.1389663 6,20.5431288 L6,17.6573466 C6,16.061509 7.32363636,14.7715644 8.95454545,14.7715644 L9.07093469,14.6699199 C10.2604418,13.7068794 17.8996241,9.09744476 37.8653976,9.00151937 L41.4700694,9 C42.7306767,9 43.9242203,9.0341353 45.0542384,9.10047223 C57.4173567,9.52253128 60.909731,11.2341396 65.8502273,13.6518809 L66.2689233,13.858509 L66.5639301,13.9581917 C67.3005076,14.1970236 69.0662164,14.7015168 71.0790606,14.7657952 C73.2462948,14.6727857 75.1000195,14.0854019 75.641698,13.8971977 L76.3244551,13.570396 C81.33305,11.2128779 86.4386483,9.71580366 95.5614746,9.20060541 C97.0895989,9.06864066 98.7423376,9 100.529931,9 Z M42.1732992,15.0019264 L38.3853606,15 C19.5815608,15 19.0174468,21.4367119 19.0005234,29.7271501 L19,30.5015498 C19,37.5719428 22.116254,46 36.9709365,46 L40,46 C52.3649085,46 61,39.6270373 61,30.5015498 L60.993687,28.7414887 C60.9091306,21.0134217 59.6920357,15.1237886 42.1732992,15.0019264 L42.1732992,15.0019264 Z M103.614639,15 L100.385361,15 C81.5815608,15 81.0174468,21.4367119 81.0005234,29.7271501 L81,30.5015498 C81,37.5719428 84.1194833,46 98.9709365,46 L102,46 C114.364909,46 123,39.6270373 123,30.5015498 L122.993351,28.711307 C122.905012,20.9167947 121.643025,15 103.614639,15 Z" id="wayfarers_2_Shape" fill-opacity=".16" fill="#000" /><g id="wayfarers_2_Wayfarers" transform="translate(7.000000, 7.000000)" fill-rule="nonzero"><g id="wayfarers_2_Shades" transform="translate(10.795455, 2.928571)" fill="#150662" fill-opacity=".7"><path d="M44.9178864,17.5714286 C44.9178864,27.2737857 36.66775,35.1428571 22.9204545,35.1428571 L20.1704091,35.1428571 C6.42311364,35.1428571 0.923022727,27.2708571 0.923022727,17.5714286 L0.923022727,17.5714286 C0.923022727,7.86614286 2.20715909,0 21.4545455,0 L24.3863636,0 C43.63375,0 44.9178864,7.86614286 44.9178864,17.5714286 L44.9178864,17.5714286 Z" id="wayfarers_2_Shade" /><path d="M106.486068,17.5714286 C106.486068,27.2737857 98.2388636,35.1428571 84.4886364,35.1428571 L81.7385909,35.1428571 C67.9912955,35.1428571 62.4912045,27.2708571 62.4912045,17.5714286 L62.4912045,17.5714286 C62.4912045,7.86614286 63.7753409,0 83.0227273,0 L85.9545455,0 C105.199,0 106.486068,7.86614286 106.486068,17.5714286 L106.486068,17.5714286 Z" id="wayfarers_2_Shade" /></g><path d="M35.1818182,0 C56.8332955,0 58.6451591,10.127 58.6451591,20.5 C58.6451591,32.5686429 48.3955227,41 33.7159091,41 L30.9658636,41 C17.0778409,41 8.78665909,33.3359286 8.78665909,20.5 C8.78665909,10.127 10.5985227,0 32.25,0 L35.1818182,0 Z M35.1818182,5.85421429 L32.25,5.85421429 C14.6502955,5.85421429 14.6502955,12.3175714 14.6502955,20.5 C14.6502955,27.1800714 17.4795,35.1428571 30.9658636,35.1428571 L33.7159091,35.1428571 C44.9418409,35.1428571 52.7815227,29.1217143 52.7815227,20.5 L52.7810475,19.768351 C52.765683,11.935587 52.2535316,5.85421429 35.1818182,5.85421429 Z" id="wayfarers_2_Left" fill="#252C2F" /><path d="M96.75,0 C118.401477,0 120.213341,10.127 120.213341,20.5 C120.213341,32.5686429 109.963705,41 95.2840909,41 L92.5340455,41 C78.6460227,41 70.3548409,33.3359286 70.3548409,20.5 C70.3548409,10.127 72.1667045,0 93.8181818,0 L96.75,0 Z M96.75,5.85421429 L93.8181818,5.85421429 C76.2184773,5.85421429 76.2184773,12.3175714 76.2184773,20.5 C76.2184773,27.1800714 79.0506136,35.1428571 92.5340455,35.1428571 L95.2840909,35.1428571 C106.510023,35.1428571 114.349705,29.1217143 114.349705,20.5 L114.349229,19.768351 C114.333865,11.935587 113.821713,5.85421429 96.75,5.85421429 Z" id="wayfarers_2_Right" fill="#252C2F" /><path d="M2.93181818,5.85714286 C3.61786364,5.17185714 11.1233182,0 32.25,0 C49.9640455,0 53.7138409,1.88014286 59.3898409,4.72085714 L59.8053162,4.93054903 C60.1999353,5.07314243 62.2179351,5.77419634 64.5784525,5.85128811 C66.7290156,5.75689949 68.5684809,5.16080623 69.1059926,4.96981137 C75.5844654,1.74762081 81.9260118,0 96.75,0 C117.876682,0 125.382136,5.17185714 126.068182,5.85714286 C127.689477,5.85714286 129,7.16621429 129,8.78571429 L129,11.7142857 C129,13.3337857 127.689477,14.6428571 126.068182,14.6428571 C126.068182,14.6428571 120.204545,14.6428571 120.204545,17.5714286 C120.204545,20.5 117.272727,13.3337857 117.272727,11.7142857 L117.272727,8.8618831 C113.697201,7.46243482 107.296654,5.85714286 96.75,5.85714286 C84.9995538,5.85714286 79.1475515,6.98813142 74.1276604,9.10414393 L74.1837955,9.24257143 L71.6878772,10.2500422 L74.1813177,11.2582547 L71.981173,16.6874536 L69.263564,15.5885995 C69.0208516,15.4904597 68.4971539,15.3141463 67.770994,15.1309826 C65.7466083,14.6203594 63.6653786,14.4649153 61.8248214,14.8513001 C61.1495627,14.993056 60.5230576,15.2057795 59.9480988,15.4931011 L57.3260941,16.8033836 L54.7026238,11.5651815 L57.3246285,10.2548989 L57.3310023,10.251716 L54.8191364,9.23671429 L54.8992448,9.03890561 C50.5700368,6.97578666 46.5781927,5.85714286 32.25,5.85714286 C21.7038986,5.85714286 15.3034993,7.46145875 11.7272727,8.86093383 L11.7272727,11.7142857 C11.7272727,13.3337857 8.79545455,20.5 8.79545455,17.5714286 C8.79545455,14.6428571 2.93181818,14.6428571 2.93181818,14.6428571 C1.31345455,14.6428571 0,13.3337857 0,11.7142857 L0,8.78571429 C0,7.16621429 1.31345455,5.85714286 2.93181818,5.85714286 Z" id="wayfarers_2_Stuff" fill="#252C2F" /></g></g></g>
        <g id="curly_2_Hair-Color" transform="translate(14.000000, 15.000000)" fill="#C93305">
            <path d="M216.5881,166.6309 C203.7661,162.1819 187.9831,154.9159 190.4341,136.3909 C192.8861,117.8639 200.5141,58.4729 188.2551,40.2199 C181.1771,29.6809 173.3851,26.9209 167.6111,28.7549 C167.2761,20.8949 150.4001,-0.0001 111.9721,-0.0001 C64.0231,-0.0001 33.5101,27.4019 32.1481,57.9279 C30.9331,85.1449 48.2211,98.5219 48.2211,115.1399 C48.2211,131.7589 0.0001,162.7149 0.0001,197.9609 C0.0001,218.0199 11.8201,227.7699 22.0101,232.4539 C30.8221,206.8599 53.6471,187.8049 81.3261,184.4439 C81.3241,184.4389 81.3221,184.4339 81.3211,184.4289 C84.1941,184.0789 87.1191,183.8949 90.0881,183.8949 L94.0881,183.8949 L94.0881,165.5059 C82.7401,160.1149 73.4991,151.0189 67.9151,139.7829 C75.5601,127.8209 98.0041,129.4979 99.4401,109.9639 C100.8021,91.4379 85.4271,94.7069 85.4271,70.4609 C85.4271,46.2139 121.2601,23.4769 159.2531,38.9319 C156.9241,50.8449 162.3971,64.5989 171.0911,83.2649 C182.4751,107.7039 169.5561,130.5699 161.8481,149.8369 C156.5631,156.4469 149.8141,161.8349 142.0881,165.5049 L142.0871,183.8949 L146.0871,183.8949 C150.4381,183.8949 154.6941,184.2889 158.8321,185.0289 C158.8331,185.0339 158.8341,185.0379 158.8351,185.0429 C184.7301,189.6719 205.8151,208.1319 214.1861,232.5179 C227.1411,226.8239 240.8351,216.9049 240.8351,201.5029 C240.8351,178.8909 229.9381,171.2629 216.5881,166.6309" id="curly_2_Fill-1" ns2:color="Hair-500" />
            <path d="M141.3957,29.5947 C141.3957,29.5947 109.2477,41.3097 109.2477,51.3897 C109.2477,61.4697 123.4147,62.5597 123.4147,69.3707 C123.4147,76.1817 111.1817,75.3167 109.2477,83.5367 C107.0677,92.8007 120.9617,98.7937 120.9617,98.7937 C120.9617,98.7937 111.4787,92.6137 113.0617,85.9897 C115.2427,76.8657 131.5877,79.7227 131.5877,71.2777 C131.5877,62.8317 121.7797,60.6527 121.7797,50.0277 C121.7797,43.7617 154.3157,37.0527 159.2527,38.9317 C164.1897,40.8107 151.4757,27.4147 141.3957,29.5947" id="curly_2_Fill-4" ns2:color="Hair-500" />
            <path d="M180.6262,189.29 C176.1682,180.238 165.4842,172.572 161.8482,168.538 C156.6912,162.816 161.8482,149.837 161.8482,149.837 C156.5632,156.447 149.8142,161.835 142.0882,165.505 L142.0872,183.894 L146.0872,183.894 C158.6052,183.894 170.3722,187.094 180.6262,192.711 L180.6262,189.29 Z" id="curly_2_Fill-8" fill-opacity=".6" fill="#000" />
            <path d="M67.9152,139.7832 C66.4152,142.1292 65.4742,144.9902 65.3852,148.6502 C64.9162,167.8642 72.1902,172.3482 81.3152,184.4292 C84.1902,184.0802 87.1172,183.8942 90.0872,183.8942 L94.0872,183.8942 L94.0872,165.5062 C82.7402,160.1152 73.4992,151.0182 67.9152,139.7832" id="curly_2_Fill-10" fill-opacity=".6" fill="#000" />
        </g>
        <path d="M132.7844,30.4277 C79.8404,30.4277 65.1284,63.9377 68.6704,87.3667 C70.7064,100.8367 89.5234,107.0277 92.0994,117.3357 C94.8244,128.2327 74.9364,147.5757 69.2154,155.2037 C63.6634,162.6067 30.2054,189.3097 58.3044,216.2007 C68.7964,207.2177 81.8994,201.1957 96.3264,199.4447 C87.1964,187.3527 79.9154,182.8717 80.3854,163.6507 C80.9304,141.3317 112.7224,148.3297 114.4394,124.9637 C115.8024,106.4377 100.4274,109.7067 100.4274,85.4607 C100.4274,61.2137 136.2604,38.4767 174.2534,53.9317 C174.2534,53.9317 171.5584,53.2387 174.2534,53.9317 C177.1004,46.5017 172.7674,30.4277 132.7844,30.4277" id="curly_2_Fill-6" fill-opacity=".16" fill="#000" />
    </g>
</g>
    </g>
</svg>