<svg xmlns="http://www.w3.org/2000/svg" xmlns:ns2="http://design.blush" xmlns:xlink="http://www.w3.org/1999/xlink" width="264px" height="280px" viewBox="0 0 264 280" version="1.1">
    <title id="transparent_Title">Avataaar/Default</title>
    <desc>Created with python_avatars</desc>
    <defs>
        <path d="M100,0 C130.927946,-5.68137151e-15 156,25.072054 156,56 L156.000809,62.1660527 C161.675838,63.1185422 166,68.05429 166,74 L166,88 C166,94.0524166 161.519235,99.0582945 155.693975,99.8813638 C153.627928,119.686472 141.237929,136.421678 124.001014,144.610469 L124,163 L128,163 C167.764502,163 200,195.235498 200,235 L200,244 L0,244 L0,235 C-4.86974701e-15,195.235498 32.235498,163 72,163 L76,163 L75.9999836,144.610943 C58.7625487,136.422324 46.3721119,119.686854 44.3051107,99.8809698 C38.480765,99.0582945 34,94.0524166 34,88 L34,74 C34,68.053942 38.3246685,63.1179645 44.0001873,62.1658855 L44,56 C44,25.072054 69.072054,5.68137151e-15 100,0 Z" id="transparent_path-1" />
        <path d="M83,36.3476251 C83,52.6289957 105.161905,65.8276544 132.5,65.8276544 C159.838095,65.8276544 182,52.6289957 182,36.3476251 C182,34.9853134 181.844841,33.6445843 181.544472,32.3313638 C210.784239,41.4879251 232,68.792221 232,101.051724 L232,110 L32,110 L32,101.051724 C32,68.3970853 53.7386736,40.8197864 83.5337207,32.0021267 C83.1821692,33.4207025 83,34.871494 83,36.3476251 Z" id="transparent_path-3" />
        <rect id="transparent_path-5" x="0" y="0" width="264" height="280" />
        <path d="M74,0 C114.869071,0 148,33.1309285 148,74 L148,84.1482318 L148,197.608051 C135.525121,187.236892 119.490913,181 102,181 L102,181 L98,181 L98,162.610951 C115.530782,154.282984 128.048193,137.114792 129.791419,116.867187 C135.569129,116.002364 140,111.018625 140,105 L140,105 L140,92 C140,87.3536213 137.359271,83.3240177 133.496777,81.3301515 C132.723933,81.0500337 131.951808,80.748163 131.180891,80.4262497 C130.794819,80.3202581 130.400778,80.2331546 130,80.1659169 L130,80.1659169 L130.000458,79.9172528 C117.224481,74.2339715 104.877985,63.0706967 96.1104311,47.8848473 C93.1752556,42.8009742 90.8310687,37.5951441 89.0661426,32.3970356 C80.4313947,42.9409152 67.7445474,53.6023901 52.3415164,62.4953343 C42.777598,68.0170651 33.1467898,72.2910056 24,75.2659587 L24.0003852,137.246608 C29.6019576,148.318362 38.7728825,157.277529 50,162.610951 L50,162.610951 L50,181 L46,181 C38.3273639,181 30.9350359,182.200142 24.0004995,184.422941 L24,230 C24,244.105888 13.5691766,255.775526 0,257.716445 L0,74 C0,33.1309285 33.1309285,0 74,0 Z" id="transparent_path-7" />
    </defs>
    <g id="transparent_Avataaar/Default" stroke="none" stroke-width="1" fill="none" fill-rule="evenodd">
        <g id="transparent_Body" transform="translate(32.000000, 36.000000)">
            <mask id="transparent_mask-2" fill="white">
                <use xlink:href="#transparent_path-1" />
            </mask>
            <use fill="#D0C6AC" xlink:href="#transparent_path-1" />
            <g id="transparent_Skin-Color" mask="url(#transparent_mask-2)" fill="#D08B5B">
                <g transform="translate(-32.000000, 0.000000)" id="transparent_Color">
                    <rect x="0" y="0" width="264" height="244" />
                </g>
            </g>
            <path d="M44,94 C44,124.927946 69.072054,150 100,150 C130.927946,150 156,124.927946 156,94 L156,94 L156,102 C156,132.927946 130.927946,158 100,158 C69.072054,158 44,132.927946 44,102 Z" id="transparent_Neck-Shadow" fill-opacity="0.100000001" fill="#000000" mask="url(#transparent_mask-2)" />
        </g>
        <g id="transparent_Clothing" transform="translate(0.000000, 170.000000)">
            
        <g id="astronaut_suit_Clothing/Astronaut suit" stroke="none" stroke-width="1" fill="none" fill-rule="evenodd"><g id="astronaut_suit_Astronaut-suit" transform="translate(32.000000, 22.000000)"><path d="M127.9997,6.7405 L123.9997,6.7405 L124.0007,0.0005 L75.9997,0.0005 L75.9997,6.7405 L71.9997,6.7405 C32.6327,6.7405 0.6457,38.3345 0.0097,77.5495 L-0.0003,78.7405 L-0.0003,87.7405 L199.9997,87.7405 L199.9997,78.7405 C199.9997,38.9755 167.7647,6.7405 127.9997,6.7405" id="astronaut_suit_Fill-1" fill="#B0DBE2" /><path d="M180.2253,29.2054 C168.8273,38.7164 145.7303,58.8474 145.7303,58.8474 L145.7303,87.7404 L199.9993,87.7404 L199.9993,78.7404 C199.9993,59.5424 192.4713,42.1134 180.2253,29.2054" id="astronaut_suit_Fill-4" fill="#D4EEF4" /><path d="M0.0095,77.5491 L0.0005,78.7401 L0.0005,87.7401 L54.3105,87.7401 L54.3105,58.8471 C54.3105,58.8471 31.1785,38.6861 19.7905,29.1841 C7.7865,41.8261 0.3135,58.8131 0.0095,77.5491" id="astronaut_suit_Fill-6" fill="#D4EEF4" /><path d="M121.8503,50.7298 L78.1893,50.7298 C73.4013,50.7298 69.5203,54.6118 69.5203,59.3998 L69.5203,87.7738 L130.5203,87.7738 L130.5203,59.3998 C130.5203,54.6118 126.6383,50.7298 121.8503,50.7298" id="astronaut_suit_Fill-8" fill="#60ADE6" ns2:color="Top-500" /><path d="M83.6935,58.473 C80.9605,58.473 78.7445,60.689 78.7445,63.422 C78.7445,66.156 80.9605,68.371 83.6935,68.371 C86.4265,68.371 88.6425,66.156 88.6425,63.422 C88.6425,60.689 86.4265,58.473 83.6935,58.473" id="astronaut_suit_Fill-10" fill="#EBFCFF" /><path d="M100.0202,58.473 C97.2872,58.473 95.0712,60.689 95.0712,63.422 C95.0712,66.156 97.2872,68.371 100.0202,68.371 C102.7532,68.371 104.9692,66.156 104.9692,63.422 C104.9692,60.689 102.7532,58.473 100.0202,58.473" id="astronaut_suit_Fill-12" fill="#EBFCFF" /><path d="M116.3464,58.473 C113.6144,58.473 111.3974,60.689 111.3974,63.422 C111.3974,66.156 113.6144,68.371 116.3464,68.371 C119.0804,68.371 121.2964,66.156 121.2964,63.422 C121.2964,60.689 119.0804,58.473 116.3464,58.473" id="astronaut_suit_Fill-14" fill="#EBFCFF" /><path d="M117.8112,87.7737 L82.2292,87.7737 C80.3042,87.7737 78.7442,86.2137 78.7442,84.2897 L78.7442,78.4967 C78.7442,76.5717 80.3042,75.0107 82.2292,75.0107 L117.8112,75.0107 C119.7362,75.0107 121.2962,76.5717 121.2962,78.4967 L121.2962,84.2897 C121.2962,86.2137 119.7362,87.7737 117.8112,87.7737" id="astronaut_suit_Fill-16" fill="#B0DBE2" /><path d="M164.361,16.6038 C153.687,10.3438 141.267,6.7408 128,6.7408 L124,6.7408 L124.001,-0.0002 L76,-0.0002 L76,6.7408 L72,6.7408 C59.006,6.7408 46.827,10.1998 36.303,16.2208 C95.548,34.5108 143.322,23.6098 164.361,16.6038" id="astronaut_suit_Fill-18" fill="#60ADE6" ns2:color="Top-500" /></g></g></g>
        <g id="transparent_Face" transform="translate(76.000000, 82.000000)" fill="#000000">
            <g id="transparent_Mouth" transform="translate(2.000000, 52.000000)">    
                
            <defs>
        <path d="M34.0082051,15.1361102 C35.1280248,29.123916 38.2345159,40.9925405 53.9961505,40.9999965 C69.757785,41.0074525 72.9169073,29.0566179 73.9942614,15.0063928 C74.0809675,13.8756222 73.1738581,12.9999965 72.0369872,12.9999965 C65.3505138,12.9999965 62.6703194,14.9936002 53.9894323,14.9999965 C45.3085452,15.0063928 40.7567994,12.9999965 36.0924943,12.9999965 C34.9490269,12.9999965 33.8961688,13.7366502 34.0082051,15.1361102 Z" id="scream_open_path-1" />
    </defs>
    <g id="scream_open_Mouth/Scream-Open" stroke="none" stroke-width="1" fill="none" fill-rule="evenodd">
        <mask id="scream_open_mask-2" fill="white">
            <use xlink:href="#scream_open_path-1" transform="translate(54.000000, 26.999998) scale(1, -1) translate(-54.000000, -26.999998)" />
        </mask>
        <use id="scream_open_Mouth" fill-opacity="0.699999988" fill="#000000" transform="translate(54.000000, 26.999998) scale(1, -1) translate(-54.000000, -26.999998)" xlink:href="#scream_open_path-1" />
        <path d="M44,2 L65,2 C67.7614237,2 70,4.23857625 70,7 L70,13 C70,15.7614237 67.7614237,18 65,18 L44,18 C41.2385763,18 39,15.7614237 39,13 L39,7 C39,4.23857625 41.2385763,2 44,2 Z" id="scream_open_Teeth" fill="#FFFFFF" mask="url(#scream_open_mask-2)" />
        <g id="scream_open_Tongue" mask="url(#scream_open_mask-2)" fill="#FF4F6D">
            <g transform="translate(38.000000, 32.000000)" id="scream_open_Say-ahhhh">
                <circle cx="11" cy="11" r="11" />
                <circle cx="21" cy="11" r="11" />
            </g>
        </g>
    </g>
</g>
            <g id="transparent_Nose" transform="translate(28.000000, 40.000000)" fill-opacity="0.16">
                
            <g id="default_Nose/Default" stroke="none" stroke-width="1" fill="none" fill-rule="evenodd" fill-opacity="0.16">
        <path d="M16,8 C16,12.418278 21.372583,16 28,16 L28,16 C34.627417,16 40,12.418278 40,8" id="default_Nose" fill="#000000" />
    </g>
</g>
            <g id="transparent_Eyes" transform="translate(0.000000, 8.000000)">
                
            <g id="default_Eyes/Default-😀" stroke="none" stroke-width="1" fill="none" fill-rule="evenodd" fill-opacity="0.599999964">
        <circle id="default_Eye" fill="#000000" cx="30" cy="22" r="6" />
        <circle id="default_Eye" fill="#000000" cx="82" cy="22" r="6" />
    </g>
</g>
            <g id="transparent_Eyebrow" fill-opacity="0.599999964">
                
            <g id="raised_excited_natural_Eyebrow/Natural/Raised-Excited-Natural" stroke="none" stroke-width="1" fill="none" fill-rule="evenodd" fill-opacity="0.599999964">
        <path d="M22.7663531,1.57844898 L23.6772984,1.17582144 C28.9190996,-0.905265751 36.8645466,-0.0328729562 41.7227321,2.29911638 C42.2897848,2.57148957 41.9021563,3.4519421 41.3211012,3.40711006 C26.4021788,2.25602197 16.3582869,11.5525942 12.9460869,17.8470939 C12.8449215,18.0337142 12.5391523,18.05489 12.4635344,17.8808353 C10.156283,12.5620676 16.9134476,3.89614725 22.7663531,1.57844898 Z" id="raised_excited_natural_Eye-Browse-Reddit" fill="#000000" />
        <path d="M80.7663531,1.57844898 L81.6772984,1.17582144 C86.9190996,-0.905265751 94.8645466,-0.0328729562 99.7227321,2.29911638 C100.289785,2.57148957 99.9021563,3.4519421 99.3211012,3.40711006 C84.4021788,2.25602197 74.3582869,11.5525942 70.9460869,17.8470939 C70.8449215,18.0337142 70.5391523,18.05489 70.4635344,17.8808353 C68.156283,12.5620676 74.9134476,3.89614725 80.7663531,1.57844898 Z" id="raised_excited_natural_Eye-Browse-Reddit" fill="#000000" transform="translate(85.000000, 9.000000) scale(-1, 1) translate(-85.000000, -9.000000) " />
    </g>
</g>
        </g>
        <g id="transparent_Top">
            
        <defs>
        <path d="M58,1 C115,0.274362825 115.719178,53.7019177 115,64 C114.653144,65.488448 113.327244,65.2226722 113,64 C113.46274,62.445722 109.704055,35.2480719 100,28 C98.2407597,26.7763806 92.7529656,25.6102528 85.359342,24.7391156 L89,16 L82.01872,24.3785401 C74.9866735,23.6847668 66.6576417,23.2514723 58.3126144,23.245568 C39.0082164,23.2319099 19.618222,25.4833872 16,28 C6.29594493,35.2480719 2.53726005,62.445722 3,64 C2.67275588,65.2226722 1.34685629,65.488448 1,64 C0.280821545,53.7019177 1,1.72563718 58,1 Z" id="caesar_side_part_path-1" />
    </defs>
    <g id="caesar_side_part_Top/Short-Hair/The-Caesar-+-Side-Part" stroke="none" stroke-width="1" fill="none" fill-rule="evenodd">
        <g id="caesar_side_part_Facial-Hair" transform="translate(49.000000, 72.000000)"><defs>
        <path d="M84.5044337,93.8410391 C72.9930718,94.2191416 67.8580835,99.7213834 63.9909333,94.1296214 C61.0884259,89.9323547 62.3028943,82.8739117 65.014944,78.9027173 C68.8738581,73.2512381 74.1088724,75.9847769 79.9622738,75.3400279 C81.5538829,75.1648137 83.1526985,74.7228407 84.5044337,74 C85.856169,74.7228407 87.4546414,75.1648137 89.0462504,75.3400279 C94.899995,75.9847769 100.134666,73.2512381 103.993923,78.9027173 C106.70563,82.8739117 107.920098,89.9323547 105.017591,94.1296214 C101.150441,99.7213834 96.0157956,93.4629366 84.5044337,93.8410391 Z M140.39109,26 C136.966521,40.0748212 135.393023,54.4337754 132.909944,68.6711471 C132.392536,71.6390145 131.826063,74.5963095 131.224594,77.5496398 C131.098329,78.1697764 130.973781,80.4725746 130.362704,80.7643064 C128.511632,81.6484223 124.739149,76.9466834 123.730409,75.8851496 C121.196893,73.219256 118.684993,70.5292442 115.599415,68.437233 C109.364783,64.2102603 102.065485,61.7108818 94.4700836,61.117837 C91.2922091,60.8693859 86.9951134,61.3025234 84.000116,63.1104016 C81.0051185,61.3025234 76.7080229,60.8693859 73.5298053,61.117837 C65.9344039,61.7108818 58.6351055,64.2102603 52.4004739,68.437233 C49.3148957,70.5292442 46.8033387,73.219256 44.2694796,75.8851496 C43.2607395,76.9466834 39.4882573,81.6484223 37.6371849,80.7643064 C37.0261079,80.4725746 36.9015594,78.1697764 36.7752954,77.5496398 C36.1738255,74.5963095 35.6073527,71.6390145 35.0899445,68.6711471 C32.6072086,54.4337754 31.0337113,40.0748212 27.6091415,26 C26.6127533,26 25.7385119,44.7478165 25.6273446,46.4945731 C25.174784,53.5889755 24.6463963,60.5254529 25.3216346,67.6261326 C26.485803,79.8749043 27.6993791,95.2339402 37.032627,104.58753 C45.4659003,113.039493 57.7103052,114.806417 68.2713185,120.141327 C69.631059,120.828202 71.4347824,121.676306 73.3798667,122.37111 C75.4289129,123.934171 79.4926946,125 84.1740722,125 C89.0846465,125 93.3155222,123.827456 95.2540874,122.137856 C96.9548781,121.49261 98.5180822,120.752874 99.7285704,120.141327 C110.288776,114.805245 122.533989,113.039493 130.967262,104.58753 C140.30051,95.2339402 141.514086,79.8749043 142.678597,67.6261326 C143.353493,60.5254529 142.825105,53.5889755 142.372887,46.4945731 C142.261377,44.7478165 141.387136,26 140.39109,26 Z" id="beard_medium_path-1" />
    </defs>
    <g id="beard_medium_Facial-Hair/Beard-Medium" stroke="none" stroke-width="1" fill="none" fill-rule="evenodd">
        <mask id="beard_medium_mask-2" fill="white">
            <use xlink:href="#beard_medium_path-1" />
        </mask>
        <use id="beard_medium_Beardness" fill="#252E32" xlink:href="#beard_medium_path-1" />
        <g id="beard_medium_Facial-Hair-Color" mask="url(#beard_medium_mask-2)" fill="#D6B370">
            <rect id="beard_medium_Color" x="0" y="0" width="168" height="152" />
        </g>
    </g>
</g>
        <g id="caesar_side_part_Hair" transform="translate(75.000000, 34.000000)">
            <mask id="caesar_side_part_mask-2" fill="white">
                <use xlink:href="#caesar_side_part_path-1" />
            </mask>
            <use id="caesar_side_part_Caesar" fill="#28354B" xlink:href="#caesar_side_part_path-1" />
            <g id="caesar_side_part_Hair-Color" mask="url(#caesar_side_part_mask-2)" fill="#D6B370">
                <g transform="translate(-74.000000, -34.000000)" id="caesar_side_part_Color">
                    <rect x="0" y="0" width="264" height="280" />
                </g>
            </g>
        </g>
        <g id="caesar_side_part_Accessory" transform="translate(62.000000, 85.000000)"><defs>
        <path d="M83.4984286,93.8410391 C72.1241067,94.2191416 67.0502492,99.7213834 63.2291365,94.1296214 C60.3611827,89.9323547 61.5611932,82.8739117 64.2409566,78.9027173 C68.0539313,73.2512381 73.2266239,75.9847769 79.010342,75.3400279 C80.5830033,75.1648137 82.1627854,74.7228407 83.4984286,74 C84.8340717,74.7228407 86.4135147,75.1648137 87.986176,75.3400279 C93.7702332,75.9847769 98.9425868,73.2512381 102.755901,78.9027173 C105.435325,82.8739117 106.635335,89.9323547 103.767382,94.1296214 C99.9462689,99.7213834 94.8727504,93.4629366 83.4984286,93.8410391 Z M138.719768,26 C135.335967,40.0748212 133.781202,54.4337754 131.327683,68.6711471 C130.816435,71.6390145 130.256705,74.5963095 129.662396,77.5496398 C129.537635,78.1697764 129.414569,80.4725746 128.810767,80.7643064 C126.981731,81.6484223 123.254159,76.9466834 122.257428,75.8851496 C119.754073,73.219256 117.272077,70.5292442 114.223231,68.437233 C108.062822,64.2102603 100.85042,61.7108818 93.3454397,61.117837 C90.2053971,60.8693859 85.9594573,61.3025234 83.0001146,63.1104016 C80.0407719,61.3025234 75.7948321,60.8693859 72.6544504,61.117837 C65.1494705,61.7108818 57.9370685,64.2102603 51.7766588,68.437233 C48.7278137,70.5292442 46.2461561,73.219256 43.742462,75.8851496 C42.7457307,76.9466834 39.018159,81.6484223 37.1891231,80.7643064 C36.5853209,80.4725746 36.4622551,78.1697764 36.3374942,77.5496398 C35.7431847,74.5963095 35.1834557,71.6390145 34.6722071,68.6711471 C32.2190276,54.4337754 30.6642623,40.0748212 27.2804612,26 C26.2959348,26 25.432101,44.7478165 25.3222572,46.4945731 C24.8750842,53.5889755 24.3529868,60.5254529 25.0201865,67.6261326 C26.1704958,79.8749043 27.3696246,95.2339402 36.5917624,104.58753 C44.9246396,113.039493 57.0232778,114.806417 67.4585647,120.141327 C68.8021178,120.828202 70.5843683,121.676306 72.5062968,122.37111 C74.5309497,123.934171 78.546353,125 83.1719999,125 C88.024115,125 92.2046231,123.827456 94.1201102,122.137856 C95.8006534,121.49261 97.3452479,120.752874 98.5413255,120.141327 C108.975814,114.805245 121.075251,113.039493 129.408128,104.58753 C138.630266,95.2339402 139.829394,79.8749043 140.980043,67.6261326 C141.646903,60.5254529 141.124806,53.5889755 140.677972,46.4945731 C140.567789,44.7478165 139.703955,26 138.719768,26 Z" id="eyepatch_path-1" />
    </defs>
    <g id="eyepatch_Top/Accesories/Eyepatch" stroke="none" stroke-width="1" fill="none" fill-rule="evenodd" transform="translate(-62 -85)">
        <path d="M160.395307,39.7810237 C157.318088,36.6927979 154.11865,43.6386608 152.623361,45.4281124 C149.013122,49.7486528 145.540256,54.182935 141.868413,58.4518947 C134.616309,66.8823544 127.439316,75.3743141 120.233991,83.8401528 C119.140279,85.1257012 119.27271,85.2649028 117.837048,85.3885641 C116.88598,85.4708947 115.563312,84.9802173 114.5737,84.9256608 C111.823607,84.774556 109.112057,85.2348141 106.435756,85.8227012 C101.091389,86.9961608 95.4264863,88.9291124 90.7890799,91.898306 C89.5718308,92.677306 88.7874545,93.5971608 87.4670933,93.841177 C86.3183659,94.0534512 84.794416,93.6295641 83.622299,93.5194592 C81.5412806,93.3237173 78.5378542,92.4726366 76.4953793,92.9137173 C73.9027538,93.4738302 72.9174244,96.6109915 75.5604528,98.0003624 C77.570314,99.0564431 81.5706,98.4761608 83.8235816,98.6447899 C86.3971,98.8372253 85.6120649,98.704306 85.2473843,101.164306 C84.7239177,104.69758 85.5985582,108.646475 87.0885766,111.878201 C90.5482655,119.383185 100.122861,127.335201 108.8551,126.603153 C116.142123,125.992451 122.526834,119.413274 125.519389,113.099935 C127.050916,109.868871 127.954546,106.192096 128.250376,102.628403 C128.438811,100.36183 128.333722,97.9580399 127.684083,95.7632173 C127.362888,94.6783705 126.853916,93.5554995 126.308378,92.5695157 C125.866281,91.7710076 123.908799,89.9203866 123.788886,89.1165882 C123.556307,87.5602415 127.973324,83.3874995 128.816339,82.3443141 C132.788953,77.4276205 136.780344,72.5320882 140.721662,67.5889431 C144.603353,62.7201931 148.506456,57.8640076 152.489612,53.0785802 C154.294237,50.9098786 163.318023,42.7148382 160.395307,39.7810237" id="eyepatch_Badass-Eyepatch" fill="#28354B" />
    </g>
</g>
    </g>
</g>
    </g>
</svg>