<svg xmlns="http://www.w3.org/2000/svg" xmlns:ns2="http://design.blush" xmlns:xlink="http://www.w3.org/1999/xlink" width="264px" height="280px" viewBox="0 0 264 280" version="1.1">
    <title id="transparent_Title">Avataaar/Default</title>
    <desc>Created with python_avatars</desc>
    <defs>
        <path d="M100,0 C130.927946,-5.68137151e-15 156,25.072054 156,56 L156.000809,62.1660527 C161.675838,63.1185422 166,68.05429 166,74 L166,88 C166,94.0524166 161.519235,99.0582945 155.693975,99.8813638 C153.627928,119.686472 141.237929,136.421678 124.001014,144.610469 L124,163 L128,163 C167.764502,163 200,195.235498 200,235 L200,244 L0,244 L0,235 C-4.86974701e-15,195.235498 32.235498,163 72,163 L76,163 L75.9999836,144.610943 C58.7625487,136.422324 46.3721119,119.686854 44.3051107,99.8809698 C38.480765,99.0582945 34,94.0524166 34,88 L34,74 C34,68.053942 38.3246685,63.1179645 44.0001873,62.1658855 L44,56 C44,25.072054 69.072054,5.68137151e-15 100,0 Z" id="transparent_path-1" />
        <path d="M83,36.3476251 C83,52.6289957 105.161905,65.8276544 132.5,65.8276544 C159.838095,65.8276544 182,52.6289957 182,36.3476251 C182,34.9853134 181.844841,33.6445843 181.544472,32.3313638 C210.784239,41.4879251 232,68.792221 232,101.051724 L232,110 L32,110 L32,101.051724 C32,68.3970853 53.7386736,40.8197864 83.5337207,32.0021267 C83.1821692,33.4207025 83,34.871494 83,36.3476251 Z" id="transparent_path-3" />
        <rect id="transparent_path-5" x="0" y="0" width="264" height="280" />
        <path d="M74,0 C114.869071,0 148,33.1309285 148,74 L148,84.1482318 L148,197.608051 C135.525121,187.236892 119.490913,181 102,181 L102,181 L98,181 L98,162.610951 C115.530782,154.282984 128.048193,137.114792 129.791419,116.867187 C135.569129,116.002364 140,111.018625 140,105 L140,105 L140,92 C140,87.3536213 137.359271,83.3240177 133.496777,81.3301515 C132.723933,81.0500337 131.951808,80.748163 131.180891,80.4262497 C130.794819,80.3202581 130.400778,80.2331546 130,80.1659169 L130,80.1659169 L130.000458,79.9172528 C117.224481,74.2339715 104.877985,63.0706967 96.1104311,47.8848473 C93.1752556,42.8009742 90.8310687,37.5951441 89.0661426,32.3970356 C80.4313947,42.9409152 67.7445474,53.6023901 52.3415164,62.4953343 C42.777598,68.0170651 33.1467898,72.2910056 24,75.2659587 L24.0003852,137.246608 C29.6019576,148.318362 38.7728825,157.277529 50,162.610951 L50,162.610951 L50,181 L46,181 C38.3273639,181 30.9350359,182.200142 24.0004995,184.422941 L24,230 C24,244.105888 13.5691766,255.775526 0,257.716445 L0,74 C0,33.1309285 33.1309285,0 74,0 Z" id="transparent_path-7" />
    </defs>
    <g id="transparent_Avataaar/Default" stroke="none" stroke-width="1" fill="none" fill-rule="evenodd">
        <g id="transparent_Body" transform="translate(32.000000, 36.000000)">
            <mask id="transparent_mask-2" fill="white">
                <use xlink:href="#transparent_path-1" />
            </mask>
            <use fill="#D0C6AC" xlink:href="#transparent_path-1" />
            <g id="transparent_Skin-Color" mask="url(#transparent_mask-2)" fill="#EDB98A">
                <g transform="translate(-32.000000, 0.000000)" id="transparent_Color">
                    <rect x="0" y="0" width="264" height="244" />
                </g>
            </g>
            <path d="M44,94 C44,124.927946 69.072054,150 100,150 C130.927946,150 156,124.927946 156,94 L156,94 L156,102 C156,132.927946 130.927946,158 100,158 C69.072054,158 44,132.927946 44,102 Z" id="transparent_Neck-Shadow" fill-opacity="0.100000001" fill="#000000" mask="url(#transparent_mask-2)" />
        </g>
        <g id="transparent_Clothing" transform="translate(0.000000, 170.000000)">
            
        <g id="shirt_wick_Clothing/Shirt Wick" stroke="none" stroke-width="1" fill="none" fill-rule="evenodd">
        <g id="shirt_wick_Wick-suit" transform="translate(31.500000, 28.600000)">
            <path d="M124.379699,3.0005061 L128.359699,3.0005061 C167.925874,3.0005061 199.999699,34.434727 199.999699,73.2118883 L199.999699,81.9883111 L0.9996985,81.9883111 L0.9996985,73.2118883 L1.0096485,72.050475 C1.6424685,33.8096507 33.4695335,3.0005061 72.6396985,3.0005061 L76.6196985,3.0005061 C76.6196985,3.0005061 76.4236835,15.1129447 100.491739,15.1129447 C124.559794,15.1129447 124.379699,3.0005061 124.379699,3.0005061" id="shirt_wick_Fill-1" fill="#EDEDED" />
            <path d="M118.32468,81.988311 L107.529975,28.3672744 C111.54093,27.0767256 114.229305,24.7476646 114.229305,22.0795183 C114.229305,18.0155549 108.00735,14.7198476 100.334175,14.7198476 C92.659995,14.7198476 86.439045,18.0155549 86.439045,22.0795183 C86.439045,24.7476646 89.12742,27.0767256 93.138375,28.3672744 L82.34367,81.988311 L118.32468,81.988311 Z" id="shirt_wick_Fabric-Color" fill="#E6E6E6" ns2:color="Top-500" />
            <path d="M86.846271,30.4401 L100.520301,16.6691854 L114.194331,30.4401 L142.147401,2.28791707 C137.769621,1.45386829 133.258176,1.00040488 128.639196,1.00040488 L124.619196,1.00040488 C124.619196,1.00040488 124.801101,13.5728805 100.491156,13.5728805 C76.181211,13.5728805 76.380201,1.00040488 76.380201,1.00040488 L72.360201,1.00040488 C67.753281,1.00040488 63.252891,1.44981951 58.885161,2.27981951 L86.846271,30.4401 Z" id="shirt_wick_Fill-7" fill="#FFF" />
            <path d="M128.639698,0.000506097561 L124.640803,0.000506097561 L124.640803,81.988311 L200.999698,81.988311 L200.999698,72.8785549 C200.999698,32.6286159 168.603523,0.000506097561 128.639698,0.000506097561" id="shirt_wick_Fill-9" fill="#191919" />
            <path d="M76.380201,0.000506097561 L72.360201,0.000506097561 C32.796366,0.000506097561 0.649431,31.9797988 0.009246,71.6730305 L0.000201,72.8785549 L0.000201,81.988311 L76.380201,81.988311 L76.380201,0.000506097561 Z" id="shirt_wick_Fill-12" fill="#191919" />
            <path d="M66.873906,0.206082927 L40.132866,43.4571805 L62.584566,56.6946683 L48.757776,75.9982415 L55.328466,81.9884122 L76.380201,81.9884122 L76.380201,0.000607317073 C76.380201,0.000607317073 73.264701,0.0431195122 66.873906,0.206082927" id="shirt_wick_Fill-15" fill="#2B2B2B" />
            <path d="M134.28006,0.224909756 L160.887435,43.4577878 L138.435735,56.6942634 L152.26353,75.9978366 L145.69083,81.9880073 L124.6401,81.9869951 L124.6401,-0.000809756098 C124.6401,-0.000809756098 127.889265,0.0619463415 134.28006,0.224909756" id="shirt_wick_Fill-18" fill="#2B2B2B" />
        </g>
    </g>
</g>
        <g id="transparent_Face" transform="translate(76.000000, 82.000000)" fill="#000000">
            <g id="transparent_Mouth" transform="translate(2.000000, 52.000000)">    
                
            <g id="twinkle_Mouth/Twinkle" stroke="none" stroke-width="1" fill="none" fill-rule="evenodd" fill-opacity="0.599999964">
        <path d="M40,16 C40,21.371763 46.1581544,25 54,25 C61.8418456,25 68,21.371763 68,16 C68,14.8954305 67.050301,14 66,14 C64.7072748,14 64.1302316,14.9051755 64,16 C62.7575758,18.9378973 59.6832595,20.7163149 54,21 C48.3167405,20.7163149 45.2424242,18.9378973 44,16 C43.8697684,14.9051755 43.2927252,14 42,14 C40.949699,14 40,14.8954305 40,16 Z" id="twinkle_Mouth" fill="#000000" fill-rule="nonzero" />
    </g>
</g>
            <g id="transparent_Nose" transform="translate(28.000000, 40.000000)" fill-opacity="0.16">
                
            <g id="default_Nose/Default" stroke="none" stroke-width="1" fill="none" fill-rule="evenodd" fill-opacity="0.16">
        <path d="M16,8 C16,12.418278 21.372583,16 28,16 L28,16 C34.627417,16 40,12.418278 40,8" id="default_Nose" fill="#000000" />
    </g>
</g>
            <g id="transparent_Eyes" transform="translate(0.000000, 8.000000)">
                
            <g id="cry_Eyes/Cry-ðŸ˜¢" stroke="none" stroke-width="1" fill="none" fill-rule="evenodd">
        <circle id="cry_Eye" fill-opacity="0.599999964" fill="#000000" cx="30" cy="22" r="6" />
        <path d="M25,27 C25,27 19,34.2706667 19,38.2706667 C19,41.5846667 21.686,44.2706667 25,44.2706667 C28.314,44.2706667 31,41.5846667 31,38.2706667 C31,34.2706667 25,27 25,27 Z" id="cry_Drop" fill="#92D9FF" fill-rule="nonzero" />
        <circle id="cry_Eye" fill-opacity="0.599999964" fill="#000000" cx="82" cy="22" r="6" />
    </g>
</g>
            <g id="transparent_Eyebrow" fill-opacity="0.599999964">
                
            <g id="sad_concerned_Eyebrow/Outline/Sad-Concerned" stroke="none" stroke-width="1" fill="none" fill-rule="evenodd" fill-opacity="0.599999964">
        <path d="M15.9726042,19.4088529 C17.452356,11.0203704 30.0622688,5.22829657 39.2106453,8.9774793 C40.2254706,9.39337449 41.4016967,8.94600219 41.8378196,7.97824531 C42.2739426,7.01048842 41.8048116,5.88881678 40.7899862,5.47292159 C29.3457328,0.782843812 13.9550264,7.85221132 12.0280273,18.7760684 C11.84479,19.8148122 12.5792704,20.798534 13.6685352,20.9732726 C14.7578,21.1480113 15.7893668,20.4475967 15.9726042,19.4088529 Z" id="sad_concerned_Eyebrow" fill="#000000" fill-rule="nonzero" transform="translate(27.000414, 12.500000) scale(-1, -1) translate(-27.000414, -12.500000) " />
        <path d="M73.9726042,19.4088529 C75.452356,11.0203704 88.0622688,5.22829657 97.2106453,8.9774793 C98.2254706,9.39337449 99.4016967,8.94600219 99.8378196,7.97824531 C100.273943,7.01048842 99.8048116,5.88881678 98.7899862,5.47292159 C87.3457328,0.782843812 71.9550264,7.85221132 70.0280273,18.7760684 C69.84479,19.8148122 70.5792704,20.798534 71.6685352,20.9732726 C72.7578,21.1480113 73.7893668,20.4475967 73.9726042,19.4088529 Z" id="sad_concerned_Eyebrow" fill="#000000" fill-rule="nonzero" transform="translate(85.000414, 12.500000) scale(1, -1) translate(-85.000414, -12.500000) " />
    </g>
</g>
        </g>
        <g id="transparent_Top">
            
        <defs>
        <path d="M96,0 C120.300529,-4.46393476e-15 140,19.699471 140,44 L140,54 L140,155 C140,160.522847 135.522847,165 130,165 C124.477153,165 120,160.522847 120,155 L120,54 L20,54 L20,155 C20,160.522847 15.5228475,165 10,165 C4.4771525,165 6.76353751e-16,160.522847 0,155 L0,44 C-2.9759565e-15,19.699471 19.699471,4.46393476e-15 44,0 L96,0 Z" id="winter_hat_1_path-1" />
        <rect id="winter_hat_1_path-3" x="74" y="50" width="118" height="36" rx="8" />
        <filter x="-0.8%" y="-2.8%" width="101.7%" height="111.1%" filterUnits="objectBoundingBox" id="winter_hat_1_filter-4">
            <feOffset dx="0" dy="2" in="SourceAlpha" result="shadowOffsetOuter1" />
            <feColorMatrix values="0 0 0 0 0   0 0 0 0 0   0 0 0 0 0  0 0 0 0.1 0" type="matrix" in="shadowOffsetOuter1" />
        </filter>
    </defs>
    <g id="winter_hat_1_Facial-Hair" transform="translate(49.000000, 72.000000)"><defs>
        <path d="M64.7214121,63.4643353 C71.8381194,62.1698595 81.796173,63.6461901 84.1074639,67.092174 L83.998,66.939 L84.010445,66.9215199 C86.5309935,63.5977488 96.2765075,62.1914341 103.274279,63.4643353 C112.927938,65.2207224 117.019147,75.7669804 115.780485,77.6791014 C114.655476,79.4153191 111.53642,77.7739966 109.119711,77.6298353 C104.118941,77.3322546 94.948229,81.5102869 86.0463327,76.6891498 C85.2347477,76.2495714 84.5386341,75.6083797 83.9975585,74.8390687 C83.4573866,75.6083797 82.7612729,76.2495714 81.949688,76.6891498 C73.0477917,81.5102869 63.8767499,77.3322546 58.8763101,77.6298353 C56.459601,77.7739966 53.3405442,79.4153191 52.2155358,77.6791014 C50.9768736,75.7669804 55.0680827,65.2207224 64.7214121,63.4643353 Z" id="moustache_magnum_path-1" />
    </defs>
    <g id="moustache_magnum_Facial-Hair/Moustache-Magnum" stroke="none" stroke-width="1" fill="none" fill-rule="evenodd">
        <mask id="moustache_magnum_mask-2" fill="white">
            <use xlink:href="#moustache_magnum_path-1" />
        </mask>
        <use id="moustache_magnum_Hey..." fill="#28354B" xlink:href="#moustache_magnum_path-1" />
        <g id="moustache_magnum_Facial-Hair-Color" mask="url(#moustache_magnum_mask-2)" fill="#C93305">
            <rect id="moustache_magnum_Color" x="0" y="0" width="168" height="152" />
        </g>
    </g>
</g>
    <g id="winter_hat_1_Top/Accessories/Winter-Hat-1" stroke="none" stroke-width="1" fill="none" fill-rule="evenodd">
        <g id="winter_hat_1_hat" transform="translate(63.000000, 20.000000)">
            <path d="M23.6714286,48 L23.6714286,153.664286 C23.6714286,159.924828 18.5962564,165 12.3357143,165 C6.07517216,165 1,159.924828 1,153.664286 L1,48 L23.6714286,48 Z M139,48 L139,153.664286 C139,159.924828 133.924828,165 127.664286,165 C121.403744,165 116.328571,159.924828 116.328571,153.664286 L116.328571,48 L139,48 Z" id="winter_hat_1_inside" fill="#F4F4F4" />
            <mask id="winter_hat_1_mask-2" fill="white">
                <use xlink:href="#winter_hat_1_path-1" />
            </mask>
            <use id="winter_hat_1_hat-mask" fill="#D8D8D8" xlink:href="#winter_hat_1_path-1" />
            <g id="winter_hat_1_Fabric-Color" mask="url(#winter_hat_1_mask-2)" fill="#929598">
                <g transform="translate(-4.000000, -1.000000)" id="winter_hat_1_ðŸ–Color">
                    <rect x="0" y="0" width="149" height="172" />
                </g>
            </g>
        </g>
        <g id="winter_hat_1_hat-front">
            <use fill="black" fill-opacity="1" filter="url(#winter_hat_1_filter-4)" xlink:href="#winter_hat_1_path-3" />
            <use fill="#F4F4F4" fill-rule="evenodd" xlink:href="#winter_hat_1_path-3" />
        </g>
        <g id="winter_hat_1_Accessory" transform="translate(62.000000, 85.000000)" />
    </g>
</g>
    </g>
</svg>