<svg xmlns="http://www.w3.org/2000/svg" xmlns:ns2="http://design.blush" xmlns:xlink="http://www.w3.org/1999/xlink" width="264px" height="280px" viewBox="0 0 264 280" version="1.1">
    <title id="transparent_Title">Avataaar/Default</title>
    <desc>Created with python_avatars</desc>
    <defs>
        <path d="M100,0 C130.927946,-5.68137151e-15 156,25.072054 156,56 L156.000809,62.1660527 C161.675838,63.1185422 166,68.05429 166,74 L166,88 C166,94.0524166 161.519235,99.0582945 155.693975,99.8813638 C153.627928,119.686472 141.237929,136.421678 124.001014,144.610469 L124,163 L128,163 C167.764502,163 200,195.235498 200,235 L200,244 L0,244 L0,235 C-4.86974701e-15,195.235498 32.235498,163 72,163 L76,163 L75.9999836,144.610943 C58.7625487,136.422324 46.3721119,119.686854 44.3051107,99.8809698 C38.480765,99.0582945 34,94.0524166 34,88 L34,74 C34,68.053942 38.3246685,63.1179645 44.0001873,62.1658855 L44,56 C44,25.072054 69.072054,5.68137151e-15 100,0 Z" id="transparent_path-1" />
        <path d="M83,36.3476251 C83,52.6289957 105.161905,65.8276544 132.5,65.8276544 C159.838095,65.8276544 182,52.6289957 182,36.3476251 C182,34.9853134 181.844841,33.6445843 181.544472,32.3313638 C210.784239,41.4879251 232,68.792221 232,101.051724 L232,110 L32,110 L32,101.051724 C32,68.3970853 53.7386736,40.8197864 83.5337207,32.0021267 C83.1821692,33.4207025 83,34.871494 83,36.3476251 Z" id="transparent_path-3" />
        <rect id="transparent_path-5" x="0" y="0" width="264" height="280" />
        <path d="M74,0 C114.869071,0 148,33.1309285 148,74 L148,84.1482318 L148,197.608051 C135.525121,187.236892 119.490913,181 102,181 L102,181 L98,181 L98,162.610951 C115.530782,154.282984 128.048193,137.114792 129.791419,116.867187 C135.569129,116.002364 140,111.018625 140,105 L140,105 L140,92 C140,87.3536213 137.359271,83.3240177 133.496777,81.3301515 C132.723933,81.0500337 131.951808,80.748163 131.180891,80.4262497 C130.794819,80.3202581 130.400778,80.2331546 130,80.1659169 L130,80.1659169 L130.000458,79.9172528 C117.224481,74.2339715 104.877985,63.0706967 96.1104311,47.8848473 C93.1752556,42.8009742 90.8310687,37.5951441 89.0661426,32.3970356 C80.4313947,42.9409152 67.7445474,53.6023901 52.3415164,62.4953343 C42.777598,68.0170651 33.1467898,72.2910056 24,75.2659587 L24.0003852,137.246608 C29.6019576,148.318362 38.7728825,157.277529 50,162.610951 L50,162.610951 L50,181 L46,181 C38.3273639,181 30.9350359,182.200142 24.0004995,184.422941 L24,230 C24,244.105888 13.5691766,255.775526 0,257.716445 L0,74 C0,33.1309285 33.1309285,0 74,0 Z" id="transparent_path-7" />
    </defs>
    <g id="transparent_Avataaar/Default" stroke="none" stroke-width="1" fill="none" fill-rule="evenodd">
        <g id="transparent_Body" transform="translate(32.000000, 36.000000)">
            <mask id="transparent_mask-2" fill="white">
                <use xlink:href="#transparent_path-1" />
            </mask>
            <use fill="#D0C6AC" xlink:href="#transparent_path-1" />
            <g id="transparent_Skin-Color" mask="url(#transparent_mask-2)" fill="#F8D25C">
                <g transform="translate(-32.000000, 0.000000)" id="transparent_Color">
                    <rect x="0" y="0" width="264" height="244" />
                </g>
            </g>
            <path d="M44,94 C44,124.927946 69.072054,150 100,150 C130.927946,150 156,124.927946 156,94 L156,94 L156,102 C156,132.927946 130.927946,158 100,158 C69.072054,158 44,132.927946 44,102 Z" id="transparent_Neck-Shadow" fill-opacity="0.100000001" fill="#000000" mask="url(#transparent_mask-2)" />
        </g>
        <g id="transparent_Clothing" transform="translate(0.000000, 170.000000)">
            
        <g id="shirt_wick_Clothing/Shirt Wick" stroke="none" stroke-width="1" fill="none" fill-rule="evenodd">
        <g id="shirt_wick_Wick-suit" transform="translate(31.500000, 28.600000)">
            <path d="M124.379699,3.0005061 L128.359699,3.0005061 C167.925874,3.0005061 199.999699,34.434727 199.999699,73.2118883 L199.999699,81.9883111 L0.9996985,81.9883111 L0.9996985,73.2118883 L1.0096485,72.050475 C1.6424685,33.8096507 33.4695335,3.0005061 72.6396985,3.0005061 L76.6196985,3.0005061 C76.6196985,3.0005061 76.4236835,15.1129447 100.491739,15.1129447 C124.559794,15.1129447 124.379699,3.0005061 124.379699,3.0005061" id="shirt_wick_Fill-1" fill="#EDEDED" />
            <path d="M118.32468,81.988311 L107.529975,28.3672744 C111.54093,27.0767256 114.229305,24.7476646 114.229305,22.0795183 C114.229305,18.0155549 108.00735,14.7198476 100.334175,14.7198476 C92.659995,14.7198476 86.439045,18.0155549 86.439045,22.0795183 C86.439045,24.7476646 89.12742,27.0767256 93.138375,28.3672744 L82.34367,81.988311 L118.32468,81.988311 Z" id="shirt_wick_Fabric-Color" fill="#65C9FF" ns2:color="Top-500" />
            <path d="M86.846271,30.4401 L100.520301,16.6691854 L114.194331,30.4401 L142.147401,2.28791707 C137.769621,1.45386829 133.258176,1.00040488 128.639196,1.00040488 L124.619196,1.00040488 C124.619196,1.00040488 124.801101,13.5728805 100.491156,13.5728805 C76.181211,13.5728805 76.380201,1.00040488 76.380201,1.00040488 L72.360201,1.00040488 C67.753281,1.00040488 63.252891,1.44981951 58.885161,2.27981951 L86.846271,30.4401 Z" id="shirt_wick_Fill-7" fill="#FFF" />
            <path d="M128.639698,0.000506097561 L124.640803,0.000506097561 L124.640803,81.988311 L200.999698,81.988311 L200.999698,72.8785549 C200.999698,32.6286159 168.603523,0.000506097561 128.639698,0.000506097561" id="shirt_wick_Fill-9" fill="#191919" />
            <path d="M76.380201,0.000506097561 L72.360201,0.000506097561 C32.796366,0.000506097561 0.649431,31.9797988 0.009246,71.6730305 L0.000201,72.8785549 L0.000201,81.988311 L76.380201,81.988311 L76.380201,0.000506097561 Z" id="shirt_wick_Fill-12" fill="#191919" />
            <path d="M66.873906,0.206082927 L40.132866,43.4571805 L62.584566,56.6946683 L48.757776,75.9982415 L55.328466,81.9884122 L76.380201,81.9884122 L76.380201,0.000607317073 C76.380201,0.000607317073 73.264701,0.0431195122 66.873906,0.206082927" id="shirt_wick_Fill-15" fill="#2B2B2B" />
            <path d="M134.28006,0.224909756 L160.887435,43.4577878 L138.435735,56.6942634 L152.26353,75.9978366 L145.69083,81.9880073 L124.6401,81.9869951 L124.6401,-0.000809756098 C124.6401,-0.000809756098 127.889265,0.0619463415 134.28006,0.224909756" id="shirt_wick_Fill-18" fill="#2B2B2B" />
        </g>
    </g>
</g>
        <g id="transparent_Face" transform="translate(76.000000, 82.000000)" fill="#000000">
            <g id="transparent_Mouth" transform="translate(2.000000, 52.000000)">    
                
            <g id="default_Mouth/Default" stroke="none" stroke-width="1" fill="none" fill-rule="evenodd" fill-opacity="0.699999988">
        <path d="M40,15 C40,22.7319865 46.2680135,29 54,29 L54,29 C61.7319865,29 68,22.7319865 68,15" id="default_Mouth" fill="#000000" />
    </g>
</g>
            <g id="transparent_Nose" transform="translate(28.000000, 40.000000)" fill-opacity="0.16">
                
            <g id="small_Nose/Small" stroke="none" stroke-width="1" fill="none" fill-rule="evenodd"><path d="M20,7 C20,12.5228475 24.0470996,15 28,15 C31.9529004,15 36,12.5228475 36,7 C33.8327451,7.7317728 31.1406373,8.0976592 27.9236765,8.0976592 C24.7406373,8.0976592 22.0994118,7.7317728 20,7 Z" id="small_Nose" fill-opacity=".16" fill="#000" /></g></g>
            <g id="transparent_Eyes" transform="translate(0.000000, 8.000000)">
                
            <g id="default_Eyes/Default-😀" stroke="none" stroke-width="1" fill="none" fill-rule="evenodd" fill-opacity="0.599999964">
        <circle id="default_Eye" fill="#000000" cx="30" cy="22" r="6" />
        <circle id="default_Eye" fill="#000000" cx="82" cy="22" r="6" />
    </g>
</g>
            <g id="transparent_Eyebrow" fill-opacity="0.599999964">
                
            <g id="up_down_Eyebrow/Outline/Up-Down" stroke="none" stroke-width="1" fill="none" fill-rule="evenodd" fill-opacity="0.599999964">
        <path d="M15.5914402,14.1619718 C20.0874642,7.83556966 29.6031809,4.65350252 39.3473715,7.79575991 C40.3986323,8.13476518 41.5256656,7.55736801 41.8646708,6.50610724 C42.2036761,5.45484647 41.6262789,4.32781316 40.5750182,3.98880789 C29.1665516,0.309863172 17.8358054,4.09887835 12.3309495,11.8448183 C11.6910852,12.7451779 11.9022584,13.9937761 12.8026181,14.6336404 C13.7029777,15.2735046 14.9515759,15.0623314 15.5914402,14.1619718 Z" id="up_down_Eyebrow" fill="#000000" fill-rule="nonzero" />
        <path d="M73.6376405,21.1577995 C77.5525501,15.6490895 88.2853148,12.56006 97.5304219,14.8304032 C98.6031199,15.0938282 99.6862617,14.4377829 99.9496867,13.3650849 C100.213112,12.2923868 99.5570664,11.2092451 98.4843684,10.9458201 C87.7477584,8.30920485 75.3194947,11.8862211 70.3771498,18.840646 C69.7372855,19.7410057 69.9484587,20.9896038 70.8488184,21.6294681 C71.749178,22.2693324 72.9977762,22.0581591 73.6376405,21.1577995 Z" id="up_down_Eyebrow" fill="#000000" fill-rule="nonzero" transform="translate(85.007549, 16.038421) scale(-1, 1) translate(-85.007549, -16.038421) " />
    </g>
</g>
        </g>
        <g id="transparent_Top">
            
        <defs>
        <path d="M264,0 L264,280 L232,280 L232,271 C232,231.235498 199.764502,199 160,199 L160,199 L156,199 L156.001014,180.610469 C173.531251,172.282329 186.048207,155.114429 187.791415,134.867236 C193.568906,134.002616 198,129.018777 198,123 L198,123 L198,110 C198,104.05429 193.675838,99.1185422 188.000809,98.1660527 L188,92 C188,61.072054 162.927946,36 132,36 C101.072054,36 76,61.072054 76,92 L76,92 L76.0001873,98.1658855 C70.3246685,99.1179645 66,104.053942 66,110 L66,110 L66,123 C66,129.018777 70.4310943,134.002616 76.2090181,134.867253 C77.9518263,155.114813 90.4692242,172.28298 107.999984,180.610943 L108,199 L104,199 C64.633143,199 32.6454629,230.594012 32.0096459,269.809348 L32,271 L32,280 L0,280 L0,0 L264,0 Z" id="einstein_hair_hairstyleeinstein-hair-path-1" />
    </defs>
    <g id="einstein_hair_Hairstyle/Einstein hair" stroke="none" stroke-width="1" fill="none" fill-rule="evenodd">
        <g id="einstein_hair_template-for-hairstyles" opacity=".184" transform="translate(1.000000, 0.000000)">
            <mask id="einstein_hair_hairstyleeinstein-hair-mask-2" fill="#fff">
                <use xlink:href="#einstein_hair_hairstyleeinstein-hair-path-1" />
            </mask>
            <g id="einstein_hair_Mask-Hair" />
        </g>
        <g id="einstein_hair_Einstein" transform="translate(18.100000, -11.600000)">
            <path d="M213.8679,72.5843 C205.2769,69.5873 192.7449,60.5973 193.2899,58.5533 C193.8349,56.5103 207.5929,68.7703 209.7719,63.1853 C211.9519,57.6003 208.4099,47.9283 200.3729,44.2513 C192.3359,40.5723 175.1729,40.1643 173.1299,37.9843 C171.0859,35.8053 179.2599,37.5763 184.5719,33.3533 C189.8849,29.1303 183.8899,23.1373 170.3889,24.2263 C166.4679,24.5433 163.4579,23.4093 163.8659,21.6383 C164.2749,19.8673 173.8099,18.6413 172.4479,15.3723 C171.0859,12.1033 165.3649,9.1063 159.2349,10.0603 C153.1049,11.0133 145.8859,21.5023 141.6629,20.1403 C137.4399,18.7773 136.6229,15.1003 139.0739,11.4223 C141.5259,7.7443 143.1609,0.6153 138.2579,0.0253 C133.3529,-0.5647 128.4489,9.6513 126.5429,11.4223 C124.6359,13.1923 121.6389,10.4683 122.8639,6.6543 C124.0909,2.8403 125.0439,-0.0327 120.4129,1.85828358e-05 C115.7809,0.0333 111.6949,8.2893 111.2859,12.7843 C110.8769,17.2793 109.1059,19.4593 108.0159,15.9173 C106.9269,12.3753 100.9329,0.0333 96.7099,0.0333 C92.4879,0.0333 84.0419,-0.4297 86.6299,5.5643 C89.2189,11.5583 95.8929,17.1433 94.2589,20.8213 C92.6239,24.4993 86.1469,23.0003 86.1469,23.0003 C86.1469,23.0003 74.0979,9.6513 68.3769,9.3783 C62.6559,9.1063 61.0209,11.0133 64.0179,13.8743 C67.0139,16.7343 72.8719,22.1833 67.9679,22.1833 C63.0639,22.1833 56.1169,16.8713 48.0799,20.8213 C40.0429,24.7713 38.1359,25.0433 40.9969,27.3593 C43.8569,29.6753 47.3989,30.9013 50.9409,32.6723 C54.4819,34.4423 52.7119,37.8483 50.6679,37.8483 C48.6249,37.8483 35.9569,40.7093 30.0989,43.1613 C24.2419,45.6133 17.8399,47.6563 18.6569,51.4703 C19.4739,55.2843 18.1119,59.9163 20.5639,60.3243 C23.0159,60.7333 31.7339,56.2383 32.5509,59.0983 C33.3679,61.9593 25.7399,65.2283 20.5639,67.4083 C15.3879,69.5873 5.5799,81.4383 4.4899,84.7083 C3.3999,87.9773 3.8089,91.2463 5.9889,91.3823 C8.1679,91.5193 16.8859,84.7083 19.2019,87.4323 C21.5169,90.1563 12.5269,92.8813 11.1649,95.8773 C9.8029,98.8743 10.8919,102.4163 9.9389,106.2303 C8.9849,110.0443 1.2209,116.7193 1.7659,121.6233 C2.3099,126.5273 -1.9121,139.0593 1.0849,140.4213 C4.0809,141.7833 8.1679,142.6073 9.6659,141.5833 C11.1649,140.5573 11.7099,128.9603 15.1149,129.5833 C18.5209,130.2053 11.2589,148.3223 13.8679,150.9103 C16.4769,153.4983 22.6069,143.6903 24.5139,146.6873 C26.4209,149.6843 22.0619,163.3063 21.1089,168.3463 C20.1549,173.3863 18.2479,186.7353 21.5169,188.6433 C24.7869,190.5503 32.8239,193.1383 34.3219,190.8223 C35.8209,188.5063 33.0959,179.1073 33.9129,177.6083 C34.7309,176.1103 40.0429,172.0233 41.2689,175.7023 C42.4949,179.3803 39.7709,190.0953 43.8569,191.7533 C47.9439,193.4103 47.8079,196.8153 50.1229,199.9493 C52.4389,203.0823 64.4269,202.7533 65.3799,198.6683 C66.3339,194.5823 70.5559,190.0053 73.4169,195.4533 C76.2779,200.9023 83.3609,204.7173 85.5399,204.3083 C86.3459,204.1563 88.0459,203.3463 89.8679,202.3843 L89.8679,192.1593 C72.3379,183.8313 59.8199,166.6633 58.0769,146.4163 C52.2999,145.5513 47.8679,140.5673 47.8679,134.5483 L47.8679,121.5483 C47.8679,116.6123 50.8529,112.3803 55.1129,110.5383 C56.4189,111.3883 58.0389,113.9083 58.3399,121.1153 C58.3969,122.4923 59.5339,123.5833 60.9109,123.5833 L60.9109,123.5833 C62.3179,123.5833 63.4629,122.4633 63.4869,121.0573 C63.6549,110.8063 65.4279,72.5773 82.3889,66.7273 C104.8939,58.9633 109.5029,76.4863 113.8709,76.5323 L113.8709,76.5423 C118.2449,76.5423 122.8359,58.9613 145.3709,66.7343 C162.3319,72.5853 164.1039,110.8133 164.2729,121.0643 C164.2969,122.4713 165.4419,123.5903 166.8479,123.5903 C168.2259,123.5903 169.3629,122.5003 169.4199,121.1233 C169.7209,113.9193 171.3399,111.3973 172.6449,110.5473 C176.8929,112.3943 179.8679,116.6203 179.8679,121.5483 L179.8679,134.5483 C179.8679,140.5673 175.4369,145.5513 169.6599,146.4163 C167.9169,166.6633 155.3989,183.8313 137.8689,192.1593 L137.8689,195.8743 C139.1169,195.6473 140.2229,195.7213 140.9809,196.4073 C143.8429,198.9953 146.5659,199.8133 148.7459,197.2253 C150.9259,194.6373 152.1509,183.8753 156.9189,187.2803 C161.6869,190.6863 164.1919,197.3603 168.3889,196.9523 C172.5849,196.5433 178.0329,182.5133 181.1659,183.7383 C184.2999,184.9653 181.1659,193.1383 186.3429,193.5473 C191.5179,193.9553 189.3399,178.1533 191.7909,178.0183 C194.2429,177.8813 197.1029,184.1473 200.0999,182.2403 C203.0969,180.3333 203.3699,168.2183 198.8749,163.5833 C194.3799,158.9473 190.4299,150.0263 194.2429,149.5833 C198.0569,149.1393 200.0999,163.3063 203.9149,160.8543 C207.7289,158.4023 213.8589,146.3363 210.8619,142.9703 C207.8649,139.6043 194.2429,123.6503 198.3299,123.5903 C202.4159,123.5303 209.7719,133.3193 212.6329,129.5833 C215.4929,125.8463 215.9209,117.1273 213.8679,110.5893 C211.8149,104.0513 202.1439,91.5193 204.0509,89.2033 C205.9579,86.8873 216.1749,99.5973 218.7629,93.5833 C221.3499,87.5683 222.4599,75.5813 213.8679,72.5843" id="einstein_hair_Hair-Color" fill="#ECDCBF" ns2:color="Hair-500" />
            <path d="M96.3728,50.4217 C93.3698,48.0317 89.8008,46.3437 87.1058,43.5727 C85.6808,42.1067 84.8208,40.3267 83.8978,38.5267 C83.0188,36.8127 81.9628,35.2247 80.6238,33.8327 C78.0258,31.1297 74.6438,29.2637 71.1228,28.0547 C66.3568,26.4197 61.2578,26.0287 56.2678,25.6567 C54.3418,25.5127 54.3518,28.5137 56.2678,28.6567 C63.7268,29.2137 72.0618,29.9207 77.8178,35.2817 C79.0748,36.4527 80.0948,37.7827 80.9148,39.2907 C81.8178,40.9537 82.5588,42.6877 83.7128,44.2037 C85.8628,47.0277 88.9048,48.9027 91.8218,50.8367 C94.9238,52.8927 98.6428,55.6207 99.1758,59.6087 C99.2838,60.4177 99.7878,61.0987 100.6758,61.1087518 C101.4028,61.1157 102.2828,60.4117 102.1758,59.6087 C101.6618,55.7637 99.3468,52.7887 96.3728,50.4217" id="einstein_hair_Fill-4" fill-opacity=".3" fill="#FFF" />
            <path d="M112.7542,43.0193 C111.2122,39.7513 109.7352,36.3643 109.5452,32.7063 C109.3772,29.4673 109.6082,25.9323 107.0892,23.4793 C105.7052,22.1323 103.5812,24.2513 104.9672,25.6013 C107.0982,27.6753 106.3462,31.3663 106.6562,34.0473 C107.0522,37.4873 108.3662,40.6763 109.8152,43.7903 C111.2592,46.8943 112.8612,49.9503 113.7172,53.2833 C114.7002,57.1063 114.5812,61.0923 113.5072,64.8803 C112.9812,66.7413 115.8752,67.5353 116.4002,65.6773 C117.5152,61.7413 117.6902,57.6073 116.8682,53.5963 C116.1042,49.8683 114.3662,46.4353 112.7542,43.0193" id="einstein_hair_Fill-6" fill-opacity=".3" fill="#FFF" />
            <path d="M128.572,27.5306 C126.495,31.4386 125.57,35.5906 125.335,39.9876 C125.084,44.7006 124.989,49.4266 124.822,54.1436 C124.755,56.0746 127.755,56.0726 127.822,54.1436 C127.978,49.7386 128.104,45.3296 128.292,40.9256 C128.469,36.7326 129.176,32.7826 131.163,29.0446 C132.068,27.3406 129.479,25.8226 128.572,27.5306" id="einstein_hair_Fill-8" fill-opacity=".3" fill="#FFF" />
            <path d="M154.8767,29.7718 C149.1957,30.3908 146.4527,36.2168 144.2247,40.7788 C142.8637,43.5638 141.6647,46.4238 140.5957,49.3328 C139.8667,51.3148 139.0087,54.0408 136.7747,54.7578 C134.9447,55.3468 135.7277,58.2438 137.5727,57.6508 C139.8307,56.9258 141.3107,55.1598 142.3017,53.0678 C143.5107,50.5128 144.3227,47.7788 145.4667,45.1918 C146.6507,42.5108 147.9367,39.8288 149.4697,37.3278 C150.6737,35.3628 152.3937,33.0428 154.8767,32.7718 C156.7747,32.5648 156.7967,29.5628 154.8767,29.7718" id="einstein_hair_Fill-10" fill-opacity=".3" fill="#FFF" />
            <path d="M181.4539,52.3338 C183.1849,51.4798 181.6669,48.8908 179.9399,49.7438 C177.6799,50.8588 175.1309,50.9218 172.6639,51.0668 C170.1409,51.2148 167.6519,51.4758 165.2959,52.4428 C160.8639,54.2618 157.3699,57.6848 153.0499,59.7098 C151.3029,60.5288 152.8239,63.1158 154.5629,62.2998 C158.8599,60.2868 162.3299,56.6818 166.8119,55.0548 C171.5669,53.3288 176.8189,54.6218 181.4539,52.3338" id="einstein_hair_Fill-12" fill-opacity=".3" fill="#FFF" />
            <path d="M178.8464,71.6028 C185.1654,73.0838 191.2904,75.9208 196.8744,79.1788 C198.5464,80.1538 200.0584,77.5618 198.3894,76.5888 C192.5994,73.2108 186.1954,70.2458 179.6444,68.7098 C176.1934,67.9008 173.1094,68.2988 169.7374,69.2418 C166.1394,70.2478 162.7424,70.2758 159.0364,70.0228 C157.1104,69.8918 157.1174,72.8928 159.0364,73.0228 C162.3784,73.2508 165.6884,73.3708 168.9664,72.5578 C170.6124,72.1498 172.2244,71.5808 173.9024,71.3088 C175.5574,71.0408 177.2244,71.2228 178.8464,71.6028" id="einstein_hair_Fill-14" fill-opacity=".3" fill="#FFF" />
            <path d="M202.157,97.1272 C196.309,87.2822 185.392,80.9622 173.946,80.7792 C172.014,80.7482 172.014,83.7482 173.946,83.7792 C184.341,83.9452 194.259,89.7052 199.566,98.6412 C200.552,100.2992 203.146,98.7922 202.157,97.1272" id="einstein_hair_Fill-16" fill-opacity=".3" fill="#FFF" />
            <path d="M187.8289,104.221 C184.3359,99.867 179.3679,96.974 174.4839,94.438 C172.7729,93.55 171.2549,96.138 172.9709,97.029 C177.6309,99.449 182.3999,102.154 185.7079,106.342 C189.2109,110.778 190.2399,116.569 193.0979,121.375 C194.0829,123.033 196.6779,121.526 195.6869,119.861 C192.6829,114.805 191.5639,108.876 187.8289,104.221" id="einstein_hair_Fill-18" fill-opacity=".3" fill="#FFF" />
            <path d="M184.8816,137.4031 C184.2916,135.5731 181.3946,136.3561 181.9886,138.2001 C184.3216,145.4391 186.2736,152.7931 187.8366,160.2361 C188.2336,162.1251 191.1246,161.3251 190.7296,159.4391 C189.1666,151.9951 187.2146,144.6421 184.8816,137.4031" id="einstein_hair_Fill-20" fill-opacity=".3" fill="#FFF" />
            <path d="M173.1042,156.5662 C173.3252,159.9552 174.3312,163.1932 174.8692,166.5312 C175.3182,169.3182 175.2922,172.3282 173.8192,174.8172 C172.8332,176.4832 175.4242,177.9932 176.4092,176.3322 C180.1452,170.0242 176.5352,163.1642 176.1042,156.5662 C175.9792,154.6492 172.9782,154.6352 173.1042,156.5662" id="einstein_hair_Fill-22" fill-opacity=".3" fill="#FFF" />
            <path d="M162.9988,174.4495 C161.7028,178.6805 160.2208,182.8505 158.5548,186.9505 C158.2488,187.7015 158.8858,188.5985 159.6018,188.7965 C160.4598,189.0315 161.1408,188.5015 161.4468,187.7485 C163.1128,183.6485 164.5958,179.4785 165.8918,175.2475 C166.4588,173.3975 163.5628,172.6065 162.9988,174.4495" id="einstein_hair_Fill-24" fill-opacity=".3" fill="#FFF" />
            <path d="M70.6931,47.4158 C69.5811,46.0498 68.3771,44.7228 66.7761,43.9258 C65.2081,43.1448 63.4501,42.8538 61.7111,42.8448 C57.8061,42.8258 53.8781,43.8278 50.0351,44.4108 C45.9311,45.0338 41.7141,45.4348 37.5921,44.7518 C35.7031,44.4398 34.8911,47.3308 36.7941,47.6448 C44.5841,48.9348 51.9481,46.6878 59.6441,45.9508 C61.2591,45.7948 62.9411,45.7358 64.5071,46.2288 C66.1351,46.7418 67.2521,47.9408 68.3121,49.2188 C70.8321,52.2598 73.1461,55.4778 75.3281,58.7668 C76.3901,60.3688 78.9891,58.8678 77.9181,57.2528 C75.6691,53.8618 73.2631,50.5718 70.6931,47.4158" id="einstein_hair_Fill-26" fill-opacity=".3" fill="#FFF" />
            <path d="M61.6965,65.512 C58.3815,65.167 55.0675,64.823 51.7525,64.477 C50.1775,64.314 48.6025,64.15 47.0285,63.986 C45.4855,63.825 43.9215,63.578 42.3855,63.935 C39.7615,64.545 38.0905,66.95 36.1175,68.586 C34.0195,70.327 31.4875,71.718 28.7385,71.99 C26.8345,72.179 26.8155,75.18 28.7385,74.99 C31.4775,74.719 34.0115,73.741 36.2845,72.191 C37.3575,71.46 38.3745,70.635 39.3235,69.75 C40.2935,68.845 41.1915,67.706 42.3995,67.107 C43.7305,66.447 45.3655,66.813 46.7795,66.96 C48.4375,67.133 50.0945,67.305 51.7525,67.477 C55.0675,67.823 58.3815,68.167 61.6965,68.512 C63.6145,68.712 63.6005,65.71 61.6965,65.512" id="einstein_hair_Fill-28" fill-opacity=".3" fill="#FFF" />
            <path d="M58.179,78.1995 C50.332,79.0945 43.363,82.7985 37.242,87.6465 C34.144,90.0995 31.278,92.8275 28.491,95.6225 C26.039,98.0805 22.891,101.0175 23.391,104.8405 C23.497,105.6505 24.005,106.3315 24.891,106.340552 C25.621,106.3475 26.497,105.6435 26.391,104.8405 C25.954,101.5035 29.446,98.8905 31.563,96.7965 C34.051,94.3355 36.616,91.9405 39.363,89.7685 C44.798,85.4695 51.205,81.9945 58.179,81.1995 C60.075,80.9835 60.097,77.9805 58.179,78.1995" id="einstein_hair_Fill-30" fill-opacity=".3" fill="#FFF" />
            <path d="M34.4919,112.9988 C36.0389,111.7178 37.3459,110.1918 38.6599,108.6808 C41.2019,105.7568 43.9569,103.3068 47.2869,101.3068 C50.6569,99.2828 54.2669,97.6978 57.8629,96.1238 C59.6269,95.3518 58.1019,92.7658 56.3479,93.5338 C52.6259,95.1628 48.8869,96.8058 45.4149,98.9338 C41.8839,101.0968 38.9629,103.7698 36.2569,106.8848 C34.9469,108.3918 33.6219,109.8978 32.0489,111.1388 C30.4089,112.4318 28.5799,113.4678 26.8889,114.6898 C23.5909,117.0738 21.1439,120.0858 19.9629,124.0238 C19.4079,125.8768 22.3029,126.6688 22.8559,124.8218 C24.0429,120.8628 26.7689,118.3318 30.1159,116.1068 C31.6069,115.1158 33.1109,114.1428 34.4919,112.9988" id="einstein_hair_Fill-32" fill-opacity=".3" fill="#FFF" />
            <path d="M41.3586,129.1854 C38.1946,130.8254 35.7426,133.6094 34.1036,136.7404 C32.5506,139.7074 31.9686,143.4474 29.4196,145.7914 C27.9956,147.1014 30.1216,149.2184 31.5406,147.9134 C34.1576,145.5064 34.8776,142.0254 36.3526,138.9374 C37.7806,135.9474 39.8956,133.3184 42.8726,131.7754 C44.5876,130.8874 43.0726,128.2974 41.3586,129.1854" id="einstein_hair_Fill-34" fill-opacity=".3" fill="#FFF" />
            <path d="M48.6453,149.5066 C46.0833,154.5866 44.1273,159.9366 42.1923,165.2776 C41.9163,166.0396 42.5033,166.9206 43.2403,167.1226 C44.0743,167.3516 44.8083,166.8396 45.0853,166.0756 C46.9333,160.9756 48.7903,155.8716 51.2363,151.0206 C52.1033,149.3006 49.5163,147.7806 48.6453,149.5066" id="einstein_hair_Fill-36" fill-opacity=".3" fill="#FFF" />
            <path d="M56.0955,166.2381 C55.4725,168.1411 55.1105,170.1281 55.0405,172.1311 C54.9725,174.0701 55.3895,175.9611 55.4055,177.8921 C55.4305,181.2631 52.3555,183.4511 51.8465,186.7001 C51.7205,187.5071 52.0535,188.3041 52.8945,188.5451 C53.6045,188.7491 54.6145,188.2971 54.7395,187.4981 C54.9905,185.8991 55.9155,184.6411 56.7415,183.2901 C57.6185,181.8541 58.2615,180.3671 58.3835,178.6671 C58.5225,176.7351 58.0355,174.8111 58.0285,172.8781 C58.0215,170.8751 58.3665,168.9351 58.9885,167.0351 C59.5905,165.1961 56.6945,164.4081 56.0955,166.2381" id="einstein_hair_Fill-38" fill-opacity=".3" fill="#FFF" />
            <path d="M68.845,184.1731 C68.611,183.6111 68.454,183.0241 68.355,182.4231 C68.296,181.8481 68.295,181.2711 68.362,180.6961 C68.362,180.6941 68.362,180.6941 68.363,180.6931 C68.433,180.2851 68.427,179.9051 68.211,179.5361 C68.029,179.2261 67.673,178.9291 67.315,178.8471 C66.931,178.7601 66.5,178.7781 66.159,178.9981 C65.849,179.1981 65.535,179.5171 65.47,179.8951 C65.318,180.7771 65.253,181.6541 65.358,182.5451 C65.417,183.0401 65.491,183.5311 65.622,184.0141 C65.752,184.4911 65.939,184.9451 66.134,185.4011 C66.272,185.7211 66.711,186.0021 67.031,186.0901 C67.39,186.1891 67.868,186.1441 68.186,185.9391 C68.507,185.7321 68.789,185.4241 68.876,185.0421 C68.894,184.9091 68.911,184.7771 68.929,184.6431 C68.929,184.4431 68.879,184.2561 68.804,184.0751 C68.818,184.1091 68.831,184.1411 68.845,184.1731" id="einstein_hair_Fill-40" fill-opacity=".3" fill="#FFF" />
        </g>
        <path d="M71.6635564,132.5 C73.2228944,133.678221 75.0788001,134.484556 77.0992188,134.787076 C78.8422188,155.034076 91.3602188,172.202076 108.890219,180.530076 L108.890219,180.530076 L108.890219,190.755076 C107.068219,191.717076 105.368219,192.527076 104.562219,192.679076 C102.383219,193.088076 95.3002188,189.273076 92.4392188,183.824076 C90.7410229,180.590322 88.5633167,180.888597 86.8741482,182.519722 C76.6771731,171.566716 71.6062589,155.105494 71.6604294,133.138376 Z M193.379301,133.016416 C193.205515,153.287291 188.787354,168.878427 180.124815,179.789822 C178.883318,178.301536 177.539393,176.792725 175.941219,175.651076 C171.173219,172.246076 169.948219,183.008076 167.768219,185.596076 C165.588219,188.184076 162.865219,187.366076 160.003219,184.778076 C159.245219,184.092076 158.139219,184.018076 156.891219,184.245076 L156.891219,184.245076 L156.891219,180.530076 C174.421219,172.202076 186.939219,155.034076 188.682219,134.787076 C190.346778,134.537839 191.89959,133.946634 193.266855,133.087235 Z" id="einstein_hair_Combined-Shape" fill-opacity=".16" fill="#000" />
        <g id="einstein_hair_Facial-Hair" transform="translate(49.000000, 72.000000)"><g id="einstien_mustache_Facial Hair/Einstien Mustache" stroke="none" stroke-width="1" fill="none" fill-rule="evenodd">
        <g id="einstien_mustache_mustache" transform="translate(52.000000, 65.000000)">
            <path d="M0.1095,17.4004 C0.1095,17.4004 5.0135,0.0004 30.2595,0.0004 C55.5055,0.0004 62.9515,16.1414 63.3155,17.5484 C63.6785,18.9564 63.1335,21.7704 59.3185,20.2144 C55.5055,18.6594 54.7785,17.0494 52.9625,18.8544 C51.1465,20.6594 50.6925,23.4834 47.9675,22.6194 C45.2435,21.7564 44.9715,16.6794 41.7015,18.8544 C38.4325,21.0294 38.5235,23.5484 35.5265,22.0254 C33.2325,20.8584 31.5305,17.7164 29.9865,18.8544 C28.4425,19.9924 28.7155,22.8484 25.8095,22.6054 C22.9035,22.3624 21.6015,19.4394 20.1495,19.4094 C16.6075,19.3354 17.2735,21.9924 14.7305,22.2144 C12.1875,22.4374 10.7345,18.1764 8.5545,18.1294 C6.3755,18.0824 -0.9805,24.4374 0.1095,17.4004" id="einstien_mustache_Facial-Hair-Color" fill="#ECDCBF" ns2:color="Hair-500" />
            <path d="M21.2369,19.8873 C22.0519,14.8863 23.6129,9.9273 23.8379,4.8753 C23.9079,3.3003 20.9079,3.3033 20.8379,4.8753 C20.6149,9.8823 19.0779,14.7933 18.2569,19.7463 C18.7199,19.5293 19.3159,19.3913 20.1489,19.4093 C20.5119,19.4173 20.8649,19.6053 21.2369,19.8873" id="einstien_mustache_Fill-4" fill-opacity=".16" fill="#000" />
            <path d="M8.5548,18.1294 C8.7758,18.1344 8.9868,18.1914 9.1948,18.2734 C9.5518,16.4414 10.1578,14.6404 11.0478,12.9324 C11.6798,11.7214 12.4528,10.5554 13.3278,9.4514 C14.2368,8.3034 15.2668,7.1924 15.5198,5.8044 C15.6388,5.1514 15.3198,4.4894 14.4718,4.2994 C13.7648,4.1414 12.7468,4.4964 12.6268,5.1534 C12.3818,6.5004 11.2428,7.5354 10.3928,8.6614 C9.4768,9.8754 8.7128,11.1554 8.0568,12.4754 C7.0118,14.5794 6.3628,16.7924 6.0468,19.0424 C7.0728,18.5374 7.9888,18.1174 8.5548,18.1294" id="einstien_mustache_Fill-6" fill-opacity=".16" fill="#000" />
            <path d="M32.9596,20.0132 C33.0526,14.9272 32.7116,9.8432 31.9156,4.7922 C31.8126,4.1322 31.3006,3.5762 30.4156,3.56915338 C29.6846,3.5632 28.8126,4.1372 28.9156,4.7922 C29.6516,9.4612 30.0036,14.1592 29.9796,18.8612 C29.9816,18.8592 29.9846,18.8562 29.9866,18.8542 C30.8936,18.1862 31.8556,18.9962 32.9596,20.0132" id="einstien_mustache_Fill-8" fill-opacity=".16" fill="#000" />
            <path d="M43.4313,18.3545 C43.4523,16.9565 43.4323,15.5585 43.2663,14.1635 C42.8603,10.7705 41.6363,7.4605 40.6263,4.1635 C40.1593,2.6365 37.2643,3.2835 37.7343,4.8135 C38.7133,8.0145 39.9793,11.2575 40.3093,14.5575 C40.4863,16.3285 40.4483,18.1035 40.4013,19.8785 C40.7713,19.5395 41.1923,19.1935 41.7023,18.8545 C42.3993,18.3905 42.9543,18.2705 43.4313,18.3545" id="einstien_mustache_Fill-10" fill-opacity=".16" fill="#000" />
            <path d="M47.0817,7.9122 C49.9427,11.4532 51.3527,15.5112 52.2867,19.6402 C52.4927,19.3672 52.7147,19.1012 52.9627,18.8542 C53.7177,18.1042 54.2857,17.9492 54.9647,18.1302 C53.9717,14.0942 52.4777,10.1482 49.6727,6.6772 C48.6137,5.3682 46.0157,6.5922 47.0817,7.9122" id="einstien_mustache_Fill-12" fill-opacity=".16" fill="#000" />
        </g>
    </g>
</g>
        <g id="einstein_hair_Accessory" transform="translate(62.000000, 85.000000)"><g id="sunglasses_2_Accesories/Sunglasses" stroke="none" stroke-width="1" fill="none" fill-rule="evenodd"><path d="M88.420644,10.0315667 L111.711555,10.4879 L112.418885,10.5173904 C116.716907,10.7306495 119.842183,11.5608236 122.25907,15.0052776 L123.270648,15.0612226 C125.98538,15.2235685 128.815928,15.5199023 131.241565,16.6393667 C134.626236,18.2013667 135.149293,21.7387 130.882414,22.2260333 C128.960673,22.4457 127.036739,22.0827 125.144457,21.7450333 L124.805075,21.6912775 C125.908933,31.1522104 118.598088,42.5597165 110.577413,46.0372333 C99.6003746,50.7965667 87.3375086,45.5292333 81.5337832,36.0035667 C78.9077874,31.6933472 77.3913647,25.4882292 77.0679314,20.1428905 C76.2485064,19.7454964 75.4674464,19.2201465 74.7189648,18.8553 C72.7120473,17.8773 69.3809643,17.7566333 67.2126933,18.8553 C66.4674989,19.2329059 65.6844252,19.7618811 64.860867,20.1592462 C64.5358863,25.500774 63.019749,31.6993553 60.3955746,36.0058333 C54.5921826,45.5318333 42.3293166,50.7991667 31.352278,46.0395 C23.3308758,42.5619527 16.0191895,31.1527353 17.1248105,21.6913039 L16.7871634,21.7450333 L15.9116787,21.9004644 C14.302955,22.1806014 12.6752968,22.4119051 11.0492092,22.2260333 C6.7823325,21.7387 7.30538922,18.2013667 10.6900582,16.6393667 C13.4186633,15.3800781 16.6596437,15.1623841 19.6724863,15.0063698 C22.088769,11.5628588 25.2136434,10.7331687 29.5106444,10.5199823 L30.2178029,10.4905 L54.367281,10.0138705 C59.1910659,9.92297948 63.3004405,10.2797475 64.5415862,14.6398662 C66.6301126,13.8258114 69.0470363,13.3846333 70.8914864,13.3846333 C72.750063,13.3846333 75.2403142,13.8326884 77.3827667,14.6590316 C78.6884926,10.0210681 83.2241204,9.89209727 88.420644,10.0315667 Z M54.6792964,17.2841303 L53.1743719,17.2627916 C48.2545196,17.2171575 28.0180517,17.1530306 25.6158944,19.1491667 C23.2262624,21.1345 24.5340925,27.0731667 25.1565036,29.5561667 C26.2203032,33.7998333 28.6396056,38.0601667 32.1723805,40.7525 C35.160879,43.03 38.9870799,43.1875781 42.598636,42.8394006 L42.8137377,42.8154434 C42.5755438,42.8270989 44.279595,42.5883296 44.6288896,42.5222918 L44.6612747,42.5158333 C45.7297416,42.2861667 46.7985419,41.9835 47.8106684,41.5641667 C49.7165732,40.7748333 51.5084639,39.6188333 52.9776475,38.1685 C55.7666627,35.4145 56.9648125,31.7228333 57.6852359,27.9548333 C58.1572949,25.4871667 58.5553446,22.6705 58.1459601,20.1651667 C57.7671628,17.8464167 56.7581109,17.3549128 54.6792964,17.2841303 L54.6792964,17.2841303 Z M90.2432286,17.2498018 L87.6805515,17.2725667 C85.3089217,17.2952333 84.1877816,17.6892333 83.7837311,20.1625667 C83.3743466,22.6679 83.7723963,25.4845667 84.244122,27.9522333 C84.9648787,31.7202333 86.1630285,35.4119 88.9520437,38.1659 C90.4212273,39.6162333 92.213118,40.7722333 94.1190228,41.5619 C94.9624616,41.9110667 95.8452571,42.1794463 96.7344192,42.392116 L97.2684165,42.5132333 C97.5131654,42.5657289 99.2030063,42.8028032 99.1366495,42.8130415 L98.9855976,42.8019336 C102.697275,43.192883 106.673335,43.1001622 109.757311,40.7499 C113.290086,38.0575667 115.709388,33.7975667 116.773188,29.5539 L116.961141,28.7771479 C117.606864,25.9999642 118.480835,20.9475202 116.313797,19.1465667 C114.107164,17.3129068 96.8513244,17.2177679 90.2432286,17.2498018 L90.2432286,17.2498018 Z" id="sunglasses_2_Shape" fill-opacity=".16" fill="#000" /><g id="sunglasses_2_Sunglasses" transform="translate(8.000000, 8.000000)"><path d="M47.0104611,6.27728008 C49.5212682,6.30134922 50.7082016,6.72633117 51.1359635,9.39189846 C51.5693724,12.0919529 51.1479634,15.1275382 50.648202,17.7869984 C49.8855011,21.8478573 48.6170388,25.8264499 45.6643523,28.794498 C44.1089507,30.3575551 42.2119044,31.6034024 40.1941529,32.4540848 C39.1226305,32.9060098 37.9911085,33.2322006 36.8599395,33.4797175 C36.5292357,33.5519249 33.7060778,33.9478084 35.4375958,33.7466335 C31.3967988,34.2161613 27.0129452,34.1974808 23.6381438,31.5793333 C19.8980507,28.6777448 17.3367734,24.0862872 16.2105455,19.5127916 C15.5516086,16.8368063 14.1670294,10.4365709 16.6968952,8.29693227 C19.5948762,5.84547255 47.0104611,6.27728008 47.0104611,6.27728008 L47.0104611,6.27728008 Z" id="sunglasses_2_shades" fill-opacity=".7" fill="#150662" /><path d="M78.9192315,6.27468008 C76.4084239,6.29910846 75.2214902,6.72373117 74.7937283,9.38929846 C74.3603192,12.0893529 74.7817283,15.1249382 75.2811369,17.7843984 C76.0441909,21.8452573 77.3126534,25.8238499 80.2653406,28.791898 C81.8207425,30.3549551 83.7177893,31.6008024 85.7355412,32.4518441 C86.8070638,32.9034098 87.938586,33.2296006 89.0697553,33.4771175 C89.4004591,33.5493249 92.2232647,33.9455676 90.4920992,33.7440335 C94.5328971,34.2135613 98.9167517,34.1948808 102.291554,31.5767333 C106.031648,28.6751448 108.592926,24.0840464 109.719154,19.5105508 C110.378091,16.8342063 111.762317,10.4343302 109.232804,8.29433227 C106.334822,5.84287255 78.9192315,6.27468008 78.9192315,6.27468008 L78.9192315,6.27468008 Z" id="sunglasses_2_shades" fill-opacity=".7" fill="#150662" /><g id="sunglasses_2_Glasses" fill="#252C2F"><path d="M46.2491397,7.27516667 C48.6207695,7.2975 49.7419096,7.69183333 50.1459601,10.1651667 C50.5553446,12.6705 50.1572949,15.4871667 49.6852359,17.9548333 C48.9648125,21.7228333 47.7666627,25.4145 44.9776475,28.1685 C43.5084639,29.6188333 41.7165732,30.7748333 39.8106684,31.5641667 C38.7985419,31.9835 37.7297416,32.2861667 36.6612747,32.5158333 C36.3489024,32.5828333 33.6822357,32.9501667 35.3177735,32.7635 C31.5009631,33.1991667 27.3601122,33.1818333 24.1723805,30.7525 C20.6396056,28.0601667 18.2203032,23.7998333 17.1565036,19.5561667 C16.5340925,17.0731667 15.2262624,11.1345 17.6158944,9.14916667 C20.3532365,6.8745 46.2491397,7.27516667 46.2491397,7.27516667 L46.2491397,7.27516667 Z M22.2178029,0.4905 C16.7774562,0.677833333 13.1466691,1.63383333 10.4633337,7.06916667 C5.54571911,17.0301667 13.9627711,31.9688333 23.352278,36.0395 C34.3293166,40.7991667 46.5921826,35.5318333 52.3955746,26.0058333 C55.4689587,20.9621667 57.0224862,13.3231667 56.9224737,7.50383333 C56.7951245,0.0765 51.6071427,-0.1295 45.5090472,0.0338333333 L22.2178029,0.4905 Z" id="sunglasses_2_Frame" /><path d="M79.6805515,7.27256667 C77.3089217,7.29523333 76.1877816,7.68923333 75.7837311,10.1625667 C75.3743466,12.6679 75.7723963,15.4845667 76.244122,17.9522333 C76.9648787,21.7202333 78.1630285,25.4119 80.9520437,28.1659 C82.4212273,29.6162333 84.213118,30.7722333 86.1190228,31.5619 C87.1311493,31.9809 88.1999496,32.2835667 89.2684165,32.5132333 C89.5807888,32.5802333 92.2471221,32.9479 90.6119177,32.7609 C94.4287281,33.1965667 98.569579,33.1792333 101.757311,30.7499 C105.290086,28.0575667 107.709388,23.7975667 108.773188,19.5539 C109.395599,17.0705667 110.703095,11.1322333 108.313797,9.14656667 C105.576455,6.8719 79.6805515,7.27256667 79.6805515,7.27256667 L79.6805515,7.27256667 Z M103.711555,0.4879 C109.152235,0.675233333 112.783022,1.63156667 115.466357,7.06656667 C120.383639,17.0275667 111.96692,31.9662333 102.577413,36.0372333 C91.6003746,40.7965667 79.3375086,35.5292333 73.5337832,26.0035667 C70.4607325,20.9595667 68.907205,13.3205667 69.0068841,7.50123333 C69.1345667,0.0739 74.3225485,-0.1321 80.420644,0.0315666667 L103.711555,0.4879 Z" id="sunglasses_2_Frame" /><path d="M13.1969483,4.9267 C9.78501392,5.11836667 5.88606327,5.16436667 2.69005822,6.63936667 C-0.69461078,8.20136667 -1.2176675,11.7387 3.04920921,12.2260333 C4.97094906,12.4457 6.89488267,12.0827 8.78716336,11.7450333 C10.336903,11.4683667 12.4419791,11.5580333 13.9064752,10.9657 C16.6355213,9.86236667 16.4603333,4.74003333 13.1969483,4.9267" id="sunglasses_2_Frame" /><path d="M112.73467,4.9267 C116.146606,5.11836667 120.045559,5.16436667 123.241565,6.63936667 C126.626236,8.20136667 127.149293,11.7387 122.882414,12.2260333 C120.960673,12.4457 119.036739,12.0827 117.144457,11.7450333 C115.594717,11.4683667 113.489639,11.5580333 112.025143,10.9657 C109.295782,9.86236667 109.471283,4.74003333 112.73467,4.9267" id="sunglasses_2_Frame" /><path d="M73.1094302,7.01263333 C71.1631869,4.71263333 66.0912197,3.38463333 62.8914864,3.38463333 C59.6914198,3.38463333 54.7681378,4.71263333 52.8222279,7.01263333 C51.8407719,8.1723 51.8074344,9.72396667 53.5083137,10.4509667 C55.6262451,11.3566333 57.5174814,9.7143 59.2126933,8.8553 C61.3809643,7.75663333 64.7120473,7.8773 66.7189648,8.8553 C68.4271783,9.68796667 70.3050797,11.3566333 72.4233444,10.4509667 C74.1242237,9.72396667 74.0908862,8.1723 73.1094302,7.01263333" id="sunglasses_2_Frame" /></g></g></g></g>
    </g>
</g>
    </g>
</svg>