<svg xmlns="http://www.w3.org/2000/svg" xmlns:dc="http://purl.org/dc/elements/1.1/" xmlns:ns3="http://creativecommons.org/ns#" xmlns:rdf="http://www.w3.org/1999/02/22-rdf-syntax-ns#" xmlns:xlink="http://www.w3.org/1999/xlink" width="264px" height="280px" viewBox="0 0 264 280" version="1.1">
    <title id="transparent_Title">Avataaar/Default</title>
    <desc>Created with python_avatars</desc>
    <defs>
        <path d="M100,0 C130.927946,-5.68137151e-15 156,25.072054 156,56 L156.000809,62.1660527 C161.675838,63.1185422 166,68.05429 166,74 L166,88 C166,94.0524166 161.519235,99.0582945 155.693975,99.8813638 C153.627928,119.686472 141.237929,136.421678 124.001014,144.610469 L124,163 L128,163 C167.764502,163 200,195.235498 200,235 L200,244 L0,244 L0,235 C-4.86974701e-15,195.235498 32.235498,163 72,163 L76,163 L75.9999836,144.610943 C58.7625487,136.422324 46.3721119,119.686854 44.3051107,99.8809698 C38.480765,99.0582945 34,94.0524166 34,88 L34,74 C34,68.053942 38.3246685,63.1179645 44.0001873,62.1658855 L44,56 C44,25.072054 69.072054,5.68137151e-15 100,0 Z" id="transparent_path-1" />
        <path d="M83,36.3476251 C83,52.6289957 105.161905,65.8276544 132.5,65.8276544 C159.838095,65.8276544 182,52.6289957 182,36.3476251 C182,34.9853134 181.844841,33.6445843 181.544472,32.3313638 C210.784239,41.4879251 232,68.792221 232,101.051724 L232,110 L32,110 L32,101.051724 C32,68.3970853 53.7386736,40.8197864 83.5337207,32.0021267 C83.1821692,33.4207025 83,34.871494 83,36.3476251 Z" id="transparent_path-3" />
        <rect id="transparent_path-5" x="0" y="0" width="264" height="280" />
        <path d="M74,0 C114.869071,0 148,33.1309285 148,74 L148,84.1482318 L148,197.608051 C135.525121,187.236892 119.490913,181 102,181 L102,181 L98,181 L98,162.610951 C115.530782,154.282984 128.048193,137.114792 129.791419,116.867187 C135.569129,116.002364 140,111.018625 140,105 L140,105 L140,92 C140,87.3536213 137.359271,83.3240177 133.496777,81.3301515 C132.723933,81.0500337 131.951808,80.748163 131.180891,80.4262497 C130.794819,80.3202581 130.400778,80.2331546 130,80.1659169 L130,80.1659169 L130.000458,79.9172528 C117.224481,74.2339715 104.877985,63.0706967 96.1104311,47.8848473 C93.1752556,42.8009742 90.8310687,37.5951441 89.0661426,32.3970356 C80.4313947,42.9409152 67.7445474,53.6023901 52.3415164,62.4953343 C42.777598,68.0170651 33.1467898,72.2910056 24,75.2659587 L24.0003852,137.246608 C29.6019576,148.318362 38.7728825,157.277529 50,162.610951 L50,162.610951 L50,181 L46,181 C38.3273639,181 30.9350359,182.200142 24.0004995,184.422941 L24,230 C24,244.105888 13.5691766,255.775526 0,257.716445 L0,74 C0,33.1309285 33.1309285,0 74,0 Z" id="transparent_path-7" />
    </defs>
    <g id="transparent_Avataaar/Default" stroke="none" stroke-width="1" fill="none" fill-rule="evenodd">
        <g id="transparent_Body" transform="translate(32.000000, 36.000000)">
            <mask id="transparent_mask-2" fill="white">
                <use xlink:href="#transparent_path-1" />
            </mask>
            <use fill="#D0C6AC" xlink:href="#transparent_path-1" />
            <g id="transparent_Skin-Color" mask="url(#transparent_mask-2)" fill="#FD9841">
                <g transform="translate(-32.000000, 0.000000)" id="transparent_Color">
                    <rect x="0" y="0" width="264" height="244" />
                </g>
            </g>
            <path d="M44,94 C44,124.927946 69.072054,150 100,150 C130.927946,150 156,124.927946 156,94 L156,94 L156,102 C156,132.927946 130.927946,158 100,158 C69.072054,158 44,132.927946 44,102 Z" id="transparent_Neck-Shadow" fill-opacity="0.100000001" fill="#000000" mask="url(#transparent_mask-2)" />
        </g>
        <g id="transparent_Clothing" transform="translate(0.000000, 170.000000)">
            
        <defs>
        <path d="M160,29.0517235 C199.764502,29.0517235 232,61.2872215 232,101.051724 L232,110 L32,110 L32,101.051724 C32,61.2872215 64.235498,29.0517235 104,29.0517235 L105.192363,29.0520252 C105.065349,30.0355191 105,31.0365551 105,32.0517235 C105,45.8588423 117.088312,57.0517235 132,57.0517235 C146.911688,57.0517235 159,45.8588423 159,32.0517235 C159,31.0365551 158.934651,30.0355191 158.807637,29.0520252 L160,29.0517235 Z" id="blazer_sweater_path-1" />
    </defs>
    <g id="blazer_sweater_Clothing/Blazer-+-Sweater" stroke="none" stroke-width="1" fill="none" fill-rule="evenodd">
        <mask id="blazer_sweater_mask-2" fill="white">
            <use xlink:href="#blazer_sweater_path-1" />
        </mask>
        <use id="blazer_sweater_Clothes" fill="#E6E6E6" xlink:href="#blazer_sweater_path-1" />
        <g id="blazer_sweater_Fabric-Color" mask="url(#blazer_sweater_mask-2)" fill="#A7FFC4">
            <rect id="blazer_sweater_ðŸ–Color" x="0" y="0" width="264" height="110" />
        </g>
        <g id="blazer_sweater_Blazer" transform="translate(32.000000, 28.000000)">
            <path d="M64,40.5 C64,55.7092257 65.9608691,69.9209213 69.3620096,82.0011822 L0,82 L0,73.0517235 C-4.73779789e-15,34.3646678 30.512279,2.80413671 68.7847355,1.12223161 C65.7400343,12.7307619 64,26.1727873 64,40.5 Z M200,73.0517235 L200,82 L131.63799,82.0011822 C135.039131,69.9209213 137,55.7092257 137,40.5 C137,26.194165 135.265154,12.7708778 132.228695,1.1737534 C170.025091,3.36299447 200,34.7068514 200,73.0517235 Z" id="blazer_sweater_Saco" fill="#3A4C5A" />
            <path d="M149,58 L158.555853,50.83311 C159.998897,49.7508275 161.987779,49.7682725 163.411616,50.8757011 L170,56 L170,56 L149,58 Z" id="blazer_sweater_Pocket-hanky" fill="#E6E6E6" />
            <path d="M69,0 C65,19.3333333 66.6666667,46.6666667 74,82 L58,82 L44,46 L50,37 L44,31 L63,1 C65.027659,0.369238637 67.027659,0.0359053037 69,0 Z" id="blazer_sweater_Wing" fill="#2F4351" />
            <path d="M151,0 C147,19.3333333 148.666667,46.6666667 156,82 L140,82 L126,46 L132,37 L126,31 L145,1 C147.027659,0.369238637 149.027659,0.0359053037 151,0 Z" id="blazer_sweater_Wing" fill="#2F4351" transform="translate(141.000000, 41.000000) scale(-1, 1) translate(-141.000000, -41.000000) " />
        </g>
        <path d="M167,39.8878801 C167,47.2887654 162.572022,53.9447584 155.520121,58.5564834 L149.58,53.8760062 L145,54.207887 L146,51.0567821 L145.92205,50.9956082 C152.022413,47.8531513 156,42.7004148 156,36.8768102 L156.000381,21.539265 C162.772478,26.1362012 167,32.6564553 167,39.8878801 Z M118.07795,50.9956082 L118,51.0567821 L119,54.207887 L114.419,53.8760062 L108.479879,58.5564834 C101.427978,53.9447584 97,47.2887654 97,39.8878801 C97,32.6560965 101.227942,26.1355541 108.000627,21.5385807 L108,36.8768102 C108,42.7004148 111.977587,47.8531513 118.07795,50.9956082 Z" id="blazer_sweater_Collar" fill="#F2F2F2" />
    </g>
</g>
        <g id="transparent_Face" transform="translate(76.000000, 82.000000)" fill="#000000">
            <g id="transparent_Mouth" transform="translate(2.000000, 52.000000)">    
                
            <g id="default_Mouth/Default" stroke="none" stroke-width="1" fill="none" fill-rule="evenodd" fill-opacity="0.699999988">
        <path d="M40,15 C40,22.7319865 46.2680135,29 54,29 L54,29 C61.7319865,29 68,22.7319865 68,15" id="default_Mouth" fill="#000000" />
    </g>
</g>
            <g id="transparent_Nose" transform="translate(28.000000, 40.000000)" fill-opacity="0.16">
                
            <g id="wide_Nose/Wide" stroke="none" stroke-width="1" fill="none" fill-rule="evenodd"><path d="M13,6 C13,12.627417 16.8281211,18 28,18 C39.1718789,18 43,12.627417 43,6 C39.0361818,6 32.8972468,9 27.83815,9 C23.0794079,9 17.1013384,6 13,6 Z" id="wide_Nose" fill-opacity=".16" fill="#000" /></g></g>
            <g id="transparent_Eyes" transform="translate(0.000000, 8.000000)">
                
            <g id="eye_roll_Eyes/Eye-Roll-ðŸ™„" stroke="none" stroke-width="1" fill="none" fill-rule="evenodd">
        <circle id="eye_roll_Eyeball" fill="#FFFFFF" cx="30" cy="22" r="14" />
        <circle id="eye_roll_The-white-stuff" fill="#FFFFFF" cx="82" cy="22" r="14" />
        <circle id="eye_roll_Eye" fill-opacity="0.699999988" fill="#000000" cx="30" cy="14" r="6" />
        <circle id="eye_roll_Eye" fill-opacity="0.699999988" fill="#000000" cx="82" cy="14" r="6" />
    </g>
</g>
            <g id="transparent_Eyebrow" fill-opacity="0.599999964">
                
            </g>
        </g>
        <g id="transparent_Top">
            
        <metadata id="wick_metadata24">
      <rdf:RDF>
         <ns3:Work rdf:about="">
            <dc:format>image/svg+xml</dc:format>
            <dc:type rdf:resource="http://purl.org/dc/dcmitype/StillImage" />
            <dc:title />
         </ns3:Work>
      </rdf:RDF>
   </metadata>
   <defs id="wick_defs3">
      <path d="M264,0 L264,280 L232,280 L232,271 C232,231.235498 199.764502,199 160,199 L160,199 L156,199 L156.001014,180.610469 C173.531251,172.282329 186.048207,155.114429 187.791415,134.867236 C193.568906,134.002616 198,129.018777 198,123 L198,123 L198,110 C198,104.05429 193.675838,99.1185422 188.000809,98.1660527 L188,92 C188,61.072054 162.927946,36 132,36 C101.072054,36 76,61.072054 76,92 L76,92 L76.0001873,98.1658855 C70.3246685,99.1179645 66,104.053942 66,110 L66,110 L66,123 C66,129.018777 70.4310943,134.002616 76.2090181,134.867253 C77.9518263,155.114813 90.4692242,172.28298 107.999984,180.610943 L108,199 L104,199 C64.633143,199 32.6454629,230.594012 32.0096459,269.809348 L32,271 L32,280 L0,280 L0,0 L264,0 Z" id="wick_hairstylewick-path-1" />
   </defs>
   <g id="wick_Hairstyle/Wick" stroke="none" stroke-width="1" fill="none" fill-rule="evenodd" transform="translate(-1, 0)">
      <g id="wick_template-for-hairstyles" opacity=".184" transform="translate(1.000000, 0.000000)">
         <mask id="wick_hairstylewick-mask-2" fill="#fff">
            <use xlink:href="#wick_hairstylewick-path-1" id="wick_use5" />
         </mask>
         <g id="wick_Mask-Hair" />
      </g>
      <g id="wick_Wick" transform="translate(64.000000, 22.300000)">
         <path id="wick_Hair-Color" d="M 52.097656 1.3007812 C 41.890847 1.4600294 3.5351563 39.826172 3.5351562 39.826172 L 3.5351562 83.507812 C 6.8161563 77.241812 12.742187 77.080078 12.742188 77.080078 L 12.742188 84.916016 C 12.742188 88.412016 16.962891 84.916016 16.962891 84.916016 C 16.962891 66.799016 24.742187 62.710937 24.742188 62.710938 C 24.742188 62.710938 13.885234 57.399406 33.490234 38.191406 C 52.418234 19.647406 67.185594 34.875219 68.183594 35.949219 C 68.183594 35.949219 84.005594 19.647406 102.93359 38.191406 C 122.53859 57.399406 111.68359 62.710938 111.68359 62.710938 C 111.68359 62.710938 119.46094 66.799016 119.46094 84.916016 C 119.46094 84.916016 123.68359 88.412016 123.68359 84.916016 L 123.68359 77.080078 C 123.68359 77.080078 129.60962 77.241812 132.89062 83.507812 L 132.89062 39.826172 C 132.89062 39.826172 93.307281 0.23226562 83.863281 1.3222656 C 74.654281 2.3842656 68.514891 7.2326094 68.212891 7.4746094 C 67.910891 7.2326094 61.7705 2.3842656 52.5625 1.3222656 C 52.414938 1.3052344 52.259669 1.2982535 52.097656 1.3007812 z M 3.5351562 107.32617 L 3.5351562 148.6543 C 3.5351562 148.6543 3.3877812 161.75691 -0.69921875 165.62891 C -0.69921875 165.62891 8.2021875 167.31694 12.742188 161.46094 C 12.742188 161.46094 11.6965 168.20847 8.5625 171.98047 C 8.5625 171.98047 19.034078 172.88672 23.955078 168.01172 C 23.955078 168.01172 23.547906 172.87448 21.503906 176.64648 C 21.503906 176.64648 28.314 177.75933 35.125 172.73633 C 35.125 172.73633 35.178656 175.65238 35.222656 178.10938 C 36.882656 177.99437 38.553187 177.91406 40.242188 177.91406 L 44.242188 177.91406 L 44.242188 158.52539 C 27.005188 150.33739 14.613875 133.60388 12.546875 113.79688 C 8.596875 113.23888 5.2711563 110.75317 3.5351562 107.32617 z M 132.88281 107.44727 C 131.13081 110.81127 127.83855 113.24487 123.93555 113.79688 C 121.86855 133.60188 109.48019 150.33639 92.242188 158.52539 L 92.240234 177.91602 L 96.240234 177.91602 C 97.907234 177.91602 99.556312 177.99252 101.19531 178.10352 C 101.23731 175.65052 101.29102 172.73633 101.29102 172.73633 C 108.10202 177.75933 114.91211 176.64648 114.91211 176.64648 C 112.86911 172.87548 112.46094 168.00977 112.46094 168.00977 C 117.38094 172.88477 127.85547 171.98047 127.85547 171.98047 C 124.72247 168.20847 123.67578 161.46094 123.67578 161.46094 C 128.21578 167.31694 137.11719 165.62891 137.11719 165.62891 C 133.03019 161.75691 132.88281 148.65625 132.88281 148.65625 L 132.88281 107.44727 z " transform="translate(0.7,-1.3)" fill="#B58143" />
         <path d="M92.9423,157.2264 L92.9413,170.5254 C118.7923,158.6644 123.6873,127.9354 124.5233,113.4234 C122.1713,132.8224 109.9093,149.1654 92.9423,157.2264" id="wick_Fill-8" fill-opacity=".6" fill="#000" />
         <path d="M13.4716,114.3524 C14.2416,129.2804 19.1006,159.2004 44.9416,170.6934 L44.9416,157.2264 C28.2446,149.2944 16.0966,133.3444 13.4716,114.3524" id="wick_Fill-10" fill-opacity=".6" fill="#000" />
      </g>
      <path d="M106,76 L119,63 C117.666667,66.3333333 116,69 114,71 C112,73 109.333333,74.6666667 106,76 Z" id="wick_Path-8" fill="#CE5959" />
      <path d="M129,123 L142,110 C140.666667,113.333333 139,116 137,118 C135,120 132.333333,121.666667 129,123 Z" id="wick_path17" fill="#CE5959" transform="translate(135.500000, 116.500000) rotate(75.000000) translate(-135.500000, -116.500000)" />
      <g id="wick_Facial-Hair" transform="translate(49.000000, 72.000000)"><defs>
        <path d="M105.612044,67.1316942 C111.386129,69.3374281 116.495271,75.5829845 125.36175,72.8283797 C125.730639,72.7136458 126.091098,73.0449523 125.980498,73.408662 C124.607113,77.9183313 116.972736,81.0068878 114.378714,81.1080652 C103.039714,81.5495987 93.9060174,72.8306951 84.0009784,72.1615262 C74.0951698,72.8301081 64.9612417,81.5496135 53.6221945,81.1080652 C51.0278347,81.0068878 43.3937943,77.9183313 42.0204089,73.408662 C41.9094725,73.0449523 42.2699314,72.7136458 42.6388201,72.8283797 C51.5052994,75.5829845 56.6144416,69.3374281 62.3885276,67.1316942 C67.5783507,65.1488567 77.2089224,65.7112779 84.0008729,69.2973744 C90.7925576,65.7112249 100.422466,65.1489502 105.612044,67.1316942 Z" id="moustache_fancy_path-1" />
    </defs>
    <g id="moustache_fancy_Facial-Hair/Moustache-Fancy" stroke="none" stroke-width="1" fill="none" fill-rule="evenodd">
        <mask id="moustache_fancy_mask-2" fill="white">
            <use xlink:href="#moustache_fancy_path-1" />
        </mask>
        <use id="moustache_fancy_Moustache-U-a-Question" fill="#28354B" xlink:href="#moustache_fancy_path-1" />
        <g id="moustache_fancy_Facial-Hair-Color" mask="url(#moustache_fancy_mask-2)" fill="#D6B370">
            <rect id="moustache_fancy_Color" x="0" y="0" width="168" height="152" />
        </g>
    </g>
</g>
      <g id="wick_Accessory" transform="translate(62.000000, 85.000000)"><g id="wayfarers_2_Accesories/Wayfarers" stroke="none" stroke-width="1" fill="none" fill-rule="evenodd"><path d="M100.529931,9 L103.5,9 C124.790455,9 132.354091,14.0962914 133.045455,14.7715644 C134.679318,14.7715644 136,16.061509 136,17.6573466 L136,20.5431288 C136,22.0819721 134.771968,23.3363819 133.219267,23.4240198 L132.612705,23.4391531 C131.44626,23.4830476 128.230186,23.7150617 126.820725,24.9414221 C126.960175,26.434022 127,27.9643151 127,29.5 C127,41.5686429 116.721275,50 102,50 L99.2421498,50 C85.3147125,50 77,42.3359286 77,29.5 C77,27.9522934 77.0404506,26.4100634 77.1814034,24.906131 L75.8004908,24.3608351 C75.5558969,24.2641292 75.0281396,24.090392 74.2963505,23.9099044 C72.256272,23.4067419 70.1589087,23.253569 68.3040836,23.6343084 C67.6235903,23.7739931 66.9922286,23.9836085 66.4128127,24.266732 L64.8308166,25.0394014 C64.9619021,26.5011097 65,27.9979759 65,29.5 C65,41.5686429 54.7212748,50 40,50 L37.2421498,50 C23.3147125,50 15,42.3359286 15,29.5 C15,28.6610668 15.0118851,27.8237427 15.0452193,26.9932548 C14.930996,26.9593697 14.8636364,26.7504239 14.8636364,26.3146932 C14.8636364,23.8880127 10.6851521,23.5019499 9.35563443,23.4405308 L8.95454545,23.428911 C7.32363636,23.428911 6,22.1389663 6,20.5431288 L6,17.6573466 C6,16.061509 7.32363636,14.7715644 8.95454545,14.7715644 L9.07093469,14.6699199 C10.2604418,13.7068794 17.8996241,9.09744476 37.8653976,9.00151937 L41.4700694,9 C42.7306767,9 43.9242203,9.0341353 45.0542384,9.10047223 C57.4173567,9.52253128 60.909731,11.2341396 65.8502273,13.6518809 L66.2689233,13.858509 L66.5639301,13.9581917 C67.3005076,14.1970236 69.0662164,14.7015168 71.0790606,14.7657952 C73.2462948,14.6727857 75.1000195,14.0854019 75.641698,13.8971977 L76.3244551,13.570396 C81.33305,11.2128779 86.4386483,9.71580366 95.5614746,9.20060541 C97.0895989,9.06864066 98.7423376,9 100.529931,9 Z M42.1732992,15.0019264 L38.3853606,15 C19.5815608,15 19.0174468,21.4367119 19.0005234,29.7271501 L19,30.5015498 C19,37.5719428 22.116254,46 36.9709365,46 L40,46 C52.3649085,46 61,39.6270373 61,30.5015498 L60.993687,28.7414887 C60.9091306,21.0134217 59.6920357,15.1237886 42.1732992,15.0019264 L42.1732992,15.0019264 Z M103.614639,15 L100.385361,15 C81.5815608,15 81.0174468,21.4367119 81.0005234,29.7271501 L81,30.5015498 C81,37.5719428 84.1194833,46 98.9709365,46 L102,46 C114.364909,46 123,39.6270373 123,30.5015498 L122.993351,28.711307 C122.905012,20.9167947 121.643025,15 103.614639,15 Z" id="wayfarers_2_Shape" fill-opacity=".16" fill="#000" /><g id="wayfarers_2_Wayfarers" transform="translate(7.000000, 7.000000)" fill-rule="nonzero"><g id="wayfarers_2_Shades" transform="translate(10.795455, 2.928571)" fill="#150662" fill-opacity=".7"><path d="M44.9178864,17.5714286 C44.9178864,27.2737857 36.66775,35.1428571 22.9204545,35.1428571 L20.1704091,35.1428571 C6.42311364,35.1428571 0.923022727,27.2708571 0.923022727,17.5714286 L0.923022727,17.5714286 C0.923022727,7.86614286 2.20715909,0 21.4545455,0 L24.3863636,0 C43.63375,0 44.9178864,7.86614286 44.9178864,17.5714286 L44.9178864,17.5714286 Z" id="wayfarers_2_Shade" /><path d="M106.486068,17.5714286 C106.486068,27.2737857 98.2388636,35.1428571 84.4886364,35.1428571 L81.7385909,35.1428571 C67.9912955,35.1428571 62.4912045,27.2708571 62.4912045,17.5714286 L62.4912045,17.5714286 C62.4912045,7.86614286 63.7753409,0 83.0227273,0 L85.9545455,0 C105.199,0 106.486068,7.86614286 106.486068,17.5714286 L106.486068,17.5714286 Z" id="wayfarers_2_Shade" /></g><path d="M35.1818182,0 C56.8332955,0 58.6451591,10.127 58.6451591,20.5 C58.6451591,32.5686429 48.3955227,41 33.7159091,41 L30.9658636,41 C17.0778409,41 8.78665909,33.3359286 8.78665909,20.5 C8.78665909,10.127 10.5985227,0 32.25,0 L35.1818182,0 Z M35.1818182,5.85421429 L32.25,5.85421429 C14.6502955,5.85421429 14.6502955,12.3175714 14.6502955,20.5 C14.6502955,27.1800714 17.4795,35.1428571 30.9658636,35.1428571 L33.7159091,35.1428571 C44.9418409,35.1428571 52.7815227,29.1217143 52.7815227,20.5 L52.7810475,19.768351 C52.765683,11.935587 52.2535316,5.85421429 35.1818182,5.85421429 Z" id="wayfarers_2_Left" fill="#252C2F" /><path d="M96.75,0 C118.401477,0 120.213341,10.127 120.213341,20.5 C120.213341,32.5686429 109.963705,41 95.2840909,41 L92.5340455,41 C78.6460227,41 70.3548409,33.3359286 70.3548409,20.5 C70.3548409,10.127 72.1667045,0 93.8181818,0 L96.75,0 Z M96.75,5.85421429 L93.8181818,5.85421429 C76.2184773,5.85421429 76.2184773,12.3175714 76.2184773,20.5 C76.2184773,27.1800714 79.0506136,35.1428571 92.5340455,35.1428571 L95.2840909,35.1428571 C106.510023,35.1428571 114.349705,29.1217143 114.349705,20.5 L114.349229,19.768351 C114.333865,11.935587 113.821713,5.85421429 96.75,5.85421429 Z" id="wayfarers_2_Right" fill="#252C2F" /><path d="M2.93181818,5.85714286 C3.61786364,5.17185714 11.1233182,0 32.25,0 C49.9640455,0 53.7138409,1.88014286 59.3898409,4.72085714 L59.8053162,4.93054903 C60.1999353,5.07314243 62.2179351,5.77419634 64.5784525,5.85128811 C66.7290156,5.75689949 68.5684809,5.16080623 69.1059926,4.96981137 C75.5844654,1.74762081 81.9260118,0 96.75,0 C117.876682,0 125.382136,5.17185714 126.068182,5.85714286 C127.689477,5.85714286 129,7.16621429 129,8.78571429 L129,11.7142857 C129,13.3337857 127.689477,14.6428571 126.068182,14.6428571 C126.068182,14.6428571 120.204545,14.6428571 120.204545,17.5714286 C120.204545,20.5 117.272727,13.3337857 117.272727,11.7142857 L117.272727,8.8618831 C113.697201,7.46243482 107.296654,5.85714286 96.75,5.85714286 C84.9995538,5.85714286 79.1475515,6.98813142 74.1276604,9.10414393 L74.1837955,9.24257143 L71.6878772,10.2500422 L74.1813177,11.2582547 L71.981173,16.6874536 L69.263564,15.5885995 C69.0208516,15.4904597 68.4971539,15.3141463 67.770994,15.1309826 C65.7466083,14.6203594 63.6653786,14.4649153 61.8248214,14.8513001 C61.1495627,14.993056 60.5230576,15.2057795 59.9480988,15.4931011 L57.3260941,16.8033836 L54.7026238,11.5651815 L57.3246285,10.2548989 L57.3310023,10.251716 L54.8191364,9.23671429 L54.8992448,9.03890561 C50.5700368,6.97578666 46.5781927,5.85714286 32.25,5.85714286 C21.7038986,5.85714286 15.3034993,7.46145875 11.7272727,8.86093383 L11.7272727,11.7142857 C11.7272727,13.3337857 8.79545455,20.5 8.79545455,17.5714286 C8.79545455,14.6428571 2.93181818,14.6428571 2.93181818,14.6428571 C1.31345455,14.6428571 0,13.3337857 0,11.7142857 L0,8.78571429 C0,7.16621429 1.31345455,5.85714286 2.93181818,5.85714286 Z" id="wayfarers_2_Stuff" fill="#252C2F" /></g></g></g>
   </g>
</g>
    </g>
</svg>