<svg xmlns="http://www.w3.org/2000/svg" xmlns:dc="http://purl.org/dc/elements/1.1/" xmlns:ns3="http://creativecommons.org/ns#" xmlns:rdf="http://www.w3.org/1999/02/22-rdf-syntax-ns#" xmlns:xlink="http://www.w3.org/1999/xlink" width="264px" height="280px" viewBox="0 0 264 280" version="1.1">
    <title id="transparent_Title">Avataaar/Default</title>
    <desc>Created with python_avatars</desc>
    <defs>
        <path d="M100,0 C130.927946,-5.68137151e-15 156,25.072054 156,56 L156.000809,62.1660527 C161.675838,63.1185422 166,68.05429 166,74 L166,88 C166,94.0524166 161.519235,99.0582945 155.693975,99.8813638 C153.627928,119.686472 141.237929,136.421678 124.001014,144.610469 L124,163 L128,163 C167.764502,163 200,195.235498 200,235 L200,244 L0,244 L0,235 C-4.86974701e-15,195.235498 32.235498,163 72,163 L76,163 L75.9999836,144.610943 C58.7625487,136.422324 46.3721119,119.686854 44.3051107,99.8809698 C38.480765,99.0582945 34,94.0524166 34,88 L34,74 C34,68.053942 38.3246685,63.1179645 44.0001873,62.1658855 L44,56 C44,25.072054 69.072054,5.68137151e-15 100,0 Z" id="transparent_path-1" />
        <path d="M83,36.3476251 C83,52.6289957 105.161905,65.8276544 132.5,65.8276544 C159.838095,65.8276544 182,52.6289957 182,36.3476251 C182,34.9853134 181.844841,33.6445843 181.544472,32.3313638 C210.784239,41.4879251 232,68.792221 232,101.051724 L232,110 L32,110 L32,101.051724 C32,68.3970853 53.7386736,40.8197864 83.5337207,32.0021267 C83.1821692,33.4207025 83,34.871494 83,36.3476251 Z" id="transparent_path-3" />
        <rect id="transparent_path-5" x="0" y="0" width="264" height="280" />
        <path d="M74,0 C114.869071,0 148,33.1309285 148,74 L148,84.1482318 L148,197.608051 C135.525121,187.236892 119.490913,181 102,181 L102,181 L98,181 L98,162.610951 C115.530782,154.282984 128.048193,137.114792 129.791419,116.867187 C135.569129,116.002364 140,111.018625 140,105 L140,105 L140,92 C140,87.3536213 137.359271,83.3240177 133.496777,81.3301515 C132.723933,81.0500337 131.951808,80.748163 131.180891,80.4262497 C130.794819,80.3202581 130.400778,80.2331546 130,80.1659169 L130,80.1659169 L130.000458,79.9172528 C117.224481,74.2339715 104.877985,63.0706967 96.1104311,47.8848473 C93.1752556,42.8009742 90.8310687,37.5951441 89.0661426,32.3970356 C80.4313947,42.9409152 67.7445474,53.6023901 52.3415164,62.4953343 C42.777598,68.0170651 33.1467898,72.2910056 24,75.2659587 L24.0003852,137.246608 C29.6019576,148.318362 38.7728825,157.277529 50,162.610951 L50,162.610951 L50,181 L46,181 C38.3273639,181 30.9350359,182.200142 24.0004995,184.422941 L24,230 C24,244.105888 13.5691766,255.775526 0,257.716445 L0,74 C0,33.1309285 33.1309285,0 74,0 Z" id="transparent_path-7" />
    </defs>
    <g id="transparent_Avataaar/Default" stroke="none" stroke-width="1" fill="none" fill-rule="evenodd">
        <g id="transparent_Body" transform="translate(32.000000, 36.000000)">
            <mask id="transparent_mask-2" fill="white">
                <use xlink:href="#transparent_path-1" />
            </mask>
            <use fill="#D0C6AC" xlink:href="#transparent_path-1" />
            <g id="transparent_Skin-Color" mask="url(#transparent_mask-2)" fill="#F8D25C">
                <g transform="translate(-32.000000, 0.000000)" id="transparent_Color">
                    <rect x="0" y="0" width="264" height="244" />
                </g>
            </g>
            <path d="M44,94 C44,124.927946 69.072054,150 100,150 C130.927946,150 156,124.927946 156,94 L156,94 L156,102 C156,132.927946 130.927946,158 100,158 C69.072054,158 44,132.927946 44,102 Z" id="transparent_Neck-Shadow" fill-opacity="0.100000001" fill="#000000" mask="url(#transparent_mask-2)" />
        </g>
        <g id="transparent_Clothing" transform="translate(0.000000, 170.000000)">
            
        <defs>
        <path d="M99,32.5 C99,44.3741221 113.998461,54 132.5,54 C151.001539,54 166,44.3741221 166,32.5 C166,31.4019929 165.871751,30.3232102 165.624342,29.2694852 C202.75978,32.1370674 232,63.1796858 232,101.051724 L232,110 L32,110 L32,101.051724 C32,62.8342194 61.7761079,31.571298 99.3946469,29.196636 C99.1341902,30.2738104 99,31.3768477 99,32.5 Z" id="graphic_shirt_path-1" />
    </defs>
    <g id="graphic_shirt_Clothing/Graphic-Shirt" stroke="none" stroke-width="1" fill="none" fill-rule="evenodd">
        <mask id="graphic_shirt_mask-2" fill="white">
            <use xlink:href="#graphic_shirt_path-1" />
        </mask>
        <use id="graphic_shirt_Clothes" fill="#E6E6E6" xlink:href="#graphic_shirt_path-1" />
        <g id="graphic_shirt_Fabric-Color" mask="url(#graphic_shirt_mask-2)" fill="#25557C">
            <rect id="graphic_shirt_ðŸ–Color" x="0" y="0" width="264" height="110" />
        </g>
        <g id="graphic_shirt_Graphic" fill="#FFFFFF" transform="translate(77.000000, 58.000000)">
        <g id="pizza_Clothing/Graphic/Pizza" stroke="none" stroke-width="1" fill="none" fill-rule="evenodd">
        <g id="pizza_Pizza" transform="translate(35.000000, 1.000000)" fill="#FFFFFF">
            <path d="M30.9332298,24.3911229 C26.8510636,25.7713262 22.3826909,27.7147062 20.0279438,31.464875 C18.1805823,34.4072634 18.056518,31.0097105 15.4771364,32.0578917 C12.9702973,33.0766532 13.6557418,37.2811459 12.7452506,39.3594362 C12.0367243,38.1679392 11.7020395,36.8427927 10.8096839,35.755105 C11.5033719,35.309607 12.1459503,34.7115469 12.6240715,34.0306915 C12.7802853,33.7116981 7.83173048,34.3791045 7.54774295,34.4602188 C6.13687312,34.8620076 4.80843799,35.231855 3.46021853,35.8900153 C3.8167486,35.3734898 4.16627171,34.8531817 4.51043656,34.3282505 C4.82039102,33.8562748 5.1253994,33.3800962 5.42463735,32.9009757 C5.63196061,32.2209608 6.00126805,32.2188594 6.53255966,32.8950918 C7.28147888,32.931236 7.71055147,33.2519105 8.49450544,33.0724504 C11.4098085,32.4054642 12.3380232,26.8489271 8.74469474,27.0851251 C10.3237313,24.2158656 11.7251212,21.3024766 12.9975007,18.2831768 C13.4999402,22.5742474 19.0774717,21.0961186 20.7166857,18.8076877 C22.8571026,15.8190684 20.1132637,10.1456931 16.2334747,10.6962614 C16.8142272,9.32068116 17.4036352,7.93375334 17.8825808,6.5182464 C18.9752527,8.1287638 20.8844403,8.90880562 22.421023,9.97463863 C24.031797,11.0917459 25.3940304,12.414791 26.5839752,13.9807586 C28.9704596,17.1210994 30.3767956,20.9881063 32.7987269,24.0334636 C32.1610946,24.0675064 31.539537,24.1868662 30.9332298,24.3911229 M39.9388082,20.0029673 C39.306534,14.2455357 34.7895249,8.40194655 30.4996233,4.82661475 C27.9499181,2.7020935 20.2587609,-2.55814545 17.1930146,1.48706068 C19.664819,2.55835735 22.3921709,2.81640998 24.8425422,3.97596569 C28.1630118,5.5482375 30.7646508,8.13506801 33.0114085,11.0312255 C36.1484608,15.075591 40.9816071,23.3139423 33.485408,25.4170292 C34.0030979,25.0791231 34.3035723,24.7080149 34.7132728,24.1086939 C33.706333,23.8762784 34.1131482,22.231298 33.7590912,21.1570594 C33.3473298,19.9063026 32.549362,18.6904293 31.874634,17.5745828 C30.8042195,15.803518 29.6278764,14.0408588 28.3707472,12.4038637 C26.692789,10.2179814 24.685092,8.49735037 22.3938196,7.00829423 C21.4874501,6.41948033 20.6190006,5.89749114 19.5774382,5.59320758 C18.2279822,5.19898385 18.6698322,5.67936522 18.3005247,4.44668058 C18.0692954,3.67420382 18.277443,2.68402141 18.0548693,1.85480669 C16.0817949,3.51323614 15.4400408,5.90967929 14.5555165,8.23635577 C13.5353871,10.9202712 12.4328231,13.5714048 11.3591111,16.2330453 C8.72367389,22.767997 5.32530354,28.6283975 1.46777192,34.479972 C0.796341323,35.4991538 -0.697375374,37.4299255 0.377573066,38.6537842 C1.33876162,39.7486166 2.7084141,38.9597489 3.76399039,38.5150914 C5.20041497,37.9107271 7.14917119,36.3506434 8.69894348,37.1680903 C10.6971605,38.2221554 9.75287108,42.1522045 12.9130052,41.9954397 C16.0265636,41.8407762 15.4404529,36.7154475 16.4395615,34.6775042 C18.7514425,36.3628316 20.615291,35.3171721 22.0187417,33.0665665 C23.6451783,30.4578814 25.7942508,29.4101204 28.5323192,28.1291035 C29.6521946,27.6050129 31.5663282,26.1899262 32.7327792,26.0138284 C33.6980895,25.8688314 34.6254798,26.8972594 35.915995,26.8506082 C39.0138909,26.7375526 40.3077034,22.5977832 39.9388082,20.0029673" id="pizza_Fill-29" />
            <path d="M18.5372079,22.8336349 C16.1119296,22.3885123 12.7302873,22.7596628 12.5083803,25.9869094 C12.3721811,27.9648021 13.9174686,29.8351772 15.5900451,30.6510203 C20.7121513,33.1501581 24.6988403,23.9625691 18.5372079,22.8336349" id="pizza_Fill-31" />
            <path d="M28.3362306,19.157604 C27.6856351,18.4518413 26.6326311,17.918164 25.6605301,18.1654572 C25.9719227,17.9508815 26.2293799,17.5642204 26.5251817,17.3262751 C23.3686979,15.0403008 21.3853086,20.8049502 23.1786599,23.0743534 C25.8964974,26.5139375 31.2158743,22.3078297 28.3362306,19.157604" id="pizza_Fill-33" />
        </g>
    </g>
</g>
    </g>
</g>
        <g id="transparent_Face" transform="translate(76.000000, 82.000000)" fill="#000000">
            <g id="transparent_Mouth" transform="translate(2.000000, 52.000000)">    
                
            <g id="disbelief_Mouth/Disbelief" stroke="none" stroke-width="1" fill="none" fill-rule="evenodd" fill-opacity="0.699999988">
        <path d="M40,15 C40,22.7319865 46.2680135,29 54,29 L54,29 C61.7319865,29 68,22.7319865 68,15" id="disbelief_Mouth" fill="#000000" transform="translate(54.000000, 22.000000) scale(1, -1) translate(-54.000000, -22.000000) " />
    </g>
</g>
            <g id="transparent_Nose" transform="translate(28.000000, 40.000000)" fill-opacity="0.16">
                
            <g id="default_Nose/Default" stroke="none" stroke-width="1" fill="none" fill-rule="evenodd" fill-opacity="0.16">
        <path d="M16,8 C16,12.418278 21.372583,16 28,16 L28,16 C34.627417,16 40,12.418278 40,8" id="default_Nose" fill="#000000" />
    </g>
</g>
            <g id="transparent_Eyes" transform="translate(0.000000, 8.000000)">
                
            <g id="happy_Eyes/Happy-ðŸ˜" stroke="none" stroke-width="1" fill="none" fill-rule="evenodd" fill-opacity="0.599999964">
        <path d="M16.1601674,22.4473116 C18.006676,18.648508 22.1644225,16 26.9975803,16 C31.8136766,16 35.9591217,18.629842 37.8153518,22.4071242 C38.3667605,23.5291977 37.5821037,24.4474817 36.790607,23.7670228 C34.3395063,21.6597833 30.8587163,20.3437884 26.9975803,20.3437884 C23.2572061,20.3437884 19.8737584,21.5787519 17.4375392,23.5716412 C16.5467928,24.3002944 15.6201012,23.5583844 16.1601674,22.4473116 Z" id="happy_Squint" fill="#000000" />
        <path d="M74.1601674,22.4473116 C76.006676,18.648508 80.1644225,16 84.9975803,16 C89.8136766,16 93.9591217,18.629842 95.8153518,22.4071242 C96.3667605,23.5291977 95.5821037,24.4474817 94.790607,23.7670228 C92.3395063,21.6597833 88.8587163,20.3437884 84.9975803,20.3437884 C81.2572061,20.3437884 77.8737584,21.5787519 75.4375392,23.5716412 C74.5467928,24.3002944 73.6201012,23.5583844 74.1601674,22.4473116 Z" id="happy_Squint" fill="#000000" />
    </g>
</g>
            <g id="transparent_Eyebrow" fill-opacity="0.599999964">
                
            <g id="angry_Eyebrow/Outline/Angry" stroke="none" stroke-width="1" fill="none" fill-rule="evenodd" fill-opacity="0.599999964">
        <path d="M15.6114904,15.1845247 C19.8515017,9.41618792 22.4892046,9.70087612 28.9238518,14.5564693 C29.1057771,14.6937504 29.2212592,14.7812575 29.5936891,15.063789 C34.4216439,18.7263562 36.7081807,20 40,20 C41.1045695,20 42,19.1045695 42,18 C42,16.8954305 41.1045695,16 40,16 C37.9337712,16 36.0986396,14.9777974 32.011227,11.8770179 C31.6358269,11.5922331 31.5189458,11.5036659 31.3332441,11.3635351 C27.5737397,8.52660822 25.3739873,7.28738405 22.6379899,6.99208688 C18.9538127,6.59445233 15.5799484,8.47367246 12.3885096,12.8154753 C11.7343147,13.7054768 11.9254737,14.9572954 12.8154753,15.6114904 C13.7054768,16.2656853 14.9572954,16.0745263 15.6114904,15.1845247 Z" id="angry_Eyebrow" fill="#000000" fill-rule="nonzero" />
        <path d="M73.6114904,15.1845247 C77.8515017,9.41618792 80.4892046,9.70087612 86.9238518,14.5564693 C87.1057771,14.6937504 87.2212592,14.7812575 87.5936891,15.063789 C92.4216439,18.7263562 94.7081807,20 98,20 C99.1045695,20 100,19.1045695 100,18 C100,16.8954305 99.1045695,16 98,16 C95.9337712,16 94.0986396,14.9777974 90.011227,11.8770179 C89.6358269,11.5922331 89.5189458,11.5036659 89.3332441,11.3635351 C85.5737397,8.52660822 83.3739873,7.28738405 80.6379899,6.99208688 C76.9538127,6.59445233 73.5799484,8.47367246 70.3885096,12.8154753 C69.7343147,13.7054768 69.9254737,14.9572954 70.8154753,15.6114904 C71.7054768,16.2656853 72.9572954,16.0745263 73.6114904,15.1845247 Z" id="angry_Eyebrow" fill="#000000" fill-rule="nonzero" transform="translate(84.999934, 13.470064) scale(-1, 1) translate(-84.999934, -13.470064) " />
    </g>
</g>
        </g>
        <g id="transparent_Top">
            
        <metadata id="twist_long_hair_2_metadata45">
      <rdf:RDF>
         <ns3:Work rdf:about="">
            <dc:format>image/svg+xml</dc:format>
            <dc:type rdf:resource="http://purl.org/dc/dcmitype/StillImage" />
            <dc:title />
         </ns3:Work>
      </rdf:RDF>
   </metadata>
   <defs id="twist_long_hair_2_defs6">
      <filter id="twist_long_hair_2_hairstyletwist-long-hair-2-filter-3">
         <feColorMatrix in="SourceGraphic" values="0 0 0 0 0.000000 0 0 0 0 0.000000 0 0 0 0 0.000000 0 0 0 0.240000 0" id="twist_long_hair_2_feColorMatrix2" />
      </filter>
      <path d="M264,0 L264,280 L232,280 L232,271 C232,231.235498 199.764502,199 160,199 L160,199 L156,199 L156.001014,180.610469 C173.531251,172.282329 186.048207,155.114429 187.791415,134.867236 C193.568906,134.002616 198,129.018777 198,123 L198,123 L198,110 C198,104.05429 193.675838,99.1185422 188.000809,98.1660527 L188,92 C188,61.072054 162.927946,36 132,36 C101.072054,36 76,61.072054 76,92 L76,92 L76.0001873,98.1658855 C70.3246685,99.1179645 66,104.053942 66,110 L66,110 L66,123 C66,129.018777 70.4310943,134.002616 76.2090181,134.867253 C77.9518263,155.114813 90.4692242,172.28298 107.999984,180.610943 L108,199 L104,199 C64.633143,199 32.6454629,230.594012 32.0096459,269.809348 L32,271 L32,280 L0,280 L0,0 L264,0 Z" id="twist_long_hair_2_hairstyletwist-long-hair-2-path-1" />
   </defs>
   <g id="twist_long_hair_2_Hairstyle/Twist Long hair 2" stroke="none" stroke-width="1" fill="none" fill-rule="evenodd" transform="translate(-1, 0)">
      <g id="twist_long_hair_2_template-for-hairstyles" opacity=".184" transform="translate(1.000000, 0.000000)">
         <mask id="twist_long_hair_2_hairstyletwist-long-hair-2-mask-2" fill="#fff">
            <use xlink:href="#twist_long_hair_2_hairstyletwist-long-hair-2-path-1" id="twist_long_hair_2_use8" />
         </mask>
         <g id="twist_long_hair_2_Mask-Hair" />
      </g>
      <path id="twist_long_hair_2_Hair-Color" d="M 56.800781 0.80078125 C 55.633969 0.79215625 54.517234 1.4699688 54.021484 2.6054688 C 53.967484 2.7304688 53.731922 3.2442031 53.294922 4.0332031 C 49.987922 4.2782031 46.897766 4.7162656 44.009766 5.3222656 C 43.871766 4.7342656 43.563172 4.179 43.076172 3.75 C 41.835172 2.659 39.93975 2.779625 38.84375 4.015625 C 38.78175 4.085625 32.490016 11.056453 21.666016 12.564453 C 20.025016 12.792453 18.878422 14.308219 19.107422 15.949219 C 19.192422 16.561219 19.463703 17.099344 19.845703 17.527344 C 16.388703 20.830344 13.637031 24.523859 11.457031 28.380859 C 10.804031 28.460859 10.158281 28.545328 9.4882812 28.611328 C 7.8392812 28.774328 6.6358281 30.243578 6.7988281 31.892578 C 6.9078281 33.003578 7.6134531 33.902125 8.5644531 34.328125 C 7.8464531 36.057125 7.2245469 37.795484 6.6855469 39.521484 C 6.3585469 39.535484 6.0380313 39.552453 5.7070312 39.564453 C 4.0520312 39.622453 2.7564531 41.010969 2.8144531 42.667969 C 2.8634531 44.045969 3.8381875 45.166656 5.1171875 45.472656 C 4.5891875 47.916656 4.2113594 50.284484 3.9433594 52.521484 C 3.7153594 52.543484 3.4955781 52.570797 3.2675781 52.591797 C 1.6185781 52.752797 0.41226563 54.218187 0.57226562 55.867188 C 0.71926563 57.380188 1.9663594 58.511406 3.4433594 58.566406 C 3.3583594 60.459406 3.3479531 62.158234 3.3769531 63.615234 C 1.7429531 63.683234 0.459002 65.0465 0.5 66.6875 C 0.544 68.3435 1.899125 69.641375 3.578125 69.609375 C 3.676125 69.606375 3.7711406 69.600656 3.8691406 69.597656 C 5.3491406 77.450656 10.110172 77.348391 11.076172 69.275391 C 46.506172 67.037391 66.443984 55.878125 77.083984 46.578125 C 81.876984 42.390125 85.254422 38.223625 87.607422 34.640625 C 89.339422 44.517625 94.270266 58.576094 108.07227 67.246094 C 108.41427 76.853094 113.38303 77.975812 115.20703 70.632812 L 115.21094 70.632812 C 116.36894 70.632812 117.47089 69.957125 117.96289 68.828125 C 118.62489 67.309125 117.93011 65.542859 116.41211 64.880859 C 116.23511 64.802859 116.07244 64.716672 115.89844 64.638672 C 115.98544 62.050672 115.95664 58.479469 115.55664 54.355469 C 116.22064 54.278469 116.86519 53.995516 117.36719 53.478516 C 118.52019 52.288516 118.48978 50.389328 117.30078 49.236328 C 116.19378 48.163328 115.18848 47.045344 114.27148 45.902344 C 112.79448 38.861344 110.09606 31.179219 105.28906 24.324219 C 104.91906 21.759219 104.89553 20.122875 104.89453 20.046875 C 104.89253 18.390875 103.55053 17.048828 101.89453 17.048828 C 101.09153 17.048828 100.36417 17.369766 99.826172 17.884766 C 96.165172 14.305766 91.689516 11.174344 86.228516 8.7773438 C 86.310516 8.2233437 86.336797 7.8903594 86.341797 7.8183594 C 86.451797 6.1653594 85.201828 4.735 83.548828 4.625 C 82.153828 4.525 80.938625 5.3992031 80.515625 6.6582031 C 78.185625 5.9432031 75.700594 5.3525313 73.058594 4.8945312 C 73.285594 3.4185313 72.393875 1.9765469 70.921875 1.5605469 C 69.329875 1.1125469 67.673703 2.0399063 67.220703 3.6289062 C 67.198703 3.7029062 67.148359 3.8693281 67.068359 4.1113281 C 64.747359 3.9073281 62.317437 3.799875 59.773438 3.796875 C 59.772437 2.637875 59.094891 1.536875 57.962891 1.046875 C 57.584141 0.882875 57.189719 0.80365625 56.800781 0.80078125 z M 80.498047 25.628906 C 80.827984 25.637266 81.161375 25.697453 81.484375 25.814453 C 81.504375 25.821453 81.522969 25.828938 81.542969 25.835938 C 83.435969 26.523938 84.19 28.777328 83.125 30.486328 C 80.985 33.918328 77.704484 38.132 72.771484 42.375 C 55.824484 56.951 31.290937 61.896188 11.335938 63.242188 C 11.433937 61.545187 11.62675 59.640516 11.96875 57.603516 C 40.51375 53.740516 61.561687 44.762938 74.554688 30.835938 C 75.803687 29.496938 76.917062 28.171141 77.914062 26.869141 C 78.541063 26.050891 79.508234 25.603828 80.498047 25.628906 z M 95.9375 35.1875 C 96.282344 35.232828 96.622703 35.392812 96.908203 35.695312 C 103.9742 43.179312 106.68028 52.4265 107.61328 59.5625 C 99.596281 53.0715 95.853 44.376062 94.125 37.164062 C 93.834 35.951313 94.902969 35.051516 95.9375 35.1875 z M 3.6953125 102.5957 L 3.6953125 172.28906 C 12.246313 168.70706 21.635328 166.72852 31.486328 166.72852 L 35.486328 166.72852 L 35.486328 148.33984 C 17.955328 140.01184 5.4383125 122.8437 3.6953125 102.5957 z M 115.2793 102.5957 C 113.5363 122.8427 101.01828 140.00989 83.488281 148.33789 L 83.486328 166.72852 L 87.486328 166.72852 C 97.366328 166.72852 106.78056 168.72227 115.35156 172.32227 L 115.35156 102.5957 L 115.2793 102.5957 z " transform="translate(73.5,32.2)" fill="#F59797" />
      <path d="m 82.6562,202.4792 c 1.964,-0.641 3.965,-1.196 6,-1.668 v -36.673 c -2.309,-2.987 -4.326,-6.212 -6,-9.635 z" id="twist_long_hair_2_Fill-8" fill-opacity="0.24" fill="#000000" />
      <path d="m 105.7026,198.9284 h 3.285 v -18.389 c -1.116,-0.53 -2.211,-1.097 -3.285,-1.697 z" id="twist_long_hair_2_Fill-10" fill-opacity="0.24" fill="#000000" />
      <path d="m 100.1796,175.3093 c -2.115,-1.531 -4.122,-3.203 -6,-5.008 v 29.435 c 1.973,-0.297 3.978,-0.496 6,-0.63 z" id="twist_long_hair_2_Fill-12" fill-opacity="0.24" fill="#000000" />
      <path d="m 159.853,179.069 c -0.939,0.516 -1.894,1.009 -2.865,1.47 l -0.001,18.389 h 2.866 z" id="twist_long_hair_2_Fill-14" fill-opacity="0.24" fill="#000000" />
      <path d="m 171.3764,199.6852 v -28.994 c -1.882,1.772 -3.887,3.416 -6,4.917 v 23.467 c 2.023,0.122 4.025,0.324 6,0.61" id="twist_long_hair_2_Fill-16" fill-opacity="0.24" fill="#000000" />
      <path d="m 182.8998,155.3307 c -1.693,3.32 -3.705,6.448 -6,9.345 v 36.042 c 2.033,0.459 4.036,0.996 6,1.624 z" id="twist_long_hair_2_Fill-18" fill-opacity="0.24" fill="#000000" />
      <path d="m 108.9872,191.6843 v -11.145 c -17.531,-8.328 -30.048,-25.496 -31.791,-45.744 v 39.588 c 7.804,7.823 18.857,13.919 31.791,17.301" id="twist_long_hair_2_Fill-20" fill-opacity="0.24" fill="#000000" />
      <path d="m 188.851,173.3151 v -38.52 h -0.072 c -1.743,20.248 -14.261,37.416 -31.791,45.744 v 10.876 c 13.094,-3.589 24.207,-9.963 31.863,-18.1" id="twist_long_hair_2_Fill-22" fill-opacity="0.24" fill="#000000" />
      <path d="m 189.9112,97.0805 c -25.209,-10.982 -23.775,-39.972 -23.702,-41.196 0.097,-1.544 -0.998,-2.902 -2.526,-3.144 -1.532,-0.246 -2.992,0.722 -3.376,2.22 -0.026,0.097 -2.63,9.807 -14.035,19.615 -19.268,16.573 -48.347,20.695 -69.349,21.235 -1.657,0.042 -2.965,1.42 -2.923031,3.076 0.04403,1.656 1.398031,2.954 3.077031,2.922 40.156,-1.032 62.138,-13.093 73.506,-23.029 4.793,-4.189 8.171,-8.356 10.524,-11.938 1.96,11.181 8.015,27.727 26.408,35.74 0.39,0.17 0.796,0.25 1.196,0.25 1.158,0 2.261,-0.673 2.752,-1.802 0.662,-1.519 -0.033,-3.287 -1.552,-3.949" id="twist_long_hair_2_path26" fill-opacity="0.24" fill="#000000" />
      <path d="m 77.0547,90.7773 c 0.097,0 0.195,-0.004 0.293,-0.014 32.718,-3.178 56.507,-12.507 70.706,-27.727 10.915,-11.7 11.758,-22.562 11.788,-23.018 0.11,-1.654 -1.14,-3.083 -2.793,-3.194 -1.662,-0.118 -3.084,1.14 -3.193,2.793 -0.026,0.38 -3.389,38.016 -77.088,45.174 -1.649,0.16 -2.856,1.627 -2.695,3.276 0.15,1.55 1.456,2.71 2.982,2.71" id="twist_long_hair_2_path28" fill-opacity="0.24" fill="#000000" />
      <path d="m 79.3116,77.7626 c 0.036,0 0.072,0 0.107,-0.002 15.993,-0.564 38.427,-4.604 54.487,-20.652 9.745,-9.736 12.48,-19.259 12.592,-19.659 0.444,-1.593 -0.486,-3.24 -2.077,-3.688 -1.591,-0.449 -3.247,0.479 -3.7,2.067 -0.398,1.393 -10.337,34.131 -61.513,35.936 -1.656,0.058 -2.951,1.448 -2.892,3.104 0.057,1.62 1.388,2.894 2.996,2.894" id="twist_long_hair_2_path30" fill-opacity="0.24" fill="#000000" />
      <g filter="url(#twist_long_hair_2_hairstyletwist-long-hair-2-filter-3)" id="twist_long_hair_2_Group-12" transform="translate(74,32)">
         <g transform="translate(6,0.6103)" id="twist_long_hair_2_g34">
            <path d="m 3.2798,34.187 c 0.098,0 0.198,-0.004 0.298,-0.015 37.976,-3.744 49.005,-28.553 49.456,-29.608 0.65,-1.519 -0.054,-3.273 -1.571,-3.928 -1.515,-0.656 -3.28,0.045 -3.941,1.559 -0.403,0.922 -10.253,22.627 -44.533,26.007 -1.649,0.162 -2.854,1.631 -2.691,3.279 0.152,1.549 1.458,2.706 2.982,2.706" id="twist_long_hair_2_path32" fill="#351f0d" />
         </g>
      </g>
      <path d="m 95.5752,50.7362 c 0.138,0 0.277,-0.01 0.418,-0.029 13.121,-1.828 20.552,-10.18 20.862,-10.535 1.087,-1.245 0.96,-3.129 -0.28,-4.222 -1.241,-1.09 -3.135,-0.97 -4.231,0.265 -0.062,0.071 -6.355,7.042 -17.179,8.549 -1.641,0.229 -2.786,1.744 -2.557,3.386 0.209,1.5 1.494,2.586 2.967,2.586" id="twist_long_hair_2_Fill-13" fill-opacity="0.24" fill="#000000" />
      <path d="m 188.7129,86.5898 c 0.783,0 1.565,-0.305 2.154,-0.912 1.154,-1.19 1.123,-3.089 -0.066,-4.242 -12.174,-11.801 -12.404,-28.94 -12.406,-29.19 -0.002,-1.656 -1.345,-2.996 -3,-2.996 -1.658,0 -3,1.343 -3,3 0,0.804 0.162,19.857 14.23,33.494 0.583,0.565 1.336,0.846 2.088,0.846" id="twist_long_hair_2_Fill-15" fill-opacity="0.24" fill="#000000" />
      <g id="twist_long_hair_2_Facial-Hair" transform="translate(49.000000, 72.000000)"><defs>
        <path d="M105.612044,67.1316942 C111.386129,69.3374281 116.495271,75.5829845 125.36175,72.8283797 C125.730639,72.7136458 126.091098,73.0449523 125.980498,73.408662 C124.607113,77.9183313 116.972736,81.0068878 114.378714,81.1080652 C103.039714,81.5495987 93.9060174,72.8306951 84.0009784,72.1615262 C74.0951698,72.8301081 64.9612417,81.5496135 53.6221945,81.1080652 C51.0278347,81.0068878 43.3937943,77.9183313 42.0204089,73.408662 C41.9094725,73.0449523 42.2699314,72.7136458 42.6388201,72.8283797 C51.5052994,75.5829845 56.6144416,69.3374281 62.3885276,67.1316942 C67.5783507,65.1488567 77.2089224,65.7112779 84.0008729,69.2973744 C90.7925576,65.7112249 100.422466,65.1489502 105.612044,67.1316942 Z" id="moustache_fancy_path-1" />
    </defs>
    <g id="moustache_fancy_Facial-Hair/Moustache-Fancy" stroke="none" stroke-width="1" fill="none" fill-rule="evenodd">
        <mask id="moustache_fancy_mask-2" fill="white">
            <use xlink:href="#moustache_fancy_path-1" />
        </mask>
        <use id="moustache_fancy_Moustache-U-a-Question" fill="#28354B" xlink:href="#moustache_fancy_path-1" />
        <g id="moustache_fancy_Facial-Hair-Color" mask="url(#moustache_fancy_mask-2)" fill="#B58143">
            <rect id="moustache_fancy_Color" x="0" y="0" width="168" height="152" />
        </g>
    </g>
</g>
      <g id="twist_long_hair_2_Accessory" transform="translate(62.000000, 85.000000)" />
   </g>
</g>
    </g>
</svg>