<svg xmlns="http://www.w3.org/2000/svg" xmlns:ns2="http://design.blush" xmlns:xlink="http://www.w3.org/1999/xlink" width="264px" height="280px" viewBox="0 0 264 280" version="1.1">
    <title id="transparent_Title">Avataaar/Default</title>
    <desc>Created with python_avatars</desc>
    <defs>
        <path d="M100,0 C130.927946,-5.68137151e-15 156,25.072054 156,56 L156.000809,62.1660527 C161.675838,63.1185422 166,68.05429 166,74 L166,88 C166,94.0524166 161.519235,99.0582945 155.693975,99.8813638 C153.627928,119.686472 141.237929,136.421678 124.001014,144.610469 L124,163 L128,163 C167.764502,163 200,195.235498 200,235 L200,244 L0,244 L0,235 C-4.86974701e-15,195.235498 32.235498,163 72,163 L76,163 L75.9999836,144.610943 C58.7625487,136.422324 46.3721119,119.686854 44.3051107,99.8809698 C38.480765,99.0582945 34,94.0524166 34,88 L34,74 C34,68.053942 38.3246685,63.1179645 44.0001873,62.1658855 L44,56 C44,25.072054 69.072054,5.68137151e-15 100,0 Z" id="transparent_path-1" />
        <path d="M83,36.3476251 C83,52.6289957 105.161905,65.8276544 132.5,65.8276544 C159.838095,65.8276544 182,52.6289957 182,36.3476251 C182,34.9853134 181.844841,33.6445843 181.544472,32.3313638 C210.784239,41.4879251 232,68.792221 232,101.051724 L232,110 L32,110 L32,101.051724 C32,68.3970853 53.7386736,40.8197864 83.5337207,32.0021267 C83.1821692,33.4207025 83,34.871494 83,36.3476251 Z" id="transparent_path-3" />
        <rect id="transparent_path-5" x="0" y="0" width="264" height="280" />
        <path d="M74,0 C114.869071,0 148,33.1309285 148,74 L148,84.1482318 L148,197.608051 C135.525121,187.236892 119.490913,181 102,181 L102,181 L98,181 L98,162.610951 C115.530782,154.282984 128.048193,137.114792 129.791419,116.867187 C135.569129,116.002364 140,111.018625 140,105 L140,105 L140,92 C140,87.3536213 137.359271,83.3240177 133.496777,81.3301515 C132.723933,81.0500337 131.951808,80.748163 131.180891,80.4262497 C130.794819,80.3202581 130.400778,80.2331546 130,80.1659169 L130,80.1659169 L130.000458,79.9172528 C117.224481,74.2339715 104.877985,63.0706967 96.1104311,47.8848473 C93.1752556,42.8009742 90.8310687,37.5951441 89.0661426,32.3970356 C80.4313947,42.9409152 67.7445474,53.6023901 52.3415164,62.4953343 C42.777598,68.0170651 33.1467898,72.2910056 24,75.2659587 L24.0003852,137.246608 C29.6019576,148.318362 38.7728825,157.277529 50,162.610951 L50,162.610951 L50,181 L46,181 C38.3273639,181 30.9350359,182.200142 24.0004995,184.422941 L24,230 C24,244.105888 13.5691766,255.775526 0,257.716445 L0,74 C0,33.1309285 33.1309285,0 74,0 Z" id="transparent_path-7" />
    </defs>
    <g id="transparent_Avataaar/Default" stroke="none" stroke-width="1" fill="none" fill-rule="evenodd">
        <g id="transparent_Body" transform="translate(32.000000, 36.000000)">
            <mask id="transparent_mask-2" fill="white">
                <use xlink:href="#transparent_path-1" />
            </mask>
            <use fill="#D0C6AC" xlink:href="#transparent_path-1" />
            <g id="transparent_Skin-Color" mask="url(#transparent_mask-2)" fill="#AE5D29">
                <g transform="translate(-32.000000, 0.000000)" id="transparent_Color">
                    <rect x="0" y="0" width="264" height="244" />
                </g>
            </g>
            <path d="M44,94 C44,124.927946 69.072054,150 100,150 C130.927946,150 156,124.927946 156,94 L156,94 L156,102 C156,132.927946 130.927946,158 100,158 C69.072054,158 44,132.927946 44,102 Z" id="transparent_Neck-Shadow" fill-opacity="0.100000001" fill="#000000" mask="url(#transparent_mask-2)" />
        </g>
        <g id="transparent_Clothing" transform="translate(0.000000, 170.000000)">
            
        <g id="jedi_robe_Clothing/Jedi robe" stroke="none" stroke-width="1" fill="none" fill-rule="evenodd">
        <g id="jedi_robe_Robe" transform="translate(31.000000, 27.500000)">
            <path d="M77.0002,1.8388 C77.0002,1.8388 100.4152,19.9298 125.0262,1.8388 L144.7322,1.8388 L146.6392,82.8388 L53.7902,82.8388 L56.4622,1.8388 L77.0002,1.8388 Z" id="jedi_robe_Fabric-Color" fill="#65C9FF" ns2:color="Top-500" />
            <path d="M144.732,1.8388 L145.05,15.3598 L82.694,82.8388 L59.513,82.8388 L134.365,1.8388 L144.732,1.8388 Z M145.3534,28.2147 L145.9284,52.6767 L118.0564,82.8387 L94.8764,82.8387 L145.3534,28.2147 Z M55.4976,31.0798 L83.4626,56.9218 L71.9076,69.4258 L54.7556,53.5748 L55.4976,31.0798 Z M68.9459,1.8391 L104.2319,34.4461 L92.6779,46.9491 L56.0899,13.1381 L56.4619,1.8391 L68.9459,1.8391 Z" id="jedi_robe_Combined-Shape" fill-opacity=".3" fill="#FFF" />
            <path d="M0.0095,72.6474 L0.0005,73.8384 L0.0005,82.8384 L68.7465,82.8384 L68.7465,0.0004 C17.4125,0.0004 0.4205,47.3044 0.0095,72.6474" id="jedi_robe_Fill-14" fill="#282828" />
            <path d="M61.0934,0.538 L61.0934,82.839 L68.7464,82.839 L68.7464,0 C66.0854,0 63.5354,0.185 61.0934,0.538" id="jedi_robe_Fill-17" fill="#070707" />
            <path d="M202.0104,72.6474 L202.0204,73.8384 L202.0204,82.8384 L133.2744,82.8374 L133.2744,0.0004 C184.6074,0.0004 201.5994,47.3044 202.0104,72.6474" id="jedi_robe_Fill-20" fill="#282828" />
            <path d="M140.8268,0.538 L140.8268,82.838 L133.2738,82.838 L133.2738,0 C135.8998,0 138.4168,0.185 140.8268,0.538" id="jedi_robe_Fill-23" fill="#070707" />
        </g>
    </g>
</g>
        <g id="transparent_Face" transform="translate(76.000000, 82.000000)" fill="#000000">
            <g id="transparent_Mouth" transform="translate(2.000000, 52.000000)">    
                
            <g id="eating_Mouth/Eating" stroke="none" stroke-width="1" fill="none" fill-rule="evenodd">
        <g id="eating_Om-Nom-Nom" opacity="0.599999964" transform="translate(28.000000, 6.000000)" fill="#000000" fill-opacity="0.599999964">
            <path d="M45.7064761,0 C42.3399588,1.95870633 40.0195381,5.49520667 40.0195381,9.67694348 C40.0195381,15.344608 45.4930527,20.2451296 51.8234083,20.2451296 C51.8823878,20.2451296 51.9412524,20.2447983 52,20.244138 C50.6423552,20.7317259 49.1600404,21 47.6077404,21 C42.2861196,21 37.787011,17.8470634 36.3137083,13.513833 C33.8402487,15.6694366 30.1376666,17.0394229 26,17.0394229 C21.8623334,17.0394229 18.1597513,15.6694366 15.6851623,13.5125989 C14.212989,17.8470634 9.71388039,21 4.39225962,21 C2.83995964,21 1.35764479,20.7317259 0,20.244138 C0.0587475828,20.2447983 0.11761218,20.2451296 0.176591694,20.2451296 C6.50694731,20.2451296 11.9804619,15.344608 11.9804619,9.67694348 C11.9804619,5.49520667 9.66004124,1.95870633 6.29352385,0 C11.7918498,0.797121661 16.0171848,4.99477485 16.1905909,10.1049337 C18.754121,11.8420922 22.2048056,12.9056086 26,12.9056086 C29.7951944,12.9056086 33.245879,11.8420922 35.8100516,10.1058522 C35.9828152,4.99477485 40.2081502,0.797121661 45.7064761,0 Z" id="eating_Delicious" />
        </g>
        <circle id="eating_Redish" fill-opacity="0.2" fill="#FF4646" cx="17" cy="15" r="9" />
        <circle id="eating_Redish" fill-opacity="0.2" fill="#FF4646" cx="91" cy="15" r="9" />
    </g>
</g>
            <g id="transparent_Nose" transform="translate(28.000000, 40.000000)" fill-opacity="0.16">
                
            <g id="small_Nose/Small" stroke="none" stroke-width="1" fill="none" fill-rule="evenodd"><path d="M20,7 C20,12.5228475 24.0470996,15 28,15 C31.9529004,15 36,12.5228475 36,7 C33.8327451,7.7317728 31.1406373,8.0976592 27.9236765,8.0976592 C24.7406373,8.0976592 22.0994118,7.7317728 20,7 Z" id="small_Nose" fill-opacity=".16" fill="#000" /></g></g>
            <g id="transparent_Eyes" transform="translate(0.000000, 8.000000)">
                
            <g id="wink_wacky_Eyes/Wink-Wacky-😜" stroke="none" stroke-width="1" fill="none" fill-rule="evenodd">
        <circle id="wink_wacky_Cornea?-I-don't-know" fill="#FFFFFF" cx="82" cy="22" r="12" />
        <circle id="wink_wacky_Eye" fill-opacity="0.699999988" fill="#000000" cx="82" cy="22" r="6" />
        <path d="M16.1601674,25.4473116 C18.006676,21.648508 22.1644225,19 26.9975803,19 C31.8136766,19 35.9591217,21.629842 37.8153518,25.4071242 C38.3667605,26.5291977 37.5821037,27.4474817 36.790607,26.7670228 C34.3395063,24.6597833 30.8587163,23.3437884 26.9975803,23.3437884 C23.2572061,23.3437884 19.8737584,24.5787519 17.4375392,26.5716412 C16.5467928,27.3002944 15.6201012,26.5583844 16.1601674,25.4473116 Z" id="wink_wacky_Winky-Doodle" fill-opacity="0.599999964" fill="#000000" />
    </g>
</g>
            <g id="transparent_Eyebrow" fill-opacity="0.599999964">
                
            <g id="default_Eyebrow/Outline/Default" stroke="none" stroke-width="1" fill="none" fill-rule="evenodd" fill-opacity="0.599999964">
        <g id="default_I-Browse" transform="translate(12.000000, 6.000000)" fill="#000000" fill-rule="nonzero">
            <path d="M3.63024536,11.1585767 C7.54515501,5.64986673 18.2779197,2.56083721 27.5230268,4.83118046 C28.5957248,5.0946055 29.6788665,4.43856013 29.9422916,3.36586212 C30.2057166,2.2931641 29.5496712,1.21002236 28.4769732,0.94659732 C17.7403633,-1.69001789 5.31209962,1.88699832 0.369754639,8.84142326 C-0.270109626,9.74178291 -0.0589363917,10.9903811 0.84142326,11.6302454 C1.74178291,12.2701096 2.9903811,12.0589364 3.63024536,11.1585767 Z" id="default_Eyebrow" />
            <path d="M61.6302454,11.1585767 C65.545155,5.64986673 76.2779197,2.56083721 85.5230268,4.83118046 C86.5957248,5.0946055 87.6788665,4.43856013 87.9422916,3.36586212 C88.2057166,2.2931641 87.5496712,1.21002236 86.4769732,0.94659732 C75.7403633,-1.69001789 63.3120996,1.88699832 58.3697546,8.84142326 C57.7298904,9.74178291 57.9410636,10.9903811 58.8414233,11.6302454 C59.7417829,12.2701096 60.9903811,12.0589364 61.6302454,11.1585767 Z" id="default_Eyebrow" transform="translate(73.000154, 6.039198) scale(-1, 1) translate(-73.000154, -6.039198) " />
        </g>
    </g>
</g>
        </g>
        <g id="transparent_Top">
            
        <defs>
        <path d="M121.317306,19.3731338 C125.499944,17.6471518 127.572378,22.5039387 131.554013,21.8844657 C134.443268,21.434843 135.223305,21.067662 137.830761,22.7115333 C140.361692,24.3070651 140.96306,23.1664535 143.828996,23.1436082 C145.853806,23.128378 147.093982,24.8202575 148.787729,24.9967295 C149.632467,25.085131 150.441078,24.2050888 151.347562,24.2603811 C154.58496,24.4567186 154.789576,28.6430444 157.361562,29.7955753 C159.711524,30.8487786 162.474332,29.3691289 164.806559,29.0953159 C170.497048,28.4275036 166.60015,33.7425217 166.760755,36.914713 C168.994451,37.4358517 171.261648,35.3509661 173.485163,35.7347015 C176.986623,36.3392753 175.664995,39.9680424 174.853429,42.4144804 C177.279589,42.3707762 183.612828,39.6776748 185.184725,43.1220237 C185.995306,44.8980006 184.106797,47.2689496 184.13767,49.0743937 C184.181023,51.615855 186.048513,53.7186196 186.709327,56.1240021 C187.601032,59.3710203 188.871834,68.0740038 186.636742,70.9565876 C185.890663,71.9188016 180.795829,69.217693 178.671174,68.0439722 C160.825581,58.1840558 157.361562,55.0486831 129.245707,55.4578453 C101.129853,55.8670074 81.8674779,69.0400225 80.7839818,70.3874406 C80.0301584,71.3248831 79.0677773,73.8279219 78.2764086,80.8005402 C77.48504,87.7731584 78.4952061,100.277789 75.6304859,100.262632 C73.1915094,100.249702 72.6608912,76.4770353 73.7137309,67.0463924 C73.8753757,65.5984852 74.4983655,63.0083957 74.0474223,61.7058802 C73.6532986,60.5682485 71.7253768,60.5705662 72.0331217,58.6750651 C72.3829065,56.5173393 74.5584694,57.5890837 75.5060085,56.5574014 C77.3005851,54.602966 74.5321945,54.1404306 74.0730403,52.4306721 C73.4880481,50.2522767 74.8534857,49.45944 76.374493,48.7719658 L77.1396512,48.4310821 C79.1060001,47.5437559 78.8504766,48.3231462 80.4463492,46.5849138 C78.3147968,45.0224912 77.543628,42.8939014 80.4624425,41.7519655 C81.7019616,41.2669159 84.9268789,41.9089031 85.8980654,41.1801698 C86.1512899,40.9901231 86.251463,39.9008308 86.4074703,39.6780059 C87.9583471,37.4593592 87.5757186,35.8532324 87.4183976,33.3624282 C87.2889936,31.3242265 87.3064008,29.4532263 89.7466834,29.2496048 C91.3750712,29.1138571 92.6993269,30.4441843 94.1582415,30.835866 C95.7767762,31.2705896 95.1688403,31.5877757 96.4369334,30.7150174 C98.6630755,29.1817309 97.1479982,26.1942888 98.913344,24.4120212 C101.335891,21.9662454 102.923881,25.5513084 104.868882,25.8218105 C109.09126,26.4101607 107.736132,22.1218586 110.235861,20.5504965 C113.223647,18.6738677 113.512672,22.8012592 115.378847,22.948264 C116.996068,23.0750722 119.907657,19.9545311 121.317306,19.3731338 Z M179.001547,71.3348066 C179.846064,70.2980597 180.666198,70.8995898 181.697184,71.3146953 C182.8124,71.7641482 185.6344,73.8180261 185.831676,73.928751 C187.588868,74.9173665 188.980206,84.8279256 189.047535,88.6176558 C189.08965,90.9562115 189.127358,99.8740101 186.654049,99.1031293 C185.901013,98.868423 184.751682,94.1472484 184.58821,91.3840965 C184.424737,88.6209446 182.855069,79.2200034 180.446757,74.8947261 C179.896491,73.9063366 178.320781,72.1708928 179.001547,71.3348066 Z" id="short_dreads_1_path-1" />
    </defs>
    <g id="short_dreads_1_Top/Short-Hair/Dreads-01" stroke="none" stroke-width="1" fill="none" fill-rule="evenodd">
        <g id="short_dreads_1_Facial-Hair" transform="translate(49.000000, 72.000000)" />
        <g id="short_dreads_1_Hair" transform="translate(1.000000, 0.000000)">
            <mask id="short_dreads_1_mask-2" fill="white">
                <use xlink:href="#short_dreads_1_path-1" />
            </mask>
            <use id="short_dreads_1_Dreads-With-Cut" fill="#2E3257" xlink:href="#short_dreads_1_path-1" />
            <g id="short_dreads_1_Hair-Color" mask="url(#short_dreads_1_mask-2)" fill="#4A312C">
                <rect id="short_dreads_1_Color" x="0" y="0" width="264" height="280" />
            </g>
        </g>
        <g id="short_dreads_1_Accessory" transform="translate(62.000000, 85.000000)" />
    </g>
</g>
    </g>
</svg>