<svg xmlns="http://www.w3.org/2000/svg" xmlns:xlink="http://www.w3.org/1999/xlink" width="264px" height="280px" viewBox="0 0 264 280" version="1.1">
    <title id="transparent_Title">Avataaar/Default</title>
    <desc>Created with python_avatars</desc>
    <defs>
        <path d="M100,0 C130.927946,-5.68137151e-15 156,25.072054 156,56 L156.000809,62.1660527 C161.675838,63.1185422 166,68.05429 166,74 L166,88 C166,94.0524166 161.519235,99.0582945 155.693975,99.8813638 C153.627928,119.686472 141.237929,136.421678 124.001014,144.610469 L124,163 L128,163 C167.764502,163 200,195.235498 200,235 L200,244 L0,244 L0,235 C-4.86974701e-15,195.235498 32.235498,163 72,163 L76,163 L75.9999836,144.610943 C58.7625487,136.422324 46.3721119,119.686854 44.3051107,99.8809698 C38.480765,99.0582945 34,94.0524166 34,88 L34,74 C34,68.053942 38.3246685,63.1179645 44.0001873,62.1658855 L44,56 C44,25.072054 69.072054,5.68137151e-15 100,0 Z" id="transparent_path-1" />
        <path d="M83,36.3476251 C83,52.6289957 105.161905,65.8276544 132.5,65.8276544 C159.838095,65.8276544 182,52.6289957 182,36.3476251 C182,34.9853134 181.844841,33.6445843 181.544472,32.3313638 C210.784239,41.4879251 232,68.792221 232,101.051724 L232,110 L32,110 L32,101.051724 C32,68.3970853 53.7386736,40.8197864 83.5337207,32.0021267 C83.1821692,33.4207025 83,34.871494 83,36.3476251 Z" id="transparent_path-3" />
        <rect id="transparent_path-5" x="0" y="0" width="264" height="280" />
        <path d="M74,0 C114.869071,0 148,33.1309285 148,74 L148,84.1482318 L148,197.608051 C135.525121,187.236892 119.490913,181 102,181 L102,181 L98,181 L98,162.610951 C115.530782,154.282984 128.048193,137.114792 129.791419,116.867187 C135.569129,116.002364 140,111.018625 140,105 L140,105 L140,92 C140,87.3536213 137.359271,83.3240177 133.496777,81.3301515 C132.723933,81.0500337 131.951808,80.748163 131.180891,80.4262497 C130.794819,80.3202581 130.400778,80.2331546 130,80.1659169 L130,80.1659169 L130.000458,79.9172528 C117.224481,74.2339715 104.877985,63.0706967 96.1104311,47.8848473 C93.1752556,42.8009742 90.8310687,37.5951441 89.0661426,32.3970356 C80.4313947,42.9409152 67.7445474,53.6023901 52.3415164,62.4953343 C42.777598,68.0170651 33.1467898,72.2910056 24,75.2659587 L24.0003852,137.246608 C29.6019576,148.318362 38.7728825,157.277529 50,162.610951 L50,162.610951 L50,181 L46,181 C38.3273639,181 30.9350359,182.200142 24.0004995,184.422941 L24,230 C24,244.105888 13.5691766,255.775526 0,257.716445 L0,74 C0,33.1309285 33.1309285,0 74,0 Z" id="transparent_path-7" />
    </defs>
    <g id="transparent_Avataaar/Default" stroke="none" stroke-width="1" fill="none" fill-rule="evenodd">
        <g id="transparent_Body" transform="translate(32.000000, 36.000000)">
            <mask id="transparent_mask-2" fill="white">
                <use xlink:href="#transparent_path-1" />
            </mask>
            <use fill="#D0C6AC" xlink:href="#transparent_path-1" />
            <g id="transparent_Skin-Color" mask="url(#transparent_mask-2)" fill="#AE5D29">
                <g transform="translate(-32.000000, 0.000000)" id="transparent_Color">
                    <rect x="0" y="0" width="264" height="244" />
                </g>
            </g>
            <path d="M44,94 C44,124.927946 69.072054,150 100,150 C130.927946,150 156,124.927946 156,94 L156,94 L156,102 C156,132.927946 130.927946,158 100,158 C69.072054,158 44,132.927946 44,102 Z" id="transparent_Neck-Shadow" fill-opacity="0.100000001" fill="#000000" mask="url(#transparent_mask-2)" />
        </g>
        <g id="transparent_Clothing" transform="translate(0.000000, 170.000000)">
            
        <defs>
        <path d="M67,1.34762511 C67,13.2107177 81.9984609,22.8276544 100.5,22.8276544 C119.001539,22.8276544 134,13.2107177 134,1.34762511 C134,0.994756918 133.98673,0.64387605 133.960492,0.295176488 C170.936371,3.3248899 200,34.2942196 200,72.0517235 L200,81 L0,81 L0,72.0517235 C-4.66584974e-15,33.952169 29.5925972,2.76433598 67.0465686,0.219447423 C67.0151943,0.594730017 67,0.970039821 67,1.34762511 Z" id="blazer_shirt_path-1" />
    </defs>
    <g id="blazer_shirt_Clothing/Blazer-+-Shirt" stroke="none" stroke-width="1" fill="none" fill-rule="evenodd">
        <g id="blazer_shirt_Shirt" transform="translate(32.000000, 29.000000)">
            <mask id="blazer_shirt_mask-2" fill="white">
                <use xlink:href="#blazer_shirt_path-1" />
            </mask>
            <use id="blazer_shirt_Clothes" fill="#E6E6E6" xlink:href="#blazer_shirt_path-1" />
            <g id="blazer_shirt_Fabric-Color" mask="url(#blazer_shirt_mask-2)" fill="#FFDEB5">
                <g transform="translate(-32.000000, -29.000000)" id="blazer_shirt_ðŸ–Color">
                    <rect x="0" y="0" width="264" height="110" />
                </g>
            </g>
            <g id="blazer_shirt_Shadowy" opacity="0.599999964" mask="url(#blazer_shirt_mask-2)" fill="#000000" fill-opacity="0.16">
                <g transform="translate(60.000000, -25.000000)" id="blazer_shirt_Hola-ðŸ‘‹ðŸ¼">
                    <ellipse cx="40.5" cy="27.8476251" rx="39.6351047" ry="26.9138272" />
                </g>
            </g>
        </g>
        <g id="blazer_shirt_Blazer" transform="translate(32.000000, 28.000000)">
            <path d="M64,40.5 C64,55.7092257 65.9608691,69.9209213 69.3620096,82.0011822 L0,82 L0,73.0517235 C-4.73779789e-15,34.3646678 30.512279,2.80413671 68.7847355,1.12223161 C65.7400343,12.7307619 64,26.1727873 64,40.5 Z M200,73.0517235 L200,82 L131.63799,82.0011822 C135.039131,69.9209213 137,55.7092257 137,40.5 C137,26.194165 135.265154,12.7708778 132.228695,1.1737534 C170.025091,3.36299447 200,34.7068514 200,73.0517235 Z" id="blazer_shirt_Saco" fill="#3A4C5A" />
            <path d="M149,58 L158.555853,50.83311 C159.998897,49.7508275 161.987779,49.7682725 163.411616,50.8757011 L170,56 L170,56 L149,58 Z" id="blazer_shirt_Pocket-hanky" fill="#E6E6E6" />
            <path d="M69,0 C65,19.3333333 66.6666667,46.6666667 74,82 L58,82 L44,46 L50,37 L44,31 L63,1 C65.027659,0.369238637 67.027659,0.0359053037 69,0 Z" id="blazer_shirt_Wing" fill="#2F4351" />
            <path d="M151,0 C147,19.3333333 148.666667,46.6666667 156,82 L140,82 L126,46 L132,37 L126,31 L145,1 C147.027659,0.369238637 149.027659,0.0359053037 151,0 Z" id="blazer_shirt_Wing" fill="#2F4351" transform="translate(141.000000, 41.000000) scale(-1, 1) translate(-141.000000, -41.000000) " />
        </g>
    </g>
</g>
        <g id="transparent_Face" transform="translate(76.000000, 82.000000)" fill="#000000">
            <g id="transparent_Mouth" transform="translate(2.000000, 52.000000)">    
                
            <g id="big_smile_Mouth/Big Smile" stroke="none" stroke-width="1" fill="none" fill-rule="evenodd"><path d="M29,15.6086957 C30.410031,25.2313711 38.062182,35 54,35 C69.937818,35 77.6461342,25.183301 79,14.7391304 C79.1012093,14.3397326 78.775269,13 76.826087,13 C56.838426,13 41.7395748,13 31.173913,13 C29.3833142,13 28.870211,14.2404669 29,15.6086957 Z" id="big_smile_Mouth" fill-opacity=".7" fill="#000" /><path d="M70,13 C70,15.7614237 67.7614237,18 65,18 L44,18 C41.2385763,18 39,15.7614237 39,13 L70,13 Z" id="big_smile_Path" fill="#FFF" /></g></g>
            <g id="transparent_Nose" transform="translate(28.000000, 40.000000)" fill-opacity="0.16">
                
            <g id="default_Nose/Default" stroke="none" stroke-width="1" fill="none" fill-rule="evenodd" fill-opacity="0.16">
        <path d="M16,8 C16,12.418278 21.372583,16 28,16 L28,16 C34.627417,16 40,12.418278 40,8" id="default_Nose" fill="#000000" />
    </g>
</g>
            <g id="transparent_Eyes" transform="translate(0.000000, 8.000000)">
                
            <defs>
        <path d="M14,14.0481187 C23.6099827,14.0481187 28,18.4994466 28,11.5617716 C28,4.62409673 21.7319865,0 14,0 C6.2680135,0 0,4.62409673 0,11.5617716 C0,18.4994466 4.39001726,14.0481187 14,14.0481187 Z" id="squint_path-1" />
        <path d="M14,14.0481187 C23.6099827,14.0481187 28,18.4994466 28,11.5617716 C28,4.62409673 21.7319865,0 14,0 C6.2680135,0 0,4.62409673 0,11.5617716 C0,18.4994466 4.39001726,14.0481187 14,14.0481187 Z" id="squint_path-3" />
    </defs>
    <g id="squint_Eyes/Squint-ðŸ˜Š" stroke="none" stroke-width="1" fill="none" fill-rule="evenodd">
        <g id="squint_Eye" transform="translate(16.000000, 13.000000)">
            <mask id="squint_mask-2" fill="white">
                <use xlink:href="#squint_path-1" />
            </mask>
            <use id="squint_The-white-stuff" fill="#FFFFFF" xlink:href="#squint_path-1" />
            <circle fill-opacity="0.699999988" fill="#000000" mask="url(#squint_mask-2)" cx="14" cy="10" r="6" />
        </g>
        <g id="squint_Eye" transform="translate(68.000000, 13.000000)">
            <mask id="squint_mask-4" fill="white">
                <use xlink:href="#squint_path-3" />
            </mask>
            <use id="squint_Eyeball-Mask" fill="#FFFFFF" xlink:href="#squint_path-3" />
            <circle fill-opacity="0.699999988" fill="#000000" mask="url(#squint_mask-4)" cx="14" cy="10" r="6" />
        </g>
    </g>
</g>
            <g id="transparent_Eyebrow" fill-opacity="0.599999964">
                
            <g id="flat_natural_Eyebrow/Natural/Flat-Natural" stroke="none" stroke-width="1" fill="none" fill-rule="evenodd" fill-opacity="0.599999964">
        <path d="M38.5686071,10.7022978 C33.5865557,11.2384494 28.6553385,11.1338998 23.6562444,11.1010606 C19.8231061,11.0762636 15.91974,10.6892291 12.3246118,12.5091287 C11.6361455,12.8572921 7.8767609,14.9449324 8.00311195,16.0108688 C8.10389896,16.8633498 12.0128479,18.0636592 12.7165939,18.2838164 C16.4280826,19.4452548 19.9241869,18.9282036 23.6870976,18.5703225 C28.3024371,18.1316834 32.9139567,18.1745756 37.5322346,17.8739956 C40.6422336,17.6719334 45.4224171,16.9769469 46.8293214,13.1484895 C47.2530382,11.9954284 46.8152171,9.73353891 46.3074622,8.50642195 C46.1050066,8.01751871 45.5634602,7.84963624 45.1688335,8.14921095 C43.7560524,9.22218432 40.9851444,10.4425994 38.5686071,10.7022978" id="flat_natural_Fill-10" fill="#000000" transform="translate(27.500000, 13.500000) rotate(2.000000) translate(-27.500000, -13.500000) " />
        <path d="M95.5686071,10.7022978 C90.5865557,11.2384494 85.6553385,11.1338998 80.6562444,11.1010606 C76.8231061,11.0762636 72.91974,10.6892291 69.3246118,12.5091287 C68.6361455,12.8572921 64.8767609,14.9449324 65.003112,16.0108688 C65.103899,16.8633498 69.0128479,18.0636592 69.7165939,18.2838164 C73.4280826,19.4452548 76.9241869,18.9282036 80.6870976,18.5703225 C85.3024371,18.1316834 89.9139567,18.1745756 94.5322346,17.8739956 C97.6422336,17.6719334 102.422417,16.9769469 103.829321,13.1484895 C104.253038,11.9954284 103.815217,9.73353891 103.307462,8.50642195 C103.105007,8.01751871 102.56346,7.84963624 102.168833,8.14921095 C100.756052,9.22218432 97.9851444,10.4425994 95.5686071,10.7022978" id="flat_natural_Fill-10" fill="#000000" transform="translate(84.500000, 13.500000) scale(-1, 1) rotate(2.000000) translate(-84.500000, -13.500000) " />
    </g>
</g>
        </g>
        <g id="transparent_Top">
            
        <defs>
        <path d="M1,64 C1.34685629,65.488448 2.67275588,65.2226722 3,64 C2.53726005,62.445722 6.29594493,35.2480719 16,28 C19.618222,25.4833872 39.0082164,23.2319099 58.3126144,23.245568 C77.4086061,23.2590787 96.4208396,25.5105561 100,28 C109.704055,35.2480719 113.46274,62.445722 113,64 C113.327244,65.2226722 114.653144,65.488448 115,64 C115.719178,53.7019177 115,0.274362825 58,1 C1,1.72563718 0.280821545,53.7019177 1,64 Z" id="caesar_path-1" />
    </defs>
    <g id="caesar_Top/Short-Hair/The-Caesar" stroke="none" stroke-width="1" fill="none" fill-rule="evenodd">
        <g id="caesar_Facial-Hair" transform="translate(49.000000, 72.000000)"><defs>
        <path d="M84.5044337,93.8410391 C72.9930718,94.2191416 67.8580835,99.7213834 63.9909333,94.1296214 C61.0884259,89.9323547 62.3028943,82.8739117 65.014944,78.9027173 C68.8738581,73.2512381 74.1088724,75.9847769 79.9622738,75.3400279 C81.5538829,75.1648137 83.1526985,74.7228407 84.5044337,74 C85.856169,74.7228407 87.4546414,75.1648137 89.0462504,75.3400279 C94.899995,75.9847769 100.134666,73.2512381 103.993923,78.9027173 C106.70563,82.8739117 107.920098,89.9323547 105.017591,94.1296214 C101.150441,99.7213834 96.0157956,93.4629366 84.5044337,93.8410391 Z M140.39109,26 C136.966521,40.0748212 135.393023,54.4337754 132.909944,68.6711471 C132.392536,71.6390145 131.826063,74.5963095 131.224594,77.5496398 C131.098329,78.1697764 130.973781,80.4725746 130.362704,80.7643064 C128.511632,81.6484223 124.739149,76.9466834 123.730409,75.8851496 C121.196893,73.219256 118.684993,70.5292442 115.599415,68.437233 C109.364783,64.2102603 102.065485,61.7108818 94.4700836,61.117837 C91.2922091,60.8693859 86.9951134,61.3025234 84.000116,63.1104016 C81.0051185,61.3025234 76.7080229,60.8693859 73.5298053,61.117837 C65.9344039,61.7108818 58.6351055,64.2102603 52.4004739,68.437233 C49.3148957,70.5292442 46.8033387,73.219256 44.2694796,75.8851496 C43.2607395,76.9466834 39.4882573,81.6484223 37.6371849,80.7643064 C37.0261079,80.4725746 36.9015594,78.1697764 36.7752954,77.5496398 C36.1738255,74.5963095 35.6073527,71.6390145 35.0899445,68.6711471 C32.6072086,54.4337754 31.0337113,40.0748212 27.6091415,26 C26.6127533,26 25.7385119,44.7478165 25.6273446,46.4945731 C25.174784,53.5889755 24.6463963,60.5254529 25.3216346,67.6261326 C26.485803,79.8749043 27.6993791,95.2339402 37.032627,104.58753 C45.4659003,113.039493 57.7103052,114.806417 68.2713185,120.141327 C69.631059,120.828202 71.4347824,121.676306 73.3798667,122.37111 C75.4289129,123.934171 79.4926946,125 84.1740722,125 C89.0846465,125 93.3155222,123.827456 95.2540874,122.137856 C96.9548781,121.49261 98.5180822,120.752874 99.7285704,120.141327 C110.288776,114.805245 122.533989,113.039493 130.967262,104.58753 C140.30051,95.2339402 141.514086,79.8749043 142.678597,67.6261326 C143.353493,60.5254529 142.825105,53.5889755 142.372887,46.4945731 C142.261377,44.7478165 141.387136,26 140.39109,26 Z" id="beard_medium_path-1" />
    </defs>
    <g id="beard_medium_Facial-Hair/Beard-Medium" stroke="none" stroke-width="1" fill="none" fill-rule="evenodd">
        <mask id="beard_medium_mask-2" fill="white">
            <use xlink:href="#beard_medium_path-1" />
        </mask>
        <use id="beard_medium_Beardness" fill="#252E32" xlink:href="#beard_medium_path-1" />
        <g id="beard_medium_Facial-Hair-Color" mask="url(#beard_medium_mask-2)" fill="#2C1B18">
            <rect id="beard_medium_Color" x="0" y="0" width="168" height="152" />
        </g>
    </g>
</g>
        <g id="caesar_Hair" transform="translate(75.000000, 34.000000)">
            <mask id="caesar_mask-2" fill="white">
                <use xlink:href="#caesar_path-1" />
            </mask>
            <use id="caesar_Caesar" fill="#28354B" xlink:href="#caesar_path-1" />
            <g id="caesar_Hair-Color" mask="url(#caesar_mask-2)" fill="#4A312C">
                <g transform="translate(-74.000000, -34.000000)" id="caesar_Color">
                    <rect x="0" y="0" width="264" height="280" />
                </g>
            </g>
        </g>
        <g id="caesar_Accessory" transform="translate(62.000000, 85.000000)" />
    </g>
</g>
    </g>
</svg>