<svg xmlns="http://www.w3.org/2000/svg" xmlns:ns2="http://design.blush" xmlns:xlink="http://www.w3.org/1999/xlink" width="264px" height="280px" viewBox="0 0 264 280" version="1.1">
    <title id="transparent_Title">Avataaar/Default</title>
    <desc>Created with python_avatars</desc>
    <defs>
        <path d="M100,0 C130.927946,-5.68137151e-15 156,25.072054 156,56 L156.000809,62.1660527 C161.675838,63.1185422 166,68.05429 166,74 L166,88 C166,94.0524166 161.519235,99.0582945 155.693975,99.8813638 C153.627928,119.686472 141.237929,136.421678 124.001014,144.610469 L124,163 L128,163 C167.764502,163 200,195.235498 200,235 L200,244 L0,244 L0,235 C-4.86974701e-15,195.235498 32.235498,163 72,163 L76,163 L75.9999836,144.610943 C58.7625487,136.422324 46.3721119,119.686854 44.3051107,99.8809698 C38.480765,99.0582945 34,94.0524166 34,88 L34,74 C34,68.053942 38.3246685,63.1179645 44.0001873,62.1658855 L44,56 C44,25.072054 69.072054,5.68137151e-15 100,0 Z" id="transparent_path-1" />
        <path d="M83,36.3476251 C83,52.6289957 105.161905,65.8276544 132.5,65.8276544 C159.838095,65.8276544 182,52.6289957 182,36.3476251 C182,34.9853134 181.844841,33.6445843 181.544472,32.3313638 C210.784239,41.4879251 232,68.792221 232,101.051724 L232,110 L32,110 L32,101.051724 C32,68.3970853 53.7386736,40.8197864 83.5337207,32.0021267 C83.1821692,33.4207025 83,34.871494 83,36.3476251 Z" id="transparent_path-3" />
        <rect id="transparent_path-5" x="0" y="0" width="264" height="280" />
        <path d="M74,0 C114.869071,0 148,33.1309285 148,74 L148,84.1482318 L148,197.608051 C135.525121,187.236892 119.490913,181 102,181 L102,181 L98,181 L98,162.610951 C115.530782,154.282984 128.048193,137.114792 129.791419,116.867187 C135.569129,116.002364 140,111.018625 140,105 L140,105 L140,92 C140,87.3536213 137.359271,83.3240177 133.496777,81.3301515 C132.723933,81.0500337 131.951808,80.748163 131.180891,80.4262497 C130.794819,80.3202581 130.400778,80.2331546 130,80.1659169 L130,80.1659169 L130.000458,79.9172528 C117.224481,74.2339715 104.877985,63.0706967 96.1104311,47.8848473 C93.1752556,42.8009742 90.8310687,37.5951441 89.0661426,32.3970356 C80.4313947,42.9409152 67.7445474,53.6023901 52.3415164,62.4953343 C42.777598,68.0170651 33.1467898,72.2910056 24,75.2659587 L24.0003852,137.246608 C29.6019576,148.318362 38.7728825,157.277529 50,162.610951 L50,162.610951 L50,181 L46,181 C38.3273639,181 30.9350359,182.200142 24.0004995,184.422941 L24,230 C24,244.105888 13.5691766,255.775526 0,257.716445 L0,74 C0,33.1309285 33.1309285,0 74,0 Z" id="transparent_path-7" />
    </defs>
    <g id="transparent_Avataaar/Default" stroke="none" stroke-width="1" fill="none" fill-rule="evenodd">
        <g id="transparent_Body" transform="translate(32.000000, 36.000000)">
            <mask id="transparent_mask-2" fill="white">
                <use xlink:href="#transparent_path-1" />
            </mask>
            <use fill="#D0C6AC" xlink:href="#transparent_path-1" />
            <g id="transparent_Skin-Color" mask="url(#transparent_mask-2)" fill="#EDB98A">
                <g transform="translate(-32.000000, 0.000000)" id="transparent_Color">
                    <rect x="0" y="0" width="264" height="244" />
                </g>
            </g>
            <path d="M44,94 C44,124.927946 69.072054,150 100,150 C130.927946,150 156,124.927946 156,94 L156,94 L156,102 C156,132.927946 130.927946,158 100,158 C69.072054,158 44,132.927946 44,102 Z" id="transparent_Neck-Shadow" fill-opacity="0.100000001" fill="#000000" mask="url(#transparent_mask-2)" />
        </g>
        <g id="transparent_Clothing" transform="translate(0.000000, 170.000000)">
            
        <defs>
        <path d="M160,29.0517235 C199.764502,29.0517235 232,61.2872215 232,101.051724 L232,110 L32,110 L32,101.051724 C32,61.2872215 64.235498,29.0517235 104,29.0517235 L105.192363,29.0520252 C105.065349,30.0355191 105,31.0365551 105,32.0517235 C105,45.8588423 117.088312,57.0517235 132,57.0517235 C146.911688,57.0517235 159,45.8588423 159,32.0517235 C159,31.0365551 158.934651,30.0355191 158.807637,29.0520252 L160,29.0517235 Z" id="collar_sweater_path-1" />
    </defs>
    <g id="collar_sweater_Clothing/Collar-+-Sweater" stroke="none" stroke-width="1" fill="none" fill-rule="evenodd">
        <mask id="collar_sweater_mask-2" fill="white">
            <use xlink:href="#collar_sweater_path-1" />
        </mask>
        <use id="collar_sweater_Clothes" fill="#E6E6E6" xlink:href="#collar_sweater_path-1" />
        <g id="collar_sweater_Fabric-Color" mask="url(#collar_sweater_mask-2)" fill="#929598">
            <rect id="collar_sweater_ðŸ–Color" x="0" y="0" width="264" height="110" />
        </g>
        <path d="M118.07795,50.9956082 L118,51.0567821 L119,54.207887 L114.421,53.8754994 L108.308702,58.6917545 C101.361717,54.0802103 97,47.4262523 97,40.027915 C97,32.7399202 101.232581,26.1742662 107.999601,21.5717708 L108,36.8768102 C108,42.7004148 111.977587,47.8531513 118.07795,50.9956082 Z M166,40.027915 C166,47.2334229 161.862687,53.7328485 155.229194,58.3270307 L149.58,53.8754994 L145,54.207887 L146,51.0567821 L146.015,51.0664994 L145.923049,50.9950934 C152.022847,47.8525885 156,42.7000968 156,36.8768102 L156.000973,22.2802074 C162.182048,26.8358435 166,33.1060895 166,40.027915 Z" id="collar_sweater_Collar" fill="#F2F2F2" />
    </g>
</g>
        <g id="transparent_Face" transform="translate(76.000000, 82.000000)" fill="#000000">
            <g id="transparent_Mouth" transform="translate(2.000000, 52.000000)">    
                
            <g id="eating_Mouth/Eating" stroke="none" stroke-width="1" fill="none" fill-rule="evenodd">
        <g id="eating_Om-Nom-Nom" opacity="0.599999964" transform="translate(28.000000, 6.000000)" fill="#000000" fill-opacity="0.599999964">
            <path d="M45.7064761,0 C42.3399588,1.95870633 40.0195381,5.49520667 40.0195381,9.67694348 C40.0195381,15.344608 45.4930527,20.2451296 51.8234083,20.2451296 C51.8823878,20.2451296 51.9412524,20.2447983 52,20.244138 C50.6423552,20.7317259 49.1600404,21 47.6077404,21 C42.2861196,21 37.787011,17.8470634 36.3137083,13.513833 C33.8402487,15.6694366 30.1376666,17.0394229 26,17.0394229 C21.8623334,17.0394229 18.1597513,15.6694366 15.6851623,13.5125989 C14.212989,17.8470634 9.71388039,21 4.39225962,21 C2.83995964,21 1.35764479,20.7317259 0,20.244138 C0.0587475828,20.2447983 0.11761218,20.2451296 0.176591694,20.2451296 C6.50694731,20.2451296 11.9804619,15.344608 11.9804619,9.67694348 C11.9804619,5.49520667 9.66004124,1.95870633 6.29352385,0 C11.7918498,0.797121661 16.0171848,4.99477485 16.1905909,10.1049337 C18.754121,11.8420922 22.2048056,12.9056086 26,12.9056086 C29.7951944,12.9056086 33.245879,11.8420922 35.8100516,10.1058522 C35.9828152,4.99477485 40.2081502,0.797121661 45.7064761,0 Z" id="eating_Delicious" />
        </g>
        <circle id="eating_Redish" fill-opacity="0.2" fill="#FF4646" cx="17" cy="15" r="9" />
        <circle id="eating_Redish" fill-opacity="0.2" fill="#FF4646" cx="91" cy="15" r="9" />
    </g>
</g>
            <g id="transparent_Nose" transform="translate(28.000000, 40.000000)" fill-opacity="0.16">
                
            <g id="wide_Nose/Wide" stroke="none" stroke-width="1" fill="none" fill-rule="evenodd"><path d="M13,6 C13,12.627417 16.8281211,18 28,18 C39.1718789,18 43,12.627417 43,6 C39.0361818,6 32.8972468,9 27.83815,9 C23.0794079,9 17.1013384,6 13,6 Z" id="wide_Nose" fill-opacity=".16" fill="#000" /></g></g>
            <g id="transparent_Eyes" transform="translate(0.000000, 8.000000)">
                
            <g id="cry_Eyes/Cry-ðŸ˜¢" stroke="none" stroke-width="1" fill="none" fill-rule="evenodd">
        <circle id="cry_Eye" fill-opacity="0.599999964" fill="#000000" cx="30" cy="22" r="6" />
        <path d="M25,27 C25,27 19,34.2706667 19,38.2706667 C19,41.5846667 21.686,44.2706667 25,44.2706667 C28.314,44.2706667 31,41.5846667 31,38.2706667 C31,34.2706667 25,27 25,27 Z" id="cry_Drop" fill="#92D9FF" fill-rule="nonzero" />
        <circle id="cry_Eye" fill-opacity="0.599999964" fill="#000000" cx="82" cy="22" r="6" />
    </g>
</g>
            <g id="transparent_Eyebrow" fill-opacity="0.599999964">
                
            <g id="flat_natural_Eyebrow/Natural/Flat-Natural" stroke="none" stroke-width="1" fill="none" fill-rule="evenodd" fill-opacity="0.599999964">
        <path d="M38.5686071,10.7022978 C33.5865557,11.2384494 28.6553385,11.1338998 23.6562444,11.1010606 C19.8231061,11.0762636 15.91974,10.6892291 12.3246118,12.5091287 C11.6361455,12.8572921 7.8767609,14.9449324 8.00311195,16.0108688 C8.10389896,16.8633498 12.0128479,18.0636592 12.7165939,18.2838164 C16.4280826,19.4452548 19.9241869,18.9282036 23.6870976,18.5703225 C28.3024371,18.1316834 32.9139567,18.1745756 37.5322346,17.8739956 C40.6422336,17.6719334 45.4224171,16.9769469 46.8293214,13.1484895 C47.2530382,11.9954284 46.8152171,9.73353891 46.3074622,8.50642195 C46.1050066,8.01751871 45.5634602,7.84963624 45.1688335,8.14921095 C43.7560524,9.22218432 40.9851444,10.4425994 38.5686071,10.7022978" id="flat_natural_Fill-10" fill="#000000" transform="translate(27.500000, 13.500000) rotate(2.000000) translate(-27.500000, -13.500000) " />
        <path d="M95.5686071,10.7022978 C90.5865557,11.2384494 85.6553385,11.1338998 80.6562444,11.1010606 C76.8231061,11.0762636 72.91974,10.6892291 69.3246118,12.5091287 C68.6361455,12.8572921 64.8767609,14.9449324 65.003112,16.0108688 C65.103899,16.8633498 69.0128479,18.0636592 69.7165939,18.2838164 C73.4280826,19.4452548 76.9241869,18.9282036 80.6870976,18.5703225 C85.3024371,18.1316834 89.9139567,18.1745756 94.5322346,17.8739956 C97.6422336,17.6719334 102.422417,16.9769469 103.829321,13.1484895 C104.253038,11.9954284 103.815217,9.73353891 103.307462,8.50642195 C103.105007,8.01751871 102.56346,7.84963624 102.168833,8.14921095 C100.756052,9.22218432 97.9851444,10.4425994 95.5686071,10.7022978" id="flat_natural_Fill-10" fill="#000000" transform="translate(84.500000, 13.500000) scale(-1, 1) rotate(2.000000) translate(-84.500000, -13.500000) " />
    </g>
</g>
        </g>
        <g id="transparent_Top">
            
        <g id="braids_Hairstyle/Braids" stroke="none" stroke-width="1" fill="none" fill-rule="evenodd">
        <g id="braids_Group-30" transform="translate(73.000000, -8.000000)">
            <path d="M107.3663,67.8552 C107.3023,67.7452 107.2353,67.6352 107.1713,67.5262 C107.2363,67.6352 107.3023,67.7452 107.3663,67.8552 M108.1303,69.2092 C108.0683,69.0962 108.0053,68.9822 107.9413,68.8692 C108.0053,68.9822 108.0683,69.0962 108.1303,69.2092 M108.6713,70.2322 C108.7293,70.3462 108.7893,70.4592 108.8463,70.5722 C108.7893,70.4592 108.7293,70.3462 108.6713,70.2322 M106.5533,66.5132 C106.4873,66.4072 106.4193,66.3022 106.3523,66.1962 C106.4203,66.3022 106.4873,66.4072 106.5533,66.5132 M124.6713,5.4912 C123.0333,4.0132 120.5113,4.1432 119.0283,5.7782 C118.7343,6.1042 118.5213,6.4692 118.3523,6.8502 C114.3033,5.3152 109.9163,4.4692 105.3293,4.4692 C105.1523,4.4692 104.9783,4.4802 104.8033,4.4822 C102.9703,2.9012 101.7383,1.9712 101.4863,1.7842 C99.7113,0.4712 97.2113,0.8452 95.8953,2.6182 C95.1723,3.5932 94.9753,4.7872 95.2263,5.8852 C92.2383,6.7372 89.4063,7.9562 86.7813,9.4922 C85.9263,8.9192 85.3683,8.5792 85.2023,8.4802 C83.3073,7.3472 80.8583,7.9632 79.7203,9.8542 C78.8153,11.3612 79.0353,13.2162 80.1123,14.4882 C77.6853,16.7752 75.5653,19.3832 73.8313,22.2522 C72.6783,21.7552 71.9273,21.5052 71.7483,21.4492 C69.6473,20.7912 67.4183,21.9532 66.7473,24.0502 C66.0763,26.1472 67.2363,28.3952 69.3303,29.0752 C69.4453,29.1132 69.8493,29.2512 70.4733,29.5102 C69.2323,33.1982 68.5503,37.1422 68.5503,41.2482 C68.5503,42.3052 68.6043,43.3492 68.6923,44.3842 C67.0303,44.1992 65.3083,44.0652 63.5283,43.9852 L63.5283,43.8872 C63.5283,41.6782 61.7373,39.8872 59.5283,39.8872 C57.3193,39.8872 55.5283,41.6782 55.5283,43.8872 L55.5283,43.9852 C52.1103,44.1402 48.9123,44.4922 45.9223,45.0212 L45.8663,44.8122 C45.3013,42.6762 43.1113,41.4052 40.9763,41.9692 C38.8403,42.5352 37.5683,44.7252 38.1333,46.8602 L38.1483,46.9162 C35.8263,47.6532 33.6503,48.5052 31.6233,49.4672 L31.4523,48.9872 C30.7113,46.9072 28.4263,45.8202 26.3423,46.5612 C24.2613,47.3022 23.1753,49.5902 23.9163,51.6712 L24.5993,53.5902 C22.3003,55.2302 20.2423,57.0252 18.4033,58.9362 C17.2673,58.2532 15.8223,58.1412 14.5503,58.7772 C12.5753,59.7682 11.7773,62.1712 12.7663,64.1462 L13.3213,65.2522 C12.1003,67.0722 11.0193,68.9442 10.0703,70.8442 C8.8193,70.1262 7.2303,70.0962 5.9303,70.9242 C4.0693,72.1132 3.5233,74.5862 4.7123,76.4482 L6.6193,79.4352 C5.7783,82.1002 5.1353,84.7382 4.6493,87.2802 C3.3373,87.0642 1.9493,87.4982 1.0043,88.5672 C-0.4597,90.2222 -0.3047,92.7502 1.3503,94.2132 L3.4793,96.0972 C3.1313,100.6572 3.2253,104.4112 3.3783,106.7012 C4.1673,118.5752 11.1253,118.4382 11.1253,106.2702 C11.1253,105.0712 11.2123,103.7552 11.3983,102.3612 C11.6523,102.4112 11.9083,102.4402 12.1653,102.4402 C13.2713,102.4402 14.3723,101.9842 15.1633,101.0902 C16.6273,99.4362 16.4713,96.9082 14.8173,95.4442 L13.5333,94.3092 C13.9713,93.2142 14.4743,92.1112 15.0593,91.0092 C15.4743,91.1492 15.9083,91.2282 16.3463,91.2282 C17.0833,91.2282 17.8293,91.0242 18.4953,90.5992 C20.3573,89.4102 20.9033,86.9372 19.7143,85.0752 L19.4483,84.6592 C20.1953,83.8042 20.9943,82.9642 21.8663,82.1482 C22.6313,83.1752 23.8283,83.7602 25.0693,83.7602 C25.6723,83.7602 26.2833,83.6232 26.8593,83.3352 C28.8333,82.3452 29.6323,79.9412 28.6423,77.9662 L28.3243,77.3322 C29.5683,76.5942 30.8993,75.9012 32.3153,75.2532 L32.4523,75.6382 C33.0353,77.2752 34.5763,78.2962 36.2203,78.2962 C36.6653,78.2962 37.1183,78.2222 37.5623,78.0632 C39.6433,77.3222 40.7293,75.0342 39.9883,72.9532 L39.8403,72.5382 C41.3613,72.1192 42.9683,71.7562 44.6433,71.4382 L44.7443,71.8192 C45.2193,73.6122 46.8373,74.7962 48.6083,74.7962 C48.9473,74.7962 49.2923,74.7532 49.6353,74.6622 C51.5643,74.1512 52.7753,72.3132 52.5763,70.3892 C53.5403,70.3142 54.5303,70.2582 55.5373,70.2152 C55.5863,72.3822 57.3493,74.1262 59.5283,74.1262 C61.7073,74.1262 63.4703,72.3822 63.5193,70.2152 C64.6633,70.2642 65.7803,70.3322 66.8683,70.4212 C66.6863,72.3342 67.8963,74.1542 69.8153,74.6622 C70.1583,74.7532 70.5033,74.7962 70.8423,74.7962 C72.6123,74.7962 74.2313,73.6122 74.7063,71.8192 L74.7883,71.5102 C76.4603,71.8372 78.0553,72.2142 79.5723,72.6432 L79.4623,72.9532 C78.7203,75.0342 79.8063,77.3222 81.8873,78.0632 C82.3313,78.2222 82.7843,78.2962 83.2293,78.2962 C84.8743,78.2962 86.4153,77.2752 86.9983,75.6382 L87.0783,75.4132 C88.4813,76.0702 89.8003,76.7722 91.0323,77.5182 L90.8073,77.9662 C89.8173,79.9412 90.6163,82.3452 92.5913,83.3352 C93.1663,83.6232 93.7783,83.7602 94.3813,83.7602 C95.5333,83.7602 96.6463,83.2542 97.4133,82.3592 C98.2873,83.1902 99.0933,84.0452 99.8383,84.9162 L99.7363,85.0752 C98.5473,86.9372 99.0933,89.4102 100.9543,90.5992 C101.6213,91.0242 102.3663,91.2282 103.1033,91.2282 C103.4233,91.2282 103.7403,91.1882 104.0493,91.1132 C104.6573,92.2682 105.1763,93.4222 105.6243,94.5682 L104.6333,95.4442 C102.9783,96.9082 102.8233,99.4362 104.2873,101.0902 C105.0773,101.9842 106.1793,102.4402 107.2843,102.4402 C107.4113,102.4402 107.5383,102.4192 107.6653,102.4072 C107.8473,103.7842 107.9313,105.0842 107.9313,106.2702 C107.9313,118.4382 114.8893,118.5752 115.6793,106.7012 C115.8273,104.4652 115.9233,100.8362 115.6023,96.4222 L118.0993,94.2132 C119.7553,92.7502 119.9103,90.2222 118.4463,88.5672 C117.4093,87.3942 115.8413,86.9912 114.4253,87.3672 C113.9613,84.9302 113.3543,82.4032 112.5663,79.8482 L114.2683,77.1822 C114.8143,78.6262 116.1723,79.6862 117.8123,79.7662 C117.8793,79.7702 117.9453,79.7712 118.0123,79.7712 C120.1313,79.7712 121.8983,78.1072 122.0043,75.9682 C122.0373,75.3022 122.0593,74.6412 122.0743,73.9842 C124.1753,72.9082 126.1593,71.6362 128.0013,70.1922 C128.6753,70.9622 129.6403,71.4762 130.7413,71.5512 C130.8333,71.5572 130.9263,71.5602 131.0163,71.5602 C133.1013,71.5602 134.8593,69.9432 135.0043,67.8322 C135.1203,66.1292 135.1393,64.4592 135.1183,62.8062 C137.3483,59.7312 139.1193,56.3022 140.3173,52.6132 C140.6423,52.6992 140.9783,52.7592 141.3303,52.7592 C141.3743,52.7592 141.4193,52.7592 141.4643,52.7572 C143.6723,52.6852 145.4023,50.8352 145.3303,48.6272 C144.5083,23.6682 125.4803,6.2212 124.6713,5.4912" id="braids_Hair-Color" fill="#724133" ns2:color="Hair-500" />
            <path d="M59.5284,39.887 C57.3194,39.887 55.5284,41.678 55.5284,43.887 L55.5284,70.127 C55.5284,72.336 57.3194,74.127 59.5284,74.127 C61.7374,74.127 63.5284,72.336 63.5284,70.127 L63.5284,43.887 C63.5284,41.678 61.7374,39.887 59.5284,39.887" id="braids_Fill-4" fill-opacity=".24" fill="#000" />
            <path d="M45.8667,44.8123 C45.3017,42.6763 43.1117,41.4053 40.9757,41.9693 C38.8407,42.5353 37.5677,44.7253 38.1337,46.8603 L44.7437,71.8193 C45.2187,73.6123 46.8377,74.7963 48.6087,74.7963 C48.9477,74.7963 49.2917,74.7533 49.6347,74.6623 C51.7707,74.0973 53.0427,71.9073 52.4777,69.7713 L45.8667,44.8123 Z" id="braids_Fill-6" fill-opacity=".24" fill="#000" />
            <path d="M31.4522,48.9871 C30.7112,46.9071 28.4262,45.8201 26.3422,46.5611 C24.2612,47.3021 23.1752,49.5911 23.9162,51.6721 L32.4522,75.6381 C33.0352,77.2751 34.5762,78.2971 36.2202,78.2971 C36.6652,78.2971 37.1192,78.2221 37.5622,78.0641 C39.6432,77.3221 40.7292,75.0341 39.9882,72.9531 L31.4522,48.9871 Z" id="braids_Fill-8" fill-opacity=".24" fill="#000" />
            <path d="M19.919,60.5613 C18.93,58.5863 16.525,57.7903 14.55,58.7773 C12.576,59.7683 11.777,62.1713 12.767,64.1463 L21.49,81.5513 C22.192,82.9513 23.604,83.7603 25.069,83.7603 C25.672,83.7603 26.284,83.6233 26.859,83.3353 C28.834,82.3453 29.632,79.9413 28.643,77.9663 L19.919,60.5613 Z" id="braids_Fill-10" fill-opacity=".24" fill="#000" />
            <path d="M11.4546,72.1428 C10.2656,70.2808 7.7936,69.7368 5.9306,70.9248 C4.0686,72.1138 3.5236,74.5868 4.7126,76.4488 L12.9716,89.3808 C13.7346,90.5758 15.0266,91.2278 16.3466,91.2278 C17.0836,91.2278 17.8296,91.0248 18.4956,90.5988 C20.3576,89.4098 20.9026,86.9368 19.7136,85.0748 L11.4546,72.1428 Z" id="braids_Fill-12" fill-opacity=".24" fill="#000" />
            <path d="M6.6499,88.2215 C4.9959,86.7575 2.4679,86.9115 1.0039,88.5675 C-0.4601,90.2225 -0.3051,92.7505 1.3499,94.2135 L9.5169,101.4365 C10.2779,102.1105 11.2239,102.4405 12.1659,102.4405 C13.2719,102.4405 14.3729,101.9845 15.1629,101.0905 C16.6269,99.4355 16.4719,96.9085 14.8169,95.4445 L6.6499,88.2215 Z" id="braids_Fill-14" fill-opacity=".24" fill="#000" />
            <path d="M78.4737,41.9695 C76.3387,41.4055 74.1487,42.6765 73.5827,44.8125 L66.9727,69.7715 C66.4077,71.9065 67.6797,74.0965 69.8157,74.6625 C70.1587,74.7535 70.5027,74.7965 70.8417,74.7965 C72.6127,74.7965 74.2317,73.6125 74.7057,71.8195 L81.3167,46.8605 C81.8817,44.7245 80.6097,42.5345 78.4737,41.9695" id="braids_Fill-17" fill-opacity=".24" fill="#000" />
            <path d="M104.8995,58.7776 C104.2315,58.4436 103.5155,58.3286 102.8205,58.3796 C95.0555,29.1756 72.8415,21.7936 71.7485,21.4496 C69.6475,20.7906 67.4185,21.9536 66.7475,24.0496 C66.0765,26.1476 67.2365,28.3956 69.3305,29.0756 C70.0415,29.3066 81.4945,33.2286 89.5715,47.0026 C88.8705,47.4636 88.3005,48.1356 87.9985,48.9866 L79.4625,72.9536 C78.7205,75.0346 79.8065,77.3226 81.8875,78.0636 C82.3315,78.2216 82.7845,78.2966 83.2295,78.2966 C84.8745,78.2966 86.4155,77.2756 86.9985,75.6376 L94.7685,53.8196 C97.0055,55.4456 99.0105,57.2196 100.8045,59.1046 C100.2855,59.4716 99.8365,59.9526 99.5315,60.5616 L90.8075,77.9666 C89.8175,79.9416 90.6165,82.3446 92.5905,83.3356 C93.1665,83.6236 93.7785,83.7596 94.3805,83.7596 C95.8465,83.7596 97.2575,82.9516 97.9605,81.5516 L106.6835,64.1466 C107.6725,62.1716 106.8745,59.7676 104.8995,58.7776" id="braids_Fill-19" fill-opacity=".24" fill="#000" />
            <path d="M112.7999,88.2215 L104.6329,95.4445 C102.9789,96.9085 102.8229,99.4355 104.2869,101.0905 C105.0769,101.9845 106.1789,102.4405 107.2839,102.4405 C108.2269,102.4405 109.1719,102.1105 109.9329,101.4365 L118.0999,94.2135 C119.7549,92.7505 119.9099,90.2225 118.4459,88.5675 C116.9829,86.9115 114.4539,86.7575 112.7999,88.2215" id="braids_Fill-21" fill-opacity=".24" fill="#000" />
            <path d="M85.2022,8.4798 C83.3072,7.3468 80.8582,7.9628 79.7212,9.8538 C78.5852,11.7458 79.1972,14.2018 81.0882,15.3408 C81.4242,15.5428 113.4062,35.2608 114.0652,71.3558 C113.8962,71.2008 113.7192,71.0518 113.5192,70.9248 C111.6562,69.7368 109.1842,70.2808 107.9952,72.1428 L99.7362,85.0748 C98.5472,86.9368 99.0932,89.4098 100.9542,90.5988 C101.6212,91.0248 102.3662,91.2288 103.1032,91.2288 C104.4232,91.2288 105.7152,90.5758 106.4782,89.3808 L114.2682,77.1818 C114.8142,78.6258 116.1722,79.6858 117.8122,79.7668 C117.8792,79.7698 117.9452,79.7718 118.0122,79.7718 C120.1312,79.7718 121.8982,78.1068 122.0042,75.9678 C124.1512,32.3138 86.7932,9.4328 85.2022,8.4798" id="braids_Fill-23" fill-opacity=".24" fill="#000" />
            <path d="M101.4864,1.7844 C99.7114,0.4714 97.2114,0.8454 95.8954,2.6174 C94.5804,4.3904 94.9524,6.8954 96.7234,8.2124 C97.0494,8.4554 129.3654,32.8974 127.0214,67.2884 C126.8724,69.4924 128.5374,71.4004 130.7414,71.5514 C130.8334,71.5574 130.9254,71.5604 131.0164,71.5604 C133.1014,71.5604 134.8594,69.9434 135.0044,67.8324 C137.6484,29.0184 102.9644,2.8784 101.4864,1.7844" id="braids_Fill-25" fill-opacity=".24" fill="#000" />
            <path d="M124.6709,5.491 C123.0329,4.013 120.5109,4.143 119.0279,5.779 C117.5469,7.414 117.6729,9.943 119.3069,11.426 C119.4809,11.583 136.6259,27.394 137.3339,48.891 C137.4049,51.054 139.1819,52.76 141.3299,52.76 C141.3739,52.76 141.4189,52.759 141.4639,52.758 C143.6719,52.685 145.4019,50.836 145.3299,48.628 C144.5079,23.669 125.4809,6.221 124.6709,5.491" id="braids_Fill-27" fill-opacity=".24" fill="#000" />
        </g>
        <g id="braids_Facial-Hair" transform="translate(49.000000, 72.000000)"><defs>
        <path d="M101.428403,98.1685688 C98.9148372,100.462621 96.23722,101.494309 92.8529444,100.772863 C92.2705777,100.648833 89.8963391,96.2345713 83.9998344,96.2345713 C78.1033297,96.2345713 75.7294253,100.648833 75.1467245,100.772863 C71.7624488,101.494309 69.0848316,100.462621 66.5712661,98.1685688 C61.8461772,93.855604 57.9166219,87.9081858 60.2778299,81.4191814 C61.5083844,78.0369425 63.5097479,74.3237342 67.1506257,73.2459109 C71.0384163,72.0955419 76.4968931,73.2439051 80.4147542,72.4582708 C81.6840664,72.2035248 83.0706538,71.7508657 83.9998344,71 C84.929015,71.7508657 86.3159365,72.2035248 87.5845805,72.4582708 C91.5027758,73.2439051 96.9612525,72.0955419 100.849043,73.2459109 C104.489921,74.3237342 106.491284,78.0369425 107.722173,81.4191814 C110.083381,87.9081858 106.153826,93.855604 101.428403,98.1685688 M140.081033,26 C136.670693,34.4002532 137.987774,44.8580348 137.356666,53.6758724 C136.844038,60.8431942 135.33712,71.5857526 128.972858,76.214531 C125.718361,78.5816138 119.79436,82.5598986 115.54187,81.4501943 C112.614539,80.6863848 112.302182,72.290096 108.455284,69.1469801 C104.09172,65.5823153 98.6429854,64.0160432 93.1491481,64.2578722 C90.7785381,64.3622683 85.9841367,64.3374908 83.9999331,66.1604584 C82.0157295,64.3374908 77.2216647,64.3622683 74.8510547,64.2578722 C69.3568808,64.0160432 63.9081467,65.5823153 59.5445817,69.1469801 C55.6976839,72.290096 55.3856641,80.6863848 52.4583326,81.4501943 C48.2058427,82.5598986 42.2818421,78.5816138 39.0270077,76.214531 C32.6624096,71.5857526 31.1561652,60.8431942 30.642864,53.6758724 C30.0120926,44.8580348 31.3291729,34.4002532 27.9188335,26 C26.2597768,26 27.3540339,42.1288693 27.3540339,42.1288693 L27.3540339,62.4851205 C27.3856735,77.7732046 36.935095,100.655445 58.1080116,109.393004 C63.2861266,111.52982 75.0153111,115 83.9999331,115 C92.9845551,115 104.71374,111.860188 109.891855,109.723371 C131.064771,100.985813 140.614193,77.7732046 140.646169,62.4851205 L140.646169,42.1288693 C140.646169,42.1288693 141.740089,26 140.081033,26" id="beard_light_path-1" />
    </defs>
    <g id="beard_light_Facial-Hair/Beard-Light" stroke="none" stroke-width="1" fill="none" fill-rule="evenodd">
        <mask id="beard_light_mask-2" fill="white">
            <use xlink:href="#beard_light_path-1" />
        </mask>
        <use id="beard_light_Lite-Beard" fill="#331B0C" xlink:href="#beard_light_path-1" />
        <g id="beard_light_Facial-Hair-Color" mask="url(#beard_light_mask-2)" fill="#B58143">
            <rect id="beard_light_Color" x="0" y="0" width="168" height="152" />
        </g>
    </g>
</g>
        <g id="braids_Accessory" transform="translate(62.000000, 85.000000)" />
    </g>
</g>
    </g>
</svg>